<svg width="93" height="15" viewBox="0 0 93 15" fill="none" xmlns="http://www.w3.org/2000/svg">
<path d="M26.8525 0.581665V3.3789H29.7479V0.581665H26.8525ZM22.4017 0.778729V5.34846C21.7713 4.42274 21.0228 4.08761 19.9001 4.08761C16.9848 4.08761 16.2365 7.02283 16.2365 9.40583C16.2365 11.7301 17.0243 14.4879 19.8409 14.4879C21.1214 14.4879 21.9487 13.7986 22.5002 12.7348H22.5396V14.2912H25.2971V0.778729H22.4017ZM5.15609 4.08295C4.05142 4.12697 3.51465 5.15878 3.23776 6.15607H3.19799V4.28504H0.5V14.2912H3.39505V10.4696C3.39505 8.69705 3.67114 6.90447 5.87734 7.02279V4.12703L5.38468 4.08761C5.3059 4.08146 5.22973 4.08002 5.15609 4.08295ZM11.1751 4.08761C9.06754 4.08761 6.70392 4.79696 6.40834 7.21986L9.14609 7.47604C9.14609 6.49092 9.95381 6.01812 10.8795 6.01812C11.3129 6.01812 11.8057 6.15592 12.0616 6.49072C12.3571 6.86495 12.3177 7.37729 12.3177 7.81069V8.04681C11.0964 8.16513 9.50098 8.24402 8.35855 8.67741C7.03864 9.16997 6.11274 10.1745 6.11274 11.6513C6.11274 13.5422 7.49212 14.4879 9.26469 14.4879C10.7616 14.4879 11.6282 13.9168 12.4553 12.7351C12.4356 13.2472 12.4753 13.7792 12.5936 14.2912H15.4693C15.3116 13.7989 15.2719 13.3063 15.2719 12.7943V8.12599C15.2719 6.9244 15.3708 5.8211 14.3464 4.99375C13.539 4.32416 12.1995 4.08761 11.1751 4.08761ZM35.6566 4.08798C32.6035 4.08798 30.9095 6.35313 30.9095 9.2679C30.9095 12.1636 32.5838 14.4879 35.6566 14.4879C38.6113 14.4879 40.4825 12.2226 40.4825 9.36679C40.4825 6.41212 38.7885 4.08798 35.6566 4.08798ZM26.8525 4.28469V14.2909H29.7479V4.28469H26.8525ZM35.6763 5.99843C36.3461 5.99843 36.8187 6.25469 37.0554 6.90456C37.331 7.65326 37.3703 8.59858 37.3703 9.38649C37.3703 10.5881 37.2916 12.5574 35.6566 12.5574C34.0021 12.5574 34.022 10.1149 34.022 8.97266C34.022 7.83023 34.1202 5.99843 35.6763 5.99843ZM21.0033 6.11666C22.3232 6.11666 22.4017 7.77101 22.4017 8.73618V10.1153C22.4017 10.6076 22.3819 11.1396 22.1455 11.5925C21.9093 12.0459 21.4168 12.4001 20.885 12.4001C19.4472 12.4001 19.2895 10.5682 19.2895 9.48467C19.2895 8.28331 19.3488 6.11666 21.0033 6.11666ZM12.3177 9.50437V9.8985C12.3177 10.6078 12.3373 11.1986 11.9236 11.829C11.5888 12.3411 11.0568 12.656 10.4661 12.656C9.65843 12.656 9.18551 12.1245 9.18551 11.3364C9.18551 9.87885 11.2148 9.6227 12.3177 9.50437Z" fill="#005DCB"/>
<path d="M45.0102 0.568048C43.983 0.591241 42.8996 1.00253 42.3137 1.88157C41.8214 2.63004 41.8604 3.67429 41.8604 4.54086H40.6985V6.78631H41.8604V14.2912H44.7559V6.78631H46.5287V4.54086H44.7559V4.32445C44.7559 3.47737 44.7559 2.8076 45.7999 2.86653L46.7849 2.92565V0.699901L45.4456 0.581663C45.3027 0.569372 45.157 0.564738 45.0102 0.568059V0.568048ZM51.7162 4.08295C50.6115 4.12697 50.0751 5.15878 49.7982 6.15607H49.7584V4.28503H47.0597V14.2912H49.9555V10.4696C49.9555 8.69705 50.2314 6.90446 52.4374 7.02279V4.12702L51.9447 4.08761C51.866 4.08147 51.7898 4.08002 51.7162 4.08295ZM57.7359 4.08761C55.6281 4.08761 53.2641 4.79695 52.9688 7.21985L55.7065 7.47604C55.7065 6.49092 56.514 6.01812 57.44 6.01812C57.8734 6.01812 58.3661 6.15592 58.622 6.49072C58.9176 6.86495 58.8778 7.37729 58.8778 7.81069V8.04681C57.6567 8.16513 56.0611 8.24401 54.9186 8.67741C53.5989 9.16997 52.6732 10.1745 52.6732 11.6513C52.6732 13.5422 54.052 14.4879 55.8248 14.4879C57.3217 14.4879 58.1888 13.9168 59.0161 12.7351C58.9964 13.2472 59.0356 13.7792 59.1537 14.2912H62.0294C61.8719 13.7989 61.8327 13.3063 61.8327 12.7943V8.12599C61.8327 6.9244 61.931 5.8211 60.9069 4.99375C60.099 4.32416 58.7598 4.08761 57.7359 4.08761ZM68.8439 4.08761C67.3862 4.08761 66.5589 4.6987 65.9682 5.97871H65.9288V4.28503H63.191V14.2912H66.0864V8.91389C66.0864 8.28328 66.1255 7.71224 66.4211 7.14103C66.6575 6.68791 67.13 6.39254 67.6425 6.39254C69.0998 6.39254 68.9621 7.88933 68.9621 8.91389V14.2912H71.8575V8.10628C71.8575 7.20028 71.8572 5.93928 71.3057 5.19081C70.7148 4.38318 69.7893 4.08761 68.8439 4.08761ZM87.8108 4.08761C84.6983 4.08761 82.9454 6.4711 82.9454 9.42554C82.9454 12.3999 84.8957 14.4879 87.8896 14.4879C91.2774 14.4879 92.4396 11.5334 92.4396 11.0411L89.7606 10.844C89.7606 11.7698 88.8743 12.4195 87.9878 12.4195C86.7272 12.4195 86.0576 11.4546 86.0576 10.2729L86.0773 9.78025H92.4987C92.5185 8.42113 92.3019 7.0029 91.4744 5.86047C90.6472 4.71804 89.2091 4.08761 87.8108 4.08761ZM77.8841 4.08798C74.7327 4.08798 72.8812 6.31396 72.8812 9.38649C72.8812 12.3412 74.6734 14.4879 77.7067 14.4879C80.1494 14.4879 82.0205 13.0106 82.2571 10.5287L79.4993 10.3711C79.4007 11.2966 78.889 12.1045 77.8644 12.1045C76.2099 12.1045 76.1901 10.3713 76.1901 9.15002C76.1901 7.86977 76.3872 6.29366 77.983 6.29366C79.0266 6.29366 79.4993 7.18022 79.4993 8.08623L82.2571 7.92894C82.0599 5.58492 80.2084 4.08798 77.8841 4.08798ZM87.929 5.97872C89.1895 5.97872 89.544 6.98339 89.603 8.06688H86.0576C86.1562 6.92423 86.6485 5.97872 87.929 5.97872ZM58.8778 9.50437V9.8985C58.8778 10.6078 58.8974 11.1986 58.4837 11.829C58.1491 12.3411 57.6174 12.656 57.0265 12.656C56.2189 12.656 55.7459 12.1245 55.7459 11.3364C55.7459 9.87885 57.7746 9.6227 58.8778 9.50437Z" fill="black"/>
</svg>
