<svg width="93" height="49" viewBox="0 0 93 49" fill="none" xmlns="http://www.w3.org/2000/svg">
<g clip-path="url(#clip0_2121_276850)">
<path d="M66.1978 44.2647H56.5527H36.4414H26.7952C20.8856 44.2647 15.5645 41.7849 11.8427 37.8287C11.7351 37.7138 11.6295 37.5968 11.5243 37.4798C11.4184 37.3612 11.3125 37.2432 11.2093 37.1222C11.1068 37.0026 11.0067 36.8806 10.907 36.7589C10.8062 36.6359 10.7068 36.5122 10.6091 36.3862C10.512 36.2618 10.4171 36.1361 10.3231 36.0087C10.2288 35.8817 10.1355 35.753 10.0447 35.6236C9.95311 35.4942 9.86394 35.3638 9.77545 35.2317C9.68697 35.0999 9.60088 34.9675 9.51547 34.8334C9.4304 34.7003 9.34704 34.5655 9.26539 34.4301C9.18271 34.2929 9.10243 34.1551 9.02317 34.0157C8.94527 33.8792 8.86806 33.7424 8.79324 33.6036C8.71672 33.4614 8.64292 33.3179 8.56981 33.1741C8.49909 33.0349 8.42803 32.8948 8.36039 32.7533C8.28932 32.6054 8.22202 32.4558 8.15472 32.3063C8.09152 32.1658 8.02831 32.0249 7.96887 31.8828C7.90361 31.7272 7.84178 31.5702 7.78028 31.4129C7.72528 31.2728 7.66993 31.1329 7.61835 30.9908C7.55856 30.8271 7.50321 30.6607 7.44753 30.4947C7.40106 30.3562 7.35392 30.2181 7.31053 30.0789C7.25689 29.9048 7.20804 29.729 7.15884 29.5539C7.12126 29.4182 7.08163 29.2834 7.0461 29.1469C6.99861 28.9607 6.95659 28.7722 6.91423 28.584C6.88553 28.4556 6.8541 28.3275 6.82779 28.1985C6.78577 27.9938 6.75058 27.7857 6.71505 27.579C6.69524 27.4631 6.67269 27.3488 6.65492 27.2335C6.61939 26.9996 6.59104 26.7633 6.56336 26.527C6.55277 26.4346 6.53842 26.3439 6.5292 26.2511C6.49914 25.9584 6.47761 25.6639 6.46087 25.3678C6.45882 25.3298 6.45404 25.2925 6.45267 25.2542C6.43525 24.9151 6.42603 24.5736 6.42603 24.2301C6.42603 24.0049 6.43491 23.7821 6.44242 23.5589C6.44618 23.45 6.4455 23.3405 6.45097 23.2323C6.46019 23.0457 6.47795 22.8602 6.4923 22.675C6.50358 22.5275 6.51178 22.3796 6.52647 22.2334C6.54389 22.0583 6.56917 21.8858 6.59104 21.7127C6.61051 21.5578 6.62725 21.4022 6.65082 21.2479C6.67645 21.0802 6.70856 20.9145 6.73828 20.7481C6.7663 20.5919 6.79192 20.4342 6.82369 20.2786C6.85683 20.1156 6.89544 19.9553 6.93233 19.7943C6.96821 19.6373 7.00305 19.4804 7.04268 19.3251C7.08266 19.1688 7.12775 19.0139 7.17148 18.8589C7.21589 18.7013 7.25928 18.5437 7.30711 18.3881C7.35392 18.2365 7.40516 18.0876 7.45538 17.9384C7.50765 17.7821 7.55993 17.6258 7.61595 17.4708C7.66959 17.324 7.72699 17.1794 7.7837 17.0339C7.84383 16.8803 7.90396 16.726 7.96784 16.5748C8.02763 16.432 8.09083 16.2915 8.15404 16.1506C8.22168 15.9991 8.28967 15.8485 8.36141 15.6996C8.42769 15.5608 8.4967 15.4243 8.56639 15.2869C8.64155 15.1393 8.71706 14.9928 8.79529 14.8472C8.86806 14.7128 8.94356 14.5787 9.01941 14.4453C9.10038 14.3028 9.18305 14.1606 9.26778 14.0204C9.34738 13.8877 9.42937 13.7566 9.51205 13.6262C9.59849 13.4894 9.68697 13.3543 9.77682 13.2199C9.86394 13.0898 9.95277 12.9607 10.043 12.833C10.1345 12.7033 10.2278 12.5745 10.3217 12.4468C10.4171 12.3181 10.5137 12.1911 10.6118 12.0647C10.7061 11.943 10.8024 11.823 10.8998 11.7041C11.004 11.5763 11.1089 11.449 11.2161 11.3239C11.3121 11.2117 11.4102 11.1011 11.5089 10.9912C11.623 10.8641 11.7378 10.7368 11.8554 10.6124C15.5761 6.6629 20.891 4.18854 26.7942 4.18854H36.4377H56.5571H66.1996C72.1003 4.18854 77.4125 6.66021 81.1326 10.6064C81.2546 10.7357 81.3745 10.8675 81.4927 10.9999C81.5877 11.1055 81.6813 11.2117 81.7732 11.3192C81.8845 11.4476 81.9922 11.5777 82.0977 11.7088C82.1941 11.8257 82.2877 11.9427 82.3796 12.0617C82.48 12.1894 82.5777 12.3194 82.6737 12.4492C82.767 12.5756 82.8592 12.7029 82.9501 12.8307C83.0413 12.9597 83.1288 13.0898 83.2169 13.2202C83.3078 13.3546 83.3956 13.4901 83.4824 13.6265C83.5647 13.7563 83.646 13.887 83.7256 14.0194C83.811 14.1606 83.8934 14.3034 83.9757 14.447C84.0502 14.579 84.1257 14.7108 84.1971 14.8446C84.2767 14.9921 84.3525 15.141 84.4297 15.2906C84.4967 15.425 84.5657 15.5605 84.6317 15.6966C84.7034 15.8482 84.7721 16.0007 84.8407 16.1543C84.9043 16.2931 84.9658 16.4316 85.0249 16.5718C85.0895 16.7267 85.1513 16.883 85.2121 17.0393C85.2685 17.1821 85.3248 17.325 85.3768 17.4688C85.4331 17.6258 85.4868 17.7844 85.5394 17.9431C85.5889 18.0906 85.6398 18.2378 85.6866 18.3867C85.7348 18.5443 85.7789 18.7047 85.824 18.8643C85.8667 19.0166 85.9121 19.1688 85.9504 19.3227C85.9917 19.481 86.0262 19.6414 86.0631 19.801C86.0987 19.96 86.1376 20.1176 86.1704 20.2773C86.2018 20.4356 86.2281 20.5952 86.2568 20.7542C86.2859 20.9185 86.3177 21.0816 86.3423 21.2472C86.3655 21.4029 86.3832 21.5605 86.4027 21.7171C86.4246 21.8889 86.4495 22.0603 86.4673 22.2334C86.481 22.3796 86.4892 22.5275 86.5018 22.675C86.5155 22.8602 86.5336 23.0457 86.5431 23.2323C86.5486 23.3405 86.5472 23.45 86.551 23.5589C86.5582 23.7821 86.5677 24.0046 86.5677 24.2301C86.5677 24.5736 86.5582 24.9154 86.5414 25.2542C86.5387 25.2925 86.5346 25.3298 86.5322 25.3678C86.5155 25.6639 86.4936 25.9584 86.4649 26.2511C86.4553 26.3439 86.4417 26.4346 86.4304 26.527C86.4027 26.763 86.3754 26.9992 86.3395 27.2335C86.3214 27.3485 86.2982 27.4621 86.2787 27.5763C86.2432 27.7847 86.2073 27.9931 86.166 28.1995C86.14 28.3278 86.1082 28.4546 86.0795 28.5823C86.0368 28.7712 85.9955 28.9604 85.9473 29.1473C85.9118 29.2837 85.8715 29.4185 85.8346 29.5543C85.785 29.7294 85.7369 29.9055 85.6819 30.0793C85.6395 30.2184 85.591 30.3565 85.5459 30.495C85.4895 30.6607 85.4345 30.8271 85.3754 30.9911C85.3235 31.1333 85.2685 31.2738 85.2131 31.4139C85.151 31.5709 85.0895 31.7278 85.0245 31.8828C84.9641 32.0256 84.9009 32.1671 84.8377 32.3083C84.7704 32.4578 84.7027 32.6067 84.6327 32.7539C84.5654 32.8954 84.4936 33.0356 84.4236 33.1747C84.3508 33.3189 84.2764 33.4621 84.1995 33.6043C84.1254 33.7427 84.0485 33.8795 83.9699 34.0163C83.8903 34.1558 83.8104 34.2943 83.7277 34.4307C83.6467 34.5662 83.563 34.7003 83.4776 34.8327C83.3925 34.9672 83.3058 35.1013 83.2176 35.2337C83.1295 35.3648 83.0403 35.4945 82.9494 35.6239C82.8572 35.7536 82.7639 35.8823 82.6707 36.0091C82.5757 36.1364 82.4807 36.2621 82.3844 36.3865C82.287 36.5125 82.1866 36.6362 82.0861 36.7592C81.987 36.8809 81.8866 37.0029 81.7834 37.1226C81.6802 37.2436 81.5747 37.3619 81.4684 37.4802C81.3639 37.5971 81.2583 37.7141 81.1507 37.829C77.4289 41.7849 72.1085 44.2647 66.1978 44.2647Z" fill="white"/>
<path d="M11.7902 10.3186C6.3007 14.3904 2.58948 20.5535 2.58948 26.8557C2.58948 40.5911 13.4379 48.4299 24.794 48.0326C36.6779 47.6138 51.6984 45.3119 56.5746 44.5184C56.7495 44.4794 56.7068 44.267 56.5527 44.267H26.7953C15.5496 44.267 6.42574 35.2961 6.42574 24.2311C6.42574 18.9157 8.52751 14.0859 11.9562 10.5018C12.044 10.4117 11.9477 10.29 11.8575 10.29C11.8339 10.29 11.81 10.2981 11.7902 10.3186Z" fill="url(#paint0_linear_2121_276850)"/>
<path d="M68.2016 0.425524C56.3191 0.842959 41.2955 3.14557 36.4213 3.92868C36.2447 3.97675 36.2874 4.18849 36.4374 4.18849H66.1993C77.4467 4.18849 86.5681 13.1603 86.5681 24.2307C86.5681 29.5391 84.4657 34.3692 81.0374 37.9543C80.9273 38.0666 81.1105 38.2343 81.2078 38.1389C86.6935 34.0633 90.4048 27.8999 90.4048 21.5998C90.4048 8.20252 80.0763 0.411408 69.0298 0.411072C68.7544 0.411072 68.478 0.415441 68.2016 0.425524Z" fill="url(#paint1_linear_2121_276850)"/>
<path d="M28.1656 16.8595C25.552 16.8595 23.4277 18.9332 23.4277 21.4875C23.4277 24.0412 25.552 26.115 28.1656 26.115C30.7798 26.115 32.8973 24.0412 32.8973 21.4875C32.8969 18.9332 30.7795 16.8595 28.1656 16.8595ZM28.1656 23.8658C26.8202 23.8658 25.7328 22.8037 25.7328 21.4875C25.7328 20.1734 26.8199 19.1086 28.1656 19.1086C29.5051 19.1086 30.5895 20.1734 30.5895 21.4875C30.5895 22.8037 29.5051 23.8658 28.1656 23.8658ZM50.766 20.975V22.8776H53.2798C52.8367 23.4641 52.1217 23.8604 51.3226 23.8604C49.9803 23.8604 48.8915 22.8037 48.8915 21.4875C48.8915 20.1734 49.9806 19.1154 51.3226 19.1154C52.1022 19.1154 52.7943 19.4693 53.2381 20.0258L55.8137 20.0164C55.1824 18.1813 53.4154 16.8595 51.3226 16.8595C48.7042 16.8595 46.581 18.9332 46.581 21.4875C46.581 24.0443 48.7042 26.115 51.3226 26.115C53.9313 26.115 56.0601 24.0443 56.0601 21.4875C56.0601 21.3158 56.0519 21.1535 56.0269 20.9918L50.766 20.975ZM60.8362 22.8074C60.8362 23.3761 60.378 23.8409 59.7949 23.8409C59.2076 23.8409 58.7197 23.3761 58.7197 22.8074V16.9757H56.4287V22.8074C56.4287 24.621 57.936 26.0934 59.7952 26.0934C61.653 26.0934 63.1576 24.621 63.1576 22.8074V16.9757H60.8365V22.8074H60.8362ZM64.0168 26.0047H69.0003V23.9159H66.2915V22.521H69.0072V20.4514H66.2915V19.0451H69.0072V16.9757H64.0168V26.0047ZM74.0334 20.6712C73.456 20.4298 73.1424 20.4608 72.7765 20.3525C72.2842 20.2194 72.0805 19.9791 72.0805 19.9791C71.9446 19.8397 71.8633 19.6471 71.8633 19.4394C71.8633 18.9994 72.2223 18.6452 72.6733 18.6452C73.1133 18.6452 73.4557 18.9994 73.4557 19.4394V19.7086H75.6008C75.6008 18.1252 74.2903 16.84 72.6733 16.84C71.0587 16.84 69.74 18.1161 69.74 19.7005C69.74 20.7488 70.3888 21.6458 71.3064 22.0367C71.3064 22.0367 71.9883 22.2851 72.2961 22.3486C72.6026 22.4142 72.5424 22.3994 72.8988 22.4841C73.3084 22.5789 73.6053 22.9385 73.6053 23.364C73.6053 23.8658 73.1871 24.2758 72.673 24.2758C72.1516 24.2758 71.7365 23.8658 71.7365 23.364C71.7365 23.2833 71.717 23.2017 71.7365 23.126H69.616C69.616 24.7759 70.987 26.1062 72.673 26.1062C74.3589 26.1062 75.7132 24.7722 75.7132 23.1213C75.7139 22.0179 75.0166 21.0721 74.0334 20.6712ZM21.986 21.0926C22.59 20.6843 22.9983 20.0043 22.9983 19.2353C22.9983 17.9854 21.9717 16.9788 20.6967 16.9788V16.9761H17.2803V26.0111H20.6967C22.1766 26.0111 23.3792 24.8395 23.3792 23.3885C23.3792 22.3906 22.8203 21.537 21.986 21.0926ZM19.5727 19.0283H20.4459C20.8268 19.0283 21.1312 19.3224 21.1312 19.6884C21.1312 20.0605 20.8265 20.367 20.4459 20.367H19.5727V19.0283ZM20.4459 23.9159H19.5727V22.2038H20.4459C20.9239 22.2038 21.314 22.5866 21.314 23.0575C21.314 23.5283 20.9239 23.9159 20.4459 23.9159ZM45.1485 16.9784L43.731 20.0114L42.2927 16.9784H39.9982V16.9757H37.6775V22.8074C37.6775 23.3761 37.218 23.8409 36.6321 23.8409C36.053 23.8409 35.5627 23.3761 35.5627 22.8074V16.9757H33.2703V22.8074C33.2703 24.621 34.778 26.0934 36.6321 26.0934C38.4937 26.0934 39.9986 24.621 39.9986 22.8074V17.2208L42.5776 22.7093V26.0111H44.8803V22.7093L47.5539 16.9788H45.1485V16.9784Z" fill="#4D4D4F"/>
<path d="M18.0753 30.1017H19.7855V29.3983H18.0753V28.6683H20.0202V27.9702H17.2803V31.556H20.0475V30.8539H18.0753V30.1017ZM23.1992 30.1753L21.4937 27.9702H20.7551V31.556H21.547V29.2749L23.3078 31.556H23.9863V27.9705H23.1988V30.1753H23.1992ZM25.6528 30.1017H27.362V29.3983H25.6528V28.6683H27.5998V27.9702H24.8602V31.556H27.6248V30.8539H25.6528V30.1017ZM31.3698 29.1633V29.1549C31.3698 28.8152 31.2625 28.5338 31.0576 28.3332C30.8184 28.0956 30.4621 27.9705 29.9954 27.9705H28.3371V31.5564H29.1362V30.4069H29.7648L30.5448 31.5564H31.4785L30.5864 30.2772C31.0528 30.1058 31.3698 29.7404 31.3698 29.1633ZM30.5584 29.203C30.5584 29.5085 30.336 29.7112 29.9452 29.7112H29.1362V28.6817H29.9329C30.3213 28.6817 30.5588 28.8545 30.5588 29.1949V29.203H30.5584ZM33.8136 30.1753H34.6226V30.6896C34.4176 30.8287 34.1596 30.9 33.8645 30.9C33.2239 30.9 32.7647 30.4187 32.7647 29.7656V29.7549C32.7647 29.1455 33.2276 28.634 33.8101 28.634C34.2307 28.634 34.4797 28.7671 34.7585 28.9987L35.2635 28.4007C34.8812 28.0821 34.4876 27.9097 33.8337 27.9097C32.734 27.9097 31.9304 28.7402 31.9304 29.7656V29.774C31.9304 30.8348 32.7084 31.6192 33.8412 31.6192C34.5037 31.6192 35.0182 31.3628 35.3926 31.0505V29.4894H33.8139V30.1753H33.8136ZM36.1968 31.556H36.9959V27.9699H36.1968V31.556ZM38.6997 30.1017H40.4123V29.3983H38.6997V28.6683H40.6467V27.9702H37.9037V31.556H40.6723V30.8539H38.7V30.1017H38.6997ZM42.8574 29.4094C42.2291 29.2487 42.0747 29.1731 42.0747 28.9351V28.9277C42.0747 28.752 42.2332 28.6152 42.5411 28.6152C42.8461 28.6152 43.1605 28.7516 43.4867 28.9677L43.9004 28.3728C43.5346 28.0821 43.0788 27.9164 42.5506 27.9164C41.8079 27.9164 41.2784 28.3507 41.2784 28.999V29.0087C41.2784 29.7226 41.7485 29.9223 42.4823 30.1061C43.0887 30.2597 43.2141 30.3612 43.2141 30.5649V30.5716C43.2141 30.7833 43.0163 30.9134 42.6931 30.9134C42.277 30.9134 41.9333 30.743 41.6074 30.4785L41.1325 31.0358C41.5705 31.4199 42.1226 31.6085 42.6743 31.6085C43.458 31.6085 44.0087 31.2109 44.0087 30.4956V30.4886C44.0091 29.8611 43.594 29.5969 42.8574 29.4094ZM51.298 29.4094C50.668 29.2487 50.5142 29.1731 50.5142 28.9351V28.9277C50.5142 28.752 50.6765 28.6152 50.9802 28.6152C51.288 28.6152 51.6044 28.7516 51.9276 28.9677L52.3413 28.3728C51.973 28.0821 51.5221 27.9164 50.9898 27.9164C50.2484 27.9164 49.7175 28.3507 49.7175 28.999V29.0087C49.7175 29.7226 50.1934 29.9223 50.9235 30.1061C51.5354 30.2597 51.6553 30.3612 51.6553 30.5649V30.5716C51.6553 30.7833 51.4585 30.9134 51.1271 30.9134C50.7175 30.9134 50.3735 30.743 50.0462 30.4785L49.573 31.0358C50.0103 31.4199 50.5658 31.6085 51.1186 31.6085C51.8982 31.6085 52.451 31.2109 52.451 30.4956V30.4886C52.4517 29.8611 52.0379 29.5969 51.298 29.4094ZM53.9125 30.1017H55.6299V29.3983H53.9125V28.6683H55.8595V27.9702H53.1189V31.556H55.8882V30.8539H53.9125V30.1017ZM59.607 29.1633V29.1549C59.607 28.8152 59.4983 28.5338 59.2961 28.3332C59.0556 28.0956 58.6992 27.9705 58.237 27.9705H56.5718V31.5564H57.3723V30.4069H58.0009L58.7788 31.5564H59.7139L58.827 30.2772C59.2875 30.1058 59.607 29.7404 59.607 29.1633ZM58.7956 29.203C58.7956 29.5085 58.5728 29.7112 58.1837 29.7112H57.3723V28.6817H58.1683C58.5564 28.6817 58.7956 28.8545 58.7956 29.1949V29.203ZM61.6612 30.4953L60.7163 27.9702H59.8307L61.2994 31.5809H62.0087L63.4774 27.9702H62.6141L61.6612 30.4953ZM63.9208 31.556H64.7213V27.9699H63.9208V31.556ZM67.2774 30.8885C66.656 30.8885 66.2255 30.3783 66.2255 29.7656V29.7549C66.2255 29.1385 66.6642 28.634 67.2774 28.634C67.6403 28.634 67.9276 28.7903 68.2057 29.0403L68.7157 28.4612C68.3802 28.1315 67.9689 27.9094 67.2843 27.9094C66.1664 27.9094 65.3895 28.7399 65.3895 29.7653V29.7737C65.3895 30.8002 66.1801 31.6189 67.2498 31.6189C67.9552 31.6189 68.3676 31.3735 68.7434 30.9773L68.2347 30.4698C67.9457 30.7242 67.6929 30.8885 67.2774 30.8885ZM70.098 30.1017H71.8127V29.3983H70.098V28.6683H72.0423V27.9702H69.3016V31.556H72.07V30.8539H70.0984V30.1017H70.098ZM74.2298 29.4094C73.5971 29.2487 73.4474 29.1731 73.4474 28.9351V28.9277C73.4474 28.752 73.607 28.6152 73.9107 28.6152C74.2185 28.6152 74.5321 28.7516 74.857 28.9677L75.2738 28.3728C74.9052 28.0821 74.4515 27.9164 73.9233 27.9164C73.1779 27.9164 72.6501 28.3507 72.6501 28.999V29.0087C72.6501 29.7226 73.1201 29.9223 73.853 30.1061C74.4635 30.2597 74.5861 30.3612 74.5861 30.5649V30.5716C74.5861 30.7833 74.388 30.9134 74.0624 30.9134C73.647 30.9134 73.3043 30.743 72.9773 30.4785L72.5028 31.0358C72.9425 31.4199 73.497 31.6085 74.047 31.6085C74.8311 31.6085 75.3794 31.2109 75.3794 30.4956V30.4886C75.3797 29.8611 74.9643 29.5969 74.2298 29.4094ZM48.4463 29.936L47.8604 29.6188C47.7463 29.8386 47.6264 30.0496 47.5041 30.2345L47.0234 29.7609C47.4767 29.5858 47.7859 29.3032 47.7859 28.8178V28.8064C47.7859 28.3086 47.3817 27.9097 46.7634 27.9097C46.064 27.9097 45.6636 28.3601 45.6636 28.8511V28.8592C45.6636 29.1072 45.7422 29.3327 45.9165 29.5798C45.4597 29.7845 45.2103 30.1058 45.2103 30.5649V30.5716C45.2103 31.2109 45.7371 31.6085 46.4337 31.6085C46.8508 31.6085 47.2 31.4475 47.4931 31.2109L47.845 31.5564H48.8423L47.9663 30.6946C48.1518 30.457 48.3045 30.1905 48.4463 29.936ZM46.3968 28.8904C46.3968 28.6686 46.5365 28.5217 46.7456 28.5217C46.9506 28.5217 47.0944 28.6545 47.0944 28.8538V28.8659C47.0944 29.0944 46.9253 29.2242 46.6062 29.3422C46.4549 29.1728 46.3971 29.0541 46.3971 28.8962V28.8904H46.3968ZM46.5249 30.9588C46.2284 30.9588 46.0145 30.7944 46.0145 30.5444V30.5306C46.0145 30.3609 46.1132 30.1817 46.3524 30.0594L47.0487 30.7555C46.8823 30.8862 46.7046 30.9588 46.5249 30.9588Z" fill="#009FC3"/>
</g>
<defs>
<linearGradient id="paint0_linear_2121_276850" x1="2.58938" y1="29.1687" x2="56.6883" y2="29.1687" gradientUnits="userSpaceOnUse">
<stop stop-color="#F15A22"/>
<stop offset="0.2035" stop-color="#F26221"/>
<stop offset="0.5253" stop-color="#F5791F"/>
<stop offset="0.9233" stop-color="#F99E1B"/>
<stop offset="1" stop-color="#FAA61A"/>
</linearGradient>
<linearGradient id="paint1_linear_2121_276850" x1="90.197" y1="19.2891" x2="36.2929" y2="19.2891" gradientUnits="userSpaceOnUse">
<stop stop-color="#009FC3"/>
<stop offset="0.3217" stop-color="#02A0C4"/>
<stop offset="0.4523" stop-color="#09A2C5"/>
<stop offset="0.5481" stop-color="#15A6C9"/>
<stop offset="0.6271" stop-color="#27ADCD"/>
<stop offset="0.6948" stop-color="#3DB4D3"/>
<stop offset="0.75" stop-color="#56BDDA"/>
<stop offset="1" stop-color="#56BDDA"/>
</linearGradient>
<clipPath id="clip0_2121_276850">
<rect width="92" height="47.6353" fill="white" transform="translate(0.5 0.446045)"/>
</clipPath>
</defs>
</svg>
