<svg width="93" height="49" viewBox="0 0 93 49" fill="none" xmlns="http://www.w3.org/2000/svg">
<g clip-path="url(#clip0_2121_276858)">
<path d="M2.19727 0.114956C1.17348 0.158234 0.508179 0.634281 0.508179 1.65224V47.0373C0.508179 47.8283 1.07121 48.5439 1.93942 48.5439H82.4503C83.1733 48.5439 83.7505 48.4779 84.0904 47.5174C84.0904 47.5174 92.2503 21.8193 92.3918 21.3539C92.6948 20.3833 92.4982 19.8906 91.6753 19.3633C65.4549 2.45209 26.233 -0.00056076 8.44449 -0.00056076C5.89099 -0.00056076 3.78192 0.0509567 2.20489 0.114845" fill="url(#paint0_linear_2121_276858)"/>
<path d="M51.7099 35.8854C50.5837 34.5645 50.1374 32.8603 50.4158 30.9604C51.0793 26.429 55.4611 23.5647 61.3233 23.5647C62.558 23.5647 63.8296 23.643 64.9721 23.7893L66.1311 20.3706C64.7182 20.1522 63.0065 20.0595 61.3274 20.0595C56.1286 20.0595 51.6075 21.8605 48.6774 25.036C48.5853 25.1349 48.4911 25.1328 48.4338 25.1328C48.3437 25.1328 48.2822 25.1164 48.3068 25.036L49.7749 20.4015H45.4832L40.786 35.2322C39.2913 30.8553 36.2158 25.0999 32.4544 20.4015H27.8453L24.3992 31.1974C26.1314 32.4935 26.6802 33.4291 27.1327 34.7603C27.1593 34.8386 27.2146 34.8551 27.2986 34.8551C27.3825 34.8551 27.4235 34.8344 27.446 34.7603C27.4788 34.6572 30.4519 25.3781 30.4519 25.3781C33.4843 29.7446 36.4943 35.4897 38.1078 41.5563H43.0507L45.4955 33.8701C45.5221 33.7918 45.5753 33.7753 45.6572 33.7753C45.7432 33.7753 45.7985 33.7979 45.8088 33.8701C46.552 38.6961 51.3209 41.9396 58.08 41.9396C62.4495 41.9396 66.3993 40.7856 67.3821 40.2561L69.9437 32.137H79.7803L80.7816 28.9925H70.9429L72.6404 23.6615H84.3628L85.3845 20.4015H68.9178L63.3279 37.9852C62.1424 38.2861 60.6763 38.4344 59.1447 38.4344C55.846 38.4344 53.2047 37.6452 51.7099 35.8854ZM23.9446 23.6471L24.9234 20.5499C23.5167 20.2903 22.5113 20.1563 20.8323 20.1172C15.4348 19.9915 10.5554 21.4896 9.30028 24.663C7.81373 28.4258 12.0318 30.5421 15.6867 32.2854C18.5881 33.6702 20.8814 34.9869 20.0747 36.7117C19.4481 38.0491 17.3944 38.6838 14.409 38.6158C11.8229 38.5539 8.59795 37.808 6.0569 36.5201L4.54578 39.8089C6.41522 40.6826 10.2688 41.8696 13.5572 41.9458C19.7327 42.088 23.7317 40.5239 25.3329 37.1403C27.2269 33.1344 22.5277 30.9439 18.754 29.1099C15.7993 27.6736 13.7845 26.9236 14.2698 25.479C14.8431 23.7687 17.8141 23.1196 20.5067 23.1814C21.8684 23.2144 22.8369 23.3895 23.9446 23.6471Z" fill="white"/>
</g>
<defs>
<linearGradient id="paint0_linear_2121_276858" x1="0.510899" y1="-2.8359" x2="92.3912" y2="-2.8359" gradientUnits="userSpaceOnUse">
<stop stop-color="#7C2270"/>
<stop offset="0.2472" stop-color="#AA147E"/>
<stop offset="0.8146" stop-color="#E41D25"/>
<stop offset="1" stop-color="#E41D25"/>
</linearGradient>
<clipPath id="clip0_2121_276858">
<rect width="92" height="48.5275" fill="white" transform="translate(0.5)"/>
</clipPath>
</defs>
</svg>
