<svg width="93" height="15" viewBox="0 0 93 15" fill="none" xmlns="http://www.w3.org/2000/svg">
<g clip-path="url(#clip0_2121_276866)">
<path fill-rule="evenodd" clip-rule="evenodd" d="M0.783912 13.7655V11.0881C2.35886 11.5677 3.75248 11.8075 4.96476 11.8075C6.63851 11.8075 7.47553 11.3794 7.47553 10.5239C7.47553 10.2049 7.35372 9.93689 7.10956 9.71987C6.85987 9.48967 6.22038 9.17054 5.19274 8.76168C3.34887 8.02808 2.14652 7.40247 1.58726 6.88501C0.862388 6.20197 0.5 5.34063 0.5 4.29975C0.5 2.95932 1.02808 1.93766 2.0835 1.23557C3.12724 0.539631 4.48636 0.192017 6.16297 0.192017C7.08674 0.192017 8.42377 0.356522 10.1726 0.685977V3.26153C8.87136 2.75858 7.66349 2.50764 6.54753 2.50764C4.97608 2.50764 4.1904 2.92513 4.1904 3.76199C4.1904 4.0748 4.34864 4.32992 4.66558 4.52772C4.92916 4.68778 5.6554 5.02587 6.84275 5.54306C8.55239 6.27773 9.69052 6.91634 10.2576 7.45953C10.9305 8.10384 11.2676 8.93758 11.2676 9.95951C11.2676 11.4284 10.6073 12.5489 9.28765 13.3209C8.21852 13.947 6.83217 14.2587 5.12944 14.2587C3.69148 14.2587 2.24266 14.0948 0.783912 13.7655Z" fill="#009999"/>
<path fill-rule="evenodd" clip-rule="evenodd" d="M13.4778 0.427551H17.3915V13.9847H13.4778V0.427551Z" fill="#009999"/>
<path fill-rule="evenodd" clip-rule="evenodd" d="M20.9807 13.9847V0.427551H31.0184V2.87964H24.7527V5.94088H30.2067V8.17754H24.7527V11.3947H31.1798V13.9847H20.9807Z" fill="#009999"/>
<path fill-rule="evenodd" clip-rule="evenodd" d="M33.7347 13.9847V0.427551H38.809L42.3344 9.08997L45.9481 0.427551H50.7679V13.9847H47.0572V4.38591L42.9481 14.1223H40.5221L36.4922 4.38591V13.9847H33.7347Z" fill="#009999"/>
<path fill-rule="evenodd" clip-rule="evenodd" d="M54.3578 13.9847V0.427551H64.3953V2.87964H58.1302V5.94088H63.5839V8.17754H58.1302V11.3947H64.5577V13.9847H54.3578Z" fill="#009999"/>
<path fill-rule="evenodd" clip-rule="evenodd" d="M67.1329 13.9847V0.427551H71.6689L76.4812 9.50301V0.427551H79.2379V13.9847H74.8308L69.8907 4.78711V13.9847H67.1329Z" fill="#009999"/>
<path fill-rule="evenodd" clip-rule="evenodd" d="M82.0163 13.7654V11.088C83.5779 11.5676 84.9713 11.8074 86.1979 11.8074C87.8718 11.8074 88.7078 11.3793 88.7078 10.5238C88.7078 10.2048 88.5892 9.9368 88.3533 9.71978C88.1023 9.48957 87.4601 9.17045 86.4263 8.76159C84.588 8.03404 83.3844 7.40869 82.82 6.88491C82.0955 6.20793 81.7338 5.34339 81.7338 4.2904C81.7338 2.95575 82.2606 1.93747 83.3171 1.23539C84.3593 0.539448 85.7199 0.191833 87.3967 0.191833C88.3395 0.191833 89.561 0.336666 91.0593 0.627665L91.4053 0.685794V3.26135C90.1038 2.7584 88.8925 2.50746 87.7705 2.50746C86.2051 2.50746 85.4243 2.92495 85.4243 3.76181C85.4243 4.07462 85.5817 4.32974 85.8978 4.52754C86.1489 4.68145 86.8781 5.01972 88.0854 5.54288C89.782 6.27754 90.9178 6.91616 91.4898 7.45934C92.1637 8.10366 92.5 8.9374 92.5 9.95932C92.5 11.4282 91.8436 12.5487 90.5306 13.3207C89.4552 13.9468 88.0654 14.2585 86.3629 14.2585C84.9234 14.2586 83.4739 14.0947 82.0163 13.7654Z" fill="#009999"/>
</g>
<defs>
<clipPath id="clip0_2121_276866">
<rect width="92" height="14.1538" fill="white" transform="translate(0.5 0.186829)"/>
</clipPath>
</defs>
</svg>
