<svg width="44" height="31" viewBox="0 0 44 31" fill="none" xmlns="http://www.w3.org/2000/svg">
<path fill-rule="evenodd" clip-rule="evenodd" d="M39.988 2.93C39.966 2.655 39.818 2.397 39.538 2.382C38.669 2.334 37.798 2.31 36.928 2.309C34.288 1.903 31.638 1.822 29.022 2.066C31.3561 1.58458 33.7416 1.39946 36.122 1.515C37.518 1.582 39.397 1.804 40.539 3.071C40.356 3.021 40.172 2.975 39.988 2.93V2.93ZM20.125 4.838C22.2388 4.17547 24.4069 3.70031 26.604 3.418C23.664 3.918 20.82 4.682 18.144 5.739C18.793 5.419 19.454 5.119 20.125 4.838ZM9.66501 13.472C9.37001 13.753 9.07501 14.041 8.78501 14.333C11.3176 11.288 14.4316 8.77813 17.945 6.95C20.754 5.493 23.736 4.508 26.814 3.93C24.3539 4.58112 21.9614 5.46511 19.669 6.57C15.9967 8.33754 12.6219 10.6661 9.66601 13.472H9.66501ZM10.365 10.932C8.43049 13.0816 6.73676 15.4363 5.31401 17.954C6.52301 15.256 8.30901 12.914 10.364 10.931L10.365 10.932ZM4.46601 22.489C4.47552 21.6274 4.52993 20.7669 4.62901 19.911C4.78965 20.0595 4.97514 20.1787 5.17701 20.263C4.91927 20.9981 4.68251 21.7404 4.46701 22.489H4.46601ZM1.24201 18.291C1.17701 17.587 1.10601 16.881 1.03301 16.175C1.11079 16.1638 1.18577 16.138 1.25401 16.099C1.25701 16.372 1.26401 16.647 1.26901 16.92L1.24301 18.291H1.24201ZM22.517 2.899C21.561 3.299 20.624 3.746 19.706 4.236C19.1597 4.46155 18.6195 4.70164 18.086 4.956C11.266 8.22 3.69601 14.653 3.12101 24.019C3.12101 23.091 3.08701 22.157 3.06901 21.232C3.01701 18.425 2.93401 15.615 2.82801 12.804C2.80101 12.094 1.93701 12.016 1.88701 12.709L1.80901 13.789C1.78429 13.8496 1.76944 13.9137 1.76501 13.979C1.74201 14.287 1.72501 14.595 1.70501 14.903C1.68201 14.544 1.65701 14.185 1.62101 13.824C1.55401 13.148 0.811009 13.015 0.671009 13.604C0.588981 13.702 0.544964 13.8262 0.547009 13.954C0.535009 14.437 0.527009 14.92 0.519009 15.403C0.195009 19.765 0.0420084 24.151 0.0820084 28.566C0.0759832 28.7267 0.13346 28.8833 0.242008 29.002C0.240008 29.272 0.399006 29.552 0.614006 29.608C0.406006 30.032 0.801008 30.721 1.22101 30.408C3.77201 28.511 6.31401 26.58 8.55501 24.259C10.02 23.1042 11.4261 21.8767 12.768 20.581C13.158 20.203 12.59 19.498 12.195 19.855C12.053 19.985 11.909 20.112 11.765 20.241C11.869 19.945 11.655 19.637 11.398 19.549C11.608 19.319 11.821 19.092 12.031 18.863C12.453 18.403 11.829 17.629 11.38 18.037L4.33801 24.424C4.40301 24.244 4.46701 24.064 4.53401 23.887C6.07801 20.345 8.58501 17.459 11.169 14.956C13.9895 12.2173 17.2108 9.92435 20.722 8.156C26.714 5.148 33.323 3.842 40.028 4.313C40.7811 4.42243 41.5313 4.55047 42.278 4.697C42.39 4.719 42.501 4.669 42.588 4.581C42.81 4.612 43.032 4.638 43.253 4.672C43.765 4.752 43.893 3.809 43.382 3.637C43.058 3.528 42.732 3.426 42.407 3.326C40.755 0.0860021 36.49 0.298002 33.805 0.393002C29.907 0.532002 26.104 1.397 22.517 2.899V2.899Z" fill="#000638"/>
</svg>
