<svg width="300" height="300" viewBox="0 0 300 300" fill="none" xmlns="http://www.w3.org/2000/svg">
<path d="M76.6356 187.033L76.3294 186.258L76.1142 185.663C75.9828 185.277 75.8889 184.879 75.8336 184.476C75.8149 184.341 75.7602 184.215 75.6752 184.11C74.7789 183.068 74.6269 181.761 74.1179 180.662C73.705 179.769 73.3809 178.863 73.0632 178.017C72.6912 177.146 72.4139 176.237 72.236 175.307C72.205 175.078 72.1926 174.846 72.1989 174.614L72.2392 173.704C72.2825 173.076 72.2782 172.446 72.2264 171.819C72.0964 170.585 72.7158 169.486 72.5922 168.184C72.5404 167.618 72.5789 167.011 72.4937 166.411C72.4828 166.199 72.4224 165.993 72.3172 165.809C72.212 165.624 72.065 165.467 71.8881 165.35C71.767 165.294 71.6662 165.201 71.5994 165.086C71.5326 164.97 71.503 164.836 71.5146 164.703C71.6336 163.996 71.58 163.27 71.3582 162.587C71.1365 161.905 70.7533 161.286 70.2411 160.783C70.0538 160.55 69.9306 160.272 69.8836 159.976C69.8671 159.577 69.7554 159.188 69.5578 158.841C69.3602 158.494 69.0825 158.199 68.7478 157.982C67.2436 156.879 65.6566 156.106 64.21 155.166C63.4941 154.72 62.7182 154.863 62.0297 154.533C61.2959 154.197 60.5475 154.511 59.8123 154.452C59.219 154.411 58.6276 154.475 58.0435 154.486C57.3198 154.441 56.5945 154.543 55.9112 154.786C55.2672 155.075 54.483 154.75 53.8893 155.208C53.65 155.345 53.374 155.406 53.0992 155.381C51.5399 155.314 49.986 155.604 48.555 156.226C46.7714 156.801 45.0573 157.572 43.4445 158.526C42.8096 158.917 42.0721 159.038 41.4999 159.452C40.8562 160.038 40.2618 160.676 39.7229 161.359C38.0737 163.073 36.6121 164.958 35.3631 166.982C34.8761 167.723 34.0961 168.353 34.0118 169.289C33.9609 169.739 33.8351 170.177 33.6396 170.586C33.4654 170.998 33.3813 171.443 33.3929 171.89C33.3661 172.183 33.2814 172.467 33.1439 172.727C33.026 173.073 32.9872 173.441 33.0302 173.804C33.0732 174.167 33.197 174.516 33.3925 174.825C33.525 174.992 33.6138 175.189 33.6508 175.399C33.6878 175.609 33.6719 175.825 33.6044 176.027C33.3973 176.893 33.331 177.787 33.408 178.675C33.3764 180.169 33.469 181.796 34.6211 182.985C34.7211 183.104 34.7897 183.246 34.8207 183.398C34.859 183.859 35.0281 184.299 35.3082 184.667C35.5884 185.024 35.9157 185.343 36.2114 185.693C37.1911 186.684 38.0847 187.756 38.8824 188.899C39.1924 189.357 39.5901 189.748 40.0524 190.052C40.5123 190.327 41.0195 190.514 41.548 190.604C43.1735 190.834 44.6548 191.728 46.2423 191.669C47.0833 191.644 47.7621 192.295 48.5824 192.531C50.939 193.192 53.3802 192.945 55.702 193.454C55.9726 193.459 56.2361 193.367 56.445 193.195C57.024 192.741 57.5065 192.512 57.9913 193.243C58.0367 193.29 58.0919 193.327 58.153 193.351C58.2141 193.374 58.2797 193.385 58.3451 193.381C59.1554 193.191 60.0013 193.218 60.7978 193.459C60.9767 193.523 61.159 193.577 61.3439 193.621C61.3687 193.633 61.3513 193.585 61.4694 193.64C61.6125 193.706 61.7471 193.79 61.8699 193.888C61.9354 193.942 62.064 194.015 62.1153 193.982C62.4169 193.809 62.6078 193.067 63.056 193.754C63.2535 194.134 63.431 194.525 63.5879 194.924C63.8266 195.318 64.157 195.647 64.5507 195.886C64.9445 196.124 65.39 196.263 65.8493 196.292C66.6334 196.403 67.4313 196.703 68.161 196.094C68.2729 195.965 68.3572 195.815 68.4088 195.652C68.4604 195.489 68.4781 195.318 68.4608 195.148C68.3777 194.432 68.1497 193.741 67.7906 193.117C66.9793 191.879 65.9912 190.766 64.8577 189.814C64.61 189.589 64.3447 189.383 64.0644 189.199C63.7236 188.98 63.36 188.799 62.98 188.658C62.0805 188.346 61.1376 188.177 60.1858 188.158C59.3996 188.152 58.6137 188.188 57.8315 188.268C56.4939 188.385 55.1507 188.429 53.8082 188.398C51.7327 188.317 49.5895 188.236 47.8125 187.286C47.0233 187.217 46.2618 186.962 45.5909 186.54C44.067 186.494 42.8805 185.503 41.7604 184.688C40.68 183.9 40.0218 182.82 38.963 181.938C38.7258 181.689 38.5497 181.389 38.4484 181.061C37.7813 179.569 37.405 177.962 37.3397 176.329C37.1912 174.675 37.5498 173.014 38.3679 171.569C38.5875 171.169 38.7764 170.753 38.9332 170.325C39.076 169.951 39.2614 169.598 39.4353 169.243C39.6047 168.881 39.7408 168.505 39.8418 168.119C40.0346 167.27 40.983 166.995 41.3672 166.281C41.5292 165.973 41.8002 165.726 41.9485 165.412C42.1148 165.105 42.3702 164.856 42.6809 164.698C43.2018 164.433 43.7064 164.137 44.192 163.812C45.4812 162.788 46.9888 162.076 48.598 161.729C48.8236 161.673 49.0246 161.544 49.1705 161.363C49.3164 161.182 49.3993 160.959 49.4064 160.726C49.4448 160.448 49.6321 160.379 49.9415 160.403C50.5462 160.439 51.1455 160.271 51.6435 159.927C52.0134 159.628 52.4853 159.484 52.9591 159.527C53.4376 159.563 53.9188 159.541 54.3919 159.461C54.9952 159.389 55.5807 159.277 56.1575 159.211C56.7398 159.153 57.3221 159.11 57.9039 159.087C58.251 159.106 58.5991 159.09 58.943 159.039C59.7267 158.952 60.5179 158.957 61.3005 159.054C61.7477 159.019 62.1969 159.088 62.6129 159.256C63.0289 159.424 63.4004 159.686 63.6982 160.021C63.8834 160.266 64.1019 160.483 64.3474 160.668C64.8216 160.994 65.2542 161.378 65.6355 161.809C66.0314 162.241 66.4564 162.645 66.9076 163.019C67.0594 163.159 67.1516 163.352 67.1653 163.557C67.1722 163.765 67.1406 163.977 67.1461 164.177C67.1614 164.487 67.2444 164.789 67.3892 165.063C67.5174 165.247 67.6063 165.455 67.6503 165.675C67.6942 165.894 67.6923 166.121 67.6446 166.34C67.523 166.917 67.4577 167.506 67.4496 168.096C67.2693 169.404 67.3379 170.872 66.6096 172.201C66.6133 172.736 66.6316 173.286 66.6211 173.842C66.6201 174.133 66.6023 174.384 66.584 174.709C66.5634 175.051 66.5423 175.394 66.5213 175.743C66.5324 176.4 66.6613 177.05 66.9017 177.662C66.9567 177.806 67.0225 177.945 67.0985 178.079C67.7463 179.226 68.1965 180.473 68.4302 181.769C68.4453 181.875 68.5666 182.063 68.6417 182.078C69.4148 182.241 69.4711 182.894 69.6808 183.547C69.883 184.046 70.1611 184.511 70.5052 184.925C71.2539 185.785 71.7686 186.823 71.9998 187.939C72.0183 188.11 72.0517 188.28 72.0996 188.446C72.1317 188.581 72.1102 188.555 72.1308 188.61C72.1626 188.667 72.1756 188.733 72.1679 188.797C72.1602 188.862 72.1321 188.923 72.0877 188.971L71.7412 189.521C71.5668 189.345 71.4016 189.131 71.2139 188.938C70.7923 188.507 70.4683 187.99 70.264 187.422C70.0818 186.942 69.7498 186.534 69.3174 186.258C69.1237 186.128 68.8637 185.909 68.8312 185.723C68.5854 184.828 68.1265 184.005 67.4936 183.326C66.6074 182.138 65.6763 180.95 64.704 179.745C63.9588 178.671 63.0007 177.762 61.8892 177.073C61.4438 176.859 61.2722 176.45 60.9014 176.162C60.5984 175.883 60.2791 175.623 59.9451 175.382C59.936 175.376 59.9264 175.371 59.9172 175.365C59.9551 175.095 59.9783 174.823 59.9868 174.55C60.5199 174.464 61.0475 174.348 61.567 174.2C63.0229 173.694 64.3705 172.919 65.5394 171.914C66.0531 171.45 66.1254 171.087 65.7894 170.931C65.3669 170.742 64.9568 170.527 64.5617 170.286C64.411 170.192 64.2428 170.129 64.0672 170.102C63.8917 170.075 63.7124 170.084 63.5404 170.128C63.2918 170.177 63.0318 170.192 62.791 170.222C62.5544 170.221 62.32 170.268 62.1016 170.359C61.2271 170.699 60.292 170.857 59.3541 170.821C59.2356 170.372 59.112 169.92 58.9577 169.483C58.3203 167.665 56.9961 166.17 55.2691 165.318C54.3551 164.868 53.3536 164.624 52.3353 164.604C51.7398 164.589 51.1457 164.665 50.5733 164.83C49.8205 165.043 49.1343 165.444 48.5793 165.995C48.1227 166.451 47.7723 167.002 47.5529 167.609C47.34 168.221 47.2667 168.873 47.3383 169.517C47.4725 170.575 47.9679 171.554 48.7408 172.289C48.7898 172.336 48.8315 172.369 48.8782 172.412C48.2253 172.474 47.5766 172.574 46.935 172.709C46.3884 172.815 45.851 172.968 45.3213 173.11C44.8004 173.252 44.252 173.369 43.6354 173.52C43.3665 173.587 43.1089 173.693 42.8709 173.835C42.5673 174.015 42.2944 174.243 42.0625 174.51C41.258 175.418 40.7362 176.541 40.5611 177.742C40.4311 178.892 40.6712 180.054 41.2464 181.059C41.5323 181.566 41.8837 182.033 42.2915 182.448C42.6306 182.794 43.0018 183.107 43.4002 183.382C44.6204 184.196 46.0216 184.699 47.4811 184.846C49.03 185.025 50.5985 184.781 52.0194 184.139C53.243 183.527 54.4904 183.354 55.5712 182.467C56.4542 181.747 57.1303 180.749 58.0669 180.017C58.1319 179.844 58.2093 179.682 58.2811 179.515C58.4197 179.594 58.5623 179.666 58.7082 179.73C59.5583 180.131 59.8146 181.177 60.5228 181.82C60.7828 182.076 60.9989 182.372 61.2378 182.658C62.4552 184.138 63.5976 185.679 64.6605 187.274L66.3506 189.753C66.9466 190.599 67.5037 191.42 68.2878 192.347C68.7575 192.921 69.3224 193.411 69.9578 193.794L70.248 193.954C70.3693 194.007 70.5007 194.057 70.6284 194.101C70.9024 194.205 71.1902 194.269 71.4826 194.29C72.1453 194.364 72.8131 194.204 73.3699 193.837C73.5801 193.719 73.8029 193.626 74.0341 193.559C74.3584 193.605 74.6884 193.535 74.9662 193.361C75.2022 193.212 75.4014 193.011 75.5489 192.774C75.8213 192.339 75.9252 191.871 76.1211 191.581L76.583 190.864C76.7442 190.574 76.8859 190.273 77.0073 189.964C77.0922 189.644 77.1286 189.313 77.1154 188.982C77.0638 188.31 76.9017 187.652 76.6356 187.033ZM50.8383 168.425C51.1092 168.199 51.454 168.083 51.8061 168.097C52.7033 168.124 53.5543 168.501 54.1764 169.148C54.5066 169.448 54.8086 169.778 55.0786 170.133C55.4309 170.613 55.6905 171.155 55.844 171.73C55.6863 171.73 55.532 171.685 55.399 171.601C54.9882 171.332 54.5045 171.197 54.0139 171.213C53.1264 171.215 52.2468 171.047 51.4225 170.718C51.2879 170.663 51.1716 170.32 51.1871 170.12C51.2194 169.965 51.2188 169.805 51.1853 169.65C51.1518 169.495 51.0861 169.349 50.9926 169.221C50.6374 168.806 50.6708 168.647 50.8383 168.425ZM52.6644 179.437C52.0113 179.86 51.3275 180.234 50.6186 180.555C50.3588 180.644 50.1148 180.774 49.8958 180.94C49.6614 181.089 49.3818 181.15 49.1066 181.113C48.571 181.047 48.0275 181.122 47.5296 181.33C47.3701 181.351 47.208 181.335 47.0556 181.283C46.9033 181.232 46.7648 181.146 46.6507 181.032C46.3742 180.87 46.1568 180.654 45.759 180.718C45.5988 180.747 45.4418 180.495 45.3562 180.332C45.276 180.154 45.1675 179.99 45.0348 179.847C44.9274 179.737 44.7916 179.658 44.6425 179.621C44.5601 179.606 44.4823 179.572 44.4154 179.521C44.3485 179.471 44.2944 179.405 44.2573 179.33C44.2202 179.255 44.2012 179.172 44.2018 179.088C44.2024 179.004 44.2226 178.922 44.2607 178.847C44.3422 178.69 44.4319 178.555 44.4942 178.426C44.592 178.253 44.6639 178.066 44.7075 177.871C44.7826 177.595 44.8558 177.309 45.304 177.224C46.0584 177.021 46.7907 176.744 47.4898 176.395C48.5237 175.927 49.687 175.827 50.7857 176.112C51.9277 176.365 53.0343 176.758 54.0807 177.281C54.2423 177.374 54.4043 177.463 54.5659 177.554C54.4812 177.655 54.3974 177.757 54.3068 177.854C53.8389 178.458 53.2856 178.991 52.6644 179.437ZM72.4132 189.909L72.4027 189.907C72.4141 189.89 72.4141 189.901 72.4132 189.909Z" fill="#006ADC"/>
<path d="M86.2163 195.223C86.1023 194.458 85.8404 193.722 85.4454 193.057C85.0874 192.444 84.5912 191.366 83.9714 190.369C83.4921 189.486 82.8346 188.713 82.0406 188.098C81.3949 187.63 80.7827 187.117 80.2086 186.563C79.7766 186.201 79.405 185.773 79.1077 185.294C78.5284 184.707 77.7958 184.293 76.9932 184.102C76.411 183.919 75.8005 183.845 75.1915 183.881C74.2789 183.926 73.4202 184.327 72.7988 184.997C72.713 185.1 72.6443 185.217 72.5951 185.342C72.5781 185.392 72.5774 185.446 72.593 185.496C72.6087 185.546 72.6398 185.59 72.682 185.622C72.0869 186.262 71.4397 187.002 70.7906 187.706C69.9171 188.599 69.1076 189.553 68.3681 190.56C68.2999 190.663 68.0197 190.712 67.8389 190.783C67.1658 191.075 66.5196 191.426 65.9076 191.83C65.1774 192.293 64.4354 192.762 63.8385 193.14L63.7515 193.195C63.3024 193.466 62.9781 193.903 62.8488 194.412C62.7275 194.935 62.8028 195.485 63.0603 195.956C63.1889 196.223 63.2883 196.392 63.3757 196.558L63.6549 197.075C63.8586 197.406 64.0605 197.734 64.2583 198.056C64.5117 198.528 64.7139 199.025 64.8616 199.54C65.0924 199.898 65.4257 200.177 65.8179 200.343C66.3797 200.803 66.9081 201.302 67.399 201.837C68.1149 202.538 68.8565 203.19 68.9018 203.278C69.4758 204.661 71.2465 205.844 73.2634 206.514C74.2729 206.837 75.3141 207.052 76.3693 207.154C76.8898 207.182 77.3947 207.228 77.8433 207.233C78.302 207.27 78.7401 207.296 79.1617 207.353C79.9483 207.339 80.7185 207.126 81.401 206.734C82.095 206.396 82.7133 205.921 83.2188 205.338C83.8252 204.855 84.3791 204.309 84.8714 203.71C85.3854 203.054 85.8189 202.339 86.1627 201.579C86.3783 201.303 86.5628 201.005 86.713 200.688C86.8023 200.223 86.8396 199.749 86.8242 199.275C86.8503 198.535 86.957 197.791 86.9295 197.061C86.9404 196.722 86.8828 196.385 86.7602 196.069C86.6377 195.753 86.4527 195.466 86.2163 195.223ZM74.4916 185.698C74.2197 185.857 74.002 186.094 73.8667 186.379L73.8928 186.034C73.9249 185.958 73.9532 185.881 73.9812 185.804C74.1446 185.742 74.3169 185.706 74.4916 185.698Z" fill="#80829B"/>
<path d="M217.118 39.1069C216.528 38.4462 216.214 37.585 216.239 36.6999C216.232 35.543 215.844 34.4207 215.133 33.5075C214.254 32.3556 213.087 31.4561 211.749 30.8998C210.636 30.4062 209.424 30.1766 208.207 30.229C207.139 30.2742 206.089 30.5254 205.116 30.969C204.353 31.2906 203.664 31.7669 203.094 32.3677C202.524 32.9686 202.085 33.681 201.804 34.4601C201.709 34.7259 201.534 34.9558 201.303 35.1186C200.608 35.493 200.076 36.1098 199.806 36.8515C199.606 37.4225 199.517 38.0474 199.326 38.6342C199.183 39.0808 199.012 39.5145 198.838 39.9455C198.68 40.3821 198.492 40.8075 198.276 41.2187C197.82 42.0576 197.247 42.8268 196.573 43.5028C196.032 44.0294 195.629 44.6805 195.399 45.399C195.21 46.1192 195.201 46.8747 195.373 47.5991C195.56 48.7269 195.558 49.8779 195.368 51.005C195.152 52.1113 195.168 53.2503 195.415 54.3502C195.715 55.5451 194.627 56.5442 194.315 57.7177C193.984 59.2974 193.812 60.9063 193.801 62.5203C193.661 62.5446 193.527 62.5963 193.407 62.6724C193.287 62.7485 193.184 62.8476 193.102 62.9639C192.996 63.1344 192.839 63.2669 192.653 63.3422C192.515 63.3802 192.429 63.3244 192.335 63.1481C192.256 62.9467 192.136 62.7636 191.983 62.6098L191.927 62.5459C191.893 62.5109 191.857 62.4785 191.818 62.4491L191.445 62.19C191.186 62.0278 190.942 61.8431 190.715 61.638L190.29 61.2848C190.587 60.7851 190.931 60.3155 191.318 59.8827C191.466 59.7194 191.551 59.5082 191.556 59.2878C191.579 57.0672 192.93 55.2661 193.256 53.1199C193.567 51.4017 193.74 49.6614 193.774 47.9156C193.71 45.9525 193.493 43.9975 193.123 42.0686L192.996 41.2599L192.94 40.8532L192.914 40.6493L192.86 40.338C192.715 39.503 192.487 38.6845 192.18 37.8947C191.586 36.3172 190.591 34.9215 189.294 33.8449C188.491 33.1691 187.622 32.5752 186.7 32.072C185.373 31.3765 183.875 31.0763 182.382 31.207C181.604 31.2883 180.841 31.4845 180.12 31.7893C179.46 32.0709 178.842 32.4442 178.286 32.8982C177.409 33.6122 176.72 34.5301 176.28 35.5718C176 36.263 175.864 36.6656 175.701 37.1229C175.53 37.5711 175.383 38.0279 175.26 38.4914C175.16 38.8287 175.155 39.1869 175.246 39.5268C175.336 39.8668 175.519 40.1752 175.773 40.4182C176.168 40.786 176.322 41.2028 176.069 41.547C175.448 42.3573 175.06 43.3217 174.947 44.3363C174.834 45.3509 175 46.3771 175.428 47.3041C175.487 47.5047 175.499 47.7163 175.462 47.9223C175.426 48.1283 175.342 48.323 175.218 48.4913C174.851 48.9033 174.609 49.4118 174.521 49.9568C174.433 50.5017 174.503 51.0604 174.722 51.567C175.686 53.841 176.331 56.2375 176.637 58.6882C176.725 59.2494 176.948 59.7806 177.288 60.2354C177.645 60.6572 177.904 61.1531 178.045 61.6872C178.155 62.1957 178.443 62.648 178.858 62.9621C178.714 63.2287 178.569 63.4949 178.427 63.7611L177.419 65.6224C177.121 66.1781 176.875 66.6469 176.677 67.0577C176.488 67.4441 176.178 67.4617 175.968 67.6622C175.786 67.8019 175.564 67.8796 175.335 67.884C175.106 67.8884 174.881 67.8192 174.694 67.6867C174.48 67.5831 174.24 67.5478 174.005 67.5854C173.77 67.6231 173.553 67.7319 173.382 67.8972C173.167 68.0613 172.793 68.1838 172.639 68.0087C171.866 67.0694 170.878 67.0479 169.792 66.735C169.328 66.5979 168.862 66.4512 168.395 66.2958C168.148 65.7411 167.808 65.2326 167.39 64.7918C166.533 63.7841 165.899 62.6057 165.531 61.3347C165.105 60.1276 164.117 59.1807 163.676 57.8889C163.07 56.6949 162.38 55.5454 161.611 54.4492C161.157 53.593 160.004 53.3206 159.822 52.287C159.642 51.2476 158.802 50.7512 157.911 50.1939C157.387 49.8684 157.246 49.2671 157.014 48.6702C156.933 48.3434 156.765 48.0446 156.528 47.8055C156.291 47.5665 155.994 47.396 155.667 47.3122C155.385 47.2516 155.124 46.6851 154.928 46.3004C154.723 45.8499 154.395 45.4664 153.982 45.1939C153.569 44.9214 153.087 44.7708 152.592 44.7595C152.318 44.7628 152.044 44.7446 151.772 44.7053C151.04 44.6265 150.331 44.4063 149.684 44.0569C149.062 43.7486 148.372 43.6044 147.679 43.6377C146.986 43.6711 146.313 43.881 145.724 44.2475C144.771 44.8666 144.099 45.6121 142.987 46.3077C142.008 46.9824 141.336 48.0165 141.115 49.185C140.907 50.2712 140.996 51.3932 141.37 52.4337C141.792 53.574 142.367 54.6514 143.08 55.636C143.678 56.4658 144.212 57.3405 144.675 58.2523C145.539 60.0612 147.002 61.524 148.116 63.2095C148.901 64.4057 149.869 65.4723 150.983 66.3708C152.178 67.4975 153.557 68.4124 155.059 69.0764C156.65 69.598 157.389 71.3579 158.956 71.9903C159.52 72.2322 160.041 72.5824 160.602 72.8475C161.332 73.202 162.073 73.5323 162.82 73.8495C163.097 74.4195 163.298 75.0239 163.416 75.6467C164.016 78.8871 165.133 82.0102 166.723 84.8967C167.05 85.91 167.205 86.9709 167.182 88.0354C167.152 89.3551 167.294 90.6731 167.602 91.9566C167.893 93.1307 168.242 94.2681 168.587 95.4159L168.644 95.5963C168.669 95.6327 168.702 95.6425 168.731 95.6661L168.917 95.7789C169.042 95.8496 169.172 95.9119 169.302 95.9707C169.564 96.0879 169.827 96.1907 170.075 96.3115C170.325 96.428 170.558 96.5769 170.769 96.7544C170.877 96.8366 170.972 96.9696 171.078 97.0446C171.229 97.1515 171.382 97.2591 171.536 97.3681C172.522 98.2323 173.745 97.3564 175.247 96.6395C176.044 96.2682 176.804 95.8234 177.518 95.3109C178.313 94.7503 179.119 94.0925 179.941 93.5203C180.758 92.9399 181.618 92.4233 182.514 91.9749L182.833 91.8115L182.993 91.7483L183.315 91.6199C183.531 91.5416 183.751 91.462 183.974 91.3809C185.171 90.791 186.438 90.3556 187.745 90.0855C188.307 89.9804 188.538 89.5163 188.355 88.8495C188.114 88.0091 187.82 87.1819 187.549 86.3373C187.473 86.0311 187.327 85.7471 187.121 85.5079C186.915 85.2688 186.656 85.0812 186.365 84.9604C185.655 84.542 184.849 84.3167 184.026 84.3071C183.02 84.5021 182 84.6033 180.976 84.7685C180.466 84.853 179.954 84.9471 179.451 85.0753C179.043 85.1533 178.865 85.1418 178.622 85.2096C177.97 85.3932 177.653 85.7679 176.792 87.9225C176.474 88.731 176.039 89.4046 175.783 89.1802C175.648 89.0532 175.488 89.0729 175.267 89.2313C175.132 89.3326 175.003 89.4422 174.882 89.5593C174.738 89.7184 174.56 89.842 174.36 89.9202C173.762 89.8584 173.345 89.3533 172.774 88.4808C172.808 87.9752 172.964 87.4853 173.227 87.0521C173.674 86.2107 174.039 85.5852 173.882 85.1895C173.586 84.4676 173.371 83.8464 173.143 83.2202C172.876 82.4589 172.673 81.8052 172.509 81.162C172.13 79.8915 171.945 78.6499 171.554 76.7309C171.544 76.6741 171.523 76.6206 171.511 76.5643C172.653 76.7445 173.809 76.8138 174.964 76.7712C176.025 76.719 177.077 76.5482 178.101 76.2619C179.199 75.9406 180.248 75.47 181.219 74.8635C183.298 73.5476 184.763 71.8053 184.896 69.9638C184.93 69.8746 184.986 69.7959 185.061 69.7356C185.135 69.6754 185.223 69.6357 185.317 69.6207C185.697 69.72 186.1 69.6833 186.455 69.5168C186.508 69.5566 186.558 69.6001 186.613 69.636C186.898 69.8288 187.214 69.9697 187.548 70.0523C187.612 70.0636 187.675 70.0718 187.739 70.0773C188.019 70.1153 188.291 70.2015 188.541 70.332C188.817 70.4438 189.081 70.5838 189.327 70.7497C190.022 71.23 190.809 71.5588 191.639 71.7147C192.066 71.7972 192.498 71.8461 192.932 71.8607C193.034 71.8651 193.125 71.8589 193.222 71.858C193.466 73.3518 193.544 74.8679 193.455 76.3789C193.514 77.7628 193.748 79.1337 194.151 80.4589C194.192 80.6466 194.304 80.9556 194.424 80.9668C195.123 81.0291 196.289 80.1463 196.228 81.6202C196.21 82.3888 196.008 83.1677 196.032 83.9374C196.09 85.6801 197.91 87.1915 199.84 87.239C201.41 87.317 202.974 86.9904 204.382 86.2906C204.563 86.2 204.724 86.0742 204.855 85.9206C204.986 85.7669 205.085 85.5885 205.146 85.3959C205.256 84.6722 205.241 83.9349 205.101 83.2164C204.787 81.615 204.095 80.0485 204.043 78.4287C203.886 74.6936 203.37 71.0425 203.226 67.4037C204.089 66.6595 204.899 65.855 205.649 64.9961C206.026 64.5863 206.455 64.2285 206.926 63.9323C207.349 63.6706 207.733 63.35 208.065 62.9801C208.795 62.0632 208.949 60.716 209.563 59.6918C211.242 56.8861 212.626 53.8264 214.319 50.9659C214.949 49.9162 216.264 49.1522 216.206 47.8652C216.147 46.5727 217.316 45.7597 217.115 44.5027C217.08 44.118 217.504 43.5577 217.718 43.0681C217.984 42.415 218.069 41.7021 217.963 41.0048C217.858 40.3075 217.565 39.6517 217.118 39.1069ZM154.247 58.402C153.472 58.192 152.772 57.7702 152.223 57.1841C151.675 56.5979 151.301 55.8706 151.143 55.0837C150.912 54.2473 150.484 53.4788 149.893 52.843C149.506 52.3901 149.159 51.904 148.857 51.3902C148.925 51.3391 149.003 51.3024 149.086 51.2825C149.169 51.2625 149.255 51.2597 149.338 51.2742C149.731 51.4205 150.088 51.6495 150.385 51.9457C151.159 52.7231 151.841 53.5881 152.415 54.5232C152.812 55.1178 153.245 55.8937 153.681 56.5888C154.108 57.2957 154.591 57.9673 155.125 58.5973C155.268 58.7613 155.394 58.9402 155.499 59.1308C155.131 58.8109 154.707 58.5636 154.247 58.402H154.247ZM205.4 49.309C205.383 49.3844 205.361 49.4586 205.333 49.5308C205.354 49.4564 205.378 49.383 205.4 49.309H205.4ZM209.064 40.6756C209.005 40.8902 208.93 41.1001 208.84 41.3032C208.796 41.4064 208.736 41.5087 208.684 41.6094L208.487 41.974C208.182 42.5466 207.827 43.0912 207.426 43.6016C207.354 43.6977 207.287 43.7977 207.225 43.901C207.262 43.8062 207.302 43.7119 207.338 43.6167C207.542 43.1537 207.709 42.6749 207.836 42.1851C207.971 41.7107 208.026 41.217 207.998 40.7246C207.98 40.3153 208.296 40.0253 208.505 39.7642C208.701 39.5205 208.923 39.2993 209.167 39.1045C209.245 39.6296 209.21 40.1652 209.064 40.6756L209.064 40.6756Z" fill="#006ADC"/>
<path d="M207.595 143.251C207.466 142.725 207.301 142.208 207.103 141.704C207.033 141.511 206.943 141.326 206.835 141.151C206.743 140.989 206.647 140.83 206.545 140.674C206.223 140.045 205.995 139.373 205.867 138.678C204.969 135.592 203.888 132.644 203.308 129.966C203.273 129.791 203.23 129.608 203.205 129.444C203.155 129.194 203.112 128.817 203.07 128.503C203 127.855 202.89 127.213 202.741 126.579C202.468 125.352 201.898 124.211 201.081 123.256C199.523 121.728 197.482 120.79 195.308 120.603C194.575 120.513 193.835 120.481 193.097 120.509C192.641 120.511 192.181 120.545 191.731 120.575C190.139 120.544 188.556 120.809 187.061 121.357C186.346 121.64 185.56 121.695 184.812 121.513C184.453 121.454 184.093 121.386 183.787 121.349C183.638 121.33 183.487 121.322 183.337 121.326C183.155 121.329 182.974 121.353 182.797 121.396C182.194 121.542 181.54 121.548 180.962 121.743C180.38 121.923 179.757 121.916 179.179 121.721C178.694 121.572 178.209 121.401 177.725 121.264C177.266 121.104 176.79 120.998 176.306 120.95C174.967 120.821 173.646 120.541 172.37 120.114C171.054 119.678 169.573 119.036 167.895 118.345C167.431 118.159 166.917 118.14 166.44 118.29C165.963 118.441 165.553 118.752 165.279 119.17C164.931 119.625 164.539 119.555 163.978 119.254C163.422 118.975 162.819 118.799 162.2 118.737C161.592 118.695 160.981 118.769 160.4 118.953C159.915 119.126 159.413 119.246 158.902 119.314C158.651 119.341 158.398 119.346 158.146 119.328C157.865 119.328 157.584 119.306 157.306 119.26C156.755 119.167 156.194 119.153 155.639 119.217C155.056 119.293 154.464 119.413 153.889 119.54C153.148 119.767 152.424 120.043 151.719 120.366C151 120.72 150.308 121.128 149.65 121.587C148.296 122.519 147.112 123.675 146.147 125.005C145.842 125.395 145.568 125.808 145.328 126.241C145.071 126.641 144.885 127.081 144.776 127.543C144.254 129.619 143.602 131.594 143.769 133.518C144.084 135.618 144.122 137.75 143.883 139.86C143.821 140.246 143.783 140.636 143.771 141.027C143.727 141.248 143.721 141.475 143.752 141.699C143.906 142.657 143.891 143.87 143.977 145.037C144.025 146.267 144.282 147.48 144.737 148.624C145.091 149.473 144.524 150.189 144.211 150.925C144.029 151.484 143.992 152.081 144.105 152.658C144.19 153.042 144.245 153.433 144.269 153.826C144.3 154.218 144.179 154.606 143.931 154.911C143.655 155.275 143.437 155.679 143.282 156.109C143.168 156.477 143.015 156.833 142.826 157.169C142.778 157.271 142.727 157.292 142.684 157.354C142.644 157.401 142.64 157.391 142.62 157.412L142.478 157.545C142.381 157.638 142.262 157.704 142.133 157.739C142.065 157.751 141.995 157.75 141.927 157.735C141.838 157.698 141.746 157.67 141.651 157.652C141.287 157.566 140.943 157.411 140.636 157.196C139.228 157.653 137.723 157.723 136.278 157.4C135.407 157.329 134.531 157.395 133.68 157.596C133.459 157.642 133.242 157.71 133.033 157.797C130.95 158.479 128.732 158.644 126.571 158.277C126.45 158.269 126.328 158.287 126.214 158.329C126.1 158.372 125.996 158.437 125.909 158.522C125.789 158.804 125.604 159.054 125.369 159.252C125.135 159.449 124.857 159.588 124.558 159.658C124.006 159.789 123.345 159.795 122.648 159.902C121.525 160.157 120.473 160.662 119.571 161.379C117.404 162.882 115.684 164.722 113.612 166.343C112.898 166.947 112.314 167.691 111.895 168.528C110.654 171.051 110.092 173.854 110.263 176.661C110.398 178.957 110.921 181.214 111.811 183.336C112.166 184.196 112.243 185.078 112.505 185.834C112.87 186.807 112.997 187.854 112.873 188.886C112.82 189.279 112.845 189.678 112.946 190.062C113.048 190.445 113.225 190.805 113.466 191.119C113.694 191.416 113.924 191.875 113.783 192.136C113.623 192.442 113.508 192.77 113.444 193.109C113.412 193.277 113.385 193.464 113.369 193.623C113.351 193.76 113.344 193.99 113.332 193.978C113.327 194.138 113.331 194.298 113.342 194.457C113.326 194.592 113.282 194.722 113.214 194.839C113.145 194.956 113.053 195.058 112.943 195.138C112.829 195.223 112.703 195.291 112.569 195.34C112.2 195.46 111.821 195.549 111.436 195.604C109.854 195.831 108.047 195.729 106.27 196.395C105.627 196.637 105.054 196.281 104.444 196.213C103.392 196.092 102.22 195.681 101.243 195.99C99.7239 196.475 98.1377 195.943 96.5791 196.491C94.5414 197.23 92.329 197.34 90.228 196.807C88.9693 196.565 87.6699 196.648 86.4515 197.045C85.9723 197.164 85.4994 197.307 85.0347 197.474C84.5328 197.643 84.0396 197.837 83.5571 198.055C83.0627 198.258 82.5285 198.567 82.0208 198.836C81.4736 199.163 80.9494 199.526 80.4516 199.925C79.3925 200.781 78.4846 201.809 77.7659 202.966C77.4304 203.549 77.0454 204.168 76.7922 204.737L76.3578 205.614L75.9751 206.45C75.8675 206.681 75.7753 206.918 75.6991 207.161C75.6325 207.407 75.583 207.656 75.5508 207.908C75.4693 208.38 75.4814 208.862 75.5865 209.329L75.7971 210.167L75.8978 210.571L76.0008 210.885C76.1344 211.303 76.2551 211.723 76.3628 212.144C76.5858 212.969 76.7638 213.807 76.914 214.622C77.2161 216.271 77.3841 217.88 77.5237 219.484C77.6606 221.179 77.7297 222.842 77.7622 224.449C77.7856 226.251 77.5347 227.966 77.5622 229.557C77.5666 229.915 77.5007 230.271 77.3681 230.603C77.2252 230.907 77.0612 231.2 76.8774 231.48C76.6993 231.759 76.4695 231.984 76.3011 232.241C76.1352 232.484 75.9831 232.737 75.8456 232.998C75.6915 233.447 75.4918 233.88 75.2496 234.289C75.1759 234.449 75.043 234.574 74.879 234.638C74.715 234.702 74.5326 234.699 74.3702 234.632C74.4554 235.029 74.254 235.159 74.015 235.179C73.7586 235.189 73.4098 235.076 73.018 235.097C71.9845 235.121 70.9536 235.211 69.9313 235.364C68.7847 235.45 67.6359 235.229 66.6029 234.724C64.6471 233.857 62.5986 233.217 60.4972 232.816C58.0782 232.349 55.6001 232.269 53.1561 232.581C52.746 232.642 52.3309 232.661 51.9169 232.639C51.4884 232.636 51.0608 232.601 50.6375 232.535C50.1082 232.471 49.5748 232.449 49.0422 232.468C48.503 232.51 47.9666 232.584 47.4359 232.688C46.9937 232.786 46.5538 232.9 46.1143 233.023C45.649 233.145 45.1907 233.292 44.7415 233.464C44.3325 233.621 43.9367 233.809 43.5577 234.028L43.267 234.198L42.8971 234.437L42.1748 234.928C41.6987 235.257 41.2368 235.559 40.7401 235.963C40.2604 236.354 39.7125 236.669 39.2108 237.072C38.1724 237.837 37.4508 238.957 37.1829 240.219C36.9531 241.367 36.839 242.536 36.8423 243.707C36.861 244.462 36.84 245.232 36.8363 245.833C36.8194 246.503 36.7777 247.069 36.7173 247.671C36.6569 248.272 36.5539 248.825 36.4596 249.425C36.3387 249.999 36.2142 250.592 36.0851 251.206C35.8212 253.019 35.429 254.811 34.9114 256.568C34.6893 257.357 34.9882 257.864 35.6818 257.933C36.5616 258.017 37.4483 258.054 38.3327 258.146C38.6618 258.193 38.9973 258.162 39.3125 258.057C39.6277 257.951 39.9138 257.773 40.1482 257.537C40.8909 257.011 41.5037 256.322 41.9399 255.523C42.6938 253.362 43.8895 251.309 44.3427 249.027C44.6736 247.414 44.6008 245.862 43.4404 244.689C43.2352 244.505 43.0881 244.265 43.0174 243.998C42.9891 243.862 43.0028 243.72 43.0569 243.592C43.111 243.464 43.2027 243.356 43.32 243.281C43.839 242.848 44.2313 242.282 44.4553 241.644C45.155 240.392 46.1955 239.365 47.4559 238.681C47.6674 238.553 48.2616 238.857 48.5417 239.112C48.7744 239.342 49.0449 239.529 49.3414 239.667C49.4716 239.735 49.6142 239.776 49.7606 239.787C49.9071 239.798 50.0543 239.78 50.1933 239.732C51.9141 239.22 53.7233 239.074 55.5038 239.305C57.1746 239.564 58.8091 240.018 60.3735 240.659C61.1888 240.966 62.0457 241.166 62.9018 241.407C64.2801 241.792 65.6991 242.102 67.137 242.465C68.5821 242.825 70.0232 243.246 71.6231 243.801C72.9586 244.156 74.3769 244.019 75.6198 243.415C76.5504 243.017 77.4316 242.568 78.3137 242.124C79.2043 241.642 80.0421 241.068 80.8136 240.411C81.514 239.777 82.0859 239.015 82.4982 238.165C82.9697 237.385 83.2896 236.551 83.7909 235.77C84.5292 234.148 84.9998 232.418 85.1843 230.645C85.4361 229.406 84.7096 228.27 85.1596 227.096C85.376 226.544 85.418 225.938 85.28 225.361C85.1525 224.801 84.9658 224.255 84.7229 223.734C84.1946 222.468 85.5688 221.089 84.5732 219.791C84.3896 219.556 84.5759 218.947 84.712 218.557C84.8824 218.142 84.949 217.691 84.9061 217.244C84.8632 216.798 84.712 216.368 84.4657 215.993C84.1978 215.647 84.022 215.239 83.9545 214.807C83.887 214.375 83.9301 213.933 84.0798 213.522C84.4619 212.494 84.4737 211.364 84.1132 210.328C83.9673 209.977 83.8439 209.618 83.7438 209.252C83.6974 209.083 83.6857 208.907 83.7092 208.733C83.7327 208.559 83.791 208.392 83.8807 208.241C84.5357 207.148 84.5856 206.545 85.0159 205.797C85.5215 205.168 86.1781 204.677 86.9245 204.371C87.6709 204.064 88.4828 203.951 89.2846 204.043C90.25 204.087 91.2932 204.034 92.3054 204.017C93.3146 203.979 94.3251 204.044 95.3211 204.211C96.764 204.503 98.2301 204.666 99.7019 204.699C101.49 204.871 103.293 204.826 105.071 204.564C106.91 204.14 108.758 205.195 110.765 204.816C111.127 204.756 111.507 204.697 111.883 204.663C112.251 204.628 112.644 204.591 113.07 204.51C114.267 204.293 115.436 203.944 116.556 203.47C117.875 202.92 119.067 202.108 120.061 201.082C121.041 200.057 121.757 198.808 122.146 197.444C122.338 196.758 122.461 196.056 122.512 195.346C122.541 194.99 122.552 194.631 122.553 194.273C122.553 193.912 122.541 193.525 122.531 193.324C122.285 189.731 121.73 186.166 120.873 182.669C120.508 180.955 120.291 179.359 119.2 178.12C119.168 178.041 119.161 177.954 119.178 177.871C119.196 177.787 119.238 177.711 119.299 177.651C120.209 177.196 120.355 176.812 120.227 176.371C120.14 175.966 119.822 175.523 119.874 175.143C119.965 174.315 120.158 173.501 120.449 172.72L120.805 172.205L120.992 171.959C121.079 171.885 121.171 171.814 121.264 171.746C121.448 171.61 121.643 171.488 121.846 171.383C122.067 171.295 122.3 171.243 122.538 171.228C122.6 171.221 122.66 171.199 122.712 171.165C122.764 171.13 122.807 171.083 122.837 171.028C122.959 170.737 123.174 170.494 123.447 170.335C123.579 170.256 123.717 170.187 123.86 170.129L124.34 170.016C124.636 169.931 125.033 169.949 125.352 169.892C125.717 169.874 126.08 169.826 126.438 169.749C127.826 169.522 129.226 169.384 130.631 169.334C132.386 169.197 134.314 168.98 136.377 168.863C136.946 168.833 137.535 168.818 138.141 168.802C138.739 168.792 139.34 168.777 139.994 168.736C141.478 168.673 142.94 168.351 144.314 167.786C144.701 167.625 145.082 167.466 145.458 167.309C145.885 167.122 146.326 166.948 146.741 166.743C147.583 166.362 148.387 165.899 149.139 165.362C149.517 165.092 149.874 164.796 150.211 164.476C150.529 164.136 150.828 163.779 151.107 163.405L151.534 162.842C151.666 162.629 151.786 162.409 151.893 162.182C152.007 161.947 152.108 161.721 152.181 161.546C152.261 161.366 152.326 161.181 152.375 160.99C152.743 159.872 153.037 158.731 153.256 157.574C153.335 157.205 153.316 156.821 153.202 156.461C153.087 156.102 152.881 155.778 152.602 155.523C152.177 155.17 151.994 154.726 152.216 154.325C152.782 153.401 153.125 152.357 153.217 151.278C153.309 150.198 153.148 149.112 152.747 148.105C152.695 147.889 152.69 147.665 152.731 147.447C152.773 147.229 152.86 147.023 152.987 146.841C153.387 146.408 153.664 145.877 153.791 145.302C153.917 144.727 153.888 144.129 153.707 143.569C153.373 142.23 153.112 140.947 152.743 139.277L152.686 138.996L152.655 138.816L152.604 138.456C152.575 138.215 152.556 137.974 152.55 137.733C152.568 137.259 152.651 136.79 152.798 136.339C152.931 135.964 152.931 135.555 152.797 135.18C152.696 134.829 152.728 134.454 152.885 134.125C152.984 133.978 153.044 133.808 153.059 133.631C153.074 133.455 153.043 133.277 152.969 133.115C152.86 132.786 152.834 132.434 152.895 132.092C152.983 131.85 153.055 131.602 153.112 131.351C153.189 131.11 153.287 130.877 153.407 130.655C153.614 130.427 153.759 130.144 153.982 129.929C154.085 129.805 154.17 129.667 154.236 129.519C154.33 129.367 154.407 129.205 154.466 129.036C154.517 128.863 154.634 128.717 154.792 128.629C154.957 128.56 155.126 128.501 155.299 128.454C155.621 128.321 155.997 128.276 156.211 127.803C156.303 127.663 156.439 127.556 156.597 127.499C156.756 127.442 156.928 127.438 157.089 127.487C157.55 127.607 158.017 127.7 158.489 127.766C158.931 127.788 159.418 127.867 159.881 127.868C160.312 127.859 160.917 127.903 161.447 127.908C162 127.908 162.52 127.966 163.053 128.013C164.289 128.168 165.515 128.401 166.723 128.711C167.959 129.02 169.35 129.433 170.912 129.781C171.458 129.915 171.989 130.105 172.495 130.349C172.758 132.182 172.873 134.032 172.838 135.883C172.6 138.747 172.582 141.624 172.783 144.49C172.89 146.069 173.097 147.641 173.4 149.195C173.74 151.156 174.432 153.039 175.443 154.753C175.672 155.136 175.934 155.498 176.227 155.834C176.539 156.223 176.89 156.578 177.274 156.895C177.475 157.065 177.68 157.23 177.889 157.39C178.121 157.542 178.362 157.687 178.605 157.826C179.088 158.11 179.603 158.335 180.14 158.497C181.922 159.017 183.813 159.035 185.605 158.549C187.848 158.026 189.919 157.32 191.76 157.065C192.85 156.315 194.118 155.866 195.437 155.764C195.973 155.296 196.602 154.946 197.282 154.738C197.633 154.631 197.99 154.547 198.352 154.486L198.488 154.461C198.523 154.453 198.667 154.445 198.751 154.436L199.339 154.388L200.516 154.299C201.004 154.263 201.488 154.185 201.963 154.067L203.363 153.776C204.202 153.482 204.97 153.016 205.617 152.407C207.145 150.864 208 148.779 207.998 146.608C208.017 145.476 207.881 144.346 207.595 143.251ZM198.525 144.476C198.422 144.653 198.026 144.66 197.607 144.261C197.244 143.916 197.209 143.765 197.211 143.845C197.211 143.875 197.217 143.939 197.212 144.037L197.21 144.075L197.076 144.135L196.809 144.264C196.633 144.354 196.462 144.452 196.294 144.558C195.046 145.25 193.735 145.819 192.377 146.259C191.082 146.674 189.883 147.341 188.847 148.223C187.83 149.195 186.314 148.763 185.207 148.981C184.621 149.109 184.032 149.238 183.441 149.367C183.384 148.895 183.401 148.417 183.493 147.95C183.535 147.72 183.154 147.396 182.844 147.192C181.874 146.617 181.364 145.875 182.824 145.135C182.911 145.079 182.982 145.002 183.032 144.912C183.081 144.821 183.107 144.719 183.106 144.616C182.833 143.017 182.829 141.384 183.093 139.783C183.168 138.258 183.11 136.729 182.919 135.214C182.905 134.997 182.839 134.632 182.721 134.597C182.04 134.404 180.755 135.212 181.03 133.535C181.169 132.651 181.489 131.784 181.569 130.868C181.573 130.748 181.571 130.628 181.562 130.508C181.59 130.506 181.618 130.506 181.645 130.504L184.545 130.306C186.333 130.087 188.135 129.999 189.936 130.042C191.221 130.097 192.503 130.957 193.721 130.388C193.827 130.35 193.808 130.327 193.823 130.304C193.831 130.286 193.841 130.269 193.852 130.253C193.859 130.243 193.868 130.234 193.879 130.228C193.89 130.222 193.903 130.219 193.915 130.218C193.957 130.219 193.993 130.261 194.019 130.302C194.08 130.387 194.073 130.457 194.31 130.191C194.441 130.059 194.365 130.33 194.306 130.455C194.292 130.486 194.281 130.518 194.273 130.552C194.234 130.694 194.688 130.369 195.338 130.287C195.755 130.223 196.171 130.311 195.863 130.707C195.497 132.285 195.996 133.708 196.044 135.082C196.132 137.419 196.117 139.584 197.708 141.241C197.778 141.318 197.829 141.411 197.857 141.511C197.885 141.611 197.889 141.717 197.869 141.819C197.674 142.35 197.687 142.935 197.907 143.456C198.026 143.608 198.251 143.668 198.37 143.812C198.548 144.013 198.647 144.303 198.525 144.476Z" fill="#006ADC"/>
<path d="M229.288 100.465C229.412 98.8 229.382 97.1269 229.196 95.4675C228.963 93.4685 228.099 91.5959 226.73 90.1215C226.25 89.6498 225.859 89.0953 225.577 88.4847C225.272 87.8848 224.927 87.3059 224.544 86.7521C224.228 86.3521 223.852 86.0029 223.43 85.7164C223.004 85.4445 222.553 85.2128 222.084 85.0243C220.868 84.7598 219.693 84.3295 218.594 83.7455C217.32 82.8522 215.779 82.7556 214.404 82.4791C211.313 81.8751 208.348 82.5063 205.563 81.5947C204.505 81.8161 203.675 82.0575 202.718 82.2221C201.776 82.4025 200.817 82.4715 199.859 82.4276C198.898 82.4955 197.952 82.711 197.056 83.0664C196.831 83.1495 196.614 83.2528 196.408 83.375C194.494 84.3996 192.318 84.8312 190.158 84.6148C190.048 84.6097 189.938 84.6302 189.837 84.6745C189.736 84.7188 189.647 84.7859 189.576 84.8705C189.045 86.2786 187.908 86.0582 186.707 86.0888C185.762 86.2074 184.843 86.477 183.984 86.8872C182.005 87.6624 180.061 88.3943 177.861 88.1268C177.139 88.0653 176.411 88.1277 175.71 88.3115C171.497 89.3092 167.236 90.2604 163.292 92.0855C162.407 92.4927 161.483 92.6222 160.65 92.9454C159.558 93.3894 158.392 93.6249 157.213 93.6396C155.947 93.7207 154.749 94.2398 153.825 95.1079C153.29 95.6198 152.701 96.0711 152.067 96.4535C150.748 97.0256 149.681 98.0565 149.064 99.355C148.442 100.698 148.118 102.16 148.113 103.64C148.1 104.14 148.114 104.641 148.153 105.139C148.189 105.586 148.237 106.019 148.299 106.428C148.42 107.252 148.577 108.013 148.739 108.728C149.06 110.089 149.344 111.299 149.604 112.6C150.025 114.701 150.257 116.843 151.336 118.738C151.72 119.416 151.514 120.117 151.6 120.805C151.747 121.978 151.653 123.332 152.2 124.268C153.058 125.736 152.932 127.454 153.795 128.88C154.952 130.703 155.386 132.893 155.013 135.019C154.872 136.2 154.968 137.397 155.296 138.541C155.657 140.164 156.07 141.782 156.342 143.419C156.721 145.039 156.799 146.714 156.572 148.362C156.435 149.053 156.521 149.769 156.818 150.408C158.542 153.58 159.294 157.051 160.023 160.538L161.166 166.125C161.512 168.228 161.995 170.307 162.613 172.347C163.283 174.223 162.659 176.065 163.099 177.943C163.46 179.48 164.137 181.081 163.757 182.752C164.848 184.41 164.593 186.349 164.92 188.171C165.199 189.807 165.695 191.398 166.394 192.903C166.942 194.166 167.247 195.522 167.292 196.899C167.562 201.396 168.605 205.814 170.376 209.957C170.628 210.609 170.729 211.309 170.672 212.006C170.631 213.664 170.84 215.319 171.292 216.915C171.601 218.298 172.624 219.458 172.492 220.946C172.35 222.518 173.488 223.55 173.99 224.848C174.847 227.474 175.436 230.181 175.746 232.927C176.201 234.79 176.762 237.092 177.324 239.397C177.56 240.349 178.082 240.693 178.708 240.359C179.501 239.934 180.277 239.475 181.083 239.084C181.394 238.943 181.669 238.732 181.885 238.468C182.102 238.204 182.255 237.893 182.332 237.561C182.699 236.694 182.908 235.77 182.949 234.83C182.635 232.467 182.987 230.115 182.737 227.779C182.729 226.948 182.524 226.13 182.14 225.393C181.756 224.656 181.204 224.02 180.528 223.536C180.216 223.388 179.965 223.136 179.819 222.823C179.673 222.51 179.641 222.157 179.728 221.822C179.906 220.884 179.709 219.914 179.18 219.119C178.33 217.71 177.506 216.281 176.774 214.804C176.657 214.57 176.991 213.967 177.258 213.681C177.531 213.466 177.734 213.176 177.843 212.846C177.952 212.517 177.963 212.162 177.873 211.827C176.524 208.127 175.701 204.256 175.431 200.327C175.341 199.384 175.131 198.452 174.96 197.517C174.402 194.504 173.523 191.551 173.855 188.403C173.898 187.21 173.634 186.025 173.088 184.963C172.457 183.465 172.11 181.862 172.066 180.236C171.934 178.678 171.237 177.162 171.143 175.491C171.053 173.861 170.378 172.261 170.116 170.623C169.927 169.44 168.89 168.582 169.031 167.313C169.044 166.127 168.63 164.976 167.864 164.07C167.099 162.865 168.242 161.253 167.076 160.041C166.862 159.818 166.96 159.164 167.045 158.74C167.16 158.281 167.169 157.802 167.071 157.339C166.974 156.876 166.772 156.441 166.481 156.068C166.17 155.721 165.946 155.304 165.826 154.853C165.707 154.403 165.697 153.93 165.796 153.474C166.047 152.305 165.905 151.086 165.391 150.007C164.869 149.228 164.599 148.307 164.62 147.369C164.687 145.701 164.385 144.039 163.737 142.501C162.915 140.341 162.437 138.064 162.32 135.756C162.296 133.41 161.698 131.059 161.634 128.706C161.602 127.051 161.406 125.403 161.046 123.787C160.76 121.911 160.274 120.071 159.596 118.299C158.769 116.536 159.464 114.547 158.888 112.717C158.676 112.042 158.601 111.323 158.44 110.628C158.067 108.939 157.581 107.016 157.376 105.7C157.32 105.353 157.291 105.04 157.266 104.739C157.265 104.602 157.249 104.45 157.253 104.326C157.255 104.19 157.251 104.183 157.257 104.108C157.267 103.869 157.332 103.635 157.447 103.425C157.568 103.22 157.745 103.053 157.957 102.945C158.061 102.891 158.169 102.846 158.281 102.81C158.468 102.743 158.853 102.618 159.217 102.514C160.867 102.044 162.586 101.567 164.279 101.135C166.067 100.672 167.942 100.3 169.387 98.9644C169.478 98.9179 169.579 98.8947 169.681 98.8971C169.784 98.8994 169.884 98.9272 169.973 98.9779C171.295 100.614 172.391 98.9624 173.584 98.7104C176.524 98.1135 179.363 96.7255 182.476 97.3039C182.709 97.3429 182.949 97.3102 183.164 97.2101C185.322 96.1064 187.723 96.5708 189.978 96.1435C191.811 95.7908 193.668 95.5685 195.491 95.1861C197.541 94.759 199.561 94.1774 201.617 93.7555C202.758 93.5182 203.932 93.3761 205.091 93.2042C206.172 93.0597 207.239 92.8237 208.28 92.4985C210.205 91.8499 211.889 92.8835 213.446 92.7203C214.104 92.7211 214.76 92.7776 215.409 92.8892C215.669 92.9048 215.929 92.8532 216.163 92.7395C216.397 92.6258 216.599 92.4538 216.747 92.2399C217.074 91.8544 217.45 91.7185 217.599 91.9934C218.431 93.3321 218.565 93.8219 219.961 94.4333C220.175 94.5347 220.183 94.9705 220.004 95.1989C219.707 95.4843 219.505 95.8538 219.424 96.2578C219.343 96.6618 219.388 97.0808 219.553 97.4584C220.199 99.8368 220.108 102.356 219.29 104.681C218.86 105.883 219.503 106.988 219.096 108.127C218.674 109.311 219.466 110.419 219.436 111.606C219.412 112.552 219.567 113.503 219.551 114.452C219.423 115.631 219.519 116.824 219.834 117.968C220.252 119.095 219.349 120.264 219.998 121.407C220.089 121.623 220.136 121.856 220.136 122.09C220.136 122.325 220.09 122.557 219.999 122.774C218.904 125.23 219.07 127.873 218.86 130.457C218.613 133.531 218.333 136.6 218.144 139.675C218.067 140.894 217.412 141.958 217.322 143.078C217.217 144.447 217.793 145.86 217.78 147.253C217.76 149.635 217.762 152.02 217.589 154.393C217.515 154.374 217.439 154.363 217.363 154.363C216.421 154.393 215.488 154.55 214.588 154.829C212.56 155.497 210.618 156.513 208.557 156.978C207.103 157.306 205.666 157.681 204.238 158.087L202.102 158.717L200.503 159.215C199.872 159.418 199.255 159.659 198.655 159.939C197.497 160.469 196.462 161.235 195.618 162.189C194.791 163.145 194.211 164.291 193.93 165.524C193.659 166.772 193.63 168.06 193.845 169.319C193.95 169.972 194.091 170.618 194.269 171.254L194.697 172.769C195.778 176.646 197.202 180.452 197.415 184.529C197.784 185.26 198.074 186.029 198.278 186.822L198.531 187.779L198.812 188.906C198.988 189.655 199.212 190.393 199.484 191.113C200.232 192.14 201.132 193.046 202.154 193.8C203.184 194.546 204.381 195.027 205.641 195.201C206.261 195.285 206.889 195.3 207.514 195.248C207.845 195.223 208.173 195.176 208.498 195.107C208.833 195.039 209.162 195.003 209.503 194.899C210.155 194.723 210.91 194.515 211.473 194.4C211.802 194.316 212.191 194.222 212.545 194.118C213.235 193.92 213.961 193.753 214.733 193.559C215.122 193.459 215.504 193.366 215.916 193.242C216.349 193.121 216.651 193.021 217.238 192.814C218.387 192.416 219.462 191.833 220.424 191.09C221.324 190.383 222.014 189.443 222.42 188.373C222.494 188.122 222.581 187.876 222.681 187.634C222.754 187.379 222.831 187.117 222.909 186.85C223.078 186.317 223.197 185.769 223.266 185.214L223.271 185.157L224.088 174.633C224.364 171.306 224.574 167.976 225.691 164.78C225.956 163.866 226.103 162.923 226.13 161.972C226.4 160.32 226.391 158.635 226.103 156.987C225.668 155.282 226.939 153.801 226.72 152.115C226.629 151.411 226.701 150.673 226.545 149.992C226.402 149.306 226.446 148.594 226.671 147.93C227.064 146.811 227.331 145.651 227.468 144.473C227.584 141.153 228.068 137.857 228.911 134.645C229.02 134.188 228.971 133.708 228.769 133.284C228.568 132.859 228.227 132.517 227.803 132.314C227.327 132.017 227.373 131.633 227.64 131.093C228.181 130.023 228.293 128.787 227.953 127.638C227.621 126.77 227.627 125.808 227.972 124.945C228.29 124.057 228.478 123.127 228.531 122.185C228.646 121.004 228.645 119.811 228.677 118.622C228.71 117.434 228.735 116.246 228.74 115.057C228.806 114.347 228.78 113.631 228.663 112.927C228.24 111.328 228.553 109.675 228.248 108.079C227.817 106.222 227.983 104.277 228.721 102.52C229.039 101.877 229.231 101.18 229.288 100.465ZM216.721 173.313C215.982 174.556 215.974 176.025 215.527 177.348C215.144 178.385 214.827 179.446 214.579 180.523C214.468 181.054 214.413 181.594 214.413 182.136C214.415 182.272 214.42 182.409 214.43 182.546L214.449 182.752L214.462 182.856C214.467 182.874 214.476 182.869 214.483 182.877L214.733 183.037L214.884 183.144C214.969 183.206 214.982 183.286 214.878 183.275C214.486 183.232 214.417 183.227 214.425 183.354C214.459 183.514 214.45 183.68 214.399 183.836C214.37 183.888 214.334 183.937 214.293 183.981C214.238 184.026 214.261 184.038 214.023 184.131C213.612 184.279 213.188 184.386 212.756 184.449C211.731 184.588 210.691 184.555 209.677 184.351L209.328 184.302C209.28 184.272 209.292 184.238 209.274 184.21C209.255 184.163 209.239 184.115 209.226 184.067C209.206 183.992 209.203 183.961 209.192 183.977C209.1 184.211 208.975 184.431 208.82 184.63C208.331 185.221 208.01 184.989 207.849 184.739C207.751 184.597 207.668 184.484 207.512 184.284C207.248 183.687 206.918 183.122 206.527 182.599C205.652 181.455 206.23 179.869 206.002 178.482C205.61 176.504 205.106 174.549 204.493 172.628C204.218 171.657 203.963 170.683 203.775 169.694C203.739 169.529 203.762 169.545 203.764 169.51L203.789 169.429C203.809 169.376 203.836 169.326 203.871 169.281C203.951 169.181 204.065 169.112 204.192 169.088C204.295 169.074 203.969 168.935 203.691 168.751C203.256 168.488 202.998 168.163 203.063 168.034C203.126 167.907 203.51 167.991 204.19 168.531C204.286 168.617 204.395 168.69 204.511 168.746C204.517 168.72 204.527 168.696 204.543 168.674C204.558 168.653 204.577 168.634 204.6 168.62C204.622 168.606 204.647 168.597 204.673 168.593C204.7 168.589 204.726 168.59 204.752 168.597C205.623 168.371 206.561 168.181 207.488 168.02C209.1 167.618 210.674 167.078 212.194 166.406C212.41 166.325 212.762 166.148 212.762 166.025C212.759 165.314 211.567 164.333 213.344 164.081C214.275 163.948 215.231 164 216.152 163.827C216.167 163.825 216.18 163.818 216.195 163.815C216.087 164.807 215.686 165.765 216.028 166.775C216.147 167.134 215.863 167.665 215.716 168.098C215.556 168.661 215.536 169.254 215.659 169.827C215.781 170.399 216.041 170.932 216.417 171.381C216.662 171.632 216.822 171.952 216.877 172.298C216.931 172.645 216.877 172.999 216.721 173.313Z" fill="#000638"/>
<path d="M218.596 171.663C218.416 171.128 218.145 170.628 217.796 170.184C217.439 169.755 217.007 169.393 216.522 169.117C216.196 168.94 215.854 168.793 215.501 168.68C215.502 168.667 215.506 168.654 215.507 168.641C215.551 168.172 215.627 167.705 215.735 167.246C215.909 166.71 215.954 166.141 215.866 165.585C215.779 165.029 215.562 164.501 215.232 164.045C214.901 163.617 214.484 163.262 214.01 163.003C213.535 162.743 213.011 162.584 212.472 162.536C212.287 162.521 212.105 162.512 211.924 162.507C210.995 162.499 210.001 163.313 209.18 163.699C207.686 164.349 206.266 165.158 204.945 166.114C204.604 166.369 204.223 166.565 203.817 166.695C203.475 166.825 203.122 166.926 202.762 166.998C201.918 167.241 201.692 167.527 202.041 168.517C202.214 168.882 202.253 169.296 202.152 169.686C202.051 170.077 201.816 170.42 201.488 170.655C201.098 170.926 200.684 171.16 200.251 171.356C200.196 172.48 199.55 173.411 199.648 174.507C199.675 174.668 199.747 174.819 199.857 174.94C200.388 175.399 201.075 175.635 201.775 175.6C202.109 175.508 202.409 175.379 202.731 175.293C202.482 175.686 202.301 176.117 202.194 176.57C202.149 176.794 202.053 177.006 201.913 177.188C201.773 177.369 201.593 177.516 201.387 177.617C200.984 177.834 200.623 178.12 200.321 178.464C200.213 178.668 200.096 178.873 200 179.084C199.813 179.433 199.7 179.817 199.67 180.212C199.663 180.264 199.659 180.316 199.659 180.369V180.425L199.669 180.58C199.677 180.685 199.691 180.79 199.711 180.894C199.787 181.296 199.941 181.679 200.164 182.023C200.548 182.608 201.113 183.053 201.772 183.288C202.426 183.518 203.127 183.582 203.812 183.476C204.115 183.431 204.414 183.362 204.706 183.27C204.6 183.518 204.531 183.78 204.498 184.048C204.44 184.406 204.288 184.742 204.058 185.023C203.828 185.303 203.528 185.517 203.188 185.644C202.985 185.767 202.826 185.952 202.735 186.171C202.644 186.39 202.625 186.632 202.68 186.863C202.721 187.106 202.702 187.356 202.624 187.591C202.546 187.825 202.413 188.038 202.235 188.209C202.122 188.313 202.006 188.42 201.893 188.524C201.545 188.865 201.579 189.121 202.026 189.269C202.345 189.319 202.654 189.416 202.944 189.559C203.355 189.848 203.682 190.431 204.116 190.528C204.495 190.616 204.97 189.926 205.326 190.002C206.996 190.348 208.345 189.378 209.566 188.521C209.935 188.21 210.279 187.87 210.594 187.505C210.759 187.338 210.953 187.204 211.168 187.109C211.281 187.059 211.4 187.023 211.523 187.001L211.73 186.976C211.834 186.947 211.942 186.923 212.055 186.902C212.529 186.572 212.982 186.215 213.412 185.83C213.835 185.501 214.17 185.073 214.39 184.584C214.761 183.532 215.291 182.542 215.961 181.65C216.798 180.568 217.505 179.391 218.066 178.143C218.527 177.091 218.82 175.974 218.936 174.831C219.047 173.763 218.931 172.684 218.596 171.663ZM209.422 169.902C209.712 169.657 209.981 169.524 209.743 169.921C209.535 170.263 209.382 170.502 209.263 170.689C208.953 170.842 208.643 170.995 208.33 171.149C208.355 171.107 208.373 171.065 208.401 171.023C208.684 170.601 209.028 170.223 209.422 169.902L209.422 169.902ZM208.174 171.161C208.168 171.193 208.162 171.216 208.155 171.245C208.064 171.292 207.97 171.347 207.878 171.397C207.877 171.26 207.895 171.124 207.929 170.992C208.038 170.593 208.342 170.305 208.174 171.161H208.174ZM206.881 171.538C206.955 171.477 207.019 171.404 207.07 171.323C207.125 171.239 207.163 171.151 207.135 171.109C207.103 170.969 207.077 170.829 207.059 170.687C207.031 170.565 207.014 170.441 207.007 170.316C207.036 170.013 207.342 170.006 207.509 170.44C207.623 170.756 207.721 171.078 207.8 171.404L207.808 171.435C207.013 171.863 206.244 172.338 205.506 172.857C205.929 172.382 206.389 171.941 206.881 171.538H206.881Z" fill="#80829B"/>
<path d="M193.944 132.21C194.135 131.48 194.542 130.536 194.124 129.892C193.462 128.958 192.886 127.966 192.401 126.929C192.226 126.597 191.98 126.308 191.68 126.082C191.38 125.856 191.034 125.699 190.667 125.622C189.905 125.486 189.12 125.651 188.477 126.082C188.079 126.378 187.605 126.557 187.111 126.599C186.511 126.671 185.93 126.855 185.398 127.141C185.096 127.289 184.83 127.44 184.578 127.595C184.365 127.731 184.154 127.867 183.944 128.001C183.389 128.405 182.86 128.844 182.362 129.315C181.468 130.052 180.632 130.856 179.86 131.719C179.503 132.095 179.253 132.56 179.137 133.065C179 134.151 178.301 134.967 177.675 136.165C177.506 136.474 177.417 136.821 177.417 137.174C177.417 137.527 177.506 137.874 177.676 138.183C177.987 138.668 178.448 139.037 178.988 139.235C179.231 139.261 179.477 139.235 179.708 139.158C179.94 139.081 180.152 138.955 180.331 138.788C180.436 138.405 180.526 137.956 181.008 137.765C181.729 137.53 181.856 137.066 182.028 136.322C182.873 136.155 183.449 135.801 183.562 134.892C183.582 134.738 183.615 134.489 183.713 134.465C185.298 134.115 186.344 133.027 187.452 132.207L187.807 131.958C187.906 131.888 188.01 131.826 188.118 131.772C188.22 131.706 188.338 131.669 188.459 131.665C188.58 131.661 188.7 131.69 188.806 131.749C188.891 131.834 188.958 131.936 189.003 132.048C189.048 132.16 189.07 132.281 189.067 132.401C189.082 132.642 189.059 132.883 189.001 133.116C188.946 133.351 188.833 133.743 188.723 134.059L188.316 135.156C188.287 135.232 188.256 135.305 188.227 135.381C187.263 135.796 186.341 136.302 185.472 136.892C185.283 137.015 185.092 137.129 184.893 137.238C184.678 137.351 184.503 137.45 184.371 137.504C184.07 137.633 183.738 137.758 183.336 137.897C182.62 138.067 181.953 138.397 181.385 138.865C180.865 139.361 180.378 139.891 179.926 140.45C179.805 140.592 179.68 140.786 179.56 140.954C179.427 141.135 179.307 141.326 179.201 141.525C179.082 141.748 178.969 141.949 178.86 142.199C178.75 142.484 178.652 142.777 178.569 143.072C178.462 143.552 178.419 144.044 178.439 144.535C178.481 145.136 178.646 145.721 178.924 146.256C179.067 146.524 179.229 146.781 179.41 147.025C179.574 147.216 179.751 147.394 179.94 147.561C180.12 147.724 180.31 147.877 180.508 148.019L180.961 148.288C181.286 148.469 181.629 148.617 181.983 148.731C181.742 148.978 181.481 149.206 181.203 149.411C180.441 150.028 180.432 151.065 180.634 152.137C180.83 152.831 181.107 153.5 181.458 154.13C181.685 154.636 181.911 154.698 182.621 154.163C182.737 154.036 182.879 153.936 183.037 153.869C183.194 153.802 183.365 153.77 183.536 153.774C184.079 153.83 184.625 153.709 185.093 153.429C185.56 153.148 185.925 152.724 186.131 152.219C186.358 151.642 186.729 151.133 187.208 150.741C187.688 150.349 188.261 150.086 188.872 149.979C189.138 149.931 189.385 149.809 189.586 149.628C189.787 149.446 189.934 149.213 190.01 148.953C190.081 148.428 190.288 147.93 190.61 147.509C190.932 147.087 191.358 146.757 191.847 146.551C192.263 146.373 192.61 146.065 192.834 145.673C192.956 145.469 193.051 145.25 193.117 145.021C193.263 144.674 193.37 144.31 193.435 143.939C193.63 142.6 193.614 141.54 193.691 140.307C193.733 139.478 193.539 138.655 193.131 137.932C193.352 137.371 193.569 136.811 193.787 136.252C194.005 135.712 194.15 135.145 194.216 134.567C194.217 134.459 194.264 134.164 194.263 133.963C194.269 133.751 194.264 133.538 194.247 133.326C194.213 132.94 194.111 132.562 193.944 132.21ZM182.828 144.247L182.837 144.245L182.831 144.248C182.803 144.26 182.786 144.263 182.828 144.247H182.828Z" fill="#000638"/>
<path d="M265.08 266.765C264.776 265.944 264.462 265.132 264.191 264.297C264.052 263.741 263.731 263.248 263.279 262.895C262.774 262.554 262.248 261.942 261.794 261.938C260.555 261.931 259.33 261.23 258.152 261.081C257.672 260.991 257.176 261.086 256.763 261.345C256.349 261.604 256.048 262.01 255.919 262.48C255.694 262.979 255.405 263.284 254.993 262.919C254.808 262.742 254.565 262.638 254.309 262.627C254.052 262.616 253.801 262.698 253.601 262.859C253.186 263.106 252.808 263.342 252.403 263.546C251.964 263.761 251.501 263.926 251.025 264.038C250.859 264.081 250.773 263.586 250.824 263.261C250.903 262.646 250.982 262.173 250.651 262.146C250.286 262.158 249.923 262.082 249.594 261.925C249.264 261.767 248.976 261.534 248.755 261.243C248.571 260.669 248.553 260.054 248.704 259.47C248.76 259.255 248.858 258.884 248.974 258.444C249.052 257.961 249.081 257.471 249.061 256.982C249.089 255.314 248.759 253.699 249.453 251.803C249.54 251.444 249.543 251.07 249.461 250.711C249.379 250.351 249.215 250.016 248.981 249.73C248.441 248.857 248.088 247.882 247.943 246.865C247.662 245.863 246.825 245.116 246.335 244.113C246.213 243.864 246.064 243.629 245.889 243.413C245.697 243.21 245.496 243.017 245.284 242.835C244.89 242.46 244.357 242.126 243.919 241.722C243.56 241.485 243.146 241.346 242.718 241.318C242.3 241.304 241.905 241.129 241.613 240.83C241.304 240.556 240.917 240.386 240.506 240.341C240.096 240.297 239.681 240.382 239.321 240.584C238.854 240.715 238.499 240.447 238.088 240.189C237.909 240.03 237.677 239.942 237.437 239.943C237.198 239.944 236.967 240.033 236.789 240.194C236.623 240.343 236.261 240.119 236.013 239.945C235.784 239.741 235.486 239.634 235.18 239.645C234.874 239.657 234.584 239.786 234.371 240.006C234.203 240.244 233.951 240.409 233.665 240.467C233.38 240.524 233.083 240.47 232.836 240.316C232.535 240.122 232.185 240.021 231.827 240.023C231.469 240.025 231.12 240.132 230.822 240.329C230.368 240.654 229.974 241.057 229.373 240.856C228.921 240.754 228.453 240.747 227.999 240.834C227.544 240.921 227.112 241.102 226.73 241.363C225.771 241.984 224.61 242.215 223.487 242.008C222.357 241.7 221.267 241.875 220.312 241.422C219.756 241.12 219.161 240.896 218.544 240.756C217.922 240.63 217.521 240.3 216.932 240.426C216.628 240.47 216.495 240.216 216.506 239.915C216.475 239.646 216.567 239.341 216.363 239.258C216.229 239.182 216.219 239.02 216.138 238.876C215.598 237.654 215.313 236.334 215.301 234.998C215.154 233.152 215.042 231.258 214.978 229.385C214.943 228.397 215.001 227.366 214.006 226.52C213.934 226.459 214.032 226.244 214.145 226.206C215.086 225.893 215.209 225.567 215.096 225.238C214.878 224.658 214.69 224.066 214.536 223.465C214.363 221.957 213.817 220.515 212.947 219.271C212.245 218.228 211.452 217.289 210.653 216.175C210.512 215.992 210.311 215.864 210.086 215.812C208.969 215.566 207.867 215.259 206.784 214.891C206.225 214.718 205.656 214.579 205.08 214.475C204.784 214.42 204.486 214.381 204.186 214.359C204.033 214.348 203.888 214.338 203.726 214.337L203.347 214.338C202.752 214.353 201.993 214.398 201.366 214.444C200.782 214.488 200.201 214.569 199.628 214.688C198.381 214.952 197.277 215.419 196.137 215.753C195.104 215.963 194.084 216.229 193.08 216.55C193.498 215.756 192.812 215.247 192.479 214.618C192.17 214.118 191.991 213.547 191.961 212.96C191.931 212.373 192.049 211.787 192.306 211.258C192.424 211.052 192.5 210.825 192.529 210.59C192.559 210.354 192.541 210.116 192.478 209.887C192.414 209.659 192.306 209.445 192.16 209.259C192.013 209.072 191.831 208.917 191.624 208.801C190.213 207.812 190.508 206.258 189.292 205.196C188.631 204.617 189.45 203.7 189.456 202.944C189.46 202.826 189.455 202.707 189.44 202.59L189.37 202.065C189.319 201.714 189.259 201.362 189.193 201.011C189.076 200.317 188.9 199.634 188.668 198.97C188.228 197.731 187.545 196.592 186.659 195.62C186.063 194.995 185.419 194.415 184.734 193.887C184.485 193.682 183.839 193.818 183.458 194.03C182.261 194.664 181.575 195.138 181.163 193.603C181.118 193.503 181.043 193.42 180.95 193.364C180.856 193.307 180.747 193.281 180.638 193.288C179.699 193.459 178.797 193.583 177.874 193.674L177.214 193.741L176.785 193.756L175.913 193.761C174.898 193.87 173.91 194.16 172.997 194.617C172.864 194.665 172.656 194.797 172.668 194.915C172.745 195.603 173.581 196.697 172.514 196.72C171.942 196.672 171.367 196.656 170.793 196.672C169.524 196.868 168.851 198.749 169.368 200.596C169.76 202.103 170.4 203.534 171.261 204.832C171.439 205.132 171.709 205.367 172.031 205.502C172.476 205.575 172.932 205.532 173.357 205.378C174.194 204.863 175.104 204.477 176.056 204.233C176.726 204.173 177.38 204.082 178.032 203.99L179.229 203.815C179.498 203.784 179.876 203.617 180.103 203.865L180.133 203.909C180.242 204.091 180.305 204.298 180.317 204.511C180.318 204.568 180.31 204.625 180.294 204.68C180.289 204.726 180.265 204.696 180.268 204.804L180.288 205.206C180.303 205.759 180.256 206.312 180.147 206.855C180.58 207.62 180.767 208.5 180.683 209.375C182.058 210.678 181.909 212.407 182.513 213.925C183.069 215.326 183.069 216.88 184.395 218.064C184.7 218.336 184.703 218.756 184.8 219.119C184.851 219.313 184.902 219.507 184.953 219.701C184.63 219.759 184.324 219.886 184.055 220.073C183.785 220.26 183.559 220.503 183.392 220.785C183.266 220.973 182.892 220.947 182.679 220.762C182.524 220.623 182.356 220.5 182.177 220.393C182.013 220.28 181.815 220.228 181.617 220.246C181.049 220.277 180.495 220.443 180.003 220.73C179.461 221.009 179.003 221.366 178.507 221.662C178.263 221.809 178.034 221.979 177.823 222.17C177.594 222.337 177.374 222.516 177.164 222.705C176.293 223.476 175.473 224.304 174.71 225.183C174.527 225.394 174.384 225.636 174.286 225.898C174.212 226.162 174.164 226.433 174.142 226.707C174.128 227.248 174.028 227.783 173.844 228.292C173.633 228.831 173.634 229.43 173.845 229.969C174.037 230.498 174.188 231.04 174.296 231.592C174.311 231.774 174.343 231.953 174.392 232.129L174.524 232.579C174.613 232.881 174.718 233.165 174.78 233.455C174.825 234.204 175.128 234.913 175.636 235.464C176.24 235.988 175.611 236.903 176.47 237.339C176.614 237.468 176.725 237.629 176.795 237.809C176.865 237.989 176.892 238.183 176.873 238.375C176.847 238.964 176.902 239.553 177.035 240.126C177.193 240.682 177.442 241.208 177.769 241.684C178.41 242.641 179.307 243.399 180.358 243.87C181.57 244.431 182.914 244.648 184.241 244.497C184.61 244.438 184.975 244.404 185.353 244.323L186.509 244.022L188.869 243.247C189.514 243.076 190.176 242.977 190.844 242.955C191.484 242.91 192.111 242.746 192.692 242.473C194.007 241.751 194.451 240.415 195.105 239.341C195.968 237.799 196.355 236.036 196.218 234.274C196.177 233.428 196.082 232.751 196.008 232.105L195.914 231.197C195.892 230.919 195.889 230.683 195.892 230.42C195.903 229.66 196.689 228.757 196.059 228.142C195.895 227.979 195.794 227.762 195.775 227.532C195.786 227.538 195.796 227.541 195.807 227.548C196.643 227.053 197.618 226.844 198.583 226.952C199.052 227.058 199.485 226.671 199.922 226.497C200.028 226.455 200.114 226.328 200.209 226.243C201.092 225.446 202.079 225.089 203.04 225.671C203.107 225.723 203.225 225.635 203.24 225.511C203.32 224.865 203.463 224.629 203.687 224.596C203.794 224.578 203.904 224.599 203.998 224.654C204.032 224.708 204.066 224.763 204.102 224.82C204.197 224.976 204.324 224.755 204.505 224.621C204.585 224.543 204.682 224.483 204.787 224.445C204.892 224.407 205.004 224.391 205.116 224.398C205.289 224.44 205.389 224.655 205.186 225.057C205.112 225.172 205.067 225.303 205.053 225.438C205.053 225.453 205.057 225.468 205.063 225.482C205.112 225.689 205.148 225.9 205.17 226.112C205.298 227.229 205.567 228.325 205.972 229.374C206.081 229.846 206.154 230.324 206.193 230.806C206.365 231.418 206.309 232.071 206.038 232.645C205.928 232.887 205.901 233.159 205.96 233.418C206.019 233.677 206.162 233.91 206.366 234.08C206.555 234.272 206.76 234.568 206.617 234.746C205.886 235.626 206.177 236.524 206.365 237.547C206.686 239.421 207.256 241.245 208.061 242.968C208.814 244.583 210.003 246.279 211.811 246.806C212.097 246.894 212.351 247.065 212.541 247.297C212.734 247.505 212.943 247.699 213.166 247.875C213.56 248.178 213.972 248.456 214.399 248.709C214.779 248.965 215.234 249.085 215.69 249.051C216.999 248.895 218.065 249.522 219.186 249.072C219.804 248.747 220.492 248.579 221.19 248.581C221.888 248.584 222.575 248.758 223.19 249.088C223.882 249.396 224.659 249.454 225.39 249.253C226.383 249.059 227.352 248.793 228.32 248.616C229.192 248.349 230.132 248.406 230.965 248.778C231.113 248.877 231.288 248.927 231.466 248.92C231.644 248.914 231.815 248.852 231.955 248.743C232.519 248.197 233.191 247.776 233.928 247.508C234.666 247.24 235.451 247.131 236.234 247.187C236.854 247.197 237.471 247.289 238.067 247.46C238.652 247.623 238.954 247.965 239.456 247.997C239.509 248.007 239.558 248.032 239.599 248.067C239.64 248.103 239.671 248.148 239.689 248.199C239.74 248.351 239.771 248.509 239.78 248.67C239.829 248.995 239.762 249.354 239.938 249.529C240.092 249.683 240.235 249.848 240.366 250.021C240.427 250.155 240.447 250.304 240.424 250.449C240.402 250.594 240.338 250.73 240.24 250.839C240.403 250.859 240.553 250.941 240.657 251.069C240.761 251.197 240.81 251.361 240.795 251.525C240.821 251.819 240.698 252.213 240.753 252.516C240.831 253.191 241.082 253.835 241.481 254.385C241.645 254.662 241.745 254.971 241.776 255.291C241.806 255.611 241.766 255.933 241.657 256.236C241.482 256.848 241.369 257.478 241.322 258.113C241.309 258.288 241.301 258.417 241.297 258.627L241.315 259.62C241.336 260.285 241.377 260.946 241.43 261.599C241.49 262.076 241.611 262.544 241.79 262.989C241.926 263.428 242.093 263.856 242.29 264.271C242.753 265.067 243.381 265.755 244.13 266.29C244.645 266.671 245.106 267.119 245.503 267.622C246.644 268.811 248.171 269.554 249.811 269.719C250.544 269.803 251.284 269.789 252.014 269.678L252.527 269.636C252.648 269.622 252.769 269.615 252.891 269.616C253.125 269.618 253.356 269.676 253.564 269.785C254.517 270.287 255.292 269.39 256.09 269.146C257.656 268.809 259.261 268.681 260.861 268.765C261.943 268.581 263.262 268.342 264.596 268.025C265.151 267.895 265.322 267.413 265.08 266.765ZM187.233 234.72C187.356 234.826 187.31 234.921 187.458 235.066C187.619 235.23 187.488 235.321 187.28 235.335C186.926 235.365 186.557 235.232 186.457 235.272C186.151 235.362 185.623 235.372 185.708 234.752C185.755 234.551 185.612 235.057 185.191 235.861C184.964 236.303 184.888 236.288 184.933 236.054C185.024 235.581 185.039 235.494 184.649 235.682C184.341 235.83 184.142 235.759 184.396 235.437C184.537 235.302 184.637 235.13 184.686 234.942C184.678 234.838 184.658 234.735 184.625 234.635L184.513 234.254C184.441 234 184.346 233.748 184.279 233.496L183.872 232.008C183.792 231.713 183.81 231.404 183.579 231.173C183.512 231.105 183.45 231.031 183.397 230.952C183.351 230.909 183.319 230.895 183.29 230.862C183.239 230.808 183.2 230.745 183.173 230.676C183.122 230.512 183.033 230.362 182.913 230.239C182.476 229.805 182.594 229.198 183.423 229.499C183.608 229.597 183.807 229.667 184.012 229.707C184.162 229.637 184.36 229.691 184.483 229.603C184.501 229.591 184.517 229.578 184.531 229.564C184.544 229.549 184.546 229.535 184.657 229.486C184.826 229.404 184.988 229.309 185.143 229.202C185.481 228.967 185.776 228.677 186.017 228.343C186.085 228.243 186.181 228.167 186.293 228.122C186.404 228.078 186.527 228.069 186.644 228.095C186.623 228.567 186.552 229.035 186.433 229.492C186.345 229.993 186.373 230.507 186.517 230.995C186.603 231.423 186.655 231.861 186.773 232.282C186.867 232.707 187.087 233.095 187.403 233.395C187.466 233.448 187.518 233.513 187.556 233.586C187.593 233.659 187.616 233.739 187.622 233.821C187.628 233.903 187.617 233.986 187.591 234.064C187.564 234.142 187.522 234.214 187.468 234.275C187.305 234.558 187.083 234.597 187.233 234.72Z" fill="#000638"/>
<path d="M151.205 250.029C150.926 249.409 150.541 248.842 150.068 248.353C149.578 247.837 149.087 247.338 148.574 246.691C148.352 246.473 148.076 246.318 147.774 246.242C147.472 246.165 147.156 246.17 146.857 246.256C146.04 246.389 145.205 246.363 144.398 246.179C143.926 246.152 143.452 246.203 142.997 246.332V246.331C142.91 246.18 143.078 245.955 143.297 245.888C144.024 245.665 144.304 245.342 144.187 244.764C144.023 244.245 143.981 243.695 144.065 243.157C144.15 242.619 144.358 242.108 144.673 241.664C145.025 241.189 144.464 240.714 144.786 240.26C144.951 240.015 144.863 239.81 144.739 239.48C144.576 239.145 144.462 238.789 144.4 238.422C144.316 237.852 144.187 237.29 144.014 236.741C143.989 236.397 143.895 236.061 143.738 235.754C143.581 235.447 143.365 235.174 143.101 234.952C142.538 234.614 142.755 233.596 141.919 233.502C141.792 233.476 141.675 233.415 141.58 233.326C141.485 233.237 141.417 233.124 141.382 232.999C141.327 232.811 141.254 232.63 141.163 232.457C140.498 231.276 139.095 230.893 137.812 230.67C136.897 230.518 135.968 230.479 135.044 230.555C134.575 230.619 134.097 230.658 133.628 230.77C133.188 230.863 132.754 230.983 132.329 231.13C131.768 231.321 131.08 231.079 130.574 231.298C129.957 231.569 129.673 232.36 129.19 232.728C128.039 233.781 126.796 234.728 125.474 235.558C124.983 235.809 124.07 235.57 123.956 236.225C123.845 236.881 122.971 236.729 122.942 237.441C122.933 237.62 122.641 237.623 122.455 237.678C121.917 237.838 121.972 238.42 122.177 239.107C122.291 239.497 122.395 239.895 121.971 239.893C121.253 239.89 120.941 240.356 120.409 240.566C119.494 240.911 118.5 241.211 118.66 242.486C118.665 242.51 118.664 242.536 118.659 242.56C118.653 242.584 118.642 242.607 118.627 242.626C118.612 242.646 118.593 242.662 118.571 242.674C118.549 242.685 118.525 242.692 118.5 242.694C117.662 242.684 117.767 243.402 117.583 243.915C117.462 244.324 117.23 244.691 116.911 244.975C116.593 245.259 116.202 245.448 115.781 245.521C115.605 245.537 115.435 245.593 115.284 245.686C115.134 245.779 115.007 245.905 114.913 246.055C114.82 246.205 114.762 246.375 114.745 246.551C114.728 246.727 114.752 246.905 114.815 247.07C115.094 248.359 114.095 248.928 114.28 250.135C114.375 250.779 113.41 250.772 113.021 251.15C111.893 252.229 111.703 253.865 110.186 254.746C110.051 254.825 110.172 255.139 110.32 255.353C110.768 256.008 110.95 256.451 109.684 256.141C109.545 256.107 109.357 256.153 109.34 256.225C109.138 256.915 108.779 257.548 108.291 258.076C107.957 258.617 107.74 259.221 107.652 259.851C107.629 259.936 107.623 260.093 107.708 260.143C108.203 260.429 109.317 260.546 108.848 261.062C108.555 261.304 108.274 261.561 108.007 261.832C107.545 262.499 108.397 263.707 109.818 264.412C110.97 265.003 112.197 265.435 113.465 265.696C113.741 265.766 114.031 265.753 114.3 265.66C114.578 265.476 114.794 265.212 114.918 264.902C115.018 264.196 115.215 263.507 115.502 262.854C116.635 261.198 117.229 259.318 118.209 257.605C118.882 256.459 119.343 255.154 120.701 254.458C120.749 254.187 120.852 253.928 121.004 253.698C121.156 253.467 121.354 253.271 121.584 253.12C121.403 251.819 122.35 251.198 122.78 250.264C123.171 249.382 123.985 248.817 123.885 247.558C123.865 247.27 124.089 247.114 124.232 246.922C124.893 246.015 125.598 245.142 126.346 244.306C127.031 243.364 128.027 242.695 129.157 242.418C129.474 242.339 129.761 242.167 129.98 241.925C130.394 241.553 130.881 241.28 130.978 240.623C131.089 239.926 132.085 240.389 132.304 239.893C132.401 239.683 132.587 239.573 132.65 239.335C132.719 239.07 132.905 239.017 133.139 239.022C133.484 239.087 133.838 239.081 134.18 239.004C134.505 238.818 134.872 238.72 135.247 238.721C135.421 238.787 135.504 238.985 135.531 239.299C135.53 239.497 135.553 239.007 135.725 238.249C135.814 237.825 135.868 237.85 135.87 238.061C135.873 238.489 135.873 238.546 136.128 238.243C136.332 237.997 136.512 237.933 136.392 238.259C136.358 238.35 136.333 238.421 136.317 238.479C136.291 238.555 136.28 238.636 136.285 238.717C136.288 238.819 136.359 238.852 136.401 238.919L136.527 239.123C136.553 239.169 136.507 239.228 136.679 239.248C136.886 239.276 136.94 239.359 136.977 239.44C137.004 239.668 137.068 239.891 137.167 240.099C137.336 240.363 137.416 240.675 137.395 240.989C137.32 241.322 137.118 241.613 136.832 241.8C136.599 241.972 136.387 242.164 136.364 242.37C136.218 243.23 135.788 244.001 136.458 245.041C136.703 245.414 136.208 245.564 135.951 245.778C135.869 245.856 135.812 245.958 135.789 246.07C135.766 246.182 135.777 246.298 135.822 246.403C135.916 246.73 136.118 247.091 135.713 247.269C135.247 247.476 135.204 247.856 134.968 248.152C134.686 248.507 134.529 248.938 134.234 249.285C134.029 249.218 133.808 249.219 133.604 249.287C133.399 249.355 133.222 249.487 133.098 249.663C132.875 249.983 132.721 250.36 132.262 250.307C131.932 250.297 131.605 250.371 131.311 250.522C131.017 250.674 130.767 250.897 130.583 251.172C130.027 251.877 129.273 252.4 128.418 252.672C127.555 253.039 126.716 253.46 125.906 253.932C125.276 254.162 124.708 254.538 124.25 255.029C123.662 255.519 123.209 256.15 122.935 256.865C122.756 257.67 121.586 257.676 121.271 258.409C121.114 258.669 120.942 258.919 120.755 259.158C120.153 260.146 119.761 261.248 119.605 262.395C119.497 263.12 119.514 263.859 119.655 264.579C119.707 264.82 119.772 265.057 119.851 265.29C119.947 265.557 120.063 265.817 120.198 266.068C120.523 266.655 120.967 267.169 121.5 267.578C121.772 267.78 122.063 267.955 122.37 268.101C122.646 268.229 122.933 268.331 123.228 268.407C123.802 268.559 124.4 268.607 124.991 268.547C125.763 268.458 126.512 268.231 127.203 267.876C127.679 267.642 127.894 267.504 128.235 267.322L129.18 266.809C129.561 266.675 129.9 266.442 130.16 266.134C130.421 265.825 130.593 265.452 130.66 265.054C130.667 264.98 130.85 264.968 130.926 265.033C132.178 266.096 131.981 264.825 132.386 264.557C132.873 264.183 133.325 263.764 133.736 263.307C134.212 262.844 134.83 262.555 135.491 262.487C135.543 262.485 135.593 262.467 135.634 262.436C135.676 262.405 135.707 262.362 135.725 262.313C136.03 261.281 137.215 261.102 137.849 260.362C138.381 259.789 138.874 259.181 139.325 258.543C139.802 257.804 140.091 256.953 140.5 256.186C140.884 255.299 141.623 254.556 141.664 253.538C141.678 253.365 141.728 253.197 141.812 253.045C141.914 253.005 142.014 252.958 142.109 252.904C142.653 252.561 143.312 253.285 143.86 253.185C144.078 253.115 144.3 253.056 144.525 253.011C144.631 253.001 144.737 253.021 144.832 253.068C144.885 253.097 144.933 253.134 144.973 253.179C144.997 253.239 145.009 253.303 145.008 253.367C145.005 253.074 145.056 253.066 145.063 253.141C145.067 253.231 145.057 253.32 145.034 253.406C145.021 253.468 145.035 253.366 145.285 253.118C145.374 253.03 145.435 253.004 145.457 253.018C145.483 253.034 145.457 253.104 145.378 253.19C145.282 253.31 145.159 253.406 145.018 253.467C145.211 253.449 145.404 253.496 145.568 253.6C145.613 253.617 145.611 253.658 145.59 253.634L145.542 253.598C145.511 253.606 145.467 253.631 145.42 253.64C145.255 253.673 145.102 253.747 144.974 253.855C144.846 253.963 144.747 254.102 144.688 254.259C144.659 254.323 144.653 254.395 144.672 254.463L144.657 254.79C144.665 254.901 144.632 255.011 144.564 255.1C144.496 255.189 144.399 255.25 144.29 255.273C143.698 255.401 144.023 256.19 143.86 256.692C143.548 257.666 142.73 258.328 141.877 259.528C141.321 260.554 140.911 261.653 140.659 262.792C140.555 263.348 140.869 263.652 141.449 263.651C142.179 263.649 142.909 263.684 143.636 263.755C144.09 263.827 144.554 263.79 144.991 263.648C145.405 263.473 146.033 263.449 146.182 263.24C146.619 262.645 147.562 262.45 148.142 261.989C148.56 261.655 148.807 261.152 148.224 260.131C148.006 259.745 147.933 259.44 148.349 259.403C148.805 259.362 148.988 259.07 148.981 258.634L148.954 256.55C148.951 256.447 149.372 256.475 149.651 256.527C150.163 256.627 150.601 256.63 150.683 256.313C150.744 256.029 150.808 255.789 150.847 255.545C150.904 255.277 150.946 255.053 150.975 254.842C151.043 254.426 151.1 254.073 151.156 253.729C151.331 252.922 151.445 252.103 151.496 251.279C151.475 250.848 151.377 250.425 151.205 250.029ZM127.088 263.456L127.084 263.454L127.092 263.456L127.088 263.456Z" fill="#000638"/>
<path d="M147.151 250.129C146.791 248.983 146.237 247.908 145.513 246.95C145.111 246.466 144.63 246.054 144.09 245.731C143.248 245.226 142.344 244.831 141.401 244.557C140.465 244.279 139.553 243.929 138.671 243.51C138.323 243.371 137.95 243.303 137.576 243.309C137.201 243.315 136.831 243.396 136.488 243.546C135.549 243.858 134.561 243.994 133.572 243.948C132.611 243.967 131.768 244.52 130.779 244.594C130.643 244.612 130.508 244.64 130.376 244.677C130.288 244.467 130.215 244.253 130.11 244.051L129.99 243.808C129.196 242.311 127.754 240.956 126.187 240.957C126.069 240.95 125.834 240.721 125.837 240.618C125.864 240.467 125.86 240.312 125.825 240.163C125.791 240.013 125.727 239.872 125.636 239.748C125.546 239.624 125.431 239.52 125.3 239.441C125.168 239.362 125.021 239.311 124.869 239.291C124.321 239.172 123.708 239.298 123.225 239.178C122.622 239.038 122.005 238.969 121.386 238.975C120.789 238.978 120.192 239.015 119.598 239.086C118.547 239.243 117.481 239.261 116.425 239.14C116.403 239.02 116.381 238.9 116.355 238.775C116.27 238.12 115.968 237.512 115.498 237.049C115.237 236.816 115.17 236.307 114.966 235.859C114.722 235.331 114.327 234.888 113.83 234.585C113.334 234.283 112.759 234.135 112.179 234.159C111.873 234.208 111.56 234.186 111.265 234.093C110.97 234 110.7 233.839 110.478 233.624C109.583 232.643 108.127 232.462 106.819 232.315C106.242 232.242 105.66 232.228 105.081 232.274C104.786 232.299 104.493 232.341 104.203 232.4C103.874 232.475 103.661 232.527 103.442 232.597C103.038 232.7 102.659 232.885 102.33 233.14C102.001 233.396 101.728 233.717 101.528 234.083C101.497 234.147 101.447 234.202 101.385 234.239C101.324 234.276 101.253 234.295 101.181 234.294C100.164 234.144 99.7536 234.962 99.1686 235.537C98.7302 235.972 98.2298 236.339 97.6836 236.627C97.1191 236.94 96.4914 237.122 95.847 237.159C95.3408 237.182 94.8545 237.363 94.4572 237.678C94.0599 237.993 93.7716 238.424 93.6333 238.912C93.3665 239.646 92.9215 240.303 92.3383 240.823C91.7736 241.342 91.3262 241.975 91.0259 242.681C90.7384 243.507 89.6215 243.432 88.9266 243.877C86.9742 245.204 85.8088 247.333 83.6174 248.475C83.4178 248.574 83.3899 249.003 83.4494 249.301C83.6229 250.208 83.5945 250.809 82.3229 250.357C82.2478 250.334 82.168 250.332 82.0917 250.35C82.0155 250.369 81.9456 250.407 81.8894 250.462C81.3224 251.404 80.6263 252.262 79.8212 253.012C79.1949 253.763 78.6863 254.605 78.3129 255.509C78.2492 255.629 78.1737 255.85 78.2456 255.919C78.664 256.318 79.8358 256.474 79.0938 257.206C78.7203 257.599 78.2213 257.904 77.873 258.324C77.0797 259.277 77.5772 261.018 78.8347 261.99C79.8494 262.807 81.0236 263.404 82.2821 263.741C82.5833 263.831 82.9071 263.806 83.1908 263.671C83.5788 263.376 83.8997 263.002 84.132 262.573C84.5233 261.561 85.02 260.593 85.6137 259.685C87.5615 257.365 89.15 254.814 91.2026 252.598C92.5951 251.121 93.8892 249.467 95.8956 248.704C96.3585 248.012 97.0084 247.465 97.7696 247.128C98.3785 245.5 99.9143 244.863 101.066 243.825C101.615 243.359 102.19 242.924 102.788 242.523C103.398 242.083 103.908 241.521 104.287 240.872C104.467 240.539 104.854 240.396 105.159 240.21C105.512 240.001 105.841 239.812 106.137 239.664L106.541 239.474C106.618 239.44 106.71 239.401 106.797 239.372C107.157 239.238 107.55 239.23 107.915 239.349C108.285 239.462 108.596 239.714 108.783 240.052C108.826 240.137 108.859 240.227 108.88 240.32C108.915 240.434 108.936 240.552 108.942 240.671C108.95 240.923 108.891 241.173 108.77 241.395C108.706 241.541 108.677 241.699 108.683 241.858C107.604 242.439 106.593 243.163 105.539 243.834C104.361 244.593 102.973 245.139 102.03 246.251C101.132 247.297 99.6277 247.333 98.7479 248.408C98.3606 248.854 97.8667 249.252 97.4831 249.721C97.3231 249.912 97.2222 250.145 97.1926 250.392C97.163 250.639 97.2061 250.89 97.3164 251.113C97.4886 251.51 97.4767 251.833 97.2025 251.934C96.527 252.139 95.9314 252.548 95.4972 253.104C95.063 253.661 94.8114 254.338 94.7768 255.043C94.7408 255.186 94.6689 255.318 94.5678 255.425C94.4667 255.533 94.3397 255.612 94.1991 255.657C93.7983 255.711 93.4272 255.897 93.1447 256.187C92.8621 256.476 92.6845 256.852 92.6399 257.253C92.4522 258.125 92.3204 259.008 92.0659 259.846L91.9638 260.158L91.8407 260.574C91.7596 260.862 91.6795 261.154 91.6054 261.469C91.4152 262.214 91.3153 262.979 91.3078 263.748C91.3751 264.865 91.8661 265.914 92.6807 266.681C93.5829 267.539 94.6826 268.161 95.8827 268.493C96.4165 268.66 96.9803 268.707 97.5343 268.631C97.9504 268.57 98.3538 268.442 98.7291 268.252C99.3864 267.918 99.8076 267.521 100.254 267.279C100.544 267.117 100.814 266.922 101.059 266.698C101.28 266.503 101.511 266.321 101.753 266.153C102.406 265.807 102.945 265.28 103.307 264.636C103.606 263.929 104.63 264.032 104.766 263.141C104.806 263.003 104.881 262.877 104.984 262.776C105.087 262.675 105.214 262.603 105.354 262.566C107.035 262.168 108.009 260.811 109.081 259.657C110.38 258.272 111.532 256.756 112.519 255.134C112.908 254.492 113.661 254.117 114.009 253.496C114.416 252.725 114.278 251.716 114.543 250.897C114.814 250.036 115.051 249.198 115.278 248.343C115.464 248.305 115.67 248.292 115.876 248.263C116.336 248.132 116.756 247.884 117.093 247.544C117.895 246.91 118.748 246.37 119.664 246.83C119.904 246.955 120.176 247.007 120.445 246.979C120.753 246.949 121.063 246.952 121.37 246.99C121.645 247.025 121.917 247.077 122.184 247.148C122.588 247.278 123.003 247.374 123.424 247.435C123.458 247.441 123.491 247.455 123.519 247.476C123.547 247.497 123.57 247.524 123.586 247.555C123.602 247.631 123.638 247.701 123.692 247.758C123.819 247.862 123.811 248.032 123.691 248.202C123.269 248.245 122.862 248.329 122.689 248.859C122.628 249.05 122.225 249.056 121.958 249.053C121.677 249.02 121.392 249.082 121.151 249.231C120.91 249.379 120.726 249.605 120.628 249.871C120.558 250.14 120.401 250.379 120.181 250.55C119.961 250.721 119.691 250.815 119.413 250.817C119.058 250.822 118.71 250.915 118.399 251.087C118.088 251.258 117.825 251.503 117.631 251.801C117.331 252.283 117.122 252.793 116.503 252.969C115.538 253.356 114.751 254.088 114.295 255.023C113.904 255.661 113.535 256.29 113.162 256.992C112.716 257.763 112.326 258.566 111.995 259.393C111.583 260.553 111.641 261.828 112.156 262.946C112.304 263.28 112.488 263.597 112.705 263.892C112.982 264.252 113.31 264.571 113.678 264.837C114.44 265.362 115.329 265.671 116.251 265.733C117.143 265.796 118.037 265.671 118.877 265.366C119.489 265.153 120.067 264.853 120.594 264.476C121.664 263.845 122.577 262.979 123.263 261.943C123.821 260.884 125.212 260.715 125.848 259.726C126.079 259.367 126.401 259.069 126.662 258.721C128.058 256.913 129.224 254.939 130.131 252.844C130.31 252.398 130.471 251.922 130.615 251.428C131.424 250.953 132.424 251.423 133.225 251.149C133.906 250.915 134.603 250.476 135.361 250.942C135.995 250.215 136.857 250.678 137.542 250.725C138.152 250.776 138.765 250.694 139.34 250.484C139.543 250.407 139.766 250.394 139.976 250.449C140.187 250.503 140.375 250.622 140.516 250.788C140.949 251.304 141.055 251.588 141.26 251.761C141.586 251.983 141.882 252.244 142.145 252.538C142.269 252.672 142.219 252.886 142.054 253.052C141.741 253.414 141.544 253.862 141.492 254.338C141.395 254.704 141.814 255.36 141.27 255.583C140.739 255.735 141.095 256.53 140.899 257.068C140.526 258.09 139.534 258.748 138.345 259.543C137.671 260.143 136.74 260.87 135.739 261.636C135.322 261.954 135.331 262.391 135.74 262.8C136.259 263.317 136.79 263.817 137.298 264.348C137.618 264.734 138.078 264.977 138.577 265.024C139.152 265.051 139.854 265.256 140.285 265.017C141.442 264.369 142.883 264.14 144.07 263.323C144.542 263.062 144.911 262.649 145.117 262.151C145.323 261.653 145.354 261.099 145.204 260.581C145.07 260.103 145.057 259.705 145.579 259.503C145.847 259.386 146.073 259.192 146.229 258.945C146.385 258.697 146.463 258.409 146.452 258.117C146.475 257.139 146.414 256.161 146.268 255.193C146.242 255.05 146.679 254.857 146.963 254.774C147.487 254.63 147.943 254.396 147.913 253.891C147.848 252.606 147.592 251.338 147.151 250.129ZM102.238 256.347L102.23 256.369L102.238 256.347Z" fill="#80829B"/>
</svg>
