<svg width="200" height="200" viewBox="0 0 200 200" fill="none" xmlns="http://www.w3.org/2000/svg">
<g clip-path="url(#clip0_2567_53283)">
<path d="M141.467 130.665C141.314 129.593 141.084 128.598 141.007 127.449C140.471 126.989 140.012 126.453 139.629 125.841C139.169 125.151 138.633 124.462 138.021 123.926C137.868 123.849 137.638 123.696 137.485 123.62C136.719 123.237 135.8 123.084 134.957 123.084C134.115 123.084 133.349 123.237 132.583 123.543C131.435 124.003 130.362 124.615 129.443 125.381C128.601 125.994 127.912 126.607 127.299 127.143C126.763 127.602 126.227 127.985 125.614 128.368C125.384 128.521 125.384 128.827 125.231 128.981C125.155 129.21 125.002 129.134 124.925 128.904C124.848 128.674 124.925 128.598 124.848 128.674C124.772 128.751 124.695 128.827 124.542 128.827C124.159 128.904 123.623 128.521 123.393 127.908C123.164 127.219 123.087 126.453 123.164 125.764C123.24 124.845 123.087 123.926 122.781 123.084C122.321 122.012 121.479 121.093 120.407 120.633C119.028 119.944 117.496 119.714 115.965 120.02C114.893 120.25 113.974 121.016 113.744 122.088C113.667 122.471 113.744 122.931 113.974 123.237C113.82 123.16 113.744 123.16 113.591 123.084C113.131 122.931 112.365 123.543 112.442 123.926C112.672 124.692 112.748 125.534 112.748 126.377C112.518 127.296 112.748 128.291 113.284 129.057C112.825 129.823 112.748 130.819 113.131 131.661C113.208 131.814 113.361 132.044 113.284 132.197C112.748 132.963 112.289 133.576 111.829 134.265C111.37 134.954 110.757 135.797 110.068 136.869C109.685 137.481 109.379 138.171 109.072 138.86C108.766 139.702 108.689 140.621 108.766 141.54C108.919 142.459 109.225 143.378 109.761 144.144C110.298 144.833 110.91 145.446 111.599 145.906C112.289 146.365 113.055 146.671 113.82 146.825C114.586 146.978 115.352 147.054 116.118 147.054C117.496 146.978 118.798 146.671 120.1 146.212L120.943 145.906L121.402 145.752C121.555 145.676 121.862 145.523 122.015 145.446C122.857 145.063 123.623 144.374 124.083 143.531C124.389 142.995 124.542 142.383 124.619 141.77C125.691 142.536 126.916 143.149 128.218 143.455C130.056 143.838 131.894 144.068 133.732 144.221C134.574 144.221 135.417 143.991 136.183 143.531C136.949 143.072 137.331 142.306 137.944 141.77C138.48 141.234 139.552 140.851 139.782 140.315C140.165 139.243 140.625 138.247 140.931 137.252C141.314 136.256 141.544 135.184 141.697 134.112C141.697 132.81 141.62 131.738 141.467 130.665ZM136.566 131.048C136.489 131.661 136.259 132.197 136.336 132.81C136.336 133.805 136.106 134.801 135.647 135.643C135.111 136.639 134.192 137.481 133.119 137.864C131.971 138.324 130.669 138.4 129.52 138.017C128.984 137.864 128.448 137.635 127.988 137.328L127.835 137.175L127.529 136.945C127.299 136.792 127.069 136.562 126.763 136.409C126.457 136.179 126.074 136.026 125.691 135.873C125.155 135.643 124.619 135.49 124.006 135.414C122.168 135.26 120.483 136.256 119.717 137.864C119.488 138.477 119.334 139.09 119.258 139.702C119.258 139.932 119.258 140.085 119.258 140.315V140.545C119.258 140.545 119.258 140.545 119.181 140.545C118.951 140.621 118.645 140.774 118.415 140.928C117.956 141.157 117.573 141.54 117.19 142C116.731 142 116.271 141.617 115.888 141.923C115.275 142.459 114.586 142.459 114.28 141.77C114.203 141.54 114.127 141.234 113.974 141.004C113.897 140.851 113.744 140.928 113.437 140.851C113.208 140.774 113.208 140.621 113.437 140.545C113.897 140.238 114.356 139.855 114.663 139.319C115.122 138.707 115.582 137.941 116.118 137.098C116.424 136.639 116.654 136.179 116.884 135.643C117.113 135.184 117.267 134.724 117.42 134.265C117.65 133.422 117.803 132.58 117.879 131.661C117.956 130.895 117.803 130.129 117.496 129.364C116.884 128.062 116.424 126.76 116.194 125.381C116.041 124.769 115.735 124.232 115.199 123.85C115.275 123.85 115.429 123.85 115.505 123.85C115.658 123.85 115.888 123.849 116.041 123.926H116.194C116.271 124.003 116.348 124.079 116.424 124.156C116.501 124.232 116.501 124.309 116.577 124.386C116.577 124.462 116.654 124.462 116.654 124.539V124.615C116.731 124.615 116.731 124.692 116.731 124.769C116.731 124.845 116.807 124.922 116.807 124.998C116.731 125.075 116.654 125.151 116.731 125.151H116.807V125.228V125.151C116.96 125.151 117.037 125.151 117.19 125.151C117.726 125.305 118.109 125.688 118.262 126.224C118.415 126.913 118.415 127.602 118.339 128.291C118.262 129.057 118.492 129.9 119.028 130.512C119.641 131.125 120.253 131.738 120.943 132.427C121.708 133.193 122.551 133.805 123.546 134.341C124.389 134.801 125.384 134.954 126.38 134.724C127.222 134.571 127.912 134.112 128.524 133.576C129.29 132.657 130.133 131.814 131.052 130.972L132.736 129.67C133.196 129.287 133.732 128.981 134.268 128.751C134.651 128.598 134.957 128.751 135.034 128.981C135.111 129.21 135.111 129.134 135.264 129.057C135.57 128.827 136.106 129.134 136.412 129.593C136.566 129.9 136.642 130.436 136.566 131.048Z" fill="#000638"/>
<path d="M168.732 95.2077C168.655 94.5184 168.885 93.3697 168.579 92.8336C167.89 91.838 167.2 90.919 166.358 90C165.592 89.1576 164.673 88.4683 163.601 88.0088C162.529 87.5493 161.457 87.243 160.308 87.243C159.159 87.1664 157.934 87.1664 156.785 87.243C156.249 87.7025 155.636 88.162 154.947 88.5449C154.334 88.9278 153.722 89.2342 153.109 89.6171C151.577 91.3785 150.812 93.676 150.888 95.9735C150.965 96.8925 151.118 97.7349 151.271 98.6539C151.348 98.8837 151.348 99.1134 151.348 99.2666C151.348 99.3432 151.348 99.3432 151.348 99.3432C151.348 99.4197 151.424 99.4197 151.424 99.4963C151.424 99.5729 151.424 99.7261 151.424 99.8027C151.348 99.9558 151.194 99.9558 151.041 99.7261C150.888 99.4963 150.812 99.4963 150.735 99.4963C150.658 99.4963 150.429 99.5729 150.199 99.6495C149.663 99.7261 149.05 99.5729 148.667 99.1134C148.284 98.6539 148.055 98.0412 147.978 97.352C147.901 96.5096 147.672 95.7437 147.289 95.0545C146.753 94.0589 145.834 93.2931 144.761 92.9867C144.532 92.9102 144.379 92.8336 144.149 92.757C143.919 92.6804 143.766 92.6038 143.536 92.6038C143.153 92.5272 142.77 92.4507 142.387 92.4507C141.622 92.4507 140.932 92.5272 140.243 92.8336C139.171 93.2165 138.405 94.2121 138.328 95.3608C138.328 95.7437 138.482 96.1267 138.711 96.3564C138.941 96.5862 139.171 96.7393 139.477 96.7393C139.86 96.8159 140.166 96.7393 140.473 96.6627C140.626 96.6627 140.779 96.5862 140.932 96.5862C140.932 96.5862 140.932 96.5862 141.009 96.5862C141.009 96.5862 141.085 96.5862 141.085 96.6627C141.162 96.6627 141.162 96.7393 141.239 96.7393C141.392 96.8925 141.545 97.0457 141.622 97.1988C141.698 97.352 141.698 97.2754 141.698 97.352L141.775 97.4286C141.545 97.8115 141.315 98.1178 141.622 97.7349H141.698C141.775 97.7349 141.851 97.7349 141.928 97.7349V97.6583C142.004 97.6583 142.081 97.6583 142.158 97.6583C142.694 97.7349 143.23 98.1178 143.383 98.7305C143.536 99.1134 143.689 99.5729 143.766 99.9558C142.694 99.4197 141.698 98.6539 140.779 97.8881C139.554 96.8159 138.405 97.2754 137.333 97.5817C136.873 97.8881 136.644 98.4242 136.873 98.9602C137.486 99.4963 138.099 100.032 138.482 100.722C138.864 101.564 139.63 102.253 140.473 102.56C140.626 103.479 141.239 104.321 142.081 104.704C142.234 104.781 142.541 104.857 142.541 105.01C142.694 106.006 142.847 106.772 143 107.538C143.077 107.691 143.077 107.921 143.077 108.15C143.153 108.303 143.153 108.533 143.153 108.763C143.23 109.222 143.23 109.605 143.23 110.065C143.23 110.601 143.23 111.137 143.306 111.75C143.383 112.516 143.613 113.205 143.996 113.894L144.302 114.43C144.455 114.583 144.532 114.736 144.685 114.89C144.915 115.196 145.221 115.426 145.527 115.655C146.063 116.115 146.753 116.421 147.442 116.651C148.744 117.111 150.122 117.111 151.501 116.728C153.032 116.268 154.258 115.273 154.947 113.894C155.33 113.128 155.56 112.286 155.713 111.52C155.789 111.214 155.866 110.907 155.943 110.678C156.019 110.524 156.019 110.371 156.096 110.218C156.172 110.065 156.326 109.912 156.479 109.835C156.938 109.605 157.398 109.452 157.934 109.376C160.921 108.533 163.601 106.772 165.516 104.244C166.588 102.789 167.43 101.411 168.579 99.9558C169.038 99.2666 169.192 98.5007 169.192 97.6583C169.115 96.7393 168.962 95.9735 168.732 95.2077ZM141.162 96.5862H141.085H141.162ZM151.96 106.619C151.731 106.848 151.577 107.155 151.424 107.461C151.271 107.691 151.194 107.997 151.041 108.303C150.888 108.763 150.812 109.146 150.735 109.605C150.658 110.218 150.735 110.754 150.965 111.29C150.888 111.443 150.735 111.52 150.505 111.597C150.352 111.597 150.352 111.596 150.429 111.673C150.582 111.826 150.582 112.056 150.429 112.209C150.199 112.286 149.893 112.286 149.739 112.056C149.586 111.826 149.356 111.673 149.05 111.597C148.82 111.52 148.591 111.596 148.437 111.673C148.284 111.75 148.131 111.673 148.284 111.52C148.591 111.367 148.667 110.754 148.744 109.758C148.744 109.146 148.744 108.61 148.667 108.074C148.591 107.538 148.437 107.002 148.284 106.465C148.055 105.623 147.748 104.781 147.289 104.015C147.442 104.091 147.595 104.168 147.748 104.244C148.131 104.398 148.514 104.627 148.897 104.781C149.127 104.857 149.356 105.01 149.51 105.087C149.739 105.163 150.046 105.317 150.275 105.393C151.118 105.7 152.037 105.7 152.879 105.47C153.109 105.393 153.262 105.317 153.492 105.24C152.956 105.546 152.343 106.083 151.96 106.619ZM162.988 97.1988C162.682 98.5773 162.146 99.8027 161.303 100.875C160.461 101.947 159.389 102.866 158.087 103.479C157.781 103.632 157.474 103.785 157.168 103.862C156.862 103.938 156.479 104.091 156.019 104.168C155.407 104.321 154.717 104.551 154.181 104.857C154.181 104.857 154.258 104.857 154.258 104.781C154.641 104.474 155.024 104.168 155.33 103.785C155.943 102.943 156.326 102.024 156.555 101.028C156.632 100.645 156.632 100.262 156.708 99.9558C156.708 99.5729 156.708 99.19 156.708 98.8837C156.632 98.0412 156.555 97.2754 156.326 96.433C156.249 96.2032 156.249 95.8969 156.249 95.6672C156.249 95.4374 156.249 95.2077 156.326 94.9779C156.479 94.595 156.708 94.2887 157.091 94.0589C157.398 93.9057 157.398 93.7526 157.474 93.5228C157.551 92.9867 157.857 92.4506 158.317 92.1443C158.776 91.9146 159.236 91.838 159.695 92.0677C160.155 92.2209 160.461 92.6038 160.921 92.757C161.686 92.9867 162.299 93.4462 162.682 94.1355C163.218 95.0545 163.295 96.1267 162.988 97.1988Z" fill="#000638"/>
<path d="M153.337 50.7124C153.26 49.87 153.031 48.8744 152.877 47.9554C152.724 47.2662 152.648 47.0364 152.341 47.3428C152.188 47.4193 152.112 47.5725 151.958 47.2662C151.499 46.5003 151.193 46.5003 150.81 47.2662C150.427 48.1852 149.891 48.1086 149.508 47.1896C149.355 46.8067 149.125 46.7301 148.972 47.0364C148.512 47.6491 148.129 47.8788 147.823 46.9598C147.593 46.3472 147.287 46.3472 146.827 46.8067C146.444 47.2662 145.985 47.5725 145.602 47.4193C145.142 47.2662 144.606 47.113 144.147 46.8833C143.917 46.7301 143.764 46.4238 143.764 46.194C143.687 45.8877 143.611 45.9643 143.381 46.0408C142.462 46.5003 142.079 46.4238 141.773 45.5048C141.62 45.1218 141.62 44.6623 141.39 44.5092C140.93 44.2794 140.547 44.0497 140.088 43.7433C138.02 42.518 136.106 40.9098 134.497 39.0718C134.344 38.9186 134.191 38.7654 133.961 38.6888C133.655 38.6123 133.272 38.6123 132.966 38.7654C132.966 38.4591 133.349 37.9996 132.966 38.0762C132.276 38.1528 131.893 37.9996 132.276 37.3869C132.736 36.6211 132.43 36.3913 131.664 36.3913C131.357 36.3913 131.281 36.3148 131.434 36.085C131.893 35.5489 131.817 34.7831 131.357 34.3236C131.281 34.0938 131.204 33.9407 131.128 33.7109C131.051 33.5578 130.974 33.328 130.898 33.1748C130.745 32.9451 130.515 32.7919 130.285 32.7919C129.366 32.6388 129.366 32.2558 129.29 31.8729C129.213 31.4134 127.911 31.4134 126.686 31.2603C126.073 31.2603 125.46 31.3368 124.924 31.6432C124.771 32.0261 124.924 32.409 124.541 32.7153C123.929 33.2514 124.235 33.6343 124.771 33.9407C124.235 34.4768 124.082 35.0128 124.924 35.2426C125.078 35.2426 125.307 35.3192 125.231 35.3958C124.388 36.6211 124.924 37.4635 125.307 38.3059C126.992 41.8288 129.443 44.8921 132.583 47.2662C133.195 47.7257 133.502 48.4149 133.502 49.1808C133.502 49.4871 133.731 49.7934 134.038 49.7934C134.344 49.87 134.88 49.4871 135.11 49.5637C135.34 49.6403 135.263 50.4061 135.569 50.2529C136.642 49.87 137.101 50.4061 137.79 50.789C138.097 50.9422 138.48 51.0953 138.786 51.2485C139.169 51.5548 139.399 51.9378 139.399 52.3973C140.088 51.9378 140.241 52.5504 140.471 53.2397C142.003 53.8523 143.534 54.3118 145.142 54.6182C145.296 54.6182 145.525 54.3118 145.755 54.1587C145.985 54.0055 146.061 54.1587 146.215 54.465C146.444 55.0777 146.827 54.8479 147.287 54.465C148.206 53.6992 148.818 53.6992 149.508 54.465C150.12 55.2308 150.81 55.6138 151.422 54.6182C151.729 54.0821 152.112 54.0821 152.494 53.8523C153.337 53.3928 153.49 52.0909 153.337 50.7124Z" fill="#000638"/>
<path d="M155.866 36.6215C155.406 35.6259 155.1 34.5538 155.023 33.4816C154.947 32.4094 154.64 31.3373 154.181 30.3417C153.875 29.6524 153.109 29.1929 152.343 29.1929C151.347 29.4227 150.352 28.9632 149.816 28.1208C148.897 26.972 147.748 26.053 146.293 25.5169C144.914 25.0574 143.383 24.9043 141.928 25.0574C139.86 25.3638 137.945 25.7467 135.954 25.9764C134.346 26.2062 132.738 26.5125 131.206 26.8954C130.44 27.1252 129.674 27.2784 128.908 27.5081L126.687 28.2739C125.615 28.7334 124.543 29.3461 123.548 30.1119C119.718 30.1119 116.425 32.4094 113.285 34.324C112.749 34.6304 112.213 34.8601 111.601 35.0133C109.533 35.5494 107.542 36.5449 105.78 37.8469C103.023 39.838 100.343 41.9058 97.8155 43.9735L92.6078 48.2622C90.7698 49.7939 89.085 51.4021 87.4002 53.087C86.2514 54.1591 85.0261 55.0781 83.6476 55.9205C82.0393 56.9927 80.814 58.4478 80.0482 60.2858C79.6652 61.2048 78.7462 61.7409 78.2867 62.5067C77.5975 63.8852 77.138 65.4169 76.7551 66.872C76.5253 67.791 76.0658 68.6334 75.4532 69.3226C74.7639 70.0119 74.2278 70.8543 73.8449 71.7733C73.6152 72.2328 73.3854 72.6157 73.2322 73.1518C72.543 74.8366 72.1601 76.6746 72.1601 78.5126V78.819C72.0069 78.819 71.7772 78.819 71.5474 78.819C69.0967 79.0487 66.6461 78.8956 64.1954 79.8146C62.1276 80.5804 59.8302 81.1165 58.1453 82.4184C56.0776 84.1032 53.6269 84.7925 51.8655 86.6305C50.7933 87.7792 49.7977 89.0046 48.8787 90.3065C47.73 91.8382 45.892 92.2976 44.8964 94.2888C44.4369 95.1312 43.6711 96.0502 43.5179 97.0458C43.2881 98.1946 43.0584 99.3433 42.8286 100.492C42.5223 101.794 42.4457 103.096 42.3691 104.398C42.4457 105.776 42.9818 107.155 43.9774 108.15C44.973 109.223 46.0451 110.142 47.2705 110.907C48.1129 111.443 49.4148 111.443 50.4104 111.52C52.0186 111.673 53.7035 111.597 55.3117 111.367C56.0776 111.29 56.7668 111.137 57.4561 111.137C57.839 111.061 58.1453 111.061 58.4517 111.061C58.758 111.061 59.0643 111.061 59.3707 111.061C59.6004 111.061 59.7536 111.061 59.9833 111.061C59.3707 112.745 59.0643 114.507 58.9877 116.268C58.9877 117.264 59.3707 118.183 60.1365 118.796C60.6726 119.332 60.9789 119.561 60.9789 119.868C61.0555 120.174 60.8257 120.557 60.5194 121.323C60.3662 121.553 60.2896 121.782 60.2131 122.012C60.0599 122.625 60.0599 123.237 60.2131 123.85C60.4428 124.616 60.9789 125.305 61.6682 125.765C63.1998 126.837 64.9612 127.679 66.7227 128.292C68.4075 128.751 70.1689 129.134 71.9303 129.441C72.543 129.594 73.2322 129.287 73.5386 128.751C73.5386 129.058 73.462 129.441 73.3854 129.747C73.0025 130.896 72.3898 131.891 72.3898 133.27C72.4664 135.184 73.2322 137.099 74.381 138.631C74.9171 139.32 75.6063 139.856 76.2956 140.315C76.6785 140.545 77.0614 140.698 77.3677 140.928C77.7507 141.081 78.057 141.311 78.4399 141.464C78.976 141.771 79.5121 141.924 80.0482 142C80.4311 142 80.814 142 81.1969 141.924C81.5032 141.847 81.8096 141.694 82.1159 141.617C82.4222 141.464 82.7286 141.311 83.0349 141.081C83.3413 141.005 83.571 140.928 83.8773 140.928C84.1837 140.928 84.49 140.928 84.8729 140.928C85.2558 141.005 85.6388 141.081 86.0983 141.081C86.4812 141.081 86.9407 141.081 87.3236 141.005C87.5533 141.005 87.7065 140.928 87.9362 140.928C88.166 140.852 88.3192 140.775 88.5489 140.698C88.9318 140.545 89.3148 140.315 89.6977 140.009C90.1572 139.55 90.6933 139.243 91.2293 139.014C91.7654 138.86 92.2249 138.631 92.761 138.401L93.5268 138.095C93.7566 137.941 93.9863 137.865 94.2927 137.712C94.7522 137.482 95.2883 137.176 95.7478 136.869C96.2073 136.563 96.6668 136.18 97.1263 135.874C97.356 135.644 97.5858 135.414 97.8155 135.184C98.0453 134.955 98.1984 134.648 98.4282 134.419C98.8111 133.882 99.194 133.27 99.5003 132.734C99.5769 131.891 99.8067 131.049 100.113 130.206C100.343 129.441 100.649 128.675 101.032 127.909C101.415 127.22 101.798 126.454 102.181 125.765C102.64 125.075 103.176 124.386 103.636 123.697C104.095 122.931 104.402 122.012 104.402 121.093C104.478 119.332 105.321 118.336 106.393 117.34C106.776 116.958 107.082 116.421 107.159 115.809C107.159 115.196 107.159 114.583 107.235 113.971C107.235 113.664 107.312 113.358 107.388 113.052C107.465 112.592 107.542 112.209 107.542 111.75C107.771 109.912 107.388 107.997 106.469 106.389C106.393 106.236 106.24 106.083 106.163 105.853C106.469 105.929 106.776 105.929 107.082 106.006C107.312 106.006 107.542 106.083 107.771 106.083C108.001 106.083 108.231 106.083 108.461 106.083C108.92 106.083 109.38 106.083 109.839 106.083C110.299 106.006 110.682 106.006 111.064 105.929C111.447 105.853 111.754 105.853 111.983 105.776C112.137 105.7 112.366 105.7 112.52 105.623C113.056 105.317 113.592 105.01 114.051 104.628C114.511 104.321 115.047 103.785 115.506 103.709C118.263 103.249 120.637 101.488 122.705 99.7262C124.696 97.8882 126.917 96.2034 129.291 94.9015C129.827 94.5952 130.287 94.1357 130.517 93.5996C130.976 92.7572 131.589 92.0679 132.355 91.5318C133.12 91.0723 133.657 90.3831 134.116 89.6172C134.805 87.9324 136.643 87.0134 137.103 85.3286C137.256 84.7925 137.792 84.4861 138.328 84.5627C139.171 84.5627 139.936 84.2564 140.472 83.5671C142.847 81.1165 144.685 78.2063 145.757 74.9898C146.216 73.4581 147.365 72.4626 147.748 71.0075C148.131 69.4758 149.816 68.6334 149.969 67.1783C150.122 65.2637 151.5 63.9618 151.96 62.2004C152.266 61.1282 153.185 60.1326 153.568 58.9839C153.798 58.2946 153.875 57.5288 154.104 56.763C154.257 55.9971 154.487 55.3079 154.87 54.6186C154.794 54.006 154.87 53.3933 155.1 52.8572C155.253 52.2445 155.559 51.7085 155.789 51.1724C155.942 50.7895 156.095 50.33 156.095 49.947C156.095 49.4875 156.095 48.9515 156.172 48.492C156.172 47.8793 156.172 47.2666 156.325 46.7305C156.632 45.9647 156.861 45.1989 157.091 44.433C157.244 43.6672 157.321 42.8248 157.397 42.0589C157.244 39.9912 156.785 38.2298 155.866 36.6215ZM100.573 115.043C99.8833 115.962 99.4238 117.034 99.1174 118.106C98.8111 119.178 98.275 120.251 97.5858 121.093C97.0497 121.706 96.5902 122.395 96.2073 123.084C95.9775 123.467 95.8243 123.85 95.6712 124.156C95.4414 124.539 95.2883 124.846 95.0585 125.229C94.7522 125.918 94.599 126.684 94.4458 127.449C94.2927 128.215 93.8332 128.981 93.1439 129.364C93.0673 129.824 92.9907 130.283 92.8376 130.666C92.6844 131.049 92.4547 131.432 92.2249 131.815C91.6888 132.504 91.0762 133.193 90.3869 133.653C90.0806 133.806 89.7743 134.036 89.5445 134.265L89.1616 134.572L88.7021 134.801C88.3957 134.955 88.0894 135.108 87.7831 135.184C87.4767 135.261 87.0938 135.261 86.7875 135.261C86.4812 135.261 86.1748 135.261 85.8685 135.338C85.7153 135.414 85.5622 135.491 85.4856 135.567C85.3324 135.644 85.1792 135.644 85.0261 135.72C84.7197 135.874 84.4134 136.027 84.1071 136.103C83.8007 136.18 83.4178 136.18 83.1115 136.103C82.8052 136.027 82.4222 135.874 82.1159 135.874C81.9627 135.874 81.733 135.797 81.6564 135.797L81.2735 135.72C81.1203 135.72 81.0437 135.644 80.9672 135.567C80.8906 135.491 80.7374 135.414 80.6608 135.338C80.5077 135.184 80.3545 134.955 80.2779 134.725C80.1247 134.112 79.895 133.423 79.6652 132.887C79.3589 132.198 78.976 131.508 78.5165 130.666C77.9804 129.824 77.9038 128.751 78.2867 127.756C78.5931 126.913 78.7462 126.071 78.7462 125.152C78.7462 124.922 78.7462 124.769 78.8228 124.539C79.6652 124.233 80.2013 123.467 80.2013 122.625C80.2013 122.318 80.3545 122.089 80.5842 121.935C81.6564 121.476 82.7286 121.016 83.8773 120.71C85.0261 120.404 86.0217 119.791 86.7109 118.872C87.0173 118.566 87.247 118.259 87.4767 117.953C88.0128 117.111 88.9318 116.268 89.6211 115.426C90.3103 114.66 90.6167 113.588 90.3103 112.592C90.004 111.903 89.5445 111.214 89.085 110.601C88.8552 110.218 88.7021 109.835 88.3958 109.452C88.0894 109.069 87.5533 108.916 87.0938 109.069C86.6343 109.146 86.1748 109.223 85.7153 109.223C85.3324 109.299 84.8729 109.223 84.49 109.069C83.1881 108.533 81.5798 109.069 80.5077 110.601C80.1247 111.137 79.7418 111.597 79.2823 112.056C77.6741 113.435 76.4487 115.196 75.5297 117.111C75.1468 117.953 74.7639 118.872 74.4576 119.791C74.1512 120.021 73.8449 120.327 73.5386 120.557C72.3132 121.782 70.8582 122.625 69.2499 123.237C68.6372 123.391 68.0246 123.314 67.5651 122.931C66.7227 122.318 66.11 121.476 65.8802 120.48C65.7271 119.715 65.5739 119.025 65.4207 118.413C65.2676 117.723 65.0378 117.111 64.7315 116.421C64.5783 115.732 64.7315 115.043 65.191 114.507C65.6505 113.664 65.9568 112.745 66.1866 111.75C66.2632 111.443 66.3397 111.137 66.4163 110.831C66.6461 110.601 66.8758 110.371 67.1822 110.142C67.7948 109.529 68.5607 108.763 69.3265 108.84C70.4752 108.84 71.624 108.457 72.543 107.844C73.0791 107.538 73.6152 107.231 74.0747 106.925C74.6107 106.619 75.2234 106.312 75.8361 106.006C76.2956 105.47 76.6019 104.857 76.9082 104.245C77.2146 103.632 77.2912 102.866 77.2146 102.177C77.138 101.717 77.0614 101.258 76.9848 100.798C76.8317 100.186 76.6019 99.5731 76.1424 99.037C75.6829 98.5009 75.0702 98.118 74.3044 97.9648C73.8449 97.8117 73.3088 97.7351 72.8493 97.6585C72.0835 97.5819 71.3177 97.6585 70.6284 97.8882C69.9392 98.118 69.3265 98.5775 68.7904 99.1136C68.4075 99.7262 67.7948 100.109 67.1056 100.262C65.8037 100.186 64.5783 101.028 64.1954 102.253C64.0422 102.713 63.8125 103.172 63.6593 103.632C63.2764 103.785 62.9701 103.862 62.5872 103.938C61.515 104.168 60.596 104.781 60.0599 105.7C59.8302 106.083 59.3707 106.236 59.0643 106.006C58.9877 105.929 58.8346 105.853 58.758 105.776C58.6048 105.623 58.3751 105.47 58.1453 105.317C57.9156 105.24 57.6858 105.164 57.4561 105.087C56.9966 105.01 56.4605 105.01 56.001 105.01C55.3117 105.01 54.6225 105.393 54.2396 105.929C53.8566 106.466 53.3971 107.002 52.4781 106.542C51.5591 106.083 50.6401 105.776 49.9509 105.393C49.3382 105.01 48.9553 104.474 49.1851 103.785C49.1851 103.785 49.1085 103.709 48.8787 103.709C48.649 103.632 48.4192 103.632 48.2661 103.555C47.6534 103.402 47.1939 102.866 47.4236 102.33C48.1895 100.952 48.7256 99.4199 48.9553 97.8117C49.0319 97.2756 49.2616 96.8161 49.568 96.3566C49.9509 95.8971 50.3338 95.5907 50.8699 95.361C51.3294 95.1312 51.7889 94.8249 52.2484 94.5186C52.6313 94.2122 53.0908 93.8293 53.4737 93.523C53.8566 93.1401 54.3161 92.8337 54.7756 92.5274C55.2351 92.2211 55.6946 91.9913 56.1541 91.8382C56.7668 90.6128 57.839 89.6938 59.0643 89.1577C59.3707 89.0046 59.677 88.8514 59.9833 88.7748L60.9023 88.4685C61.515 88.2387 62.1277 88.009 62.7403 87.7792C63.4296 87.4729 64.1954 87.09 64.8081 86.6305C65.7271 86.0944 66.4929 85.252 67.4885 85.0222C69.2499 84.5627 70.705 83.4906 71.624 81.8823C71.8537 81.6526 72.0835 81.4228 72.3898 81.3462C72.3898 81.4228 72.3898 81.576 72.3898 81.6526C72.3898 82.2652 72.543 82.8013 72.6962 83.3374C72.8493 83.7969 73.0791 84.1798 73.3088 84.5627C73.5386 84.8691 73.7683 85.1754 74.0747 85.4051C74.381 85.6349 74.6873 85.8646 74.9937 86.0944C75.5297 86.4773 75.9127 86.9368 76.219 87.4729C76.6785 88.6217 77.3677 89.7704 78.1336 90.766C78.5165 91.2255 78.8994 91.685 79.2823 92.0679C79.5121 92.2977 79.6652 92.4508 79.895 92.6806C80.1247 92.8337 80.4311 93.1401 80.6608 93.2932C81.6564 94.0591 82.5754 95.2078 83.4944 96.1268C85.3324 97.9648 87.4002 99.5731 89.5445 100.952C90.3103 101.411 91.1528 101.641 91.9952 101.794C92.6078 101.794 93.1439 102.1 93.5268 102.483C94.8288 104.321 97.1263 105.47 98.0453 107.308C98.4282 108.074 99.0408 108.61 99.8833 108.916C100.573 109.146 100.649 109.605 100.496 110.065C100.419 110.142 100.419 110.218 100.419 110.295C100.343 110.371 100.343 110.448 100.343 110.524C100.343 110.601 100.266 110.678 100.266 110.754C100.266 110.831 100.266 110.831 100.266 110.907C100.266 110.984 100.266 111.137 100.19 111.214C100.036 112.056 100.266 112.822 100.726 113.511C100.879 113.741 100.955 113.971 100.955 114.277C100.802 114.583 100.726 114.813 100.573 115.043ZM150.581 43.8204C150.428 44.2799 150.199 44.7394 149.969 45.1989C149.433 46.1179 149.05 47.19 148.897 48.2622L148.361 50.7129C148.131 51.5553 147.978 52.3211 147.824 53.1635C147.671 54.006 147.442 54.7718 147.365 55.6142C147.212 56.4566 147.059 57.2225 146.829 58.0649C145.91 58.9073 145.144 59.9795 144.685 61.1282C144.148 62.277 143.459 63.3491 142.693 64.3447C142.081 64.9574 141.621 65.6466 141.315 66.4125C140.932 67.8676 139.86 68.8631 139.247 70.0885C138.864 70.8543 138.558 71.6201 138.175 72.386C137.792 73.1518 137.256 73.8411 136.643 74.3771C136.26 74.7601 136.031 75.2961 136.031 75.8322C135.877 76.6746 135.648 77.5171 135.188 78.2063C134.729 78.8956 134.116 79.5848 133.503 80.0443C132.584 80.657 132.125 81.7291 132.431 82.7247C132.508 83.2608 132.125 83.7969 131.589 83.9501C130.21 84.1798 129.138 85.1754 128.602 86.4007C127.606 88.7748 125.692 90.6128 123.318 91.6084C122.705 91.8382 122.092 92.2211 121.556 92.6806C121.02 93.1401 120.637 93.6762 120.254 94.2122C119.948 94.6717 119.489 94.9781 119.029 95.2078C116.349 96.4332 113.745 97.8117 111.218 98.1946C108.997 98.5009 107.771 99.6497 106.546 101.334C106.163 101.947 105.78 102.483 105.474 102.943C105.244 103.249 105.091 103.555 104.861 103.785C104.249 103.096 103.483 102.56 102.717 102.024C101.415 101.105 100.036 100.492 98.5048 100.186C96.9731 98.0414 94.599 97.7351 92.6078 96.7395C92.0718 96.5097 91.6123 96.2034 91.1528 95.8971C89.5445 94.7483 88.0128 93.523 86.6343 92.0679C85.9451 91.3787 85.3324 90.6128 84.7963 89.847L82.9583 87.3197C82.1159 86.171 81.4267 84.9456 81.1203 83.5671C80.9672 82.7247 80.7374 81.8057 80.4311 80.9633C80.2013 80.1975 79.895 79.4316 79.6652 78.7424C79.4355 77.9766 79.1292 77.0576 79.8184 76.2917C79.9716 76.1386 80.0482 75.9088 80.1247 75.6791C80.2013 75.4493 80.2779 75.143 80.2779 74.9132C80.2779 74.3771 80.3545 73.8411 80.5842 73.305C80.7374 72.9221 80.9672 72.5391 81.1203 72.1562C81.3501 71.7733 81.5798 71.467 81.8862 71.1606C82.2691 70.7777 82.652 70.3182 82.8817 69.8587C83.1115 69.3992 83.3412 68.8631 83.4944 68.3271C83.9539 67.2549 84.49 66.2593 85.2558 65.4169C86.2514 63.9618 87.5533 62.6599 88.3192 61.2048C88.8552 59.9029 89.8508 58.8307 91.0762 58.1415C92.3015 57.5288 93.5268 56.6864 94.7522 55.9971C95.2117 55.6908 95.6712 55.3079 95.9775 54.8484C97.1263 53.1635 98.7345 51.785 100.649 51.0192C101.721 50.5597 102.717 49.8705 103.483 49.028C104.631 47.7261 106.01 46.654 107.618 45.8881C108.92 45.2755 110.069 44.3565 110.988 43.2077C111.983 41.676 113.975 41.5229 115.047 40.2209C119.259 38.9956 122.705 36.6215 126.611 34.7835C127.07 34.5538 127.606 34.324 128.143 34.1709C130.517 33.7114 132.891 33.1753 135.265 32.7158C137.562 32.2563 139.86 31.8734 142.157 31.567C142.693 31.567 143.153 31.7202 143.612 32.0265C144.531 32.486 145.527 32.6392 146.523 32.5626C147.518 32.4094 148.59 32.7924 149.28 33.5582C149.433 33.7114 149.586 34.1709 149.509 34.1709C149.05 34.4006 148.82 34.8601 148.743 35.3962C148.743 35.8557 148.897 36.2386 149.203 36.6215C149.586 37.3108 149.816 38.0766 149.892 38.8424C149.969 38.9956 149.969 39.3019 150.045 39.4551C150.122 39.6849 150.199 39.838 150.352 40.0678C150.888 40.757 151.194 41.676 151.118 42.5184C150.811 42.9014 150.735 43.3609 150.581 43.8204Z" fill="#000638"/>
<path d="M136.262 63.1195C136.185 62.4302 136.722 61.2815 136.415 60.822C135.803 59.903 135.343 58.8308 134.96 57.8352C134.577 56.7631 134.041 55.7675 133.428 54.8485C132.739 53.9295 132.05 53.1637 131.284 52.3212C130.518 51.5554 129.829 50.6364 129.293 49.7174C127.685 49.5642 126.919 48.5687 125.847 47.6497C123.549 46.8072 121.099 46.4243 118.648 46.5775L117.729 46.6541L116.81 46.8072C114.819 47.1136 112.904 47.8794 111.219 49.0281C110.76 49.4876 110.377 50.0237 110.224 50.6364C109.917 51.1725 109.381 51.632 108.845 51.9383C107.543 52.7807 107.084 54.389 107.39 56.0738C107.543 57.2226 107.926 58.2947 108.386 59.2903C108.233 60.2093 108.079 61.0517 108.079 61.9707C108.003 64.8043 108.692 67.6379 109.994 70.1652C111.372 72.8456 113.517 74.9899 116.197 76.3684C118.954 77.5938 122.018 77.9767 124.928 77.2874C127.838 76.6747 130.518 75.0665 132.433 72.8456C133.735 71.2373 134.73 69.7057 136.032 68.0974C136.568 67.3316 136.798 66.4892 136.722 65.5702C136.875 64.6512 136.339 63.8853 136.262 63.1195ZM127.149 68.174C126.766 68.5569 126.306 68.9398 125.847 69.2462C125.311 69.5525 124.775 69.7822 124.162 70.012C123.549 70.1652 122.937 70.3183 122.324 70.3183C121.711 70.3183 121.099 70.3183 120.562 70.1652C119.72 69.8588 118.878 69.8588 118.035 70.1652C117.805 69.7822 117.959 69.093 117.346 69.093C116.58 69.1696 115.967 68.5569 115.891 67.7911C115.891 67.7145 115.891 67.6379 115.891 67.6379C116.35 67.7911 116.733 67.9442 117.193 68.0974C118.112 68.4037 119.107 68.174 119.873 67.5613C120.409 67.0252 120.716 66.336 120.716 65.6467C120.639 64.7277 120.486 63.8087 120.256 62.8897C120.256 62.66 120.18 62.4302 120.026 62.2005C119.95 62.1239 119.95 62.1239 119.797 62.2005C119.643 62.2771 119.49 62.3537 119.414 61.9707C119.184 61.0517 118.724 60.6688 117.423 60.5922C116.733 60.5922 116.044 60.2859 115.585 59.7498C115.814 59.0606 116.197 58.3713 116.58 57.7587C116.81 57.4523 116.963 56.9928 117.04 56.6099C117.193 55.6143 117.882 54.8485 118.878 54.6953C119.337 54.5422 119.72 54.2358 119.95 53.7763C120.18 53.7763 120.486 53.8529 120.716 53.8529C120.945 53.9295 121.252 54.0061 121.481 54.1592C121.711 54.3124 121.941 54.4656 122.094 54.6953C122.4 55.0782 122.554 55.0017 122.937 55.0017C124.775 54.8485 125.617 55.2314 126.383 56.6865C126.536 57.2992 126.842 57.9118 127.149 58.4479C127.761 59.2903 128.221 60.2093 128.451 61.1283C129.216 63.4258 128.68 66.1062 127.149 68.174Z" fill="#000638"/>
<path d="M63.8876 145.6C63.811 144.528 63.5047 143.455 62.8154 142.613C62.2028 141.771 61.2072 141.311 60.2116 141.158C59.6755 141.081 59.216 141.158 58.6799 141.235C58.4502 141.311 58.1438 141.464 57.9141 141.541C57.6077 141.617 57.378 141.771 57.1482 141.924C56.9185 142.077 56.6122 142.23 56.3824 142.383L55.7697 142.766L54.9273 143.302L51.864 145.293C51.1747 145.6 50.6387 146.212 50.3323 146.902C50.2557 146.902 50.1792 146.902 50.1026 146.902L49.9494 146.825C49.7962 146.749 49.6431 146.825 49.5665 146.902C49.2602 147.361 48.7241 147.591 48.2646 147.131C47.8051 146.595 47.4987 146.595 46.9627 146.825C46.7329 146.902 46.6563 146.825 46.6563 146.672C46.6563 146.366 46.6563 146.059 46.5797 145.83C46.5032 145.6 46.4266 145.293 46.35 145.064C46.35 144.528 46.4266 143.915 46.5797 143.455C46.6563 143.149 46.7329 142.843 46.6563 142.536C46.5797 141.771 46.8095 141.081 47.3456 140.545C47.9582 139.856 47.5753 139.014 47.269 138.171C47.1924 137.865 46.4266 137.482 46.1968 137.712C45.7373 138.095 45.431 138.554 44.8949 138.784C44.2057 139.09 43.7462 139.703 43.7462 140.469C42.9803 140.775 42.5208 141.617 42.674 142.383C42.674 142.536 42.7506 142.766 42.674 142.843C41.6018 144.145 41.6018 146.212 42.5208 147.974C42.9803 148.969 43.7462 149.735 44.6652 150.348C45.5076 150.884 46.5032 151.19 47.5753 151.267C48.4943 151.344 49.4899 151.267 50.4089 151.037C50.6387 150.961 50.8684 150.884 51.0982 150.807C51.3279 150.731 51.6342 150.654 51.7874 150.501C52.1703 150.348 52.5532 150.118 52.9362 149.888C54.3147 149.046 55.4634 148.204 56.6887 147.438L57.6077 146.825L58.297 146.442C58.4502 146.289 58.6799 146.212 58.9097 146.136C59.0628 146.136 59.1394 146.212 59.216 146.289V146.366C59.216 146.595 59.0628 146.825 58.8331 146.978C58.6033 147.131 58.6799 147.055 58.7565 147.055C58.8331 147.055 59.216 146.978 59.1394 147.514C59.1394 147.897 58.6033 148.28 58.7565 148.587C59.1394 149.735 58.7565 150.807 58.6033 151.88C58.4502 152.952 58.3736 154.101 57.5312 154.943C57.8375 155.709 57.378 156.245 56.9951 156.858L55.7697 163.827C55.6932 164.056 55.9229 164.363 55.9995 164.592C56.0761 164.822 55.9995 165.129 55.7697 165.282C55.3868 165.741 55.3102 166.277 55.54 166.813C55.9229 167.886 55.7697 169.034 55.0805 169.953C54.3912 170.643 54.1615 171.715 54.4678 172.634C54.621 173.17 54.6976 173.706 54.5444 174.242C54.5444 175.161 55.1571 175.927 55.9995 176.157C56.5356 176.31 57.1482 176.463 57.7609 176.539C58.2204 176.616 58.3736 176.463 58.297 175.774C58.2204 175.467 58.297 175.238 58.5267 175.008C59.1394 174.395 59.3692 173.476 58.9862 172.71C58.6033 171.791 58.7565 170.719 59.5223 169.953C59.8287 169.647 59.9053 169.187 59.8287 168.805C59.4457 168.039 59.5989 167.12 60.2116 166.507C60.6711 165.971 60.8243 165.205 60.5945 164.516C60.3647 163.827 60.2882 163.137 60.4413 162.448C60.6711 161.529 60.8242 160.534 61.054 159.538C61.1306 159.155 61.3603 158.772 61.5901 158.466C61.7432 158.236 61.8198 158.006 61.7433 157.7C61.4369 156.628 61.5901 155.479 62.2028 154.483C62.5091 154.024 62.7388 153.488 62.892 152.952C63.0452 151.956 63.2749 151.037 63.4281 150.042L63.7344 148.204L63.9642 146.978C63.8876 146.749 63.9642 146.136 63.8876 145.6Z" fill="#000638"/>
<path d="M64.195 142.919C64.195 142.613 64.1184 142.383 64.1184 142.077C64.0418 141.77 64.0418 141.541 63.9652 141.311C63.8886 141.004 63.812 140.775 63.7355 140.468C63.5823 140.162 63.5057 139.856 63.276 139.549C63.1994 139.32 63.0462 139.166 62.893 139.013C62.7399 138.784 62.5867 138.63 62.357 138.477C62.1272 138.247 61.8975 138.094 61.6677 137.941C61.3614 137.788 61.055 137.635 60.7487 137.558C59.8297 137.328 58.7575 137.328 57.9151 137.711C56.9961 138.094 56.1537 138.63 55.3113 139.243C54.622 139.779 54.086 140.239 53.4733 140.698C53.3201 140.775 53.167 140.928 53.0138 141.004C52.8606 141.081 52.8606 141.004 52.784 141.004C52.6309 140.928 52.4777 140.851 52.4011 140.775C52.0948 140.468 52.1714 140.622 52.0948 141.004C52.0182 141.311 51.865 141.847 51.7885 141.694C51.7119 141.617 51.7885 141.004 51.7119 141.004C51.7119 141.004 51.329 142 51.4055 141.541C51.4821 141.081 51.7119 140.545 51.9416 140.085C52.0948 139.856 52.0948 139.856 52.0182 139.932C51.6353 140.392 51.1758 140.775 50.6397 141.004C50.6397 140.851 50.2568 140.928 50.1036 140.622C49.9505 140.315 49.9505 139.856 50.1802 139.549C50.2568 139.396 50.41 139.243 50.6397 139.166L50.7929 139.09C50.8695 139.013 50.946 138.937 51.0226 138.86L51.5587 138.401C52.3245 137.788 52.9372 137.022 53.4733 136.256C53.7796 135.414 54.0094 134.648 54.2391 133.806C54.3157 133.346 54.3923 132.963 54.5455 132.504C54.622 131.968 54.6986 131.508 54.7752 130.972C54.8518 130.359 54.8518 129.747 54.9284 129.134C54.9284 128.521 54.8518 127.985 54.8518 127.373C54.7752 126.224 54.4689 125.075 53.8562 124.08C53.5499 123.543 53.0138 123.161 52.3245 122.931C51.7885 122.778 51.1758 122.778 50.6397 122.931C49.491 123.161 48.6485 123.62 47.5764 123.773C46.8105 123.85 46.1213 124.003 45.3555 124.233L44.8194 124.386L44.3599 124.539C44.0535 124.616 43.7472 124.769 43.5175 124.922C42.4453 125.381 41.4497 126.071 40.6073 126.913C39.0756 128.598 40.6073 129.134 41.22 129.134C42.2155 129.057 43.1345 128.904 44.0535 128.751C44.5896 128.675 45.0491 128.521 45.5852 128.368C45.815 128.292 46.0447 128.215 46.351 128.215C46.4276 128.215 46.5042 128.138 46.5808 128.138H46.734C47.1935 128.062 47.653 127.909 48.1125 127.756C48.7251 127.526 49.3378 127.526 50.027 127.602C50.1802 127.602 49.9505 128.138 49.8739 128.368C49.7207 128.675 49.6441 129.057 49.5675 129.44C49.491 129.747 49.491 130.053 49.4144 130.436C49.4144 130.666 49.3378 130.895 49.3378 131.125C49.2612 131.355 49.1846 131.661 49.1846 131.891C49.0315 132.351 48.8783 132.81 48.6485 133.27C48.189 134.189 47.653 135.108 47.1935 136.103C46.8871 136.716 46.5042 137.328 46.1979 137.941C45.815 138.63 45.5086 139.32 45.1257 140.009C44.8194 140.545 44.513 141.081 44.1301 141.541C43.9004 141.77 43.7472 142.077 43.5175 142.306C43.2877 142.536 43.1345 142.842 42.9814 143.149C42.8282 143.532 42.675 143.915 42.7516 144.298C42.7516 144.527 42.9048 144.834 43.1345 144.987C43.2111 144.987 43.2111 145.14 43.2111 145.293C43.2111 145.446 43.2111 145.676 43.2111 145.982C43.2111 146.289 43.1345 146.595 43.1345 146.901C43.1345 147.208 43.1345 147.514 43.1345 147.897C43.058 148.51 43.1345 149.199 43.4409 149.812C43.594 150.118 43.9004 150.424 44.1301 150.654C44.2833 151.113 44.6662 151.496 45.1257 151.726C45.6618 151.956 46.1979 152.032 46.8105 151.956C47.5764 151.803 48.3422 151.573 49.108 151.19C50.027 150.731 50.8695 150.118 51.7119 149.429C53.5499 148.05 55.1581 146.289 56.7664 144.91C57.2259 144.451 57.762 144.144 58.3746 143.838C58.6044 143.761 58.7575 143.685 58.9873 143.608C58.9873 143.838 58.9873 144.068 58.9107 144.298C58.8341 144.91 58.681 145.523 58.5278 146.136C58.2215 147.131 57.9151 148.127 57.4556 149.122C57.2259 149.505 56.6132 149.735 56.46 150.118C56.2303 150.654 56.3069 151.343 56.1537 151.956C55.8474 152.875 55.0815 153.564 54.4689 154.407C53.7796 155.096 53.5499 156.091 53.8562 157.087C53.5499 157.7 52.8606 157.853 52.1714 159.921C51.5587 161.835 48.572 165.817 48.8017 167.962C48.9549 169.187 48.4188 170.259 48.1125 171.331C47.8827 172.097 47.3466 172.787 46.6574 173.246C45.5086 174.165 45.6618 177.994 44.9725 179.22C44.4365 180.139 44.513 180.139 45.432 180.521C46.0447 180.904 46.734 181.058 47.4232 180.981C48.572 180.368 49.7207 179.602 50.7929 178.837C51.7119 178.147 51.6353 176.769 52.6309 176.08C54.3157 174.854 52.6309 172.787 54.3923 171.485C54.7752 171.178 55.0815 170.872 55.3879 170.412C57.3025 167.273 56.9195 163.52 58.298 160.303C58.9107 159.002 59.5234 157.623 60.0595 156.398C60.6721 155.172 61.3614 153.87 61.974 152.492C62.6633 151.113 63.1994 149.658 63.6589 148.127C63.8886 147.361 64.0418 146.518 64.195 145.753C64.195 144.834 64.2715 143.838 64.195 142.919Z" fill="#006ADC"/>
<path d="M127.914 83.4905C127.914 83.4139 127.838 83.3373 127.761 83.2607C127.685 83.1842 127.531 83.1076 127.378 83.031L126.995 82.8778C126.306 82.5715 126.076 82.4949 125.923 82.7247C125.464 83.6437 125.081 84.5627 123.702 85.0987C123.549 85.1753 123.779 85.3285 124.009 85.4817C124.315 85.6348 124.392 85.788 124.315 85.8646C123.549 86.4007 123.473 87.2431 123.166 87.9323L122.554 89.464L122.247 90.2298L122.017 90.8425C121.864 91.1488 121.558 91.302 121.252 91.1488C121.022 91.0723 120.716 90.9957 120.486 90.8425C120.256 90.6893 120.409 90.9191 120.409 91.1488C120.409 91.2254 120.409 91.302 120.409 91.302C120.256 91.302 120.026 91.1488 120.026 91.302C120.026 91.5318 120.103 92.1444 120.103 92.6039C120.103 92.9103 119.873 92.8337 119.72 92.3742C119.567 91.9912 119.414 91.3786 119.337 91.4552C119.184 91.5317 119.031 91.6849 118.878 91.5318C118.801 91.4552 118.801 91.3786 118.724 91.3786C118.878 91.2254 119.107 91.0722 119.337 90.9957C119.49 90.9191 119.567 90.7659 119.567 90.6127C119.567 90.3064 119.414 90.0001 119.567 89.7703C119.72 89.5406 120.103 89.3874 120.256 89.1577C120.486 88.8513 120.486 88.3918 120.179 88.0855C119.95 87.7792 119.873 87.3962 120.103 87.2431C120.486 87.0133 120.716 86.6304 120.869 86.1709C121.022 85.7114 120.869 85.2519 120.562 84.869C120.486 84.7158 120.716 84.4861 120.639 84.3329C120.639 84.1797 120.562 84.1032 120.486 83.95C120.409 83.7968 120.333 83.7202 120.256 83.5671C120.179 83.4139 120.103 83.3373 119.95 83.1842L119.797 83.031L119.643 82.9544C119.414 82.8012 119.184 82.6481 118.878 82.5715C118.724 82.4949 118.571 82.4949 118.418 82.4949L118.112 82.4183C117.805 82.3417 117.499 82.6481 117.422 83.1842C117.422 83.3373 117.346 83.4905 117.269 83.6437C117.193 82.8012 116.81 82.0354 116.121 81.4993C115.661 81.1164 115.202 80.8101 114.665 80.6569C114.129 80.4272 113.517 80.3506 112.981 80.4272C112.751 80.4272 112.521 80.5037 112.291 80.5037C112.215 80.5037 112.138 80.5803 112.062 80.5803C111.908 80.6569 111.832 80.7335 111.679 80.8101C111.219 81.1164 110.76 81.3462 110.377 81.6525C109.994 81.9588 109.764 82.4183 109.764 82.8778C109.688 83.3373 109.534 83.5671 109.151 83.5671C108.462 83.7202 107.85 84.2563 107.62 84.9456C107.39 85.3285 107.237 85.7114 107.084 86.1709C106.931 86.5538 106.777 86.9367 106.624 87.3962C106.394 87.9323 106.394 88.4684 106.701 89.0045C106.854 89.3874 106.854 89.8469 106.548 90.1533C106.318 90.5362 106.088 90.9957 105.782 91.4552C105.629 91.6849 105.475 91.9913 105.399 92.2976C104.863 91.9913 104.633 91.6849 104.786 91.302C104.863 91.0723 104.863 90.8425 104.71 90.6893C104.25 90.2298 104.25 89.3874 104.71 88.9279C104.863 88.7747 105.016 88.6982 105.169 88.6216C105.475 88.4684 105.782 88.3152 105.782 88.0089C105.782 87.7792 105.858 87.5494 106.012 87.3197C106.165 87.0899 106.394 86.9367 106.624 86.8602C106.777 86.7836 106.548 86.6304 106.318 86.4772C105.935 86.2475 105.782 86.0943 106.088 86.0177C106.241 85.9412 106.394 85.8646 106.548 85.7114C106.701 85.5582 106.624 85.3285 106.471 85.0222C106.241 84.5627 105.935 84.1797 105.552 83.8734C105.322 83.6437 105.092 83.4905 104.786 83.4139C104.02 83.2607 103.254 83.2607 102.489 83.4905C101.799 83.7968 101.11 84.1032 100.421 84.5627C100.191 84.7158 100.038 84.9456 99.9614 85.2519C99.8848 85.6348 99.8848 86.0943 99.9614 86.4772C100.115 87.0133 99.1956 87.1665 99.2722 87.7026C99.2722 87.8557 99.1956 87.9323 99.1956 88.0855C99.2722 88.545 99.3487 89.0045 99.3487 89.464C99.2722 89.8469 98.8127 90.2298 98.5829 90.6127C98.5829 90.6893 98.5829 90.7659 98.5829 90.8425C98.7361 91.1488 98.5829 91.5318 98.2766 91.6849C97.9702 91.9147 97.8937 92.2976 98.0468 92.6039C98.2766 93.14 98.2 93.7527 97.8937 94.2122C97.7405 94.5951 97.5873 94.978 97.8937 95.3609C97.8937 95.4375 97.8171 95.5141 97.8171 95.6673C97.8171 95.8204 97.8171 95.9736 97.8171 96.1268C97.8171 96.5863 97.8937 96.9692 98.1234 97.3521C98.2766 97.735 98.5063 98.0413 98.7361 98.3477C99.0424 98.5774 99.119 99.0369 99.0424 99.3433C98.9658 99.573 98.9658 99.7262 99.119 99.9559C99.3487 100.262 99.7317 100.569 99.9614 100.952C100.115 101.641 100.421 102.253 100.88 102.866C101.263 103.249 101.799 103.632 102.335 103.862C103.101 104.168 103.867 104.321 104.633 104.245C106.241 104.091 107.467 103.862 107.85 103.096C107.926 102.866 108.079 102.713 108.156 102.483C108.232 102.33 108.386 102.253 108.462 102.1C108.692 101.947 108.922 101.871 109.151 101.794C109.534 101.717 109.841 101.411 109.764 100.952C109.764 100.875 109.764 100.875 109.764 100.798C109.688 100.569 109.688 100.339 109.764 100.109C110.07 99.8028 110.53 99.573 110.989 99.573C111.296 99.573 111.526 99.4964 111.755 99.4198C112.368 99.1135 112.981 98.7306 113.593 98.2711C114.283 97.735 114.742 97.0458 114.972 96.2799C115.048 96.0502 115.125 96.0502 115.202 96.1268C115.431 96.2033 115.661 96.0502 115.738 95.897C115.891 95.6673 115.967 95.5141 116.121 95.2843C116.274 95.5141 116.427 95.6673 116.58 95.8204C116.963 96.2033 117.576 96.3565 118.035 96.0502C118.341 95.897 118.648 96.2033 118.954 96.5863C119.49 96.2799 119.873 96.6628 120.486 97.1223C120.639 97.2755 120.869 97.3521 121.098 97.2755C121.405 97.1989 121.558 96.816 121.788 96.7394C122.094 96.6628 122.554 96.7394 122.86 96.5097C123.626 95.9736 124.315 95.2843 124.851 94.4419C125.157 94.059 125.387 93.5995 125.617 93.14C125.847 92.6805 126.076 92.1444 126.306 91.7615C126.383 91.4552 126.459 91.1488 126.383 90.8425C126.383 90.6127 126.306 90.383 126.536 90.2298C127.149 89.6937 127.531 89.0045 127.685 88.2387C128.068 87.1665 128.221 86.4007 128.527 85.7114C128.987 85.4051 127.608 84.3329 127.914 83.4905ZM118.724 87.3962L118.495 87.4728C118.495 87.3962 118.571 87.3197 118.724 87.3962C118.801 87.3962 118.801 87.3962 118.878 87.4728L118.724 87.3962ZM105.322 93.4463H105.399C105.399 93.5995 105.475 93.7527 105.552 93.9058C105.629 94.059 105.858 94.059 105.782 94.2888C105.782 94.3653 105.705 94.3653 105.705 94.4419C105.705 94.4419 105.705 94.4419 105.629 94.4419C105.552 94.2887 105.322 94.059 105.016 93.9058C104.71 93.5229 104.786 93.4463 105.322 93.4463ZM118.265 92.221C118.188 92.3742 118.112 92.2976 118.112 92.221C118.188 92.0678 118.341 91.9147 118.495 91.7615C118.418 91.9147 118.341 92.0678 118.265 92.221Z" fill="#006ADC"/>
<path d="M151.805 44.9689C151.269 44.2797 151.039 43.4373 151.116 42.5182C151.116 42.0587 151.116 41.5992 151.116 41.1397C151.192 40.6037 151.116 40.0676 150.963 39.6081C150.733 39.1486 151.422 38.6891 151.345 38.153C151.269 37.7701 151.039 37.3106 151.422 36.8511C150.886 36.4682 151.192 35.8555 151.116 35.3194C151.039 34.7833 150.733 34.3238 150.35 33.9409C149.967 33.4814 149.737 32.9453 149.584 32.4092C149.354 31.4137 148.742 30.5712 147.899 29.9586C147.133 29.3459 146.138 29.0396 145.142 29.1162C144.836 29.1162 144.53 29.0396 144.3 28.8864C143.917 28.6567 143.534 28.5801 143.074 28.5801H142.845H142.615C142.309 28.5801 142.002 29.0396 141.696 28.7332C141.39 28.4269 141.007 28.963 140.7 29.1162C140.011 29.4225 139.398 29.1927 138.403 29.1927C138.02 29.2693 137.56 29.3459 137.178 29.4991C136.795 29.5757 136.488 29.7288 136.105 29.9586C136.029 30.0352 135.876 30.1117 135.722 30.1883C135.569 30.2649 135.416 30.4181 135.263 30.5712C135.186 30.6478 135.11 30.7244 135.033 30.801C134.957 30.8776 134.88 31.0307 134.803 31.1073C134.65 31.3371 134.497 31.6434 134.344 31.8732C134.191 32.3327 134.114 32.7922 134.114 33.2517C134.114 33.4048 134.191 33.558 134.191 33.7112C134.191 33.7877 134.267 33.9409 134.344 34.0175C134.574 34.3238 134.727 34.3238 134.957 34.1707C135.416 33.7112 135.952 33.4048 136.641 33.2517C137.024 33.1751 137.407 33.1751 137.714 33.3282C138.02 33.4814 138.173 33.9409 138.326 33.9409C138.709 33.9409 139.169 34.477 139.628 34.7067C139.935 34.7833 140.317 34.7067 140.624 33.8643C140.7 33.558 140.854 33.3282 141.007 33.558C141.16 33.8643 141.39 33.7877 141.619 33.6346C141.926 33.3282 142.309 32.9453 142.692 32.7156C142.768 32.639 142.845 33.0219 142.921 33.1751C142.921 33.2517 142.921 33.3282 142.998 33.4048C143.074 33.7112 143.151 33.9409 143.228 33.8643C143.534 33.7112 143.993 33.6346 144.376 33.7877C144.683 33.9409 144.912 34.2472 144.989 34.6302C145.066 34.7833 145.142 34.9365 145.219 35.0897C145.372 35.3194 145.449 35.5492 145.525 35.7789C145.602 36.0852 145.525 36.4682 145.295 36.6979C145.142 36.9277 145.219 37.1574 145.449 37.3106C145.755 37.5403 145.678 37.9232 145.602 38.2296C145.525 38.5359 145.831 38.8422 145.678 39.2252C145.525 39.6081 145.755 39.9144 145.755 40.2973C145.755 40.5271 146.291 40.7568 146.061 40.9866C145.755 41.2929 146.138 41.4461 146.368 41.6758C146.674 41.9822 145.755 42.2885 146.291 42.5948C146.368 42.6714 146.214 42.8246 146.138 42.9012C145.831 43.1309 145.831 43.2841 146.138 43.5138C146.444 43.7436 146.521 43.8967 146.214 44.1265C145.908 44.3562 145.755 44.6626 145.985 44.8923C146.138 45.1221 146.368 45.2753 146.138 45.505C145.831 45.8113 145.831 46.2708 145.985 46.5772C146.214 47.0367 146.138 47.5728 145.908 48.0323C145.602 48.4918 145.602 49.0278 145.219 49.4873C144.989 49.7937 144.836 50.1 144.759 50.4829C144.759 50.8658 144.606 51.2488 144.836 51.7083C145.066 52.1678 144.223 52.3975 144.3 52.7804C144.3 52.9336 144.3 53.0868 144.223 53.2399L144.07 54.3121L143.764 55.3843C143.611 56.1501 143.381 56.8393 143.074 57.5286C142.768 57.9115 142.845 58.4476 143.151 58.8305C143.151 58.9071 143.074 58.9071 142.998 58.9071C141.696 58.6773 142.462 59.2134 142.309 59.5198C142.002 60.0558 142.155 60.8983 141.16 61.128C141.083 61.128 141.083 61.2046 141.083 61.2812C141.313 61.8938 140.547 62.1236 140.317 62.5065C140.088 62.8128 139.935 63.1958 139.781 63.5787C139.628 63.9616 139.628 64.4977 139.398 64.8806C139.245 65.3401 138.786 65.723 138.862 66.2591C138.939 66.7952 138.097 66.8718 138.02 67.3313C138.02 67.561 137.867 67.7142 137.79 67.8673C137.79 68.0205 137.867 68.2503 138.25 68.5566C138.479 68.7863 138.633 68.9395 138.479 68.9395C137.79 69.0927 137.484 69.3224 137.79 70.0883C137.867 70.1648 137.714 70.2414 137.484 70.2414C136.948 70.1649 136.641 70.1648 136.641 70.5478C136.641 71.1604 136.412 71.7731 135.722 71.9263C135.34 72.0028 135.646 72.4624 135.263 72.5389C134.88 72.6155 135.263 73.1516 135.11 73.3048C135.033 73.4579 134.957 73.6877 134.88 73.9174C134.65 74.1472 134.574 74.4535 134.65 74.6833C134.727 75.0662 134.191 74.913 134.421 75.4491C134.497 75.5257 134.421 75.6023 134.344 75.6789H134.267C133.425 75.6789 133.195 76.2915 132.812 76.6744C132.353 77.1339 131.817 77.5934 131.434 78.1295C131.281 78.3593 130.821 78.2827 130.591 78.4359C130.362 78.6656 130.515 79.1251 130.362 79.4314C129.979 80.1973 129.366 80.8099 128.677 81.2694C128.37 81.4226 127.681 81.1929 127.758 81.6524C127.758 82.1119 127.145 81.8821 127.222 82.4182C127.222 82.5714 127.069 82.4948 126.915 82.4948C126.532 82.5714 126.686 82.9543 126.915 83.4904C127.069 83.7967 127.145 84.103 126.839 84.0264C126.303 83.9499 126.15 84.2562 125.767 84.2562C125.69 84.2562 125.613 84.2562 125.537 84.2562C125.537 84.1796 125.537 84.0264 125.537 83.9499C125.537 83.8733 125.46 83.8733 125.46 83.7967C125.077 83.5669 124.158 83.4138 124.465 83.184C124.618 83.1074 124.848 83.0309 125.001 82.9543C125.307 82.8011 124.618 81.9587 123.622 81.1163C122.856 80.427 122.014 79.7378 121.095 79.2783C120.865 79.1251 120.636 79.1251 120.406 79.1251C120.099 79.2783 119.87 79.4314 119.717 79.7378C119.41 80.3504 119.334 81.0397 119.027 81.6524C118.108 83.2606 118.108 85.2518 118.261 87.0898C118.338 87.7024 118.491 88.3151 118.644 89.0044C118.798 89.9234 119.104 90.8424 119.563 91.6848C120.482 92.5272 121.631 93.1399 122.78 93.4462C123.699 93.293 124.618 93.0633 125.46 92.6804C126.073 92.4506 126.609 92.1443 127.069 91.7614C127.451 91.3784 127.758 91.1487 128.064 90.8424C128.141 90.7658 128.217 90.6892 128.294 90.6126C128.37 90.536 128.37 90.4594 128.37 90.3829C128.447 90.1531 128.447 89.9999 128.447 89.7702C128.447 89.5404 128.6 89.4639 128.677 89.3107C129.213 88.698 129.672 88.1619 130.208 87.6259C130.668 86.9366 131.357 86.4771 132.2 86.3239C132.429 86.2474 132.659 86.1708 132.736 85.941C132.965 85.6347 133.348 85.4815 133.348 84.9454C133.348 84.4094 134.191 84.7157 134.267 84.2562C134.344 84.103 134.421 83.9499 134.421 83.7967C134.421 83.5669 134.574 83.4904 134.727 83.4138C135.033 83.3372 135.34 83.2606 135.569 83.0309C136.105 82.4182 136.795 81.8821 137.56 81.6524C137.867 81.5758 137.637 81.1929 137.254 80.7334C137.024 80.5036 137.101 80.427 137.331 80.427C137.714 80.427 137.943 80.1973 137.943 79.8909C137.867 79.5846 137.943 79.3549 138.25 79.3549C138.479 79.3549 138.709 79.2017 138.862 79.0485C139.016 78.8188 139.245 78.589 139.322 78.3593C139.475 78.1295 139.628 77.8998 139.781 77.67C139.858 77.5169 140.011 77.4403 140.011 77.2105C139.935 76.751 140.317 76.5213 140.317 76.0618C140.241 75.6023 140.624 75.1428 141.083 75.0662H141.16C141.39 75.0662 141.543 74.9896 141.696 74.8364C142.079 74.3004 142.692 73.8409 142.309 72.9219C142.155 72.6155 142.615 72.6155 142.845 72.5389C142.998 72.4624 143.074 72.2326 143.074 72.0794C143.074 71.8497 142.921 71.5434 143.304 71.4668C143.687 71.3902 143.764 71.0838 143.993 70.9307C144.453 70.4712 144.53 69.7819 145.525 69.7053C145.602 69.2458 145.678 68.7863 146.214 68.5566C146.444 68.4034 146.368 68.0971 146.444 67.8673C146.444 67.7908 146.444 67.7142 146.368 67.6376C146.214 67.0249 146.291 66.4888 146.98 66.2591C147.057 66.2591 147.057 66.1059 146.98 66.1059C146.291 65.5698 146.674 65.4933 146.904 65.2635C147.057 65.1103 147.057 64.804 147.057 64.5743C147.057 64.0382 146.98 63.5021 147.669 63.2723C147.823 63.1958 147.976 63.0426 148.052 62.8894C148.512 61.9704 148.742 60.8983 148.742 59.9027C148.742 59.6729 148.895 59.4432 148.895 59.29C148.895 58.9837 149.048 58.7539 149.354 58.5242C149.584 58.371 149.584 58.1413 149.354 57.8349C149.278 57.6818 149.201 57.5286 149.278 57.5286C149.89 57.2988 149.89 56.8393 149.89 56.4564C149.967 55.8438 150.044 55.1545 150.12 54.5418C150.197 54.0058 150.503 53.5463 150.12 53.0102C149.967 52.7804 150.273 52.7038 150.35 52.5507C150.426 52.2443 150.733 52.0146 150.503 51.7083C150.197 51.2488 150.58 50.9424 150.197 50.4829C149.814 50.1 149.814 49.5639 150.197 49.181C150.273 49.1044 150.35 49.0278 150.426 49.0278C150.656 48.7981 150.809 48.4918 150.809 48.1854C150.809 47.8025 150.809 47.343 150.886 46.9601C150.886 46.5006 151.116 46.1177 151.499 45.8113C151.882 45.2753 151.958 45.0455 151.805 44.9689ZM124.771 85.0986C124.848 85.0986 124.848 85.0986 124.924 85.0986C124.848 85.0986 124.848 85.1752 124.771 85.0986ZM123.852 88.0854C123.852 88.0854 123.775 88.1619 123.852 88.0854V88.0854Z" fill="#006ADC"/>
<path d="M109.38 99.2664C109.227 98.8069 109.303 98.7303 109.15 98.8835C109.074 98.9601 108.997 98.9601 108.997 98.8069C108.997 98.2708 108.997 98.1942 108.384 98.2708C108.078 98.3474 107.772 98.1942 107.695 97.8879C108.001 97.2752 108.308 96.6626 108.614 95.8967C108.767 95.5904 108.844 95.2075 108.92 94.9012C108.997 94.6714 108.997 94.4417 109.074 94.2119C109.15 93.9056 109.15 93.6758 109.15 93.3695C109.15 93.2163 109.15 92.9866 109.074 92.8334C109.074 92.6037 108.997 92.3739 108.92 92.2207C108.844 91.991 108.691 91.7612 108.537 91.5315C108.384 91.3017 108.155 91.072 108.001 90.9188C107.772 90.6891 107.465 90.5359 107.159 90.3827C106.929 90.3062 106.623 90.2296 106.393 90.153C106.087 90.0764 105.78 90.0764 105.551 90.153C105.244 90.2296 104.938 90.3062 104.632 90.4593C104.402 90.5359 104.249 90.6891 104.096 90.8422C103.866 91.072 103.636 91.3017 103.483 91.6081C103.253 92.0676 103.177 92.6037 103.33 93.0632C103.406 93.3695 103.253 93.7524 103.1 93.9822C102.794 94.5182 102.794 95.2075 103.1 95.7436C103.177 95.8968 103.253 96.0499 103.33 96.2031C103.177 96.3562 103.1 96.5094 103.1 96.7392C103.023 98.1177 102.87 98.3474 102.487 98.1177C102.334 98.0411 102.258 97.9645 102.258 97.8113V97.7347C102.258 97.7347 102.258 97.7347 102.181 97.7347L102.104 97.6582C101.798 97.2753 101.568 96.7392 101.492 96.2031C101.722 95.7436 101.875 95.2841 102.104 94.748C102.411 93.829 102.717 92.9866 102.87 92.0676L102.947 91.5315C103.023 91.2252 103.023 90.8422 103.023 90.4593C103.023 90.153 102.947 89.8467 102.794 89.6169C102.411 88.8511 101.645 88.315 100.803 88.315C100.496 88.315 100.19 88.3916 99.9601 88.4682C99.7304 88.5447 99.5772 88.6213 99.424 88.6979C99.2709 88.7745 99.1943 88.8511 99.0411 88.9277C98.8114 89.0808 98.5816 89.3106 98.4284 89.5403C98.1221 89.9232 97.8158 90.3827 97.6626 90.8422C97.6626 90.6125 97.6626 90.4593 97.7392 90.2296C97.8924 89.4637 97.2031 89.0042 96.5904 88.3916C96.3607 88.1618 95.5183 88.0852 95.4417 88.315C95.2119 88.7745 95.1354 89.3106 94.829 89.6935C94.5993 89.9232 94.4461 90.2296 94.4461 90.5359C94.4461 90.8422 94.5227 91.2252 94.6759 91.5315C94.1398 92.2973 94.1398 93.2929 94.5993 94.0587C94.6759 94.1353 94.829 94.2885 94.829 94.4417C94.5993 95.3607 94.6759 96.3562 94.9056 97.3518C95.1354 98.0411 95.4417 98.6538 95.9012 99.1133C96.1309 99.343 96.3607 99.5728 96.667 99.7259C96.9734 99.8791 97.4329 100.032 97.8158 100.032C97.8924 100.032 98.0455 100.032 98.1221 99.9557C98.7348 100.339 99.1177 100.722 99.8069 101.258C100.42 101.794 101.185 102.1 102.028 102.253C102.564 102.33 103.023 102.33 103.56 102.177C104.172 102.023 104.785 101.717 105.398 101.411C105.627 101.641 105.934 101.794 106.24 101.87C107.006 102.1 107.542 102.406 108.308 102.636C108.844 102.789 109.456 102.636 109.839 102.253C110.146 101.947 110.299 101.487 110.222 101.028C109.686 100.415 109.61 99.8025 109.38 99.2664Z" fill="#80829B"/>
<path d="M84.717 96.7387C84.5638 96.2026 84.4106 95.6665 84.0277 95.207C83.7214 94.8241 83.3385 94.4412 82.9555 94.1349C82.1897 93.6754 81.4239 93.2924 80.658 92.9095C80.7346 92.7563 80.7346 92.6032 80.8112 92.3734C81.1175 90.9949 80.5815 89.6164 79.5093 88.774C79.203 88.5443 78.8966 88.3911 78.5903 88.3145C78.5903 88.0082 78.5903 87.7018 78.5137 87.3955C78.7435 86.4765 78.8966 85.098 78.0542 84.2556C77.5181 83.6429 76.8289 83.1834 76.1396 82.7239C75.527 82.341 74.8377 81.9581 74.0719 81.5752C73.306 81.1923 72.387 80.9625 71.468 81.0391C70.7022 81.1157 69.9364 81.3454 69.2471 81.8049C68.8642 82.1113 68.4047 82.2644 67.9452 82.1878C65.7243 82.2644 63.8097 83.4898 62.3546 84.3322C60.9761 85.1746 59.7508 86.0936 58.5254 87.0892C57.9894 87.5487 57.5299 88.0082 57.2235 88.6208C56.5343 89.7696 55.6919 90.7652 54.6963 91.6842C53.5475 92.8329 53.6241 93.8285 53.6241 94.9007C53.6241 95.2836 54.4665 95.5899 54.7729 95.3602C55.3855 94.7475 56.0748 94.288 56.8406 93.8285C57.7596 93.4456 58.5254 92.7564 58.9849 91.8373C59.9805 91.6076 60.8229 90.9183 61.359 89.9993C61.4356 89.8462 61.5888 89.5398 61.7419 89.5398C63.7331 88.9272 65.4179 87.7018 67.2559 86.8594C69.1705 86.017 71.3914 85.2512 72.9231 85.4809C73.2295 85.5575 73.6124 85.6341 73.8421 85.7873C74.0719 85.9404 74.3016 86.0936 74.4548 86.3999C74.608 86.5531 74.608 86.7828 74.608 86.936C74.608 87.2423 74.4548 87.5487 74.3016 87.7784C74.225 87.855 74.1484 87.9316 74.1484 88.0848H73.8421L72.6168 88.2379C70.4724 88.4677 68.4047 88.9272 66.3369 89.6164C65.7243 89.8462 65.1116 90.1525 64.5755 90.4588C63.8097 90.9183 63.197 91.531 62.6609 92.2203C62.0483 93.2159 61.8185 94.4412 62.1249 95.5899C62.2014 96.0494 62.4312 96.5089 62.6609 96.9684C62.9673 97.4279 63.2736 97.8874 63.7331 98.2704C64.1926 98.6533 64.8053 98.9596 65.4179 99.1128C65.954 99.2659 66.4901 99.2659 67.0262 99.1894C67.2559 99.1894 67.4091 99.1128 67.6389 99.1128C67.7154 99.1894 67.7154 99.2659 67.792 99.3425C67.8686 99.4191 67.9452 99.4957 68.0218 99.5723C68.1749 99.7254 68.4047 99.8786 68.5579 100.032C68.7876 100.108 69.0174 100.262 69.1705 100.338C69.4003 100.415 69.5534 100.415 69.7832 100.491C69.9364 100.491 70.1661 100.491 70.3193 100.491C71.3914 100.415 72.387 100.108 73.306 99.5723C73.9187 99.2659 74.608 99.0362 75.2206 98.8064C75.6035 98.7299 75.9865 98.5001 76.2928 98.1172C76.6757 97.7343 77.0586 97.3514 77.2884 97.045C77.2884 97.045 77.365 96.9684 77.4415 96.8919L77.6713 96.7387C77.7479 96.6621 77.901 96.5855 77.9776 96.4324C78.0542 96.4324 78.1308 96.4324 78.2074 96.4324L78.5137 96.5089C78.5903 96.5089 78.7435 96.5855 78.6669 96.5855C78.7435 96.6621 78.82 96.7387 78.82 96.8919C78.82 97.045 78.6669 97.1982 78.5137 97.2748C78.6669 97.2748 78.82 97.2748 78.9732 97.3514C79.1264 97.4279 79.1264 97.5045 79.1264 97.6577C79.1264 97.7343 79.0498 97.7343 79.0498 97.8109L78.9732 97.8874C78.9732 97.964 78.8966 97.964 78.8966 97.964C78.0542 98.5767 77.5947 99.5723 77.5947 100.568C77.6713 101.181 77.8245 101.717 78.1308 102.253C78.284 102.636 78.5903 102.712 79.739 102.023C80.122 101.717 80.5815 101.487 81.041 101.334C81.1175 101.334 81.2707 101.257 81.3473 101.257C81.5005 101.181 81.6536 101.104 81.7302 101.104C81.96 100.951 82.2663 100.798 82.496 100.644C83.0321 100.338 83.415 99.9552 83.798 99.4957C84.6404 98.7299 84.9467 97.7343 84.717 96.7387ZM66.6433 94.7475C66.6433 94.6709 66.6433 94.6709 66.5667 94.5944C66.6433 94.6709 66.6433 94.6709 66.6433 94.7475C66.7199 94.6709 66.7964 94.6709 66.873 94.6709C66.9496 94.6709 66.9496 94.6709 67.0262 94.6709C66.9496 94.6709 66.873 94.7475 66.7964 94.7475C66.7199 94.7475 66.6433 94.7475 66.6433 94.7475Z" fill="#80829B"/>
<path d="M156.937 98.9606C156.554 98.5011 156.171 98.1182 155.712 97.7353C155.405 97.429 155.252 97.429 154.946 97.9651C154.793 98.1948 154.793 98.348 154.486 98.4246C153.797 98.5011 153.338 99.1904 153.414 99.8796V99.9562C153.644 100.722 153.261 101.564 152.495 101.871C152.189 102.024 152.036 102.33 152.112 102.637C152.342 103.326 152.342 103.785 151.729 104.168C151.806 103.785 151.883 103.402 151.806 103.02C151.806 102.713 151.653 102.33 151.576 102.024C151.5 101.871 151.423 101.718 151.27 101.564L151.193 101.488C151.117 101.411 151.117 101.411 151.04 101.335C150.734 101.105 150.351 100.952 149.891 100.875C149.279 100.799 148.666 101.028 148.207 101.411C148.053 101.564 147.9 101.718 147.747 101.871C147.671 102.024 147.517 102.177 147.517 102.33C147.134 102.024 146.981 101.488 147.211 101.028C147.364 100.569 146.675 100.109 146.062 99.4967C145.833 99.267 145.067 99.1138 144.914 99.267C144.684 99.5733 144.607 100.033 144.224 100.263C143.765 100.569 143.688 101.182 143.995 101.641C143.535 102.024 143.305 102.56 143.841 103.096C143.918 103.173 144.071 103.326 143.995 103.402C143.688 103.862 143.612 104.475 143.688 105.011C143.688 105.317 143.765 105.547 143.841 105.777C143.918 106.083 144.071 106.389 144.148 106.619C144.301 107.002 144.454 107.385 144.684 107.691C144.76 107.844 144.914 107.997 144.99 108.151C145.067 108.304 145.22 108.457 145.373 108.61C145.526 108.763 145.679 108.916 145.909 108.993C145.909 109.299 145.909 109.682 146.062 109.989C146.215 110.295 146.598 110.295 146.752 110.601C146.828 110.831 146.828 111.061 146.828 111.291C146.828 111.52 146.828 111.75 146.981 111.75C147.747 111.827 147.977 112.669 148.59 113.129C148.972 113.358 149.355 113.511 149.815 113.588C150.198 113.588 150.581 113.741 150.964 113.971C151.423 113.358 151.729 113.435 152.189 113.665C152.572 113.358 152.955 113.052 153.261 112.669L153.797 111.98C153.95 111.75 154.104 111.444 154.257 111.137C154.563 110.525 154.946 109.912 155.176 109.299C155.405 108.61 155.712 107.844 155.942 107.155C156.018 106.849 155.942 106.466 155.865 106.159C155.865 106.006 155.865 105.93 155.865 105.853C155.942 105.777 156.018 105.7 156.095 105.7C156.554 105.47 156.478 105.164 156.324 104.704C156.018 103.862 156.171 103.249 156.861 102.866C157.473 102.56 157.856 102.254 157.626 101.564C157.55 101.258 157.55 100.952 157.78 100.645C157.856 100.339 157.473 99.6499 156.937 98.9606ZM148.283 104.781C147.9 105.24 147.747 105.394 148.283 104.781V104.781ZM150.964 106.236C150.964 106.159 151.04 106.083 151.04 106.006C151.117 105.853 151.117 105.777 151.193 105.623V105.7C151.27 106.849 151.04 107.308 150.964 106.236ZM151.806 105.7C151.729 105.853 151.653 106.083 151.5 106.159C151.423 106.159 151.347 106.083 151.27 105.7C151.27 105.623 151.27 105.623 151.27 105.623C151.347 105.394 151.423 105.24 151.5 105.011C151.729 105.24 151.883 105.547 151.806 105.7Z" fill="#006ADC"/>
<path d="M164.443 93.9821C164.443 93.5992 164.29 93.2163 164.214 92.8333C163.984 92.2973 163.601 91.8378 163.065 91.5314C162.759 91.3783 162.452 91.2251 162.146 91.1485C161.993 90.9188 161.916 90.6124 161.916 90.3061C161.686 89.2339 161.074 89.0042 160.308 89.2339C160.078 89.3105 159.772 89.2339 159.542 89.0807C159.236 88.9276 158.929 88.7744 158.623 88.7744C158.47 88.7744 158.317 88.7744 158.164 88.7744C158.01 88.7744 157.857 88.851 157.704 88.851C157.245 89.0042 156.785 89.3105 156.402 89.6934C155.713 90.3061 155.177 91.0719 154.947 91.9909C154.87 92.2207 154.794 92.527 154.794 92.7567C154.794 93.0631 154.794 93.3694 154.87 93.6757C155.1 94.8245 155.177 95.9732 155.1 97.122C155.1 97.4283 155.177 97.7347 155.253 97.9644C155.253 98.041 155.253 98.041 155.253 98.1176C155.177 98.3473 155.177 98.5771 155.1 98.8068C155.024 99.1132 155.024 99.3429 155.024 99.6493C155.024 100.032 155.1 100.339 155.177 100.721C155.33 101.104 155.483 101.487 155.713 101.794C155.483 102.559 154.87 103.172 154.105 103.249C153.262 103.402 152.573 103.708 152.496 104.627C152.42 105.087 152.113 105.47 151.807 105.776C151.348 106.389 151.577 107.154 152.037 107.92C152.343 108.38 152.726 108.839 153.186 109.299C153.492 109.605 153.645 109.682 153.951 109.222C154.105 108.992 154.181 108.839 154.488 108.839C155.253 108.916 155.866 108.38 155.943 107.614C156.019 106.772 156.785 106.159 157.627 106.159C158.01 106.159 158.317 105.929 158.393 105.546C158.546 104.78 158.853 104.321 159.695 104.244C160.308 104.168 160.767 103.708 160.844 103.096C160.844 102.942 160.921 102.866 160.921 102.713C161.916 102.023 162.682 101.104 163.141 99.9556C163.141 99.879 163.141 99.879 163.218 99.8024L163.295 99.7258C163.601 99.4195 163.907 99.1132 164.214 98.8834C164.443 98.7303 164.597 98.4239 164.597 98.1176C164.673 97.2752 164.597 96.6625 164.673 96.1264C164.443 95.284 164.443 94.5948 164.443 93.9821ZM157.091 102.789C157.091 102.789 156.938 102.713 157.015 102.713L157.091 102.789H157.168H157.245H157.091Z" fill="#80829B"/>
<path d="M139.092 132.504C138.939 131.968 138.633 131.432 138.403 130.896C138.173 130.513 138.097 130.436 137.714 130.743C137.561 130.896 137.407 130.972 137.178 130.896C136.565 130.589 135.876 130.896 135.646 131.508V131.585C135.416 132.274 134.65 132.657 133.961 132.351C133.885 132.351 133.885 132.351 133.808 132.274C133.502 132.121 133.195 132.198 132.966 132.504C132.583 133.117 132.2 133.423 131.434 133.117C130.974 132.887 130.362 133.117 130.132 133.576C129.902 134.036 129.443 134.342 128.983 134.495C128.294 134.648 127.681 134.802 126.992 134.878C126.686 134.878 126.379 134.802 126.15 134.648C126.073 134.572 125.92 134.572 125.843 134.572C125.767 134.419 125.69 134.265 125.614 134.189C125.384 133.806 125.077 133.576 124.695 133.346C124.388 133.193 124.082 133.117 123.776 133.04C123.393 133.04 123.01 133.04 122.627 133.117C122.55 133.117 122.474 133.117 122.474 133.117C122.474 133.117 122.474 133.117 122.397 133.117L122.32 133.04C122.32 132.964 122.32 132.887 122.244 132.964C122.244 133.04 122.167 133.117 122.167 133.117L122.091 133.193H122.014H121.861C121.708 133.117 121.555 133.117 121.401 133.117C121.401 133.04 121.478 132.887 121.401 132.81C121.401 132.198 121.631 131.585 122.167 131.279C122.703 130.819 122.32 129.977 122.014 129.288C121.938 128.981 121.248 128.522 121.095 128.598C120.712 128.828 120.406 129.134 120.023 129.211C119.334 129.288 119.181 129.747 119.027 130.283C118.415 130.36 117.955 130.666 117.955 131.355C117.955 131.508 117.955 131.662 117.879 131.662C116.73 131.968 116.117 132.964 115.581 133.883C115.122 134.572 114.815 135.414 114.739 136.257C114.662 137.022 114.815 137.788 115.045 138.554C115.122 138.86 115.198 139.167 115.351 139.397L115.581 139.933C115.658 140.162 115.734 140.392 115.811 140.622C115.964 141.464 116.347 142.154 116.883 142.843C117.113 143.149 117.419 143.379 117.725 143.532C118.108 143.685 118.491 143.762 118.874 143.762C119.257 143.762 119.64 143.685 119.946 143.532C120.329 143.379 120.636 143.149 121.019 142.919C121.784 142.383 122.397 141.847 123.01 141.158C123.393 140.622 123.699 140.086 123.852 139.473C124.005 139.55 124.158 139.626 124.312 139.703C124.848 139.32 125.537 139.397 126.073 139.779C127.988 139.55 129.826 139.09 131.587 138.478C131.74 138.401 131.893 138.095 132.047 137.941C132.2 137.788 132.353 137.788 132.659 137.865C133.195 138.095 133.425 137.788 133.731 137.405C134.191 136.64 135.11 136.257 135.952 136.41C136.795 136.563 137.484 136.486 137.867 135.644C138.097 135.184 138.48 135.031 138.786 134.802C139.322 134.265 139.322 133.423 139.092 132.504ZM119.793 137.329L119.64 137.712L119.563 137.865C119.563 137.865 119.563 137.941 119.104 138.401C119.181 138.248 119.487 137.941 119.257 138.095C119.104 138.171 118.951 138.171 118.874 138.095C118.798 137.865 118.798 137.635 118.874 137.405C119.181 136.793 119.104 136.64 118.644 136.486C118.491 136.41 118.491 136.333 118.644 136.333C118.798 136.333 118.874 136.333 119.027 136.257C119.104 136.257 119.104 136.257 119.181 136.18C119.181 136.18 119.257 136.18 119.257 136.103L119.334 135.95C119.334 135.95 119.334 135.95 119.334 135.874C119.334 135.874 119.334 135.95 119.41 135.95L119.487 136.103L119.563 136.333C119.64 136.563 119.793 136.716 119.87 136.946C119.87 137.099 119.87 137.176 119.793 137.329Z" fill="#006ADC"/>
<path d="M139.629 130.359C139.629 130.129 139.552 129.976 139.476 129.746C139.399 129.517 139.246 129.287 139.093 129.057L139.246 128.981V128.904C139.246 128.674 139.17 128.521 139.093 128.368C138.633 127.908 138.097 127.449 137.485 127.143C137.332 127.066 137.178 126.989 137.102 126.913C137.025 126.913 136.949 126.836 136.872 126.836H136.795C136.795 126.836 136.872 126.76 136.795 126.76H136.719C136.413 126.683 136.106 126.606 135.8 126.606C135.57 126.606 135.34 126.53 135.111 126.53C134.651 126.453 134.192 126.836 133.885 127.219C133.579 127.602 133.426 127.985 133.119 127.985C132.354 127.832 131.205 127.908 130.745 128.751C130.286 129.593 131.205 130.359 131.435 130.512C131.971 130.895 132.583 131.125 133.196 131.278C133.426 131.278 133.732 131.278 133.885 131.125C134.115 130.895 134.268 130.589 134.421 130.359C134.498 130.282 134.498 130.512 134.498 130.589C134.575 130.742 134.651 130.819 134.728 130.895C134.804 130.895 134.881 130.972 134.957 131.048C135.111 131.125 135.264 131.278 135.417 131.431C135.494 131.508 135.57 131.661 135.647 131.738L135.723 131.814C135.647 131.967 135.187 132.044 134.957 132.12C134.881 132.274 134.957 132.427 135.264 132.733C135.34 132.81 135.34 132.963 135.34 133.116C135.34 133.269 135.34 133.422 135.264 133.576C135.111 133.882 134.881 134.035 134.804 133.958C134.498 133.652 134.192 133.422 133.809 133.269C133.502 133.346 133.196 133.499 132.966 133.729C132.277 134.188 131.435 134.648 130.745 133.576C130.439 133.116 129.29 133.805 128.984 134.265C128.371 134.418 127.682 134.418 126.993 134.418C126.84 134.341 126.686 133.958 126.61 133.958C126.457 133.958 126.227 134.265 126.074 134.265C125.461 134.418 124.925 132.733 124.389 133.958C124.159 133.958 124.083 133.346 123.393 133.422C122.781 133.499 121.402 132.197 120.79 132.963C120.407 133.422 120.1 133.193 119.717 133.269C119.411 133.269 119.258 132.963 119.028 132.58C118.645 131.891 117.42 132.886 116.884 132.657C116.424 132.503 116.424 132.503 116.501 133.346C116.501 133.882 116.501 134.495 116.654 135.031C117.037 135.72 117.343 136.562 117.65 137.175C117.956 137.711 118.339 137.405 118.569 138.017C119.028 139.09 119.564 137.252 120.1 138.324C120.177 138.553 120.33 138.707 120.483 138.86C121.555 139.626 122.704 138.247 123.776 138.477C124.695 138.63 125.614 138.86 126.533 138.936C128.448 139.166 130.209 138.477 132.2 138.477C132.43 138.477 132.66 138.707 132.89 138.936C133.196 139.243 133.426 139.09 133.579 138.86C133.732 138.63 133.885 138.4 134.192 138.477C134.421 138.553 134.651 138.86 134.804 138.783C134.957 138.783 135.034 138.324 135.264 138.4C135.494 138.553 135.8 138.553 136.106 138.553C136.413 138.553 136.719 138.477 136.949 138.4C137.485 138.171 138.021 137.864 138.404 137.405L138.71 136.562C138.787 136.256 138.863 136.026 138.863 135.72C138.94 135.567 139.016 135.414 139.016 135.26C139.093 135.107 139.093 134.954 139.093 134.801C139.093 134.571 139.093 134.265 139.093 134.035C139.093 133.499 139.093 132.963 139.246 132.503C139.323 132.274 139.399 132.044 139.476 131.738C139.552 131.508 139.552 131.355 139.629 131.125C139.629 131.048 139.629 130.972 139.629 130.895C139.706 130.589 139.706 130.436 139.629 130.359ZM137.178 130.819L137.255 130.742L137.332 130.665C137.255 130.665 137.255 130.742 137.178 130.819Z" fill="#80829B"/>
</g>
<defs>
<clipPath id="clip0_2567_53283">
<rect width="200" height="200" fill="white"/>
</clipPath>
</defs>
</svg>
