<svg width="300" height="300" viewBox="0 0 300 300" fill="none" xmlns="http://www.w3.org/2000/svg">
<path d="M256.5 201.281C256.5 200.343 256.406 199.406 256.219 198.468C256.031 197.531 255.75 196.593 255.469 195.75C254.812 193.875 253.687 192.281 252.281 190.875C251.531 190.125 250.781 189.375 250.031 188.625C250.125 188.531 250.312 188.437 250.406 188.25C250.969 187.781 251.437 187.218 251.906 186.562C252.844 185.25 253.594 183.843 253.969 182.25C254.156 181.218 254.344 180.187 254.437 179.156C254.437 178.219 254.719 177.281 255.094 176.344C255.562 174.937 255.75 173.531 255.562 172.031C255.469 170.625 255.187 169.219 255.187 167.812C255.094 165.187 254.437 162.656 253.125 160.406C252.469 159.281 251.812 158.156 251.062 157.125C250.687 156.562 250.312 156.094 249.937 155.625C249.562 155.156 249.187 154.593 248.812 154.125C248.437 153.656 247.594 153.656 246.937 153.375C246.281 153.094 245.625 152.719 244.969 152.344C244.687 152.156 244.312 151.969 244.031 151.687C243.75 151.5 243.375 151.312 243.094 151.031C241.875 150.094 240.75 149.156 239.719 148.125C238.875 147.375 238.312 146.344 237.469 145.594C237.094 145.125 236.625 144.75 236.062 144.469C235.5 144.187 234.844 144 234.187 143.906C233.437 143.812 232.687 143.812 231.937 143.812C231.187 143.812 230.437 143.812 229.781 143.719C228.281 143.625 226.875 142.875 225.937 141.75C223.594 141.75 221.156 140.812 218.906 141.281C217.781 141.469 216.75 141.75 215.625 142.031C213.281 143.062 210.656 142.969 208.406 141.75C207.469 141.281 206.344 141.094 205.219 141.375C204.656 141.562 203.437 141.75 202.5 141.937L201.094 142.312L199.781 142.687C198.187 143.156 196.594 143.906 195.281 144.844C193.781 145.969 192.187 147 190.781 148.125C190.5 148.312 190.219 148.312 189.844 148.312C188.625 147.937 187.312 148.219 186.375 149.062C185.062 150.187 183.562 151.031 182.062 151.781C181.312 152.062 180.562 152.344 179.812 152.625C179.437 152.719 179.062 152.812 178.687 152.906C178.5 152.906 178.312 153 178.125 153H178.031V152.906C177.937 152.719 177.937 152.625 177.937 152.625C177.937 152.719 177.937 152.812 177.562 153.094C177.375 153.281 177.094 153.187 177.562 152.812C177.656 152.719 177.75 152.625 177.844 152.625C178.031 152.531 178.031 152.531 177.844 152.531C177.656 152.531 177.187 152.437 177.187 152.344C177.187 152.25 177.281 152.25 177.469 152.25C177.75 151.875 177.937 151.406 178.031 150.937C178.125 150 178.687 149.25 179.437 148.687C179.625 148.5 179.906 148.312 180.187 148.125C181.781 146.625 181.969 143.812 184.406 142.5C184.406 141.937 184.406 141.375 184.312 140.906C183.937 139.312 184.219 137.719 185.156 136.312C185.625 135.562 186.187 135.187 186.469 135.469C186.937 135.937 187.406 136.406 188.344 135.469C188.906 135 189.375 134.437 189.937 133.875C190.5 133.312 190.969 132.75 191.437 132.187C191.906 131.625 192.094 130.875 192.094 130.125C191.531 128.531 191.906 127.219 193.312 125.344C194.062 124.406 194.531 123.281 194.719 122.062C194.719 118.312 195.937 115.125 196.875 111.656C196.687 111 196.594 110.344 196.594 109.781C196.594 109.5 196.594 109.219 196.687 108.937C196.687 108.656 196.781 108.375 196.875 108.094C197.156 106.969 197.531 105.844 197.812 104.625C198 103.781 197.719 102.844 197.156 102.187C196.687 101.719 195.937 101.062 195.844 100.594C195.562 98.7185 194.812 96.9373 193.781 95.3435C193.406 94.781 193.031 94.1248 192.656 93.4685C192.281 92.8123 191.812 92.156 191.344 91.5935C189.844 90.0935 188.156 88.781 186.187 87.8435C184.219 86.8123 182.344 85.9685 180.469 85.2185C179.625 84.9373 178.781 84.656 177.844 84.5623C176.906 84.4685 176.062 84.3748 175.125 84.4685C174.187 84.5623 173.25 84.7498 172.312 85.031C171.844 85.2185 171.375 85.406 171 85.5935C170.531 85.781 170.156 86.0623 169.781 86.3435C169.219 86.7185 168.656 86.9998 168.094 87.281C167.531 87.5623 166.875 87.7498 166.312 88.1248C165.75 88.406 165.187 88.781 164.625 89.156C164.156 89.531 163.687 89.9998 163.312 90.5623C162.937 91.1248 162.656 91.6873 162.281 92.156C161.906 92.6248 161.531 92.9998 161.25 93.4685C160.875 93.8435 160.5 94.2185 160.125 94.5935C159.75 94.9685 159.375 95.2498 158.906 95.6248C158.437 95.906 157.969 96.3748 157.687 96.9373C157.5 97.4998 157.5 98.0623 157.594 98.6248C157.875 99.7498 157.781 100.875 157.312 101.906C155.906 104.156 155.906 106.312 155.719 108.656C155.531 111.469 154.875 113.812 155.344 116.156C154.875 117.375 154.406 118.687 154.031 120C153.187 124.219 152.156 128.344 150.75 132.281C150.469 133.125 150.281 134.062 150.281 135C150.281 136.312 149.625 137.437 148.5 138.187C147 139.125 145.5 139.875 145.312 142.219C144.281 143.062 143.625 144.281 143.25 145.594C140.812 147.656 139.687 150.094 138.656 152.906C138 154.687 136.687 156.187 135 157.031C134.156 157.406 133.5 157.969 133.125 158.719C132.75 159.562 132.187 160.219 131.344 160.594C130.594 160.875 129.844 160.969 129.094 160.875C128.531 160.781 127.875 160.969 127.781 161.344C127.312 163.875 124.781 164.906 122.156 165.656C121.594 165.843 121.031 166.031 120.562 166.312C120 166.593 119.531 166.969 118.969 167.156C118.312 167.531 117.469 167.719 116.719 167.812C115.969 167.812 115.125 167.718 114.469 167.531C113.719 167.343 113.25 167.344 112.875 167.812C112.312 168.656 111.656 169.406 111 170.25C110.625 170.719 110.906 171.656 111.656 172.031C112.5 172.5 113.344 172.875 114.187 173.156C115.5 173.343 117 173.344 118.406 173.437C121.312 173.719 124.312 173.343 127.031 172.406C129.844 171.375 132.375 169.687 134.437 167.625C134.906 167.062 135.469 166.593 136.031 166.125C136.5 165.656 137.156 165.187 137.812 165C140.437 163.875 142.5 161.625 144.187 159.281C145.875 156.937 147.75 154.687 148.594 151.875C149.531 148.875 151.219 146.062 153.375 143.719C155.812 141.187 157.125 137.531 159.375 134.812C159.937 133.875 160.219 132.844 160.219 131.719C160.219 129.562 160.5 127.406 160.969 125.344C161.437 123.656 161.625 121.875 161.344 120.094C161.062 118.031 161.437 115.875 162.469 114.094C162.75 113.625 162.937 113.156 163.031 112.594C163.125 112.125 163.219 111.656 163.125 111.094C162.937 109.781 163.219 108.469 163.781 107.25C164.344 106.219 164.156 104.719 165.094 103.687C165.469 103.312 165.656 102.937 165.844 102.469C166.031 102 166.125 101.531 166.219 101.062C166.312 100.406 166.5 99.8435 166.875 99.281C168.094 98.4373 169.031 97.406 170.062 96.5623C171 95.6248 172.219 95.0623 173.437 94.6873C175.406 94.3123 177.094 94.1248 179.156 93.8435C180.656 93.656 182.156 93.9373 183.469 94.6873C184.875 95.531 186 96.7498 186.844 98.156C187.687 99.5623 188.25 101.062 188.625 102.562C189 104.156 189.187 105.75 189.187 107.344C189.187 110.625 188.812 113.906 187.969 117.187C187.219 120.281 186.187 123.187 184.875 126.094C184.687 128.344 183.281 129.75 181.687 131.062C180.281 132.094 179.25 133.406 178.5 135C177.562 136.875 176.531 138.656 175.219 140.344C174.187 141.844 172.969 143.156 172.5 144.844C171.937 147.094 169.969 148.031 169.031 150.187C168.562 151.406 168.187 152.625 168 153.937C167.812 155.25 167.812 156.562 168 157.875C168.187 159.562 168.844 161.062 169.781 162.469C170.625 163.406 171.75 163.875 173.062 164.062C174.094 164.25 175.219 164.156 176.156 163.781C176.625 163.594 177.094 163.406 177.562 163.219C178.031 163.031 178.5 162.844 178.875 162.75L180.562 162.281C181.125 162.187 181.781 161.906 182.25 161.812C183.281 161.531 184.312 161.25 185.344 160.969C185.719 160.875 186 160.687 186.281 160.5C188.25 157.969 192.187 158.156 194.156 155.719C196.875 155.344 199.312 153.844 201.844 153C202.969 152.625 204.187 152.344 205.312 152.062C205.594 152.062 205.875 151.969 206.156 151.969L207.094 151.875C207.75 151.781 208.406 151.781 209.062 151.687C211.594 151.5 214.219 151.687 216.656 152.25C216.937 152.343 217.312 152.344 217.687 152.344C219.281 152.156 220.969 152.25 222.562 152.625C223.406 152.812 224.437 152.437 225.375 152.906C225.937 153.187 226.594 153.281 227.25 153.281C227.906 153.281 228.562 153.281 229.125 153.375C231.75 153.844 234.281 155.156 235.031 157.406C235.125 157.781 235.406 158.156 235.687 158.531C235.875 158.719 235.969 158.812 236.156 159C236.344 159.187 236.437 159.281 236.625 159.375C236.906 159.562 237.281 159.75 237.75 159.75C238.125 159.843 238.5 159.844 238.875 159.844C239.25 159.844 239.531 159.844 239.906 159.937C240.187 160.031 240.375 160.219 240.469 160.406C240.844 161.062 240.937 161.812 240.75 162.562C240.656 163.031 240.75 163.594 241.031 164.062C242.531 165.937 243.656 168 244.594 170.156C244.781 170.719 244.969 171.281 244.969 171.844C244.969 172.406 244.875 172.969 244.687 173.531C244.406 174.187 244.125 174.844 243.937 175.406C243.75 175.687 243.656 175.969 243.469 176.344L243.281 176.812L243 177.187C242.812 177.469 242.719 177.75 242.625 178.031C242.531 178.312 242.344 178.594 242.344 178.875C242.25 179.437 242.25 180.093 242.531 180.656C242.625 180.937 242.625 181.125 242.625 181.406C242.531 181.593 242.344 181.781 242.156 181.969C241.969 182.062 241.875 182.156 241.687 182.156C241.312 182.344 240.844 182.437 240.375 182.437C239.812 182.344 239.25 182.25 238.781 182.062L238.406 181.969L238.219 181.875C238.125 181.875 238.031 181.875 237.937 181.875C237.562 181.781 237.094 181.781 236.625 181.687C236.062 181.687 235.406 181.687 234.844 181.687C234 181.781 233.062 181.968 232.219 182.25C231 182.718 229.875 183.562 229.125 184.593C228.469 185.531 228.094 186.562 228 187.687C227.906 188.343 227.906 188.906 227.906 189.469C227.906 190.125 227.906 190.781 228 191.531C228.187 192.562 228.656 193.593 229.312 194.437C230.062 195.281 230.906 195.843 231.937 196.312C232.594 196.593 233.344 196.781 234.094 196.781C234.562 196.781 235.031 196.781 235.5 196.687C236.156 196.5 236.719 196.125 237.187 195.656C237.375 195.468 237.469 195.281 237.656 195C238.031 194.531 238.406 194.531 238.969 195C239.625 195.562 239.906 195.843 240.187 195.937C240.375 195.937 240.469 195.937 240.656 195.843C240.75 195.75 240.937 195.656 241.219 195.468C241.594 195.187 241.969 195 242.344 194.906C242.437 194.906 242.531 194.906 242.719 194.906C243.281 195.187 243.094 195.843 243.094 196.312C243.094 196.5 243.094 196.687 243.281 196.875C243.375 197.062 243.562 197.062 243.75 197.062C244.125 196.968 244.5 197.062 244.875 197.25C245.25 197.437 245.531 197.718 245.719 198.093C246.187 198.843 246.281 199.781 246.094 200.719C245.812 202.312 245.906 204 246.281 205.593C246.469 206.156 246.281 206.718 245.906 207.093C245.719 207.281 245.437 207.562 245.25 207.75C244.969 207.937 244.781 208.125 244.594 208.219C244.125 208.5 243.656 208.687 243.094 208.687C241.781 208.875 240.937 210.562 239.156 211.312C237.656 211.968 235.875 212.437 233.906 213.094C232.031 213.656 230.344 214.5 228.844 215.625C227.812 217.218 227.062 218.906 226.5 220.687L226.312 221.25L226.219 221.531C226.219 221.718 226.125 221.906 226.125 222.093C226.125 222.468 226.031 222.844 226.125 223.219C226.125 223.594 226.219 223.968 226.312 224.437C226.406 224.812 226.5 225.187 226.687 225.562C226.781 225.75 226.875 225.937 226.969 226.125L227.062 226.406C227.156 226.593 227.25 226.781 227.25 226.875V227.062C227.156 227.437 227.25 227.718 227.531 227.812L227.719 227.906C227.906 228 228.094 228.093 228.187 228.187C228.281 228.187 228.187 228.281 228.187 228.375C228.187 228.469 228.187 228.468 228.094 228.562C228.094 228.656 228 228.75 227.906 228.844C227.719 229.219 227.344 229.593 226.969 229.781C226.594 230.062 226.312 230.25 225.937 230.437L225.375 230.812C224.719 231.187 224.062 231.656 223.312 232.125C220.125 234.281 217.219 236.718 214.687 239.531C213.094 241.406 211.969 243.656 211.406 246.093C211.031 247.5 210.75 249 210.75 250.406C210.75 251.156 209.906 251.531 209.812 252.468C209.719 253.125 208.687 253.125 208.406 253.5C208.031 254.343 207.187 254.906 206.344 255C205.594 255.093 205.031 255.469 204.562 256.125C204.094 256.687 203.437 257.062 202.687 257.156C201.937 257.25 201.281 257.625 200.625 258.093C200.437 258.281 200.156 258.187 199.875 258.281C198.562 258.656 197.156 258.093 196.5 256.968C195.937 256.406 195.094 256.5 194.531 257.062L194.437 257.156C194.25 257.531 194.062 257.906 193.969 258.375C193.875 258.562 194.156 258.843 194.156 259.031C193.969 260.343 192.281 261 190.969 259.968C188.625 258.093 185.156 257.437 182.25 255.937C180.562 256.218 178.875 255.093 177.187 255.281C175.781 255.375 174.469 255.093 173.25 254.437C172.406 253.875 171.469 253.5 170.531 253.406C168.469 253.593 166.781 252.375 164.812 252.187C162.844 252 161.531 250.406 159.75 249.656C158.062 248.812 156.469 247.875 154.969 246.75C154.219 246.281 154.031 246.562 153.844 247.125C153.562 247.968 152.906 248.156 152.062 247.687C151.125 247.219 150.187 246.75 149.344 246.187C148.406 245.625 147.562 245.062 146.625 244.593C145.687 244.031 144.844 243.469 143.906 243C143.437 242.812 142.875 242.437 142.312 242.25C141.75 241.968 141.187 241.781 140.625 241.5C140.344 241.312 140.156 241.031 140.062 240.656C139.687 238.969 138.187 238.125 136.125 237.375C135.469 237.093 134.812 237 134.062 236.906C133.312 236.812 132.656 236.718 131.906 236.531C131.156 236.437 130.5 236.156 129.937 235.781C129.187 235.406 128.625 234.843 128.062 234.093C127.219 233.812 126.375 233.625 125.531 233.625C124.687 233.625 123.844 233.625 123 233.625C119.812 233.531 118.687 234.656 118.5 236.156C118.5 236.343 118.125 236.531 117.844 236.625C117.562 236.625 117.375 236.531 117.094 236.437C116.906 236.25 116.719 236.062 116.625 235.875C116.437 235.406 116.25 235.031 115.969 234.656C115.219 233.906 114 234.375 113.062 234.562C109.594 234.75 109.594 234.75 108.094 235.406C107.625 235.593 106.875 236.156 106.969 236.343C108 237.843 105.656 238.125 104.625 238.968C104.25 239.343 104.156 239.906 104.437 240.281C104.625 240.468 104.812 240.562 105.094 240.656C107.812 241.031 110.719 241.219 112.781 242.531C113.344 242.812 114 243 114.656 242.906C117.562 242.718 120.469 243.094 123.281 243.937C123.562 244.031 124.219 243.562 124.687 243.281C125.344 242.906 125.812 243 126 243.75C126.281 244.406 126.656 244.969 127.312 245.344C127.594 245.531 127.969 245.718 128.25 245.906C128.625 246.093 128.906 246.281 129.281 246.375C129.656 246.562 130.031 246.656 130.312 246.843C130.687 247.031 130.969 247.125 131.344 247.312C132 247.593 132.75 247.593 133.5 247.312C133.781 247.218 134.062 247.218 134.344 247.406C134.625 247.593 134.719 247.875 134.812 248.156C134.906 249 135.375 249.843 136.031 250.406L137.437 251.531C137.906 251.906 138.469 252.375 139.031 252.75C140.062 253.5 141.281 254.156 142.5 254.625C143.906 255.093 145.125 255.75 146.25 256.781C147.656 258 149.344 258.75 151.219 258.937C151.875 259.031 152.531 259.218 153.187 259.593C153.937 260.343 154.969 260.906 156 261.187C157.031 261.468 158.062 261.562 159.094 261.656C159.844 261.75 160.5 261.937 161.062 262.312C163.219 263.718 165.656 264.281 168.187 264C169.969 264 171.75 264.375 173.344 265.125C174.281 265.593 175.219 265.968 176.25 266.156C178.5 266.156 180.187 267 182.25 267.843C184.875 269.062 187.875 269.437 190.781 268.781C192.094 268.406 193.594 268.875 194.531 269.906C195.375 270.562 196.406 270.937 197.531 270.843C199.875 270.843 202.219 270.656 204.469 270.187C206.812 269.718 209.062 269.156 211.5 268.5C212.344 268.218 213.187 267.75 213.844 267.093C214.219 266.718 214.687 266.25 215.062 265.968C215.531 265.593 216 265.312 216.469 264.937C216.937 264.562 217.406 264.187 217.781 263.812C218.25 263.437 218.531 262.968 218.812 262.406C220.312 259.875 221.531 257.343 222.562 254.625C223.219 252.656 223.781 250.594 224.156 248.625C224.344 247.969 224.437 247.406 224.625 246.75C224.719 246.281 224.812 245.906 225 245.344C225.094 245.156 225.75 245.25 226.125 245.25C226.594 245.25 227.156 245.437 227.437 245.25C228.094 244.781 228.844 244.406 229.687 243.843L231.094 243.093L231.844 242.718L233.156 241.968C234.937 240.937 236.719 239.812 238.312 238.593C239.812 237.375 241.031 235.968 242.062 234.375C242.344 233.906 242.437 233.437 242.531 232.968C242.719 231.562 243 230.25 243.187 228.75C243.281 228 243.375 227.25 243.562 226.5C243.656 226.219 243.656 225.844 243.656 225.562C243.656 225.281 243.656 225 243.75 224.718C243.75 224.25 243.844 223.875 243.844 223.406C242.812 222.656 241.781 221.906 240.469 221.062L239.812 220.687C240 220.593 240.281 220.593 240.562 220.593C241.781 220.968 243 221.156 244.219 221.156C245.344 221.062 246.375 220.687 247.406 220.125C248.062 219.843 248.625 219.469 249.187 219C249.844 218.531 250.5 217.968 251.062 217.5C252 216.656 252.75 215.718 253.406 214.687L253.875 213.844L254.25 213.094C254.531 212.625 254.719 212.062 254.906 211.593C255.094 211.125 255.281 210.562 255.469 210.093C255.656 209.625 255.75 209.062 255.937 208.593C256.406 205.5 256.594 203.343 256.5 201.281Z" fill="#000638"/>
<path d="M97.2189 224.906C98.0627 226.218 98.7189 227.625 99.0002 229.218C99.8439 229.312 100.219 229.968 100.594 230.625C100.969 231.281 101.438 231.937 102.375 231.843C103.125 231.75 103.875 232.5 104.344 233.156C104.813 233.812 105.188 234.468 106.031 234.187C106.406 234.093 106.781 233.906 107.156 233.625C107.25 233.531 107.344 233.437 107.344 233.25V233.062C107.438 232.968 107.438 232.875 107.531 232.781C107.813 232.5 108.094 232.593 108.563 232.687C109.125 232.781 109.688 232.781 110.156 232.593C110.625 232.312 111.094 231.937 111.563 231.562C112.031 231.187 112.406 230.812 112.781 230.343C113.625 229.406 114.281 228.281 114.844 227.156C115.688 225.562 116.344 223.875 116.813 222.093C117.094 221.437 117.188 220.687 117 220.031C116.625 218.906 116.531 217.687 116.813 216.562C117.281 214.125 117.656 211.781 117.938 209.437C118.031 208.781 118.688 208.218 118.781 207.468C118.781 206.812 118.688 206.156 118.406 205.5C119.719 204.093 118.031 202.875 118.125 201.468C118.219 200.062 118.313 198.562 117.375 197.343C117.094 196.968 117.281 196.687 117.75 196.312C118.125 196.125 118.406 195.843 118.688 195.375C118.875 195 118.875 194.25 118.688 194.062C117.75 192.937 117.281 191.531 117.281 190.125C117.094 188.531 117.188 186.656 115.969 185.437C114.938 184.5 114.469 183.187 114.656 181.875C114.656 181.312 114.563 180.75 114.375 180.281C114.281 180 114.188 179.718 114.094 179.531C114 179.25 113.906 179.062 113.719 178.781C113.531 178.5 113.344 178.031 113.25 177.843C113.156 177.562 112.969 177.375 112.875 177.093C112.594 176.531 112.406 175.875 112.406 175.218C112.406 174.843 112.031 174.75 111.563 174.656C110.625 174.562 109.688 174.468 108.844 174.562C108.563 174.562 108.375 174.375 108.188 174C107.719 173.25 106.781 172.875 105.938 173.343C105.469 173.531 105.281 174.281 104.813 173.718C104.531 173.437 104.438 173.062 104.156 172.687C103.875 172.312 103.219 172.218 102.844 172.5C102.75 172.5 102.75 172.593 102.656 172.687C102.563 172.875 102.469 173.062 102.469 173.25C102.281 173.718 102 174.187 101.625 174.562C100.781 175.218 100.031 176.062 99.4689 177C99.2814 177.375 99.1877 177.75 99.0939 178.125C99.0939 178.5 99.0002 178.968 99.0939 179.343C99.1877 179.812 99.0939 180.281 99.0002 180.656C98.8127 180.937 98.5314 181.031 98.0627 181.125C96.8439 181.312 96.2814 182.25 95.4377 183C94.6877 183.468 93.7502 183.468 93.0002 183C92.8127 182.812 92.7189 182.625 92.6252 182.437C92.2502 180.75 92.8127 178.875 92.7189 177.093C93.1877 176.437 93.8439 175.968 94.3127 175.218C95.1564 174.187 95.5314 172.875 95.2502 171.562C95.0627 171 95.1564 170.437 95.4377 169.968C95.8127 169.5 96.3752 169.125 96.9377 168.937C98.0627 168.468 99.2814 168.281 100.5 167.718C102.844 166.781 105.375 166.406 107.906 166.781C109.406 166.875 111 166.593 112.406 167.156C114.188 167.812 115.781 168.843 117.188 170.156C117.844 170.812 118.406 171.562 118.875 172.406C119.063 172.781 119.25 173.25 119.438 173.718C119.531 173.906 119.531 174.187 119.625 174.375C119.625 174.562 119.719 174.843 119.719 175.031C119.813 175.687 120 176.343 120.281 176.906C120.563 177.562 120.656 178.218 120.563 178.875C120.375 179.531 120.469 179.906 121.031 180.093C121.219 180.187 121.5 180.187 121.688 180.187C122.531 180.281 122.813 180.843 122.625 181.781C122.438 183.093 122.719 184.406 123.375 185.531C123.938 186.468 124.5 187.218 124.125 188.343C124.406 189.187 124.781 190.031 125.063 190.875C125.344 191.718 125.531 192.656 125.625 193.5C125.625 194.437 125.719 195.375 125.719 196.312L125.813 199.125C125.813 200.718 125.906 202.312 125.813 203.906C125.719 205.781 125.625 207.562 125.438 209.437C125.438 209.718 125.344 210 125.344 210.187C125.156 211.125 124.031 211.687 124.594 213C124.969 213.656 125.063 214.5 124.969 215.25C124.594 217.593 124.219 219.937 123.656 222.281C123.094 224.437 122.625 226.593 122.344 228.75C121.875 231.187 120.75 233.343 119.063 235.125C117.75 236.718 116.25 238.031 114.563 239.156C114.094 239.437 113.719 239.718 113.25 239.906C112.781 240.187 112.313 240.375 111.844 240.562L110.438 241.125C109.781 241.406 109.125 241.5 108.469 241.593C107.813 241.687 107.063 241.687 106.406 241.687C105.75 241.593 105.188 241.5 104.531 241.406C103.406 241.125 102.375 240.75 101.438 240.187C99.6564 239.25 98.0627 238.125 96.6564 236.812C95.6252 235.875 94.4064 235.031 93.0939 234.375C92.1564 233.718 91.3127 232.781 90.8439 231.75C90.7502 229.875 89.2502 228.937 88.5002 227.437C87.8439 226.218 87.2814 225 86.9064 223.781C86.4377 222.468 86.4377 221.062 86.7189 219.75C86.8127 219.187 86.1564 217.968 86.3439 217.312C86.5314 216.562 87.3752 216.281 87.8439 215.718C88.1252 215.25 88.3127 214.781 88.5002 214.312C88.8752 213.656 89.1564 213.75 89.4377 214.5C89.5314 214.781 89.5314 214.968 89.6252 215.25C89.8127 215.906 90.3752 216.468 91.0314 216.656C91.6877 216.843 92.2502 217.406 92.3439 218.062C92.4377 219.281 93.1877 220.312 94.1252 220.875C95.3439 221.437 96.1877 222.468 96.6564 223.781C96.8439 224.156 97.0314 224.531 97.2189 224.906Z" fill="#000638"/>
<path d="M256.219 198.187C255.844 197.344 255.094 196.594 254.25 196.125C253.688 195.844 253.313 195.375 253.031 194.812C252.844 194.25 252.563 193.781 252.188 193.312C252 193.125 251.719 192.937 251.438 192.656C249.656 191.437 247.594 190.5 245.438 190.031C245.25 190.031 245.063 189.937 244.875 189.937C245.531 189.375 246.281 188.812 247.031 188.437C248.156 187.687 248.438 187.219 247.875 186C247.406 184.875 247.781 183.469 248.625 182.625C249.188 182.062 249.75 181.594 250.313 181.219C250.5 179.531 251.531 177.937 251.625 176.25C251.625 176.062 251.531 175.781 251.438 175.594C250.875 174.937 249.938 174.656 249.094 174.844C248.063 175.312 247.219 176.156 246 176.062C244.969 175.969 244.688 176.437 244.406 177.937C244.313 178.875 244.031 179.812 243.469 180.656C242.625 181.875 241.781 183.094 240.938 184.219C240.563 184.781 240.281 185.531 240.281 186.187C240.281 186.375 240.281 186.656 240.281 186.844C240.094 187.5 239.438 188.062 238.781 188.062C238.406 187.969 237.938 187.875 237.469 187.875C236.625 188.062 236.813 188.906 236.531 189.469C236.438 189.656 236.344 189.844 236.25 189.937C235.594 190.031 234.844 190.125 234.188 190.219C232.313 190.5 230.906 191.437 229.219 192.281C228.094 192 227.25 192.656 226.406 193.406C225.844 193.875 225.188 194.344 224.531 194.719C223.594 195.187 222.75 195.937 222.094 196.781C221.531 197.531 221.344 198.562 221.531 199.5C221.625 199.781 221.719 200.062 222 200.344C222.188 200.531 222.375 200.625 222.656 200.719C222.938 200.812 223.125 200.812 223.406 200.812C224.063 200.906 224.25 201.281 224.625 202.125C224.813 202.594 225.188 202.875 225.656 203.156C226.125 203.437 226.594 203.531 227.156 203.625C227.438 203.625 227.625 203.719 227.906 203.719C228.188 203.719 228.375 203.719 228.563 203.719C229.031 203.719 229.406 203.625 229.781 203.719C231.656 203.719 233.531 203.156 235.031 202.031C236.344 201.094 237.563 199.969 238.688 198.656C238.969 198.375 239.156 198 239.344 197.719C240.188 197.344 241.125 197.25 241.969 197.531C242.531 197.531 243.094 197.437 243.563 197.156C244.031 196.875 244.688 197.156 244.969 197.625C244.969 197.625 244.969 197.719 245.063 197.719C245.531 197.625 246.094 197.719 246.563 197.906C247.031 198.187 247.031 198.937 247.313 199.219C248.344 200.062 249.094 201.375 249.188 202.781C249.281 203.625 249.563 204.375 250.031 205.031C250.313 205.594 250.219 206.156 249.938 206.625C249.469 208.125 248.625 209.531 247.594 210.844C245.813 213 243.844 214.875 241.594 216.562C241.031 216.937 240.375 217.219 239.625 217.219C239.156 217.219 238.688 217.5 238.406 217.875C237.656 219.094 236.719 220.125 236.063 221.437C235.5 222.469 234.656 222.562 233.719 222.75C232.781 222.937 231.656 223.5 231.375 224.25C230.813 226.219 228.188 225.281 227.625 227.062C225.938 227.156 224.25 227.625 222.844 228.469C222.375 228.656 222 228.844 221.531 229.031C220.125 229.5 219 230.437 218.438 231.75C217.875 232.781 216.844 233.625 215.719 234C215.063 234.281 214.594 234.844 214.594 235.594C214.594 236.344 214.219 237 213.563 237.375C212.906 237.75 212.063 237.844 211.406 237.656C211.125 237.562 210.938 237.469 210.844 237.469C210.75 237.469 210.75 237.656 210.938 237.844C211.219 238.219 211.594 238.406 212.063 238.594C212.625 238.781 213.188 238.875 213.75 238.781C213.938 238.781 214.125 238.781 214.313 238.781C214.406 238.781 214.5 238.875 214.594 238.875C215.25 239.156 215.625 239.906 216.281 240C216.844 240.094 217.688 239.156 218.25 239.25C220.781 239.625 222.938 238.312 225 237.281C226.313 236.625 227.25 235.219 229.031 235.5C230.063 235.219 231 234.656 231.656 233.812C232.406 232.781 233.344 231.844 234.469 231.281C237.375 229.687 240.094 227.812 242.719 225.844C244.031 224.812 245.344 223.875 246.656 222.75C247.969 221.719 249.188 220.687 250.5 219.469C252.094 217.969 253.875 216.187 254.625 213.937C255.469 211.687 256.125 209.344 256.781 207C257.625 203.906 257.344 200.906 256.219 198.187Z" fill="#80829B"/>
<path d="M252.844 197.906C252 196.031 250.969 194.25 249.656 192.656C248.812 191.531 247.875 191.25 247.125 191.719C246.937 191.906 246.75 192 246.469 192.094C245.812 192.375 245.437 192.187 244.781 191.625C244.031 191.156 243.281 190.875 242.344 190.781C241.5 190.781 240.75 190.687 239.906 190.5C237.937 190.031 235.969 189.937 234 190.312C231.938 190.687 229.969 191.344 228.187 192.375C226.594 193.219 225.469 194.719 224.156 196.312C223.594 197.062 223.031 197.812 222.75 198.75C222.375 199.687 222.281 200.719 222.375 201.75C222.469 202.219 222.562 202.687 222.656 203.156C222.844 203.812 223.219 204.375 223.594 204.844C224.437 205.781 225.656 206.344 226.875 206.437C227.906 206.531 228.75 206.531 229.406 206.531C230.156 206.531 230.812 206.531 231.562 206.531C233.344 206.344 234 205.969 234.375 204.562C234.75 203.062 235.875 202.312 237.375 201.469C238.219 201 239.156 200.719 240 200.344C240.562 199.406 241.219 198.469 241.875 197.625C242.156 197.625 242.344 197.625 242.531 197.719C243 197.812 243.469 198 243.75 198.281C244.031 198.562 244.219 198.844 244.594 199.125C244.781 199.219 244.969 199.219 245.437 199.125C245.812 199.031 246.188 199.406 246.281 199.781V199.875C246.281 200.437 246.094 201 245.906 201.562C245.344 202.781 245.062 204.094 244.969 205.5C244.969 205.875 244.406 206.437 244.031 206.625C243.656 206.812 243.187 206.812 242.719 206.719C242.156 206.625 241.688 206.812 241.594 207.281C241.313 208.969 240 210.187 238.687 211.312C237.469 212.344 237.562 214.5 235.406 214.687C234.937 215.344 234.469 216 233.812 216.469C233.719 216.562 233.625 216.562 233.531 216.562L233.25 216.469C232.219 216.094 231.187 215.906 230.062 215.812C229.5 215.812 228.938 215.812 228.375 215.906C228.094 215.906 227.812 216 227.531 216C227.344 216 227.156 216.094 226.969 216.094C225.469 216.375 224.062 216.937 222.844 217.875C221.625 218.719 220.406 219.75 219.375 220.781C219 221.156 218.625 221.531 218.25 221.906C217.688 222.656 217.312 223.5 217.219 224.344C217.125 225.281 217.313 226.312 217.781 227.156C218.625 228.656 220.031 229.594 221.719 229.875C222.375 229.969 223.125 229.969 223.781 229.875C224.719 229.687 225.656 229.312 226.5 228.937C227.25 228.562 228 228.187 228.844 227.812C228.562 228.844 228.281 229.875 227.812 230.812C227.344 231.937 226.406 232.125 225.469 232.5C224.906 232.687 224.344 232.875 223.875 233.156C223.406 233.437 223.031 233.812 222.844 234.281C222.375 235.125 221.531 235.781 220.594 235.875C219.656 235.969 218.812 236.437 218.25 237.281C216.281 237.375 214.313 237.75 212.438 238.5C211.875 238.687 211.313 238.875 210.75 239.062C209.063 239.437 207.562 240.281 206.437 241.594C205.406 242.719 204.187 243.375 202.687 243.656C201.844 243.844 201.188 244.406 201.094 245.25C200.906 246 200.438 246.656 199.688 246.937C199.406 247.031 199.125 247.219 198.937 247.406C198.188 247.875 198.188 248.156 198.937 248.344C199.5 248.344 200.063 248.437 200.625 248.625C201.281 249 201.75 249.656 202.5 249.844C203.156 249.937 204.281 249.094 204.844 249.187C207.656 249.656 210.469 248.625 213.094 247.687C214.781 247.125 216.188 245.719 218.25 246C219.562 245.719 220.688 245.062 221.813 244.312C222.938 243.187 224.25 242.156 225.656 241.406C227.531 240.375 229.312 239.25 231 237.937C232.875 236.531 234.562 234.844 235.875 232.875C236.625 231.844 237.187 230.625 237.656 229.406C237.75 229.125 237.844 228.75 237.937 228.469C238.031 228.094 238.125 227.812 238.219 227.437C238.406 226.594 238.5 225.75 238.5 224.812C238.5 223.781 238.312 222.75 238.031 221.812C239.344 220.875 240.562 219.844 241.781 218.812C243.281 217.5 244.687 216.187 246 214.781C246.75 213.937 247.594 213.094 248.25 212.25C248.625 211.875 249 211.406 249.375 210.937C249.75 210.469 250.125 210 250.5 209.437C251.906 207.375 252.656 204.937 252.75 202.406C253.875 201 253.5 199.406 252.844 197.906ZM227.062 201.75C227.062 201.656 227.062 201.75 227.062 201.75V201.75Z" fill="#006ADC"/>
<path d="M177.281 258.094C177.094 257.531 176.812 257.062 176.437 256.687C176.062 256.312 175.687 255.937 175.5 255.469C175.031 254.25 174.187 253.219 173.25 252.375C172.687 251.906 172.125 251.531 171.562 251.25C171.281 251.062 170.906 250.969 170.625 250.781C170.437 250.687 170.344 250.687 170.156 250.594L169.5 250.406C168.844 250.219 168.188 250.125 167.438 250.125C167.438 249.937 167.438 249.656 167.438 249.469C167.344 247.875 166.781 246.375 165.844 245.156C164.906 243.844 163.687 242.906 162.187 242.344C161.25 241.969 160.219 241.687 159.187 241.594C158.437 241.5 157.687 241.406 157.031 241.406C155.719 241.406 154.406 241.594 153.187 242.062C153 242.156 152.812 242.156 152.719 242.25C152.719 241.687 152.625 241.219 152.531 240.656C152.156 238.781 151.687 237 151.125 235.219C150.656 233.906 149.906 233.437 149.062 233.625C148.875 233.719 148.594 233.812 148.406 233.812C147.75 233.906 147.375 233.625 146.906 232.969C146.344 232.312 145.594 231.844 144.75 231.656C143.906 231.375 142.969 231.281 142.219 231.094C140.156 230.531 138 230.719 136.031 231.469C134.25 232.219 132.562 233.25 131.156 234.562C130.031 235.5 129.469 236.906 128.437 237.937C126.75 239.625 124.969 241.219 123.375 243C122.531 243.844 121.594 244.5 120.656 245.062C119.437 246 119.062 246.562 119.531 247.875C120 249.281 119.531 250.5 118.781 251.812C118.312 252.562 117.75 253.219 117.188 253.969C117.281 255 117.188 256.031 117.188 257.156C117.188 258.187 117.375 259.219 117.844 260.156C117.937 260.344 118.125 260.531 118.406 260.719C119.25 260.906 120.188 260.625 120.75 259.969C121.313 259.031 121.688 258 122.906 257.719C123.938 257.437 123.937 257.156 123.75 255.844C123.656 255 123.75 254.062 124.125 253.219C124.781 251.906 125.625 250.687 126.562 249.562C127.031 248.906 127.312 248.25 127.406 247.5C127.5 247.219 127.406 247.031 127.5 246.75C127.781 246 128.438 245.531 129.188 245.531C129.656 245.625 130.031 245.812 130.5 245.812C131.437 245.719 131.344 244.781 131.719 244.219C132.281 243.094 133.406 242.25 134.625 242.062C135.094 242.062 135.562 241.875 135.844 241.5C136.5 240.469 137.156 239.531 137.812 238.594C138.094 238.125 138.375 237.844 138.844 237.937C139.5 238.125 140.25 238.219 141 238.125C141.281 238.125 141.562 238.031 141.937 238.031C142.219 238.031 142.406 238.031 142.687 238.031C143.437 238.125 144.281 238.406 144.469 238.969C144.469 239.25 144.562 239.437 144.656 239.719C144.75 239.812 144.937 239.719 145.312 239.812C145.781 239.906 145.969 240.375 145.875 240.937C145.781 241.594 145.5 242.25 145.219 242.906C144.937 243.562 144.75 244.125 144.562 244.781C142.406 245.531 140.344 246.562 138.469 247.781C137.625 248.344 136.969 249.187 136.688 250.219C136.406 250.969 135.937 251.531 135.375 252.094C135.094 252.375 134.813 252.656 134.625 253.031C134.344 253.406 134.25 253.875 134.156 254.344C134.156 254.625 134.062 254.906 134.062 255.187C134.062 255.469 134.062 255.75 134.062 256.031C134.156 256.5 134.25 256.969 134.344 257.344C134.531 257.719 134.625 258.187 134.906 258.562C135.094 258.937 135.281 259.219 135.563 259.594C135.844 259.969 136.219 260.344 136.594 260.719C136.781 260.906 137.062 261.094 137.344 261.187C137.625 261.375 137.906 261.469 138.281 261.562C138.937 261.75 139.594 261.844 140.344 261.844C141.375 261.75 142.406 261.375 143.25 260.812C144.188 260.156 145.031 259.312 145.781 258.469C146.437 257.719 147 256.969 147.469 256.125C148.687 254.25 149.625 252.375 150.656 250.594C150.75 250.5 150.75 250.406 150.75 250.312C152.438 249.937 154.125 249.75 155.812 249.656C156.469 249.656 157.219 249.656 157.875 249.75C158.062 249.75 158.25 249.75 158.344 249.844H158.531C158.625 249.844 158.812 249.937 158.906 249.937C159.375 250.125 159.656 250.594 159.562 251.062C159.562 251.25 159.094 251.531 158.812 251.531C158.719 251.531 158.625 251.531 158.531 251.531C158.531 251.437 158.344 251.719 158.344 251.906C158.344 252.094 158.25 252.187 158.25 252.375C157.406 252.656 156.75 253.125 156.094 253.687C155.437 254.344 154.875 255 154.219 255.656C153.844 256.031 153.469 256.406 153.094 256.969C152.438 257.719 151.969 258.562 151.688 259.5C151.594 259.969 151.5 260.344 151.406 260.812C151.406 261.375 151.406 261.844 151.594 262.406C151.687 262.875 151.969 263.344 152.156 263.812C152.25 264 152.344 264.187 152.531 264.281L152.719 264.562L152.812 264.656L153 264.844C153.281 265.125 153.562 265.312 153.844 265.5C154.219 265.687 154.594 265.875 154.969 265.969C155.344 266.062 155.719 266.156 156.094 266.156C156.375 266.156 156.75 266.156 157.031 266.062C157.781 265.969 158.531 265.687 159.187 265.219C159.844 264.75 160.406 264.281 160.969 263.719C161.437 263.25 161.719 262.875 162.094 262.406C162.75 261.562 163.312 260.719 163.875 259.969C164.156 259.875 164.531 259.781 164.812 259.781C165.187 259.687 165.656 259.594 166.031 259.594C166.406 259.594 166.781 259.5 167.062 259.406L167.156 259.312C167.25 259.312 167.25 259.312 167.344 259.312C167.437 259.312 167.625 259.312 167.719 259.219C168 259.125 168.281 259.031 168.656 258.937C169.781 258.656 171 259.219 171.656 260.156C172.125 260.719 172.781 261 173.531 261C174.281 261 175.031 261.375 175.406 262.125C175.594 262.406 175.688 262.687 175.875 262.969C176.25 263.812 176.625 263.906 176.812 262.969C176.906 262.312 176.812 261.562 177 261C176.906 259.687 177.469 259.031 177.281 258.094Z" fill="#80829B"/>
<path d="M193.5 111.094C193.313 111 193.125 110.906 192.938 110.812C192.469 110.437 192.563 110.062 192.938 109.594C193.219 109.031 193.406 108.375 193.313 107.719C193.219 107.062 193.219 106.5 193.313 105.844C194.063 102.562 192.188 99.0937 189.469 96.8437C189.094 96.5624 188.719 96.3749 188.344 96.1874L187.688 95.9999L187.219 95.8124C186.938 94.6874 186.281 93.5624 185.438 92.7187C184.219 91.4062 182.625 90.4687 180.938 89.9062C179.531 89.4374 178.031 89.9062 176.625 89.9999C174.281 90.0937 172.031 90.8437 170.156 92.2499C169.313 92.8124 168.375 93.1874 167.438 93.5624C166.219 94.1249 165.938 94.5937 166.406 95.8124C166.781 96.9374 166.5 98.1562 165.563 98.9999C165.094 99.5624 164.531 99.9374 163.969 100.5C163.969 101.344 163.781 102.281 163.781 103.125C163.688 103.969 163.875 104.906 164.25 105.656C164.344 105.844 164.531 106.031 164.813 106.031C165.656 106.125 166.5 105.844 167.156 105.375C167.625 104.625 168.469 104.156 169.313 104.156C170.25 104.156 170.25 104.062 170.156 103.125C170.063 102.469 170.156 101.812 170.531 101.156C171.188 100.219 171.938 99.3749 172.688 98.6249C173.063 98.2499 173.25 97.6874 173.344 97.2187C173.344 97.0312 173.344 96.8437 173.438 96.6562C173.625 96.2812 174.094 96.0937 174.469 96.2812C174.563 96.2812 174.656 96.3749 174.656 96.4687C174.938 96.7499 175.219 97.1249 175.406 97.3124C175.875 97.7812 175.781 97.0312 175.969 96.7499C176.156 96.4687 176.625 96.3749 177 96.5624C177.094 96.6562 177.188 96.7499 177.188 96.8437C176.438 97.3124 175.594 97.4999 174.844 97.8749C173.625 98.4374 173.25 98.9062 173.625 100.219C174 101.344 173.625 102.562 172.688 103.406C172.125 103.875 171.563 104.344 171 104.719C170.813 106.312 169.875 107.719 169.781 109.312C169.781 109.5 169.875 109.781 169.969 109.969C170.438 110.437 171.094 110.812 171.75 110.812C171.563 111.375 171.375 111.937 171.281 112.5C171.094 113.062 171.094 113.719 171.094 114.281C171.094 114.844 171.188 115.312 171.375 115.781C171.563 116.437 171.563 117.187 171.281 117.844C171.281 117.937 171.188 118.125 171.188 118.219C170.344 119.062 169.594 120.094 168.938 121.125C168.188 122.344 167.719 123.75 167.531 125.25C167.344 126.656 167.531 128.062 168.188 129.281C168.375 129.656 168.75 130.031 169.219 130.219C169.594 130.406 170.063 130.5 170.531 130.406C171.094 130.312 171.656 130.594 172.031 130.969C172.406 131.344 172.781 131.531 173.25 131.719C173.531 131.812 173.906 131.812 174.188 131.906C174.375 131.906 174.656 131.906 174.844 132C174.938 132.187 174.938 132.375 174.938 132.562C174.75 132.844 174.469 133.031 174.188 133.125C173.531 133.5 172.969 133.781 172.969 134.625C171.469 135 170.156 135.656 169.031 136.687L168 137.531C166.781 138.281 166.031 139.5 165.844 140.812C165.656 141.937 165 142.969 164.063 143.719C163.5 144.187 163.406 144.937 163.688 145.594C163.969 146.156 163.875 146.906 163.594 147.469C163.5 147.656 163.406 147.844 163.313 148.031C163.031 148.687 163.219 148.875 163.875 148.781C164.25 148.594 164.719 148.5 165.094 148.5C165.75 148.594 166.406 149.062 166.969 148.969C167.438 148.875 167.719 147.844 168.281 147.844C170.438 147.562 171.844 146.062 173.438 144.75C174.469 143.906 174.938 142.406 176.625 142.312C177.469 141.75 178.219 141.094 178.688 140.156C179.063 138.937 179.719 137.906 180.656 136.969C181.781 135.75 182.719 134.437 183.656 133.125L184.313 132.094L184.875 131.062C185.344 130.312 185.719 129.562 186.094 128.812C186.188 128.531 186.281 128.344 186.375 128.062C187.781 126.937 189 125.625 190.125 124.219C191.344 122.719 191.625 120.937 192 119.25C192.375 118.969 192.656 118.5 192.75 118.031C192.844 117.562 192.844 117.094 192.75 116.531C192.75 115.219 193.031 114 193.781 112.969C194.25 112.031 194.156 111.469 193.5 111.094ZM179.063 112.312C178.969 112.406 178.781 112.406 178.594 112.406C178.781 112.312 178.969 112.219 179.156 112.219C179.25 112.219 179.156 112.312 179.063 112.312Z" fill="#80829B"/>
<path d="M112.031 195.187C111.75 195.094 111.469 194.906 111.188 194.719C111.094 194.625 111.094 194.531 111 194.437C111.094 194.344 111.094 194.344 111.188 194.25C111.656 193.875 111.844 193.312 111.844 192.656C111.844 192.187 111.844 191.812 111.938 191.344V190.687V190.406V190.219V190.125V190.219V190.406C111.938 190.594 111.938 190.687 112.031 190.781C111.938 190.406 111.938 190.031 111.844 189.656C111.75 189.187 111.844 189.375 111.75 189.281V189.187C111.656 189 111.563 188.906 111.469 188.906L107.719 188.719C106.125 189 104.438 189 102.844 188.625C102 188.437 101.344 187.5 100.406 187.969C99.5626 188.437 98.7188 187.594 97.8751 187.594C96.8438 187.5 95.9063 187.594 94.9688 187.969C94.5938 188.156 94.1251 188.25 93.7501 188.062C91.1251 187.219 88.4063 187.031 85.7813 187.687C84.9376 187.969 84.0938 187.875 83.3438 187.687C82.4063 187.312 81.3751 187.219 80.3438 187.219C79.7813 187.219 79.2188 187.406 78.6563 187.5C78.4688 187.5 78.3751 187.5 78.1876 187.594H78.0938C78.0938 187.5 78.0938 187.406 78.0938 187.312C78.0001 187.687 77.9063 187.781 77.9063 187.781C77.8126 187.781 77.8126 187.687 77.8126 187.687C77.8126 187.687 77.5313 187.875 77.3438 187.969C77.1563 188.062 76.8751 188.062 76.9688 187.875C77.0626 187.781 77.0626 187.594 77.0626 187.406V187.312C77.0626 187.219 77.0626 187.219 77.0626 187.125L76.9688 186.844C76.8751 186.469 76.7813 186.094 76.6876 185.719C76.4063 184.406 76.0313 183.094 75.4688 181.875C74.5313 179.437 73.4063 177.187 72.0938 174.281C71.8126 173.719 71.2501 173.344 70.6876 173.156C69.9376 172.969 69.2813 172.687 68.6251 172.312C67.9688 172.031 67.3126 171.656 66.5626 171.375C65.1563 170.812 63.7501 170.438 62.2501 170.25C61.6876 170.25 61.2188 170.25 60.6563 170.25C60.0938 170.344 59.6251 170.531 59.1563 170.812C57.7501 171.844 56.0626 172.406 54.3751 172.5C53.0626 172.594 52.2188 173.719 51.0001 174.094C50.6251 174.187 50.2501 174.469 49.9688 174.844C49.6876 175.219 49.4063 175.594 49.2188 175.969C48.9376 176.344 48.8438 176.906 48.3751 177.187C46.8751 177.937 46.1251 179.344 45.3751 180.656C44.4376 182.25 43.5938 183.844 42.8438 185.531C42.3751 186.562 41.8126 187.688 42.3751 189C42.4688 189.281 42.1876 189.656 42.0001 189.844C41.5313 190.406 41.3438 191.156 41.5313 191.906C41.8126 192.75 41.9063 193.688 41.8126 194.625C41.8126 195.281 42.0001 196.031 42.0001 196.781C42.0001 197.25 42.0001 197.719 42.0938 198.187C42.2813 199.5 42.7501 200.812 43.5001 201.937C43.6876 202.219 43.8751 202.5 44.0626 202.781C44.2501 203.062 44.4376 203.25 44.6251 203.531C45.3751 204.375 46.2188 205.125 47.0626 205.875C47.4376 206.25 47.9063 206.437 48.3751 206.531C49.1251 206.625 49.7813 207 50.3438 207.469C50.2501 207.75 50.0626 207.938 49.9688 208.219C49.7813 208.688 49.6876 209.156 49.7813 209.625C49.8751 210.844 49.4063 212.156 48.4688 213C47.7188 213.844 47.5313 214.969 46.7813 215.812C46.5001 216.187 46.3126 216.656 46.2188 217.219C45.9376 218.062 45.7501 218.906 45.5626 219.844C45.4688 220.312 45.3751 220.875 45.3751 221.344C45.3751 221.812 45.3751 222.281 45.3751 222.75C45.3751 223.5 45.6563 224.25 45.9376 224.812C46.3126 225.469 46.4063 226.219 46.2188 226.875C46.0313 227.812 46.4063 228.844 47.2501 229.406C47.6251 229.687 47.8126 229.969 47.4376 230.437C46.7813 231 46.6876 232.031 47.3438 232.781C49.5938 235.031 52.3126 236.812 55.3126 237.844C56.4376 238.125 57.5626 238.125 58.5938 237.75C59.1563 237.562 59.8126 237.562 60.3751 237.656C60.9376 237.75 61.5938 237.75 62.1563 237.656C62.8126 237.562 63.4688 237.281 64.0313 236.812C64.5001 236.344 65.1563 236.062 65.8126 235.969C67.1251 235.687 68.3438 235.031 69.2813 234.094C69.9376 233.625 70.4063 233.062 70.7813 232.312C70.9688 232.031 71.0626 231.75 71.1563 231.469L71.5313 230.719C71.8126 230.25 72.0001 229.687 72.2813 229.219C72.8438 228.281 73.4063 227.344 73.9688 226.406C75.0938 224.531 76.1251 222.562 76.8751 220.5C76.9688 220.031 77.1563 219.562 77.4376 219.187C78.0001 219 78.1876 219 78.3751 218.812C78.4688 218.719 78.6563 218.438 78.8438 218.531C79.1251 218.625 79.2188 218.531 79.4063 218.625C79.5001 218.625 79.5001 218.625 79.5001 218.719C79.5001 218.719 79.5001 218.719 79.5938 218.812L79.9688 218.906C80.4376 219 80.9063 219.188 81.2813 219.469C82.2188 219.281 83.2501 219.281 84.1876 219.562C86.6251 218.719 88.9688 219.094 91.4063 219.094C94.9688 219.094 98.4376 219.562 102 219.187C103.219 219.187 104.531 219.375 105.75 219.562C106.313 219.562 106.875 219.469 107.344 219.281C107.625 219.094 107.813 218.719 107.906 218.344C108.281 216.844 108.375 215.25 108.188 213.75C108 211.875 106.594 210.281 105.375 210.469C104.813 210.562 104.25 210.844 103.688 211.031C102.656 211.312 103.125 210 103.031 209.344C103.031 209.25 102.75 209.156 102.656 209.156C101.719 208.969 100.688 208.875 99.6563 208.969C98.5313 209.25 97.4063 209.25 96.2813 209.062C96.1876 209.062 96.0001 209.25 95.9063 209.344C95.4376 210.844 94.8751 210.469 94.3126 209.531C94.1251 209.25 93.7501 208.969 93.5626 209.062C91.2188 210.094 88.7813 209.344 86.3438 209.719C85.5001 209.906 84.6563 210.844 83.9063 210.281C83.2501 209.906 82.5001 209.625 81.6563 209.531C81.2813 209.437 80.9063 209.344 80.5313 209.25C80.1563 209.156 79.9688 208.969 79.1251 208.594C78.2813 208.219 77.3438 207.937 76.3126 207.937C75.3751 207.937 74.5313 208.312 73.8751 208.875C73.0313 209.625 72.2813 210.375 71.6251 211.125C70.9688 211.875 70.3126 212.719 69.8438 213.656C69.4688 214.219 69.0938 214.875 68.8126 215.531C68.6251 215.906 68.5313 216.187 68.5313 216.562C68.5313 216.75 68.6251 216.938 68.7188 217.125C68.8126 217.219 68.7188 217.406 68.6251 217.406C67.2188 218.062 67.4063 219.281 67.4063 220.594C67.4063 221.344 66.9376 222 67.1251 222.844C67.2188 223.406 66.7501 223.406 66.1876 223.406C65.3438 223.406 64.5938 223.5 64.5001 224.156C64.5001 224.438 64.5001 224.812 64.3126 224.812C63.9376 224.906 63.6563 225.187 63.5626 225.469C63.4688 225.75 63.3751 225.937 63.0001 225.937C62.3438 225.937 62.6251 226.875 62.2501 227.344C61.4063 228.375 60.0001 228.844 58.6876 228.469C58.3126 228.375 58.1251 227.625 57.9376 227.625C57.7501 227.625 57.2813 228 57.0001 227.812C56.1563 227.25 55.5001 226.5 55.1251 225.656C54.9376 225.187 54.7501 224.625 54.6563 224.156C54.4688 223.594 54.1876 223.031 53.7188 222.562C53.5313 222.375 53.5313 222.094 53.7188 222C54.3751 221.437 53.6251 221.062 54.0938 220.594C54.4688 220.219 54.7501 219.656 54.8438 219.094C55.0313 218.625 55.3126 218.25 55.5001 217.781C55.6876 217.219 56.7188 217.031 56.5313 216.281C56.4376 215.625 57.2813 215.344 57.1876 214.594C57.0938 213.75 57.3751 212.812 57.8438 212.156C58.2188 212.25 58.5938 212.437 59.0626 212.531C59.3438 212.625 59.6251 212.719 59.9063 212.812L60.3751 212.906L60.9376 213C61.2188 213.094 61.5938 213.094 61.9688 213.094C62.3438 213.094 62.8126 213 63.1876 212.906C63.6563 212.812 64.1251 212.625 64.5938 212.531C65.0626 212.344 65.5313 212.062 65.9063 211.781C66.2813 211.5 66.6563 211.125 66.9376 210.75C67.2188 210.375 67.5001 209.906 67.7813 209.437C67.9688 209.062 68.1563 208.594 68.3438 208.219C68.4376 208.031 68.4376 207.844 68.5313 207.656L68.6251 207.187C68.7188 206.906 68.8126 206.437 68.8126 206.156C68.9063 205.594 69.0001 204.938 69.0001 204.469C69.0001 204 69.0938 203.531 69.0938 203.062C68.9063 202.781 68.7188 202.594 68.6251 202.312C68.4376 202.031 68.3438 201.75 68.2501 201.469C68.0626 201.094 67.9688 200.719 67.7813 200.437L67.5001 199.781L67.3126 199.5C67.2188 199.406 67.2188 199.219 67.1251 199.125C66.9376 198.844 66.7501 198.562 66.4688 198.281C66.3751 198.094 66.1876 198 66.0938 197.906C65.9063 197.719 65.7188 197.625 65.5313 197.438C65.1563 197.156 64.7813 196.875 64.3126 196.687C63.8438 196.5 63.3751 196.312 62.8126 196.219C62.3438 196.125 61.9688 196.125 61.5001 196.125C61.3126 196.125 61.1251 196.125 60.8438 196.219L60.3751 196.312C60.0938 196.406 59.8126 196.5 59.4376 196.594C59.2501 196.687 59.0626 196.781 58.7813 196.969C58.5938 197.062 58.4063 197.156 58.2188 197.25L57.8438 197.531C57.5626 197.719 57.3751 197.906 57.0938 198.094C56.7188 198.469 56.3438 198.844 56.1563 199.312C56.0626 199.5 55.9688 199.687 55.8751 199.875C55.6876 199.687 55.5001 199.594 55.4063 199.312C55.3126 199.219 55.2188 199.125 55.1251 199.125C53.1563 199.219 52.3126 197.625 51.3751 196.781C51.1876 196.594 51.2813 196.219 51.1876 195.937C51.0938 195.75 51.0938 195.844 50.1563 196.219C50.0626 196.312 49.8751 196.219 49.9688 196.219C50.0626 196.125 50.0626 196.125 50.1563 196.031C50.2501 195.938 50.2501 195.937 50.3438 195.844C50.3438 195.75 50.4376 195.656 50.4376 195.562C50.4376 195.375 50.4376 195.281 50.4376 195.094C50.4376 194.812 50.3438 194.531 50.2501 194.156C50.0626 192.656 50.1563 191.062 50.6251 189.562C50.9063 188.719 51.1876 187.875 51.5626 187.125C51.7501 186.75 51.9376 186.281 52.1251 185.906C52.3126 185.531 52.5001 185.156 52.7813 184.781C52.9688 184.5 53.1563 184.219 53.3438 183.937C54.0001 183.281 53.7188 181.969 54.6563 181.5C55.4063 181.125 56.1563 180.562 56.7188 179.906C57.2813 179.531 57.8438 178.969 58.2188 178.5C58.9688 177.75 59.8126 177.562 60.7501 177.094C61.6876 176.719 62.7188 176.906 63.4688 177.656C63.9376 178.219 64.5938 178.594 65.2501 178.781C65.8126 178.781 65.8126 179.437 66.0001 179.812C66.0001 180.094 66.1876 180.375 66.3751 180.562C66.6563 180.75 66.9376 180.938 67.2188 181.031C67.6876 181.125 67.9688 181.594 67.7813 182.062C67.7813 182.156 67.6876 182.156 67.6876 182.25C67.5001 182.719 67.6876 183.375 68.2501 183.562C68.5313 183.656 68.8126 183.937 68.7188 184.125C68.1563 185.062 69.7501 185.437 69.3751 186.281C69.1876 186.562 69.0938 186.937 69.0001 187.312C68.9063 187.687 69.0001 188.062 69.2813 188.437C69.4688 188.906 69.5626 189.469 69.4688 189.938C69.3751 190.5 69.3751 190.969 69.4688 191.531C69.6563 192.187 69.9376 192.844 70.3126 193.406C70.5938 193.969 71.0626 194.438 71.6251 194.625C71.3438 195.281 70.9688 195.937 70.5938 196.781C70.1251 197.719 69.9376 198.75 70.0313 199.781C70.1251 200.812 70.4063 201.844 71.0626 202.687C71.5313 203.437 72.2813 203.812 73.1251 203.906C73.4063 203.906 73.5938 203.906 73.7813 203.906C74.4376 204 75.0938 204.469 75.3751 205.031C75.4688 205.406 75.4688 205.969 75.8438 206.25C76.5001 206.906 77.1563 206.25 77.6251 206.062C78.6563 205.687 79.4063 205.5 80.1563 206.062C80.5313 206.344 80.7188 206.437 80.9063 206.25C81.2813 205.875 81.5626 205.594 81.8438 205.219C82.1251 205.312 82.3126 205.5 82.5938 205.594C83.5313 206.156 84.6563 206.062 85.5938 205.5C86.0626 205.125 86.4376 205.312 86.9063 205.312C87.4688 205.406 88.0313 205.406 88.6876 205.406C89.2501 205.406 89.8126 205.406 90.3751 205.406C92.0626 205.406 93.7501 205.219 95.4376 205.031C95.9063 205.031 96.3751 205.219 96.6563 205.5C96.9376 205.687 97.2188 205.781 97.5001 205.594C98.1563 205.031 98.8126 204.375 99.3751 203.625C99.8438 202.969 100.313 203.25 100.875 203.437C101.438 203.625 102.188 203.625 102.281 202.969C102.656 201.469 104.156 203.156 104.438 201.75C105.281 202.219 106.313 202.312 107.156 201.844L107.906 201.656C108.75 201.469 109.406 200.719 109.5 199.781C109.594 199.031 110.156 198.469 110.813 198.187C111.188 198 111.375 197.531 111.281 196.875C111.188 196.312 111.281 195.75 111.656 195.375L111.938 195.094C112.125 194.906 112.219 194.625 112.031 194.344C112.219 195.281 112.125 195.281 112.031 195.187ZM87.5626 197.812C87.5626 197.812 87.6563 197.812 87.6563 197.719L87.5626 197.812ZM76.5938 200.25H76.5001H76.5938ZM76.9688 200.156C76.8751 200.156 76.9688 199.969 77.0626 199.875L77.1563 199.781L77.0626 199.875C76.9688 199.969 76.9688 199.969 76.8751 200.062C76.7813 200.156 76.6876 200.156 76.5001 200.25C76.5001 200.25 76.4063 200.25 76.3126 200.25C76.2188 200.25 76.0313 200.156 75.9376 200.156C75.7501 200.062 75.8438 199.875 76.0313 199.781C76.2188 199.688 76.5938 199.781 76.8751 199.875C76.7813 199.031 77.5313 198.656 77.9063 197.812C78.0001 197.625 78.0001 197.437 78.0001 197.344C77.9063 196.969 77.8126 196.5 77.6251 196.125C77.8126 196.125 78.0001 196.031 78.1876 196.031C78.6563 195.938 79.1251 196.031 79.5938 196.219C79.7813 196.312 79.9688 196.312 80.1563 196.406C79.8751 196.594 79.5938 196.875 79.3126 197.156C78.7501 198.094 78.4688 199.219 78.4688 200.344H78.3751C77.9063 200.531 77.3438 200.437 76.9688 200.156ZM102.375 195.375C102.094 196.031 101.625 196.5 100.969 196.687C98.9063 197.25 96.8438 197.719 94.8751 198.094C94.9688 197.25 94.8751 196.312 94.5001 195.562C94.4063 195.375 94.3126 195.281 94.2188 195.094C94.6876 195.188 95.1563 195.281 95.7188 195.375C96.1876 195.469 96.4688 195 96.7501 194.437C96.8438 194.156 97.2188 193.687 97.3126 193.781C98.2501 194.25 99.1876 194.719 100.125 195.281C100.594 195.656 101.25 195.656 101.813 195.281C102 195.094 102.375 195.094 102.563 195.281C102.469 195.094 102.375 195.187 102.375 195.375Z" fill="#006ADC"/>
<path d="M113.063 186.562C113.625 187.781 112.875 189.281 113.157 190.219C113.532 191.531 115.032 192.75 115.407 194.25C115.782 194.812 116.25 195.281 116.625 195.937C116.719 196.594 116.719 197.25 116.625 197.906C116.532 198.281 116.438 198.562 116.25 198.937C116.063 199.312 115.875 199.594 115.594 199.781C115.219 200.062 115.875 200.344 115.875 200.531C115.782 200.812 115.313 201 115.125 201.187C114.657 201.844 116.344 202.5 115.313 203.25C114.938 203.531 114.469 203.812 114.469 204.187C113.813 207.281 114.282 210.469 112.875 213.844C112.5 214.687 112.125 215.437 111.657 216.187C111.188 216.937 110.719 217.687 110.157 218.437C109.875 218.906 109.594 219.375 109.5 219.937C109.313 220.5 109.219 221.062 109.032 221.625C108.75 222.75 108 223.781 106.875 224.25C106.5 224.344 106.125 224.344 105.75 224.344C104.813 224.156 104.625 224.719 104.438 225.281C104.25 225.844 104.063 226.406 103.125 226.031C102.094 225.562 101.813 226.5 100.875 226.031C99.8441 225.469 98.8128 224.812 97.9691 224.062C97.5003 223.406 97.0316 222.656 96.7503 221.812C96.1878 220.687 96.1878 220.594 96.6566 220.687C97.0316 220.687 97.3128 220.219 97.6878 219.75C97.9691 219.281 98.2503 218.906 98.8128 219.187C99.3753 219.469 99.8441 219.656 100.125 219.375C100.5 219 100.969 218.906 100.782 218.062C100.688 217.406 101.157 217.031 101.813 216.75C102.469 216.375 103.219 216.094 103.313 215.625C103.594 214.781 104.438 215.062 104.625 214.781C103.969 214.031 104.25 213.75 104.719 213.469C105.188 213.187 105.844 213 105.938 212.531C105.938 212.25 105.657 211.875 105.75 211.594C105.844 211.406 106.407 211.406 106.5 211.219C106.875 210.187 107.063 209.156 107.063 208.125C106.5 207.562 105.844 205.406 106.688 205.031C108.469 204.187 108.094 202.594 107.813 201.094C107.719 200.719 107.719 200.344 107.625 199.969C107.625 199.594 107.625 199.312 107.719 198.937C108 198.281 108.563 197.719 109.313 197.437C109.407 197.344 109.407 196.687 109.219 196.031C109.032 195.375 108.75 194.719 108.375 194.625C107.719 194.531 107.438 194.344 107.344 194.062C107.625 193.687 108.094 193.125 108 192.75C107.625 191.812 106.969 190.875 106.594 190.031C106.313 189.656 106.032 189.281 105.563 189C105.188 188.719 104.907 188.344 104.907 187.875C104.907 187.687 104.907 187.312 104.813 187.406C103.782 188.156 103.407 188.437 102.938 188.25C102.188 187.969 101.438 187.687 100.688 187.5C100.313 187.406 100.032 187.219 99.8441 186.937C99.2816 186.469 99.0941 185.812 99.3753 185.156C99.6566 184.312 100.313 183.656 101.157 183.469C101.907 183.187 102.844 183.187 103.594 183.375C104.157 183.562 104.719 183 105.375 182.625C105.938 182.156 106.782 181.969 107.532 182.344C109.688 183.562 111.469 184.969 113.063 186.562Z" fill="#006ADC"/>
<path d="M110.719 193.688C110.625 193.5 110.531 193.406 110.156 193.406C109.688 193.406 109.125 193.406 108.656 193.313C108 193.031 107.531 192.375 106.875 192.375C106.312 192.375 105.562 193.219 105 193.125C102.562 192.75 100.406 193.781 98.25 194.531C96.8438 195 95.7188 196.125 94.0313 195.469C93 195.656 91.9687 195.656 91.125 196.313C90.0937 197.063 88.875 197.531 87.6562 197.719C85.2188 198 82.875 198.188 80.5312 198.188L80.3437 197.719L79.9688 196.781C79.6875 196.219 79.4063 195.656 79.0313 195.094C78.6563 194.625 78.2812 194.156 77.8125 193.688C77.625 193.5 77.3437 193.313 77.0625 193.125L76.875 193.031C76.875 192.938 76.7813 192.938 76.6875 192.938L76.3125 192.75C75.75 192.563 75.1875 192.375 74.625 192.188C74.625 192 74.625 191.813 74.625 191.531C74.5312 190.5 74.3437 189.563 74.25 188.531L74.0625 187.594L73.875 186.469C73.7813 185.719 73.5937 184.969 73.3125 184.219C72.6562 181.875 70.875 180 68.625 179.156C67.5937 178.875 66.4688 178.781 65.4375 178.969C64.5938 177.75 63.375 176.719 61.9687 176.156C60.5625 175.5 58.9688 175.5 57.5625 175.969C56.8125 176.25 56.25 176.531 55.5937 176.813C54.9375 177.094 54.2812 177.469 53.7187 177.938C53.0625 178.406 52.5 179.063 52.0312 179.813C51.8437 180.094 51.8438 180.469 51.75 180.844C51.75 181.125 51.8437 181.5 52.0312 181.781C52.5937 183.188 52.3125 184.406 51.6562 185.719C51.2812 186.469 50.8125 187.219 50.3438 187.969C50.7188 189.938 50.4375 192.094 51.2812 193.781C51.375 193.969 51.5625 194.156 51.75 194.344C52.5938 194.625 53.5312 194.344 54.0938 193.688C54.6562 192.75 55.0312 191.625 56.25 191.25C56.4375 191.156 56.625 191.063 56.7187 190.969C56.7187 191.156 56.7187 191.344 56.7187 191.531C56.7187 192.281 56.625 193.125 56.4375 193.875C56.1562 194.813 56.0625 195.75 55.9688 196.688C55.9688 197.625 56.3437 198.563 57 199.219C57.5625 199.781 58.3125 199.969 59.0625 199.781C59.3437 199.688 59.5312 199.5 59.8125 199.313C60.0937 199.125 60.4688 199.031 60.75 198.938C60.9375 198.938 61.125 198.938 61.3125 198.938C61.5 198.938 61.6875 198.938 61.9687 198.938C62.1562 198.938 62.4375 198.938 62.625 198.844C62.625 199.031 62.5312 199.219 62.5312 199.406C62.4375 200.156 62.3437 201 62.3437 201.75C62.25 202.781 62.4375 203.813 62.7188 204.75L62.9062 205.219C63 205.406 63.0938 205.594 63.1875 205.781C63.2813 205.969 63.4688 206.156 63.5625 206.344C63.75 206.531 63.9375 206.719 64.125 206.906C64.5 207.281 64.9688 207.563 65.5313 207.75C65.625 207.844 65.8125 207.844 65.9063 207.844L66.1875 207.938C66.375 207.938 66.6563 208.031 66.8438 208.031H67.2187C67.3125 208.031 67.3125 208.031 67.4062 208.031H67.7813C68.0625 208.031 68.25 207.938 68.4375 207.938C68.9062 207.844 69.4687 207.656 69.9375 207.469C70.9687 207 71.9062 206.25 72.6562 205.313C72.9375 204.938 73.2188 204.469 73.5 204C73.875 204.469 74.25 204.844 74.7187 205.219C75.2812 205.688 75.9375 205.969 76.5937 206.25C77.25 206.438 77.9062 206.531 78.6562 206.531H78.75H78.8437L79.0313 206.438L79.3125 206.344L79.875 206.156C80.25 206.063 80.625 205.875 81 205.688C82.0312 205.313 83.1562 205.313 84.0937 205.688C85.2187 205.969 86.7187 205.969 87.375 205.313C88.125 204.656 89.1562 204.469 90.0937 204.656C91.0312 204.656 91.9688 204.75 92.7188 204C94.5938 204.563 96.5625 204.188 98.5312 203.719L100.219 203.344C101.906 203.063 103.312 202.125 104.25 200.813C105.094 199.688 106.219 198.938 107.531 198.469C108.281 198.188 108.75 197.531 108.75 196.781C108.75 196.031 109.125 195.375 109.688 194.906C109.875 194.719 110.062 194.531 110.25 194.438C110.625 194.063 110.719 193.875 110.719 193.688ZM66.8438 193.313C66.8438 193.219 66.9375 193.125 66.9375 193.031V193.125V193.219C66.9375 193.219 66.9375 193.219 66.8438 193.313ZM58.3125 185.344C58.125 185.906 57.9375 186.469 57.8438 187.031C57.75 187.5 57.6563 187.969 57.5625 188.438C57.2813 188.719 57 189 56.9062 189.375C56.9062 189.281 56.9062 189.281 56.9062 189.188C56.7188 188.344 56.7187 187.406 57 186.563C57.2812 185.906 57.5625 185.344 57.8438 184.781L57.9375 184.594L58.0313 184.5L58.125 184.406C58.2187 184.313 58.2188 184.219 58.3125 184.219C58.4062 184.125 58.3125 183.563 58.4062 183.094C58.4062 182.906 58.4063 182.719 58.5 182.438C58.6875 181.969 59.3437 182.156 59.3437 182.906C59.3437 183 59.3437 183.188 59.3437 183.375C58.875 183.938 58.5938 184.688 58.3125 185.344Z" fill="#80829B"/>
<path d="M190.219 39.75C190.219 39.375 190.125 39.0938 190.125 38.8125C190.032 38.1563 189.844 37.5 189.657 36.9375C189.282 35.7188 188.719 34.5938 188.25 33.4688C187.688 32.25 186.657 31.4063 185.344 30.8438C184.032 30.2813 182.719 30.0937 181.313 30.2812C180.844 30.375 180.469 30.375 180 30.5625C179.532 30.75 179.157 30.8438 178.782 31.125C178.407 31.3125 178.125 31.5 177.75 31.7813C177.469 31.9688 177.282 32.1562 177.094 32.4375C176.344 33.2812 175.688 34.2188 175.125 35.1563C174 36.9375 173.063 38.8125 172.5 40.875C171.938 42.8437 171.469 44.9062 171.375 46.875C171.094 49.0312 171.188 51.1875 171.563 53.25C171.938 55.125 171.188 56.8125 171.469 58.6875C171.75 60.1875 172.313 61.6875 171.938 63.2812C172.125 63.5625 172.313 63.9375 172.407 64.3125C172.313 64.5 172.125 64.6875 172.032 64.9688C170.719 67.3125 168.938 69.1875 167.438 69.5625C166.688 69.8438 165.938 69.8438 165.188 69.6563C165.094 69.6563 165 69.5625 164.907 69.5625C165.188 68.625 165.563 67.7813 165.938 66.9375C166.313 66.2813 166.594 65.625 166.594 64.875C166.782 61.875 166.875 58.875 165.375 56.3437C164.813 55.5 165.188 54.5625 165.188 53.7187C165.188 53.0625 165 52.4062 164.625 51.8437C164.063 51.1875 163.782 50.25 163.688 49.4062C163.688 48.1875 163.407 47.0625 163.032 45.9375C162.282 43.5938 161.063 41.4375 159.375 39.5625C158.625 38.7188 157.875 37.9688 157.032 37.2188C155.532 36.6563 153.938 36.2813 152.25 36.2813C150.282 36.2813 148.407 36.6562 146.625 37.5937C144.938 38.625 143.625 40.2188 142.969 42.0938C142.875 42.4688 142.782 42.8437 142.688 43.2187C142.5 44.625 142.407 45.9375 142.5 47.3438C142.5 48.4688 142.313 49.5937 142.032 50.7187C141.938 50.9062 142.032 51.1875 142.219 51.375C143.532 52.125 143.157 53.25 143.157 54.4687C143.25 55.4062 143.532 56.4375 144 57.2812C144.844 59.25 145.875 61.0313 146.063 63.2812C146.157 64.0312 146.438 64.7812 146.813 65.3438C148.5 68.625 150.938 71.4375 153.938 73.6875C153.375 74.25 152.907 74.9062 152.625 75.6562C152.532 76.125 152.157 76.2188 151.782 76.4062C151.407 76.5 151.032 76.7813 150.938 77.1563C150.844 77.4375 150.469 77.625 150.188 77.625C149.907 77.625 149.625 77.5312 149.438 77.5312C149.063 77.1562 148.688 76.875 148.313 76.5C145.594 73.9688 142.688 71.8125 140.907 68.8125C139.782 68.0625 138.75 67.0313 138 65.9063C135.282 64.5938 133.407 61.9688 130.407 60.375C129 59.5313 127.594 58.875 126.094 58.3125C124.594 57.75 123 57.6562 121.407 57.8438C121.219 57.8438 121.032 57.9375 120.844 57.8438C120.657 57.8438 120.375 57.8438 120.188 57.8438C119.625 57.75 119.157 57.75 118.594 57.75C116.344 57.6562 114.094 58.125 112.125 59.1562C111.657 59.4375 111.188 59.7187 110.813 60.0937C110.438 60.4687 110.063 60.8438 109.782 61.3125C109.594 61.5 109.5 61.7812 109.407 61.9688C109.313 62.25 109.219 62.4375 109.125 62.7188L108.938 63.4688L108.844 64.2188C108.75 66.4688 109.125 68.625 110.063 70.5938C110.25 71.1563 110.625 71.625 110.813 72.0938C111.094 72.5625 111.469 73.125 111.75 73.5938L112.688 74.8125C112.969 75.1875 113.25 75.5625 113.532 75.9375C114.188 76.7812 115.032 77.4375 115.875 77.9062C117.282 78.9375 118.782 79.6875 120.469 79.9688C122.157 80.1563 123.094 81.75 124.782 82.0312C125.438 82.2188 126.094 82.3125 126.75 82.4063C127.407 82.4063 128.063 82.5938 128.625 82.9688C129.563 83.625 130.5 84.0938 131.532 84.4688C133.032 84.8438 134.438 85.3125 135.844 85.7812C137.438 86.3438 139.032 86.9063 140.719 87.5625C141.657 87.8438 142.782 87.4688 143.25 86.625C143.532 86.1563 144 86.1562 144.563 86.4375C145.125 86.625 145.688 86.8125 146.25 86.8125C146.344 87.1875 146.25 87.6563 146.063 88.0313C145.969 88.2188 146.063 88.5 146.157 88.5938C147.375 89.5312 148.313 90.75 149.063 92.1563C149.438 92.7188 149.813 93.1875 150.282 93.75C150.75 94.2188 151.125 94.6875 151.594 95.25C151.688 95.3438 151.969 95.625 152.063 95.5312C152.719 95.3438 153.469 94.0312 153.938 95.3438C154.219 96.0938 154.313 96.8438 154.5 97.5C154.782 98.3438 155.438 99 156.188 99.375C156.75 99.6562 157.407 99.8438 158.063 99.9375C157.969 100.125 157.969 100.312 157.875 100.5C157.688 101.438 157.969 101.906 158.625 101.906C159.563 101.906 160.407 101.906 161.344 101.906C162 102 162.657 101.719 163.125 101.25C163.782 100.688 164.625 100.219 164.907 99.4688C165.75 97.875 166.969 96.375 168.469 95.25C169.407 94.5 169.969 93.4688 170.063 92.25C170.063 91.9688 170.157 91.6875 170.344 91.5C170.532 91.3125 170.907 91.2188 171.188 91.3125C171.563 91.4063 171.938 91.3125 172.313 91.2188C172.688 91.125 173.063 90.9375 173.344 90.6562C174.563 89.8125 175.782 89.1562 177.188 88.5938C177.375 88.5 177.75 88.7813 178.032 88.9688C178.125 89.0625 178.219 89.0625 178.313 89.1562C178.875 89.7188 179.719 90 180.469 89.8125C181.125 89.625 181.688 89.25 182.063 88.6875C182.438 88.2188 182.625 87.6563 182.813 87.0938C183 86.1563 183.094 85.2188 183.094 84.2813C183.094 83.4375 183.094 82.5 183 81.6562C183 80.8125 182.907 79.875 182.813 78.8438C182.719 78 182.625 77.1563 182.438 76.3125C181.969 73.5938 181.032 70.9688 181.407 68.1562C181.5 67.5 181.407 66.8438 181.125 66.2812C181.5 65.5312 181.688 64.7812 181.782 63.9375C181.875 63.1875 182.438 62.8125 182.719 62.25C183.282 61.3125 184.125 60.375 184.219 59.3437C184.313 57.75 185.344 56.5312 185.438 55.0312C185.438 53.0625 186.188 51.0938 187.594 49.6875C188.344 48.8438 188.813 47.8125 189.094 46.6875C189.657 44.7187 190.032 42.75 190.032 40.6875C190.219 40.3125 190.219 40.0313 190.219 39.75ZM153.469 51.75C153.375 51 153.375 50.25 153.469 49.5C153.469 49.5 153.469 49.5 153.469 49.5938C153.75 50.25 154.032 50.9062 154.313 51.5625C154.594 52.125 155.063 52.5937 155.719 52.5937C156.282 52.6875 156.563 52.9688 156.469 53.3438C156.094 55.0313 156.469 56.9062 157.5 58.3125C157.688 58.6875 157.594 59.0625 157.407 59.3437C156.75 60 156.469 60.9375 156.844 61.875C157.032 62.4375 157.125 63 157.219 63.5625C157.125 63.4688 157.125 63.4688 157.125 63.375C156.844 62.9062 156.469 62.4375 156.094 61.9688C155.719 61.5 155.438 61.0312 155.157 60.5625C154.5 59.5312 154.313 58.4062 154.407 57.2812C154.407 57.0937 154.407 56.9062 154.313 56.8125C153.094 55.2187 153.657 53.3438 153.469 51.75ZM131.438 74.5312C128.344 73.7812 125.157 72.9375 122.719 71.1563C121.875 70.5 121.5 69.1875 120.469 69.0938C120 69 119.625 68.7188 119.438 68.3438C119.344 68.1563 119.25 68.0625 119.063 67.875L118.969 67.7813C118.969 67.7813 118.875 67.6875 118.875 67.7813C118.875 67.7813 118.782 67.875 118.688 67.875C118.5 67.9688 118.688 67.6875 118.782 67.6875C119.063 67.5 118.5 67.6875 117.563 67.4063C117.094 67.3125 116.532 67.0313 116.907 66.8438C117.094 66.75 117.375 66.6562 117.563 66.5625C117.75 66.4688 117.938 66.375 118.125 66.4688C118.5 66.5625 118.782 66.75 119.063 66.9375C119.25 67.0313 119.157 66.9375 119.344 66.375C119.344 66.2813 119.438 66.2813 119.438 66.375C119.438 66.4688 119.532 66.5625 119.625 66.6562C119.719 66.75 119.813 66.75 119.907 66.8438C120.094 66.9375 120.375 66.9375 120.563 66.9375C121.032 66.9375 121.5 66.8438 121.875 66.8438C123.375 66.9375 124.594 67.7813 125.157 69.1875C125.625 70.3125 126.75 71.1562 127.969 71.3438C129 71.625 130.032 72.1875 130.782 73.0313C131.532 73.7813 132.375 74.3438 133.313 74.9063C132.844 74.7188 132.094 74.625 131.438 74.5312ZM176.532 83.25C176.344 83.1563 176.25 83.0625 176.157 82.875H175.969C175.219 82.9688 174.563 83.25 173.907 83.5312C173.25 83.8125 172.407 84 171.657 84C169.875 84 168.657 85.3125 167.25 86.3438C165.094 87.75 163.219 89.625 161.625 91.6875L161.438 91.4062C160.875 90.4688 160.219 89.7188 159.657 88.7812C158.625 87.0938 157.407 85.4062 156.094 83.9062C156.844 83.4375 157.5 82.9688 158.157 82.4063C159.188 81.5625 160.219 80.5312 161.063 79.4062C161.438 78.9375 161.813 78.4688 162.094 78C162.188 78.0938 162.282 78.0938 162.375 78.1875C163.5 78.75 164.813 78.8438 166.032 78.4688C166.594 78.2812 167.157 78.1875 167.813 78.1875C168.938 78.375 170.063 78.2812 171.188 77.9062C171.75 77.7188 172.219 77.4375 172.688 77.1563C173.157 76.875 173.625 76.5938 174 76.2188C174.469 75.8438 174.844 75.5625 175.219 75.1875C175.219 75.4688 175.313 75.75 175.313 75.9375C175.407 77.8125 175.594 79.6875 176.063 81.5625L176.344 82.7813C176.344 82.7813 176.438 82.7813 176.532 82.875C176.719 82.9688 176.907 83.0625 177 83.25C176.813 83.3438 176.719 83.4375 176.532 83.25ZM181.969 45.375C180.844 47.1563 180.282 49.125 179.063 50.9062C178.969 51 178.875 51.1875 178.782 51.2812C178.5 50.7188 178.407 50.1563 178.594 49.5938C178.969 48.5625 178.594 47.7188 178.219 46.7813C178.125 46.2188 178.219 45.6563 178.594 45.1875C178.969 44.7188 179.063 44.0625 178.782 43.5C178.688 43.2188 179.063 42.8438 179.25 42.5625C179.813 42.0938 180.094 41.4375 180 40.6875C179.813 39.9375 180.188 39.2812 180.938 39C181.219 38.9062 181.407 38.8125 181.688 38.625C181.782 39 181.969 39.2812 182.157 39.6562C182.344 39.9375 182.532 40.3125 182.719 40.6875C183.282 42.2813 182.907 44.0625 181.969 45.375Z" fill="#006ADC"/>
</svg>
