<svg width="300" height="300" viewBox="0 0 300 300" fill="none" xmlns="http://www.w3.org/2000/svg">
<path d="M212.216 97.8823C212.018 97.2237 212.024 96.5207 212.233 95.8656C213.146 92.128 212.087 87.9925 212.409 84.1592C212.177 83.3007 211.834 82.4684 211.538 81.631C211.226 80.7962 210.974 79.9521 210.699 79.1039C210.097 77.4151 209.656 75.6732 209.381 73.9014C208.926 68.4156 206.422 63.3811 203.148 58.9875C202.831 58.5569 202.492 58.1672 202.176 57.7531C201.819 57.3409 201.536 56.8695 201.341 56.3601C200.62 54.4634 199.598 52.6953 198.314 51.1238C196.994 49.5515 195.557 48.0821 194.014 46.7283C193.455 46.2145 192.904 45.7068 192.359 45.2053C191.793 44.7245 191.242 44.236 190.708 43.7325C189.667 42.6939 188.563 41.7326 187.536 40.6097C184.677 37.569 180.873 35.585 176.743 34.9804C172.76 34.3569 168.833 33.4151 165 32.164C162.923 31.6021 161.018 30.6904 158.595 31.0015C157.979 31.0588 157.359 31.0476 156.745 30.9681C156.132 30.9237 155.518 30.8273 154.893 30.7268C154.268 30.6261 153.633 30.5215 152.983 30.4611C152.318 30.4333 151.652 30.474 150.996 30.5826C149.931 30.7607 148.791 30.8646 147.656 30.9951C146.521 31.1203 145.37 31.0748 144.31 31.1228C143.365 31.1657 142.43 31.3334 141.53 31.6215C140.704 31.9282 139.85 32.1549 138.981 32.2986C138.383 32.3585 137.794 32.4904 137.228 32.6916C136.725 32.9025 136.24 33.1544 135.778 33.4446C134.886 34.0225 134.077 34.5899 133.262 35.2356C131.882 36.2841 131.01 36.5217 129.672 36.1902C128.609 35.9392 127.973 37.2944 127.1 37.7405C126.447 38.0815 125.726 38.3115 125.043 38.6027C124.373 38.9008 123.733 39.2615 123.132 39.6798C122.397 40.2411 121.7 40.8499 121.045 41.5024C120.4 42.1599 119.821 42.8869 119.144 43.5092L117.108 45.3984C116.463 46.056 115.832 46.7206 115.162 47.3388C114.496 47.9616 113.798 48.5478 113.069 49.0948C112.383 49.6916 111.652 50.2334 110.881 50.715C110.122 51.1852 109.639 52.758 110.035 53.2282C110.609 53.9226 111.297 54.5227 111.88 55.2295C111.969 55.3105 112.038 55.4113 112.081 55.5239C112.124 55.6365 112.139 55.7575 112.126 55.8773C112.113 55.997 112.072 56.112 112.007 56.2129C111.941 56.3138 111.852 56.3977 111.748 56.4579C111.52 56.5826 111.254 56.6159 111.002 56.5511C110.343 56.3414 109.737 56.029 109.064 55.8452C108.048 55.5724 107.027 56.11 105.979 57.4295C105.032 58.5505 104.328 59.8564 103.914 61.264C103.699 62.4858 103.38 63.6868 102.958 64.8535C102.531 66.0188 101.959 67.1405 101.485 68.3165C101.052 69.3071 100.613 70.3078 100.145 71.289C99.6563 72.2633 99.285 73.2679 98.7803 74.1997C98.2651 75.3149 97.9349 76.5066 97.8025 77.7279C97.6796 78.9822 97.2486 80.1866 96.5478 81.2341C95.8266 82.1705 95.6439 83.9448 95.4423 85.3346C95.1708 87.1017 95.5 88.8919 95.2748 90.6215C95.1315 91.4782 94.9392 92.326 94.6989 93.1607C94.4931 94.0106 94.2693 94.867 94.1342 95.7391C94.0772 96.3851 94.2135 97.0334 94.5259 97.6017C94.7946 98.049 95.3043 98.1126 95.7048 98.3994C96.0926 98.6804 96.4546 99.0348 96.8307 99.3508C96.4404 99.6575 96.0582 100.176 95.6547 100.248C93.8825 100.556 94.2725 101.984 94.7195 103.792C94.7864 104.82 94.6577 105.851 94.3402 106.831C93.8358 108.902 93.9845 111.078 94.766 113.062C95.3382 114.334 95.7441 115.674 95.9738 117.05C96.169 118.419 96.2269 119.804 96.1463 121.184C96.0106 122.759 96.104 124.346 96.4237 125.894C96.7211 127.429 97.2754 128.903 98.0632 130.253C98.8435 131.589 99.4376 133.026 99.8291 134.523C100.228 136.011 100.426 137.546 100.418 139.087C100.438 140.8 101.084 142.446 102.235 143.715C103.387 144.978 104.177 146.529 104.521 148.203C104.852 149.529 105.061 150.867 105.405 152.195C105.823 153.869 106.331 155.519 106.927 157.138C107.082 157.736 107.397 158.28 107.837 158.713C108.278 159.145 108.828 159.45 109.428 159.595C109.578 159.607 109.723 159.649 109.856 159.719C109.989 159.788 110.106 159.884 110.201 160C110.297 160.116 110.367 160.25 110.409 160.394C110.452 160.538 110.464 160.688 110.447 160.837C109.955 163.991 110.824 167.074 112.674 170.267C115.071 174.435 116.977 178.961 119.878 182.735C120.497 183.536 120.907 184.478 121.072 185.476C121.309 186.768 121.785 188.107 121.95 189.38C122.514 192.748 123.991 195.896 126.222 198.481C127.468 200.047 128.597 201.702 129.602 203.433C133.051 209.318 135.431 215.763 138.947 221.528C139.173 222.137 139.34 222.767 139.446 223.408C139.955 225.01 140.461 226.613 140.992 228.203C142.672 233.318 144.499 238.47 144.729 243.836C144.74 244.061 144.766 244.284 144.806 244.506C144.847 244.751 144.893 244.997 144.975 245.328C145.164 245.994 145.417 246.64 145.729 247.258C146.271 248.408 147.123 249.384 148.19 250.077C149.736 251.075 151.427 251.829 153.203 252.309C154.406 252.578 155.662 252.462 156.795 251.977C157.096 251.872 157.389 251.746 157.671 251.598L158.481 251.066C159.014 250.682 159.508 250.248 159.957 249.769C160.335 249.319 160.688 248.85 161.015 248.362C161.289 247.86 161.557 247.386 161.763 246.915C161.86 246.678 161.938 246.422 162.016 246.187C162.08 245.974 162.115 245.813 162.156 245.631C162.207 245.304 162.232 244.974 162.231 244.643C162.232 244.072 162.064 243.514 161.749 243.039C161.917 242.624 162.023 242.186 162.066 241.74C162.223 239.773 162.431 237.808 162.659 235.847C163.408 229.606 164.626 223.431 166.305 217.374C167.458 215.423 168.269 213.289 168.703 211.065C169.361 208.417 170.842 206.322 171.759 203.865C174.494 196.67 177.691 189.658 181.33 182.875C182.69 180.55 183.759 178.066 184.51 175.48C184.919 174.183 185.59 172.985 186.481 171.959C187.54 170.631 188.519 169.241 189.413 167.797C192.212 163.036 194.943 158.296 197.618 153.295C200.268 148.314 202.61 143.149 204.954 137.983C205.403 137.02 205.797 136.084 206.134 135.125C206.496 134.155 206.795 133.163 207.03 132.156C207.843 128.756 209.023 125.325 209.774 121.842C210.138 119.793 210.394 117.727 210.541 115.652C212.62 111.048 212.327 105.851 212.709 100.907C212.729 99.8774 212.562 98.8526 212.216 97.8823ZM206.419 90.4313C206.191 91.5475 206.077 92.684 206.079 93.8233C206.101 94.9693 206.123 96.1338 206.145 97.284C206.212 100.948 206.037 104.612 205.622 108.252C205.475 109.85 204.848 111.365 203.822 112.599C203.251 113.308 202.737 114.062 202.286 114.853C201.818 115.687 201.523 116.606 201.418 117.557C201.302 118.482 201.408 119.421 201.726 120.297C202.057 120.973 202.48 121.601 202.983 122.161C203.403 122.708 203.428 123.273 202.926 123.575C201.994 124.13 201.079 124.53 201.125 126.258C201.159 127.524 201.038 128.811 201.034 130.09C201.054 130.42 201 130.75 200.874 131.056C200.748 131.362 200.555 131.636 200.309 131.857C199.174 132.83 198.04 133.743 196.872 134.66C196.507 134.951 196.208 135.316 195.995 135.731C195.781 136.147 195.659 136.602 195.635 137.068C195.411 139.344 194.356 141.505 193.417 143.659C192.949 144.725 192.339 145.722 191.603 146.624C190.895 147.448 190.059 148.153 189.126 148.711C188.275 149.22 188.077 149.766 188.272 150.984C188.366 151.582 188.542 152.1 188.143 152.612C187.537 153.388 186.865 154.111 186.134 154.77C184.278 156.189 183.049 158.276 182.707 160.587C182.441 162.183 182.092 163.764 181.661 165.324C181.391 166.478 180.633 166.997 179.924 166.528C179.137 166.012 178.639 166.244 178.295 167.343C177.498 169.883 176.686 172.433 175.992 174.986C175.708 176.306 175.046 177.515 174.088 178.466C173.577 178.896 173.13 179.394 172.758 179.948C171.359 182.354 170.017 184.806 168.761 187.308C167.679 189.49 166.073 191.746 166.016 194.011C165.905 195.414 165.396 196.755 164.549 197.878C163.718 198.929 163.128 200.151 162.823 201.455C162.603 202.787 162.29 204.181 162.212 205.472C162.142 206.833 161.664 208.141 160.84 209.227C160.079 210.36 160.523 210.961 160.83 211.732C161.118 212.294 161.24 212.928 161.181 213.557C161.121 214.186 160.883 214.786 160.495 215.284C159.889 216.006 159.274 216.653 158.653 217.329C157.643 218.429 158.257 220.019 157.668 221.138C156.353 223.613 155.89 226.393 155.331 229.181C154.934 231.595 154.772 234.043 154.846 236.489C155.019 238.279 155.357 240.05 155.856 241.777C155.638 242.131 155.471 242.514 155.358 242.914L155.28 243.165C155.277 243.197 155.276 243.228 155.278 243.26C155.273 243.334 155.262 243.407 155.244 243.479C155.213 243.633 155.159 243.782 155.082 243.918C155.017 244.059 154.9 244.169 154.755 244.225C154.611 244.281 154.45 244.279 154.307 244.219C153.999 244.043 153.834 244.179 153.525 244.319C153.376 244.409 153.207 244.458 153.034 244.463C152.86 244.467 152.689 244.426 152.536 244.344C152.292 244.153 152.12 243.886 152.046 243.585C152.001 243.435 151.969 243.282 151.95 243.126C151.943 243.043 151.906 242.859 151.877 242.698L151.767 242.113C151.503 240.376 151.045 238.675 150.401 237.041C149.756 235.421 149.233 233.756 148.835 232.058L148.183 229.511C147.937 228.671 147.674 227.835 147.367 227.014C146.907 225.712 146.598 224.36 146.448 222.986C146.31 221.606 145.984 220.252 145.478 218.961C144.977 217.667 144.28 216.457 143.411 215.376C142.343 214.012 141.625 212.408 141.319 210.703C140.851 207.973 139.687 205.41 137.94 203.26C137.343 202.446 136.892 201.535 136.607 200.566C135.227 197.042 133.616 193.612 131.785 190.3C129.556 186.114 126.964 182.072 126.109 177.31C125.96 176.651 125.643 176.042 125.189 175.542C123.128 173.316 121.808 170.507 121.411 167.499C121.229 166.508 120.798 165.579 120.158 164.8C117.644 162.096 116.084 158.644 115.716 154.97C115.679 154.636 115.563 154.315 115.378 154.034C114.557 152.983 113.967 151.769 113.648 150.474C113.297 149.208 113.072 147.907 112.614 146.685C111.897 144.792 111.349 142.802 110.026 141.382C109.261 140.516 108.667 139.513 108.276 138.426C107.874 137.348 107.64 136.216 107.582 135.067C107.547 133.458 107.071 131.888 106.206 130.53C105.793 129.658 105.625 128.689 105.719 127.728C105.838 125.764 105.401 123.805 104.458 122.078C103.903 120.828 104.488 120.358 104.818 119.618C105.551 117.971 105.36 117.286 103.832 115.975C103.287 115.515 102.974 115.072 103.311 114.614C103.697 114.197 103.944 113.672 104.019 113.109C104.094 112.547 103.993 111.975 103.731 111.472C103.373 110.553 103.157 109.585 103.091 108.601C103.045 107.636 103.118 106.669 103.309 105.722C103.753 103.376 104.023 101 104.118 98.6141C104.254 96.2391 104.239 93.858 104.075 91.4849C104.109 90.5381 104.33 89.6075 104.726 88.7468C105.266 87.5867 105.511 86.3112 105.439 85.0336C105.275 83.7722 105.549 82.4926 106.217 81.4095C107.103 79.9625 106.509 78.2118 107.314 76.8589C107.707 76.1748 108.06 75.4685 108.371 74.7435C108.695 74.0347 108.964 73.3026 109.178 72.5534C110.408 71.1185 111.191 69.3548 111.43 67.48C111.479 67.2426 111.792 66.9673 112.007 66.7613C112.617 66.289 113.112 65.6859 113.458 64.9966C113.803 64.3072 113.989 63.5491 114.002 62.7783C114.069 61.4906 115.136 60.5785 115.854 59.5435C117.065 58.8506 118.168 57.9827 119.127 56.9679C119.615 56.4717 120.033 55.8972 120.524 55.3943C121.012 54.8883 121.5 54.3822 121.988 53.8762C122.428 53.4287 122.874 52.9757 123.315 52.5264C123.779 52.1171 124.222 51.6838 124.641 51.2281C125.243 50.5467 125.793 49.8191 126.352 49.083C126.956 48.4108 127.582 47.7482 128.263 47.1144C129.711 45.6729 131.784 45.9663 133.405 45.0513C134.185 44.5805 134.94 44.0533 135.696 43.5393C136.076 43.2813 136.451 42.9215 136.826 42.6082C137.148 42.3209 137.542 42.1266 137.966 42.0461C139.056 41.8905 140.12 41.5853 141.127 41.139C142.113 40.7529 143.038 40.1729 144.069 39.8522C144.952 39.505 145.893 39.3316 146.841 39.3418C147.712 39.3919 148.546 39.7064 149.233 40.2434C149.663 40.6364 150.206 40.8822 150.785 40.9451C151.364 41.0079 151.948 40.8846 152.452 40.5929C154.303 39.5316 156.715 39.9406 158.775 39.3736C159.14 39.2715 159.521 39.2403 159.898 39.2816C160.278 39.3489 160.651 39.4499 161.012 39.5833C161.75 39.8881 162.523 40.1007 163.313 40.2161C164.83 40.6014 166.385 40.814 167.95 40.8498C168.409 40.8075 168.872 40.8766 169.3 41.0512C169.727 41.2258 170.106 41.5007 170.404 41.8528C171.226 42.6443 171.717 43.6736 173.222 43.7184C174.516 43.7894 175.156 45.0723 176.48 45.222C177.391 45.248 178.268 45.5698 178.979 46.1386C180.537 48.1423 182.598 49.343 184.44 51.0129C184.994 51.5241 185.513 52.0722 185.993 52.6535C186.444 53.2678 186.875 53.8902 187.33 54.4846C187.641 54.6172 187.942 54.7707 188.231 54.9442C188.508 55.1341 188.774 55.3456 189.037 55.5667C189.561 56.0103 190.065 56.4994 190.573 56.9849C191.474 58.0398 192.52 58.9629 193.678 59.7271C193.955 59.8663 194.196 60.0661 194.386 60.3116C194.575 60.557 194.706 60.8418 194.77 61.145C194.917 61.8831 195.291 62.3267 195.828 62.3906C196.89 62.492 197.998 62.9518 197.95 64.5013C197.923 65.8968 198.15 67.2855 198.62 68.5997C199.063 69.9223 199.328 71.298 199.408 72.6905C199.406 72.8418 200.206 73.2897 200.65 73.5124C200.786 73.5538 200.912 73.6234 201.02 73.7164C201.127 73.8095 201.214 73.9241 201.275 74.0528C201.336 74.1815 201.369 74.3215 201.372 74.4638C201.375 74.606 201.349 74.7474 201.294 74.8788C200.506 77.6997 200.531 77.7197 202.201 79.4349C202.827 80.0753 203.387 80.7771 203.873 81.5297C204.348 82.3085 204.835 83.106 205.311 83.8869C205.924 84.8482 206.338 85.9227 206.528 87.0468C206.718 88.1709 206.681 89.3217 206.419 90.4312V90.4313Z" fill="#000638"/>
<path d="M184.458 91.5222C183.971 91.2728 184.003 90.9489 184.248 90.4641C184.478 89.9905 184.592 89.4694 184.583 88.9432C184.574 88.417 184.441 87.9003 184.195 87.4351C183.962 87.1022 183.799 86.7255 183.716 86.3279C183.633 85.9302 183.631 85.5198 183.711 85.1215C183.803 84.2844 183.739 83.4376 183.523 82.6235C183.244 81.5881 182.865 80.582 182.392 79.6194C182.162 79.1333 181.935 78.6465 181.689 78.169L180.84 76.7868C180.554 76.2002 180.149 75.68 179.65 75.26C178.45 74.3621 177.7 73.0865 176.407 72.3337C174.867 71.502 173.515 70.3622 172.435 68.9852C172.016 68.414 171.463 67.9547 170.824 67.6478C168.175 66.5045 165.114 65.7696 162.655 67.0342C161.814 67.4787 161.021 67.0301 160.174 66.9298C159.552 66.8911 158.933 67.0443 158.401 67.3686C157.66 67.7755 157.062 68.3315 156.162 68.2017C155.144 68.2063 154.139 68.4245 153.211 68.8423C151.046 69.4388 149.271 70.8874 146.83 71.016C145.636 72.1695 144.321 73.1907 142.908 74.062C142.227 74.5724 141.658 75.2175 141.237 75.9571C141.127 76.1386 141.036 76.3312 140.966 76.5316C140.898 76.6872 140.827 76.8378 140.756 76.9894C139.126 78.1162 137.618 79.4095 136.256 80.8483C134.151 82.83 132.593 85.3214 131.732 88.0814C130.862 90.8466 130.585 93.7643 130.92 96.6439C131.149 98.53 131.606 100.381 132.28 102.158C132.913 103.923 133.627 105.62 134.279 107.421C135.337 108.515 136.29 109.706 137.127 110.978C138.4 111.612 139.607 112.37 140.732 113.241L142.493 114.414C143.084 114.788 143.708 115.108 144.357 115.37C144.942 115.636 145.534 115.869 146.13 116.092C146.713 116.341 147.313 116.55 147.924 116.719C148 116.738 148.077 116.753 148.154 116.771C149.688 117.306 151.269 117.695 152.876 117.933C154.848 118.217 156.945 118.471 158.77 117.519C159.395 117.342 160.047 117.281 160.695 117.339C161.775 117.184 163.105 117.173 163.887 116.454C163.96 116.391 164.039 116.337 164.115 116.278C166.09 115.802 168.041 115.216 170.169 114.841C170.992 114.649 171.768 114.296 172.453 113.802C173.099 113.431 173.714 113.007 174.291 112.536C174.584 112.307 174.856 112.052 175.105 111.775C175.343 111.48 175.552 111.161 175.727 110.824C176.126 110.204 176.672 109.691 177.316 109.331C177.983 108.99 178.536 108.46 178.905 107.808C179.223 107.26 179.506 106.693 179.752 106.109C179.901 105.508 180.225 104.965 180.684 104.549C181.456 103.822 182.099 102.969 182.584 102.026C183.713 99.2577 184.561 96.4995 185.563 93.6169C185.898 92.7179 185.328 91.964 184.458 91.5222ZM164.249 75.2229C164.717 76.0421 165.06 76.3341 165.708 76.2037C166.31 76.0638 166.941 76.1131 167.514 76.3449C167.817 76.4822 168.091 76.679 168.317 76.9235C168.543 77.1681 168.718 77.4555 168.832 77.7687C169.067 78.4249 169.945 78.2821 170.138 78.9933C170.301 79.7058 171.346 79.5998 171.755 80.161C172.058 80.6048 172.597 80.8898 172.864 81.3816C173.037 81.6837 173.225 81.9764 173.428 82.2587C173.629 82.5663 173.894 82.8272 174.205 83.0239C174.945 83.4505 174.367 84.4528 175.25 84.8707C175.385 84.9486 175.488 85.071 175.542 85.2167C175.596 85.3625 175.598 85.5226 175.546 85.6693C175.032 87.3997 175.45 88.8869 175.452 90.4854C175.419 91.3917 175.323 92.2946 175.165 93.1876C174.881 92.4765 174.61 91.7738 174.341 91.0741C173.784 89.6148 173.256 88.1559 172.593 86.7409C171.893 85.1772 171.036 83.688 170.038 82.2958C168.944 80.5994 167.512 79.1473 165.831 78.0308C165.04 77.5047 164.303 76.9015 163.631 76.23C163.361 75.9856 163.072 75.7461 162.768 75.5184C163.054 75.3799 163.321 75.204 163.561 74.9952C163.743 74.837 164.108 74.9849 164.249 75.2229ZM163.049 107.258C163.035 107.264 163.019 107.269 163.006 107.276C162.801 107.36 162.581 107.426 162.385 107.515C162.003 107.707 161.587 107.853 161.207 108.074C160.515 108.419 159.777 108.606 159.044 108.938C158.836 108.926 158.63 108.885 158.434 108.816C157.771 108.562 157.094 108.345 156.407 108.168C156.08 108.102 155.743 108.102 155.416 108.167C155.038 108.219 154.676 108.353 154.356 108.56C154.293 108.6 154.218 108.618 154.144 108.61C154.07 108.603 154 108.571 153.946 108.52C153.83 108.338 153.669 108.19 153.479 108.09C153.288 107.989 153.075 107.94 152.86 107.947C152.654 107.955 152.448 107.976 152.245 108.012C152.04 108.029 151.833 108.033 151.627 108.024C151.314 108.005 151.003 107.965 150.696 107.903C150.4 107.817 150.116 107.697 149.849 107.544C149.273 107.237 148.824 106.737 148.581 106.131C148.403 105.693 148.102 105.316 147.714 105.045C147.519 104.934 147.304 104.862 147.081 104.833C146.997 104.815 146.907 104.804 146.816 104.794C146.238 104.017 145.745 103.181 145.343 102.3C145.055 101.2 144.418 100.224 143.527 99.5168C143.442 99.46 143.49 99.2046 143.595 99.1472C143.739 99.0709 143.878 98.9846 144.01 98.8888C144.173 99.2227 144.318 99.556 144.44 99.842C145.153 101.508 146.327 102.935 147.823 103.957C148.454 104.362 149.133 104.684 149.845 104.917C150.542 105.125 151.192 105.467 151.758 105.924C152.318 106.4 153.031 106.658 153.766 106.65C154.467 106.689 155.156 106.609 155.823 106.64C158.337 106.941 160.866 107.099 163.397 107.112C163.316 107.145 163.235 107.178 163.157 107.213C163.12 107.226 163.084 107.241 163.049 107.258H163.049ZM166.804 91.6843C167.097 91.833 167.325 92.0838 167.446 92.3895C167.566 92.6951 167.571 93.0343 167.458 93.343C167.318 93.7152 167.26 94.1134 167.288 94.5102C167.316 94.9069 167.43 95.2929 167.621 95.6417C167.936 96.1779 168.32 96.7163 168.022 97.3752C167.688 98.3784 167.605 99.4487 167.783 100.491C167.791 100.669 167.795 100.847 167.793 101.026C167.594 100.888 167.373 100.786 167.139 100.723C166.496 100.416 165.811 100.207 165.106 100.103C163.489 100.304 161.943 99.6128 160.526 99.3193C159.982 99.1537 159.403 99.1455 158.855 99.2958C158.307 99.4461 157.813 99.7487 157.431 100.168C157.012 100.573 156.529 100.778 156.124 100.242C155.921 99.986 155.656 99.7863 155.355 99.6612C155.053 99.536 154.725 99.4895 154.4 99.526C153.182 99.5607 151.968 99.3505 150.832 98.9078C150.644 98.8304 150.648 98.2463 150.761 97.9074C150.975 97.2551 151.114 96.7179 150.706 96.399C149.659 95.5551 148.898 94.4089 148.527 93.1168C148.468 92.8548 148.418 92.595 148.373 92.3304C148.348 92.051 148.342 91.7702 148.355 91.49C148.348 91.179 148.377 90.8682 148.441 90.5639C148.491 90.2083 148.567 89.8569 148.669 89.5126C148.759 89.2226 148.829 88.9264 148.877 88.6264L149.12 87.7514C149.232 87.2778 149.456 86.8414 149.602 86.3818C149.798 85.9458 150.029 85.5262 150.291 85.1268C150.555 84.7385 150.883 84.3984 151.262 84.1216C151.447 83.9839 151.643 83.8625 151.849 83.7587C152.068 83.678 152.294 83.614 152.523 83.5672C152.823 83.5013 153.106 83.3753 153.355 83.1969C153.587 83.0031 153.804 82.7917 154.003 82.5645C154.073 82.4759 154.148 82.3923 154.229 82.3143C154.315 82.2597 154.404 82.2101 154.496 82.1657C154.678 82.0775 154.867 82.0072 155.062 81.9556C155.266 81.9488 155.47 81.9561 155.673 81.9689L155.975 81.9916L156.296 82.0763C157.066 82.2772 157.976 82.0843 158.738 82.6643C159.563 83.1036 160.361 83.5916 161.128 84.1257C161.623 84.5999 162.682 84.4596 162.916 85.3154C163.124 86.1611 163.885 86.3799 164.647 86.7596C165.115 86.9733 165.142 87.5044 165.219 87.9763C165.206 88.2241 165.271 88.4697 165.407 88.6776C165.543 88.8855 165.741 89.0448 165.973 89.1326C166.201 89.2112 166.175 89.6875 166.12 90.0038C166.039 90.3202 166.062 90.6543 166.185 90.9569C166.308 91.2595 166.525 91.5145 166.804 91.6843H166.804Z" fill="#000638"/>
<path d="M169.626 190.755C169.531 190.701 169.508 190.525 169.614 190.353C170.433 188.982 169.646 188.719 169.345 188.148C168.777 187.024 168.522 185.768 168.606 184.512C168.634 184.242 168.599 183.969 168.504 183.715C168.41 183.461 168.257 183.232 168.059 183.046C167.861 182.861 167.623 182.724 167.363 182.645C167.103 182.567 166.829 182.55 166.561 182.595C165.579 182.65 164.833 182.576 164.21 182.618C163.463 182.649 162.747 182.927 162.176 183.409C161.298 184.17 161.125 183.078 160.407 183.09C160.284 183.089 160.159 183.095 160.032 183.105C159.898 183.132 159.756 183.178 159.616 183.221C159.334 183.31 159.045 183.417 158.754 183.534C158.152 183.839 157.536 184.193 156.92 184.564C156.301 184.943 155.689 185.282 155.059 185.609C154.426 185.921 153.763 186.167 153.081 186.345C152.828 186.398 152.504 187.041 152.376 187.514C151.961 188.961 151.733 189.712 150.628 188.658C150.549 188.603 150.454 188.577 150.358 188.583C150.262 188.59 150.171 188.629 150.1 188.694C149.551 189.316 148.97 189.91 148.36 190.474C147.747 191.024 147.204 191.526 146.558 192.044C145.886 192.676 145.34 193.43 144.946 194.264C144.882 194.373 144.809 194.583 144.891 194.668C145.374 195.16 146.673 195.571 145.896 196.145C145.444 196.406 145.005 196.691 144.583 196.998C144.566 197.013 144.551 197.029 144.538 197.047L144.437 197.197C144.371 197.299 144.308 197.403 144.249 197.51C144.148 197.7 144.062 197.897 143.991 198.101C143.874 198.45 143.811 198.816 143.806 199.185C143.806 199.882 143.998 200.565 144.358 201.16C144.799 201.943 145.479 202.563 146.299 202.929C146.73 203.122 147.216 203.154 147.67 203.02C147.817 202.973 147.952 202.895 148.067 202.792C148.182 202.689 148.274 202.562 148.336 202.421C148.475 202.043 148.503 201.634 148.416 201.241C148.394 201.115 148.356 200.993 148.323 200.869C148.356 200.832 148.395 200.799 148.439 200.774C148.835 200.56 149.278 200.451 149.727 200.455L149.741 200.456C150.077 200.677 150.372 200.871 150.631 201.043C150.417 201.367 150.259 201.725 150.164 202.101C149.994 202.748 149.77 203.155 149.513 203.131C148.24 202.931 146.655 203.742 145.83 205.705C145.751 205.852 145.631 205.972 145.484 206.051C145.337 206.129 145.171 206.161 145.005 206.144C144.543 206.026 144.054 206.085 143.633 206.308C143.211 206.531 142.888 206.903 142.726 207.351C141.731 209.351 140.616 211.289 139.387 213.155C138.745 214.122 139.299 215.206 138.98 216.094C138.852 216.711 138.966 217.354 139.299 217.889C139.619 218.438 139.981 218.948 140.261 219.477C140.468 219.904 140.737 220.299 141.058 220.648L141.517 221.16L142.078 221.72C142.526 222.166 143.035 222.545 143.589 222.848C143.217 223.135 142.871 223.456 142.557 223.806C142.087 224.383 141.729 225.042 141.499 225.75C141.343 226.177 141.23 226.619 141.16 227.069C141.063 227.518 141.022 227.978 141.039 228.438C141.045 228.665 141.059 228.893 141.082 229.118L141.101 229.287L141.136 229.523C141.201 229.877 141.299 230.224 141.43 230.559C141.513 230.77 141.614 230.973 141.731 231.167C141.861 231.387 142.007 231.598 142.169 231.796C142.513 232.211 142.929 232.562 143.397 232.83C144.097 233.235 144.899 233.43 145.707 233.391C146.432 233.325 147.149 233.179 147.842 232.955L149.112 232.625C149.889 232.493 150.607 232.128 151.172 231.578L151.868 230.857C151.995 230.727 152.128 230.601 152.244 230.46C152.426 230.241 152.602 230.016 152.783 229.795C152.802 230.525 152.116 230.989 151.808 231.57C151.551 232.051 151.4 232.582 151.369 233.127C151.274 233.112 151.18 233.102 151.087 233.08C150.679 232.992 150.263 232.952 149.846 232.96C149.382 232.938 148.918 232.994 148.473 233.128C147.987 233.247 147.53 233.46 147.125 233.754C145.934 234.577 145.335 236.124 146.379 237.275C146.758 237.717 146.992 238.05 146.557 238.457C146.347 238.67 146.225 238.955 146.217 239.254C146.208 239.553 146.313 239.844 146.511 240.069C146.681 240.286 146.84 240.486 147.013 240.675C147.206 240.865 147.381 241.038 147.572 241.195C147.925 241.502 148.358 241.703 148.819 241.775C148.948 241.791 148.857 242.316 148.811 242.648C148.685 243.273 148.773 243.886 149.4 244.003C150.274 244.15 151.173 244.003 151.955 243.584C152.438 243.325 152.895 243.019 153.318 242.671C154.044 242.08 154.701 241.571 155.663 240.711C156.012 240.36 156.319 239.97 156.58 239.549C157.468 238.241 157.92 236.793 159.432 235.82C159.674 235.63 159.863 235.381 159.979 235.097C160.095 234.813 160.135 234.503 160.095 234.198C160.105 233.379 160.41 232.59 160.955 231.978C161.159 231.643 161.302 231.275 161.377 230.891L161.479 230.537L161.612 230.133C161.708 229.856 161.831 229.589 161.978 229.336C162.441 228.275 162.767 227.16 162.95 226.017C163.159 225.192 162.403 224.829 162.86 223.967C163.309 223.051 162.792 222.599 162.335 222.217C162.048 221.989 162.201 221.489 162.221 221.001C162.256 220.517 162.176 220.039 161.617 219.991C161.422 219.971 161.381 219.52 161.335 219.222C161.331 219.077 161.297 218.935 161.235 218.804C161.173 218.673 161.084 218.556 160.974 218.462C160.864 218.367 160.736 218.297 160.597 218.255C160.458 218.214 160.312 218.201 160.168 218.22C160.16 218.155 160.164 218.09 160.15 218.026C160.127 217.924 160.382 217.686 160.522 217.67C161.668 217.557 162.081 217.09 162.234 216.597C162.375 216.096 162.262 215.585 162.506 215.134C162.794 214.593 163.042 214.031 163.248 213.454L163.566 212.623L163.823 211.822C164.246 210.586 164.844 209.417 165.6 208.351C165.655 208.287 165.694 208.212 165.714 208.13C165.735 208.048 165.736 207.963 165.718 207.88C165.581 207.578 165.54 207.24 165.6 206.913C165.642 206.543 165.703 206.176 165.784 205.812C165.987 205.111 166.046 204.377 165.956 203.653C165.946 203.613 165.933 203.574 165.923 203.534C166.106 203.258 166.314 202.998 166.544 202.759C166.871 202.39 167.061 201.919 167.082 201.426C167.104 200.933 166.955 200.447 166.662 200.051C166.384 199.613 166.098 199.233 166.73 198.652C167.819 197.633 168.122 196.504 168.776 195.406C169.347 194.537 169.799 193.594 170.12 192.604C170.333 191.765 170.238 191.06 169.626 190.755ZM148.234 200.551C148.242 200.572 148.249 200.593 148.254 200.616L148.234 200.551ZM149.252 200.135L149.179 200.085L149.273 200.147L149.252 200.135ZM148.597 215.514L148.596 215.515L148.593 215.517L148.56 215.548C148.548 215.558 148.531 215.566 148.518 215.577L148.597 215.514ZM154.706 198.656C154.756 198.611 154.803 198.563 154.846 198.511C155.015 198.283 155.216 198.081 155.442 197.909C155.582 197.827 155.749 197.614 155.891 197.583C156.021 197.559 156.129 197.722 155.846 198.58C156.151 197.939 156.177 198.108 155.992 198.542C156.629 197.402 157.017 197.099 157.147 197.16C157.284 197.214 157.215 197.471 157.439 197.395C157.645 197.34 157.608 197.539 157.708 197.592C157.805 197.657 158.048 197.578 158.759 197.27C159.085 197.133 158.911 197.37 158.892 197.478C158.82 197.848 158.725 198.213 158.609 198.571C158.145 198.611 157.69 198.716 157.255 198.882C156.634 199.12 155.96 199.186 155.304 199.075C154.954 199.034 154.601 199.036 154.253 199.083L154.47 198.868C154.552 198.802 154.631 198.731 154.706 198.656V198.656ZM149.528 228.457L149.525 228.456C149.536 228.46 149.531 228.459 149.528 228.457ZM149.627 228.368L149.624 228.368L149.614 228.371L149.57 228.381L149.524 228.386L149.523 228.381L149.628 228.367L149.627 228.368ZM149.376 240.8L149.381 240.792L149.405 240.761C149.466 240.681 149.535 240.606 149.61 240.539L149.613 240.537C149.534 240.624 149.459 240.707 149.376 240.8L149.376 240.8ZM153.228 239.277L153.233 239.276C153.255 239.278 153.244 239.278 153.228 239.277V239.277ZM154.325 227.871C154.374 227.808 154.422 227.744 154.471 227.682L154.475 227.686C154.546 227.734 154.46 227.807 154.325 227.871V227.871Z" fill="#80829B"/>
<path d="M69.2724 156.853C69.179 156.552 69.0813 156.249 69.0078 155.935C68.9141 155.641 68.8437 155.34 68.7973 155.035C68.7526 154.675 68.7876 154.309 68.9 153.964C69.0021 153.628 68.8968 153.308 68.618 153.237C67.4173 152.921 66.2981 152.351 65.3357 151.566C64.8457 151.229 64.3253 150.939 63.7813 150.699C63.1966 150.349 62.5185 150.187 61.839 150.236C61.2148 150.381 60.7539 149.334 60.0478 149.364C59.4765 149.391 58.9484 149.765 58.2437 149.15C58.1449 149.315 58.0035 149.451 57.8344 149.542C57.6652 149.634 57.4745 149.679 57.2822 149.672C56.9047 149.656 56.5266 149.684 56.1554 149.755C55.835 149.856 55.5375 150.019 55.2799 150.235C54.9165 150.509 55.0588 150.573 54.9723 150.839C54.9052 151.22 54.5578 151.363 54.0888 151.418C53.6601 151.477 53.2474 151.62 52.8746 151.84C52.5018 152.059 52.1765 152.351 51.9174 152.697C51.289 153.5 50.9444 154.489 50.9376 155.508C50.9287 155.663 50.8842 155.813 50.8076 155.947C50.731 156.082 50.6244 156.196 50.496 156.283C50.2364 156.507 50.029 156.786 49.8885 157.099C49.748 157.412 49.6778 157.752 49.6828 158.095C49.6354 158.57 50.3756 159.065 49.9401 159.575C49.4891 160.179 50.4408 160.619 50.7581 161.087C51.1092 161.684 51.4003 162.315 51.6271 162.97C51.6345 162.997 51.6379 163.027 51.6455 163.055C51.764 163.481 51.927 163.894 52.1318 164.286C52.312 164.61 52.5031 164.956 52.6791 165.246C53.0627 165.856 53.3278 166.533 53.4605 167.241C53.7203 167.318 53.9603 167.451 54.1639 167.63C54.3675 167.809 54.5298 168.03 54.6397 168.277C55.9912 167.961 56.4804 168.832 57.4961 168.959C57.9491 169.005 58.3643 169.168 58.8385 169.202C59.1113 169.229 59.3866 169.193 59.6436 169.098C59.9006 169.002 60.1326 168.85 60.3219 168.652C60.5366 168.432 60.7914 168.522 61.0411 168.495C61.3597 168.462 61.6758 168.407 61.9873 168.332C62.0993 168.37 62.2201 168.373 62.3337 168.34C62.4474 168.307 62.5483 168.241 62.6231 168.149C62.9212 168.045 63.2139 167.926 63.4999 167.792C64.1477 168.124 64.6508 167.74 65.0856 167.435C65.4435 167.201 65.7823 166.939 66.0989 166.652C66.3283 166.607 66.5609 166.581 66.7945 166.573C66.9469 166.552 67.0933 166.5 67.2246 166.42C67.3559 166.34 67.4692 166.234 67.5573 166.108C67.8947 165.733 68.3483 165.373 68.1554 164.674C68.0466 164.316 68.3012 164.197 68.5816 164.054C68.8558 163.911 69.1696 163.757 69.121 163.446C69.0778 163.19 69.1803 162.974 69.0654 162.718C69.115 162.655 69.1447 162.579 69.1508 162.5C69.1569 162.42 69.1391 162.34 69.0998 162.271C69.0954 162.263 69.0947 162.255 69.0906 162.247C69.136 162.184 69.1882 162.127 69.2462 162.075C69.577 161.77 69.9965 161.415 70.0279 160.996C70.0963 159.726 70.2676 158.463 70.5399 157.22C70.6336 156.803 70.0639 156.7 69.2724 156.853Z" fill="#000638"/>
<path d="M114.352 150.145C114.227 148.674 113.773 147.251 113.023 145.98C112.681 145.373 112.292 144.794 111.859 144.248C111.449 143.732 111.005 143.244 110.528 142.788C109.459 141.832 108.308 140.973 107.086 140.221C105.993 139.541 104.985 138.732 104.085 137.811C103.102 137.613 102.183 137.179 101.405 136.547C99.3637 136.803 97.8678 135.682 96.0665 135.31C94.4261 134.993 92.9036 134.139 91.0787 134.717C90.6614 134.772 90.2369 134.712 89.8516 134.542L87.0195 133.96L84.1779 133.449C82.2314 133.272 80.3385 132.715 78.6062 131.81C78.1011 131.565 77.5501 131.43 76.9892 131.412C76.0258 131.171 75.0122 131.224 74.0794 131.565C73.0906 132.042 72.2236 130.869 71.2372 131.152C70.8181 131.207 70.4059 131.305 70.0072 131.445C69.8197 131.535 69.6141 131.583 69.4058 131.583C69.1975 131.583 68.9918 131.536 68.8043 131.445C68.1613 131.125 67.4593 130.939 66.7418 130.9C65.7622 130.944 64.7876 130.938 63.8089 130.89C62.8072 130.82 61.813 130.667 60.8364 130.433C60.2114 130.278 59.8221 130.903 59.6589 131.803C59.5671 132.304 59.3432 132.312 58.988 132.125C58.6748 131.936 58.3098 131.851 57.9451 131.882C57.5805 131.912 57.2349 132.058 56.9578 132.297C56.7735 132.511 56.5281 132.664 56.2544 132.735C55.9808 132.807 55.6919 132.793 55.4264 132.696C54.8775 132.528 54.2965 132.494 53.7317 132.596C53.0276 132.713 52.3332 132.883 51.6544 133.105C50.9627 133.305 50.2706 133.527 49.5842 133.785C49.1472 133.883 48.7374 134.077 48.3842 134.352C47.6202 135.122 46.5636 135.285 45.7928 136.017C45.3759 136.472 44.8666 136.834 44.2989 137.077C43.7312 137.321 43.1181 137.44 42.5006 137.428C42.0108 137.392 41.5213 137.501 41.0928 137.741C39.5311 138.792 37.6417 139.81 37.2187 142.043C37.0683 142.785 36.2787 142.861 35.7356 143.249C35.3492 143.552 35.0811 143.98 34.9778 144.46C34.7935 145.108 34.8777 145.815 34.2034 146.191C33.8404 146.408 33.5434 146.72 33.3442 147.093C33.154 147.451 33.0014 147.829 32.7844 148.176C32.3415 148.958 31.984 149.785 31.7182 150.644C31.3994 151.529 30.8926 152.334 30.2328 153.004L30.1939 153.992C30.2019 154.318 30.204 154.642 30.1886 154.964C30.1562 155.623 30.0341 156.273 29.8258 156.899C29.7439 157.554 29.8091 158.219 30.0165 158.847C30.0622 159.01 30.137 159.163 30.2373 159.3C30.5975 159.934 30.8491 160.623 30.9819 161.34C31.1349 162.053 31.115 162.792 30.924 163.495C30.9148 163.572 30.9312 163.651 30.9706 163.718C31.01 163.785 31.0703 163.838 31.1423 163.868C32.4941 164.085 32.2682 164.826 32.2792 165.634C32.3724 166.257 32.6527 166.836 33.083 167.295C33.8551 168.461 34.6999 169.466 34.6559 171.032C34.6881 171.519 34.8449 171.99 35.1114 172.399C35.4739 173.024 35.8772 173.625 36.3187 174.197C36.7326 174.796 37.1975 175.359 37.7083 175.878C38.6822 176.938 39.8414 177.811 41.1289 178.454C41.6424 178.761 42.139 179.095 42.6166 179.455C43.3036 179.803 43.8926 180.317 44.3303 180.95C44.5103 181.218 44.7651 181.428 45.063 181.552C45.3609 181.677 45.6889 181.711 46.0062 181.651C46.3129 181.616 46.7303 181.631 46.8404 181.864C47.4131 183.025 48.5261 183.264 49.5504 183.571C51.1807 184.052 52.8255 184.4 54.4471 184.738C55.7691 185.042 57.1101 185.413 58.4573 184.889C58.9336 184.684 59.3047 185.056 59.7324 185.141C60.4559 185.304 61.2675 185.668 61.908 185.331C62.899 184.824 63.9273 185.221 64.8555 184.634C65.3892 184.227 66.0269 183.978 66.6956 183.915C67.3642 183.853 68.0369 183.981 68.6366 184.283C69.3323 184.566 70.1061 184.591 70.8187 184.354C71.8176 184.154 72.7826 183.829 73.7818 183.648C74.7757 183.353 75.8308 183.331 76.8363 183.584C77.0434 183.656 77.2655 183.673 77.4813 183.634C77.697 183.595 77.8991 183.502 78.0683 183.362C79.6683 181.928 81.5296 180.815 83.5505 180.085C84.5851 179.642 85.6022 179.174 86.6104 178.68C87.7713 178.198 88.863 177.565 89.8567 176.795C90.7289 176.005 92.0789 176.342 93.0329 175.713C93.8028 175.187 94.4689 174.388 95.627 174.468C96.1296 173.278 97.3777 173.191 98.307 172.612C99.1439 172.091 99.8451 171.379 100.353 170.534C100.798 169.854 101.445 169.329 102.203 169.035C103.417 168.517 104.53 167.79 105.492 166.887C106.494 165.929 107.352 164.829 108.038 163.624C108.299 163.215 108.677 162.894 109.122 162.7C110.243 162.065 111.152 161.113 111.735 159.964C112.349 158.963 112.125 157.659 112.953 156.783C113.137 156.564 113.272 156.308 113.351 156.033C113.43 155.758 113.451 155.47 113.412 155.186C113.516 154.947 113.618 154.7 113.717 154.436C114.225 153.066 114.441 151.604 114.352 150.145ZM104.339 150.832C104.229 150.858 104.121 150.894 104.016 150.94C104.131 150.972 104.134 151.044 104.084 151.095C104.05 151.124 104.01 151.145 103.967 151.155C103.905 151.188 103.84 151.215 103.773 151.235C103.422 151.593 103.384 152.362 103.103 153.097C103.071 153.195 103.034 153.401 103.132 153.468C103.689 153.871 105.04 154.071 104.364 154.748C104.011 155.102 103.481 155.366 103.156 155.742C102.597 156.384 102.824 157.535 103.59 158.576C103.224 159.101 102.803 159.585 102.332 160.018C101.545 160.675 100.681 161.232 99.7577 161.678C99.313 161.943 98.8883 162.241 98.4869 162.569C97.1432 163.543 95.9759 164.777 94.0741 164.943C93.7526 165.004 93.4491 165.137 93.1866 165.332C92.9241 165.528 92.7095 165.78 92.5591 166.071C92.0518 166.803 91.2942 167.325 90.4289 167.538C89.6342 167.839 89.0892 168.592 88.2076 168.85C87.3346 169.068 86.7393 169.832 85.9218 170.178C85.3379 170.428 85.2644 171.447 84.4919 171.387C83.7194 171.328 83.4416 172.004 83.0923 172.634C82.6648 173.387 81.3926 172.416 81.0843 173.517C81.0262 173.722 80.6259 173.648 80.3622 173.578C80.2376 173.526 80.1038 173.5 79.9688 173.5C79.8338 173.501 79.7003 173.529 79.5762 173.582C79.4521 173.635 79.3399 173.713 79.2464 173.81C79.1528 173.907 79.0797 174.022 79.0315 174.149C78.9997 174.28 78.9402 174.403 78.8571 174.509C78.7739 174.615 78.669 174.703 78.5493 174.765C78.4296 174.827 78.298 174.864 78.1632 174.871C78.0284 174.878 77.8936 174.857 77.7678 174.808C77.4627 174.675 77.1249 174.636 76.7976 174.696C76.4703 174.757 76.1684 174.913 75.9306 175.146C75.5591 175.512 75.2314 175.954 74.6324 175.802C73.7404 175.664 72.8303 175.886 72.1021 176.419C71.5693 176.691 71.0159 176.921 70.447 177.106C69.8585 177.269 69.2412 177.3 68.6395 177.195C67.3951 176.942 66.1928 177.217 64.9921 176.89C64.1935 176.652 63.3609 176.549 62.5284 176.585C61.6001 176.486 60.6616 176.553 59.7571 176.784C58.7832 177.188 58.0364 175.956 57.127 176.028C56.7927 175.992 56.4616 175.93 56.1369 175.843C54.5024 175.591 52.9085 175.123 51.397 174.452C49.9177 173.818 48.5467 172.957 47.3339 171.899C46.6676 171.382 46.1924 170.677 44.9487 170.806C44.8631 170.811 44.8283 170.6 44.896 170.501C46.0409 168.869 44.642 169.379 44.3458 168.896C44.0295 168.315 43.4758 167.907 43.1623 167.307C42.9849 167.022 42.8546 166.711 42.7764 166.385C42.7268 165.997 42.7705 165.604 42.9039 165.236C42.9264 165.186 42.9312 165.13 42.9172 165.077C42.9033 165.024 42.8716 164.978 42.8274 164.945C42.6161 164.792 42.4487 164.586 42.3417 164.348C42.2348 164.11 42.1921 163.848 42.2179 163.588C42.2463 163.079 42.2336 162.568 42.1799 162.061C42.0715 161.681 42.0041 161.29 41.979 160.896C41.9444 160.503 41.862 160.119 41.7977 159.736C41.7263 159.298 41.6266 158.866 41.499 158.442C41.412 158.01 41.3438 157.573 41.2884 157.131C41.2193 156.142 41.591 155.206 41.3404 154.23C41.177 153.73 41.4912 153.37 41.7567 153.026C41.8949 152.864 42.0208 152.693 42.1332 152.512C42.2636 152.357 42.3393 152.164 42.3486 151.961C42.4054 151.604 42.5038 151.255 42.6416 150.921C42.6999 150.654 42.5546 150.303 42.0483 149.84C41.6844 149.511 41.5471 149.225 41.764 149.15C42.2499 149.076 42.6985 148.846 43.0423 148.495C43.1903 148.303 43.2975 148.082 43.3575 147.847C43.4175 147.612 43.429 147.367 43.3914 147.128C43.3774 146.927 43.6546 146.808 43.8961 146.892C44.7406 147.189 45.151 147.174 45.414 146.623C45.623 146.068 46.0128 145.598 46.5206 145.291C47.0285 144.984 47.6249 144.857 48.2139 144.929C48.8552 145.027 49.002 144.2 49.6351 144.317C50.2759 144.448 50.4293 143.49 50.9637 143.275C51.3844 143.108 51.7556 142.776 52.1956 142.615C52.8028 142.5 53.3534 142.183 53.7586 141.717C54.1899 141.12 54.9916 141.801 55.3944 140.995C55.4611 140.88 55.5686 140.795 55.6953 140.757C55.8221 140.718 55.9588 140.729 56.0779 140.787C56.7324 141.094 57.461 141.206 58.1776 141.112C58.8503 141.061 59.5116 140.912 60.1813 140.846C61.7775 140.716 63.3744 140.662 64.9651 140.581C65.5968 140.532 66.2009 141.109 66.7758 141.115C67.4776 141.12 68.1619 140.419 68.8852 140.36C69.8619 140.233 70.845 140.164 71.8298 140.151C72.8213 140.125 73.8105 140.259 74.7594 140.548C75.4761 140.753 76.0776 141.787 76.8294 141.375C77.6029 140.949 78.2066 141.885 78.9706 141.414C79.1677 141.295 79.4185 141.574 79.6293 141.714C80.2437 142.108 80.8129 141.66 81.4201 141.015C81.7644 140.647 82.1432 140.287 82.4789 140.72C83.0424 141.438 83.803 141.508 84.4306 141.954C85.5009 142.711 86.4278 143.655 87.8714 142.861C87.9297 142.828 87.9981 142.819 88.0628 142.836C88.1275 142.852 88.1836 142.892 88.2195 142.948C88.6965 143.894 89.5022 143.45 90.2453 143.468C90.8204 143.444 91.3912 143.576 91.8971 143.851C92.4029 144.126 92.8249 144.532 93.118 145.028C93.222 145.233 93.3659 145.416 93.5414 145.566C93.7169 145.715 93.9205 145.828 94.1402 145.898C94.3598 145.968 94.5913 145.993 94.8208 145.972C95.0504 145.951 95.2735 145.885 95.4771 145.777C97.0754 145.168 98.1264 146.305 99.659 145.984C100.506 145.819 100.677 147.024 101.174 147.495C101.876 148.068 102.609 148.604 103.368 149.099C103.655 149.304 103.896 149.566 104.076 149.869C104.116 149.991 104.198 150.142 104.142 150.24C104.101 150.368 104.048 150.491 103.984 150.609C103.957 150.658 104.021 150.658 104.13 150.638C104.26 150.591 104.392 150.544 104.492 150.508C105.303 150.204 105.838 150.406 104.339 150.832Z" fill="#000638"/>
<path d="M101.916 147.474C101.407 146.093 100.504 144.891 99.3187 144.018C98.1335 143.145 96.7183 142.639 95.2482 142.562C93.8579 142.497 92.4673 142.682 91.1425 143.109C90.9947 143.152 90.8491 143.21 90.7026 143.262C90.3 142.781 89.846 142.345 89.3486 141.963C88.0499 140.971 86.5048 140.351 84.8799 140.172C83.7622 140.039 82.6315 140.059 81.5194 140.234C80.9832 140.285 80.464 140.45 79.9965 140.718C79.736 140.867 79.4714 141.029 79.2068 141.209C78.9049 141.38 78.6428 141.613 78.438 141.893C78.0922 142.507 77.7495 143.115 77.4101 143.718C77.086 144.331 76.8161 145.025 76.5287 145.654C76.3902 145.976 76.2439 146.286 76.116 146.611L75.7628 147.605C75.5337 148.264 75.2872 148.897 75.0759 149.545C74.8514 150.28 74.7802 150.593 74.6548 151.029C74.5438 151.449 74.4322 151.871 74.32 152.295C74.0789 153.139 73.851 153.999 73.5713 154.875C73.4612 155.364 73.453 155.87 73.5473 156.362C73.6415 156.854 73.8361 157.321 74.119 157.734C74.6668 158.488 74.9213 159.415 74.8349 160.342C74.2973 162.804 74.0169 165.793 75.1281 168.117C76.2526 170.381 77.6504 169.004 77.9278 168.411C77.9624 168.33 77.991 168.235 78.0249 168.153C78.0917 168.375 78.1712 168.594 78.2631 168.808C78.538 169.443 78.9466 170.011 79.4611 170.474C80.0984 171.042 80.8839 171.418 81.7263 171.558C82.4702 171.677 83.232 171.615 83.9465 171.376C84.4041 171.221 84.841 171.011 85.2475 170.751C85.5732 170.543 85.7581 170.397 86.0076 170.216C86.4606 169.865 86.891 169.485 87.2962 169.079C87.994 168.428 88.7589 167.853 89.5779 167.363C89.9697 167.1 90.2918 166.745 90.5163 166.33C90.7409 165.915 90.8613 165.452 90.8672 164.98C90.8832 164.492 90.9277 164.006 91.0004 163.523C92.3011 163.525 93.596 163.351 94.8498 163.005C96.191 162.587 96.5666 161.032 97.9244 160.481C99.1097 159.984 99.3066 158.953 99.4354 157.939C99.4783 157.428 99.5742 156.924 99.7215 156.433C99.814 156.169 99.9395 155.918 100.095 155.686C100.311 155.328 100.558 154.99 100.833 154.675C101.409 154.003 101.833 153.214 102.077 152.363C102.544 150.758 102.488 149.045 101.916 147.474ZM79.7053 155.215C80.0437 154.766 80.3236 154.275 80.538 153.755C80.6444 153.478 80.7542 153.192 80.8659 152.901L81.0193 152.462L81.0957 152.195C81.2535 151.486 81.4932 150.797 81.8101 150.144C82.142 149.6 82.4526 148.98 82.8696 148.362C83.0784 148.051 83.3752 147.808 83.7222 147.666C84.0609 147.547 84.4297 147.546 84.7693 147.662C84.8277 147.686 84.8794 147.724 84.9204 147.772L84.329 148.48L83.5194 149.525C82.9969 150.236 82.4931 150.962 82.0278 151.714C80.9798 153.418 80.1283 155.236 79.4897 157.132C79.4025 156.745 79.2832 156.367 79.1331 156.001C79.0331 155.784 79.4993 155.473 79.7053 155.215ZM82.4651 167.149L82.4654 167.149C82.4615 167.174 82.4622 167.17 82.4652 167.149L82.4651 167.149Z" fill="#80829B"/>
<path d="M106.219 146.69C105.999 145.465 105.05 145.115 104.117 144.839C103.605 144.775 103.115 144.594 102.685 144.309C102.255 144.024 101.897 143.643 101.638 143.196C101.366 142.679 100.984 142.226 100.52 141.87C98.6629 140.626 96.4387 140.048 94.2108 140.231C93.066 140.279 91.927 140.421 90.8057 140.656C90.5631 140.701 90.3218 140.759 90.0803 140.814C89.4643 140.383 88.8189 139.996 88.1488 139.655C87.0287 139.454 85.9312 139.259 84.8298 139.115C83.5107 138.658 82.1386 138.37 80.7468 138.26C80.3 138.206 79.8544 138.151 79.4126 138.098C78.9468 138.033 78.485 137.969 78.0299 137.906C77.0947 137.835 76.2044 137.721 75.3575 137.577C74.0269 137.347 72.6815 137.214 71.3317 137.177C69.9443 137.157 68.5954 137.634 67.5284 138.521C66.8041 139.375 66.2891 140.387 66.0244 141.475C65.7956 142.491 65.7995 143.545 66.0358 144.559C66.6993 146.785 67.7298 148.884 69.0848 150.77C69.4767 151.379 70.0072 151.887 70.6329 152.252C71.0885 152.537 71.608 152.704 72.1444 152.738C73.0409 152.723 73.9125 153.033 74.5983 153.611C76.2076 155.373 78.5344 157.15 81.0049 157.242C82.2162 157.284 82.6756 156.793 82.7994 156.274C82.8937 155.804 82.8052 155.317 82.5519 154.91C81.3889 153.364 80.0822 151.93 78.6493 150.629C77.9585 149.989 77.2113 149.412 76.4168 148.906C76.2245 148.784 76.0336 148.667 75.8331 148.563C75.682 148.49 75.5211 148.439 75.3554 148.411C74.9586 148.334 74.5905 148.263 74.257 148.198C74.043 148.158 74.2351 147.804 74.284 147.626C74.3174 147.328 74.2912 147.027 74.2071 146.74C74.123 146.452 73.9827 146.184 73.7942 145.952C73.6002 145.637 73.4792 145.283 73.4399 144.915C73.4253 144.755 73.447 144.593 73.5034 144.442C73.5597 144.291 73.6493 144.155 73.7654 144.044C74.2343 143.623 74.8269 143.367 75.4541 143.313C76.0823 143.263 76.7144 143.299 77.333 143.419C77.8466 143.49 78.2165 144.294 78.4405 144.718C78.7336 144.831 79.0509 144.865 79.3615 144.819C79.6721 144.772 79.9652 144.646 80.2123 144.452C80.487 144.249 81.825 144.556 83.098 145.075C83.0903 145.087 83.08 145.097 83.0722 145.109C82.1397 146.507 81.6968 148.174 81.8129 149.85C81.9477 151.253 82.4216 152.601 83.1937 153.779C83.5346 154.321 83.9193 154.833 84.344 155.311L84.6567 155.674C84.764 155.8 84.8208 155.853 84.9055 155.944C85.0634 156.108 85.2161 156.278 85.3813 156.432C86.0202 157.06 86.7092 157.636 87.4413 158.152C88.8716 159.164 90.4366 159.971 92.0906 160.548C92.907 160.838 93.7413 161.076 94.5882 161.259C95.3224 161.451 96.0829 161.521 96.8397 161.468C97.5433 161.405 98.2239 161.186 98.8312 160.825C99.5107 160.419 100.074 159.844 100.466 159.156C100.795 158.56 100.993 157.901 101.048 157.222C101.082 156.749 101.057 156.274 100.973 155.807C100.846 155.117 100.621 154.45 100.303 153.825C100.233 153.68 100.154 153.54 100.076 153.399C100.002 153.275 99.8845 153.077 99.8431 153.02L99.5071 152.512C99.2851 152.171 99.0618 151.828 98.8374 151.484C98.5234 150.982 98.3296 150.414 98.2711 149.825C98.7028 150.008 99.1006 150.287 99.5131 150.511C99.8136 150.709 100.056 150.984 100.217 151.306C100.377 151.629 100.45 151.988 100.427 152.347C100.487 153.002 101.246 153.5 102.08 154.041C102.849 154.441 103.497 155.039 103.957 155.774C104.205 156.602 104.258 156.578 105.324 155.936C106.108 155.602 106.798 155.082 107.335 154.42C107.76 152.999 107.96 151.519 107.929 150.036C107.827 148.703 106.468 148.069 106.219 146.69ZM93.9871 157.04L93.983 157.043C93.9544 157.052 93.9636 157.048 93.9871 157.04V157.04Z" fill="#006ADC"/>
<path d="M192.556 215.468C192.506 214.735 192.456 214.004 192.406 213.266C192.365 212.383 192.094 211.527 191.621 210.781C190.763 209.485 189.688 208.347 188.442 207.418C187.316 206.567 185.951 206.092 184.54 206.06C184.108 206.058 183.689 205.912 183.35 205.645C183.179 205.524 183.014 205.386 182.846 205.246C182.7 205.119 182.561 204.995 182.409 204.885C181.932 204.589 181.373 204.452 180.813 204.495C179.96 204.649 179.081 204.526 178.303 204.143C177.955 203.955 177.572 203.839 177.179 203.802C176.428 203.705 175.665 203.79 174.954 204.049C174.602 204.179 174.263 204.342 173.941 204.535C173.855 204.586 173.772 204.64 173.691 204.699C173.583 204.78 173.477 204.866 173.372 204.957C173.162 205.141 172.966 205.341 172.786 205.555C172.609 205.766 172.448 205.99 172.305 206.225C172.061 206.667 171.877 207.141 171.76 207.632C171.731 207.755 171.706 207.877 171.685 207.998L171.658 208.238C171.629 208.554 171.623 208.872 171.639 209.189C171.644 209.308 171.655 209.427 171.673 209.545L171.713 209.823C171.741 209.998 171.782 210.215 171.814 210.351L171.897 210.701C171.968 210.989 172.014 211.142 172.067 211.321L172.208 211.762L172.317 212.091L172.342 212.164C172.364 212.236 172.393 212.306 172.429 212.372C172.584 212.707 172.766 213.029 172.974 213.334C173.164 213.601 173.378 213.852 173.612 214.083C173.725 214.197 173.843 214.308 173.963 214.413L174.258 214.641C174.454 214.786 174.675 214.935 174.869 215.049C175.031 215.139 175.195 215.225 175.362 215.307C175.842 215.533 176.339 215.724 176.848 215.878C177.421 216.028 177.979 216.231 178.515 216.485C178.705 216.576 178.877 216.702 179.023 216.855C179.081 216.987 179.09 217.135 179.048 217.273C179.124 217.107 179.486 217.041 179.149 217.401C178.987 217.529 179.239 217.384 179.336 217.414L179.533 217.398C179.836 217.409 180.04 217.47 180.039 217.849C179.986 218.422 179.726 218.956 179.308 219.352C179.27 219.41 179.254 219.479 179.263 219.548C179.273 219.616 179.306 219.679 179.358 219.724C179.58 219.857 179.769 220.037 179.911 220.253C179.994 220.426 180.016 220.623 179.972 220.811C179.839 221.201 179.654 221.571 179.419 221.91C179.206 222.369 179.103 222.871 179.117 223.377C177.475 223.341 176.197 224.154 174.571 224.656L171.506 225.536C170.484 225.791 169.467 226.052 168.457 226.33C167.651 226.518 166.788 226.117 166.056 226.27C165.163 226.458 164.398 227.245 163.492 227.505C161.071 228.261 158.523 228.524 155.999 228.28C155.057 228.14 154.172 227.159 153.257 227.655C152.302 228.101 151.429 227.222 150.482 227.736C150.237 227.862 149.881 227.589 149.591 227.456C148.75 227.076 148.047 227.558 147.313 228.212C146.898 228.589 146.44 228.958 145.949 228.53C145.126 227.804 144.093 227.756 143.199 227.317C141.67 226.529 140.233 225.637 138.409 226.439C138.329 226.473 138.24 226.485 138.154 226.471C138.067 226.458 137.986 226.421 137.919 226.364C137.09 225.435 136.062 225.883 135.053 225.901C133.48 226.009 131.926 225.511 130.71 224.509C130.318 224.105 129.808 223.836 129.253 223.74C128.698 223.645 128.127 223.728 127.623 223.978C126.914 224.285 126.119 224.331 125.379 224.107C125.093 224.041 124.826 223.966 124.554 223.904C124.154 222.63 123.667 221.078 123.179 219.52C123.153 219.378 123.093 219.245 123.003 219.133C122.913 219.021 122.796 218.933 122.663 218.877C122.53 218.822 122.386 218.801 122.242 218.816C122.099 218.83 121.962 218.881 121.844 218.963C121.436 219.16 121.031 219.364 120.626 219.565C120.636 219.545 120.645 219.523 120.653 219.502L120.728 219.337C120.85 219.128 121.01 218.946 121.202 218.799C121.327 218.696 121.063 218.389 120.87 218.193C120.544 217.881 120.321 217.562 120.364 217.371C120.424 217.191 120.779 217.159 121.504 217.414C121.665 217.469 121.869 217.464 121.878 217.397C122.012 217.072 122.219 216.782 122.482 216.55C122.746 216.318 123.06 216.15 123.399 216.058C124.08 215.841 124.58 215.195 125.369 214.759C125.464 214.691 125.641 214.553 125.613 214.438C125.461 213.765 124.473 212.777 125.586 212.63C126.185 212.568 126.808 212.691 127.412 212.626C128.723 212.466 129.89 210.687 129.849 208.747C129.839 207.179 129.458 205.635 128.736 204.242C128.645 204.067 128.519 203.911 128.366 203.786C128.213 203.66 128.036 203.566 127.846 203.51C127.105 203.433 126.356 203.498 125.639 203.703C123.98 204.215 122.39 205.18 120.632 205.85C119.345 206.34 118.127 206.994 117.007 207.795C115.79 208.69 114.717 209.766 113.825 210.987C113.6 211.305 113.363 211.614 113.161 211.948L112.601 212.984C112.245 213.676 111.947 214.397 111.713 215.139C111.483 215.861 111.3 216.598 111.165 217.344C111.091 217.702 111.041 218.066 111.016 218.432L110.886 219.881V220.274C110.9 221.583 111.214 222.871 111.804 224.039C112.093 224.625 112.43 225.188 112.809 225.721C112.988 225.988 113.198 226.257 113.41 226.513C113.581 226.732 113.751 226.93 113.92 227.119C115.282 228.661 116.574 229.828 117.715 231.184C118.039 231.312 118.355 231.457 118.663 231.62L119.758 232.236L120.714 232.787C120.651 233.118 120.673 233.458 120.779 233.778C120.885 234.097 121.071 234.384 121.319 234.611C122.191 235.513 123.026 236.429 123.804 237.377C123.928 237.527 123.627 238.034 123.379 238.297C122.916 238.787 122.589 239.271 122.862 239.792C124.347 242.264 125.405 244.968 125.992 247.791C126.189 248.46 126.428 249.115 126.706 249.753C127.527 251.851 128.707 253.767 128.809 256.201C128.933 257.089 129.364 257.905 130.028 258.507C130.846 259.402 131.437 260.48 131.753 261.651C132.183 262.76 133.045 263.58 133.529 264.831C133.824 265.507 134.242 266.121 134.762 266.644C135.381 267.291 136.063 267.875 136.797 268.389C137.329 268.723 137.942 268.907 138.57 268.923C139.178 268.933 139.777 269.062 140.335 269.303C140.807 269.506 141.322 269.583 141.832 269.527C142.342 269.47 142.828 269.282 143.244 268.981C144.219 268.466 145.211 269.899 146.226 268.991C146.412 268.825 146.866 269.047 147.157 269.213C147.45 269.413 147.797 269.517 148.151 269.511C148.505 269.504 148.848 269.388 149.133 269.178C149.394 268.945 149.724 268.802 150.073 268.771C150.422 268.741 150.771 268.823 151.069 269.007C151.442 269.238 151.863 269.383 152.3 269.43C152.736 269.478 153.178 269.427 153.593 269.282C153.886 269.104 154.214 268.991 154.555 268.948C154.895 268.905 155.241 268.934 155.57 269.033C156.729 269.42 157.978 269.445 159.152 269.105C160.789 268.715 162.49 268.681 164.141 269.007C164.981 269.198 165.835 269.316 166.695 269.359C167.124 269.392 167.554 269.424 167.982 269.471L168.622 269.556L169.627 269.664C171.223 269.934 172.864 269.672 174.296 268.919C174.607 268.733 174.902 268.521 175.178 268.285C176.032 267.544 176.725 266.634 177.213 265.614C177.461 265.092 177.655 264.546 177.792 263.984C177.859 263.7 177.918 263.415 177.96 263.126C178.005 262.875 178.028 262.62 178.027 262.364C177.966 260.915 179.36 259.925 179.536 258.529C179.641 258.019 179.771 257.516 179.926 257.02C181.115 251.974 182.358 246.966 183.793 242.019C184.168 240.718 184.649 239.396 184.068 237.939C184.025 237.833 184.206 237.589 184.328 237.58C186.352 237.441 185.329 236.065 185.601 235.216C186.282 233.129 186.18 230.783 187.929 229.052C187.991 228.991 188.04 228.917 188.072 228.836C188.104 228.754 188.119 228.667 188.115 228.58C188.074 227.915 188.199 227.25 188.48 226.645C188.672 226.438 188.863 226.238 189.058 226.017C189.509 225.6 189.883 225.106 190.162 224.559C190.473 223.856 190.841 223.18 191.261 222.537C191.795 221.715 192.167 220.798 192.358 219.837C192.471 219.105 192.548 218.368 192.586 217.628C192.616 216.902 192.565 216.193 192.556 215.468ZM174.967 240.735C174.879 241.583 174.567 242.393 174.062 243.08C173.856 243.363 173.722 243.692 173.672 244.039C173.622 244.385 173.658 244.739 173.775 245.068C173.874 245.385 173.943 245.846 173.736 246.026C172.678 246.933 172.606 248.143 172.369 249.316C171.996 251.164 171.642 253.016 171.142 254.825C170.731 256.308 170.133 257.737 170.38 259.342C170.412 259.601 170.35 259.863 170.205 260.08C170.145 260.185 170.079 260.286 170.007 260.384C169.967 260.407 169.93 260.434 169.896 260.466C169.725 260.685 169.345 260.631 169.53 261.005C169.658 261.306 169.545 261.466 169.408 261.552C169.249 261.652 169.094 261.685 168.985 261.981C168.937 262.107 168.86 262.22 168.761 262.311C168.661 262.402 168.541 262.468 168.411 262.504C168.224 262.532 168.035 262.547 167.845 262.55C167.048 262.557 166.263 262.36 165.563 261.978C164.766 261.618 163.887 261.482 163.018 261.582C161.816 261.625 160.612 261.721 159.411 261.673C158.186 261.728 156.965 261.479 155.859 260.947C155.637 260.816 155.389 260.734 155.132 260.708C154.875 260.681 154.616 260.711 154.371 260.794C151.938 261.699 149.346 262.101 146.752 261.977L142.7 262.008C142.417 262.01 142.135 261.995 141.855 261.965C141.69 261.95 141.527 261.921 141.366 261.88C141.213 261.832 141.05 261.818 140.891 261.838C140.794 261.848 140.741 261.782 140.73 261.691C140.713 261.59 140.779 261.51 140.741 261.295C140.733 260.814 140.598 260.344 140.349 259.932C139.797 259.06 138.905 258.182 139.013 256.908C137.778 256.148 137.731 254.722 137.218 253.559C136.749 252.505 136.099 251.542 135.299 250.712C134.652 249.994 134.222 249.107 134.06 248.154C133.41 245.062 132.094 242.149 130.205 239.616C129.932 239.2 129.8 238.707 129.828 238.211C129.802 237.039 129.538 235.885 129.052 234.818C129.014 234.72 128.969 234.624 128.918 234.531C129.096 234.552 129.274 234.577 129.449 234.59C131.499 234.739 133.503 235.457 135.658 234.8C136.18 234.72 136.713 234.756 137.219 234.905C139.629 235.269 142.082 235.558 144.543 235.87C147.07 236.021 149.566 236.503 151.968 237.302C152.669 237.536 153.41 237.631 154.148 237.582C154.794 237.584 155.445 237.632 156.091 237.592C156.748 237.55 157.392 237.388 157.991 237.112C159.239 236.518 160.546 237.519 161.818 237.084C162.354 236.935 162.881 236.754 163.395 236.541C163.882 236.29 164.438 236.206 164.977 236.3C165.896 236.449 166.831 236.468 167.755 236.356C169.01 236.048 170.27 235.794 171.535 235.593C172.804 235.374 174.087 235.243 175.375 235.2C175.516 235.193 175.655 235.16 175.784 235.102C175.537 236.316 175.393 237.548 175.353 238.785C175.258 239.442 175.13 240.092 174.967 240.735Z" fill="#006ADC"/>
<path d="M173.002 244.368C173.094 244.185 173.156 243.99 173.187 243.788C173.227 243.574 173.216 243.354 173.157 243.145C173.097 242.936 172.99 242.743 172.844 242.582C172.668 242.422 172.503 242.252 172.348 242.071C171.954 241.524 172.076 241.083 172.398 240.259C172.624 239.597 172.616 238.877 172.375 238.22C171.896 237.124 171.212 236.129 170.36 235.289C169.527 234.327 168.45 233.608 167.242 233.207C166.218 232.84 165.144 232.632 164.057 232.59C162.062 232.557 160.078 232.905 158.213 233.617C156.752 234.135 155.732 235.335 154.469 235.955C152.39 236.995 150.272 237.832 148.222 238.851C147.201 239.256 146.119 239.486 145.021 239.531C143.599 239.744 143.121 240.05 142.928 241.436C142.724 242.897 141.728 243.611 140.414 244.154C139.677 244.457 138.808 244.519 137.959 244.767C137.357 245.565 136.588 246.298 135.899 247.168C135.16 248.012 134.706 249.066 134.6 250.183C134.591 250.45 134.677 250.713 134.844 250.922C135.317 251.509 136.78 251.433 137.266 251.246C137.66 251.012 138.106 250.882 138.564 250.867C139.022 250.852 139.476 250.953 139.884 251.16C140.761 251.637 140.883 251.495 141.68 250.392C141.964 250.004 142.282 249.641 142.628 249.308C143.03 248.931 143.477 248.608 143.96 248.344C145.435 247.557 146.907 246.787 148.391 246.07C149.089 245.678 149.686 245.127 150.131 244.462C150.294 244.261 150.371 244.01 150.547 243.822C150.813 243.544 151.154 243.347 151.529 243.257C151.903 243.166 152.296 243.185 152.661 243.311C152.796 243.386 152.924 243.472 153.044 243.568C152.111 243.951 151.236 244.465 150.446 245.093C148.573 246.57 146.61 247.929 144.568 249.161C143.438 249.906 142.331 250.689 141.277 251.542C140.728 251.976 140.269 252.369 139.675 252.876C139.282 253.222 138.923 253.606 138.604 254.021C138.105 254.666 137.763 255.417 137.604 256.217C137.472 256.928 137.527 257.661 137.763 258.345C137.981 258.967 138.348 259.525 138.831 259.973C139.466 260.556 140.285 260.9 141.146 260.947C141.966 260.95 142.781 261.078 143.562 261.327C144.074 261.56 144.618 261.717 145.175 261.793C145.481 261.796 145.787 261.796 146.094 261.778C146.977 261.722 147.857 261.624 148.734 261.502C148.7 261.578 148.671 261.656 148.648 261.736C148.553 262.092 148.374 262.419 148.124 262.689C147.874 262.959 147.562 263.164 147.215 263.286C146.963 263.389 146.7 263.496 146.45 263.598C145.665 263.941 145.627 264.251 146.381 264.51C146.909 264.622 147.425 264.791 147.918 265.013C148.532 265.42 148.863 266.198 149.582 266.37C150.204 266.532 151.349 265.768 151.938 265.91C154.677 266.56 157.408 265.511 159.901 264.534C161.519 263.901 162.712 262.528 164.636 262.755C165.809 262.412 166.887 261.8 167.783 260.967C168.835 259.726 170.059 258.641 171.417 257.744C172.659 256.834 173.701 255.677 174.476 254.346C175.212 253.036 175.576 251.55 175.53 250.048C175.407 247.91 174.508 245.89 173.002 244.368ZM160.04 249.773C159.959 249.935 159.887 250.1 159.825 250.269C159.674 250.454 159.487 250.607 159.275 250.717C159.063 250.827 158.831 250.893 158.592 250.91C158.168 250.893 157.758 250.749 157.416 250.496C158.086 250.283 158.76 250.084 159.44 249.913C159.637 249.865 159.839 249.82 160.04 249.773ZM164.027 239.57C164.304 239.826 164.61 240.049 164.938 240.234L165.341 240.444C165.399 240.476 165.461 240.505 165.516 240.53C165.532 240.551 165.551 240.569 165.573 240.584C165.714 240.707 165.892 240.735 165.996 240.876C166.062 240.954 166.105 241.049 166.122 241.15C166.122 241.157 166.119 241.165 166.119 241.172C165.088 241.075 164.049 241.074 163.018 241.169C162.074 241.263 161.22 241.395 160.393 241.547C161.207 240.89 162.041 240.318 162.887 239.757C163.311 239.477 163.704 239.281 164.027 239.57H164.027ZM158.986 241.75C159.05 241.767 159.106 241.777 159.166 241.791C158.497 241.935 157.832 242.088 157.153 242.252C156.734 242.358 156.313 242.471 155.891 242.589C156.311 242.226 156.807 241.962 157.343 241.817C157.879 241.672 158.44 241.649 158.986 241.75H158.986ZM155.064 251.321C155.367 251.203 155.677 251.104 155.982 250.994C155.132 251.932 153.981 252.543 152.729 252.721C152.077 252.981 151.483 253.369 150.984 253.862C150.742 254.078 150.447 254.225 150.128 254.287C149.81 254.35 149.481 254.325 149.176 254.215C149.297 254.145 149.418 254.075 149.537 254.004C151.301 252.956 153.15 252.058 155.064 251.321H155.064Z" fill="#000638"/>
<path d="M162.862 251.502C162.559 251.403 162.27 251.427 162.005 251.192C161.595 250.838 161.23 250.129 160.922 249.952C160.66 249.776 160.41 250.465 160.143 250.256C159.047 249.351 158.29 249.73 157.345 249.77C156.807 249.784 155.994 250.479 155.732 249.36C155.423 249.249 155.189 249.012 154.831 249.061C154.655 248.848 154.571 248.575 154.596 248.3C154.622 248.025 154.756 247.772 154.968 247.595C154.768 247.133 154.386 246.685 154.39 246.226C154.402 245.731 154.938 245.204 154.919 244.704C154.78 242.922 154.53 241.15 154.171 239.398C154.104 238.948 153.94 238.518 153.692 238.137C153.443 237.755 153.116 237.432 152.731 237.189C152.61 237.112 152.504 237.014 152.417 236.899C152.315 236.736 152.229 236.564 152.159 236.384C151.934 235.773 151.615 235.2 151.215 234.686C150.765 234.142 150.196 233.709 149.552 233.42C148.836 233.101 148.05 232.973 147.27 233.048C146.597 233.121 145.946 233.336 145.362 233.679C144.955 233.922 144.58 234.216 144.247 234.554C143.749 235.06 143.335 235.641 143.02 236.277C142.872 236.571 142.744 236.875 142.639 237.187L142.447 237.804C141.743 240.262 141.588 242.846 141.995 245.372C142.018 246.007 141.932 246.642 141.739 247.248C141.638 247.569 141.632 247.913 141.723 248.237C141.296 248.028 140.917 247.735 140.608 247.374C139.989 246.305 139.49 245.171 139.118 243.993C139.001 243.358 139.08 242.702 139.346 242.113C139.58 241.275 139.439 241.032 138.236 240.92C136.967 240.799 136.615 240.161 136.585 239.348C136.631 238.857 136.762 238.377 136.973 237.931C136.061 237.148 135.981 236 135.19 235.117C135.052 234.987 134.882 234.895 134.697 234.85C134.286 234.777 133.865 234.789 133.459 234.883C133.052 234.978 132.669 235.155 132.333 235.402C131.748 236.117 131.505 236.971 130.491 237.565C129.632 238.066 129.675 238.519 130.398 239.428C130.905 239.963 131.29 240.6 131.528 241.297C131.787 242.348 132.077 243.39 132.367 244.434C132.58 244.948 132.967 245.371 133.46 245.628C133.613 245.735 133.825 245.78 133.968 245.891C134.069 245.981 134.15 246.091 134.208 246.213C134.267 246.336 134.3 246.468 134.307 246.603C134.314 246.739 134.294 246.874 134.248 247.001C134.203 247.129 134.133 247.246 134.042 247.346C133.774 247.654 133.358 247.907 133.209 248.241C132.895 248.956 133.728 249.035 134.069 249.373C134.435 249.652 134.714 250.029 134.877 250.459C135.039 250.89 135.077 251.357 134.988 251.808C134.877 252.256 134.871 252.593 135.17 252.781C135.939 253.303 136.745 253.768 137.582 254.173C137.973 254.36 138.304 254.508 138.211 254.893C138.128 255.232 138.113 255.586 138.168 255.931C138.237 256.317 138.394 256.681 138.628 256.995C139.203 257.856 139.843 258.672 140.54 259.436C141.454 260.653 142.61 261.497 143.487 262.502C143.759 262.811 144.063 263.089 144.394 263.333C144.824 263.674 145.345 263.88 145.891 263.925C146.438 263.97 146.985 263.852 147.465 263.585C148.207 263.232 148.995 262.984 149.806 262.85C150.652 262.696 151.465 262.395 152.206 261.96C152.853 261.613 153.367 261.063 153.669 260.394C153.971 259.725 154.043 258.976 153.876 258.261C153.873 258.225 153.874 258.188 153.878 258.152C154.256 258.269 154.641 258.364 155.03 258.435C155.443 258.528 155.864 258.568 156.282 258.639C156.899 258.778 157.543 258.731 158.133 258.504C158.723 258.277 159.233 257.88 159.598 257.364C160.171 256.587 160.997 256.034 161.934 255.799C162.207 255.683 162.428 255.472 162.558 255.205C162.687 254.939 162.716 254.634 162.64 254.348C162.535 253.791 162.646 253.215 162.952 252.737C163.037 252.599 163.131 252.474 163.209 252.336C163.453 251.911 163.307 251.643 162.862 251.502ZM145.847 254.408C145.689 253.88 145.627 253.821 145.485 254.237C145.447 254.348 145.405 254.495 145.355 254.678C145.301 254.907 145.234 255.132 145.153 255.353C144.94 255.853 144.793 255.63 144.76 255.018C144.763 254.634 144.672 254.255 144.496 253.914C144.34 253.686 144.265 253.411 144.283 253.135C144.343 252.683 144.39 252.345 144.437 252.134L144.451 252.055C144.438 252.003 144.422 251.952 144.402 251.902L144.28 251.587C144.197 251.381 144.102 251.18 143.995 250.986C143.801 250.646 143.588 250.318 143.355 250.003C143.786 250.39 144.26 250.726 144.768 251.005C145.679 251.463 145.702 252.149 145.955 252.958C146.102 253.39 146.331 253.79 146.63 254.136C146.78 254.292 146.956 254.422 147.15 254.519C147.107 254.667 147.074 254.869 147.004 255.068C146.777 255.749 146.125 255.377 145.847 254.408H145.847Z" fill="#80829B"/>
<path d="M270.534 253.397C270.334 252.381 269.916 251.422 269.309 250.585C268.693 249.733 268.196 248.801 267.832 247.815C266.977 247.346 266.085 246.947 265.165 246.624C264.262 246.251 263.409 245.767 262.625 245.185C262.195 244.91 261.715 244.723 261.212 244.634L260.431 244.483C260.239 244.457 260.115 244.452 259.961 244.424C259.806 244.421 259.651 244.439 259.501 244.477C258.843 244.619 258.161 244.604 257.51 244.433C256.859 244.261 256.257 243.939 255.754 243.492C255.691 243.454 255.617 243.439 255.544 243.449C255.471 243.458 255.404 243.492 255.353 243.545C254.587 244.678 254.071 244.109 253.417 243.748C252.871 243.544 252.277 243.505 251.708 243.636C251.078 243.71 250.441 243.715 249.81 243.652C249.157 243.594 248.537 243.343 248.028 242.93C247.671 242.654 247.24 242.49 246.79 242.459C244.203 242.179 241.556 241.899 238.992 242.626C238.419 242.77 237.864 242.677 237.335 242.777C236.628 242.921 235.894 242.853 235.226 242.581C234.945 242.475 234.639 242.452 234.346 242.515C234.052 242.578 233.782 242.724 233.57 242.936C233.349 243.13 233.012 243.34 232.806 243.201C231.765 242.528 230.781 242.887 229.792 243.088L228.626 243.372L227.021 243.739C225.761 244.056 224.561 244.43 223.309 244.731L221.763 245.103C221.289 245.261 220.818 245.425 220.368 245.604C219.734 245.838 219.132 246.15 218.576 246.534C218.475 245.385 218.206 244.257 217.778 243.187C217.654 242.842 217.408 242.554 217.086 242.378C216.559 242.228 216.005 242.201 215.467 242.298C214.327 242.704 213.155 243.014 211.963 243.223C210.118 243.305 208.291 243.616 206.524 244.149C205.453 244.471 204.413 244.888 203.416 245.396C202.286 245.97 201.229 246.679 200.27 247.508C199.578 248.114 198.958 248.799 198.425 249.548C197.831 250.384 197.337 251.288 196.955 252.239C196.194 254.189 195.838 256.273 195.908 258.365C196.253 259.188 196.609 259.972 196.968 260.759C197.147 261.153 197.351 261.536 197.541 261.93L198.134 263.014C199.402 263.783 200.385 264.521 201.355 265.243C202.264 265.971 203.265 266.575 204.333 267.04C205.309 267.4 206.115 267.798 207.035 268.076C207.942 268.399 208.923 268.458 209.862 268.246C210.318 268.212 210.776 268.281 211.203 268.446C213.219 268.872 215.261 269.168 217.316 269.333C219.333 269.519 221.301 269.547 223.235 270.433C223.77 270.628 224.342 270.706 224.91 270.661C225.896 270.802 226.901 270.65 227.801 270.225C228.743 269.645 229.7 270.777 230.653 270.41C231.062 270.317 231.464 270.192 231.853 270.034C232.035 269.934 232.236 269.876 232.443 269.865C232.65 269.853 232.857 269.887 233.049 269.966C233.706 270.24 234.409 270.391 235.122 270.409C237.075 270.19 239.051 270.304 240.966 270.745C241.582 270.899 241.962 270.277 242.127 269.371C242.219 268.864 242.443 268.861 242.795 269.056C243.101 269.252 243.463 269.345 243.826 269.32C244.189 269.295 244.535 269.154 244.812 268.917C244.999 268.708 245.247 268.562 245.522 268.5C245.796 268.438 246.083 268.463 246.342 268.571C246.878 268.759 247.452 268.813 248.013 268.729C248.703 268.648 249.386 268.52 250.058 268.345C250.737 268.2 251.412 268.04 252.081 267.854C252.501 267.806 252.903 267.663 253.26 267.437C254.056 266.766 255.053 266.791 255.864 266.219C256.329 265.858 256.874 265.615 257.453 265.51C258.032 265.405 258.627 265.441 259.189 265.615C259.43 265.69 259.679 265.734 259.93 265.746C260.283 265.726 260.631 265.662 260.968 265.555C262.316 265.133 263.614 264.567 264.841 263.868C265.931 263.287 266.777 262.336 267.227 261.187C267.433 260.465 268.427 260.227 269.094 259.704C269.311 259.537 269.491 259.327 269.621 259.087C269.752 258.846 269.831 258.581 269.853 258.308C269.788 257.591 269.943 256.871 270.296 256.243C270.74 255.361 270.826 254.341 270.534 253.397ZM254.983 255.646L255.006 255.638L255.018 255.635C255.033 255.63 255 255.642 254.953 255.659C254.963 255.654 254.973 255.649 254.983 255.646ZM224.19 255.253C224.363 254.984 224.474 254.68 224.513 254.363C224.553 254.175 224.644 254.002 224.777 253.863C224.91 253.725 225.079 253.626 225.265 253.579C226.061 253.294 226.663 253.226 226.862 253.084C227.135 252.912 227.682 252.978 227.414 252.575C227.301 252.364 227.719 252.418 228.089 252.528C228.472 252.631 228.804 252.783 228.856 252.672C228.902 252.586 229.07 252.633 229.161 252.598L229.528 252.479L229.72 252.428L230.038 252.361L231.408 252.1L232.791 251.913C234.332 251.713 235.884 251.614 237.437 251.614C237.759 252.084 238.038 252.581 238.271 253.1C238.481 253.64 238.847 254.105 239.323 254.435C239.86 254.757 240.396 255.369 240.866 255.375C242.162 255.395 243.435 256.135 244.69 256.326C245.191 256.437 245.715 256.364 246.167 256.122C246.619 255.879 246.97 255.483 247.154 255.004C247.417 254.514 247.736 254.218 248.169 254.596C248.372 254.78 248.632 254.89 248.906 254.909C249.179 254.927 249.451 254.852 249.677 254.696C250.193 254.413 250.724 254.16 251.269 253.938C251.452 254.028 251.642 254.102 251.838 254.16C252.187 254.24 252.53 254.345 252.871 254.453C252.974 255.032 253.102 255.485 253.456 255.511C253.892 255.531 254.322 255.618 254.732 255.768C254.743 255.771 254.755 255.773 254.766 255.772C254.775 255.767 254.784 255.761 254.791 255.755L254.793 255.758L254.832 255.876C254.896 256.012 254.93 256.161 254.93 256.312C254.949 256.433 254.93 256.558 254.874 256.667C254.856 256.72 254.834 256.772 254.806 256.82L254.678 256.952C254.631 257.047 254.433 257.115 254.329 257.201C254.152 257.278 253.971 257.345 253.786 257.4C253.708 257.401 253.631 257.39 253.557 257.369C253.1 257.233 252.777 257.565 252.441 257.866C251.101 258.259 249.532 258.71 247.909 257.9C247.608 257.782 247.284 257.734 246.962 257.761C246.64 257.787 246.328 257.887 246.051 258.052C245.222 258.394 244.295 258.417 243.451 258.115C242.613 257.916 241.722 258.263 240.825 257.965C239.956 257.682 239.012 257.951 238.11 257.8C237.462 257.694 236.823 258.477 236.187 258.015C235.549 257.553 234.926 257.938 234.268 258.291C233.477 258.699 232.901 257.173 232.019 257.948C231.855 258.091 231.542 257.818 231.347 257.618C231.268 257.506 231.168 257.41 231.051 257.338C230.934 257.266 230.804 257.219 230.669 257.199C230.533 257.178 230.395 257.186 230.262 257.221C230.129 257.256 230.005 257.318 229.897 257.403C229.506 257.801 229.073 257.81 228.899 257.368C228.705 256.849 228.541 256.664 228.001 256.86C227.599 257.016 227.019 257.228 227.023 256.872C227.079 256.293 226.482 256.402 225.758 256.401C224.805 256.395 223.738 255.968 224.19 255.253H224.19ZM213.143 260.124C213.118 260.142 213.089 260.154 213.058 260.16C213.027 260.166 212.996 260.165 212.965 260.158C212.935 260.151 212.906 260.138 212.881 260.119C212.856 260.101 212.836 260.077 212.82 260.049C212.408 259.127 211.676 259.558 210.994 259.524C210.497 259.511 210.013 259.369 209.588 259.113C209.377 258.977 209.19 258.808 209.034 258.612C208.894 258.396 208.797 258.154 208.75 257.901C208.571 257.016 208.16 256.813 207.318 257.065C207.094 257.143 206.854 257.163 206.62 257.124C206.386 257.085 206.166 256.987 205.98 256.84C205.698 256.663 205.381 256.548 205.051 256.504C204.751 256.44 204.839 256.236 205.031 256.082C205.227 255.92 205.523 255.811 205.615 255.72C205.805 255.503 205.975 255.268 206.12 255.018C206.297 254.793 206.542 254.631 206.819 254.557C207.096 254.483 207.389 254.501 207.655 254.608C207.786 254.647 207.801 254.3 207.783 254.002C207.717 253.095 207.975 252.539 208.753 253.887C208.84 254.035 209.013 254.165 209.075 254.123C209.84 253.737 210.705 253.594 211.554 253.712C212.271 253.682 212.977 253.523 213.637 253.243C213.649 253.431 213.659 253.619 213.674 253.806C213.728 254.528 213.679 255.254 213.528 255.961C213.476 256.368 213.513 256.78 213.636 257.171C213.759 257.562 213.965 257.921 214.24 258.225C214.985 259.187 215.83 260.067 216.761 260.851C216.913 260.986 217.069 261.113 217.225 261.241C216.94 261.153 216.667 261.03 216.412 260.875C215.34 260.157 214.473 259.334 213.143 260.124Z" fill="#80829B"/>
<path d="M256.586 212.137C256.139 211.892 256.199 211.682 256.492 211.413C256.775 211.187 256.973 210.872 257.056 210.519C257.139 210.166 257.102 209.796 256.95 209.467C256.804 209.23 256.732 208.953 256.746 208.674C256.759 208.396 256.857 208.128 257.026 207.905C257.347 207.432 257.539 206.882 257.581 206.311C257.66 205.607 257.675 204.897 257.623 204.19C257.612 203.477 257.558 202.765 257.461 202.058C257.477 201.623 257.384 201.19 257.192 200.799C256.931 200.373 256.754 199.9 256.67 199.408C256.567 198.927 256.396 198.464 256.159 198.033C255.815 197.566 255.584 197.026 255.482 196.455C255.381 195.884 255.412 195.297 255.574 194.74C255.737 194.314 255.762 193.848 255.647 193.407C255.39 192.574 255.075 191.76 254.706 190.971C254.327 190.153 253.685 189.485 252.881 189.075C252.279 188.768 252.457 188.082 252.382 187.484C252.334 187.273 252.242 187.075 252.112 186.902C251.982 186.73 251.817 186.587 251.627 186.482C251.122 186.142 250.534 185.937 250.475 185.236C250.426 184.391 249.802 183.906 249.4 183.267C248.48 181.833 246.948 180.999 246.308 179.047L245.44 178.609C245.142 178.479 244.849 178.345 244.564 178.196C244.277 178.048 244.001 177.881 243.736 177.696C243.452 177.521 243.186 177.319 242.942 177.092C242.691 176.883 242.392 176.739 242.071 176.674C241.74 176.611 241.392 176.583 241.073 176.514C240.905 176.502 240.736 176.511 240.571 176.542C239.145 176.777 237.684 176.46 236.484 175.656C236.417 175.62 236.339 175.608 236.264 175.621C236.188 175.634 236.12 175.672 236.068 175.729C235.409 176.943 234.831 176.447 234.105 176.176C233.525 176.07 232.927 176.131 232.38 176.351C231.776 176.531 231.16 176.666 230.537 176.758C229.884 176.81 229.228 176.707 228.623 176.457C228.191 176.286 227.72 176.241 227.263 176.327C224.573 176.626 222.018 177.665 219.883 179.33C219.43 179.742 218.86 179.877 218.423 180.216C217.867 180.717 217.176 181.043 216.437 181.152C216.126 181.21 215.84 181.36 215.615 181.582C215.391 181.805 215.239 182.09 215.179 182.4C215.096 182.693 214.929 183.066 214.675 183.075C214.105 183.083 213.561 183.316 213.161 183.722C212.782 184.101 212.43 184.506 212.106 184.934C211.109 186.294 210.209 187.722 209.413 189.208C208.575 190.305 208.137 191.656 208.173 193.036C208.213 193.539 207.777 193.809 207.621 194.208C207.342 194.876 206.777 195.586 206.957 196.279C207.053 196.776 207.064 197.286 206.99 197.788C206.897 198.278 206.936 198.784 207.104 199.254C207.398 199.832 207.527 200.48 207.475 201.126C207.424 201.773 207.194 202.392 206.811 202.916C206.408 203.521 206.254 204.259 206.382 204.975C206.472 205.935 206.618 206.89 206.624 207.856C206.75 208.837 206.62 209.835 206.247 210.752C206.144 210.936 206.091 211.145 206.095 211.357C206.099 211.568 206.16 211.775 206.27 211.955C206.439 212.177 206.592 212.401 206.732 212.627L206.931 212.968C206.965 213.032 206.989 213.068 207.029 213.154L207.155 213.437C207.454 214.015 207.677 214.424 207.879 214.884C208.254 215.763 208.576 216.663 208.841 217.581C209.139 218.545 209.413 219.511 209.73 220.463C209.988 221.56 210.388 222.618 210.919 223.612C211.505 224.503 210.861 225.675 211.238 226.622C211.548 227.397 212.158 228.128 211.768 229.155C212.776 229.817 212.504 230.963 212.795 231.904C213.049 232.765 213.516 233.548 214.153 234.18C214.66 234.73 214.958 235.44 214.994 236.186C215.245 238.638 216.331 240.928 218.069 242.675C218.195 242.822 218.29 242.993 218.349 243.177C218.408 243.362 218.429 243.556 218.41 243.749C218.42 244.678 218.693 245.585 219.198 246.364C219.564 247.063 220.57 247.373 220.559 248.285C220.548 249.136 221.415 249.387 222.02 249.813C222.037 249.855 222.052 249.897 222.07 249.94C222.189 250.228 222.328 250.507 222.487 250.775L222.993 251.681C223.695 252.811 224.564 253.826 225.572 254.693C225.898 255.04 226.272 255.412 226.723 255.811C227.674 256.679 228.793 257.343 230.01 257.762C230.355 257.872 230.713 257.931 231.075 257.938C231.359 257.943 231.641 257.893 231.905 257.79C231.988 257.77 232.065 257.73 232.13 257.674C232.195 257.618 232.245 257.548 232.277 257.469C232.308 257.389 232.321 257.304 232.313 257.219C232.304 257.134 232.276 257.052 232.23 256.98L232.225 256.968C232.445 256.959 232.666 256.939 232.884 256.907C233.75 256.778 234.588 256.499 235.358 256.082C236.155 255.674 236.902 255.176 237.587 254.599C238.304 254.042 238.965 253.392 239.656 252.749C239.988 252.416 240.338 252.075 240.688 251.752C240.946 251.518 241.219 251.3 241.505 251.102C241.837 250.15 242.378 249.285 243.087 248.569C243.02 246.528 244.244 245.202 244.704 243.533C245.123 242.013 246.031 240.673 245.595 238.917C245.566 238.525 245.651 238.134 245.84 237.79L246.601 235.381C246.834 234.706 247.146 233.953 247.488 233.198C248.094 231.544 249.107 230.07 250.433 228.911C250.813 228.562 251.104 228.129 251.283 227.646C251.8 226.886 252.065 225.982 252.04 225.063C251.893 224.028 253.305 223.695 253.349 222.725C253.427 222.336 253.473 221.94 253.486 221.543C253.463 221.348 253.488 221.149 253.558 220.965C253.628 220.78 253.741 220.615 253.887 220.484C254.394 220.025 254.805 219.47 255.093 218.85C255.645 217.016 256.458 215.271 257.506 213.668C257.853 213.14 257.387 212.574 256.586 212.137ZM249.074 206.314C247.995 207.399 248.156 208.597 247.843 209.781C247.491 211.173 247.042 212.549 246.599 213.941C246.437 214.496 245.694 214.82 245.511 215.314C245.28 215.918 245.688 216.749 245.519 217.407C245.182 219.25 244.46 221.001 243.401 222.546C242.963 223.113 241.809 223.323 241.959 224.154C242.104 225.002 241.028 225.261 241.248 226.138C241.303 226.36 240.961 226.511 240.761 226.671C240.186 227.133 240.451 227.832 240.903 228.6C241.16 229.035 241.403 229.502 240.89 229.715C240.023 230.08 239.785 230.865 239.174 231.478C238.897 231.751 238.636 232.039 238.392 232.342C238.266 232.506 238.145 232.674 238.034 232.847C237.945 232.968 237.863 233.095 237.788 233.226C237.634 233.498 237.55 233.805 237.545 234.118C237.539 234.431 237.611 234.74 237.755 235.018C237.769 235.047 237.778 235.078 237.78 235.11C237.782 235.142 237.778 235.173 237.767 235.204C237.757 235.234 237.741 235.262 237.72 235.286C237.699 235.31 237.673 235.329 237.645 235.343C236.681 235.707 237.046 236.516 236.979 237.222C236.968 237.768 236.801 238.3 236.499 238.755C236.196 239.211 235.77 239.57 235.27 239.792C235.066 239.86 234.878 239.971 234.72 240.118C234.563 240.265 234.439 240.445 234.357 240.644C234.275 240.844 234.237 241.058 234.246 241.274C234.255 241.489 234.31 241.7 234.408 241.892C234.925 243.431 233.768 244.235 233.98 245.643C234.037 246.034 233.758 246.227 233.433 246.326C233.212 246.307 232.992 246.275 232.774 246.229C232.44 246.252 232.333 246.459 232.112 246.583C231.919 246.708 231.572 246.619 231.539 245.903C231.539 245.783 231.448 246.116 231.337 246.411C231.026 247.329 230.57 247.599 231.231 246.006C231.283 245.894 231.326 245.777 231.359 245.658C231.185 245.772 231.175 245.508 231.347 245.313C231.401 245.192 231.461 245.343 231.233 245.004C231.027 244.749 230.836 244.482 230.661 244.204C230.611 244.128 230.49 243.994 230.376 244.027C229.713 244.203 228.67 245.061 228.628 244.202C228.611 243.74 228.774 243.24 228.728 242.778C228.626 241.796 226.952 241.137 225.121 241.417C225.108 241.388 225.113 241.356 225.092 241.328C223.755 239.771 222.911 237.851 222.668 235.813C222.558 235.335 222.41 234.867 222.226 234.412C221.711 232.925 220.904 231.543 221.266 229.737C221.3 229.423 221.257 229.107 221.14 228.814C221.024 228.521 220.837 228.261 220.597 228.057C220.033 227.415 219.723 226.588 219.727 225.733C219.639 224.915 219.014 224.256 218.973 223.366C218.932 222.499 218.339 221.783 218.143 220.95C218.001 220.349 217.039 220.115 217.22 219.391C217.402 218.66 216.799 218.29 216.226 217.879C215.539 217.385 216.702 216.265 215.639 215.852C215.443 215.775 215.566 215.399 215.668 215.152C215.737 215.039 215.781 214.913 215.797 214.783C215.813 214.652 215.802 214.519 215.763 214.393C215.724 214.267 215.659 214.151 215.571 214.052C215.484 213.953 215.377 213.874 215.257 213.82C214.687 213.52 214.492 213.134 214.743 212.563C214.882 212.276 214.953 211.962 214.953 211.643C214.952 211.531 214.929 211.419 214.887 211.315C214.835 211.182 214.766 211.057 214.682 210.942C214.39 210.555 214.007 210.199 214.256 209.663C214.389 209.268 214.436 208.849 214.395 208.435C214.353 208.02 214.224 207.62 214.015 207.259C213.58 206.215 213.496 205.057 213.776 203.961C214.288 202.872 214.169 201.736 214.672 200.719C215.071 200.083 215.322 199.365 215.406 198.619C215.531 197.807 215.955 197.114 215.715 196.201C215.569 195.289 216.893 194.987 216.988 194.208C217.105 193.948 217.245 193.699 217.406 193.463C218.658 190.874 220.777 188.805 223.395 187.615C223.758 187.484 224.102 187.305 224.417 187.082C224.801 186.819 225.078 186.429 225.199 185.98C225.225 185.896 225.422 185.941 225.483 186.042C226.479 187.686 226.605 186.307 227.128 186.192C227.738 186.046 228.344 185.856 228.958 185.701C229.297 185.636 229.646 185.652 229.978 185.748C230.309 185.843 230.613 186.016 230.864 186.252C230.901 186.293 230.95 186.319 231.004 186.327C231.058 186.336 231.113 186.325 231.16 186.298C231.37 186.156 231.614 186.073 231.867 186.058C232.12 186.043 232.373 186.096 232.598 186.212C233.03 186.414 233.479 186.579 233.939 186.705C234.664 186.773 235.315 187.033 235.973 187.138C236.716 187.209 237.453 187.336 238.177 187.518C238.99 187.748 239.512 188.452 240.434 188.536C241.341 188.708 241.175 189.955 241.894 190.3C242.183 190.509 242.453 190.744 242.701 191.003C242.932 191.167 243.319 191.18 243.946 190.901C244.396 190.699 244.698 190.701 244.672 190.939C244.586 191.435 244.645 191.946 244.842 192.409C244.979 192.627 245.158 192.816 245.369 192.965C245.579 193.113 245.817 193.218 246.069 193.274C246.265 193.333 246.291 193.655 246.14 193.872C245.617 194.601 245.505 195.036 245.992 195.441C246.427 195.815 246.77 196.284 246.996 196.81C247.201 197.366 247.185 197.979 246.953 198.524C246.697 199.106 247.497 199.389 247.215 199.949C246.939 200.504 247.849 200.816 247.917 201.339C247.983 201.743 248.229 202.133 248.268 202.553C248.243 203.112 248.417 203.661 248.759 204.103C249.241 204.612 248.371 205.144 249.042 205.679C249.087 205.718 249.125 205.765 249.151 205.819C249.177 205.872 249.193 205.93 249.196 205.99C249.199 206.05 249.189 206.109 249.168 206.165C249.147 206.221 249.115 206.272 249.074 206.314Z" fill="#000638"/>
<path d="M239.868 204.506C240.17 204.021 240.334 203.464 240.343 202.893C240.351 202.322 240.203 201.76 239.915 201.267C240.031 200.905 240.105 200.531 240.137 200.152C240.04 199.755 239.839 199.39 239.555 199.096C239.484 199.04 239.409 198.988 239.332 198.94C239.117 197.972 238.596 197.099 237.846 196.45C237.548 196.178 237.228 195.862 236.783 195.514C236.274 195.111 235.722 194.766 235.136 194.486C234.105 194.005 232.987 193.738 231.85 193.702C231.056 193.247 230.141 193.048 229.229 193.134C228.282 193.231 227.364 193.522 226.534 193.989C225.704 194.457 224.98 195.09 224.406 195.85C223.822 196.596 223.362 197.43 223.043 198.321C222.876 198.733 222.788 199.15 222.661 199.552C222.572 199.954 222.484 200.351 222.398 200.742C222.118 202.305 221.935 203.71 221.51 205.248C221.456 205.476 221.456 205.714 221.511 205.942C221.576 206.305 221.689 206.658 221.848 206.991C222.028 207.374 222.24 207.742 222.482 208.089C222.754 208.452 223.054 208.793 223.38 209.108C223.71 209.405 224.064 209.676 224.437 209.916C224.783 210.116 225.142 210.294 225.51 210.448C226.02 210.657 226.569 210.749 227.119 210.717C227.176 210.692 227.632 210.908 228.343 211.036C228.704 211.107 229.068 211.156 229.435 211.182C230.493 211.673 231.696 211.757 232.812 211.417C233.922 211.088 234.96 210.55 235.869 209.832C236.361 209.734 236.808 209.48 237.144 209.107C237.176 209.049 237.196 208.984 237.203 208.918C237.209 208.852 237.201 208.785 237.18 208.721C238.016 207.858 238.656 206.824 239.057 205.691C239.366 205.324 239.637 204.926 239.868 204.506ZM232.883 201.825C232.892 201.842 232.9 201.859 232.906 201.877C232.963 202.069 232.965 202.273 232.91 202.466C232.867 202.616 232.802 202.758 232.716 202.888C232.542 203.132 232.333 203.349 232.096 203.533C231.995 203.367 231.865 203.22 231.714 203.097C231.6 203.003 231.523 202.871 231.497 202.724C231.472 202.578 231.501 202.428 231.577 202.301C231.623 202.206 231.661 202.13 231.692 202.066C231.788 202.11 231.88 202.162 231.967 202.222C232.061 202.287 232.151 202.357 232.236 202.433C232.302 202.497 232.427 202.614 232.406 202.601C232.439 202.628 232.454 202.622 232.467 202.583C232.504 202.434 232.516 202.279 232.5 202.125C232.497 201.976 232.514 201.826 232.551 201.681C232.655 201.731 232.765 201.78 232.883 201.825ZM231.389 201.968L231.369 201.972L231.378 201.967L231.389 201.968Z" fill="#000638"/>
<path d="M242.648 229.43C242.259 228.231 241.59 227.143 240.697 226.253C241.491 225.591 242.039 224.681 242.252 223.67C242.366 223.211 242.425 222.739 242.428 222.266C242.433 221.702 242.355 221.14 242.198 220.598C241.847 219.36 241.087 218.277 240.043 217.524C239.554 217.179 238.994 216.951 238.403 216.855C237.892 216.773 237.369 216.789 236.864 216.903C236.185 217.099 235.528 217.362 234.901 217.687C234.2 217.98 233.497 218.275 232.789 218.571C232.099 218.85 231.425 219.169 230.771 219.525C230.062 219.804 229.304 219.938 228.542 219.919C227.519 220.056 227.215 220.36 227.492 221.577C227.653 222.019 227.65 222.505 227.484 222.945C227.319 223.386 227.002 223.753 226.59 223.98C226.101 224.23 225.589 224.434 225.061 224.587C224.871 225.882 224.012 226.847 224 228.12C224.014 228.312 224.082 228.496 224.196 228.651C224.38 228.879 224.606 229.068 224.862 229.21L224.54 229.532L224.189 229.866L222.472 231.441C222.054 231.905 221.818 232.503 221.807 233.127C221.785 233.374 221.694 233.609 221.544 233.807C221.387 233.981 221.214 234.14 221.027 234.282C220.795 234.441 220.586 234.631 220.405 234.846C220.16 235.12 219.995 235.456 219.929 235.817C219.874 236.056 219.84 236.3 219.828 236.545C219.824 236.832 219.845 237.118 219.889 237.402C219.989 237.903 220.166 238.386 220.416 238.832C220.649 239.194 220.917 239.531 221.216 239.84C221.572 240.184 221.96 240.495 222.374 240.766C223.298 241.386 224.366 241.757 225.475 241.844C226.379 241.91 227.288 241.807 228.155 241.539C228.153 241.581 228.147 241.617 228.145 241.661C228.126 242.073 227.99 242.471 227.754 242.81C227.517 243.148 227.19 243.413 226.809 243.573C226.584 243.733 226.415 243.959 226.323 244.22C226.232 244.48 226.225 244.763 226.301 245.028C226.359 245.314 226.347 245.61 226.266 245.89C226.184 246.171 226.036 246.427 225.834 246.638C225.704 246.761 225.57 246.889 225.441 247.011C225.04 247.417 225.076 247.725 225.605 247.904C225.982 247.968 226.348 248.084 226.693 248.249C227.184 248.583 227.591 249.285 228.117 249.391C228.571 249.477 229.118 248.64 229.546 248.717C231.566 249.058 233.125 247.787 234.481 246.658C235.386 245.924 235.649 244.609 237.131 244.604C237.728 244.066 238.48 243.611 238.648 242.738C238.786 241.753 239.169 240.819 239.762 240.021C240.191 239.443 240.608 238.856 240.988 238.239L241.133 238.01L241.323 237.687C241.453 237.459 241.582 237.219 241.705 236.98C241.948 236.501 242.164 236.009 242.35 235.506C243.128 233.571 243.233 231.431 242.648 229.43ZM236.135 222.189H236.136L236.163 222.187L236.135 222.189ZM236.887 221.589L236.887 221.59L236.89 221.58L236.887 221.589Z" fill="#006ADC"/>
<path d="M111.809 239.913C111.803 239.777 111.76 239.646 111.684 239.533C111.609 239.42 111.504 239.331 111.38 239.274C110.939 239.094 110.457 239.043 109.988 239.127C109.432 239.195 109.337 239.021 109.362 238.665C109.376 238.292 109.248 237.927 109.004 237.645C108.759 237.363 108.416 237.185 108.045 237.147C107.328 236.988 106.77 236.887 106.515 236.303C106.198 235.786 105.763 235.352 105.246 235.036C104.909 234.815 104.555 234.621 104.186 234.458L102.989 233.989L102.555 233.823L102.178 233.687C101.925 233.605 101.666 233.543 101.409 233.477C101.113 233.34 100.784 233.29 100.461 233.334C99.656 233.56 99.0223 233.174 98.2663 233.353C97.8569 233.503 97.4091 233.512 96.9942 233.378C96.5793 233.244 96.2211 232.975 95.9765 232.614C95.752 232.314 95.4808 232.019 95.1894 231.986C94.5857 231.905 93.988 231.73 93.378 231.695C92.7087 231.661 92.052 231.887 91.5456 232.326C91.1194 232.683 90.8027 232.13 90.4358 231.885C90.302 231.813 90.1507 231.78 89.999 231.789C89.8473 231.799 89.7013 231.85 89.5772 231.938C89.1874 232.158 88.8235 232.496 88.4349 232.108C87.9732 231.644 87.4711 231.8 86.9849 231.663C85.9099 231.375 84.8339 231.827 83.7563 230.627C83.0323 230.961 82.2104 231.016 81.4487 230.78C81.0704 230.618 80.6918 230.943 80.3187 231.069C80.2274 231.1 80.1498 231.217 80.066 231.291C79.7746 231.657 79.3587 231.902 78.8979 231.98C78.437 232.058 77.9636 231.964 77.568 231.715C77.4914 231.669 77.3588 231.767 77.3481 231.892C77.2371 233.201 76.7571 232.832 76.2643 232.7C75.8892 232.599 75.5427 232.886 75.2131 233.1C74.4696 233.577 73.7389 233.996 72.8075 233.407C72.5484 233.243 72.2358 233.186 71.9357 233.249C71.5697 233.312 70.9792 233.425 70.4956 233.541C69.8502 233.701 69.2152 233.899 68.5938 234.135C67.2762 234.611 66.0896 235.392 65.1304 236.413C64.9396 236.626 64.7187 236.811 64.4746 236.961C64.2538 237.119 64.0494 237.298 63.8644 237.497C63.4018 238.055 62.8311 238.515 62.1865 238.848C61.916 238.979 61.7006 239.202 61.5786 239.477C61.4529 239.739 61.4286 240.038 61.5106 240.317C61.5827 240.587 61.5836 240.93 61.3847 241.063C60.2669 241.718 60.282 242.834 60.339 243.823C60.4448 245.399 60.9369 246.926 61.7718 248.268C62.0491 248.896 62.4554 249.459 62.9643 249.921C63.4733 250.382 64.0734 250.731 64.7259 250.946C65.2556 251.091 65.3508 251.529 65.6804 251.833C66.2327 252.317 66.7488 253.142 67.5076 253.207C67.9253 253.21 68.3354 253.319 68.6989 253.525C69.0157 253.733 69.4006 253.811 69.7733 253.742C70.2571 253.58 70.785 253.612 71.2456 253.832C71.7061 254.052 72.0631 254.442 72.2413 254.92C72.3695 255.169 72.5532 255.385 72.7783 255.551C73.0034 255.717 73.2637 255.829 73.5391 255.879C74.2438 256.098 74.9625 256.26 75.6574 256.502C76.4307 256.707 77.1186 257.153 77.6216 257.775C77.7092 257.924 77.8436 258.04 78.0038 258.105C78.164 258.17 78.3412 258.18 78.5079 258.134C79.9469 257.562 81.5057 257.358 83.0436 257.539C83.1049 257.577 83.167 257.607 83.2281 257.648C83.3667 257.603 83.5096 257.573 83.6545 257.558L84.467 257.585C84.7705 257.645 85.0692 257.727 85.3606 257.831C85.5003 257.726 85.6485 257.634 85.8035 257.554C85.8204 257.553 85.8371 257.553 85.8541 257.552C86.8104 257.601 87.7673 257.47 88.6753 257.165C88.7461 257.132 88.8206 257.108 88.8973 257.093C88.9582 257.085 89.0182 257.072 89.0786 257.062C89.7899 257.011 90.5677 257.59 91.2903 257.375C91.9929 257.166 92.65 256.695 93.5516 257.147C94.1474 256.217 95.1588 256.567 95.9974 256.286C96.2906 256.196 96.5738 256.076 96.8425 255.927L100.837 253.705C101.209 253.697 101.582 253.728 101.948 253.798C102.158 253.829 102.374 253.815 102.578 253.755C102.683 253.726 102.786 253.691 102.887 253.65L103.318 253.473C104.375 253.193 105.296 252.542 105.913 251.639C106.136 251.128 106.651 250.97 107.174 250.752C107.707 250.622 108.175 250.302 108.487 249.851C108.646 249.458 108.984 249.136 109.036 248.73C109.126 248.32 109.373 247.961 109.724 247.73C110.361 247.303 110.866 246.707 111.183 246.009C111.774 244.034 111.986 241.966 111.809 239.913ZM87.2214 241.946C87.532 241.812 87.8579 241.895 88.1733 241.787C88.4125 241.705 88.6336 241.401 88.7654 240.745C88.8602 240.272 89.0039 240.021 89.1444 240.184C89.8446 240.993 90.4969 241.192 91.276 240.317C91.3978 240.181 91.6122 240.328 91.6873 240.571C91.9384 241.379 92.1932 241.67 92.6587 241.471C93.0699 241.268 93.5264 241.174 93.9844 241.199C94.2146 241.238 94.4339 241.325 94.628 241.454C94.8221 241.584 94.9866 241.753 95.1105 241.951C95.4137 242.383 95.8916 241.814 96.161 242.252C96.4243 242.712 96.9823 241.97 97.3512 242.071C97.6385 242.153 97.9832 242.064 98.2796 242.137C98.4677 242.227 98.6739 242.273 98.8826 242.272C99.0913 242.27 99.2969 242.221 99.4837 242.129C99.825 241.765 99.5046 242.552 100.037 242.021C100.203 241.866 100.307 241.915 100.258 242.064C100.098 242.544 100.064 242.729 100.132 242.838C100.192 242.948 100.351 242.989 100.41 243.097C100.445 243.167 100.471 243.24 100.486 243.316C100.518 243.518 100.501 243.724 100.437 243.918C100.405 244.039 99.5869 244.076 99.5281 244.097C99.4681 244.124 100.233 244.366 100.216 244.502C100.233 244.601 100.221 244.703 100.181 244.796C100.142 244.888 100.078 244.968 99.9951 245.025C99.9124 245.083 99.8152 245.115 99.7147 245.119C99.6142 245.123 99.5146 245.099 99.4276 245.048C99.2591 244.93 99.1135 244.783 98.998 244.613C98.9543 244.554 98.9064 244.498 98.8545 244.446C98.8373 244.439 98.8451 244.437 98.8257 244.466C98.777 244.514 98.7408 244.573 98.7204 244.638C98.4924 245.271 97.774 244.646 97.5625 245.316C97.5578 245.335 97.5478 245.351 97.5338 245.364C97.5199 245.377 97.5024 245.385 97.4837 245.389L97.1161 245.255C96.6622 245.089 96.1821 245.007 95.6989 245.012C95.0494 245.002 94.4291 244.74 93.969 244.281C93.1707 243.585 92.2207 243.085 91.1948 242.82C90.1688 242.556 89.0953 242.536 88.0599 242.76C87.8962 242.782 87.7295 242.765 87.5737 242.71C87.4179 242.655 87.2775 242.563 87.1643 242.443C86.5657 241.96 85.816 241.704 85.0472 241.719L85.06 241.712C85.798 241.25 86.5258 242.253 87.2214 241.946V241.946ZM85.0134 248.018C84.7711 248.104 84.5508 248.243 84.3681 248.424C84.0937 248.688 83.8637 248.504 83.6424 248.242C83.9988 247.974 84.3756 247.734 84.7694 247.525C84.8488 247.482 84.9504 247.743 85.0134 248.018V248.018ZM70.8881 243.826C70.9652 243.655 71.0822 243.505 71.2293 243.388C71.3765 243.271 71.5495 243.191 71.7338 243.155C71.9515 243.096 72.0978 243.19 71.7995 242.313C71.7796 242.247 71.8913 242.33 71.9554 242.432C72.4944 243.269 72.5681 243.403 72.5723 243.313C72.5693 243.227 72.5119 242.913 72.5743 242.925C72.6593 242.926 72.7437 242.912 72.8236 242.883L73.1276 242.784C73.3536 242.697 73.587 242.631 73.825 242.585C74.1355 242.516 74.4579 242.52 74.7665 242.597C75.0751 242.675 75.3615 242.823 75.6027 243.03C75.636 243.066 75.6819 243.088 75.7307 243.09C75.7795 243.093 75.8275 243.077 75.8647 243.045C76.0616 242.875 76.3027 242.763 76.5602 242.724C76.8177 242.685 77.0811 242.72 77.3197 242.824C76.3841 243.003 75.459 243.234 74.5487 243.515C74.1239 243.643 74.0396 244.112 74.2907 244.754C74.309 244.801 74.3257 244.849 74.3438 244.895C74.1078 245.455 73.8753 246.007 73.5768 245.635C73.3599 245.361 73.234 244.942 73.0136 244.701C72.7181 244.361 72.0825 244.58 71.3658 245.152C71.4221 245.049 71.4551 244.97 71.3546 244.96C71.2344 244.944 71.2662 244.855 71.2099 244.808C71.0608 244.698 70.9497 244.545 70.892 244.369C70.8343 244.193 70.8329 244.003 70.8881 243.826Z" fill="#80829B"/>
</svg>
