<svg width="300" height="300" viewBox="0 0 300 300" fill="none" xmlns="http://www.w3.org/2000/svg">
<g clip-path="url(#clip0_1_16586)">
<path d="M54.4751 228.597C55.1578 228.108 55.8424 227.618 56.5205 227.131C56.9269 226.781 57.4318 226.566 57.9658 226.515C58.5052 226.509 59.2362 226.331 59.5397 226.569C60.3583 227.215 61.6281 227.397 62.4563 228.041C63.049 228.488 63.4228 229.144 62.7984 230.364C62.563 230.823 62.4938 231.187 62.9911 231.231C63.1029 231.237 63.2123 231.266 63.3124 231.316C63.4124 231.366 63.501 231.436 63.5723 231.523C63.6436 231.609 63.6961 231.709 63.7266 231.817C63.757 231.925 63.7646 232.037 63.749 232.148C63.7436 232.966 63.7898 233.783 63.8876 234.594C63.9031 234.718 64.3904 234.629 64.6987 234.518C65.2778 234.309 65.7567 234.206 65.9014 234.528C66.4725 236.161 67.5105 237.591 68.8865 238.639C69.1836 238.927 69.4527 239.243 69.6901 239.582C70.5206 240.625 71.0197 241.87 72.5505 242.455C72.7943 242.573 72.9987 242.76 73.1394 242.992C73.28 243.224 73.351 243.491 73.3437 243.762C73.3947 244.119 73.5184 244.462 73.7072 244.77C73.896 245.078 74.1459 245.343 74.4414 245.55C74.9677 246.023 75.0152 246.81 75.597 247.302C76.1643 247.782 76.268 248.574 76.7058 249.151C77.0211 249.57 76.5339 250.358 77.1343 250.624C77.739 250.895 77.5823 251.51 77.4664 252.12C77.3277 252.848 78.8517 252.688 78.3873 253.633C78.3022 253.805 78.6274 253.934 78.8566 254.007C79.393 254.174 79.6189 254.514 79.4242 255.037C79.2192 255.585 79.3252 255.93 79.8646 256.109C80.1393 256.16 80.3876 256.306 80.5667 256.521C80.7458 256.735 80.8445 257.006 80.8458 257.285C80.8341 257.729 80.7312 258.193 81.2175 258.418C82.0191 258.791 82.1605 259.538 82.3291 260.237C82.4624 261.245 82.9445 262.174 83.6917 262.863C84.5398 263.545 84.9202 264.515 85.7336 265.223C86.2965 265.686 86.7503 266.267 87.0627 266.925C87.3934 267.664 87.9154 268.311 87.8909 269.217C87.8638 270.128 89.1506 270.36 89.3472 271.169C89.4545 271.453 89.5866 271.728 89.7421 271.989C90.3523 273.371 90.9985 274.749 91.6641 276.084L91.7784 276.307L91.8204 276.38L91.9016 276.506C91.9569 276.587 92.0191 276.663 92.0876 276.733C92.2158 276.874 92.3893 276.966 92.578 276.993C92.8069 277.018 92.9045 276.869 93.1137 277.741C93.1319 277.804 93.1926 277.679 93.1963 277.563C93.2417 276.604 93.2361 276.455 93.2908 276.525C93.3167 276.562 93.3554 276.65 93.3994 276.728C93.534 276.789 93.6843 276.807 93.8296 276.779C95.071 276.37 96.5062 276.734 97.489 275.29C97.5165 275.242 97.5589 275.204 97.6097 275.183C97.6605 275.161 97.717 275.157 97.7705 275.17C98.8855 275.535 99.6478 274.422 100.619 274.191C101.407 274.003 102.175 273.71 102.974 273.584C103.874 273.441 104.805 273.462 105.712 273.353C105.964 273.32 106.214 273.273 106.461 273.212L106.648 273.167L106.657 273.158L106.677 273.144C106.707 273.134 106.735 273.167 106.9 273.353C107.069 273.532 107.05 273.381 106.948 273.231C106.858 273.079 106.687 272.928 106.848 273.042C107 273.14 106.934 273.07 107.078 273.14C107.563 273.385 107.979 273.595 108.456 273.836C109.086 274.151 109.48 274.281 109.309 274.132C108.432 273.373 108.113 273.318 109.346 273.281C109.529 273.269 109.308 273.148 108.978 273.084C107.868 272.862 107.525 272.863 107.798 272.777C108.301 272.612 108.139 272.106 107.295 272.274C106.911 272.385 107.429 271.966 107.058 272.062C106.457 271.912 106.782 271.048 106.473 270.656C106.226 270.345 106.112 269.922 105.87 269.604C105.568 269.206 105.191 268.867 105.229 268.214C105.262 267.565 104.302 267.726 104.499 266.929C104.511 266.876 104.512 266.82 104.502 266.766C104.491 266.712 104.469 266.661 104.437 266.617C104.405 266.572 104.363 266.535 104.316 266.508C104.268 266.48 104.215 266.463 104.161 266.458C102.745 266.296 102.219 265.286 101.413 264.526C100.457 263.623 99.4952 262.742 98.5774 261.792C98.2159 261.414 97.4702 261.456 97.1232 261.121C96.7018 260.71 96.7724 259.853 96.4156 259.368C95.543 257.969 94.4197 256.742 93.1021 255.75C92.5742 255.408 91.4869 255.581 91.4357 254.819C91.3864 254.051 90.3595 254.145 90.392 253.32C90.3981 253.111 90.0613 253.08 89.8531 253C89.2483 252.767 89.3647 252.098 89.6423 251.322C89.7995 250.88 89.9428 250.426 89.4479 250.398C88.6143 250.348 88.2917 249.769 87.6739 249.498C86.6288 249.03 85.4744 248.663 85.7022 247.166C85.7085 247.138 85.7088 247.108 85.703 247.08C85.6973 247.051 85.6856 247.024 85.6687 247C85.6518 246.976 85.63 246.956 85.6049 246.941C85.5798 246.926 85.5518 246.917 85.5228 246.913C84.555 246.88 84.6918 246.046 84.4749 245.443C84.3372 244.958 84.0698 244.521 83.7015 244.177C83.3332 243.833 82.8781 243.597 82.3851 243.493C82.1792 243.466 81.9818 243.394 81.8072 243.282C81.6325 243.17 81.4851 243.02 81.3755 242.844C81.2659 242.668 81.197 242.469 81.1736 242.263C81.1503 242.057 81.1732 241.848 81.2407 241.652C81.575 240.122 80.406 239.419 80.5873 238.003C80.6823 237.244 79.5553 237.233 79.0997 236.774C78.5001 236.092 77.9864 235.338 77.5699 234.531C77.1466 233.689 76.5061 232.974 75.7144 232.462C75.5556 232.367 75.6891 231.993 75.8559 231.74C76.3675 230.961 76.5551 230.439 75.078 230.806C74.9158 230.846 74.6922 230.793 74.6687 230.707C74.4387 229.879 74.0096 229.119 73.4188 228.495C73.012 227.854 72.735 227.14 72.6036 226.393C72.5754 226.291 72.5669 226.104 72.6643 226.045C73.2335 225.7 74.522 225.556 73.9692 224.94C73.6803 224.616 73.2314 224.37 72.9772 224.025C72.4053 223.241 73.3407 221.795 74.9622 220.929C76.2773 220.203 77.6887 219.668 79.1543 219.338C79.4763 219.251 79.8171 219.263 80.132 219.373C80.4719 219.596 80.7394 219.913 80.9017 220.285C81.197 221.095 81.1759 222.054 81.6523 222.78C82.3421 223.769 82.9286 224.826 83.4027 225.935C83.9135 227.017 84.4421 228.091 85.0202 229.139C85.8309 230.538 86.4352 232.102 88.0306 232.989C88.1674 233.654 88.5574 234.24 89.1182 234.623C88.8958 236.205 90.0753 236.96 90.5833 238.119C91.0446 239.204 92.0331 239.932 91.9194 241.439C91.8935 241.786 92.1563 241.991 92.3228 242.233C93.1113 243.364 93.9445 244.478 94.797 245.568C95.5941 246.766 96.7433 247.686 98.0859 248.203C98.4669 248.354 98.7987 248.608 99.0444 248.937C99.517 249.448 100.096 249.872 100.166 250.72C100.241 251.595 101.537 251.32 101.78 252.046C101.882 252.349 102.111 252.563 102.162 252.899C102.186 253.052 102.255 253.195 102.361 253.309C102.467 253.422 102.605 253.502 102.756 253.537C103.281 253.662 103.771 253.902 104.191 254.24C105.144 255.348 106.351 256.207 107.71 256.745C108.165 256.916 107.978 257.534 107.491 258.254C107.218 258.656 107.349 258.76 107.681 258.781C107.821 258.771 107.961 258.789 108.093 258.835C108.225 258.881 108.347 258.953 108.45 259.047C108.554 259.141 108.637 259.255 108.695 259.383C108.753 259.51 108.784 259.647 108.788 259.787C108.821 260.29 108.948 260.634 109.484 260.721C109.907 260.814 110.294 261.029 110.596 261.34C110.963 261.7 111.302 262.087 111.609 262.5C111.932 262.902 112.249 263.31 112.551 263.73C112.734 263.979 112.993 264.19 113.029 264.535C113.081 264.903 113.226 265.252 113.449 265.55C113.546 265.699 113.645 265.844 113.732 266C113.832 266.189 113.914 266.387 113.978 266.591C114.156 267.225 114.466 267.814 114.889 268.32C115.311 268.825 115.836 269.235 116.429 269.521C116.932 269.772 117.379 270.122 117.742 270.55C119.204 272.125 119.921 273.976 118.901 275.336C118.54 275.791 119.025 276.394 119.107 277.017C119.119 277.238 119.078 277.459 118.987 277.66C118.895 277.862 118.756 278.039 118.582 278.175C118.104 278.588 117.481 278.786 117.456 279.321C117.434 279.978 116.815 280.268 116.34 280.711C115.685 281.239 114.935 281.638 114.13 281.885C113.22 282.154 112.396 282.66 111.744 283.35C110.945 283.438 110.168 283.506 109.418 283.643L108.86 283.76C108.763 283.786 108.668 283.818 108.575 283.856C108.378 283.937 108.194 284.048 108.029 284.184C107.705 284.452 107.23 284.275 106.82 284.279C106.707 284.256 106.598 284.214 106.498 284.156C106.07 283.923 105.576 283.844 105.098 283.931C104.619 284.018 104.184 284.266 103.867 284.635C103.806 284.704 103.639 284.665 103.583 284.556C103.004 283.419 102.649 283.93 102.204 284.229C101.865 284.455 101.411 284.331 100.996 284.269C100.065 284.132 99.1577 284.041 98.4515 284.943C98.2464 285.197 97.958 285.37 97.6373 285.432L96.3047 285.74L95.6371 285.886L94.6729 286.071C93.1232 286.448 91.4919 286.296 90.0389 285.638C89.4306 285.413 88.8416 285.138 88.2778 284.818C87.631 284.306 86.927 283.87 86.18 283.521C85.8562 283.358 85.583 283.11 85.3899 282.804C85.1968 282.498 85.0912 282.144 85.0845 281.782C85.0577 281.437 84.9902 280.978 84.7523 280.863C84.4575 280.72 84.1933 280.522 83.974 280.279C83.8196 280.147 83.686 279.992 83.5775 279.82C83.4107 279.507 83.2727 279.179 83.1651 278.841C82.7768 277.789 82.3355 276.757 81.8428 275.749C81.4212 274.938 80.833 274.205 81.0182 273.132C81.0828 272.749 80.6591 272.648 80.4783 272.409C80.1697 272.001 79.5998 271.66 79.7037 271.124C79.8656 270.284 79.1347 269.854 79.3134 269.024C79.3892 268.788 79.4164 268.539 79.3935 268.292C79.3706 268.045 79.298 267.805 79.1801 267.586C79.0622 267.368 78.9014 267.176 78.7074 267.021C78.5134 266.867 78.2901 266.753 78.0509 266.686C77.805 266.582 77.5833 266.427 77.4 266.232C77.2167 266.038 77.0756 265.807 76.9857 265.555C76.7075 264.91 76.3891 264.282 76.0326 263.677C75.6947 262.991 75.1062 262.462 74.389 262.199C74.2317 262.167 74.0902 262.082 73.9882 261.958C73.8861 261.834 73.8298 261.679 73.8285 261.518C73.9251 259.97 73.4943 258.434 72.6063 257.162L71.4062 255.101C70.8851 254.375 70.4737 253.577 70.1854 252.732C69.988 251.9 68.7965 251.777 68.4227 251.074C68.1194 250.494 68.0259 249.728 67.0841 249.543C67.2796 248.542 66.3349 248.22 65.8837 247.608C65.4548 247.052 65.1994 246.382 65.1496 245.681C65.1155 245.393 65.0184 245.116 64.8652 244.869C64.712 244.623 64.5065 244.413 64.2632 244.254C62.7232 243.148 61.6707 241.489 61.3261 239.624C61.2849 239.48 61.2072 239.349 61.1007 239.244C60.9942 239.14 60.8624 239.064 60.7181 239.025C60.0748 238.75 59.5359 238.277 59.1798 237.675C58.8373 237.218 59.0775 236.34 58.3832 236.145C57.6552 235.942 58.0198 235.009 57.8185 234.45C57.3285 233.422 56.5878 232.533 55.6645 231.865C55.1831 231.25 54.5888 230.489 53.9931 229.727C53.7497 229.41 53.9386 228.986 54.4751 228.597Z" fill="#80829B"/>
<path d="M30.0012 188.629L30.1597 188.495C31.8621 187.172 33.771 186.138 35.8096 185.436L36.5584 185.15L36.9709 184.989C37.0864 184.956 37.197 184.909 37.3 184.847C37.5168 184.724 37.7273 184.59 37.9305 184.446C38.3528 184.142 38.738 183.789 39.0782 183.395C39.3072 183.141 39.5849 182.935 39.8949 182.789C40.2049 182.644 40.5409 182.562 40.8831 182.549C43.757 182.662 45.9847 180.973 47.3211 178.374C47.4291 178.139 47.6232 177.956 47.8631 177.861C50.049 177.321 50.7964 175.126 52.2487 173.683C53.0345 172.801 53.9293 172.022 54.9115 171.366C54.955 171.151 54.9958 170.935 55.0462 170.721C55.1476 170.38 55.2704 170.047 55.3941 169.713C55.6255 169.045 55.9269 168.403 56.2932 167.799C56.6016 167.256 56.9383 166.73 57.3017 166.223C58.5129 164.604 59.8274 163.064 61.2373 161.614C61.8936 161.14 62.3978 160.484 62.6885 159.728C63.3918 156.693 65.3579 154.326 67.1547 151.886C68.5226 150.146 69.5376 148.155 70.1428 146.026C70.8845 143.025 72.6664 140.384 75.1717 138.574C77.6226 136.694 79.505 134.172 80.6101 131.287C81.2622 129.767 81.4967 128.146 82.907 126.913C84.3747 125.634 84.2551 123.38 85.7032 121.864C86.8736 120.607 87.7761 119.125 88.3557 117.508C88.8771 116.047 90.2303 115.327 90.7616 114.081C91.5597 112.21 93.2709 111.683 94.7112 110.8C95.2434 110.592 95.6849 110.203 95.9577 109.701C96.2305 109.199 96.3169 108.616 96.2017 108.057C96.0883 106.945 97.5637 106.917 98.2412 106.274C98.749 105.787 99.2222 105.206 99.8408 104.615C100.164 104.301 100.51 104.011 100.875 103.748C101.325 103.437 101.811 103.18 102.321 102.983L102.87 102.789C103.073 102.727 103.309 102.67 103.529 102.62C103.758 102.571 103.966 102.526 104.212 102.491C104.482 102.458 104.752 102.434 105.022 102.42C106.294 102.357 107.564 102.593 108.727 103.11C109.328 103.381 109.89 103.729 110.4 104.147C110.637 104.339 110.864 104.543 111.081 104.759C111.261 104.956 111.435 105.158 111.602 105.365C112.085 105.971 112.485 106.638 112.792 107.349C113.651 109.194 114.254 111.146 114.585 113.154C114.944 115.149 115.114 117.096 115.424 119.051C115.584 120.025 114.431 121.34 113.726 121.234C112.686 121.108 111.673 120.833 110.636 120.682C109.952 120.583 109.575 120.867 109.671 121.309C109.736 121.567 109.888 121.794 110.101 121.953C110.738 122.415 111.426 122.799 112.039 123.303C112.968 124.062 113.1 125.201 112.513 126.624C112.131 127.886 111.357 128.994 110.303 129.786C108.496 130.894 106.918 132.337 105.652 134.038C104.507 135.361 103.454 136.76 102.499 138.227C101.453 139.956 99.1352 140.3 98.5582 142.482C98.0983 143.488 97.3627 144.342 96.4368 144.946C95.3657 145.812 93.9742 146.302 93.0025 147.246C92.153 148.31 91.3675 149.424 90.6502 150.581C90.2613 150.954 89.7406 151.156 89.2024 151.145C88.7028 151.024 88.2251 150.826 87.7864 150.558C87.3151 150.383 86.8197 150.272 86.3334 150.131C86.4697 150.623 86.4798 151.221 86.7666 151.594C88.0361 153.237 86.8925 153.629 85.5349 154.279C84.944 154.561 84.6303 155.604 84.283 156.34C83.9824 157.121 83.5259 157.832 82.9415 158.431C82.357 159.03 81.6568 159.504 80.8834 159.823C79.8316 160.19 78.8679 160.772 78.0542 161.532C77.2404 162.293 76.5945 163.215 76.1578 164.239C75.2006 166.582 73.3581 168.453 71.0301 169.445C69.8737 169.914 68.8306 170.625 67.9706 171.529C67.1105 172.433 66.4533 173.51 66.0428 174.689C65.8005 175.353 65.389 175.943 64.849 176.4C65.2227 176.915 64.9861 176.99 63.9862 177.703C62.9842 178.598 62.3036 179.797 62.0489 181.116C61.7674 181.962 61.7738 182.877 62.0673 183.718C62.3607 184.56 62.9245 185.28 63.6707 185.768C65.1847 186.836 66.0116 188.43 67.0679 189.945C68.7339 192.386 70.522 194.741 72.4252 197.003C73.2939 198.062 74.5366 198.748 75.8964 198.917C76.6911 199.06 77.4681 199.287 78.214 199.597C78.9737 199.916 79.6208 200.454 80.0724 201.143C80.524 201.832 80.7594 202.641 80.7484 203.465C80.6533 204.24 80.4575 204.999 80.1661 205.723C79.9429 206.415 80.099 206.873 80.6818 206.808C81.7468 206.689 82.7542 206.495 83.2296 207.932C83.5747 208.989 84.0115 210.016 84.3442 211.077C84.4026 211.353 84.541 211.607 84.7422 211.805C84.9434 212.004 85.1985 212.139 85.4758 212.194C86.824 212.44 88.1799 212.679 89.5501 212.992C89.9577 213.074 90.3331 213.271 90.6313 213.56C90.9295 213.85 91.1378 214.219 91.2314 214.624C91.7539 216.272 92.7296 217.74 94.0471 218.86C94.5542 219.393 95.2348 219.728 95.9665 219.804C96.6909 219.826 97.4005 219.597 97.9751 219.156C98.593 218.718 98.7888 218.905 99.179 219.887C99.3755 220.366 99.5329 220.874 99.9824 220.825C100.702 220.742 101.405 220.551 102.068 220.259C102.892 219.798 103.828 219.575 104.771 219.615C105.715 219.655 106.629 219.957 107.41 220.487C108.585 221.202 109.805 221.838 111.064 222.391C111.96 222.838 112.655 222.417 112.668 221.432C112.686 220.341 113.071 219.999 113.96 220.338C116.02 221.123 118.089 221.885 120.111 222.748C120.598 223.003 121.134 223.153 121.683 223.188C122.231 223.223 122.782 223.142 123.297 222.95C123.792 222.704 124.329 222.554 124.88 222.509C127.113 222.528 129.346 222.6 131.578 222.725C133.518 222.836 135.714 222.434 137.299 223.536C139.517 225.08 141.629 223.038 143.709 223.863C144.76 224.197 145.794 224.584 146.805 225.023C147.295 225.274 147.835 225.414 148.385 225.431C148.935 225.448 149.482 225.343 149.986 225.123C151.055 224.741 151.359 225.461 151.84 226.099C152.733 227.277 153.666 227.569 154.598 227.059C155.311 226.669 155.969 226.189 156.642 225.736C157.733 225.005 158.773 226.188 159.772 225.873C161.952 225.36 164.201 225.211 166.429 225.433C168.37 225.546 170.295 225.854 172.174 226.355C174.762 227.275 177.159 228.664 179.244 230.453C179.395 230.655 179.492 230.893 179.524 231.143C179.557 231.394 179.524 231.648 179.43 231.883C178.915 232.811 178.303 233.681 177.603 234.478C177.338 234.793 177.004 235.041 176.628 235.206C176.251 235.37 175.841 235.445 175.431 235.425C173.759 235.369 172.089 235.284 170.422 235.183L154.55 234.214C152.701 234.779 150.736 234.841 148.856 234.394C146.586 233.993 144.458 234.673 142.247 234.457C135.859 233.834 129.461 233.302 123.063 232.772C120.832 232.737 118.628 232.285 116.564 231.441C115.515 231.051 114.375 230.971 113.282 231.213C111.912 231.431 110.527 231.532 109.14 231.514C106.885 231.417 104.741 231.309 102.398 231.161C99.6813 231.042 96.9911 230.57 94.3957 229.758C92.8963 229.248 91.4693 228.547 90.1503 227.67C88.9333 226.854 87.7946 225.927 86.7487 224.9C86.404 224.565 86.0891 224.232 85.7703 223.898C85.6083 224.076 85.4169 224.224 85.2046 224.337C84.4762 224.656 83.661 225.327 82.6391 225.032C81.3694 224.53 79.9594 224.511 78.6766 224.979C77.3004 225.61 75.8414 224.847 74.397 224.93C73.295 225.01 72.2281 225.351 71.285 225.927C70.1454 226.62 68.9213 227.164 67.643 227.545C66.1885 227.996 64.7715 228.56 63.4046 229.232C61.8047 229.983 60.0856 230.448 58.3252 230.606C56.8183 230.719 55.2021 230.84 53.7745 230.946C52.2522 231.077 50.7218 230.815 49.3292 230.187C47.9365 229.558 46.7281 228.584 45.8189 227.356C44.8012 225.939 43.5341 224.719 42.0795 223.756C40.8966 222.98 39.8957 221.956 39.1455 220.757L38.8787 220.314L38.6867 219.945C38.5644 219.694 38.4527 219.439 38.3523 219.175C38.1481 218.635 37.9945 218.078 37.8936 217.51C37.6821 216.699 37.277 215.952 36.7131 215.332C34.8512 212.722 33.3166 209.893 32.1438 206.91C31.3601 204.988 30.7331 202.965 30.0486 200.763L29.538 199.005L29.2385 197.824L28.9641 196.538C28.5823 194.803 28.4643 193.021 28.6143 191.251C28.7532 190.241 29.2444 189.312 30.0012 188.629ZM85.4419 140.143C85.5952 140.052 85.7414 139.955 85.8977 139.866C86.2686 139.625 86.5803 139.304 86.8097 138.926C86.6128 139.115 86.3945 139.279 86.1594 139.416C85.8522 139.581 85.602 139.834 85.4419 140.143ZM92.1118 133.541C92.6511 132.132 94.4922 132.168 95.0855 130.987C95.666 129.833 96.485 128.816 97.4883 128.002C97.8047 126.268 99.0442 125.484 100.347 124.671C100.51 124.568 100.537 124.218 100.569 123.974C100.589 123.376 100.803 122.8 101.177 122.332C101.551 121.865 102.067 121.531 102.646 121.38C103.675 121.021 103.801 119.986 104.1 119.206C103.739 118.195 103.608 117.116 103.718 116.048C103.42 116.249 103.104 116.444 102.799 116.652C102.181 117.073 101.146 117.331 100.932 117.93C100.253 119.817 98.6359 120.712 97.2875 121.982C96.6394 122.475 96.1634 123.161 95.9274 123.94C95.6914 124.72 95.7075 125.554 95.9733 126.324C96.0994 126.563 96.1739 126.825 96.1918 127.095C96.2098 127.364 96.1709 127.634 96.0776 127.888C95.9843 128.141 95.8387 128.372 95.6504 128.565C95.462 128.759 95.235 128.911 94.9842 129.011C93.1243 129.752 92.3421 131.747 90.6522 132.734C89.4379 133.446 89.6172 135.147 88.7538 136.265C88.7309 136.296 88.7099 136.328 88.6875 136.358C89.0039 136.074 89.3621 135.84 89.7496 135.665C90.271 135.498 90.751 135.222 91.1581 134.856C91.5652 134.49 91.8902 134.041 92.1118 133.541ZM37.772 197.075C38.3038 197.876 38.9023 198.631 39.5613 199.331C41.4587 201.144 42.6406 203.578 42.8911 206.19C43.1468 207.774 43.5916 209.321 44.216 210.799C44.7441 212.063 45.3355 213.299 45.9879 214.504L46.4783 215.412L46.7271 215.866L46.9489 216.244C47.2384 216.748 47.5568 217.235 47.9026 217.701C49.2956 219.555 50.8883 221.251 52.652 222.756C52.9618 223.039 53.5381 222.887 53.9466 222.992C54.9815 223.219 56.0434 223.298 57.1005 223.227C58.9367 223.077 60.7271 222.576 62.3739 221.751C64.3738 220.746 66.2714 219.549 68.0399 218.177C68.7269 217.706 69.5044 217.384 70.323 217.23C71.1415 217.077 71.9831 217.095 72.7941 217.285C73.9608 217.587 75.1991 217.424 76.2485 216.832C77.1144 216.421 78.0576 216.198 79.0158 216.178C78.9839 216.131 78.951 216.09 78.9194 216.041C77.2665 213.838 75.4965 211.724 73.6172 209.71C72.58 208.442 71.7149 207.016 70.7767 205.648C67.1579 203.692 65.2485 199.926 62.5846 196.824C62.096 196.107 61.7679 195.293 61.6226 194.438C61.5626 194.156 61.4445 193.889 61.2758 193.655C61.1071 193.42 60.8915 193.224 60.6427 193.077C59.316 192.04 58.2302 190.727 57.4601 189.229C56.6966 187.968 56.0303 186.609 55.1568 185.317C55.0361 185.434 54.9203 185.553 54.796 185.666C54.4012 186.081 53.8811 186.354 53.3156 186.445C52.7501 186.536 52.1704 186.439 51.6654 186.169C51.0632 185.838 50.4504 185.957 50.31 186.537C49.6466 189.464 47.4773 191.532 44.2723 192.62C43.5501 192.86 42.8253 193.101 42.0979 193.343L40.993 193.674L40.4413 193.838L40.2054 193.906C40.2877 193.87 40.204 193.893 40.1828 193.894C39.599 193.947 39.0331 194.123 38.523 194.411C38.0577 194.771 37.6866 195.238 37.4416 195.773C37.339 195.995 37.3158 196.245 37.3759 196.482C37.4361 196.72 37.5759 196.929 37.772 197.075Z" fill="#000638"/>
<path d="M100.697 101.421C100.966 100.961 101.259 100.506 101.544 100.047C101.85 99.6009 102.198 99.185 102.583 98.8052C102.981 98.4375 103.401 98.0956 103.842 97.7816C104.302 97.4949 104.777 97.2339 105.265 96.9997C106.907 96.2567 108.706 95.9276 110.505 96.0414C112.405 96.1324 114.279 96.5212 116.059 97.1936C117.326 97.6651 118.55 98.2443 119.718 98.9249C120.3 99.2525 120.859 99.6196 121.419 100L122.248 100.596L122.883 101.102L127.937 105.145L132.798 109.402C139.077 115.257 145.024 121.458 150.609 127.977C152.691 130.272 154.575 132.738 156.241 135.35C156.34 135.503 156.442 135.657 156.541 135.811C157.195 135.941 157.865 136.079 158.57 136.243C159.668 136.487 160.723 136.858 161.788 137.2C163.796 137.966 165.72 138.936 167.531 140.094C169.677 141.518 171.511 143.364 172.922 145.52C173.323 145.691 173.723 145.877 174.121 146.093C177.013 147.689 179.315 150.17 180.691 153.173C182.656 157.431 183.024 162.253 181.728 166.76C181.623 167.106 181.5 167.438 181.381 167.774C181.221 169.005 180.894 170.208 180.411 171.351C180.111 172.07 179.745 172.76 179.317 173.411C179.714 174.156 180.116 174.896 180.534 175.626C181.196 176.96 181.694 178.371 182.014 179.826C182.255 180.792 182.724 181.687 183.384 182.434C185.113 184.675 186.606 187.089 187.839 189.637C189.122 192.205 190.579 194.683 192.2 197.052C193.034 199.571 193.681 202.165 194.458 204.791C195.247 207.423 195.882 210.437 196.711 212.912C197.112 214.093 197.426 215.303 197.65 216.53C197.748 217.153 197.844 217.78 197.919 218.412L197.985 219.408C197.998 219.901 198.03 220.406 198.011 220.887C197.991 222.795 197.715 224.692 197.192 226.527C196.645 228.193 195.674 229.688 194.375 230.866C193.365 231.728 192.187 232.37 190.915 232.75C189.643 233.109 188.309 233.185 187.005 232.971C185.68 232.734 184.401 232.283 183.221 231.635C181.992 230.924 180.85 230.073 179.816 229.101C179.356 228.643 178.916 228.178 178.511 227.697C178.137 227.225 177.656 226.67 177.419 226.314C177.148 225.948 176.878 225.572 176.585 225.196C176.334 224.869 176.057 224.562 175.757 224.28C171.626 220.439 168.534 215.516 165.399 210.764C165.224 210.499 165.045 210.247 164.869 209.986C165.374 211.129 165.834 212.268 166.23 213.398C166.28 213.532 166.302 213.674 166.293 213.817C166.284 213.959 166.244 214.098 166.177 214.224C166.111 214.35 166.018 214.46 165.905 214.547C165.792 214.635 165.662 214.697 165.523 214.73C164.138 214.723 162.758 214.546 161.416 214.201C160.058 213.8 158.846 213.011 157.929 211.931C155.835 209.539 153.722 207.16 151.722 204.692C145.324 196.903 139.33 188.79 133.764 180.385C131.229 177.794 129.124 174.814 127.529 171.558C127.015 170.596 126.457 169.69 125.874 168.813C125.312 167.925 124.73 167.064 124.143 166.211C122.915 164.528 121.796 162.769 120.791 160.945C115.057 150.144 109.935 139.03 105.45 127.654C103.803 123.807 102.618 119.777 101.922 115.65C101.769 114.633 101.502 113.636 101.128 112.678L100.768 111.655C100.624 111.227 100.482 110.795 100.356 110.359C100.098 109.49 99.9014 108.605 99.7672 107.709C99.4315 105.568 99.7557 103.374 100.697 101.421ZM138.245 152.2C138.413 152.741 138.614 153.271 138.849 153.787C140.024 153.257 141.11 152.551 142.071 151.692C141.921 151.157 141.714 150.64 141.451 150.151C140.348 150.876 139.282 151.553 138.245 152.2ZM160.447 160.631C159.233 159.434 158.253 158.019 157.558 156.461C157.432 156.644 157.315 156.831 157.206 157.022C157.299 157.209 157.391 157.395 157.485 157.583L157.84 158.355C157.956 158.629 158.063 158.849 158.222 159.247C158.813 160.673 159.217 162.17 159.425 163.699C159.475 164.076 159.504 164.455 159.511 164.834C160.607 164.184 161.644 163.44 162.612 162.611C161.886 162.006 161.159 161.312 160.447 160.631ZM158.298 181.186L157.737 181.23C157.672 181.239 157.606 181.241 157.54 181.245C157.64 181.48 157.761 181.706 157.899 181.921C158.296 181.692 158.716 181.42 159.15 181.116C158.861 181.14 158.566 181.163 158.298 181.186ZM144.289 163.801C144.653 163.501 145.079 163.289 145.537 163.18C145.995 163.07 146.472 163.068 146.931 163.171C147.046 162.461 147.156 161.745 147.238 161.009C147.256 160.843 147.296 160.688 147.323 160.526C147.218 160.27 147.112 160.01 146.997 159.742C146.966 159.681 146.929 159.624 146.886 159.572C146.444 159.875 145.983 160.151 145.508 160.399C144.633 160.837 143.798 161.341 142.918 161.886C143.298 162.577 143.758 163.219 144.289 163.801ZM124.885 131.848C124.935 132.196 125.014 132.538 125.121 132.873C125.16 133.173 124.886 133.26 124.792 133.54C124.685 133.689 124.588 133.844 124.499 134.004C124.457 134.112 124.454 134.231 124.49 134.341C124.526 134.451 124.599 134.546 124.697 134.608C124.994 134.806 125.258 135.05 125.48 135.33C125.523 135.388 125.562 135.448 125.6 135.509L125.82 135.876C126.046 136.251 126.26 136.63 126.466 137.011C127.293 138.534 128.001 140.093 128.814 141.631C129.375 142.717 130.034 143.749 130.785 144.714C131.32 144.241 131.887 143.806 132.483 143.412C133.266 142.906 134.089 142.465 134.945 142.094C133.64 140.349 132.432 138.541 131.107 136.935C130.517 136.224 129.899 135.543 129.295 134.889C128.995 134.569 128.697 134.251 128.401 133.935L128.183 133.707C128.096 133.616 128.146 133.65 128.121 133.614L128.072 133.478C127.933 133.049 127.732 132.642 127.474 132.271C127.096 131.717 126.598 131.255 126.017 130.919C125.603 130.679 125.268 130.726 125.085 130.912C124.988 131.046 124.921 131.198 124.886 131.359C124.852 131.52 124.852 131.687 124.885 131.848ZM144.564 135.349C144.824 135.594 145.08 135.847 145.347 136.084C145.577 136.3 145.77 136.551 145.92 136.829C146.298 136.9 146.695 136.991 147.132 137.116C147.511 137.235 147.901 137.315 148.297 137.354C147.069 136.644 145.819 135.991 144.564 135.349ZM170.766 199.068C172.273 201.106 174.047 202.914 175.709 204.82C177.217 208.908 180.77 212.693 182.125 216.775C182.375 217.738 182.933 218.593 183.713 219.212C183.911 219.376 184.1 219.533 184.279 219.681C184.409 219.803 184.525 219.94 184.625 220.088C184.857 220.429 184.763 220.544 184.648 220.799C184.523 221.032 184.447 221.288 184.425 221.551C184.403 221.814 184.435 222.079 184.519 222.329C184.55 222.446 184.609 222.555 184.689 222.645C184.77 222.736 184.87 222.806 184.983 222.851C185.096 222.895 185.217 222.913 185.338 222.903C185.459 222.892 185.575 222.853 185.678 222.79C186.076 222.547 186.446 222.262 186.783 221.94C187.063 221.665 187.264 221.319 187.364 220.939C187.445 220.645 187.433 220.334 187.328 220.047C187.224 219.761 187.033 219.515 186.781 219.343C186.751 219.327 186.907 219.32 187.119 219.289C187.172 219.266 187.228 219.304 187.287 219.222C187.347 219.14 187.408 219.059 187.467 218.979C187.591 218.818 187.707 218.667 187.801 218.545C188.059 218.265 188.204 217.899 188.208 217.519C188.213 217.138 188.076 216.77 187.824 216.484C187.296 215.695 186.853 215.124 186.526 214.646C186.252 214.263 186.031 213.844 185.871 213.4C185.704 212.328 185.769 211.232 186.06 210.187C186.304 207.572 186.194 204.936 185.732 202.351C185.319 198.894 183.874 195.641 181.583 193.019C179.432 190.173 177.612 187.091 176.16 183.832C175.303 182.155 174.443 180.48 173.581 178.807C173.073 179.426 172.604 180.076 172.176 180.753C171.093 182.487 169.618 184.162 168.535 185.775C167.318 187.646 165.769 189.281 163.966 190.597C166.473 193.22 168.748 196.054 170.766 199.068ZM139.35 175.87C140.383 176.667 141.459 177.409 142.572 178.091C143.562 178.894 144.317 179.949 144.758 181.145C144.81 180.919 144.862 180.694 144.931 180.476C143.257 177.809 141.407 175.256 139.395 172.835C138.671 171.957 137.922 171.142 137.194 170.307C137.189 170.559 137.176 170.813 137.177 171.079C137.142 171.992 137.32 172.9 137.697 173.732C138.074 174.563 138.64 175.295 139.35 175.87ZM108.747 107.099C108.861 107.29 109.013 107.455 109.192 107.586C109.372 107.717 109.575 107.81 109.792 107.861C110.191 108.004 110.58 108.174 110.957 108.368C111.161 108.482 111.18 108.513 111.043 108.593C110.961 108.646 110.889 108.714 110.831 108.792C110.799 108.836 110.769 108.883 110.742 108.931C110.73 108.956 110.716 108.98 110.701 109.002L110.741 109.32L111.234 112.174C111.563 114.104 111.89 116.023 112.214 117.931C112.374 118.867 112.612 119.788 112.925 120.685C113.088 120.569 113.248 120.458 113.393 120.366L114.971 119.356C115.577 119.121 116.165 118.821 116.781 118.607C118.139 118.221 119.549 118.053 120.959 118.108C122.989 118.231 124.978 118.731 126.824 119.584L128.285 120.275L129.723 121.126L130.435 121.546L131.133 122.041C131.596 122.364 132.061 122.687 132.527 123.01C133.42 123.771 134.349 124.449 135.192 125.268L136.128 126.182L136.887 126.989C137.006 127.115 137.114 127.241 137.231 127.367C137.182 127.306 137.137 127.244 137.088 127.182C135.991 125.797 134.716 124.539 133.533 123.215C132.932 122.543 132.292 121.906 131.616 121.309C130.967 120.767 130.289 120.261 129.584 119.794C128.278 118.908 126.85 118.218 125.345 117.746C123.978 117.358 123.419 116.708 122.894 115.089C122.635 114.294 122.523 113.574 121.721 113.033C120.505 112.262 119.231 111.585 117.911 111.008C117.127 110.67 116.374 110.314 115.655 109.92C115.256 109.682 115.048 109.632 114.782 109.486C114.519 109.364 114.256 109.232 114.001 109.093C113.482 108.822 112.978 108.521 112.492 108.193L112.131 107.935L112.043 107.872C112.039 107.861 112.048 107.854 112.05 107.844C112.06 107.82 112.066 107.795 112.069 107.77C112.031 107.626 111.982 107.485 111.923 107.348C111.668 106.869 111.25 106.496 110.744 106.296C110.239 106.097 109.679 106.084 109.165 106.26C109.077 106.281 108.996 106.32 108.925 106.375C108.855 106.431 108.798 106.501 108.758 106.581C108.718 106.661 108.696 106.749 108.694 106.839C108.692 106.929 108.71 107.017 108.747 107.099Z" fill="#000638"/>
<path d="M80.3919 141.427C80.7523 140.857 81.126 140.3 81.5066 139.753C81.857 139.258 82.2968 138.833 82.8032 138.499C83.3256 138.135 83.904 137.86 84.5154 137.683C85.4285 137.43 86.3901 137.409 87.3134 137.621C87.6581 136.006 88.0513 134.445 88.5022 132.994C88.9921 131.172 89.9214 129.498 91.2085 128.118C91.7034 127.534 92.3213 127.067 93.0178 126.751C93.464 126.57 93.939 126.47 94.4203 126.456C94.8697 126.456 95.3172 126.515 95.7511 126.632C96.0762 126.719 96.395 126.829 96.7055 126.959C96.8698 126.716 97.0343 126.467 97.195 126.223C98.2905 124.721 99.8276 123.599 101.592 123.012C102.584 122.727 103.625 122.657 104.646 122.807C105.601 122.968 106.516 123.31 107.343 123.813C108.17 124.309 108.927 124.912 109.596 125.606C109.948 125.964 110.281 126.444 110.632 126.857C111.021 127.284 111.363 127.752 111.654 128.252C112.03 128.894 112.369 129.558 112.666 130.241C112.905 130.921 113.107 131.614 113.27 132.316C113.541 133.543 113.682 134.796 113.692 136.053C113.707 136.323 113.706 136.594 113.69 136.865C113.677 137.121 113.641 137.287 113.622 137.501C113.575 137.908 113.55 138.309 113.535 138.719C113.491 139.586 113.584 140.454 113.809 141.293C114.507 143.774 114.907 146.329 115 148.905C115.106 151.452 114.735 153.996 113.906 156.406C113.664 157.308 113.155 158.116 112.446 158.723C112.586 159.505 112.674 160.295 112.711 161.089C112.72 161.451 112.731 161.804 112.707 162.207C112.696 162.62 112.661 163.032 112.603 163.44C112.475 164.475 112.204 165.486 111.797 166.446C111.179 167.917 110.181 169.196 108.904 170.152C108.157 170.704 107.328 171.133 106.445 171.422C105.683 171.659 104.894 171.796 104.096 171.83C103.484 171.819 102.875 171.744 102.279 171.605C102.122 171.571 102.039 171.56 101.825 171.501L101.235 171.326C100.849 171.203 100.47 171.056 100.102 170.886C99.4498 170.559 98.8408 170.153 98.2895 169.675C98.0449 169.457 97.8087 169.231 97.5825 169C97.3933 168.791 97.2147 168.572 97.0476 168.345C96.751 167.942 96.4806 167.521 96.238 167.084C96.1442 167.133 96.0564 167.187 95.9541 167.23C95.7031 167.33 95.4457 167.413 95.1838 167.479C94.6589 167.605 94.1179 167.649 93.5796 167.61C93.3468 167.585 93.1154 167.548 92.8864 167.499C92.6839 167.459 92.4844 167.404 92.2896 167.336C92.0335 167.241 91.7783 167.135 91.529 167.018C91.1044 166.82 90.7049 166.572 90.3393 166.279C90.5973 167.048 90.9979 167.762 91.5201 168.383C92.7393 169.667 92.738 169.691 91.6465 170.667C91.3646 171.087 90.9939 171.44 90.5605 171.701C90.1272 171.962 89.6419 172.124 89.1389 172.177C86.7686 171.321 84.5879 170.011 82.7187 168.32C82.2727 167.898 81.9036 167.402 81.628 166.853C81.315 166.289 81.0513 165.699 80.84 165.089C80.6015 164.477 80.3628 163.865 80.1317 163.271C79.8845 162.684 79.5826 162.122 79.23 161.592C77.9443 159.789 78.1428 157.767 78.4262 155.844C78.6295 154.872 78.7707 153.907 78.9031 152.91C78.9259 152.698 78.9527 152.343 78.9674 151.98C78.9805 151.626 78.9957 151.263 79.0222 150.9C79.0664 150.104 79.058 149.307 78.997 148.513C78.9584 147.708 78.9942 146.902 79.1041 146.104C79.1507 145.684 79.2081 145.256 79.2754 144.827C79.3585 144.426 79.4647 144.03 79.5936 143.641L79.9644 142.495L80.1581 141.925L80.2575 141.642L80.3919 141.427ZM101.428 152.284C101.25 151.213 101.069 150.12 100.886 149.004C100.822 148.617 100.759 148.232 100.695 147.845C100.679 148.205 100.648 148.575 100.639 148.932C100.656 150.093 100.925 151.237 101.428 152.284L101.428 152.284ZM107.515 134.828C107.499 134.399 106.998 134.399 106.763 134.304C106.313 134.068 105.877 133.809 105.454 133.528C105.201 133.365 104.913 133.264 104.614 133.234C104.315 133.203 104.013 133.244 103.732 133.353C104.004 133.78 104.271 134.218 104.526 134.683C105.691 136.739 106.635 138.404 107.635 140.168C107.741 140.368 107.843 140.558 107.944 140.748C107.823 140.088 107.7 139.419 107.585 138.791C107.519 137.735 107.535 136.569 107.515 134.828L107.515 134.828ZM108.783 145.327C108.717 146.361 108.875 147.397 109.248 148.363C109.267 148.41 109.296 148.452 109.317 148.498C109.153 147.443 108.976 146.382 108.783 145.327L108.783 145.327ZM102.387 162.744C102.542 163.074 102.79 163.352 103.1 163.544C103.139 163.578 103.173 163.551 103.202 163.579C103.211 163.606 103.37 163.595 103.442 163.61C103.517 163.624 103.595 163.625 103.67 163.611C103.736 163.61 103.8 163.61 103.823 163.588C103.975 163.545 103.956 163.527 103.993 163.445C104.027 163.385 104.038 163.315 104.024 163.248C103.209 161.436 102.65 159.519 102.362 157.554C102.209 156.776 102.059 155.947 101.908 155.095C101.839 155.785 101.644 156.457 101.333 157.077C101.176 157.804 101.175 158.556 101.331 159.283C101.47 160.491 101.828 161.664 102.387 162.744L102.387 162.744Z" fill="#006ADC"/>
<path d="M85.2341 148.801C85.9413 147.735 86.8649 146.83 87.9448 146.145C89.0247 145.459 90.2368 145.009 91.5023 144.822C93.2113 144.583 94.953 144.81 96.5437 145.479C96.2891 144.711 96.0015 143.908 95.7348 143.119C94.8925 140.63 95.4421 140.791 95.9177 141.086C96.4251 141.413 96.907 141.832 96.6852 140.712C96.4023 139.824 96.2141 138.91 96.1236 137.983C96.2571 137.586 97.0538 138.582 96.977 137.423C96.8993 136.595 97.0107 135.759 97.3028 134.98C97.5948 134.2 98.0599 133.497 98.663 132.924C99.3399 132.316 100.128 131.845 100.985 131.537C101.916 131.189 102.9 130.999 103.894 130.975C104.626 131.197 105.31 131.552 105.912 132.024C106.485 132.507 107.023 133.028 107.523 133.585C109.262 134.87 110.698 136.52 111.73 138.42C112.127 139.044 112.488 139.69 112.811 140.356C113.162 141.016 113.509 141.668 113.852 142.315C114.528 143.678 115.17 145.067 115.811 146.11C116.815 147.698 117.984 149.177 119.297 150.52C120.905 152.312 122.251 154.322 123.295 156.492C123.688 157.621 124.077 158.74 124.462 159.847L125.016 161.468L125.293 162.271L125.412 162.706C125.728 163.87 126.051 165.01 126.414 166.122C127.099 168.383 128.085 170.54 129.347 172.537C130.149 173.765 129.881 175.132 129.667 176.495C129.422 177.877 129.28 179.217 130.187 180.282C131.372 181.622 132.673 182.91 133.89 184.078C135.115 185.264 136.213 186.301 137.276 187.438C138.34 188.545 138.669 189.473 138.409 190.294C138.272 190.663 138.041 190.99 137.739 191.242C137.436 191.494 137.073 191.663 136.686 191.731C134.665 191.955 132.622 191.586 130.807 190.669C128.795 189.687 126.999 188.313 125.526 186.626C122.699 183.356 121.162 179.601 121.488 176.448C121.49 176.394 121.478 176.341 121.453 176.294C121.42 176.442 121.398 176.594 121.358 176.738C121.298 176.959 121.221 177.174 121.127 177.382C121.025 177.621 120.911 177.858 120.785 178.089C120.541 178.552 120.243 178.984 119.897 179.377C119.526 179.781 119.115 180.145 118.67 180.466C118.47 180.612 118.261 180.747 118.044 180.869L117.769 180.995C117.218 181.241 116.634 181.409 116.036 181.493C115.599 181.627 115.139 181.668 114.684 181.615C112.941 181.467 111.274 180.836 109.87 179.791C109.391 179.436 108.93 179.055 108.489 178.652L107.768 177.884L107.408 177.502C107.289 177.366 107.172 177.178 107.054 177.019C106.039 175.642 105.177 174.159 104.484 172.596C104.006 173.052 103.461 173.432 102.868 173.724C100.473 173.882 98.067 173.671 95.7354 173.098C93.6255 172.488 92.9646 170.067 90.8395 169.222C88.9704 168.462 88.6465 166.833 88.4182 165.245C88.1791 163.633 88.0686 162.053 86.4097 160.761C86.0354 160.47 85.6927 160.141 85.3872 159.779C85.2333 159.597 85.0887 159.408 84.9534 159.212C84.8023 159.003 84.6742 158.779 84.5715 158.543C84.0219 157.331 83.7071 156.025 83.6437 154.696C83.6029 153.792 83.6806 152.886 83.8747 152.003C84.1252 150.86 84.5862 149.775 85.2341 148.801ZM112.9 171.729C112.784 171.524 112.692 171.362 112.9 171.729L112.9 171.729ZM110.974 156.106C110.63 154.235 109.975 152.436 109.035 150.782C108.732 150.015 108.144 149.394 107.395 149.05C107.284 149.013 107.167 149.004 107.053 149.023C106.938 149.042 106.83 149.089 106.738 149.159C106.645 149.229 106.571 149.321 106.522 149.426C106.473 149.531 106.451 149.647 106.456 149.763C106.605 151.385 106.776 152.796 106.947 154.027C108.401 155.278 109.815 156.552 111.189 157.876C111.125 157.364 111.055 156.782 110.974 156.106ZM112.27 158.941C112.523 159.194 112.777 159.447 113.027 159.705C112.937 159.476 112.853 159.248 112.759 159.018C112.602 158.628 112.432 158.689 112.27 158.941ZM114.667 174.812L114.636 174.786L114.639 174.79L114.667 174.812ZM111.261 174.806L111.261 174.806L111.258 174.807L111.261 174.806Z" fill="#80829B"/>
<path d="M62.6926 228.886C62.8814 228.574 63.0957 228.277 63.3331 228C64.2355 226.965 65.4523 226.254 66.7971 225.977C67.074 225.919 67.3543 225.878 67.6362 225.854C68.019 225.834 68.4027 225.847 68.7833 225.892C68.9754 225.915 69.1653 225.945 69.3532 225.984L69.65 226.054C69.8248 226.1 70 226.151 70.1737 226.209C70.267 226.241 70.3405 226.267 70.4068 226.292C70.6907 226.15 70.9835 226.026 71.2834 225.922C72.846 225.393 74.5479 225.452 76.0701 226.089C76.6469 226.328 77.1916 226.639 77.6914 227.014C77.9721 227.224 78.2402 227.451 78.4943 227.693C78.6132 227.813 78.7308 227.931 78.8472 228.048C79.0713 228.272 79.2884 228.488 79.4987 228.699C81.1107 230.23 82.553 231.93 83.8007 233.77C84.3759 234.575 84.7187 235.522 84.7918 236.508C84.837 238.149 85.2515 239.758 86.0047 241.217C86.6339 242.073 87.2547 242.96 87.8536 243.932C88.7298 245.328 89.4612 246.81 90.0363 248.355C90.7637 250.303 91.071 252.384 90.9381 254.46C90.9069 254.94 90.8344 255.416 90.7214 255.884C90.4972 256.816 90.0859 257.693 89.5123 258.462C89.3657 258.655 89.2078 258.84 89.0396 259.014C90.8044 259.826 92.1112 260.959 92.2466 263.108C92.4487 264.267 92.9059 265.367 93.5851 266.328C94.5354 268.171 93.5901 269.953 92.2388 271.415C91.247 272.311 90.1603 273.095 88.9982 273.755C88.1411 274.334 87.7725 274.272 87.2763 273.009C87.0626 272.461 86.937 272.073 86.2732 271.875C85.441 271.706 84.6929 271.254 84.1556 270.596C83.6183 269.938 83.3249 269.115 83.3249 268.266C83.3109 267.251 82.9474 266.272 82.2957 265.494C81.644 264.716 80.744 264.187 79.7473 263.995C79.3194 263.907 78.9283 263.691 78.6255 263.376C78.3227 263.061 78.1224 262.662 78.0511 262.231C77.7867 260.327 77.1381 258.963 75.089 258.336C74.3736 258.091 73.7471 257.638 73.2891 257.036C72.8311 256.435 72.562 255.71 72.5161 254.955C72.423 253.447 71.9324 251.991 71.0943 250.734C69.821 249.067 68.833 247.167 67.703 245.348C67.2087 244.566 66.5668 243.888 65.8132 243.352C65.5567 243.192 65.3508 242.962 65.2194 242.69C65.0881 242.417 65.0366 242.113 65.0709 241.813C65.0231 240.961 64.967 240.258 64.8767 239.645C64.8298 239.077 64.7257 238.515 64.5658 237.968C64.4885 237.714 64.3958 237.466 64.2882 237.223C64.1977 237 64.0839 236.787 63.9485 236.588C63.7116 236.22 63.335 235.728 62.8582 234.931C62.6132 234.527 62.4074 234.101 62.2436 233.658C62.1297 233.343 62.0416 233.019 61.9801 232.689C61.8895 232.124 61.8858 231.548 61.969 230.982C61.993 230.792 62.0275 230.603 62.0724 230.417C62.1435 230.155 62.2298 229.896 62.3311 229.644C62.4343 229.383 62.5551 229.13 62.6926 228.886Z" fill="#006ADC"/>
<path d="M181.57 171.694C181.759 169.826 180.364 168.027 180.305 166.393C180.312 165.206 180.418 164.021 180.624 162.851C180.822 161.621 180.837 160.368 180.669 159.134C180.783 158.132 180.871 157.117 180.948 156.074C180.726 155.076 180.298 154.135 179.691 153.312C179.085 152.489 178.314 151.801 177.426 151.292C176.863 151.028 177.303 150.314 177.054 149.959C176.788 149.588 176.063 149.552 175.688 149.26C174.579 148.442 175.711 146.547 173.831 146.072C173.157 146 172.516 145.744 171.978 145.332C170.021 143.326 167.916 141.47 165.681 139.78C163.289 138.053 160.534 136.896 157.627 136.398C154.77 135.991 151.866 136.048 149.027 136.566C148.194 136.665 147.354 136.692 146.516 136.647C145.662 136.58 144.805 136.516 143.94 136.499C143.507 136.487 143.069 136.48 142.635 136.501C142.207 136.539 141.783 136.602 141.363 136.692C140.497 136.851 139.682 137.221 138.992 137.768C138.605 138.093 138.301 138.504 138.103 138.968C137.626 140.089 136.815 140.053 135.978 140.023C135.149 139.99 134.341 140.039 134.051 141.183C133.722 142.489 132.448 142.537 132.161 143.766C131.916 145.246 131.816 146.746 131.861 148.245C132.201 149.165 132.707 150.015 133.356 150.751C134.189 151.927 134.238 151.977 134.722 151.306C135.053 150.836 136.035 150.616 136.954 150.405C137.859 150.153 138.712 149.936 138.846 149.226C139.006 148.361 139.279 147.692 139.915 147.506C140.325 147.38 140.7 147.165 141.107 147.039C141.556 146.909 142.038 146.945 142.464 147.139C143.323 147.506 144.373 147.013 145.452 146.376C145.999 146.073 146.55 145.766 147.046 145.49C147.466 145.277 147.92 145.14 148.387 145.083C149.948 145.073 150.127 144.198 150.652 144.093C151.289 145.147 151.881 145.022 152.573 144.623C153.244 144.271 154.013 143.733 154.684 143.912C155.111 144.079 155.437 144.658 155.849 144.74C156.155 144.799 156.609 144.241 156.961 144.248C157.245 144.296 157.524 144.369 157.795 144.465C158.008 144.536 158.256 144.599 158.503 144.701C158.746 144.814 159.001 144.933 159.254 145.051C159.952 145.333 160.603 145.721 161.182 146.201C161.451 147.149 162.957 149.701 164.058 149.579C166.49 149.225 167.728 151.436 168.552 153.472C169.414 155.572 169.936 157.429 172.693 157.946C172.888 157.976 173.342 159.032 173.575 160.163C173.82 161.294 173.813 162.472 173.516 162.683C172.882 163.184 172.635 163.642 172.776 164.116C173.217 164.602 174.066 165.03 174.035 165.702C173.958 167.401 173.768 169.094 173.466 170.768C173.266 171.639 172.966 172.484 172.571 173.286C172.153 174.082 171.972 174.981 172.05 175.876C172.095 176.144 172.333 176.607 172.127 176.662C171.354 176.875 170.632 177.243 170.005 177.743C169.378 178.244 168.859 178.866 168.479 179.572C167.637 181.048 167.062 182.66 166.779 184.335C166.73 184.649 166.759 184.97 166.864 185.269C166.969 185.569 167.146 185.838 167.379 186.053C167.613 186.267 167.896 186.421 168.203 186.501C168.51 186.58 168.833 186.583 169.141 186.508C171.277 185.995 172.73 183.941 173.614 182.105C173.984 181.408 174.813 181.267 175.747 181.089C176.641 180.898 177.593 180.636 177.935 179.761C179.004 176.918 180.551 174.636 181.57 171.694Z" fill="#80829B"/>
<path d="M172.154 204.212C170.574 202.681 168.061 202.14 166.577 200.589C164.722 198.536 163.454 195.196 161.819 192.834C161.371 191.705 160.94 190.579 160.571 189.421C159.283 187.338 157.471 185.629 155.316 184.466C154.656 184.149 154.967 183.31 154.632 182.898C154.275 182.462 153.499 182.364 153.034 181.983C151.644 180.86 152.79 178.843 150.759 177.903C149.976 177.621 149.279 177.142 148.737 176.51C144.49 170.481 142.038 164.14 138.283 157.746C136.423 154.611 134.56 151.469 132.825 148.251C130.751 144.331 131.265 139.505 128.553 135.687C128.181 135.185 127.715 134.76 127.181 134.435C124.705 132.891 127.111 130.045 124.695 128.677C123.278 127.872 123.357 126.152 122.103 125.291C120.673 124.322 119.021 123.551 117.429 122.693C116.434 122.629 115.442 122.858 114.575 123.35C113.223 123.846 113.17 123.901 113.879 125.091C114.386 126.407 114.7 127.789 114.814 129.195C115.085 130.805 115.488 132.336 116.275 132.864C117.23 133.381 117.956 134.237 118.311 135.262C118.754 136.672 119.547 137.954 119.339 139.567C119.145 140.952 120.137 142.876 121.295 144.74C121.88 145.667 122.468 146.598 122.998 147.438C123.478 148.128 123.887 148.865 124.221 149.636C125.227 152.289 126.226 152.309 126.669 153.11C125.685 155.961 129.271 157.115 130.166 159.355C130.461 160.094 130.372 161.014 130.731 161.712C131 162.232 131.814 162.446 132.192 162.931C132.547 163.416 136.086 170.196 136.118 170.395C136.023 171.798 137.854 177.096 139.326 177.715C142.382 179.112 144.012 182.639 145.783 186.069C146.612 187.728 147.608 189.297 148.757 190.751C149.822 192.064 151.316 192.959 152.976 193.279C153.389 193.393 157.732 199.045 157.549 199.906C157.474 200.33 157.502 200.765 157.633 201.175C157.764 201.585 157.993 201.957 158.299 202.258C159.245 202.735 160.361 202.872 161.07 203.758C162.852 205.972 164.797 208.337 166.776 210.368C168.605 212.233 170.961 215.711 173.585 216.58C173.983 216.722 174.665 216.727 174.749 217.001C175.437 219.27 177.751 221.475 180.694 222.761C183.416 224.015 186.498 224.25 189.379 223.425C189.646 223.323 189.886 223.159 190.08 222.947C190.273 222.735 190.415 222.481 190.493 222.206C190.633 221.597 190.355 220.848 189.236 220.187C187.027 218.761 184.336 218.056 181.863 216.978C180.914 216.57 180.619 215.58 180.373 214.588C180.273 213.583 179.79 212.654 179.024 211.996C176.069 210.025 174.259 207.168 172.154 204.212Z" fill="#006ADC"/>
<path d="M197.659 153.309C198.425 152.686 199.111 151.97 199.698 151.177C200.101 150.494 200.523 149.818 200.974 149.157C201.199 148.826 201.433 148.501 201.676 148.18L201.863 147.94L202.159 147.596C202.361 147.359 202.575 147.133 202.792 146.908C203.527 146.011 204.52 145.359 205.636 145.042C206.752 144.724 207.939 144.755 209.037 145.13C210.046 145.567 210.914 146.275 211.544 147.176C211.882 147.64 212.189 148.125 212.463 148.63L212.886 149.406L213.059 149.711L213.199 149.945C213.448 150.223 213.785 150.405 214.154 150.46C215.19 150.774 214.182 151.77 214.772 152.224C214.972 152.378 215.409 152.383 215.536 152.57C215.655 152.746 215.312 153.153 215.64 153.268C216.117 153.45 216.548 153.734 216.904 154.1C217.26 154.466 217.533 154.904 217.702 155.386L217.671 156.18L217.667 156.572C217.621 156.618 217.579 156.666 217.539 156.717C217.543 156.836 217.417 157.117 217.398 157.476C217.368 157.825 217.459 158.244 217.671 158.312C217.849 158.377 218.102 157.995 218.205 157.599C218.26 157.362 218.303 157.122 218.334 156.88C218.397 156.954 218.477 157.012 218.567 157.05C218.657 157.087 218.755 157.102 218.852 157.094C218.964 157.086 219.069 157.037 219.145 156.956C219.317 156.762 219.45 156.536 219.537 156.292C219.633 155.994 220.141 156.011 220.642 155.963C221.155 155.924 221.656 155.81 221.661 155.458C221.667 155.008 221.571 154.589 221.549 154.221C221.495 153.834 221.521 153.441 221.627 153.066C221.668 152.847 221.751 152.638 221.873 152.451C221.994 152.265 222.152 152.104 222.336 151.979C222.476 151.879 222.634 151.81 222.802 151.775C222.969 151.741 223.142 151.742 223.309 151.778C223.984 152.021 224.55 152.497 224.904 153.121C225.317 153.828 225.515 154.639 225.474 155.456C225.499 156.145 225.298 156.823 224.901 157.388C224.505 157.952 223.935 158.371 223.278 158.581C223.134 158.612 223.254 158.949 223.25 159.155C223.229 159.503 223.113 159.838 222.915 160.125C222.669 160.501 222.375 160.843 222.041 161.143C221.421 161.682 220.76 162.172 220.064 162.608C219.52 162.994 218.89 163.239 218.228 163.323C217.401 163.392 216.576 163.163 215.902 162.678C215.443 162.351 214.906 162.544 214.358 162.386C214.162 162.194 214.021 161.952 213.951 161.686C213.882 161.42 213.885 161.14 213.961 160.876C213.84 160.139 213.601 159.427 213.254 158.765C213.092 158.28 212.827 157.836 212.476 157.464C210.622 157.355 210.157 155.978 209.754 154.54C209.592 153.829 209.349 153.139 209.03 152.484C208.626 151.758 208.354 151.691 207.806 151.993C207.553 152.14 207.551 152.032 207.542 151.727C207.521 151.353 207.476 150.98 207.408 150.611C207.41 150.555 207.071 150.419 206.732 150.542C206.479 150.617 206.254 150.764 206.084 150.965C206.031 151.113 206.194 151.538 206.145 151.586C206.063 151.665 205.805 151.447 205.606 151.582C204.88 152.117 205.758 153.952 204.195 153.645C204.029 153.921 204.424 154.397 203.79 155.112C203.623 155.346 203.507 155.613 203.451 155.895C203.413 156.063 203.372 156.24 203.331 156.422C203.321 156.549 203.321 156.677 203.33 156.804C203.331 157.307 203.385 157.668 202.928 157.752C202.654 157.816 202.567 157.917 202.544 157.975C202.525 158.018 202.54 158.016 202.537 158.031C202.574 158.036 202.457 158.045 202.357 158.063C202.257 158.082 202.159 158.108 202.063 158.14C201.967 158.168 201.899 158.194 201.829 158.22C202.392 158.711 202.753 159.393 202.843 160.134C202.913 160.99 202.096 161.435 201.586 162.112L201.443 162.301L199.693 162.127C199.541 162.112 199.388 162.11 199.236 162.121C198.132 162.189 197.481 161.118 197.376 160.262C197.24 159.366 197.391 158.716 196.802 157.992C196.548 157.675 196.381 157.296 196.32 156.894C196.262 156.235 196.352 155.571 196.584 154.95C196.816 154.33 197.183 153.769 197.659 153.309Z" fill="#000638"/>
<path d="M218.997 87.8969C219.512 86.9427 220.089 86.0232 220.724 85.1444C221.296 84.4146 222.248 84.6874 222.819 83.8881C223.803 82.5118 225.152 84.4475 226.248 83.1089C226.473 82.8217 226.756 82.5858 227.08 82.4168C229.083 81.445 231.224 82.0999 233.25 81.9773C233.458 81.5081 233.522 80.9949 233.73 80.5289C233.91 80.33 234.142 80.1856 234.4 80.112C234.659 80.0384 234.932 80.0384 235.19 80.1122C235.96 79.8993 236.681 79.5388 237.314 79.0507C237.968 78.6935 238.575 78.2579 239.124 77.7535C239.497 75.6565 241.548 74.6894 243.957 74.1635C244.601 74.0254 245.253 73.9314 245.91 73.8822C246.722 73.8014 247.541 73.8524 248.336 74.0334C248.87 74.1626 249.374 74.3952 249.819 74.7181C250.279 75.0513 250.672 75.4698 250.975 75.9511C251.111 76.1545 251.233 76.367 251.34 76.587C251.455 76.804 251.547 77.002 251.623 77.1772C251.702 77.3709 251.795 77.527 251.868 77.7568C251.936 77.9993 251.999 78.2499 252.056 78.5046C252.121 78.8146 252.112 79.1353 252.031 79.4414C251.989 79.6467 251.934 79.8491 251.866 80.0476C251.786 80.2424 251.693 80.4318 251.588 80.6144C251.183 81.3265 250.608 81.9271 249.914 82.3627C249.103 82.9203 248.14 83.2137 247.156 83.2029C247.08 83.2125 245.96 83.6679 244.841 84.0357C243.72 84.4109 242.593 84.7108 242.44 84.7957C242.13 84.964 241.928 85.4539 241.607 85.5356C241.175 85.6497 240.667 85.4358 240.223 85.4873C239.013 85.6349 238.053 87.3641 236.808 86.8455C236.82 86.8653 236.832 86.8859 236.843 86.9071C236.817 88.6103 237.379 90.2703 238.435 91.607C239.179 92.6807 237.778 94.1631 238.519 95.1191C238.564 95.178 238.611 95.2396 238.657 95.299C238.695 95.1371 238.723 94.9376 238.792 94.9041C238.886 94.8595 239.089 95.3192 239.156 95.0617C239.393 94.1499 239.837 94.0098 240.3 93.9519C240.575 94.1727 240.848 94.3731 241.117 94.5533C241.677 94.5352 242.488 95.2003 242.986 95.0235C243.371 94.8865 243.532 93.8213 243.923 93.6329C244.681 93.7905 245.415 94.118 246.072 93.7555C246.474 93.5353 247.112 95.386 247.466 95.1206C247.925 94.7772 248.449 94.4068 249.081 94.8951C249.324 95.168 249.504 95.4903 249.61 95.8398C249.716 96.1892 249.745 96.5576 249.695 96.9194C249.322 98.612 248.108 99.6013 247.02 98.0382C246.955 97.9432 246.925 98.2357 246.879 98.3535C246.589 99.1071 245.751 98.7229 245.292 98.8832C244.771 99.0234 244.237 99.1073 243.698 99.1337C243.488 99.1581 243.453 99.6873 243.341 99.994C243.195 100.077 243.01 99.9027 242.789 99.475C242.589 99.0541 241.278 99.243 241.264 99.4659C241.163 101.19 240.376 101.029 239.584 100.863C239.425 100.866 239.267 100.838 239.119 100.78C238.571 100.713 238.09 100.833 237.924 101.828C237.822 102.444 236.679 101.934 236.35 101.469C235.828 101.46 235.308 101.533 234.808 101.685C234.716 101.783 234.708 102.212 234.603 102.234C234.463 102.265 234.248 101.97 234.094 101.951C233.624 101.893 233.577 103.802 232.872 102.498C232.716 102.566 232.776 103.183 232.245 103.183C231.755 103.186 230.979 104.799 230.348 104.043C229.979 103.601 229.755 103.842 229.48 103.847C229.269 103.852 229.184 104.209 229.125 104.699C229.028 105.508 227.92 104.56 227.656 104.915C227.464 105.173 227.448 105.131 227.218 104.2C227.033 103.577 226.899 102.94 226.818 102.295C226.862 101.427 226.886 100.505 226.977 99.7536C227.058 99.087 227.447 99.4235 227.514 98.6857C227.632 97.4156 228.451 99.399 228.618 98.1751C228.635 97.9604 228.697 97.7518 228.801 97.5631C229.477 96.612 230.626 97.9782 231.402 97.6215C232.045 97.3253 232.672 96.9628 233.323 96.6943C233.84 96.4984 234.388 96.3932 234.941 96.3833C234.544 95.5313 234.409 94.5807 234.553 93.652C234.585 93.489 234.205 93.3802 234.011 93.2491C232.809 92.461 232.08 90.1585 231.626 88.4314L231.625 88.4293C230.376 88.9128 229.071 89.3443 228.268 88.9744C227.481 88.7425 226.645 88.7368 225.856 88.9579C225.557 89.0076 225.272 89.1211 225.021 89.2906C224.769 89.4601 224.557 89.6817 224.399 89.9404C223.706 90.8204 221.016 90.0486 220.102 90.4913C219.44 90.8135 219.415 90.7726 219.213 89.8332C218.988 89.2141 218.914 88.5503 218.997 87.8969Z" fill="#000638"/>
<path d="M175.309 46.5534C174.895 44.795 177.327 44.7202 176.97 42.8582C176.888 42.461 176.879 42.0521 176.944 41.6518C177.527 38.6875 180.081 36.8219 180.953 34.0853C181.659 31.8306 182.256 29.5505 182.831 27.2709C183.014 26.5597 183.212 25.8654 183.412 25.1776C183.325 24.8963 183.235 24.6022 183.154 24.3055C182.927 23.4392 182.643 22.589 182.302 21.7606C181.852 21.4598 181.471 21.0662 181.186 20.6061C180.9 20.1459 180.716 19.63 180.647 19.0929C180.399 17.5965 180.691 16.0608 181.469 14.7588C181.706 14.3659 181.986 14.0002 182.303 13.668C182.657 13.2912 183.069 12.9733 183.523 12.7265C184.327 12.2859 185.222 12.0394 186.138 12.0068C187.065 11.9617 187.989 12.142 188.831 12.5322C189.797 12.9929 190.577 13.7686 191.044 14.7317L191.069 14.7858L191.144 15.954C191.173 16.4836 191.294 17.0041 191.5 17.4927C191.935 18.4523 190.412 21.8057 189.707 22.415C189.666 22.4882 189.03 24.5709 188.578 26.107C188.777 26.9372 189.12 27.7261 189.592 28.4375C190.042 28.9296 190.581 29.3315 191.182 29.6216C191.794 29.884 192.367 30.2308 192.883 30.6518C193.986 32.5003 195.552 34.029 197.427 35.0869C198.636 35.651 198.317 37.7109 199.649 38.091C200.474 38.3685 201.393 38.5134 202.245 38.8117C202.36 38.8399 202.468 38.8897 202.581 38.9232C202.678 38.6911 202.761 38.453 202.827 38.2104C202.885 38.0071 202.667 37.746 202.454 37.4795C201.89 36.7789 203.253 37.0023 203.103 36.504C203.052 36.3357 202.735 36.09 202.756 35.952C202.775 35.822 203.281 35.8655 203.107 35.6404C202.874 35.3872 202.725 35.0683 202.681 34.7273C202.637 34.3863 202.7 34.04 202.86 33.736C203.205 33.554 203.532 33.3613 203.841 33.158C204.156 32.5243 205.168 31.9542 205.294 31.2839C205.397 30.7648 204.542 30.0143 204.585 29.4724C205.221 28.8014 205.637 27.9528 205.779 27.0394C205.771 26.4646 207.73 26.5989 207.661 26.0405C207.58 25.3229 207.462 24.5214 208.192 23.9758C208.525 23.801 208.9 23.7241 209.274 23.7541C209.648 23.784 210.006 23.9196 210.306 24.1451C211.687 25.3866 211.986 27.4597 210.054 28.0213C209.936 28.0547 210.179 28.2394 210.26 28.3556C210.771 29.0998 210.015 29.95 209.896 30.5939C209.74 31.3085 209.517 32.0068 209.229 32.6792C209.13 32.9462 209.563 33.2838 209.76 33.5948C209.746 33.8198 209.494 33.9477 208.999 33.9727C208.521 33.9764 207.899 35.6488 208.075 35.7942C209.381 36.8722 208.873 37.7198 208.244 38.5144C207.624 39.319 206.913 40.0764 207.817 41.1836C208.245 41.7037 207.026 42.7101 206.424 42.7764C206.043 43.3747 205.723 44.0096 205.468 44.6717C205.475 44.8411 205.798 45.1409 205.738 45.2757C205.657 45.4562 205.273 45.4971 205.138 45.6547C204.737 46.1313 206.133 47.5171 204.612 47.393C204.539 47.6122 205.043 47.9799 204.619 48.568C204.245 49.1067 204.758 51.1284 203.693 51.2659C203.074 51.3423 203.049 51.7531 202.82 52.0525C202.644 52.2817 202.823 52.6379 203.114 53.0699C203.599 53.7922 201.96 54.2429 201.976 54.7901C201.982 55.1913 201.939 55.1765 201.107 54.6988C200.523 54.4109 199.973 54.0595 199.466 53.651C198.912 52.943 198.299 52.2238 197.855 51.5742C197.46 50.9983 198.022 50.8667 197.56 50.2563C196.753 49.2139 198.823 49.8465 198.087 48.793C197.943 48.6112 197.843 48.399 197.794 48.1725C197.629 46.8302 199.519 46.6386 199.839 45.5808C200.104 44.7146 200.283 43.8145 200.545 42.9567C200.609 42.7446 200.684 42.536 200.771 42.332C200.269 42.2619 199.774 42.1517 199.289 42.0024C198.393 41.7822 197.551 41.3801 196.817 40.8211C196.082 40.262 195.47 39.558 195.019 38.7526C194.945 38.5774 194.503 38.6263 194.225 38.5727C193.227 38.2907 192.317 37.7596 191.58 37.0292C190.756 36.2681 189.997 35.4327 189.363 34.799C188.646 34.11 187.981 33.3693 187.373 32.583C187.322 32.5093 187.27 32.4371 187.219 32.3638C187.238 33.3622 187.188 34.3176 186.117 34.7968C185.943 35.3701 186.415 35.8588 185.615 37.5393C184.893 39.071 184.546 43.3463 183.014 44.4031C182.298 45.0733 181.74 45.893 181.378 46.8037C181.049 47.4376 180.962 48.1693 181.133 48.8625C181.345 50.1247 178.763 52.2668 178.369 53.435C178.09 54.3007 178.039 54.2986 177.196 53.8379C176.57 53.6177 176.02 53.2226 175.612 52.6994C175.331 51.5407 174.988 50.4001 174.821 49.2786C174.659 48.2805 175.549 47.591 175.309 46.5534Z" fill="#80829B"/>
<path d="M117.506 39.5401C117.068 39.2883 116.694 38.9384 116.414 38.5178C116.134 38.0973 115.955 37.6175 115.891 37.1161C115.785 36.4932 115.781 35.8572 115.879 35.233C115.951 34.7454 116.087 34.2696 116.285 33.8185C116.359 33.6476 116.446 33.4831 116.546 33.3265C116.671 33.1203 116.818 32.9283 116.984 32.7538C117.09 32.6445 117.202 32.5414 117.32 32.4449C117.406 32.3673 117.501 32.3003 117.603 32.2453L117.965 32.066C118.207 31.9525 118.455 31.8519 118.708 31.7645C119.023 31.6925 119.344 31.6442 119.666 31.6201C119.991 31.5959 120.317 31.6248 120.632 31.7056C120.935 31.7563 121.228 31.8558 121.5 32.0001C121.745 32.1271 121.982 32.2675 122.211 32.4205L122.704 32.8658C122.976 33.1318 123.227 33.4182 123.455 33.7225C124.056 34.6854 124.815 35.5399 125.701 36.2499C126.228 36.9093 126.495 37.7389 126.453 38.582C126.525 39.4058 126.406 40.2352 126.106 41.0055C126.096 41.2688 126.1 41.5324 126.118 41.7953C126.135 42.2883 126.124 42.8016 126.122 43.335C126.119 44.405 126.115 45.5016 126.15 45.6603C126.224 45.9824 126.641 46.2855 126.641 46.5976C126.635 46.6485 126.626 46.6989 126.613 46.7483C127.41 47.4507 128.443 47.8275 129.505 47.804C130.451 47.7621 130.991 49.7031 132.071 49.4334C132.254 49.3851 132.437 49.3331 132.622 49.2806C132.798 49.0688 133.287 48.8936 133.093 48.6415C132.992 48.5088 132.611 48.382 132.589 48.2546C132.569 48.1336 133.065 48.0306 132.832 47.8804C132.539 47.7338 132.302 47.4948 132.159 47.2002C132.015 46.9057 131.973 46.5721 132.038 46.251C132.32 45.9968 132.581 45.7406 132.822 45.4825C132.942 44.8344 133.787 44.0908 133.738 43.4694C133.7 42.9869 132.708 42.4986 132.621 41.9965C133.084 41.2711 133.31 40.4201 133.269 39.5608C133.155 39.0374 135.106 38.8304 134.936 38.3474C134.716 37.7227 134.487 37.0152 135.116 36.4277C135.428 36.2279 135.786 36.111 136.155 36.0883C136.525 36.0655 136.895 36.1376 137.229 36.2977C138.777 37.2079 139.437 38.884 137.654 39.6892C137.546 39.7375 137.822 39.8553 137.925 39.9413C138.584 40.4885 138.005 41.3431 138.047 41.9163C138.055 42.5538 138.005 43.1906 137.897 43.8191C137.87 44.0669 138.374 44.2575 138.643 44.474C138.687 44.6656 138.473 44.8275 138.005 44.9602C137.547 45.0706 137.407 46.6315 137.62 46.7096C140.768 47.8693 136.615 49.9525 139.086 51.2195C139.658 51.5124 138.882 52.6806 138.351 52.9269C138.213 53.5278 138.156 54.1442 138.18 54.7601C138.252 54.8934 138.665 55.025 138.662 55.1518C138.657 55.3222 138.318 55.4846 138.262 55.6561C138.09 56.1805 139.929 56.7765 138.49 57.2154C138.518 57.415 139.131 57.5217 139.001 58.1315C138.882 58.6952 140.255 60.0455 139.367 60.5555C138.848 60.8544 139.025 61.1797 138.963 61.4971C138.915 61.7418 139.241 61.9408 139.701 62.1478C140.461 62.4891 139.269 63.4933 139.548 63.8972C139.751 64.1912 139.707 64.1982 138.747 64.1976C138.098 64.2329 137.447 64.2055 136.802 64.1159C135.971 63.8181 135.084 63.5283 134.378 63.2104C133.752 62.928 134.174 62.5767 133.476 62.289C132.273 61.7933 134.398 61.4159 133.253 60.8761C133.043 60.7914 132.856 60.6598 132.705 60.4913C131.95 59.4447 133.557 58.5127 133.402 57.5196C133.273 56.6959 133.077 55.8721 132.977 55.0484C132.915 54.403 132.946 53.7521 133.071 53.1159C132.361 53.2854 131.622 53.2872 130.911 53.1213C130.2 52.9554 129.537 52.6263 128.976 52.16C128.856 52.0411 128.532 52.2948 128.293 52.3558C127.737 52.4888 127.157 52.483 126.604 52.3389C126.806 52.8398 126.854 53.3898 126.74 53.9179C126.548 55.2835 127.586 58.7059 126.528 59.8948C126.084 60.5687 125.835 61.3521 125.809 62.1584C125.766 62.4561 125.787 62.7595 125.871 63.0483C125.955 63.3372 126.099 63.6048 126.294 63.8335C126.443 64.1152 126.48 64.4424 126.399 64.7501C126.362 64.9466 126.313 65.1405 126.252 65.3308C126.148 65.7018 126.021 66.0656 125.869 66.4199C125.632 66.986 125.316 67.516 124.932 67.9947C124.359 68.7077 123.602 69.2512 122.743 69.5668C122.616 69.6103 122.56 69.6331 122.375 69.6846C122.183 69.7365 121.987 69.7766 121.789 69.8046C121.409 69.8565 121.024 69.8567 120.644 69.8051C120.313 69.7575 119.989 69.6738 119.677 69.5556C119.424 69.4554 119.179 69.334 118.946 69.1926C118.305 68.792 117.76 68.2552 117.35 67.6205C116.816 66.8326 116.575 65.883 116.668 64.9359C116.692 64.6765 116.743 64.4205 116.822 64.1721C116.892 63.9385 116.985 63.7124 117.1 63.497C117.291 63.1383 117.542 62.8154 117.843 62.5427C118.124 62.2482 118.509 62.0746 118.915 62.0586C119.132 62.1111 119.324 62.2348 119.462 62.41C119.585 62.4382 119.702 62.4843 119.811 62.547C119.948 61.7482 121.07 61.1367 120.337 60.0901C120.126 59.8123 119.979 59.4921 119.905 59.1517C119.459 56.7012 121.248 54.6514 121.228 52.3176C121.216 51.2073 121.16 50.1001 121.096 48.9945C121.061 48.9521 121.02 48.9085 120.989 48.8671C120.449 48.1473 119.997 47.3652 119.644 46.5376C119.377 45.9474 118.726 45.7288 118.26 45.3153C118.145 45.0897 118.096 44.8363 118.118 44.5842C118.141 44.3321 118.233 44.0912 118.386 43.8892C118.443 43.1204 118.347 42.3479 118.102 41.617C117.987 40.9034 117.787 40.2061 117.506 39.5401ZM120.86 65.0277C120.753 64.9358 120.639 64.8532 120.518 64.781C120.472 64.7607 120.431 64.7285 120.401 64.6876C120.365 64.6017 120.35 64.5083 120.357 64.4153C120.353 64.2553 120.338 64.0957 120.312 63.9376C120.279 63.7864 120.221 63.6417 120.14 63.5098C120.092 63.7683 120.006 64.0406 119.925 64.3999C119.835 64.5309 119.777 64.6811 119.755 64.8385C119.734 64.996 119.75 65.1562 119.802 65.3065C119.871 65.4907 120.005 65.6435 120.178 65.7369C120.298 65.8064 120.433 65.8471 120.572 65.8558C120.71 65.8646 120.849 65.8411 120.977 65.7873C121.055 65.7524 121.118 65.6906 121.154 65.6133L121.024 65.2136L121.014 65.1971C120.969 65.1349 120.918 65.078 120.86 65.0277V65.0277ZM119.449 34.956C119.439 34.9416 119.419 34.914 119.391 34.8748L119.449 34.956ZM119.386 34.8679L119.347 34.8143V34.8148L119.348 34.8164L119.356 34.8286L119.371 34.8515L119.386 34.8679ZM119.386 34.8679L119.387 34.8685C119.105 34.4771 119.27 34.707 119.386 34.8678V34.8679ZM119.206 36.7638C119.194 36.7702 119.179 36.7686 119.168 36.7776L119.136 36.8264C119.117 36.8507 119.175 36.7934 119.206 36.7637L119.206 36.7638Z" fill="#000638"/>
<path d="M167.124 100.271C167.094 98.8056 168.933 100.086 168.984 98.6113C168.982 98.3209 169.048 98.0339 169.177 97.7738C169.961 96.3933 171.621 96.2712 172.863 95.5971L172.861 95.5754C172.88 95.016 172.395 94.5749 172.194 94.0447C172.208 93.8155 172.295 93.5968 172.443 93.4215C172.591 93.2462 172.792 93.1238 173.016 93.0728C173.262 92.9953 173.614 92.196 173.973 91.4508C174.26 90.9526 174.478 90.4174 174.62 89.8601C173.758 88.1357 174.924 86.6013 176.753 85.5031C177.265 85.1966 177.811 84.9491 178.379 84.7654C179.13 84.4938 179.938 84.416 180.727 84.5393C181.516 84.6626 182.261 84.983 182.894 85.4708C183.505 85.896 184.064 86.3914 184.56 86.9468C184.708 87.1237 184.815 87.331 184.874 87.554C184.972 87.8475 185.021 88.1552 185.019 88.4648C185.032 88.7943 184.997 89.1239 184.916 89.4435C184.853 89.7449 184.751 90.0368 184.613 90.3118C184.305 91.0568 183.737 91.6645 183.015 92.0214C182.958 92.0437 182.422 92.8313 181.842 93.4937C181.27 94.18 180.669 94.8063 180.611 94.9263C180.494 95.1683 180.628 95.6221 180.456 95.8031C180.224 96.0477 179.754 96.0345 179.484 96.2303C179.049 96.5366 178.969 97.2722 178.746 97.8221C178.858 98.7169 179.302 99.5372 179.989 100.121C180.578 100.585 179.533 102.256 180.268 102.678C180.61 102.864 180.962 103.055 181.305 103.262C181.303 103.249 181.316 103.25 181.306 103.227C180.929 102.407 181.144 102.132 181.416 101.902C181.732 101.966 182.035 102.015 182.325 102.046C182.69 101.811 183.637 101.982 183.863 101.633C184.04 101.364 183.472 100.476 183.607 100.169C184.205 99.9706 184.889 99.883 185.083 99.3215C185.194 98.9791 186.823 100.056 186.882 99.6898C186.96 99.2217 187.039 98.7005 187.778 98.7509C188.485 98.9201 189.109 99.3332 189.541 99.9175C190.439 101.338 190.239 102.727 188.491 102.082C188.385 102.043 188.553 102.278 188.598 102.389C188.879 103.1 188.062 103.224 187.842 103.561C187.569 103.919 187.247 104.237 186.885 104.505C186.753 104.62 187.051 105.051 187.157 105.345C187.104 105.478 186.868 105.428 186.454 105.192C186.057 104.951 185.244 105.684 185.365 105.867C187.137 108.614 183.117 106.872 184.269 109.221C184.532 109.779 183.392 109.829 182.9 109.568C182.509 109.768 182.156 110.034 181.856 110.355C181.838 110.473 182.054 110.84 181.986 110.901C181.896 110.982 181.582 110.814 181.455 110.854C181.071 110.977 181.991 112.635 180.8 111.779C180.714 111.894 181.064 112.404 180.652 112.599C180.284 112.779 180.433 114.464 179.581 114.027C179.087 113.769 179.021 114.052 178.807 114.151C178.643 114.227 178.739 114.571 178.912 115.025C179.199 115.782 177.885 115.301 177.834 115.703C177.792 115.998 177.761 115.965 177.176 115.205C176.76 114.706 176.378 114.18 176.033 113.629C175.687 112.841 175.296 112.016 175.027 111.327C174.786 110.716 175.23 110.901 174.941 110.234C174.436 109.089 175.964 110.578 175.513 109.462C175.426 109.278 175.373 109.08 175.356 108.877C175.382 107.855 176.879 108.678 177.266 108.115C177.582 107.653 177.842 107.136 178.163 106.692C178.314 106.486 178.497 106.305 178.705 106.155C178.606 106.102 178.5 106.064 178.405 106.004C177.873 105.712 177.432 105.278 177.13 104.752C176.828 104.225 176.677 103.625 176.693 103.018C176.704 102.878 176.353 102.896 176.166 102.836C175.675 102.652 175.259 102.309 174.987 101.86C174.466 102.526 173.895 103.085 173.272 103.03C172.506 102.964 172.141 103.464 171.632 103.766C171.241 103.997 171.148 104.474 171.119 105.063C171.071 106.047 168.838 106.175 168.394 106.821C168.067 107.295 168.03 107.266 167.467 106.489C167.032 106 166.686 105.439 166.445 104.831C166.4 103.851 166.3 102.838 166.341 101.945C166.375 101.153 167.135 101.126 167.124 100.271Z" fill="#006ADC"/>
<path d="M69.0509 60.7313C69.0797 59.8462 69.212 58.9674 69.4453 58.1131C69.6213 57.6071 69.9404 57.1629 70.3637 56.8345C70.7871 56.5062 71.2966 56.3076 71.8305 56.2628C72.7269 56.1604 73.4435 56.3457 74.1743 56.2315C74.6791 56.1519 75.1753 55.8494 75.6265 55.9311C76.0527 56.0139 76.2448 56.5909 76.7395 56.5298C77.5998 56.4422 78.4672 56.605 79.2373 56.9985C79.4304 57.0954 79.6183 57.2022 79.8004 57.3185C79.9613 57.4199 80.0668 57.4937 80.1985 57.5892C80.449 57.7712 80.6899 57.9671 80.9277 58.1672C81.2138 58.75 81.4978 59.3248 81.795 59.8778C82.8326 60.9086 83.4807 62.6595 84.4684 63.5762C85.228 64.2938 86.6711 64.3744 87.481 65.1663C88.2892 66.8051 89.244 68.3673 90.3339 69.8338C91.0923 70.7271 89.7553 72.2302 90.4374 72.9993C91.1897 73.7604 91.7735 74.6712 92.1507 75.6727C92.5314 76.0275 92.8339 76.458 93.0386 76.9365C93.2345 77.3425 93.4335 77.7544 93.6108 78.1217C93.7302 78.4457 93.9081 78.7451 94.1357 79.0048C94.702 79.5499 94.6744 79.5966 93.848 80.0818C93.3255 80.4829 92.7215 80.7648 92.0785 80.9076C91.0095 80.7717 90.0032 80.7431 89.0744 80.689C88.2517 80.6544 88.2103 79.8498 87.3117 79.939C86.5639 80.0207 86.505 79.5717 86.3457 79.1152C86.1992 78.6609 86.0607 78.1535 85.2943 78.2644C84.9949 78.3189 84.6871 78.3046 84.3941 78.2225C82.4425 77.5872 81.8141 75.2078 80.0169 74.1436C78.5398 73.2737 76.973 72.4277 75.472 71.3375C73.9396 70.2202 72.6133 68.8449 71.5523 67.2729C71.2653 66.8861 71.0036 66.4812 70.7689 66.0607C70.5163 65.6175 70.2812 65.2889 70.0115 64.755C69.729 64.2126 69.4973 63.6453 69.3194 63.0603C69.0835 62.3079 68.9924 61.5176 69.0509 60.7313ZM75.8446 64.307C75.9211 64.4657 76.0151 64.6152 76.1249 64.7529C76.3266 64.9843 76.5919 65.2895 76.861 65.5984C77.2669 66.0491 77.7099 66.4649 78.1853 66.8414C78.4305 66.9513 78.887 66.782 79.0743 66.9375C79.3301 67.1455 79.3646 67.619 79.6072 67.8695C80.3481 68.645 82.3396 67.8074 82.2796 69.5202C82.6368 69.7346 83.1452 69.3386 84.1213 70.1783C84.2937 70.3124 84.4811 70.4261 84.6797 70.517C84.3663 69.9785 84.0088 69.467 83.6107 68.9878C82.7764 68.0829 81.9484 67.0261 81.1066 66.1074C80.768 65.7406 80.1603 65.8447 79.6645 65.764C79.5062 65.6267 79.393 65.4448 79.3399 65.2421C79.2868 65.0395 79.2961 64.8254 79.3668 64.6282C79.5159 64.1181 77.1567 61.9956 76.8844 62.1044C76.4078 62.2356 75.9173 62.3093 75.4232 62.3241C75.6807 62.9547 75.8234 63.6262 75.8446 64.307Z" fill="#80829B"/>
<path d="M91.1843 84.8211C91.61 84.1468 92.1715 83.5686 92.8329 83.1232C93.452 82.7249 94.1176 82.4039 94.8147 82.1673C96.0974 81.8129 97.3468 81.3472 98.5486 80.7756C99.048 80.6238 99.5861 80.6639 100.057 80.8881C100.725 81.1411 101.327 81.5413 101.819 82.0589C102.265 82.5043 102.572 83.0707 102.7 83.6883C102.695 83.7287 102.902 83.9734 103.126 84.3783C103.406 84.8526 103.629 85.3579 103.79 85.8841C104.027 86.6851 104.153 87.5148 104.163 88.35C104.235 88.6918 104.611 89.0761 104.551 89.4429C104.464 89.9344 104.011 90.3144 103.786 90.7374C103.437 91.377 103.41 92.2686 103.004 93.0929C102.854 93.5313 102.541 93.8951 102.129 94.1092C101.718 94.3232 101.241 94.3712 100.795 94.2431C100.496 94.3821 100.33 94.6257 99.9009 94.8726C99.5258 95.0695 99.1141 95.1869 98.6916 95.2176C98.269 95.2483 97.8447 95.1915 97.4451 95.0509L97.4233 95.0615L97.3756 95.0339C97.3522 95.0275 97.3326 95.0244 97.3087 95.0175C97.0079 94.9182 96.7125 94.803 96.4239 94.6725C96.215 94.5781 96.014 94.4673 95.8225 94.3413C95.7625 94.3211 95.6999 94.3062 95.641 94.2845C95.4561 94.2129 95.2584 94.1805 95.0603 94.1895C94.6228 94.2169 94.1837 94.2098 93.7473 94.1682C93.5111 94.0368 93.3232 93.8332 93.2111 93.5873C93.0991 93.3413 93.0688 93.066 93.1247 92.8015C92.8901 92.1083 92.6072 91.4324 92.2781 90.7788C91.9315 89.8808 91.775 88.9503 91.672 88.8696C91.3763 88.6784 91.128 88.4224 90.946 88.1209C90.764 87.8195 90.6531 87.4805 90.6216 87.1298C90.5642 86.3204 90.761 85.5133 91.1843 84.8211Z" fill="#80829B"/>
<path d="M9.24353 49.1439C9.43413 49.0135 9.56785 48.8154 9.61745 48.5898C9.66705 48.3643 9.62881 48.1284 9.5105 47.93C9.35723 47.6821 9.28465 47.3928 9.30281 47.1019C9.32096 46.8109 9.42896 46.5328 9.61188 46.3059C9.9022 45.9487 10.2053 45.6488 10.149 45.1531C10.1264 44.7622 10.1909 44.3712 10.338 44.0083C10.485 43.6455 10.7109 43.3198 10.9993 43.055C11.3257 42.6304 11.667 42.2392 11.9886 41.8353C12.3012 41.4054 12.5631 40.941 12.7694 40.4511C12.9777 39.9282 13.2785 39.4471 13.6573 39.0308C13.9965 38.5797 14.4216 38.1662 14.7884 37.6731C15.0705 37.3061 15.4026 36.9804 15.7751 36.7056C15.9389 36.5722 16.113 36.4518 16.2957 36.3457C16.4591 36.2491 16.6272 36.1609 16.7994 36.0814C17.5578 35.6291 18.4113 35.36 19.2919 35.2953C20.2128 35.3484 20.7908 34.3028 21.7318 34.2571C22.0694 34.2375 22.4 34.1292 22.7381 34.0793C24.4551 33.8631 26.1923 33.8625 27.9093 34.0778C28.7708 34.1862 29.6242 34.3515 30.4639 34.5724L30.4941 34.5809C30.5212 34.4902 30.5424 34.3989 30.5706 34.3081C30.7436 33.7704 30.483 33.1197 30.6794 32.6086C30.8959 31.9802 31.6586 31.5948 31.9925 31.0296C32.9642 29.4782 34.1548 28.0977 35.2874 26.4735C35.7248 25.8998 35.7874 24.817 36.6647 24.6695C37.4784 24.5171 37.8266 23.5761 38.714 23.5957C38.9412 23.6149 39.1418 23.3187 39.3424 23.1382C39.9199 22.5958 40.6349 22.8368 41.2739 23.238C41.6433 23.4604 42.001 23.7014 42.3407 23.341C42.9282 22.7306 43.7355 22.7248 44.4425 22.4583C45.6426 21.9913 47.0013 21.6112 48.0108 22.6866C48.0538 22.7324 48.1096 22.7643 48.1708 22.7782C48.2321 22.7921 48.2962 22.7874 48.3547 22.7646C49.1763 22.3283 49.7029 22.987 50.2878 23.3437C50.7281 23.6181 51.197 23.8436 51.6863 24.0162C52.2161 24.1699 52.7701 24.2228 53.3195 24.1722C53.7567 24.1116 54.201 24.2123 54.5693 24.4556C54.9375 24.6988 55.2046 25.0679 55.3204 25.4938C55.7811 26.8738 57.081 27.3414 57.3989 28.6869C57.5735 29.3784 58.5146 29.3333 59.0692 29.7399C60.5946 30.9739 61.1381 32.8809 62.7431 34.1824C62.8827 34.3039 62.7882 34.6669 62.6582 34.8967C62.2564 35.6085 62.1142 36.0639 63.3285 35.9832C63.4628 35.9742 63.646 36.0756 63.6629 36.169C63.8685 37.0668 64.1818 37.9364 64.596 38.7591C64.8455 39.5505 64.9436 40.3819 64.8853 41.2096C64.8863 41.3253 64.8534 41.5228 64.7653 41.5482C64.25 41.6921 63.2224 41.3911 63.5149 42.1878C63.7157 42.5997 63.8802 43.0285 64.0063 43.4691C64.2298 44.4961 62.923 45.4891 61.4757 45.5008C60.2732 45.5313 59.0734 45.3737 57.9196 45.0338C57.661 44.9731 57.4243 44.8419 57.2359 44.6548C57.0824 44.3925 57.0038 44.093 57.0088 43.7891C57.0355 43.4594 57.0884 43.1323 57.1669 42.8109C57.2112 42.4814 57.1942 42.1466 57.117 41.8232C56.6635 40.0168 56.0135 38.2654 55.1787 36.6005C54.5269 35.5368 53.8911 34.3198 52.5254 33.9557C52.43 33.7214 52.2809 33.5127 52.0902 33.3464C51.8995 33.1801 51.6724 33.0608 51.4273 32.9982C51.25 31.7616 50.1588 31.596 49.4566 30.9866C48.7432 30.4676 47.8765 30.3704 47.2465 29.4097C47.0973 29.1842 46.8389 29.1964 46.6234 29.1449C45.6513 28.8933 44.6399 28.8308 43.6442 28.9607C43.1563 28.9799 42.6837 29.136 42.2803 29.4111C41.8769 29.6862 41.559 30.0692 41.363 30.5164C41.2675 30.7652 41.0898 30.9738 40.8593 31.1076C40.5678 31.501 40.1441 31.7762 39.6661 31.8826C39.0138 31.9972 39.4337 32.9223 38.9724 33.1967C38.7692 33.3156 38.6566 33.5099 38.4289 33.6224C38.3227 33.6723 38.2349 33.7543 38.1781 33.857C38.1212 33.9596 38.0981 34.0775 38.1121 34.194C38.1763 34.5973 38.1578 35.0093 38.0579 35.4052C37.7663 36.0552 37.6207 36.7613 37.6312 37.4736C38.4492 38.1977 39.4741 38.6461 40.561 38.7554C40.6179 38.7553 40.674 38.7694 40.724 38.7965C40.7741 38.8235 40.8166 38.8627 40.8476 38.9104C41.4214 39.94 42.6894 40.0388 43.5094 40.7776C44.3085 41.4339 45.0244 42.1856 45.6409 43.0158C46.3247 44.078 46.8507 45.2339 47.2024 46.4472C47.4696 47.2035 47.6668 47.9827 47.7916 48.7751C47.9349 49.7262 47.8342 50.6982 47.4992 51.5998C46.7917 53.4123 46.1834 55.5836 44.2398 56.5024C43.4712 56.8983 42.6449 57.17 41.7914 57.3076C41.5184 57.3575 41.2366 57.3221 40.9844 57.2062C40.7321 57.0904 40.5217 56.8997 40.3817 56.6601C40.1811 56.3007 39.9369 56.099 39.6614 56.2079C39.0405 56.4989 38.3354 56.5561 37.6757 56.369C37.016 56.1819 36.446 55.763 36.0703 55.1894C35.9832 55.0898 35.8704 55.016 35.7443 54.9759C35.6182 54.9359 35.4835 54.9311 35.3548 54.9622C35.0128 55.0945 34.6349 55.1015 34.2882 54.9819C33.9415 54.8623 33.6483 54.6239 33.4606 54.3088C32.751 52.998 31.8377 51.8082 30.7547 50.784C30.1678 50.3068 30.4634 49.5675 29.9782 49.1042C29.5133 48.6021 29.9416 47.8733 29.8333 47.3128C29.7715 46.852 29.7355 46.3881 29.7256 45.9233C29.568 45.3667 29.6081 44.7727 29.8392 44.2423C30.164 43.7111 29.4608 43.1835 30.0021 42.6575C30.0749 42.5722 30.1182 42.4657 30.1257 42.3539C30.1332 42.242 30.1043 42.1307 30.0435 42.0365C29.92 41.8417 29.8215 41.6322 29.75 41.4129C29.4363 41.283 29.0859 41.2724 28.765 41.3832C28.6871 41.4121 28.6042 41.4253 28.5212 41.422C28.4382 41.4187 28.3566 41.3989 28.2813 41.3639C28.206 41.3288 28.1383 41.2792 28.0823 41.2178C28.0263 41.1564 27.9831 41.0845 27.955 41.0063C27.8733 40.8444 27.7194 40.6804 27.6031 40.7823C27.0278 41.2972 26.6 41.0923 26.1059 41.0095C25.322 40.8805 24.5224 40.8794 23.7381 41.0063C23.0909 41.264 22.3798 41.3155 21.7021 41.1539C21.4161 41.0514 21.2972 41.3731 21.104 41.4962C20.7659 41.6963 20.4904 42.1262 20.0817 42.0201C19.4453 41.8481 19.0197 42.4765 18.5993 42.2727C17.886 42.0594 17.282 42.5577 17.3212 43.4537C17.3295 43.6455 17.2962 43.8369 17.2237 44.0147C17.1511 44.1925 17.041 44.3526 16.9009 44.4839C16.5722 44.8562 16.2959 45.2718 16.0798 45.7189C15.9805 45.9446 15.9042 46.1797 15.8521 46.4206C15.832 46.7081 15.8975 46.9952 16.0405 47.2454C16.1049 47.3285 16.1345 47.4333 16.1231 47.5377C16.1117 47.6422 16.0602 47.7381 15.9795 47.8054C15.5237 48.0704 15.1796 48.4919 15.0114 48.9916C14.927 49.219 14.8689 49.4553 14.8383 49.6959L14.8474 50.4135C14.8392 50.6698 14.8725 50.9258 14.9461 51.1714C14.9997 51.4215 15.0464 51.6709 15.0793 51.923C15.1791 52.2006 15.3081 52.4697 15.4009 52.7457C15.4486 52.8841 15.4859 53.0258 15.5124 53.1698C15.5703 53.3124 15.6105 53.4616 15.6324 53.614C15.7279 54.2223 16.5681 54.2956 16.9088 54.7451C17.1822 55.1192 17.188 55.727 17.9911 55.7158C17.965 56.487 18.7203 56.5958 19.1518 56.9647C19.6117 57.2873 19.9594 57.7454 20.1464 58.2752C20.2295 58.4922 20.3666 58.6846 20.5447 58.8339C20.7229 58.9832 20.9361 59.0847 21.1644 59.1286C22.6258 59.5291 23.9353 60.3549 24.9264 61.5011C25.0177 61.5873 25.129 61.6497 25.2502 61.6825C25.3714 61.7154 25.4988 61.7178 25.6212 61.6895C26.2147 61.6188 26.8157 61.7288 27.3456 62.0053C27.8021 62.1858 28.0765 62.888 28.672 62.7256C29.3004 62.5419 29.5196 63.3376 29.966 63.6385C30.8863 64.1355 31.9098 64.4112 32.9552 64.4436C33.6628 64.6501 34.5369 64.9049 35.4121 65.1602C35.7778 65.2658 35.8739 65.6341 35.6865 66.133C35.4472 66.7636 35.2073 67.3957 34.9684 68.0241C34.8513 68.4494 34.5928 68.8221 34.2354 69.0809C33.84 69.3266 33.4011 69.7698 33.0476 69.7438C32.0912 69.6742 31.0673 70.0872 30.095 70.0357C29.7016 70.0396 29.3218 69.8922 29.0341 69.6239C28.7464 69.3555 28.5728 68.9869 28.5494 68.5942C28.4693 68.1743 28.3201 67.8946 27.9295 68.0724C27.7442 68.1595 27.5335 68.1764 27.3367 68.1198C27.1399 68.0633 26.9703 67.9373 26.8595 67.7651C26.3929 67.1707 25.928 66.6059 25.4514 66.0868C25.376 66.0045 25.0575 66.2609 24.8824 66.461C24.5565 66.8378 24.2449 67.0958 23.9631 66.919C22.6529 65.951 21.1771 65.2302 19.6082 64.7918C19.2349 64.6499 18.8795 64.4646 18.5494 64.2398C17.9889 63.9213 17.4926 63.5026 16.9443 63.1592C16.4035 62.7501 15.7771 62.4687 15.1121 62.336C14.8546 62.2707 14.6186 62.1394 14.4272 61.9551C14.2359 61.7708 14.0959 61.5399 14.0209 61.285C13.7311 60.6226 13.2345 60.072 12.6054 59.7156C12.0465 59.2788 11.8841 58.4906 11.2896 57.9991C10.6739 57.5288 10.5991 56.6473 10.1846 56.0114C10.068 55.7588 10.0277 55.4777 10.0683 55.2025C10.1005 55.0658 10.0982 54.9233 10.0617 54.7877C10.0252 54.652 9.95563 54.5276 9.85921 54.4255C9.39957 53.9759 9.53492 53.399 9.76951 52.8385C10.0577 52.1947 8.82794 51.7212 9.44097 50.9962C9.56464 50.8694 9.3826 50.5976 9.24831 50.414C9.08944 50.2409 9.00089 50.0148 9.00001 49.7798C8.99913 49.5449 9.08597 49.3181 9.24353 49.1439ZM39.0808 49.6603C39.0914 49.706 39.1014 49.7452 39.1121 49.7946C39.1212 49.8321 39.1411 49.866 39.1694 49.8923C39.1769 49.8851 39.1824 49.8761 39.1853 49.8661C39.1883 49.8562 39.1887 49.8456 39.1864 49.8355C39.175 49.7657 39.1372 49.7029 39.0808 49.6603ZM40.5037 50.1375L40.4995 50.1322L40.5 50.1327L40.5037 50.1375ZM40.2909 49.8774L40.2914 49.8711L40.2447 49.8116L40.2458 49.8143L40.25 49.8206L40.2675 49.8461L40.2909 49.8774ZM40.5032 50.1375H40.5037L40.5 50.1333L40.5005 50.1338L40.5032 50.1375ZM40.2564 50.0372L40.06 49.9953C40.1333 50.1083 40.2097 50.1614 40.2564 50.0372V50.0372ZM39.3695 49.9581C39.3801 49.9528 39.3907 49.9417 39.4019 49.9348C39.335 49.9321 39.2671 49.9252 39.2023 49.9273L39.1906 49.9279C39.2146 49.9491 39.2441 49.9632 39.2757 49.9685C39.3074 49.9739 39.3398 49.9703 39.3695 49.9581V49.9581ZM39.1206 49.9348C39.1259 49.9369 39.1264 49.9321 39.1291 49.9305L39.1099 49.9316L39.1206 49.9348ZM36.6695 46.8091C36.6188 46.9487 36.6014 47.0982 36.6187 47.2456C36.636 47.3931 36.6876 47.5345 36.7693 47.6585C36.851 47.7825 36.9605 47.8857 37.0891 47.9599C37.2178 48.034 37.362 48.0771 37.5102 48.0856C37.7549 48.1286 38.0028 48.1381 38.0919 48.2565C38.1798 48.3773 38.2868 48.4829 38.4088 48.5691C38.5112 48.6747 38.6238 48.749 38.7182 48.8409C38.7506 48.8817 38.7766 48.9327 38.8069 48.9751C38.8209 48.92 38.8377 48.8656 38.8573 48.8122C39.042 48.1912 38.7798 47.5899 38.0638 47.6387C38.0075 47.6435 37.9985 47.5453 38.0362 47.4524C38.5409 46.574 38.0373 46.5453 37.6333 46.4047C37.3313 46.2884 37.1907 45.944 37.0219 45.6489C36.9354 45.4997 36.8441 45.3527 36.7454 45.2142C36.7395 45.2435 36.7312 45.2723 36.7204 45.3001C36.4593 45.8548 36.7762 46.2846 36.6695 46.8091V46.8091Z" fill="#006ADC"/>
<path d="M210.006 215.926C210.262 215.266 210.614 214.647 211.05 214.089C211.674 213.28 212.508 212.659 213.462 212.294C214.239 211.965 215.113 211.953 215.899 212.261C216.32 212.474 216.366 212.714 216.136 212.937C215.564 213.451 215.162 214.126 214.983 214.874C214.865 215.435 214.69 215.887 214.598 216.298C214.464 216.854 214.784 217.41 214.708 217.804C214.627 218.247 214.69 218.704 214.886 219.11L215.401 220.228L215.632 220.769C215.73 220.943 215.821 221.117 215.901 221.294C216.133 221.727 216.255 222.21 216.255 222.701C216.256 223.192 216.136 223.676 215.906 224.11C215.842 224.199 215.797 224.301 215.777 224.409C215.756 224.518 215.759 224.629 215.786 224.736C215.812 224.843 215.862 224.942 215.931 225.028C216 225.113 216.088 225.183 216.186 225.231C216.436 225.372 216.648 225.572 216.804 225.812C216.98 226.048 217.106 226.318 217.173 226.604C217.434 227.648 217.849 228.646 218.403 229.568C218.499 229.714 218.992 229.668 219.261 229.568C219.767 229.382 220.208 229.285 220.55 229.64C221.092 230.135 221.659 230.601 222.249 231.037C222.709 231.349 223.185 231.637 223.675 231.9C224.742 232.378 225.87 232.704 227.027 232.871C227.6 232.988 228.182 233.097 228.752 233.231C230.586 233.565 232.523 234.007 234.311 233.156C234.977 232.919 235.695 232.871 236.386 233.017C237.368 233.132 238.361 232.937 239.226 232.46C240.158 232.21 241.067 231.88 241.942 231.475C242.747 230.927 243.768 230.728 244.577 230.167C245.156 229.786 246.036 229.974 246.442 229.292C246.842 228.619 247.522 228.501 248.238 228.288C249.105 228.004 248.839 226.677 249.866 226.48C250.057 226.435 250.165 226.049 250.181 225.777C250.189 225.499 250.273 225.228 250.425 224.995C250.576 224.762 250.789 224.575 251.04 224.454C251.295 224.378 251.512 224.207 251.645 223.976C251.779 223.746 251.819 223.473 251.758 223.214C251.607 222.538 251.72 221.83 252.074 221.235C252.258 221.02 252.394 220.768 252.472 220.495C252.55 220.223 252.568 219.937 252.526 219.657C252.352 218.655 252.407 217.627 252.688 216.651C252.71 216.523 252.729 216.395 252.748 216.267C252.655 216.238 252.566 216.218 252.472 216.188C251.638 215.944 250.827 215.625 250.049 215.237C249.096 214.756 248.279 214.041 247.676 213.16C246.951 212.378 246.372 211.471 245.969 210.483C245.821 209.89 245.77 209.277 245.818 208.668C245.848 208.364 245.897 208.062 245.963 207.765C246.034 207.513 246.123 207.267 246.228 207.027C246.322 206.798 246.433 206.575 246.561 206.362C246.673 206.195 246.792 206.033 246.916 205.881C247.037 205.732 247.166 205.591 247.303 205.457C247.42 205.361 247.545 205.274 247.676 205.198C248.533 204.598 249.457 204.102 250.43 203.72C250.785 203.61 251.151 203.538 251.521 203.504C251.94 203.474 252.361 203.501 252.773 203.585C253.542 203.743 254.245 204.131 254.788 204.697C255.539 205.633 256.111 206.699 256.474 207.843C256.782 208.659 257.171 209.442 257.636 210.181C257.673 210.239 257.695 210.302 257.729 210.362C260.768 210.976 263.892 211.03 266.95 210.523C267.884 210.194 268.893 210.133 269.86 210.347C269.935 210.372 270.066 210.22 270.051 210.13C269.935 209.359 269.968 209.212 270.264 209.112C270.567 208.986 271 208.995 271.259 208.801C272.455 207.82 274.064 206.932 274.229 205.079C274.245 204.952 274.31 204.837 274.411 204.758C275.53 203.986 275.481 202.512 275.967 201.404C276.337 200.462 276.604 199.482 276.887 198.504C277.267 197.407 277.572 196.286 277.802 195.148C278.009 193.853 277.801 192.531 278.078 191.264C278.325 189.986 277.349 189.015 277.333 187.855C277.272 187.339 277.181 186.827 277.059 186.322C277.03 186.104 277.059 185.883 277.142 185.68C277.226 185.477 277.361 185.3 277.535 185.165C277.834 184.908 277.943 184.622 277.749 184.437C277.258 184.064 276.863 183.58 276.598 183.024C276.332 182.468 276.203 181.856 276.221 181.24C276.199 181.111 276.139 180.991 276.047 180.897C275.956 180.804 275.837 180.741 275.708 180.716C275.414 180.707 275.128 180.617 274.88 180.457C274.632 180.297 274.433 180.073 274.303 179.809C273.082 180.427 271.711 180.684 270.349 180.549C269.02 180.3 267.867 181.25 266.558 180.946C266.016 180.87 265.482 180.747 264.962 180.578C264.464 180.378 263.925 180.296 263.39 180.34C262.439 180.414 261.483 180.317 260.566 180.054C259.099 179.551 257.713 178.837 256.453 177.933C255.609 177.303 254.885 176.528 254.314 175.644C253.609 174.497 253.215 173.187 253.171 171.842C253.089 171.244 253.225 170.637 253.555 170.131C253.885 169.626 254.385 169.256 254.965 169.09C255.434 168.97 255.654 168.644 255.886 168.025C256.001 167.705 256.16 167.402 256.359 167.126C256.592 166.847 256.85 166.59 257.131 166.358C257.688 165.901 258.358 165.604 259.07 165.498C259.625 165.374 260.08 165.423 260.548 165.325C261.01 165.249 261.466 165.144 261.914 165.012C262.766 164.767 263.662 164.715 264.537 164.861C265.041 164.939 265.541 165.047 266.033 165.182L267.41 165.651C268.264 165.986 269.097 166.373 269.904 166.811C270.394 167.021 270.847 167.31 271.244 167.668C272.07 168.563 273.175 169.06 273.947 169.951C274.089 170.119 274.238 170.271 274.385 170.427C274.513 170.402 274.643 170.378 274.78 170.351C275.174 170.279 275.652 170.173 275.531 169.674C275.359 168.879 275.683 168.23 275.599 167.495C275.46 166.246 275.079 165.201 275.897 163.995C275.935 163.942 275.956 163.878 275.955 163.813C275.954 163.747 275.931 163.684 275.891 163.632C275.252 162.957 275.662 162.276 275.678 161.518C275.722 160.95 275.619 160.379 275.378 159.862C275.137 159.345 274.767 158.899 274.303 158.567C273.924 158.331 273.618 157.993 273.421 157.592C273.224 157.191 273.143 156.743 273.187 156.298C273.226 154.685 271.866 153.743 271.413 152.21C271.155 151.348 270.024 151.337 269.325 150.902C267.341 149.639 265.623 147.733 263.085 147.236C262.863 147.193 262.675 146.803 262.603 146.518C262.388 145.644 262.063 145.075 261.089 145.895C261.025 145.941 260.95 145.969 260.872 145.977C260.794 145.984 260.715 145.972 260.643 145.94C259.823 145.344 258.866 144.965 257.86 144.838C257.043 144.721 256.326 144.321 255.649 144.181C255.551 144.152 255.403 144.088 255.399 144.002C255.347 143.475 255.818 142.497 254.976 142.681C254.614 142.82 254.275 143.012 253.969 143.25C253.654 143.403 253.394 143.302 252.895 143.076C252.595 142.945 252.317 142.824 252.066 142.716C251.736 142.582 251.415 142.427 251.106 142.251C249.981 141.759 249.048 140.913 248.447 139.843C248.383 139.643 248.367 139.432 248.399 139.224C248.431 139.017 248.51 138.82 248.631 138.649C249.279 137.829 250.136 137.199 251.112 136.824C252.141 136.452 253.232 136.28 254.325 136.316C255.343 136.319 256.253 136.454 257.146 136.518C259.485 136.768 261.75 137.482 263.808 138.62C265.654 139.607 267.372 140.666 269.14 141.803C271.537 143.346 273.653 145.284 276.241 146.872C276.958 147.877 277.78 148.804 278.693 149.636C279.431 151.93 281.005 153.662 281.75 156.056C282.402 158.156 283.168 160.353 282.551 162.521C282.47 163.053 282.453 163.593 282.5 164.129C282.491 166.683 281.977 169.211 280.988 171.567C280.597 172.505 280.124 173.408 279.575 174.264C280.788 175.462 281.595 177.012 281.88 178.694C281.939 179.466 282.595 179.826 283.034 180.37C283.342 180.787 283.528 181.282 283.57 181.798C283.532 182.491 283.716 183.178 284.097 183.759C284.582 184.487 284.923 185.302 285.101 186.159C285.747 187.988 285.69 189.954 286.722 191.734C286.555 193.153 286.521 194.585 286.618 196.011C286.602 196.735 286.461 197.451 286.2 198.127C286.132 198.294 286.049 198.455 285.951 198.607C285.153 200.007 284.701 201.577 284.633 203.186C284.624 203.27 284.595 203.35 284.548 203.419C284.501 203.488 284.438 203.545 284.363 203.584C283.215 203.777 283.274 204.624 283.014 205.485C282.771 206.155 282.385 206.763 281.881 207.267C280.785 208.397 279.891 209.708 279.24 211.142C279.023 211.655 278.705 212.119 278.305 212.506C277.119 213.71 275.789 214.762 274.345 215.641C273.923 215.893 273.487 216.119 273.038 216.318C272.601 216.495 272.155 216.648 271.701 216.777C270.866 217.011 270.006 217.145 269.139 217.177C268.392 217.215 267.733 217.41 267.072 217.428C266.216 217.431 265.366 217.574 264.556 217.851C264.229 217.963 263.883 218.008 263.538 217.983C263.193 217.958 262.857 217.864 262.55 217.705C262.27 217.561 261.852 217.407 261.624 217.519C260.614 217.916 259.501 217.967 258.458 217.665C258.457 218.475 258.564 219.281 258.776 220.063C258.925 220.58 258.888 221.134 258.672 221.627C258.033 222.874 257.533 224.132 256.862 225.52C256.203 226.844 255.427 228.108 254.546 229.296C253.648 230.491 252.635 231.596 251.524 232.595C250.336 233.736 248.967 234.672 247.473 235.366C246.087 235.93 245.271 237.167 243.863 237.677C242.639 237.939 241.469 238.408 240.404 239.065C238.899 238.864 237.643 239.595 236.143 239.773C234.846 239.941 233.528 239.847 232.269 239.496C231.244 239.234 230.19 239.104 229.133 239.108C225.6 239.052 222.202 237.738 219.551 235.401C219.131 235.056 218.652 234.789 218.138 234.613C217.505 234.416 216.912 234.107 216.39 233.7C215.846 233.306 215.335 232.869 214.861 232.394C214.481 231.959 214.144 231.488 213.854 230.987C213.58 230.474 213.209 230.018 212.76 229.646C212.271 229.289 211.93 228.765 211.8 228.173C211.635 227.61 211.543 227.039 211.34 226.511C211.19 225.982 211.018 225.471 210.828 224.963L210.536 224.2C210.457 223.935 210.378 223.668 210.298 223.399C210.141 222.859 209.937 222.315 209.797 221.739C209.688 221.152 209.576 220.549 209.46 219.922L209.414 219.44C209.367 218.24 209.569 217.044 210.006 215.926ZM266.851 173.238C266.555 173.085 266.251 172.946 265.969 172.772C265.673 172.622 265.413 172.409 265.208 172.147C264.753 171.605 263.967 172.035 263.57 171.418C263.496 171.318 263.39 171.247 263.269 171.217C263.156 171.201 263.042 171.22 262.94 171.271C262.801 171.346 262.656 171.411 262.507 171.464C262.378 171.527 262.278 171.602 262.168 171.646C261.999 171.711 261.833 171.786 261.673 171.872C261.586 171.878 261.562 171.929 261.528 171.955C261.495 171.984 261.443 171.983 261.407 172C261.394 172.036 261.369 172.066 261.337 172.085C261.32 172.094 261.302 172.101 261.284 172.106L261.272 172.145C261.347 172.208 261.425 172.266 261.506 172.321C261.822 172.539 262.441 172.338 262.877 172.492C263.42 172.684 263.93 173.369 264.642 173.561C265.723 173.873 266.844 174.028 267.969 174.024C267.61 173.743 267.237 173.481 266.851 173.238Z" fill="#80829B"/>
</g>
<defs>
<clipPath id="clip0_1_16586">
<rect width="300" height="300" fill="white"/>
</clipPath>
</defs>
</svg>
