<svg width="300" height="300" viewBox="0 0 300 300" fill="none" xmlns="http://www.w3.org/2000/svg">
<path d="M232.8 240.962C232.518 239.198 232.527 237.4 232.828 235.639C232.999 234.134 231.789 231.427 229.525 228.911C228.332 227.585 226.952 226.44 225.43 225.51C224.036 224.691 222.556 224.027 221.017 223.532C220.319 223.285 219.595 223.122 218.859 223.045C218.467 222.976 218.064 223.004 217.685 223.127C217.177 223.331 217.133 223.772 217.102 224.602C216.935 225.167 216.906 225.764 217.017 226.342C217.129 226.921 217.378 227.464 217.743 227.927C218.811 228.534 219.68 229.438 220.245 230.529C220.688 231.439 220.963 232.422 221.058 233.43C221.199 234.187 221.476 234.912 221.876 235.57C222.296 236.285 222.418 237.138 222.213 237.942C221.715 239.424 222.385 240.263 223.032 241.327C223.371 241.834 223.608 242.403 223.729 243C223.786 243.317 223.765 243.643 223.668 243.95C223.57 244.256 223.4 244.535 223.171 244.761C222.946 244.995 222.723 245.213 222.533 245.397C222.399 245.514 222.252 245.613 222.093 245.693C221.939 245.792 221.795 245.857 221.69 245.926C221.56 245.988 221.449 246.083 221.368 246.201C221.305 246.275 221.245 246.352 221.188 246.431L220.943 246.666C220.614 246.983 220.375 247.351 219.972 247.707C219.615 248.106 219.238 248.488 218.843 248.849C218.433 249.263 218.002 249.656 217.551 250.025C215.644 251.741 213.386 253.021 210.933 253.773C206.133 255.031 201.248 255.939 196.317 256.489C186.168 257.79 176.867 259.756 166.516 259.818C165.381 259.754 164.275 259.429 163.285 258.87C160.563 257.613 159.161 259.962 156.744 259.441C155.928 259.262 155.185 258.601 154.393 258.558C153.645 258.52 152.936 259.357 152.033 258.942C148.837 257.472 145.447 257.308 142.04 257.252C140.413 257.658 138.771 258.029 137.117 258.334C133.08 258.295 128.247 259.345 124.406 258.84C121.421 258.446 118.841 256.383 116.185 255.64C114.016 255.493 111.869 255.112 109.782 254.504C108.817 254.192 107.892 253.771 107.023 253.248C106.594 252.987 106.182 252.697 105.79 252.381C105.581 252.107 105.295 251.942 105.131 251.595C104.652 250.912 103.677 250.645 102.603 250.131C101.603 249.606 100.524 248.82 100.533 247.473C100.548 245.711 100.764 243.956 101.178 242.243C101.568 240.517 102.048 238.892 102.481 237.26C102.673 236.647 102.758 236.007 102.733 235.366C102.719 235.164 102.664 234.966 102.57 234.786C102.477 234.606 102.348 234.447 102.19 234.319C101.88 234.133 101.527 234.032 101.165 234.025C100.804 234.018 100.447 234.105 100.129 234.279C98.3939 235.309 96.9581 236.775 95.9642 238.531C94.7676 240.597 94.0737 242.916 93.9386 245.3C93.7704 247.729 94.2341 250.16 95.2845 252.357C96.1578 254.288 97.6832 255.85 99.5932 256.769C99.9528 256.956 100.287 257.859 100.674 258.47C102.14 260.341 104.108 261.758 106.347 262.555C108.52 263.352 110.744 264.004 113.003 264.506C117.071 265.443 121.217 265.996 125.387 266.157C126.973 266.268 128.051 267.251 129.371 267.826C129.945 267.925 130.533 267.901 131.097 267.756C131.66 267.611 132.187 267.349 132.643 266.987C133.051 266.627 135.749 266.565 138.399 266.605C140.236 266.552 142.074 266.675 143.888 266.972C147.305 269.835 152.593 269.548 157.913 268.959C163.249 268.381 168.602 267.504 172.637 269.437C174.512 270.366 182.075 268.534 183.618 267.421C183.74 267.348 186.469 266.988 189.268 266.597C192.068 266.197 194.94 265.739 195.367 265.732C196.231 265.738 197.143 266.304 197.961 266.16C199.06 265.966 200.041 265.213 201.128 264.891C202.787 264.437 204.678 264.747 206.498 264.792C208.31 264.794 210.056 264.546 211.201 262.89C212.485 262.54 213.429 263.453 217.346 261.709C218.925 261.013 221.652 260.24 224.539 258.877C225.28 258.525 226.002 258.133 226.7 257.703C227.417 257.25 228.108 256.758 228.77 256.228C229.406 255.674 230.01 255.083 230.579 254.459C230.843 254.121 231.089 253.785 231.316 253.454C231.56 253.103 231.836 252.686 232.049 252.318C232.263 251.89 232.449 251.448 232.606 250.995C232.727 250.597 232.811 250.189 232.855 249.776C232.941 248.868 233.027 247.911 233.045 247.102C233.072 246.326 233.078 245.616 233.077 244.921C233.103 243.596 233.01 242.271 232.8 240.962Z" fill="#000638"/>
<path d="M221.765 221.094C221.537 220.5 221.461 219.859 221.545 219.228C222.361 216.947 221.93 214.551 221.66 212.18C221.372 210.316 221.134 208.446 220.722 206.608C220.527 205.688 220.375 204.759 220.157 203.845L219.506 201.104C219.191 199.596 218.742 198.122 218.308 196.656C217.845 195.206 217.206 193.818 216.405 192.524C215.972 191.627 215.655 190.679 215.463 189.701C215.076 188.056 214.418 186.486 213.517 185.057C212.822 184.116 212.197 183.125 211.648 182.092C211.141 181.051 210.477 180.095 209.68 179.256C208.634 178.186 207.681 177.031 206.829 175.801C206.409 175.186 206.031 174.542 205.697 173.876C205.359 173.206 205.01 172.54 204.73 171.819C204.412 171.044 204.011 170.306 203.535 169.616C203.029 168.938 202.468 168.285 201.902 167.639L200.709 166.294L199.444 165.011C198.617 164.161 197.792 163.311 196.968 162.464C195.328 160.96 193.913 159.228 192.767 157.32C192.349 156.525 191.749 155.84 191.017 155.319C187.448 153.147 184.665 149.895 183.071 146.033C182.424 144.347 182.215 142.524 182.464 140.735C182.662 138.822 183.744 136.94 184.861 134.702C185.931 132.576 188.113 131.449 189.683 129.242C190.967 127.464 192.078 125.342 193.911 123.976C194.782 121.427 196.766 119.66 198.2 117.459C199.503 115.507 200.568 113.405 201.37 111.199C202.065 109.372 202.957 107.627 204.03 105.993C207.526 100.453 209.689 94.1764 210.35 87.6582C210.477 86.6485 210.731 85.6586 211.104 84.7116C211.928 82.4042 212.393 79.9838 212.482 77.5352C212.497 76.4907 212.44 75.4464 212.312 74.4096C212.149 73.3742 212.156 72.3189 212.334 71.2859C212.492 70.2344 212.422 69.1613 212.129 68.1392C211.844 67.1509 211.489 66.2065 211.269 65.2076C210.386 61.4324 209.861 57.6028 208.427 53.2055C207.223 50.0681 205.693 47.0654 203.864 44.2466C203.037 43.002 202.313 42.6893 201.909 43.3219C201.395 44.1207 200.903 44.9401 200.331 45.6629C200.098 45.9783 199.939 46.343 199.868 46.729C199.798 47.1151 199.816 47.5122 199.923 47.89C199.972 49.0802 200.152 50.2614 200.461 51.412C201.666 54.2927 201.817 57.3039 202.291 60.2358C202.655 62.326 203.111 64.3695 204.63 65.8741C204.953 66.1685 205.186 66.5483 205.303 66.9696C205.419 67.3909 205.414 67.8366 205.287 68.255C205.004 69.4626 205.048 70.7241 205.416 71.9088C205.988 74.0051 206.376 76.1471 206.577 78.3107C206.608 78.6622 206.087 79.3145 205.737 79.5732C205.371 79.7923 205.062 80.0961 204.837 80.459C204.613 80.822 204.478 81.2335 204.445 81.6592C204.259 84.4001 203.792 87.1146 203.052 89.7602C202.337 92.1353 201.397 94.437 200.247 96.6345C199.696 97.7597 199.198 98.9274 198.661 100.072C196.932 103.747 195.197 107.505 192.304 110.438C191.261 111.618 190.436 112.973 189.866 114.441C188.958 116.406 187.745 118.214 186.272 119.8C184.923 121.383 183.94 123.367 182.403 124.99C180.919 126.771 179.558 128.652 178.332 130.621C177.321 132.087 177.281 133.859 176.217 135.412C175.708 136.192 175.394 137.084 175.302 138.011C175.238 138.913 175.287 139.818 175.447 140.708C175.476 140.967 175.486 141.228 175.479 141.489C175.492 141.749 175.488 142.009 175.466 142.268C175.435 142.788 175.315 143.323 175.279 143.862C175.124 144.972 175.393 146.1 176.033 147.021C176.185 147.287 176.273 147.585 176.29 147.891C176.349 148.253 176.411 148.64 176.441 148.955C176.495 149.676 176.692 150.378 177.023 151.021C177.318 151.648 177.746 152.202 178.278 152.646C179.328 153.468 180.132 154.563 180.602 155.811C181.21 157.385 182.24 158.761 183.578 159.788C184.683 160.46 185.643 161.346 186.4 162.394C187.708 164.246 189.319 165.864 191.165 167.18C191.757 167.674 192.366 168.161 192.926 168.663C193.477 169.168 194.019 169.68 194.547 170.209C195.621 171.274 196.56 172.466 197.344 173.76C198.146 175.039 198.955 176.352 199.837 177.603C200.665 178.885 201.413 180.216 202.08 181.589C202.505 182.579 202.95 183.537 203.432 184.472C203.874 185.432 204.332 186.38 204.856 187.312C205.995 189.463 206.845 191.728 208.137 193.822C208.745 194.873 209.127 196.039 209.258 197.245C209.421 198.441 209.679 199.622 210.029 200.777C210.33 201.638 210.57 202.518 210.749 203.412C211.928 207.806 212.631 212.314 212.846 216.857C212.954 219.121 212.938 221.389 212.798 223.651C212.756 225.743 212.459 227.822 211.914 229.841C211.65 230.681 211.324 231.499 210.937 232.29C210.602 232.99 210.312 233.712 210.068 234.449C210.012 234.522 209.936 234.577 209.849 234.607C209.762 234.637 209.668 234.64 209.579 234.615C208.716 234.047 208.291 234.137 207.795 234.467C207.289 234.91 206.714 235.268 206.093 235.525C205.214 235.764 204.331 236.004 203.443 236.245C202.488 236.495 201.468 236.744 200.48 236.964C198.503 237.461 196.458 237.625 194.427 237.45C194.112 237.421 193.795 237.465 193.5 237.578C192.022 238.11 190.473 238.415 188.905 238.485C187.352 238.578 185.796 238.59 184.262 238.837C181.76 239.164 179.26 239.49 176.76 239.817L172.566 240.505C171.169 240.746 169.77 240.982 168.363 241.156C165.236 241.574 161.984 241.565 158.98 242.207C156.06 242.851 153.392 241.912 150.596 242.327C149.362 242.498 148.076 242.456 146.832 242.598C146.399 242.606 145.972 242.705 145.58 242.89C145.188 243.076 144.84 243.343 144.559 243.673C144.413 243.91 144.197 244.095 143.94 244.202C143.683 244.309 143.4 244.333 143.129 244.27C140.427 243.424 137.535 243.4 134.821 244.203C134.246 244.312 133.65 244.224 133.131 243.952C131.898 243.101 130.381 242.765 128.904 243.014C125.524 243.401 122.054 243.353 119.283 241.987C117.987 241.332 116.638 241.665 115.576 240.888C114.535 240.094 113.192 240.377 112.147 239.716C111.318 239.248 110.539 238.697 109.819 238.073C108.966 237.219 108.32 236.195 107.323 235.363C106.308 234.491 106.552 232.913 105.515 231.902C105.166 231.465 104.988 230.914 105.015 230.355C105.249 227.234 104.677 224.124 104.772 220.795C104.875 216.868 105.279 212.955 105.98 209.091C106.271 207.557 107.108 206.306 107.476 204.94C107.657 204.08 107.773 203.207 107.824 202.33C107.859 201.437 107.988 200.55 108.208 199.684C109.361 194.973 111.312 190.495 113.976 186.443C114.535 185.743 115.144 185.086 115.8 184.476C116.462 183.894 116.969 183.156 117.274 182.328C117.866 180.564 119.622 179.615 120.244 177.803C120.409 177.337 121.044 176.89 121.498 176.465C122.626 175.358 123.296 173.867 123.372 172.288C123.372 171.814 123.476 171.346 123.678 170.917C123.88 170.488 124.174 170.109 124.539 169.807C126.11 168.617 127.172 166.73 128.429 165.084C130.549 162.368 132.677 158.922 132.306 155.019C132.289 154.642 132.357 154.266 132.505 153.918C133.64 151.819 133.163 149.557 132.813 147.29C132.531 145.547 132.16 143.797 131.716 142.025C131.233 140.254 130.671 138.483 130.046 136.649C129.535 135.252 128.725 133.984 127.672 132.934C126.618 131.884 125.347 131.079 123.948 130.574C121.933 129.873 120.078 129.046 118.238 128.342C116.515 127.616 114.695 127.148 112.835 126.955C110.912 126.827 109.501 125.3 107.899 124.513L106.195 123.703C105.653 123.425 105.117 123.152 104.57 122.892L103.749 122.505L102.956 122.057L101.368 121.164C100.338 120.519 99.362 119.792 98.4489 118.99C97.9956 118.591 97.5628 118.169 97.1521 117.726C96.7621 117.26 96.3906 116.781 96.045 116.287C95.6434 115.918 95.1446 115.672 94.6076 115.577C93.9666 115.505 93.3569 115.262 92.8423 114.873C92.6352 114.627 92.5053 114.326 92.469 114.007C92.4327 113.688 92.4915 113.366 92.6381 113.08C92.6571 112.946 92.6474 112.81 92.6096 112.68C92.5719 112.55 92.5071 112.43 92.4193 112.327C91.6446 111.522 90.9463 110.647 90.3333 109.713C90.049 109.234 89.7741 108.75 89.5086 108.26C89.2292 107.775 88.9853 107.271 88.779 106.751C88.4006 105.859 87.8847 105.027 87.443 104.145L86.7172 102.846C86.5096 102.397 86.3026 101.949 86.096 101.502C85.9839 101.252 85.752 100.846 85.6262 100.846C85.2606 100.846 84.869 101.195 84.5042 101.283C84.1412 101.371 83.775 101.194 83.5937 100.092C83.4914 99.5194 83.4358 98.9453 83.3756 98.3786C83.3633 97.8062 83.322 97.2348 83.252 96.6666C83.0593 95.393 82.5698 94.1826 81.8231 93.1331C81.2357 92.1447 80.3338 91.3818 79.2616 90.9666C78.5167 90.6659 77.7136 90.537 76.912 90.5893C76.1104 90.6416 75.3309 90.8738 74.6313 91.2687C74.4076 91.4471 74.2219 91.6685 74.0849 91.9197C73.948 92.1709 73.8626 92.447 73.8339 92.7317C73.7088 94.1442 73.78 95.5671 74.0454 96.9601C74.8405 100.073 75.8516 103.127 77.0714 106.099C80.0666 114.542 86.0182 121.679 93.1769 127.013C95.6423 128.819 98.2794 130.378 101.05 131.667C103.817 133.046 106.516 134.075 108.863 135.404C110.874 135.802 112.797 136.553 114.545 137.624C116.192 137.842 117.749 138.502 119.051 139.533C120.172 140.458 121.133 141.563 121.892 142.802C122.605 144.007 123.082 145.336 123.3 146.718C123.583 148.161 123.759 149.679 124.093 151.303C124.164 152.132 124.079 152.968 123.841 153.766C123.437 155.712 122.804 157.603 121.957 159.4C121.065 161.301 120.032 163.133 118.869 164.881C116.442 168.632 113.603 172.098 110.404 175.217C109.47 176.191 108.653 177.271 107.969 178.435C106.56 180.364 105.469 182.506 104.737 184.78C104.16 187.148 102.145 188.663 101.542 191.025C101.221 191.984 100.956 192.961 100.746 193.951C100.579 194.927 100.255 195.87 99.7857 196.742C98.9684 198.22 98.31 199.78 97.8216 201.397C96.6704 206.074 95.7427 210.712 94.6894 215.411C94.5358 216.014 94.5546 216.648 94.7439 217.242C94.9331 217.835 95.285 218.363 95.7596 218.766C96.2256 219.172 96.2137 219.719 95.9709 220.514C95.4648 222.167 95.4784 223.935 96.0098 225.581C96.4883 226.855 96.6945 228.216 96.6152 229.576C96.5812 231.028 96.7684 232.478 97.1702 233.874C97.6784 235.747 98.4094 237.551 99.3476 239.249C100.305 241.042 101.501 242.696 102.903 244.168C103.346 244.601 103.787 245.065 104.253 245.482C104.709 245.878 105.204 246.226 105.731 246.521C108.157 247.77 110.511 249.206 113.002 249.687C115.791 250.081 118.532 250.765 121.18 251.729C122.104 252.134 123.085 252.395 124.089 252.502C126.129 252.661 128.114 252.828 130.057 252.848C132.005 252.919 133.954 252.704 135.84 252.21C137.166 251.848 138.327 252.38 139.57 252.618C140.509 252.756 141.466 252.73 142.396 252.539C143.616 252.143 144.915 252.056 146.176 252.286C147.734 252.736 149.395 252.507 151.01 252.605C154.563 252.79 158.242 252.169 161.638 253.208C164.184 252.732 166.773 252.52 169.362 252.576C170.67 252.54 171.967 252.345 173.228 251.997C173.539 251.917 173.844 251.817 174.141 251.695C175.518 251.233 176.929 250.878 178.36 250.632C179.803 250.404 181.267 250.35 182.722 250.471C183.017 250.481 183.305 250.387 183.537 250.205C184.412 248.781 185.922 249.008 187.54 248.934C188.823 248.803 190.085 248.511 191.295 248.066C192.647 247.622 194.021 247.248 195.411 246.945C196.802 246.622 198.231 246.495 199.657 246.567C200.635 246.594 201.611 246.49 202.561 246.26C204.009 245.939 205.407 245.663 206.974 245.263C208.672 244.853 210.326 244.276 211.911 243.54C213.77 242.678 215.436 241.451 216.81 239.931C218.15 238.411 219.148 236.621 219.737 234.681C220.243 233.237 220.637 231.756 220.918 230.252C221.111 228.514 221.413 226.79 221.82 225.089C222.15 223.775 222.131 222.399 221.765 221.094Z" fill="#000638"/>
<path d="M92.5461 91.0931C93.0478 90.7003 93.6207 90.7901 94.4378 91.1261C96.1081 91.8205 97.948 91.9996 99.7208 91.6401C100.378 91.4743 101.048 91.3671 101.724 91.3197C102.402 91.2892 103.081 91.3362 103.748 91.4598C105.086 91.6633 106.441 91.7306 107.792 91.6607C109.512 91.6241 111.219 91.3531 112.933 91.1783C114.647 91.0199 116.337 90.7036 118.033 90.4371C119.056 90.3437 120.065 90.1344 121.041 89.8132C123.197 88.9215 125.609 88.7919 127.749 87.9158C129 87.4223 130.289 87.0307 131.604 86.7448C132.909 86.4371 134.248 86.2959 135.589 86.3246C136.584 86.3801 137.583 86.2797 138.548 86.0271C140.502 85.4613 142.513 85.0218 144.426 84.3379C146.36 83.7389 148.194 82.8543 149.867 81.7136C151.029 80.8845 152.353 80.9999 153.646 80.7761C154.606 80.5566 155.522 80.1778 156.356 79.6554C157.415 78.86 158.637 78.3087 159.934 78.0414C161.579 77.7164 163.184 77.2156 164.722 76.5477C166.457 75.9485 168.176 75.1881 169.896 74.5093C171.574 73.7744 173.353 73.2953 175.173 73.0879C177.441 71.6713 179.844 70.4823 182.346 69.5384C183.581 68.9993 184.752 68.3221 185.835 67.5197C186.103 67.3252 186.357 67.1131 186.596 66.8847C187.176 66.3977 187.767 65.9335 188.374 65.4986C188.678 65.2812 188.985 65.0712 189.297 64.8688L190.291 64.2499C191.714 63.3884 193.189 62.5827 194.824 61.739C195.142 61.5605 195.396 61.2869 195.551 60.9567C195.738 59.1037 197.331 58.2458 198.808 56.4207C200.019 54.7719 200.686 52.7867 200.716 50.7413C200.791 48.3899 200.175 46.0682 198.943 44.0639C197.81 42.3087 196.453 40.7094 194.905 39.3068C193.987 38.4453 192.922 37.7561 191.759 37.2725C190.931 36.914 190.108 36.5913 189.303 36.3162L188.099 35.9165L186.972 35.5947C185.472 35.1718 183.969 34.7557 182.463 34.3629C180.963 33.9435 179.416 33.7325 177.891 33.4583C176.368 33.1794 174.829 32.9985 173.283 32.9168C171.896 32.849 170.613 32.5025 169.343 32.3812C168.463 32.2851 167.636 32.1734 166.824 32.0512C166.01 31.9123 165.207 31.7185 164.419 31.4712C163.122 31.0459 161.734 30.9857 160.405 31.2973C159.793 31.486 159.142 31.5184 158.513 31.3916C157.405 30.9566 156.236 30.6975 155.048 30.6239C153.862 30.531 152.657 30.6404 151.451 30.6578C147.654 30.6829 143.871 31.0464 140.093 31.2812C137.008 31.5838 133.867 31.6405 131.005 32.8253C130.027 33.0718 129.017 33.1721 128.01 33.1228C126.307 33.1837 124.622 33.4837 123.003 34.0141C120.823 34.9635 118.415 35.1887 116.35 36.2823C115.677 36.6535 114.985 36.9561 114.294 37.266C112.222 38.2281 109.982 38.7791 107.7 38.8883C106.011 39.117 104.361 39.5813 102.801 40.2676C101.666 40.6809 100.575 41.2041 99.4752 41.7041C98.375 42.203 97.2718 42.691 96.156 43.1465C94.0144 44.2145 91.7615 45.0432 89.4383 45.6175C88.4426 45.8277 87.5141 46.2806 86.7354 46.9358C85.7643 47.7978 84.7618 48.6058 83.733 49.3743C83.2416 49.7264 82.6442 50.2075 82.0729 50.6474C81.492 51.085 80.9637 51.5679 80.4025 52.0179C78.1692 53.8869 76.1514 55.9991 74.3864 58.3154C73.3799 59.6493 72.5153 61.0846 71.8063 62.5978C71.6276 63.001 71.4706 63.4323 71.3081 63.8511C71.1314 64.2793 70.9892 64.7209 70.883 65.1718C70.7652 65.635 70.6491 66.0964 70.5491 66.5666C70.485 67.0674 70.4307 67.5704 70.3861 68.0758C70.2985 69.4636 70.4309 70.8565 70.7782 72.203C70.6133 72.3613 70.4567 72.528 70.309 72.7024C70.2037 72.826 70.1025 72.9522 70.0053 73.081C69.9105 73.2078 69.8714 73.2806 69.8036 73.3845C69.6825 73.5786 69.5674 73.7759 69.4582 73.9764C69.3713 74.1503 69.3042 74.3046 69.2305 74.4717C69.0992 74.7691 68.9868 75.0744 68.8938 75.3858C68.7308 75.9075 68.6078 76.4408 68.5258 76.9811C68.2539 78.816 68.2881 80.6831 68.6269 82.5068C69.2816 85.9455 70.7394 89.181 72.8816 91.9495C73.6378 92.9726 74.349 94.0168 75.1766 94.9671C75.9659 95.9292 76.9831 96.6788 78.1358 97.1479C78.712 97.3479 79.2694 97.5984 79.8016 97.8963C80.3308 98.1646 80.8437 98.4489 81.3587 98.7382C82.3431 99.3226 83.4383 99.6956 84.5747 99.8336C85.2794 100.016 85.9542 100.298 86.5786 100.672C88.211 101.39 90.0587 101.445 91.731 100.825C92.1926 100.62 92.6904 100.51 93.1953 100.499C93.7002 100.488 94.2021 100.578 94.6719 100.764C96.5702 101.612 98.8037 101.628 100.824 101.981C102.51 102.313 104.219 102.518 105.936 102.592C106.776 102.614 107.617 102.562 108.448 102.436C109.274 102.303 110.083 102.078 110.86 101.766C111.173 101.649 111.514 101.626 111.84 101.699C113.834 102.367 115.621 101.614 117.558 101.285C120.5 100.695 123.527 100.658 126.483 101.177C128.79 101.638 131.183 101.354 133.317 100.366C135.008 99.6546 136.784 99.1623 138.6 98.9007C140.42 98.6031 142.205 98.1181 143.925 97.4533C145.729 96.6105 147.812 97.2528 149.822 97.0697C155.586 96.3931 161.137 94.2796 166.967 93.5334C167.606 93.3603 168.171 92.9869 168.581 92.4682C169.703 91.1517 170.724 90.3199 172.295 91.3673C172.6 91.4821 172.937 91.4808 173.242 91.3636C174.488 90.7296 175.741 90.1529 177.021 89.6374L178.957 88.8858C179.598 88.6111 180.242 88.3355 180.888 88.0591C182.021 87.5686 183.122 87.0051 184.182 86.3722C185.234 85.6915 186.253 84.9385 187.293 84.2541C187.581 84.0605 188.042 83.6975 188.024 83.5711C187.912 82.8328 186.168 82.4208 188.517 81.2668C189.702 80.5874 190.967 80.0761 192.147 79.3455C193.46 78.5271 194.503 77.3409 195.148 75.9343C195.76 74.8618 195.933 73.5939 195.63 72.3967C195.386 71.6324 194.976 70.9316 194.429 70.3444C193.883 69.7572 193.213 69.2981 192.468 69.0001C191.954 68.8386 191.397 68.8825 190.914 69.1228C189.846 69.7143 188.843 70.4166 187.922 71.218C186.809 72.0529 185.742 72.9634 184.661 73.8593L183.847 74.5258C183.565 74.7336 183.268 74.9194 182.976 75.1112C182.388 75.4903 181.791 75.851 181.18 76.1797C174.279 79.9932 166.984 83.0451 159.424 85.2819C154.204 86.6712 148.884 88.1781 143.395 88.1177C141.252 88.7187 139.041 89.0404 136.816 89.0749C134.84 89.7957 132.784 90.2708 130.693 90.4894C128.584 90.7182 126.462 90.8807 124.366 91.1778C120.496 91.7372 116.5 91.6709 112.757 92.932C111.793 93.1573 110.807 93.2696 109.818 93.2666C105.356 93.6986 100.866 93.7583 96.3947 93.4451C94.2508 93.2817 92.1282 92.9079 90.0574 92.3291C88.2674 91.8219 86.5756 91.0171 85.0527 89.9483C86.2738 90.5264 87.5084 91.0561 88.7448 91.5473C89.3581 91.8318 90.0386 91.94 90.7099 91.8598C91.3813 91.7796 92.017 91.5141 92.5461 91.0931ZM78.219 65.7834C78.7886 65.148 79.1632 64.362 79.2979 63.5194C79.3096 63.1449 79.9812 62.6487 80.4028 62.3585C80.8997 62.0452 81.351 61.6647 81.7438 61.2278C82.1449 60.8084 82.4676 60.3205 82.6964 59.7872C82.9242 59.2401 83.2674 58.7486 83.7027 58.3465C84.138 57.9443 84.655 57.641 85.2184 57.4572C85.9154 57.2217 86.5933 56.9331 87.2461 56.5938C87.9624 56.2326 88.6343 55.7894 89.2484 55.2731C90.1251 54.3576 91.197 53.6516 92.3843 53.2077C94.5503 52.5364 96.6007 51.5375 98.4643 50.2455C101.252 48.7687 103.951 47.2091 107.144 46.5843C110.214 45.8331 113.351 44.7944 116.464 44.23C118.684 43.9536 120.882 43.5252 123.043 42.9478L126.805 42.1715C128.055 41.895 129.289 41.5562 130.522 41.1712C133.003 40.3441 135.561 40.99 138.104 40.5967C139.045 40.4306 140.018 40.4049 140.975 40.291C150.548 39.3438 160.205 39.7246 169.673 41.4225C170.911 41.6569 172.174 41.8775 173.427 42.0488C174.672 42.2727 175.945 42.3003 177.198 42.1307C177.47 42.1425 177.726 42.2588 177.914 42.4553C178.62 44.5367 180.861 43.8144 182.457 44.3106C183.424 44.6196 184.444 44.875 185.409 45.1313C186.283 45.3686 187.14 45.6636 187.975 46.0144C188.692 46.3058 189.354 46.7193 189.93 47.2366C190.147 47.4085 190.323 47.6277 190.443 47.8774C190.563 48.1272 190.624 48.401 190.623 48.6781C190.608 48.7228 190.608 48.7714 190.623 48.8161C190.639 48.8607 190.669 48.8987 190.709 48.9239C190.928 49.0081 191.062 49.1432 191.058 49.3373C191.107 49.5218 190.995 49.6568 190.903 49.8152C190.641 50.1333 190.182 50.6002 189.513 51.3299C188.088 52.7214 186.474 53.9047 184.718 54.8446C182.259 56.2499 179.752 57.8956 177.204 59.2913C175.789 60.0938 174.3 60.801 172.831 61.5115C172.431 61.7074 172.046 61.918 171.654 62.1217C170.462 62.0554 169.267 62.1459 168.099 62.3908C166.551 62.8729 164.976 63.266 163.382 63.5682C161.799 63.8538 160.227 64.1271 158.672 64.5506C156.451 65.1136 154.31 65.9467 152.999 67.7279C152.742 68.1038 152.391 68.4055 151.981 68.6028C151.57 68.8001 151.115 68.8859 150.661 68.8517C149.361 68.8567 148.086 69.2037 146.962 69.8579C144.999 70.9609 142.981 71.9625 140.916 72.859C140.382 72.915 139.846 72.7804 139.402 72.479C139.052 72.2102 138.644 72.0282 138.21 71.9481C137.776 71.868 137.33 71.8919 136.907 72.0181C135.027 72.5308 133.497 72.9391 132.158 73.2742C130.811 73.5712 129.655 73.7992 128.53 73.9883C125.976 74.3798 123.4 74.6108 120.817 74.68C119.508 74.7138 118.192 74.8695 116.88 74.9857C114.767 75.1789 112.646 75.3428 110.534 75.4549C108.419 75.5399 106.301 75.3949 104.217 75.0224C102.602 74.7675 100.954 74.8154 99.3566 75.1638C97.1422 75.4697 94.8948 75.448 92.6867 75.0993C90.5824 74.8068 88.2231 75.1638 86.1501 74.6905C84.1515 74.2373 82.076 74.106 80.7084 73.1845C80.2259 72.8645 79.7286 72.6924 79.2477 72.409C79.0045 72.2729 78.7939 72.0853 78.6308 71.8593C78.4274 71.6527 78.3066 71.3788 78.2914 71.0893C78.2387 70.5673 78.1088 70.0561 77.906 69.5723C77.8362 69.306 77.7432 69.0464 77.6281 68.7964C77.5571 68.5006 77.4862 68.2049 77.4144 67.906C77.4006 67.5165 77.4647 67.1281 77.6029 66.7637C77.7411 66.3992 77.9505 66.066 78.219 65.7834Z" fill="#000638"/>
<path d="M236.898 146.413C236.718 146.236 236.578 146.024 236.485 145.79C236.392 145.555 236.349 145.304 236.359 145.053C236.37 144.522 236.333 143.991 236.248 143.466C236.127 142.963 235.932 142.48 235.668 142.034C235.529 141.792 235.372 141.562 235.199 141.345C235.002 141.107 234.789 140.883 234.561 140.675C234.173 140.313 233.816 139.918 233.495 139.496C233.117 139.046 232.751 138.552 232.338 138.064C231.571 137.171 230.598 136.48 229.503 136.05C228.45 135.631 227.318 135.447 226.186 135.512C225.701 135.541 225.219 135.613 224.747 135.727C224.331 135.844 223.922 135.983 223.521 136.144C222.925 136.398 222.354 136.707 221.817 137.068C221.236 137.486 220.714 137.981 220.267 138.54C219.744 139.181 219.175 139.924 218.619 140.521C218.054 141.186 217.65 141.973 217.439 142.82C217.346 143.183 217.281 143.554 217.245 143.928C217.227 144.245 217.222 144.565 217.222 144.885C217.24 145.97 218.099 146.681 217.811 147.539C217.746 147.736 217.742 147.947 217.797 148.147C217.853 148.346 217.966 148.525 218.123 148.661C218.397 148.959 218.747 149.22 218.955 149.499C219.598 150.628 220.071 151.845 220.359 153.111C220.768 153.885 221.295 154.802 221.896 155.707C222.147 156.084 222.624 156.033 223.166 155.608C223.854 155.071 224.532 154.534 225.243 154.023C225.706 153.732 226.085 153.326 226.343 152.844C226.557 152.356 227.019 151.764 226.933 151.449C226.704 150.578 227.128 149.497 227.064 148.664C227.018 148.065 226.713 147.618 225.34 147.576C224.817 147.561 224.47 147.436 224.758 147.063C224.827 146.996 224.878 146.914 224.907 146.823C224.936 146.732 224.942 146.635 224.925 146.541C224.908 146.447 224.869 146.359 224.81 146.284C224.751 146.208 224.675 146.149 224.588 146.11C223.957 145.699 223.426 145.152 223.034 144.509C222.963 144.399 223.437 144.231 223.778 144.208C224.409 144.153 224.863 144.118 224.843 143.953C224.799 143.728 224.824 143.494 224.913 143.282C224.958 143.208 225.009 143.138 225.066 143.072C225.153 143.032 225.235 142.993 225.316 142.956C225.568 142.876 225.835 142.857 226.095 142.902C226.355 142.947 226.601 143.053 226.811 143.213C226.912 143.265 226.987 143.328 227.065 143.37C227.149 143.396 227.225 143.44 227.289 143.499C227.554 143.658 227.768 143.888 227.908 144.164C228 144.387 228.037 144.628 228.015 144.868C227.993 145.108 227.913 145.34 227.782 145.542C227.561 145.932 227.779 146.225 228.105 146.506C228.603 146.902 228.536 147.459 228.389 148.039C228.262 148.572 228.667 149.097 228.436 149.697C228.214 150.269 228.542 150.858 228.45 151.454C228.38 151.878 229.209 152.27 228.781 152.708C228.359 153.141 228.784 153.543 229.169 153.98C229.632 154.511 228.13 154.902 228.963 155.495C229.114 155.606 228.857 155.816 228.669 155.946C228.23 156.249 228.15 156.583 228.539 156.952C228.951 157.337 228.983 157.659 228.529 157.955C228.002 158.303 227.785 158.709 228 159.186C228.168 159.551 228.422 159.918 228.023 160.221C227.369 160.719 227.472 161.367 227.51 161.993C227.595 162.423 227.585 162.867 227.479 163.293C227.373 163.718 227.174 164.115 226.896 164.454C226.227 165.149 226.074 165.976 225.395 166.675C224.503 167.66 223.982 168.925 223.922 170.252C224.08 171.058 222.814 171.244 222.715 171.932C222.643 172.176 222.539 172.409 222.407 172.625C221.505 174.941 220.239 177.097 218.657 179.014C218.366 179.235 218.152 179.544 218.048 179.894C217.943 180.245 217.953 180.619 218.076 180.964C218.1 181.04 217.924 181.07 217.823 181.01C216.142 180.01 216.865 181.242 216.53 181.51C215.765 182.155 215.481 183.392 213.926 183.097C213.819 183.076 213.735 183.115 213.721 183.203C213.543 184.151 212.391 183.853 211.806 184.223C211.338 184.557 210.764 184.724 210.31 185.069C209.778 185.426 209.321 185.934 208.764 186.28C208.143 186.672 207.366 186.698 206.86 187.332C206.35 187.989 205.471 187.108 204.958 187.56C204.719 187.745 204.422 187.72 204.172 187.883C203.982 188.017 203.846 188.315 203.84 188.992C203.836 189.474 203.746 189.746 203.591 189.609C202.82 188.949 202.252 188.773 201.628 189.761C201.531 189.906 201.319 189.778 201.23 189.543C200.93 188.757 200.694 188.502 200.292 188.73C200.134 188.872 199.946 188.977 199.742 189.037C199.538 189.097 199.324 189.11 199.114 189.076C198.904 189.041 198.705 188.96 198.531 188.838C198.357 188.716 198.213 188.556 198.109 188.371C197.868 187.917 197.394 188.552 197.183 188.091C196.981 187.626 196.435 188.364 196.095 188.245C195.833 188.151 195.501 188.223 195.227 188.138C194.875 188.045 194.597 187.808 194.077 188.061C193.549 188.294 193.623 187.419 192.98 187.807C192.944 187.835 192.9 187.852 192.855 187.857C192.809 187.862 192.763 187.854 192.722 187.835C192.681 187.815 192.645 187.784 192.62 187.746C192.596 187.707 192.582 187.663 192.581 187.617C192.442 186.385 191.671 186.101 191.081 185.508C190.754 185.126 190.42 184.77 190.105 184.38C189.797 183.973 189.474 183.597 189.151 183.204C188.898 182.881 189.12 182.214 188.911 181.918C188.648 181.565 187.869 181.572 187.525 181.236C186.496 180.36 185.742 179.206 185.353 177.912C185.245 177.383 185.834 176.484 185.167 176.301C184.485 176.109 185.006 175.238 184.26 175.087C184.072 175.045 184.189 174.751 184.209 174.558C184.268 173.987 183.626 173.921 182.806 173.95C182.34 173.967 181.866 173.963 182.062 173.535C182.401 172.808 182.053 172.366 182.108 171.766C182.206 170.737 182.427 169.692 181.037 169.369C181.011 169.366 180.986 169.357 180.964 169.342C180.942 169.327 180.924 169.307 180.912 169.284C180.899 169.261 180.893 169.235 180.893 169.208C180.893 169.182 180.899 169.156 180.911 169.132C181.376 168.307 180.603 168.166 180.167 167.721C179.786 167.34 179.499 166.875 179.329 166.364C179.16 165.852 179.114 165.307 179.193 164.774C179.23 164.22 179.047 163.674 178.684 163.253C178.322 162.833 177.808 162.571 177.255 162.525C176.364 162.31 175.508 161.973 174.71 161.523C173.94 161.08 173.039 160.919 172.163 161.067C171.947 161.107 171.725 161.094 171.515 161.03C171.306 160.965 171.115 160.85 170.959 160.696C170.611 160.376 170.208 160.123 169.77 159.948C168.573 159.689 167.333 159.714 166.148 160.02C164.985 160.315 163.793 160.485 162.594 160.528C162.36 160.527 162.176 160.959 162.143 161.297C162.014 162.33 161.943 162.887 160.748 161.842C160.619 161.728 160.369 161.682 160.292 161.759C159.572 162.452 158.754 163.035 157.864 163.491C157.83 163.51 157.805 163.539 157.772 163.56C156.559 162.935 155.275 162.458 153.948 162.137C153.422 161.996 152.885 161.9 152.343 161.849C151.805 161.767 151.254 161.754 150.704 161.712C149.536 161.654 148.373 161.534 147.218 161.354C146.361 161.799 145.43 162.085 144.471 162.2C143.467 163.77 141.89 164.074 140.831 165.179C139.899 166.164 138.651 166.82 138.537 168.407C138.515 168.768 138.229 168.949 138.03 169.18C137.115 170.264 136.319 171.379 135.529 172.452C134.863 173.631 133.838 174.567 132.604 175.124C132.265 175.28 131.984 175.538 131.799 175.862C131.432 176.365 130.956 176.764 131.046 177.556C131.137 178.37 129.841 178.144 129.746 178.82C129.704 179.101 129.522 179.3 129.536 179.611C129.551 179.945 129.359 180.095 129.08 180.207C128.618 180.316 128.19 180.537 127.833 180.851C127.114 181.87 126.09 182.635 124.908 183.035C124.508 183.168 124.775 183.735 125.337 184.425C125.652 184.811 125.541 184.9 125.229 184.897C124.601 184.892 124.28 185.179 124.313 185.738C124.341 186.193 124.258 186.499 123.763 186.526C123.396 186.558 123.05 186.713 122.782 186.967C122.476 187.252 122.195 187.562 121.941 187.894C121.668 188.207 121.405 188.532 121.148 188.861C120.991 189.054 120.762 189.198 120.745 189.505C120.707 190.25 120.116 190.481 119.971 191.132C119.954 191.317 119.898 191.496 119.805 191.658C119.713 191.82 119.587 191.959 119.436 192.068C119.285 192.177 119.112 192.252 118.93 192.288C118.747 192.324 118.559 192.321 118.378 192.278C118.091 192.207 117.788 192.243 117.527 192.379C116.788 193.028 115.802 193.333 115.735 194.794C115.707 195.306 115.149 195.059 114.762 195.052C114.491 195.049 114.332 195.273 114.241 195.527C114.117 195.89 114.074 196.362 113.581 196.219C113.01 196.055 112.742 196.384 112.334 196.48C111.453 196.682 110.846 197.477 109.546 196.736C109.088 197.158 108.65 197.649 107.903 197.507C107.561 197.442 107.392 197.843 107.145 198.042C107.085 198.09 107.062 198.215 107.02 198.303C106.642 199.115 106.054 199.57 105.165 199.132C105.093 199.098 105.009 199.21 105.027 199.333C105.225 200.627 104.731 200.329 104.303 200.243C103.977 200.183 103.739 200.495 103.491 200.734C102.933 201.223 102.33 201.722 101.497 201.105C101.394 201.025 101.275 200.969 101.148 200.94C101.021 200.91 100.89 200.91 100.762 200.937C99.3764 201.034 98.0186 201.376 96.7513 201.945C96.4527 202.118 96.1528 201.998 95.8743 202.071C95.6803 202.126 95.4746 202.127 95.2806 202.071C95.0866 202.016 94.912 201.907 94.7768 201.757C94.493 201.47 94.2086 201.524 93.8947 201.905C93.7601 202.069 93.5548 202.236 93.4676 202.073C93.0366 201.226 92.5262 201.373 91.9981 201.374C91.1873 201.36 90.3814 201.244 89.599 201.031C88.9499 200.859 88.4129 200.407 87.5677 200.828C87.261 200.979 87.1969 200.555 87.0175 200.421C86.7089 200.178 86.4814 199.687 86.0497 199.865C85.3688 200.116 85.1054 199.453 84.4068 199.705C83.5025 199.986 82.8152 199.685 82.7264 198.574C82.7128 198.362 82.6439 198.157 82.5267 197.979C82.4095 197.801 82.248 197.657 82.058 197.561C81.6139 197.276 81.1972 196.951 80.8132 196.589C80.5889 196.386 80.4169 196.133 80.312 195.849C80.207 195.566 80.1721 195.261 80.2103 194.962C80.256 194.64 80.1565 194.383 79.9006 194.381C79.2733 194.395 78.6598 194.196 78.1606 193.816C77.7158 193.475 77.3326 193.061 77.0276 192.591C76.6552 192.125 76.3984 191.582 76.0604 191.098C75.8021 190.485 75.4384 189.923 74.986 189.436C74.4999 188.993 75.1229 188.106 74.905 187.592C74.777 187.314 74.4861 187.027 74.5049 186.69C75.0281 186.913 75.1929 187.561 75.4277 188.342C75.7253 188.818 76.0814 189.492 76.4744 190.248C76.6374 190.566 77.1048 190.55 77.709 190.225C78.4733 189.812 79.2405 189.397 79.9999 188.986C80.5 188.767 80.9312 188.416 81.2473 187.971C81.5137 187.517 82.0214 186.954 81.9465 186.61C81.7433 185.687 82.1113 184.499 81.7893 183.458C81.576 182.736 80.9729 182.103 79.5945 182.476C79.0823 182.613 78.7127 182.642 78.7616 182.142C78.8015 181.595 78.4545 181.311 77.9356 181.285C77.137 181.245 76.3365 181.295 75.5491 181.434C75.4401 181.458 75.4435 180.959 75.4692 180.623C75.5269 180.009 75.4639 179.476 75.0787 179.447C74.1234 179.406 73.1664 179.449 72.2184 179.574C71.2936 179.615 70.3773 179.769 69.4899 180.033C69.0011 180.238 68.5624 180.547 68.2036 180.937C67.6313 181.57 67.19 182.31 66.9054 183.114C66.6221 183.923 66.2755 184.707 65.8688 185.461C65.7327 185.745 65.682 186.062 65.723 186.374C65.7639 186.686 65.8946 186.979 66.0992 187.218C66.529 187.843 66.7389 188.594 66.6962 189.352C66.7401 190.07 67.3416 190.524 67.3638 191.274C67.3901 192.008 68.0248 192.492 68.2441 193.153C68.4087 193.641 69.3695 193.582 69.2636 194.222C69.1697 194.873 69.7781 195.027 70.3819 195.162C71.0898 195.318 70.2008 196.635 71.2635 196.58C71.4579 196.566 71.4258 196.905 71.3899 197.141C71.3015 197.691 71.5174 198.031 72.0685 198.032C72.6506 198.027 72.9282 198.215 72.8813 198.776C72.8342 199.428 73.0402 199.925 73.6034 200.057C74.0278 200.165 74.4906 200.179 74.543 200.708C74.6252 201.594 75.3429 201.869 75.9488 202.188C76.8699 202.507 77.6579 203.126 78.1875 203.944C78.4576 204.379 78.7906 204.771 79.1758 205.108C79.5737 205.434 79.9375 205.8 80.2616 206.199C80.682 206.802 81.2571 207.281 81.9265 207.584C82.6226 208.047 83.4371 208.299 84.2728 208.312C85.1704 208.201 85.5634 209.456 86.4201 209.556C86.7284 209.611 87.0317 209.691 87.327 209.795C90.3609 210.465 93.4511 210.849 96.5569 210.94C97.3589 210.938 98.2359 211.067 98.8855 210.061C98.932 209.988 99.1071 210.086 99.1421 210.199C99.7239 212.069 100.242 210.695 100.756 210.661C102.093 210.606 103.223 209.686 104.757 210.588C104.803 210.619 104.859 210.634 104.915 210.631C104.971 210.627 105.024 210.605 105.066 210.568C105.901 209.728 107.103 210.356 108.09 210.057C108.889 209.852 109.674 209.599 110.442 209.298C111.275 208.896 112.034 208.343 112.813 207.865C113.69 207.362 114.737 207.109 115.378 206.261C115.965 205.415 117.235 205.925 117.835 205.171C118.097 204.847 118.492 204.704 118.765 204.397C118.968 204.159 119.028 203.761 118.775 203.127C118.595 202.673 118.582 202.371 118.812 202.404C119.968 202.572 120.757 202.189 120.861 200.931C120.875 200.734 121.161 200.671 121.398 200.784C122.187 201.161 122.651 201.141 122.913 200.586C123.08 200.05 123.397 199.574 123.828 199.214C124.259 198.854 124.785 198.627 125.342 198.559C125.974 198.505 125.815 197.697 126.4 197.633C127.01 197.56 126.748 196.662 127.063 196.307C127.319 196.025 127.447 195.619 127.696 195.332C127.895 195.176 128.056 194.978 128.168 194.751C128.28 194.525 128.34 194.276 128.344 194.024C128.305 193.389 129.256 193.614 129.031 192.816C129.015 192.766 129.011 192.712 129.019 192.661C129.028 192.609 129.048 192.559 129.078 192.517C129.109 192.474 129.149 192.439 129.196 192.414C129.242 192.39 129.294 192.377 129.346 192.376C130.741 192.296 131.22 191.318 131.939 190.592C132.802 189.729 133.667 188.866 134.44 187.935C134.744 187.566 135.491 187.592 135.782 187.257C136.136 186.847 135.943 186.025 136.216 185.553C136.835 184.202 137.725 182.993 138.83 182.001C139.286 181.654 140.371 181.779 140.27 181.077C140.167 180.365 141.165 180.441 140.977 179.708C140.931 179.522 141.246 179.5 141.428 179.433C141.957 179.234 141.714 178.657 141.315 177.943C141.086 177.539 140.876 177.128 141.337 177.131C142.112 177.135 142.33 176.684 142.861 176.518C143.777 176.26 144.7 176.175 144.37 174.912C144.342 174.807 144.401 174.72 144.508 174.749C145.353 174.982 145.162 174.292 145.328 173.862C145.373 173.694 145.458 173.538 145.576 173.408C145.694 173.279 145.84 173.18 146.004 173.118C146.168 173.057 146.344 173.035 146.518 173.055C146.691 173.076 146.858 173.137 147.003 173.234C147.724 173.548 147.963 173.333 147.933 172.502C147.908 172.287 147.939 172.069 148.024 171.87C148.109 171.671 148.245 171.498 148.418 171.368C148.571 171.265 148.7 171.132 148.798 170.976C148.896 170.821 148.961 170.647 148.988 170.466C149.193 169.921 149.664 170.804 149.951 170.986C150.154 171.071 150.367 171.128 150.586 171.156C150.803 171.16 151.019 171.183 151.231 171.224C151.483 171.252 151.719 171.36 151.904 171.532C152.09 171.704 152.215 171.931 152.261 172.18C152.286 172.299 152.51 172.036 152.671 171.821C153.167 171.13 153.612 170.86 153.022 172.275C152.956 172.431 152.914 172.619 152.949 172.618C153.027 172.617 153.103 172.633 153.173 172.666C153.244 172.698 153.306 172.746 153.355 172.806C153.405 172.865 153.44 172.935 153.459 173.01C153.478 173.085 153.48 173.163 153.464 173.239C153.45 173.505 153.711 173.413 153.835 173.459C153.9 173.45 153.961 173.427 154.015 173.391C154.624 173.08 155.67 172.329 155.573 172.71C155.486 172.91 155.196 173.13 155.144 173.241C155.007 173.382 155.373 173.378 155.936 173.485C156.498 173.578 157.348 173.75 158.294 173.881C159.304 174.032 160.32 174.128 161.34 174.168C161.503 174.241 161.682 174.271 161.86 174.254C161.962 174.222 162.06 174.185 162.153 174.144C162.413 174.133 162.673 174.109 162.93 174.072C163.116 174.048 163.294 173.984 163.453 173.885C163.612 173.786 163.747 173.654 163.851 173.498C163.966 173.197 164.051 172.884 164.102 172.565C164.117 172.308 164.103 172.049 164.062 171.795C165.625 170.734 166.574 169.646 167.638 169.383C167.98 169.257 168.34 169.189 168.704 169.182C168.792 169.186 168.877 169.208 168.955 169.248C169.034 169.287 169.103 169.343 169.158 169.411C169.213 169.479 169.253 169.558 169.275 169.642C169.298 169.727 169.302 169.815 169.287 169.902C169.433 169.615 169.508 169.774 169.421 169.986C169.755 169.564 169.958 169.556 170.146 169.717C170.329 169.872 170.463 170.165 170.777 170.436C171.366 170.945 171.485 171.991 172.899 172.545C173.221 172.663 173.274 172.976 173.408 173.221C174.037 174.368 174.691 175.515 175.308 176.692C176.083 177.853 176.489 179.221 176.473 180.616C176.478 181.022 176.609 181.417 176.846 181.747C177.178 182.348 177.399 183.037 178.218 183.33C179.044 183.624 178.401 184.822 179.081 185.235C179.357 185.404 179.514 185.68 179.834 185.801C179.98 185.859 180.106 185.958 180.197 186.087C180.288 186.215 180.339 186.367 180.345 186.524C180.368 187.077 180.518 187.618 180.782 188.104C181.264 188.672 181.696 189.282 182.071 189.925C182.498 190.602 182.846 191.326 183.108 192.083C183.303 192.577 183.973 192.412 184.72 191.912C185.14 191.633 185.247 191.768 185.276 192.119C185.273 192.269 185.3 192.419 185.357 192.559C185.413 192.698 185.498 192.825 185.605 192.93C185.712 193.036 185.84 193.119 185.98 193.173C186.121 193.228 186.271 193.253 186.421 193.248C186.962 193.252 187.302 193.378 187.486 193.916C187.663 194.353 187.964 194.731 188.35 195.001C188.81 195.347 189.311 195.631 189.844 195.848C190.353 196.117 190.883 196.343 191.428 196.526C191.738 196.695 192.087 196.778 192.44 196.767C193.3 196.62 194.002 197.054 194.825 196.929C195.278 196.797 195.76 196.801 196.211 196.941C196.661 197.082 197.061 197.352 197.358 197.719C197.582 198.02 197.901 198.237 198.264 198.334C198.94 198.442 199.622 198.509 200.306 198.535C201.036 198.52 201.736 198.235 202.269 197.735C202.686 197.309 203.101 197.809 203.547 198.011C203.706 198.069 203.877 198.082 204.042 198.049C204.208 198.016 204.361 197.938 204.484 197.823C204.878 197.535 205.204 197.119 205.705 197.444C206.295 197.804 206.815 197.534 207.374 197.558C208.619 197.576 209.658 196.838 211.156 197.644C211.865 197.08 212.724 196.738 213.627 196.661C214.088 196.663 214.394 196.2 214.753 195.93C214.841 195.864 214.881 195.715 214.943 195.607C215.148 195.126 215.495 194.718 215.937 194.438C216.379 194.158 216.895 194.019 217.418 194.039C217.517 194.043 217.619 193.888 217.579 193.768C217.17 192.517 217.787 192.599 218.348 192.454C218.774 192.348 218.996 191.893 219.221 191.507C219.757 190.655 220.202 189.856 221.398 189.789C221.739 189.758 222.056 189.604 222.291 189.355C223.65 188.019 225.048 186.641 225.585 184.74C225.716 184.322 226.043 184.074 226.197 183.716C226.298 183.474 226.447 183.255 226.634 183.072C226.822 182.889 227.044 182.745 227.288 182.649C227.392 182.606 227.487 182.544 227.566 182.464C227.646 182.385 227.709 182.291 227.753 182.187C227.796 182.083 227.818 181.972 227.818 181.859C227.819 181.747 227.796 181.635 227.754 181.531C227.692 181.297 227.667 180.988 227.87 180.953C228.915 180.78 229.073 180.038 229.354 179.385C229.804 178.354 230.192 177.307 230.676 176.313C231.077 175.503 231.632 174.744 231.344 173.695C231.241 173.322 231.663 173.2 231.826 172.952C232.104 172.533 232.636 172.145 232.467 171.628C232.201 170.823 232.866 170.327 232.563 169.543C232.447 169.326 232.377 169.088 232.358 168.843C232.339 168.598 232.372 168.352 232.453 168.12C232.534 167.888 232.662 167.676 232.83 167.496C232.997 167.317 233.2 167.174 233.426 167.076C233.653 166.931 233.845 166.737 233.988 166.508C234.131 166.28 234.222 166.022 234.255 165.754C234.417 165.068 234.509 164.374 234.732 163.711C234.89 162.965 235.319 162.303 235.936 161.853C236.08 161.778 236.192 161.654 236.254 161.504C236.316 161.354 236.323 161.187 236.274 161.032C235.69 159.594 235.557 158.012 235.894 156.497C235.993 155.703 236.105 154.905 236.156 154.093C236.32 153.18 236.318 152.245 236.148 151.333C235.891 150.481 236.868 149.696 236.778 148.792C236.699 148.049 236.3 147.299 236.898 146.413Z" fill="#80829B"/>
<path d="M141.144 261.566C142.796 261.597 144.928 262.012 146.903 260.76C147.097 260.623 147.33 260.553 147.568 260.561C147.805 260.569 148.033 260.656 148.217 260.806C148.795 261.24 149.499 261.473 150.221 261.469C150.944 261.466 151.645 261.226 152.219 260.787C153.352 259.977 154.393 260.218 155.52 260.919C156.198 261.345 156.793 260.579 157.417 260.336C158.642 261.465 160.047 261.426 161.468 261.355C169.706 260.932 177.914 260.062 186.058 258.75C187.693 258.461 189.316 258.117 190.956 257.815C191.871 257.538 192.718 257.073 193.445 256.451C195.35 255.162 196.254 255.027 198.834 255.371C199.054 255.443 199.29 255.447 199.512 255.382C199.734 255.316 199.931 255.185 200.077 255.005C200.559 254.465 201.163 254.049 201.84 253.791C202.626 253.522 203.422 253.25 204.222 253C205.028 252.763 205.819 252.479 206.592 252.148C207.76 251.752 209.014 251.678 210.22 251.934C210.845 252.065 211.495 251.998 212.081 251.744C212.667 251.49 213.16 251.061 213.492 250.516C214.389 248.886 215.627 248.629 217.332 248.6C217.732 248.59 218.12 248.456 218.442 248.218C218.764 247.98 219.004 247.648 219.131 247.268C219.32 246.83 219.552 246.411 219.825 246.019C220.069 245.644 220.367 245.306 220.709 245.017C221.46 244.412 222.346 243.997 223.291 243.804C224.168 243.581 224.943 243.066 225.489 242.344C226.008 241.561 226.282 240.642 226.278 239.702C226.29 239.091 226.528 238.505 226.946 238.058C227.74 236.632 227.601 236.227 226.743 236.013C225.654 235.629 224.525 235.368 223.379 235.234C222.575 235.18 221.767 235.193 220.966 235.272C220.364 235.295 219.788 235.521 219.331 235.914C219.121 236.154 218.891 236.378 218.645 236.581C218.362 236.82 218.004 236.952 217.634 236.954C216.106 237.009 215.622 237.932 215.128 239.474C214.879 240.233 214.357 240.872 213.664 241.269C212.869 241.654 211.98 241.8 211.103 241.692C210.137 241.61 209.414 241.647 208.968 242.586C208.74 243.081 208.457 243.339 208.015 243.258C207.573 243.182 207.029 242.881 206.674 243.019C203.238 244.329 199.728 245.434 196.162 246.328C195.355 247.16 194.536 248.067 193.248 247.422C191.991 249.12 190.125 249.127 188.38 249.44C186.623 249.715 184.919 250.459 183.035 249.541C182.574 249.318 181.896 250.232 181.292 250.237C180.648 250.236 179.981 249.623 179.33 249.572C178.654 249.472 177.965 249.637 177.409 250.033C176.165 251.071 174.611 251.664 172.992 251.718C163.523 252.624 153.975 252.927 144.428 252.894C142.19 252.886 139.906 252.622 137.756 253.962C137.622 254.044 137.327 253.796 137.143 253.64C136.055 252.729 135.011 252.984 133.961 253.806C132.961 253.211 132.048 252.884 130.889 253.674C130.142 254.186 129.123 254.034 128.23 254.209C127.778 254.301 127.311 255.826 127.584 256.413C128.263 257.871 128.84 259.533 130.526 259.578C131.952 259.483 133.366 259.894 134.519 260.739C135.098 261.149 135.783 261.383 136.492 261.414C137.889 261.542 139.298 261.522 141.144 261.566Z" fill="#80829B"/>
<path d="M212.623 216.422C211.753 215.417 210.692 214.593 209.503 214C209.291 213.908 209.063 213.863 208.833 213.866C208.602 213.868 208.375 213.92 208.166 214.016C207.956 214.113 207.77 214.252 207.618 214.425C207.466 214.599 207.353 214.802 207.285 215.022L207.287 214.997C207.31 214.822 207.297 214.645 207.249 214.476C207.201 214.307 207.118 214.15 207.006 214.014C206.774 213.758 206.896 213.306 206.976 212.808C207.042 212.575 207.059 212.33 207.024 212.09C206.99 211.85 206.906 211.62 206.776 211.415C206.535 211.157 206.398 210.804 206.149 210.545C205.104 209.498 203.739 208.831 202.27 208.651C201.643 208.563 201.011 208.514 200.377 208.504C200.008 208.486 199.639 208.488 199.271 208.509L198.68 208.527C198.471 208.542 198.237 208.579 198.017 208.602L197.306 208.686C197.017 208.754 196.735 208.847 196.463 208.965C196.135 209.106 195.822 209.28 195.53 209.485C195.144 209.777 194.786 210.104 194.46 210.462C194.354 210.579 194.181 210.522 194.201 210.387C194.374 209.265 194.02 209.237 193.569 209.52C193.188 209.755 192.76 210.176 192.405 210.388C191.934 209.826 191.953 208.816 191.094 208.626C190.844 208.581 190.785 208.137 190.631 207.871C190.21 207.071 189.326 207.144 188.45 207.543C187.95 207.748 187.45 208.024 187.212 207.561C186.785 206.774 185.916 206.754 185.237 206.436C184.644 206.084 183.96 205.917 183.272 205.958C182.383 206.1 181.575 206.555 180.994 207.241C180.94 207.305 180.871 207.354 180.793 207.385C180.716 207.417 180.632 207.429 180.549 207.42C179.553 207.034 178.744 208.1 177.96 208.695C177.652 208.947 177.353 209.147 177.025 209.378C176.863 209.488 176.698 209.592 176.53 209.688C176.383 209.775 176.231 209.853 176.075 209.92C175.569 210.117 175.018 210.169 174.484 210.072C174.275 210.017 174.056 210.011 173.845 210.054C173.633 210.098 173.435 210.19 173.265 210.323C173.095 210.456 172.958 210.626 172.865 210.821C172.772 211.016 172.725 211.23 172.728 211.446C172.624 212.09 172.322 212.687 171.863 213.151C171.402 213.578 171.094 214.145 170.988 214.765C170.895 215.543 169.771 215.198 169.207 215.529C167.544 216.443 166.917 218.323 164.911 219.023C164.736 219.09 164.811 219.493 164.94 219.778C165.339 220.659 165.455 221.192 164.016 220.588C163.858 220.523 163.627 220.544 163.593 220.629C163.219 221.422 162.682 222.127 162.017 222.699C161.531 223.31 161.187 224.021 161.009 224.781C160.969 224.882 160.943 225.071 161.039 225.138C161.606 225.531 162.918 225.779 162.313 226.349C162.004 226.653 161.531 226.873 161.254 227.208C160.629 227.98 161.628 229.489 163.311 230.35C164.684 231.075 166.142 231.626 167.651 231.991C167.971 232.086 168.31 232.096 168.636 232.022C168.949 231.868 169.199 231.609 169.343 231.29C169.619 230.631 169.555 229.78 170.065 229.228C170.294 228.968 170.494 228.692 170.698 228.419C170.787 228.798 170.946 229.156 171.167 229.476C171.244 229.641 171.279 229.823 171.268 230.004C171.257 230.186 171.2 230.362 171.103 230.516C170.805 230.9 170.657 231.379 170.687 231.863C170.718 232.348 170.924 232.805 171.268 233.148C171.587 233.505 171.925 233.845 172.281 234.166L172.755 234.649L173.335 235.221L173.618 235.51L173.968 235.824C174.211 236.035 174.417 236.244 174.692 236.461L175.571 237.112C175.877 237.327 176.245 237.524 176.601 237.726C177.276 238.052 178.042 238.143 178.775 237.985C179.106 237.921 179.433 237.857 179.76 237.793C180.055 237.72 180.358 237.683 180.662 237.682C180.957 237.689 181.249 237.617 181.507 237.473C181.742 237.345 181.956 237.182 182.142 236.99C182.421 236.628 182.73 236.29 183.066 235.979C183.523 235.582 183.942 235.143 184.318 234.669C184.586 234.473 184.811 234.224 184.98 233.939C185.149 233.653 185.258 233.336 185.301 233.007C185.298 232.292 186.328 232.348 186.082 231.504C186.065 231.447 186.06 231.387 186.067 231.327C186.073 231.268 186.092 231.211 186.121 231.159C186.151 231.107 186.19 231.062 186.238 231.026C186.285 230.989 186.339 230.963 186.397 230.948C186.732 230.858 187.048 230.707 187.328 230.501C187.356 230.56 187.371 230.621 187.402 230.68C187.69 231.218 188.149 231.644 188.708 231.89C189.085 232.06 189.5 232.13 189.913 232.094C190.202 232.066 190.483 231.982 190.74 231.845L190.901 231.749C190.943 231.718 190.933 231.695 190.981 231.66L191.178 231.463C191.483 231.145 191.857 231.256 192.263 231.269C192.661 231.293 193.108 231.254 193.271 230.682C193.324 230.467 193.725 230.51 194.016 230.546C194.156 230.586 194.303 230.597 194.448 230.579C194.593 230.56 194.732 230.512 194.858 230.438C194.984 230.364 195.093 230.265 195.179 230.147C195.265 230.029 195.327 229.895 195.359 229.753C195.495 229.137 195.769 228.869 196.511 228.809C196.881 228.824 197.248 228.735 197.571 228.553C197.893 228.371 198.159 228.102 198.337 227.777C198.537 227.336 198.502 226.896 199.253 226.661C199.646 226.534 200.008 226.328 200.319 226.057C200.631 225.785 200.884 225.454 201.064 225.082C201.971 224.698 202.757 224.074 203.336 223.277C203.416 223.187 203.526 223.129 203.645 223.113C203.764 223.097 203.885 223.124 203.987 223.189C204.234 223.293 204.501 223.345 204.769 223.342C205.038 223.338 205.303 223.279 205.548 223.168C205.757 223.053 205.938 222.894 206.08 222.702C206.241 222.532 206.48 222.386 206.665 222.587C207.079 222.99 207.225 222.076 207.545 221.842C207.742 221.68 207.995 221.601 208.25 221.621C208.504 221.641 208.742 221.758 208.911 221.949C208.965 221.941 208.963 221.95 209 221.937C209.015 221.932 209.006 221.932 209.014 221.925L209.155 221.686C209.247 221.53 209.359 221.385 209.487 221.257C209.605 221.182 209.723 221.108 209.873 221.014C210.596 220.542 211.285 220.021 211.936 219.456C212.396 219.145 212.716 218.667 212.83 218.125C212.9 217.573 212.992 216.746 212.623 216.422ZM179.972 228.728H179.972L179.973 228.733L179.972 228.728ZM209.422 221.298L209.44 221.287L209.43 221.294L209.422 221.298Z" fill="#80829B"/>
<path d="M198.693 204.48C198.361 203.619 197.756 202.891 196.971 202.406C196.328 202.025 195.613 201.78 194.871 201.686C193.613 201.512 192.335 201.538 191.084 201.764C190.432 201.901 189.772 201.995 189.107 202.045C188.441 202.07 187.726 202.211 186.959 202.202C186.671 202.211 186.384 202.251 186.103 202.32C184.909 201.202 183.416 200.454 181.805 200.167C180.15 199.802 178.485 199.598 176.636 199.215C176.33 199.156 176.013 199.184 175.721 199.295C174.937 199.587 174.178 199.864 173.394 200.09C173.023 200.196 172.573 200.31 172.256 200.374C172.034 200.411 171.81 200.438 171.584 200.461C170.679 200.523 169.781 200.665 168.902 200.885C167.517 201.353 166.082 201.706 164.744 202.299C163.453 202.84 162.237 203.542 161.004 204.194C160.771 204.046 160.522 203.925 160.262 203.833C160.032 203.756 159.835 203.603 159.705 203.398C159.583 203.102 159.388 202.841 159.138 202.641C158.888 202.441 158.591 202.308 158.275 202.255C157.655 202.174 157.027 202.186 156.411 202.292C155.377 202.525 154.323 202.652 153.264 202.672L152.894 202.659C152.749 202.679 152.605 202.708 152.464 202.747C152.171 202.812 151.879 202.865 151.588 202.906C150.999 202.991 150.404 203.024 149.81 203.006C149.301 202.987 148.792 203.036 148.297 203.153C146.651 203.634 145.142 204.494 143.888 205.664C143.292 206.523 142.518 207.244 141.619 207.777C140.755 208.315 140.003 209.013 139.402 209.834C138.815 210.829 137.395 210.522 136.402 210.99C133.537 212.319 131.533 214.866 128.488 216.038C128.219 216.146 128.075 216.682 128.069 217.057C128.044 218.202 127.875 218.967 126.402 218.27C126.308 218.235 126.207 218.225 126.108 218.241C126.009 218.258 125.916 218.3 125.839 218.363C124.899 219.495 123.829 220.512 122.652 221.395C121.714 222.308 120.905 223.345 120.247 224.477C120.144 224.627 120.006 224.907 120.081 225.001C120.517 225.546 121.933 225.835 120.869 226.721C120.308 227.182 119.655 227.558 119.14 228.073C117.963 229.242 118.284 231.549 119.653 232.873C120.756 233.987 122.1 234.832 123.582 235.342C123.947 235.476 124.35 235.465 124.707 235.311C125.233 234.951 125.689 234.497 126.052 233.973C126.453 233.387 126.784 232.745 127.136 232.116C127.49 231.497 127.919 230.923 128.411 230.407C129.083 229.748 129.739 229.076 130.392 228.402C130.363 228.487 130.32 228.559 130.297 228.648C130.099 229.164 129.783 229.625 129.375 229.997C129.172 230.245 128.997 230.514 128.852 230.8C128.697 231.142 128.626 231.515 128.643 231.889C128.563 232.641 128.426 233.386 128.233 234.117C128.078 234.838 128.096 235.586 128.285 236.299C128.406 236.682 128.563 237.053 128.753 237.407C128.849 237.587 128.953 237.763 129.064 237.934C129.165 238.067 129.272 238.197 129.384 238.326C129.611 238.585 129.854 238.83 130.111 239.058C130.268 239.197 130.31 239.226 130.381 239.283L130.589 239.443C130.869 239.652 131.16 239.852 131.458 240.042C132.802 240.777 134.281 241.234 135.806 241.383C137.581 241.559 139.373 241.34 141.053 240.742C142.505 240.235 143.873 239.515 145.115 238.608C146.03 237.952 147.155 237.758 147.916 237.093C148.813 236.271 149.152 234.97 149.832 234.065C151.721 231.588 153.147 229.021 155.067 226.772C155.776 225.946 157.13 225.517 157.232 224.339C157.327 223.158 158.583 222.63 158.55 221.431C158.562 221.094 158.887 220.983 159.33 220.346C159.744 219.82 160.039 219.21 160.194 218.559C160.349 217.908 160.361 217.231 160.228 216.574C160.689 216.504 161.159 216.515 161.617 216.606C162.6 215.785 163.778 215.23 165.037 214.997C165.66 214.943 166.165 214.419 166.718 214.086C166.848 213.979 166.964 213.858 167.064 213.723C167.485 213.24 167.999 212.845 168.574 212.562C169.149 212.279 169.775 212.113 170.414 212.073C170.396 212.113 170.377 212.153 170.358 212.193C169.877 213.18 168.177 212.703 167.925 214.074C167.877 214.32 167.378 214.452 167.042 214.524C166.677 214.57 166.334 214.727 166.061 214.974C165.788 215.221 165.598 215.547 165.518 215.906C165.47 216.264 165.316 216.599 165.074 216.867C164.832 217.135 164.514 217.323 164.163 217.406C163.717 217.513 163.302 217.72 162.948 218.011C162.594 218.301 162.31 218.668 162.118 219.084C161.825 219.745 161.629 220.427 160.906 220.757C159.773 221.425 158.895 222.451 158.409 223.672C157.972 224.518 157.555 225.352 157.126 226.328C156.882 226.862 156.668 227.409 156.487 227.967C156.214 228.758 156.104 229.597 156.163 230.432C156.229 231.004 156.4 231.559 156.668 232.068C156.956 232.575 157.332 233.025 157.779 233.398C158.365 233.856 159.003 234.243 159.681 234.549C160.837 235.046 162.048 235.402 163.289 235.608C165.051 235.926 166.868 235.694 168.494 234.945C170.162 234.309 171.634 233.247 172.762 231.863C173.698 230.488 175.505 230.186 176.406 228.869C176.716 228.389 177.162 227.996 177.498 227.539C178.916 225.682 180.16 223.801 181.347 221.921C182.009 222.19 182.775 222.701 183.422 222.557C185.226 222.223 187.193 222.312 188.989 221.59C189.618 221.355 190.185 220.981 190.649 220.495C191.115 219.948 191.366 219.25 191.355 218.531C191.349 217.905 191.488 217.424 192.192 217.316C192.57 217.235 192.918 217.055 193.203 216.794C193.487 216.533 193.696 216.2 193.808 215.831C194.064 215.226 194.28 214.605 194.456 213.971C194.64 213.404 194.751 212.849 194.871 212.358C194.919 212.213 195.617 211.978 196.059 211.858C196.874 211.655 197.649 211.316 197.868 210.701C198.027 210.249 198.173 209.833 198.308 209.449C198.403 209.075 198.491 208.732 198.572 208.415C198.725 207.881 198.839 207.337 198.912 206.787C199.037 206.012 198.962 205.218 198.693 204.48ZM133.407 234.284L133.409 234.284C133.393 234.292 133.377 234.299 133.36 234.305C133.33 234.315 133.395 234.287 133.407 234.284V234.284ZM136.627 235.067L136.627 235.066L136.627 235.067ZM143.129 228.185C142.456 228.502 141.82 228.892 141.234 229.35C140.971 229.612 140.694 229.86 140.404 230.092C140.769 229.718 141.086 229.298 141.347 228.845C141.619 228.246 142.027 227.718 142.538 227.304C143.048 226.889 143.649 226.599 144.291 226.457C144.158 226.68 144.052 226.919 143.976 227.168C143.918 227.389 143.812 227.595 143.665 227.771C143.519 227.946 143.336 228.088 143.129 228.185V228.185ZM168.02 225.151C167.975 225.274 167.893 225.379 167.785 225.454C167.789 225.443 167.797 225.434 167.801 225.424C168.589 223.264 169.979 221.374 171.807 219.978C171.364 220.664 170.884 221.326 170.368 221.959C169.481 223.027 168.459 223.844 168.02 225.151L168.02 225.151ZM188.967 210.98C188.25 211.147 188.332 211.074 188.319 211.109C188.421 211.155 188.516 211.215 188.6 211.287C188.709 211.37 188.692 211.494 188.488 211.384C188.43 211.359 188.407 211.329 188.367 211.338C188.283 211.387 188.207 211.449 188.142 211.522C188.014 211.675 187.917 211.851 187.854 212.04C187.735 212.446 187.566 212.836 187.349 213.199C186.923 213.744 186.39 214.197 185.784 214.53C186.253 213.716 186.721 212.892 187.141 212.065C187.277 211.777 187.406 211.486 187.527 211.196C187.748 211.151 187.967 211.093 188.182 211.024C188.267 211.064 188.154 210.992 188.312 210.535C188.436 210.177 188.619 210.179 188.547 210.458C188.509 210.621 188.445 210.777 188.358 210.92C188.322 210.98 188.28 211.035 188.231 211.085C188.412 210.958 188.62 210.875 188.838 210.84C188.974 210.813 189.112 210.799 189.25 210.799C189.4 210.8 189.256 210.908 188.967 210.98L188.967 210.98Z" fill="#006ADC"/>
<path d="M187.958 46.69C187.734 46.214 187.372 45.8166 186.919 45.5498C186.551 45.3439 186.144 45.2188 185.724 45.1826C185.072 45.143 184.417 45.1467 183.766 45.1936C183.198 45.21 182.629 45.1869 182.065 45.1245C181.449 45.1067 180.722 45.1217 179.845 45.0728C179.036 45.0752 178.23 45.1745 177.445 45.3685C177.075 45.4381 176.703 45.5054 176.328 45.579C176.321 43.5795 175.723 41.6675 174.193 40.7963C174.03 40.6307 173.939 40.4083 173.939 40.1765C174.031 39.9907 174.084 39.7884 174.096 39.5815C174.107 39.3747 174.077 39.1676 174.007 38.9727C173.937 38.7777 173.829 38.5988 173.688 38.4467C173.547 38.2946 173.378 38.1723 173.189 38.0873C172.455 37.7767 171.695 37.5328 170.918 37.3585C169.108 36.807 167.182 36.7584 165.347 37.218C164.862 37.3269 164.378 37.4317 163.89 37.5201C163.413 37.613 162.981 37.7083 162.513 37.7774L162.164 37.8273C162.048 37.8424 161.998 37.8419 161.91 37.8483C161.753 37.8566 161.594 37.8602 161.433 37.8575C161.104 37.8516 160.776 37.8235 160.451 37.7733C160.256 37.7434 160.056 37.788 159.891 37.8982C158.281 39.0953 156.278 38.8517 154.565 39.5393C153.185 40.0927 151.783 40.5716 150.47 41.2253C150.065 41.4262 149.67 41.6414 149.278 41.8625C148.882 41.5799 148.471 41.32 148.046 41.0843C147.76 40.9401 147.492 40.7628 147.247 40.556C147.037 40.3445 146.843 40.1173 146.668 39.8762C146.523 39.6526 146.33 39.4638 146.103 39.3234C145.876 39.1829 145.622 39.0942 145.357 39.0637C145.282 39.0528 145.206 39.0471 145.131 39.0468L144.809 39.1227C144.581 39.1842 144.356 39.2574 144.135 39.342C143.635 39.5354 143.154 39.7728 142.696 40.0515C141.242 40.8471 139.674 41.775 138.241 42.4511C137.878 42.631 137.523 42.7945 137.16 42.9895C136.793 43.1973 136.427 43.4102 136.066 43.6335C135.331 44.0776 134.637 44.5851 133.991 45.1501C133.385 45.6896 132.644 46.0567 131.848 46.2131C131.015 46.36 130.198 46.5851 129.408 46.8855C129.11 47.0169 128.845 47.1579 128.563 47.3012L128.029 47.564C127.677 47.7448 127.332 47.9371 126.991 48.1362C126.318 48.5504 125.663 48.9968 124.996 49.422C123.696 50.3523 122.266 51.0871 120.752 51.6033C120.472 51.6889 120.276 52.2098 120.237 52.5852C120.125 53.752 119.87 54.4963 118.454 53.6673C118.362 53.6238 118.261 53.6046 118.16 53.6118C118.059 53.6189 117.961 53.6521 117.877 53.7081C116.832 54.7644 115.662 55.6896 114.394 56.4634C113.354 57.2782 112.427 58.2268 111.636 59.2846C111.517 59.4246 111.348 59.6915 111.411 59.7936C111.783 60.3869 113.16 60.8231 111.997 61.605C111.344 61.9569 110.71 62.3428 110.097 62.7608C108.788 63.8032 108.775 66.1254 109.961 67.637C110.505 68.3407 111.133 68.975 111.831 69.5257C111.123 70.0212 110.569 70.706 110.233 71.5018C109.906 72.2427 109.758 73.0496 109.8 73.858C109.859 75.0854 110.359 76.2504 111.209 77.1383C111.556 77.5088 111.952 77.8295 112.387 78.0913C112.714 78.2932 113.06 78.462 113.42 78.5953C113.703 78.7018 113.991 78.7915 114.284 78.864C114.521 78.9153 114.761 78.9615 115 79.0023C115.443 79.0664 115.827 79.0925 116.208 79.1144C116.548 79.1204 116.92 79.1373 117.234 79.1327C117.6 79.1245 118.003 79.13 118.339 79.1035C118.705 79.0928 119.071 79.0614 119.434 79.0096L120.673 78.8032L121.291 78.6855L121.83 78.5248C123.202 78.1285 124.533 77.5988 125.803 76.9433C126.716 76.4439 127.879 76.5002 128.675 75.9957C129.695 75.4011 130.244 74.2017 131.111 73.4835C133.467 71.5064 135.527 69.3623 138.003 67.6419C138.895 66.9928 140.363 66.9347 140.765 65.7866C140.997 65.2725 141.375 64.8382 141.853 64.5383C142.155 64.2921 142.432 64.0154 142.678 63.7125C142.963 63.3844 143.193 63.0127 143.36 62.6116C143.522 62.2055 144.184 61.8128 144.662 61.4287C145.274 60.9377 145.747 60.2953 146.034 59.5652C146.251 59.0172 146.33 58.4245 146.264 57.8389C146.171 57.4863 146.195 57.113 146.333 56.7754C146.471 56.4378 146.715 56.1543 147.029 55.9676C147.129 55.8902 147.22 55.8083 147.316 55.7286C147.428 55.7369 147.536 55.7328 147.652 55.7502C148.694 54.8818 149.926 54.2689 151.247 53.9604C151.898 53.8651 152.414 53.292 152.986 52.9258C153.119 52.812 153.238 52.6826 153.34 52.5404C153.822 51.9374 154.433 51.4505 155.128 51.1157C155.823 50.7808 156.585 50.6066 157.356 50.6059C157.437 50.5967 157.513 50.5628 157.574 50.5088C157.635 50.4548 157.677 50.3833 157.696 50.3042C157.695 48.9126 158.572 49.0188 159.409 48.9021C160.05 48.7249 160.645 48.4094 161.151 47.9778C161.741 47.5532 162.378 47.1987 163.05 46.9218C163.381 46.7954 163.726 46.7127 164.078 46.6755C164.409 46.6508 164.89 46.6274 164.993 46.8C165.251 46.9749 165.348 47.0312 165.438 47.012C165.726 46.9453 166.027 46.9589 166.307 47.0513C166.58 47.1804 166.828 47.355 167.042 47.5677C166.866 47.6826 166.697 47.8044 166.54 47.9284C165.529 48.6881 164.366 49.2198 163.13 49.4871C161.979 49.8844 161.005 50.7423 159.781 51.1822C159.18 51.4123 158.611 51.7196 158.088 52.0964C157.552 52.4662 157.047 52.8869 156.481 53.1996C155.654 53.6509 155.467 54.8008 154.482 55.0315C153.471 55.2586 153.063 56.116 152.665 56.9903C152.185 58.0111 150.43 57.5447 150.198 58.9647C150.156 59.221 149.645 59.3648 149.299 59.443C148.925 59.4986 148.577 59.6679 148.302 59.9279C148.028 60.1878 147.84 60.526 147.764 60.8964C147.712 61.2616 147.555 61.6038 147.312 61.8815C147.07 62.1592 146.752 62.3604 146.397 62.4606C145.947 62.5928 145.53 62.8198 145.175 63.1264C144.82 63.433 144.535 63.8121 144.338 64.2381C144.058 64.9303 143.886 65.6375 143.141 66.0133C142.399 66.4019 141.813 67.0328 141.48 67.8009C141.182 68.404 141.009 69.0612 140.971 69.7331C140.921 70.6062 141.132 71.4743 141.577 72.2274C141.895 72.7733 142.332 73.2404 142.856 73.5938C143.305 73.8962 143.805 74.1135 144.333 74.2347C145.077 74.3964 145.844 74.4246 146.598 74.318C147.199 74.2415 147.796 74.131 148.385 73.9871C148.868 73.8508 149.361 73.7523 149.859 73.6923C151.668 73.4859 153.355 72.6637 155.176 72.2654C156.476 72.0002 157.723 71.5251 158.87 70.8587C160.272 70.1961 161.543 69.2855 162.62 68.1707C163.615 66.9297 165.465 66.8688 166.557 65.632C166.948 65.1715 167.458 64.8149 167.872 64.3644C169.467 62.7026 170.886 60.881 172.107 58.9285C172.353 59.351 172.601 59.7735 172.844 60.2029C172.975 60.4821 173.168 60.7281 173.408 60.9227C173.648 61.1173 173.928 61.2556 174.228 61.3272C174.958 61.6216 175.754 61.7116 176.531 61.5876C177.54 61.1738 178.682 60.8461 179.829 60.3586C181.026 59.8945 182.16 59.2824 183.204 58.5367C184.647 57.4719 185.623 56.0492 184.709 55.1506C184.353 54.8022 184.294 54.5029 185.138 53.959C186.09 53.3594 186.437 52.6901 186.406 52.1412C186.393 51.688 186.355 51.2513 186.374 50.8247L186.369 50.1577L186.36 49.8098C186.356 49.6885 186.246 49.613 186.187 49.5118C186.163 49.4821 186.215 49.4116 186.318 49.3145C186.379 49.2619 186.442 49.2065 186.508 49.1497C186.557 49.1027 186.602 49.0522 186.644 48.9987C186.819 48.8005 187.028 48.5812 187.187 48.4274C187.79 47.8615 188.232 47.2723 187.958 46.69ZM174.593 55.2173C174.4 55.3211 174.194 55.3952 173.979 55.437C174.091 55.1939 174.213 54.9591 174.318 54.7119C174.449 54.7174 174.577 54.7459 174.697 54.7961C174.908 54.927 174.79 55.101 174.593 55.2173Z" fill="#006ADC"/>
</svg>
