<svg width="300" height="300" viewBox="0 0 300 300" fill="none" xmlns="http://www.w3.org/2000/svg">
<path d="M214.608 220.076C214.509 219.739 214.387 219.41 214.241 219.092C214.129 218.759 213.985 218.439 213.81 218.135C213.579 217.752 213.321 217.312 213.111 216.993L212.612 216.223C212.274 215.708 211.917 215.184 211.541 214.653C210.516 213.177 209.215 211.775 208.122 210.118C207.662 209.428 206.989 208.907 206.206 208.633C205.209 208.341 204.267 208.097 203.363 207.853L201.788 207.431C201.469 207.341 201.177 207.296 200.878 207.239C200.577 207.181 200.282 207.131 200.007 207.104C198.98 206.977 197.946 206.916 196.912 206.922C195.968 206.917 195.099 206.943 194.3 206.97C192.92 207.059 191.535 207.035 190.159 206.899L189.973 206.867L189.879 206.851L189.73 206.811L189.133 206.647L187.94 206.327C187.542 206.227 187.142 206.137 186.739 206.065C186.336 205.993 185.941 205.867 185.532 205.808C184.807 205.648 184.129 205.32 183.555 204.85C183.004 204.357 182.393 203.937 181.735 203.598C181.171 203.36 180.543 203.197 179.968 202.918C179.376 202.618 178.876 202.164 178.521 201.604C176.882 201.591 175.98 200.202 174.801 199.372C173.735 198.597 172.576 197.958 171.353 197.469C170.323 197.043 169.434 196.338 168.783 195.434C167.668 194.016 166.444 192.688 165.122 191.462C164.482 190.838 163.831 190.226 163.129 189.654C162.78 189.367 162.422 189.086 162.055 188.811L160.988 187.947C160.55 187.585 160.22 187.107 160.037 186.569C159.924 186.249 159.786 185.939 159.624 185.641C159.482 185.341 159.324 185.048 159.148 184.766C158.801 184.205 158.402 183.678 158.002 183.142C157.297 182.258 156.141 181.72 155.878 180.523C155.737 179.957 155.399 179.459 154.924 179.12C154.469 178.776 154.04 178.398 153.64 177.991C152.94 177.176 152.377 176.253 151.971 175.258C151.753 174.757 151.545 174.238 151.334 173.703C151.229 173.436 151.123 173.165 151.015 172.889C150.927 172.607 150.838 172.321 150.747 172.03C150.447 171.328 150.112 170.543 149.759 169.717C149.441 168.882 149.169 167.991 148.851 167.107C148.598 166.377 148.068 166.146 147.454 166.466C146.676 166.876 145.919 167.325 145.132 167.729C144.838 167.863 144.58 168.063 144.376 168.313C144.172 168.564 144.03 168.858 143.959 169.173C143.636 169.977 143.479 170.837 143.498 171.703C144.097 173.747 143.992 175.982 144.737 178.008C144.955 178.73 145.306 179.405 145.772 179.998C146.299 180.583 146.998 180.988 147.769 181.152C148.409 181.293 148.905 181.578 148.934 182.385C148.967 182.81 149.098 183.222 149.317 183.588C149.537 183.953 149.838 184.262 150.198 184.491C151.363 185.361 152.539 186.241 153.727 187.129C153.91 187.269 153.81 187.903 153.668 188.255C153.497 188.529 153.413 188.849 153.429 189.172C153.445 189.495 153.559 189.805 153.756 190.062C156.308 192.468 158.647 195.091 160.747 197.9C161.279 198.562 161.906 199.147 162.503 199.757C163.506 200.697 164.598 201.542 165.597 202.488C166.675 203.387 167.632 204.42 168.445 205.564C169.139 206.419 170.085 207.031 171.149 207.313C171.849 207.558 172.519 207.883 173.144 208.282C173.781 208.663 174.397 209.079 174.989 209.528C175.587 209.95 176.236 210.296 176.92 210.556C177.636 210.809 178.322 211.137 178.968 211.536C180.219 212.422 181.865 212.587 183.29 213.174C184.325 213.633 185.508 213.027 186.498 213.685C187.006 213.955 187.566 214.113 188.14 214.147C188.714 214.182 189.289 214.093 189.825 213.885C191.178 213.517 192.464 214.933 193.714 213.999C193.941 213.827 194.494 214.038 194.834 214.198C195.171 214.39 195.553 214.49 195.94 214.488C196.328 214.486 196.708 214.382 197.043 214.186C197.313 213.965 197.655 213.852 198.003 213.867C198.351 213.883 198.682 214.025 198.931 214.268C199.06 214.416 199.199 214.554 199.346 214.682C199.463 214.81 199.599 214.919 199.75 215.004C200.144 215.237 200.58 215.39 201.033 215.455C201.731 215.561 202.475 215.613 202.88 216.296C203.566 217.263 204.405 218.111 205.365 218.807C205.767 219.175 206.143 219.572 206.487 219.995C206.66 220.216 206.834 220.432 206.99 220.673L207.178 220.96C207.225 221.035 207.266 221.114 207.307 221.192C207.421 221.376 207.486 221.586 207.496 221.801C207.506 222.017 207.46 222.232 207.363 222.425C207.24 222.692 207.12 222.932 207.001 223.156C206.949 223.276 206.881 223.357 206.808 223.523C206.735 223.692 206.652 223.858 206.56 224.018C206.226 224.703 205.754 225.311 205.174 225.806C204.81 226.095 204.43 226.363 204.035 226.608C203.729 226.798 203.596 226.822 203.389 226.947C203.306 226.984 203.219 227.011 203.13 227.027C203.044 227.037 203.023 227.038 202.885 227.063L202.497 227.135L202.11 227.216L201.757 227.261C201.522 227.298 201.29 227.35 201.061 227.416C200.845 227.454 200.634 227.517 200.433 227.605C200.21 227.686 199.966 227.691 199.74 227.619C199.555 227.529 199.39 227.402 199.255 227.247L198.885 226.773C198.809 226.691 198.728 226.614 198.644 226.542C198.596 226.503 198.546 226.469 198.494 226.438L198.454 226.416L198.351 226.346L198.132 226.204C197.284 225.575 196.378 225.028 195.427 224.57C194.213 224.078 192.886 223.93 191.593 224.144C191.276 224.215 190.963 224.309 190.648 224.39C190.49 224.429 190.335 224.481 190.175 224.509L189.722 224.723L187.914 225.574C186.991 226.072 186.104 226.633 185.259 227.254L184.142 228.101L183.101 228.996C180.603 231.322 178.312 233.861 176.256 236.585C175.2 237.917 174.11 239.182 173.946 240.933C173.909 241.015 173.85 241.085 173.776 241.136C173.701 241.186 173.614 241.214 173.524 241.217C171.547 240.641 171.857 242.418 171.178 243.146C170.331 244.071 169.723 244.925 168.758 245.938C167.884 246.941 166.775 247.712 165.53 248.182C165.338 248.25 165.176 248.385 165.073 248.562C164.097 250.412 162.065 251.02 160.658 252.226C159.508 253.22 158.271 254.029 157.139 254.924C155.918 255.93 154.644 256.868 153.321 257.734C151.829 258.612 150.165 258.965 148.773 259.808C148.447 259.996 148.088 260.118 147.714 260.168C147.392 260.172 147.07 260.154 146.75 260.113C146.441 260.102 146.111 259.993 145.798 259.966C145.48 259.941 145.16 259.955 144.845 260.009C144.251 260.066 143.652 260.067 143.058 260.011C142.79 260.033 142.531 260.12 142.304 260.265C142.077 260.409 141.889 260.607 141.756 260.84C141.483 261.265 141.141 261.447 140.891 261.229C140.388 260.663 139.764 260.22 139.064 259.932C138.365 259.644 137.609 259.518 136.854 259.565C136.691 259.549 136.54 259.476 136.425 259.36C136.31 259.244 136.239 259.092 136.223 258.93C136.212 258.515 136.099 258.109 135.895 257.748C135.711 257.427 135.419 257.182 135.072 257.056C133.586 256.429 132.378 255.045 132.7 253.55C132.733 253.398 132.713 253.24 132.644 253.101C132.613 252.964 132.561 252.832 132.491 252.71C132.373 252.456 132.168 252.196 132.375 251.886C132.565 251.573 132.395 251.323 132.243 251.02C132.082 250.72 131.985 250.389 131.958 250.05C131.941 249.776 132.014 249.536 132.018 249.268C132.018 249 132.051 248.734 132.116 248.474C132.263 248.173 132.386 247.86 132.483 247.538C132.629 247.202 132.703 246.839 132.703 246.472C132.667 246.039 133.009 245.812 133.307 245.578C133.471 245.465 133.609 245.318 133.711 245.146C133.813 244.975 133.878 244.784 133.9 244.585C133.934 244.423 134.014 244.274 134.13 244.154C134.245 244.035 134.392 243.951 134.553 243.911C136.502 243.588 137.899 242.476 139.718 241.805C141.905 241.056 144.172 240.564 146.473 240.34C147.397 240.248 148.27 240.759 149.09 240.764C149.612 240.737 150.125 240.624 150.611 240.431C151.115 240.264 151.637 240.16 152.165 240.12C153.838 240.151 155.64 240.153 157.429 240.142L163.042 240.109C163.759 240.123 164.54 240.253 165.32 240.311C166.13 240.392 166.945 240.206 167.641 239.782C168.402 239.339 169.21 238.982 170.05 238.718C170.966 238.421 171.778 237.867 172.387 237.121C172.879 236.651 173.428 236.246 174.023 235.916C174.749 235.338 175.29 234.562 175.581 233.681C175.81 232.91 175.857 232.096 175.719 231.304C175.444 230.436 175.495 229.498 175.861 228.665C176.086 228.24 176.233 227.779 176.296 227.303C176.384 226.813 176.414 226.314 176.386 225.817C176.317 224.833 176.173 223.856 175.957 222.894C175.675 221.402 175.12 219.976 174.32 218.687C173.606 217.539 172.527 216.665 171.257 216.204C171.021 216.114 170.826 215.941 170.708 215.717C170.129 214.166 168.685 213.869 167.507 213.254C166.623 212.817 165.782 212.3 164.993 211.709C164.27 211.152 163.674 210.447 163.244 209.642C162.935 209.024 162.474 208.494 161.904 208.102C161.334 207.71 160.674 207.469 159.985 207.402C157.703 207.083 156.346 205.143 154.201 204.462C153.022 204.079 152.863 202.582 152.18 201.637C150.189 198.975 147.335 196.928 146.22 193.648C146.113 193.369 145.589 193.159 145.204 193.108C144.031 192.951 143.236 192.602 144.113 191.219C144.161 191.126 144.184 191.024 144.182 190.92C144.179 190.816 144.15 190.714 144.098 190.624C143.59 190.05 143.134 189.432 142.735 188.777C142.358 188.106 142.017 187.416 141.712 186.71C141.07 185.514 140.333 184.371 139.508 183.293C139.407 183.134 139.197 182.887 139.081 182.917C138.402 183.094 137.613 184.34 137.152 182.901C136.9 182.153 136.869 181.327 136.62 180.588C136.233 179.73 135.571 179.025 134.74 178.585C133.908 178.145 132.954 177.993 132.027 178.155C130.461 178.357 128.986 179.008 127.782 180.029C127.623 180.176 127.498 180.355 127.414 180.554C127.33 180.753 127.289 180.968 127.294 181.184C127.405 182.049 127.656 182.892 128.037 183.677C128.499 184.549 129.027 185.393 129.559 186.227C130.115 187.036 130.603 187.889 131.017 188.779C133.346 193.769 136.776 198.115 140.241 202.34C142.607 205.223 145.398 207.684 147.459 210.876C148.733 211.712 149.875 212.734 150.848 213.907C153.654 214.849 155.602 217.037 158.105 218.413C158.664 218.724 159.253 219.107 159.752 219.417L161.251 220.35C162.204 220.972 163.252 221.436 164.353 221.725C164.853 221.924 165.297 222.244 165.644 222.656C166.476 223.38 167.2 224.218 167.796 225.146C168.25 225.832 168.494 226.635 168.501 227.458C168.52 227.854 168.452 228.248 168.301 228.615C168.15 228.981 167.921 229.31 167.63 229.578C167.338 229.846 166.991 230.046 166.613 230.165C166.236 230.285 165.836 230.319 165.444 230.267C164.865 230.288 164.292 230.388 163.741 230.565C162.556 230.694 161.393 230.979 160.282 231.412C159.014 232.038 157.763 230.868 156.426 231.138C155.864 231.258 155.258 231.198 154.695 231.362C154.125 231.509 153.522 231.465 152.981 231.235C151.871 230.83 150.705 230.598 149.524 230.547C146.18 230.62 142.959 230.879 139.52 231.075C139.039 231.112 138.588 231.321 138.248 231.663C137.908 232.006 137.704 232.459 137.671 232.94C137.575 233.499 137.212 233.605 136.601 233.579C135.988 233.565 135.378 233.68 134.812 233.916C134.246 234.153 133.736 234.505 133.314 234.951C132.701 235.702 131.879 236.255 130.952 236.54C130.472 236.694 130.009 236.9 129.572 237.153C129.129 237.447 128.704 237.767 128.3 238.113C128.042 238.327 127.789 238.547 127.54 238.773C127.3 239.013 127.077 239.285 126.851 239.546C126.386 240.065 125.958 240.616 125.568 241.194C125.182 241.791 124.809 242.396 124.448 243.007C124.15 243.665 123.866 244.331 123.6 245.001C123.256 245.795 123.056 246.644 123.008 247.508C122.987 247.995 123.004 248.474 123.008 248.952C123.006 249.429 122.984 249.903 122.964 250.375C122.942 251.329 123.056 252.281 123.301 253.203C123.487 253.736 123.697 254.254 123.858 254.77C123.942 255.029 124.019 255.287 124.089 255.544L124.363 256.294C124.533 256.801 124.676 257.317 124.793 257.839C124.958 258.36 125.089 258.891 125.185 259.428C125.312 260.237 125.63 261.005 126.112 261.667C128.093 264.254 130.591 266.593 133.686 266.938C134.742 267.072 135.332 267.845 136.129 268.461C136.765 268.821 137.476 269.027 138.205 269.064C139.177 268.939 140.165 269.091 141.055 269.501C141.606 269.797 142.203 269.999 142.82 270.098C143.445 270.173 144.082 270.198 144.707 270.294C146.128 270.426 147.56 270.393 148.973 270.194C149.333 270.165 149.691 270.137 150.047 270.108C150.379 270.071 150.713 270.045 151.051 270.034C151.738 270.02 152.426 270.059 153.108 270.151C154.864 269.29 156.677 268.553 158.536 267.946C159.427 267.572 160.245 267.042 160.949 266.381C161.125 266.222 161.284 266.046 161.427 265.856C162.721 264.234 164.411 262.97 166.333 262.188C166.497 262.128 166.721 261.849 166.698 261.709C166.443 260.253 167.476 259.956 168.419 259.378C169.115 258.857 169.704 258.205 170.152 257.46C171.288 255.903 172.358 254.398 174.175 253.6C174.751 253.324 175.269 252.938 175.697 252.464L176.69 251.42L177.753 250.256C178.42 249.475 179.081 248.685 179.666 247.888C180.824 246.358 181.832 244.718 182.674 242.993C183.078 242.329 183.517 241.685 183.989 241.066C184.467 240.231 185.152 239.533 185.979 239.04C186.304 238.856 186.586 238.603 186.806 238.3C187.025 237.997 187.177 237.651 187.252 237.284C187.331 236.949 187.513 236.474 187.797 236.432C189.203 236.164 189.9 235.253 190.788 234.548C190.954 234.406 191.129 234.274 191.313 234.155C191.486 234.032 191.697 233.888 191.745 233.84C191.851 233.752 191.961 233.67 192.076 233.594C192.183 233.507 192.314 233.457 192.451 233.45C192.588 233.443 192.724 233.48 192.839 233.556C192.929 233.625 193.015 233.701 193.094 233.783L193.175 233.854L193.216 233.888C193.249 233.915 193.284 233.94 193.321 233.962C193.598 234.148 193.874 234.328 194.162 234.501C195.44 235.254 196.905 235.63 198.387 235.585C198.848 235.551 199.31 235.601 199.753 235.732C200.161 235.83 200.576 235.902 200.994 235.947C201.703 236.007 202.415 236.03 203.127 236.016C203.767 236.012 204.398 235.863 204.972 235.579L205.455 235.37C205.964 235.1 206.487 234.897 206.989 234.654C207.485 234.396 207.963 234.104 208.418 233.779C208.867 233.475 209.277 233.118 209.64 232.716C209.965 232.375 210.232 231.984 210.433 231.559C210.977 230.38 211.47 229.344 212.014 228.332C212.565 227.297 213.198 226.412 213.959 225.22C214.828 223.652 215.06 221.81 214.608 220.076Z" fill="#006ADC"/>
<path d="M183.634 210.903C183.169 210.821 182.722 210.658 182.313 210.421C181.797 210.004 181.55 209.21 181.015 208.975C180.567 208.769 179.643 209.358 179.224 209.099C177.359 207.952 175.53 207.99 173.844 207.543C173.581 207.468 173.31 207.42 173.036 207.401C172.772 207.354 172.497 207.319 172.236 207.25C171.987 207.172 171.756 207.045 171.556 206.877C171.355 206.661 171.22 206.392 171.169 206.101C170.923 205.896 170.564 205.569 170.534 205.527C170.329 205.343 170.082 205.213 169.815 205.147C169.468 205.04 169.142 204.873 168.854 204.653L169.514 202.621C169.772 201.787 170.021 200.92 170.229 199.971C170.477 198.914 170.608 197.833 170.619 196.748C170.624 196.032 170.538 195.318 170.361 194.624C170.135 193.706 169.71 192.848 169.116 192.112C168.511 191.369 167.795 190.725 166.994 190.201C166.642 189.972 166.277 189.764 165.901 189.577C165.537 189.391 165.157 189.237 164.765 189.116C164.429 189.025 164.087 188.955 163.742 188.907C163.694 188.904 163.645 188.907 163.597 188.905L163.603 188.617C163.606 187.963 163.609 187.296 163.612 186.621C163.664 185.243 163.51 183.865 163.157 182.531C163.039 182.146 162.894 181.769 162.721 181.405C162.606 181.173 162.478 180.948 162.34 180.729C162.267 180.615 162.204 180.512 162.118 180.393C162.01 180.252 161.896 180.115 161.778 179.981C161.305 179.424 160.72 178.973 160.061 178.656C159.402 178.34 158.684 178.165 157.954 178.142C157.437 178.145 156.922 178.211 156.422 178.34C156.067 178.457 155.724 178.605 155.396 178.783C155.246 178.861 155.101 178.947 154.961 179.04L154.799 179.182C154.59 179.369 154.39 179.567 154.201 179.775C153.836 180.194 153.541 180.67 153.328 181.183C152.91 181.785 152.399 182.316 151.814 182.758C151.345 183.075 150.816 183.295 150.26 183.403C149.938 183.458 149.645 183.622 149.431 183.868C149.216 184.114 149.093 184.426 149.082 184.752C149.098 185.397 149.077 186.018 149.039 186.625C148.814 186.249 148.48 185.949 148.081 185.764C146.869 185.04 146.698 183.877 146.94 182.59C147.139 181.872 147.438 181.186 147.828 180.552C147.312 178.926 147.797 177.118 147.62 175.405C147.586 175.17 147.49 174.948 147.341 174.763C147.02 174.459 146.61 174.266 146.17 174.213C145.731 174.161 145.287 174.252 144.903 174.472C143.938 175.291 143.273 176.519 142.051 176.984C141.016 177.371 140.832 178.122 141.115 179.916C141.37 181.074 141.505 182.255 141.519 183.441C141.447 185.253 141.491 187.068 141.649 188.875C141.769 189.741 142.112 190.56 142.644 191.253C142.796 191.486 143.017 191.642 143.153 191.879C143.359 192.234 143.474 192.635 143.487 193.045C143.5 193.456 143.412 193.863 143.23 194.231C142.959 194.616 142.523 194.861 142.377 195.338C142.088 196.36 143 196.802 143.422 197.456C143.632 197.783 143.828 198.109 144.003 198.44C144.205 198.809 144.401 199.205 144.581 199.583C144.812 200.085 145.04 200.581 145.264 201.068C145.487 201.591 145.708 202.115 145.921 202.671C146.087 203.107 146.304 203.522 146.568 203.906C146.819 204.238 147.133 204.516 147.492 204.724C148.976 205.559 150.68 205.919 152.374 205.756C152.394 205.796 152.411 205.835 152.43 205.875C152.968 207.017 153.554 208.147 154.184 209.208C154.757 210.241 155.435 211.212 156.209 212.104C156.722 212.797 157.419 213.333 158.22 213.651C159.021 213.969 159.896 214.056 160.744 213.904C161.242 213.814 161.745 213.757 162.251 213.734C163.338 213.677 164.372 213.244 165.176 212.509C165.398 212.753 165.619 212.968 165.855 213.188C166.741 213.955 167.731 214.594 168.796 215.084C169.393 215.384 170.003 215.635 170.617 215.873C171.436 216.269 172.336 216.469 173.246 216.457C174.156 216.446 175.05 216.223 175.859 215.806C177.108 215.191 178.487 214.883 179.879 214.91C180.261 214.919 180.636 214.803 180.945 214.578C181.255 214.353 181.481 214.032 181.59 213.665C181.695 213.329 181.873 213.019 182.11 212.758C182.348 212.497 182.639 212.291 182.964 212.155C183.19 212.047 183.423 211.935 183.641 211.814C184.324 211.436 184.302 211.13 183.634 210.903ZM166.14 196.34L166.135 196.338L166.135 196.332L166.14 196.34ZM157.013 187.456C157.069 187.629 157.102 187.81 157.111 187.992C157.093 188.318 157.042 188.643 156.96 188.96C156.817 189.494 156.596 190.005 156.306 190.476C156.324 190.104 156.362 189.733 156.421 189.366C156.521 188.703 156.72 188.059 157.013 187.456ZM156.572 194.293C156.516 193.96 156.462 193.627 156.423 193.297C156.397 193.095 156.381 192.896 156.362 192.696C156.504 192.789 156.635 192.898 156.753 193.02C157.133 193.46 157.017 193.83 156.572 194.293L156.572 194.293ZM156.239 184.623L156.248 184.627L156.227 184.639L156.239 184.623ZM148.898 188.297C148.794 189.292 148.676 190.254 148.615 191.195C148.595 191.1 148.573 191.005 148.553 190.91C148.447 190.024 148.566 189.125 148.898 188.297V188.297ZM149.117 193.291C149.197 193.474 149.279 193.654 149.356 193.833C149.581 194.288 149.717 194.782 149.758 195.289L149.736 195.237C149.542 194.779 149.406 194.298 149.256 193.822C149.203 193.647 149.164 193.468 149.117 193.291V193.291Z" fill="#000638"/>
<path d="M182.301 225.077C181.991 224.113 181.357 223.286 180.507 222.736C179.702 222.55 178.985 222.095 178.473 221.447C178.062 220.906 177.736 220.305 177.507 219.665C177.163 218.658 176.264 219.022 175.916 217.702C175.69 216.634 175.065 216.703 174.36 216.747C173.668 216.801 172.918 216.776 172.783 215.686C172.758 215.255 172.635 214.835 172.424 214.458C171.657 213.391 170.577 212.59 169.333 212.165C168.995 212.006 168.649 211.843 168.31 211.666C168.368 211.402 168.418 211.134 168.458 210.862C168.707 208.788 168.574 206.685 168.066 204.659C167.638 202.689 167.115 200.892 166.672 198.805C166.599 198.505 166.463 198.224 166.273 197.98C166.044 197.629 165.769 197.311 165.454 197.035C164.745 196.365 163.908 195.846 162.993 195.507C162.181 195.176 161.298 195.062 160.429 195.179C160.246 195.205 160.065 195.245 159.888 195.298C159.619 195.372 159.367 195.441 159.137 195.504C158.637 195.652 158.169 195.893 157.758 196.215C157.716 196.253 157.401 196.417 156.949 196.752C156.433 197.166 156.001 197.675 155.678 198.252C155.313 198.918 155.075 199.647 154.978 200.4C153.547 198.906 152.154 197.39 151.638 195.271C151.319 193.907 148.326 194.166 148.177 192.721C148.01 190.875 147.98 188.875 146.827 187.275C146.653 187.012 146.419 186.794 146.144 186.64C145.868 186.485 145.56 186.399 145.244 186.388C144.929 186.378 144.616 186.442 144.33 186.577C144.045 186.712 143.796 186.913 143.605 187.164C142.525 188.914 142.1 190.988 142.404 193.021C142.482 194.011 142.807 194.965 143.35 195.796C143.892 196.627 144.634 197.309 145.508 197.779C145.713 197.873 145.465 198.359 145.42 198.672C145.133 200.693 147.164 202.913 148.048 204.527C149.078 206.348 150.318 208.041 151.744 209.572C152.304 210.19 152.155 211.161 152.41 212.011C152.667 212.288 152.995 212.49 153.358 212.594C153.722 212.698 154.106 212.701 154.471 212.602C154.894 212.503 156.396 213.453 157.947 214.017C158.441 214.208 158.945 214.372 159.456 214.507C159.614 215.254 160.008 215.93 160.58 216.436C161.29 217.143 162.073 218.708 163.13 220.093C163.618 220.765 164.186 221.376 164.82 221.912C165.325 222.349 165.954 222.616 166.619 222.676C167.226 222.667 167.823 222.826 168.346 223.134C168.853 223.396 169.335 223.713 169.852 223.958C170.241 224.175 170.581 224.469 170.853 224.821C171.126 225.172 171.325 225.575 171.438 226.006C171.671 226.427 172.057 226.743 172.516 226.89C173.201 227.152 173.917 227.325 174.647 227.403C175.603 227.526 176.569 227.566 177.532 227.522C178.505 227.469 179.474 227.365 180.435 227.21C181.218 227.19 181.97 226.903 182.567 226.396C182.803 226.069 182.641 225.718 182.301 225.077ZM159.975 203.611L159.973 203.611L159.964 203.609L159.946 203.604C159.956 203.603 159.966 203.607 159.975 203.606C160.008 204.259 160.022 204.536 159.975 203.611ZM159.842 200.923V200.923C159.839 200.87 159.84 200.883 159.842 200.923Z" fill="#80829B"/>
<path d="M259.039 123.524C258.198 121.058 257.402 118.768 256.216 116.094C255.464 114.65 254.229 113.517 252.726 112.89C250.798 112.033 248.721 111.561 246.611 111.502C244.616 111.41 242.739 111.667 240.721 111.601C239.853 111.59 239.005 111.86 238.302 112.37C235.153 115.05 232.599 117.444 230.26 119.718C229.018 120.925 227.869 122.088 226.752 123.14C225.475 124.311 224.124 125.417 222.969 126.685C222.436 127.245 221.78 127.673 221.052 127.934C220.319 128.158 219.625 128.494 218.995 128.929C218.017 129.737 217.038 130.767 215.596 130.858C214.775 132.317 213.113 132.492 211.819 133.201C210.628 133.812 209.526 134.582 208.545 135.492C207.704 136.234 206.682 136.74 205.582 136.96C205.131 137.069 204.689 137.191 204.255 137.325C203.811 137.438 203.372 137.561 202.941 137.697C202.085 137.971 201.243 138.288 200.419 138.647C198.74 139.334 197.105 140.126 195.525 141.017C195.019 141.279 194.451 141.396 193.883 141.354C192.542 141.305 191.203 141.486 189.923 141.89C188.822 142.152 187.885 143.061 186.674 142.849C185.41 142.64 184.548 143.588 183.466 143.976C182.958 144.15 182.437 144.286 181.908 144.38C181.377 144.455 180.837 144.502 180.285 144.532C179.118 144.6 177.95 144.605 176.783 144.548C176.006 144.597 175.137 144.652 174.223 144.71C173.307 144.719 172.345 144.73 171.382 144.74C170.587 144.752 170.2 145.182 170.325 145.867C170.487 146.734 170.688 147.595 170.833 148.469C170.871 148.789 170.981 149.096 171.156 149.367C171.33 149.638 171.563 149.866 171.839 150.034C172.488 150.586 173.24 151.004 174.052 151.264C175.098 151.367 176.135 151.545 177.156 151.798C177.671 151.912 178.188 152.04 178.708 152.127C179.228 152.204 179.752 152.254 180.277 152.276C181.772 152.335 183.283 152.076 184.236 150.6C184.363 150.314 184.595 150.088 184.885 149.97C185.174 149.851 185.499 149.849 185.79 149.964C186.189 150.102 186.615 150.141 187.033 150.079C187.45 150.017 187.847 149.856 188.189 149.608C189.439 148.816 190.694 148.124 191.938 147.373C192.136 147.258 192.676 147.595 192.942 147.862C193.436 148.363 193.952 148.719 194.62 148.48C197.8 147.101 201.107 146.032 204.493 145.289C205.303 145.078 206.084 144.75 206.874 144.46C208.141 143.972 209.341 143.331 210.604 142.835C211.861 142.266 213.188 141.863 214.549 141.636C215.602 141.404 216.554 140.843 217.267 140.034C217.781 139.52 218.365 139.08 219 138.726C219.62 138.35 220.26 138.01 220.919 137.706C221.55 137.376 222.147 136.983 222.701 136.535C223.254 136.048 223.859 135.624 224.506 135.271C225.16 134.918 225.77 134.487 226.319 133.986C226.857 133.461 227.422 132.965 228.013 132.501C228.885 131.855 229.063 130.633 230.111 130.18C230.575 129.925 230.983 129.579 231.312 129.164C231.64 128.749 231.882 128.272 232.024 127.762C232.518 126.579 234.368 126.764 234.598 125.278C234.641 125.006 235.179 124.794 235.536 124.687C235.922 124.597 236.277 124.407 236.565 124.136C236.853 123.865 237.065 123.522 237.179 123.143C237.253 122.767 237.443 122.423 237.721 122.159C237.999 121.894 238.352 121.723 238.731 121.667C239.64 121.564 240.481 121.138 241.102 120.466C241.566 119.937 242.005 119.368 242.758 119.447C243.888 119.45 245.012 119.277 246.088 118.934C247.584 118.613 249.263 118.813 250.079 119.944C250.44 120.421 250.754 120.932 251.015 121.47C251.265 122.001 251.353 122.594 251.268 123.174C251.086 124.05 250.907 124.906 250.723 125.789C250.533 126.792 249.911 127.73 249.706 128.684C249.706 128.709 249.704 128.734 249.701 128.76C249.705 128.834 249.685 128.909 249.645 128.972C249.605 129.035 249.546 129.085 249.477 129.113C249.391 129.164 249.296 129.199 249.198 129.219L248.854 129.298C248.221 129.365 247.608 129.556 247.05 129.861C246.511 130.137 245.958 130.386 245.394 130.607L244.179 131.198C243.613 131.527 242.999 131.828 242.463 132.209C241.36 132.914 240.408 133.832 239.663 134.909C238.93 135.985 238.513 137.245 238.458 138.547L238.495 140.517C238.504 140.845 238.499 141.173 238.52 141.502C238.546 141.834 238.63 142.122 238.682 142.434C239.477 146.038 240.945 149.459 243.009 152.519C243.919 154.001 244.741 155.429 246.302 156.137C246.368 156.196 246.414 156.274 246.434 156.36C246.455 156.445 246.45 156.535 246.419 156.618C245.163 158.238 246.891 158.499 247.255 159.315C247.512 159.82 247.671 160.258 247.93 160.715C248.147 161.162 248.281 161.58 248.452 162.019C248.54 162.424 248.565 162.841 248.527 163.254C248.44 163.665 248.231 164.04 247.929 164.332C247.881 164.365 247.845 164.413 247.826 164.468C247.808 164.523 247.808 164.583 247.826 164.638C247.885 164.774 247.927 164.916 247.952 165.062C247.956 165.263 247.929 165.464 247.872 165.657C247.771 166.074 247.625 166.479 247.435 166.864C247.046 167.641 246.581 168.369 246.275 169.164C246.061 169.818 245.722 170.44 245.453 171.076C245.122 171.698 244.844 172.333 244.53 172.967C243.896 174.453 243.186 175.906 242.405 177.32C241.481 178.903 240.096 180.232 239.293 181.903C238.504 183.547 236.64 183.982 235.694 185.398C235.258 186.018 234.661 186.512 234.179 187.104C233.98 187.328 233.849 187.605 233.803 187.902C233.756 188.198 233.795 188.502 233.916 188.776C234.1 189.242 234.066 189.636 233.73 189.695C232.986 189.76 232.268 190 231.634 190.394C231 190.788 230.467 191.326 230.08 191.965C229.972 192.07 229.832 192.137 229.682 192.155C229.532 192.172 229.381 192.141 229.251 192.064C228.448 191.489 227.965 191.377 227.491 191.682C227.377 191.778 227.236 191.819 227.205 191.872C227.191 191.905 227.17 191.934 227.144 191.958C227.118 191.982 227.087 192 227.053 192.01C226.989 192.043 226.92 192.063 226.849 192.069C226.778 192.075 226.707 192.066 226.639 192.044C226.565 192.01 226.501 191.96 226.451 191.897C226.4 191.833 226.365 191.759 226.349 191.68C226.333 191.601 226.335 191.519 226.356 191.441C226.377 191.363 226.416 191.291 226.47 191.231C226.72 190.88 226.087 191.218 226.32 190.549C226.618 190.019 225.762 189.43 225.791 188.585C225.809 187.944 225.713 187.15 225.767 186.417C225.965 185.496 225.968 184.544 225.775 183.622C225.49 182.659 226.531 181.916 226.073 180.891C226.021 180.707 226.014 180.514 226.055 180.327C226.096 180.14 226.182 179.967 226.306 179.822C227.8 178.182 228.225 176.174 229.149 174.334C230.25 172.184 231.503 170.115 232.898 168.143C233.41 167.404 234.498 166.926 235.136 166.03C235.913 164.927 236.116 163.368 236.725 161.927C236.838 161.681 236.917 161.438 237.037 161.134C237.171 160.801 237.279 160.453 237.381 160.106C237.586 159.419 237.74 158.717 237.841 158.006C238.029 156.616 237.941 155.201 237.582 153.845C237.408 153.175 237.159 152.528 236.837 151.915C236.669 151.614 236.516 151.302 236.338 151.006L235.729 150.164C234.849 149.067 233.765 148.151 232.537 147.465C231.616 146.895 230.648 146.405 229.644 146.001C229.112 145.803 228.558 145.673 227.994 145.613C227.709 145.582 227.423 145.578 227.138 145.602C226.916 145.618 226.698 145.661 226.487 145.73C225.691 145.948 224.868 146.054 224.043 146.047C223.263 146.027 222.495 146.236 221.832 146.648C221.631 146.763 221.403 146.822 221.171 146.817C220.938 146.817 220.692 146.817 220.473 146.817C219.918 146.861 219.385 147.055 218.93 147.378C218.476 147.7 218.118 148.14 217.894 148.651C217.553 149.204 217.193 149.78 216.405 149.675C215.063 149.49 213.86 150.092 212.6 150.261C210.452 150.548 208.335 150.774 206.92 152.625C206.854 152.708 206.77 152.774 206.674 152.82C206.579 152.865 206.474 152.888 206.368 152.886C204.938 152.681 204.184 153.725 203.179 154.399C201.711 155.506 199.914 156.087 198.076 156.049C197.381 155.989 196.681 156.107 196.044 156.392C195.407 156.677 194.853 157.12 194.434 157.678C193.01 159.468 190.626 159.647 189.151 161.008C188.24 161.732 187.002 161.002 185.912 160.969C184.352 160.974 182.78 161.164 181.193 161.215C179.595 161.323 177.994 161.07 176.507 160.474C176.243 160.37 175.763 160.627 175.48 160.873C174.62 161.627 173.832 162.007 173.468 160.394C173.439 160.298 173.386 160.212 173.313 160.143C173.241 160.074 173.152 160.025 173.056 160C172.337 159.997 171.622 159.897 170.931 159.704C170.241 159.528 169.57 159.287 168.926 158.984C167.771 158.593 166.592 158.273 165.398 158.026C165.242 157.974 164.962 157.927 164.894 158.025C164.492 158.595 164.604 160.038 163.461 159.253C162.857 158.852 162.454 158.207 161.894 157.82C161.573 157.586 161.209 157.42 160.822 157.332C160.435 157.243 160.035 157.233 159.644 157.304C158.717 157.394 157.829 157.727 157.071 158.269C155.735 159.116 154.684 160.344 154.055 161.796C153.986 162.017 153.966 162.25 153.998 162.479C154.029 162.708 154.111 162.927 154.238 163.121C154.835 163.925 155.586 164.602 156.447 165.115L157.177 165.538L157.93 165.874L159.446 166.506C160.459 166.868 161.454 167.227 162.397 167.671C167.771 170.084 173.493 170.575 179.079 170.687C182.919 170.75 186.651 170.125 190.701 170.174C192.189 169.564 193.74 169.121 195.326 168.852C197.588 166.954 200.393 166.379 202.798 165.053C205.007 163.835 207.43 163.095 209.151 161.176C209.62 160.778 210.159 160.472 210.742 160.274C213.311 159.046 215.856 157.856 218.44 156.868C219.71 156.359 221.014 155.937 222.342 155.606C223.521 155.249 224.774 155.208 225.975 155.487C226.252 155.565 226.538 155.611 226.826 155.624L227.188 155.645C227.238 155.645 227.288 155.649 227.338 155.656C227.733 155.803 228.162 155.834 228.575 155.746C228.957 155.693 228.974 156.037 228.869 156.299C228.767 156.585 228.558 156.782 228.725 156.928C228.856 157.067 228.807 157.232 228.953 157.422C228.988 157.461 229.011 157.51 229.019 157.562C229.026 157.614 229.018 157.668 228.995 157.715C228.972 157.761 228.938 157.8 228.896 157.83C228.855 157.863 228.769 157.979 228.7 158.046C228.073 158.574 227.505 159.169 227.007 159.819C226.675 160.338 226.299 160.865 225.879 161.407C225.403 162.013 224.928 162.617 224.454 163.22C223.474 164.465 222.465 165.692 221.394 166.913C221.107 167.271 220.958 167.721 220.976 168.18C220.994 168.639 221.177 169.076 221.491 169.411C221.822 169.858 221.646 170.17 221.207 170.545C220.774 170.911 220.426 171.366 220.184 171.878C219.943 172.39 219.814 172.949 219.807 173.515C219.869 174.393 219.603 175.262 219.059 175.954C218.53 176.682 218.134 177.499 217.891 178.366C217.561 179.453 217.305 180.562 217.126 181.685C216.924 182.802 216.766 183.928 216.662 185.059C216.542 185.731 216.521 186.416 216.602 187.094C216.955 188.681 216.638 190.517 217.367 192.421C217.582 192.951 217.828 193.594 218.112 194.191C218.384 194.791 218.692 195.361 219.011 195.923C219.335 196.486 219.691 197.031 220.078 197.553L220.655 198.374C220.855 198.647 221.085 198.895 221.304 199.17C221.459 199.359 221.626 199.552 221.805 199.74C221.998 199.906 222.203 200.069 222.418 200.224C222.635 200.379 222.86 200.524 223.092 200.657C223.331 200.771 223.578 200.866 223.832 200.942C224.35 201.117 224.883 201.243 225.425 201.319C225.975 201.423 226.533 201.477 227.093 201.48C227.594 201.498 228.095 201.476 228.592 201.416C229.047 201.374 229.498 201.299 229.942 201.191C231.551 200.866 233.022 200.054 234.153 198.864C234.879 198.065 235.876 198.09 236.805 197.768C237.476 197.494 238.059 197.041 238.49 196.458C238.794 196.071 239.062 195.674 239.362 195.305C239.513 195.122 239.683 194.957 239.869 194.812C240.044 194.673 240.241 194.565 240.453 194.492C241.425 194.009 242.306 193.362 243.059 192.579C244.944 191.1 246.284 188.99 248.691 188.027C249.582 186.472 250.659 185.032 251.9 183.739C252.477 183.025 252.925 182.215 253.223 181.346C253.298 181.128 253.353 180.903 253.385 180.675C253.789 178.64 254.703 176.742 256.042 175.159C256.105 175.071 256.146 174.97 256.162 174.864C256.178 174.757 256.169 174.648 256.136 174.546C255.25 173.37 255.996 172.585 256.555 171.562C256.906 170.711 257.089 169.8 257.094 168.879C257.146 167.84 257.245 166.929 257.335 165.631C257.509 164.429 257.51 163.251 257.809 161.963C257.895 161.121 257.832 160.271 257.625 159.45C256.98 157.251 256.036 155.151 254.82 153.208C253.786 151.565 252.576 150.039 251.212 148.657C250.741 148.079 250.306 147.471 249.909 146.839C249.62 146.483 249.377 146.093 249.184 145.678C249.027 145.277 248.922 144.858 248.871 144.43C248.852 144.1 248.755 143.778 248.586 143.493C248.418 143.208 248.184 142.967 247.904 142.79C247.668 142.615 247.374 142.3 247.458 142.063C247.508 141.922 247.549 141.779 247.578 141.632C247.624 141.506 247.659 141.376 247.684 141.244C247.706 141.124 247.717 141.002 247.718 140.88C247.724 140.816 247.726 140.751 247.722 140.687C247.714 140.532 247.681 140.38 247.625 140.235C247.604 140.11 247.615 139.981 247.656 139.861C247.697 139.741 247.767 139.633 247.86 139.546C248.115 139.329 247.989 139.364 249.195 138.825C249.976 138.486 250.93 138.15 251.924 137.618C253.097 137.026 254.114 136.168 254.896 135.112C255.379 134.523 255.912 133.976 256.487 133.476C256.655 133.294 256.816 133.11 256.939 132.949C257.772 131.845 258.767 130.556 258.825 129.278C258.875 128.294 259.075 127.37 259.204 126.413C259.375 125.45 259.318 124.461 259.039 123.524Z" fill="#006ADC"/>
<path d="M238.883 149.994C238.369 149.124 237.58 148.45 236.642 148.076C234.834 148.112 233.027 147.992 231.24 147.718C230.569 147.694 229.901 147.828 229.291 148.108C228.675 148.398 227.971 148.436 227.327 148.214C226.132 147.72 225.485 148.268 224.696 148.841C223.927 149.373 223 149.933 221.918 149.133C221.485 148.8 221.002 148.537 220.487 148.356C220.018 148.212 219.568 148.101 219.125 148.012C218.93 147.98 218.615 147.93 218.339 147.898C218.059 147.863 217.777 147.839 217.498 147.82C216.383 147.744 215.279 147.778 214.187 147.809C212.607 147.92 211.02 147.842 209.459 147.576C209.353 147.091 209.246 146.626 209.142 146.209C208.923 145.318 208.707 144.621 208.676 144.434C208.532 143.677 208.897 142.75 208.252 141.669C208.125 141.463 207.98 141.268 207.82 141.086C207.607 140.839 207.372 140.612 207.118 140.408L206.896 140.236C206.791 140.162 206.684 140.091 206.574 140.023C206.35 139.885 206.115 139.763 205.873 139.66C205.199 139.377 204.466 139.262 203.737 139.327C203.545 139.343 203.354 139.371 203.165 139.41C203.005 139.451 202.849 139.5 202.693 139.557C202.394 139.663 202.108 139.801 201.838 139.967C201.649 140.098 201.466 140.239 201.292 140.39L201.041 140.62L200.89 140.798C200.571 141.184 200.293 141.604 200.063 142.049C199.531 142.965 199.058 143.912 198.644 144.887C198.15 146.252 198.085 147.735 198.456 149.138C198.781 150.395 199.481 151.523 200.463 152.371C201.036 152.872 201.754 153.176 202.512 153.238C202.616 153.889 202.711 154.531 202.78 155.134C202.918 156.26 202.743 157.401 202.275 158.434C202.108 158.863 201.851 159.251 201.522 159.572C201.192 159.893 200.797 160.139 200.363 160.293C200.054 160.371 199.688 159.968 199.507 159.511C199.347 159.053 199.236 159.076 198.996 159.182C198.97 159.052 198.95 158.923 198.922 158.794C198.81 158.262 198.694 157.732 198.545 157.208C198.415 156.698 198.25 156.11 198.12 155.757C197.856 154.949 197.542 154.158 197.179 153.388C196.571 152.162 196.761 150.861 196.12 149.452C195.756 148.938 195.264 148.528 194.693 148.261C194.122 147.995 193.491 147.882 192.863 147.933C192.607 147.933 192.352 147.887 192.113 147.795C191.755 147.716 191.288 147.613 190.748 147.493C190.52 147.455 190.29 147.429 190.059 147.415L189.691 147.401C189.534 147.41 189.378 147.43 189.223 147.46C188.887 147.507 188.561 147.612 188.259 147.769C187.938 147.929 187.645 148.141 187.394 148.398C187.176 148.625 186.987 148.879 186.831 149.152C186.713 149.384 186.609 149.621 186.519 149.865C186.404 150.25 186.328 150.646 186.294 151.047C186.223 152.187 186.316 153.332 186.57 154.446C186.713 154.973 186.817 155.511 186.882 156.053C186.727 156.552 186.665 157.075 186.699 157.596C186.721 157.869 186.791 158.212 186.829 158.448C186.862 158.671 186.904 158.895 186.957 159.118C187.115 159.744 187.348 160.349 187.652 160.919C187.237 161.009 186.811 161.04 186.387 161.01C185.9 160.987 185.44 160.779 185.102 160.429C183.203 158.475 181.644 156.091 179.644 154.278C178.644 153.367 177.872 153.274 177.312 153.584C177.065 153.742 176.858 153.955 176.708 154.207C176.558 154.459 176.47 154.743 176.449 155.035C176.508 158.201 177.772 161.226 179.984 163.491C181.13 164.716 182.507 165.7 184.037 166.386C184.424 166.548 184.707 166.662 185.175 166.814C185.647 166.966 186.1 167.094 186.528 167.194C187.276 167.361 188.047 167.395 188.807 167.296C189.109 167.23 189.733 167.902 190.264 168.242C191.145 168.77 192.118 169.125 193.132 169.289C194.148 169.482 195.195 169.426 196.184 169.125C196.997 168.88 197.728 168.419 198.299 167.791C199.426 167.863 200.558 167.783 201.664 167.554C202.984 167.263 204.261 166.803 205.464 166.187C206.602 165.605 207.628 164.985 208.677 164.411C209.364 163.915 209.912 163.25 210.267 162.481C210.806 161.418 211.161 160.272 211.317 159.09C211.41 158.437 211.441 157.776 211.408 157.117C212.186 157.392 212.999 157.67 213.814 157.908C214.897 158.246 216.007 158.493 217.131 158.647C217.393 158.676 217.615 158.697 217.889 158.706C218.18 158.715 218.46 158.712 218.725 158.696C219.203 158.681 219.675 158.582 220.12 158.405C221.932 157.657 223.754 157.767 225.551 157.328C226.834 157.06 228.163 157.103 229.427 157.452C230.536 157.686 232.437 156.793 234.127 155.541C235.838 154.303 237.318 152.764 238.343 152.129C239.857 151.204 239.831 151.073 238.883 149.994Z" fill="#80829B"/>
<path d="M206.109 161.632C205.864 161.383 205.552 161.191 205.437 160.844C205.254 160.318 205.36 159.516 205.152 159.159C204.986 158.869 204.248 159.195 204.095 158.848C203.491 157.364 202.303 156.962 201.123 156.149C200.937 155.104 200.698 154.068 200.407 153.047C200.275 152.359 200.261 151.654 200.363 150.962C200.415 150.725 200.413 150.48 200.355 150.245C200.297 150.01 200.186 149.791 200.031 149.605C199.527 149.094 199.011 148.591 198.476 148.132L198.068 147.799C197.844 147.611 197.631 147.411 197.43 147.2C196.96 146.738 196.408 146.368 195.801 146.11C195.049 145.798 194.218 145.729 193.425 145.915C192.768 146.09 192.154 146.4 191.623 146.826C191.265 147.082 190.947 147.337 190.643 147.589C190.037 148.073 189.498 148.635 189.042 149.262C188.554 149.966 188.259 150.785 188.185 151.638C188.138 151.997 188.162 152.363 188.256 152.713C188.35 153.064 188.512 153.392 188.732 153.68C189.443 154.433 189.956 155.35 190.225 156.35C190.554 157.222 190.92 157.985 191.787 158.052C192.003 159.34 192.654 160.516 193.633 161.382C193.45 161.481 193.244 161.531 193.036 161.53L192.777 161.529L192.647 161.53L192.424 161.51C192.08 161.494 191.738 161.458 191.398 161.402C190.705 161.299 190.026 161.117 189.375 160.858C189.142 160.768 188.89 160.744 188.644 160.786C188.462 160.801 188.282 160.832 188.105 160.877C188.147 159.327 188.03 157.641 188.197 156.175C188.26 155.608 188.281 155.037 188.259 154.467C188.276 154.139 188.249 153.811 188.178 153.491C188.018 152.822 187.661 152.217 187.154 151.752C186.861 151.467 186.613 151.14 186.419 150.78C186.322 150.607 186.237 150.429 186.163 150.245C186.066 149.997 185.97 149.748 185.872 149.497C185.627 148.836 185.308 148.206 184.922 147.616C184.284 146.653 183.373 145.904 182.305 145.466C181.724 145.231 181.108 145.097 180.483 145.069C179.849 145.035 179.214 145.114 178.608 145.302C177.486 145.65 176.511 146.361 175.838 147.323C175.402 147.933 175.124 148.642 175.031 149.386C174.959 149.932 175.014 150.487 175.193 151.007C175.253 151.665 175.208 152.329 175.059 152.973C175.031 153.117 174.989 153.258 174.935 153.395C174.884 153.496 174.82 153.59 174.745 153.676C174.598 153.845 174.442 154.007 174.278 154.159C173.855 154.564 173.7 155.039 174.05 155.383C174.214 155.528 174.368 155.683 174.513 155.848C174.125 155.794 173.769 155.604 173.507 155.313C173.245 155.022 173.094 154.648 173.081 154.256C173.064 153.703 173.149 153.15 173.333 152.627C172.38 151.722 172.31 150.381 171.635 149.241C171.52 149.073 171.363 148.939 171.179 148.851C170.783 148.693 170.352 148.641 169.93 148.697C169.507 148.754 169.106 148.918 168.765 149.175C168.086 150.011 167.813 151.111 166.798 151.817C165.932 152.41 165.989 153.068 166.814 154.34C167.404 155.112 167.901 155.952 168.292 156.841C168.792 158.215 169.411 159.543 170.142 160.809C170.231 160.975 170.342 161.128 170.473 161.263C170.599 161.391 170.726 161.487 170.935 161.683C171.282 161.993 171.666 162.257 172.079 162.47C172.334 162.613 172.596 162.635 172.828 162.778C173.189 163.029 173.5 163.344 173.747 163.708C174.004 164.086 174.177 164.515 174.253 164.966C174.245 165.539 174.327 166.11 174.496 166.657C174.574 166.892 174.711 167.102 174.895 167.268C175.078 167.434 175.301 167.55 175.542 167.605C175.911 167.643 176.277 167.708 176.637 167.799C178.018 168.123 179.333 168.68 180.525 169.447C180.727 169.631 180.973 169.758 181.239 169.816C181.506 169.874 181.783 169.861 182.042 169.778C183.213 169.273 184.202 168.426 184.88 167.347C186.262 168.078 187.728 168.639 189.246 169.015C189.896 169.187 190.572 169.24 191.241 169.169C191.561 169.13 191.878 169.066 192.188 168.977L192.424 168.905L192.717 168.797C192.911 168.721 193.096 168.639 193.275 168.551C193.718 168.342 194.197 168.219 194.685 168.188C195.166 168.107 195.663 168.045 196.133 167.924C197.404 167.619 198.565 166.964 199.483 166.034C200.046 165.434 200.497 164.74 200.816 163.982C201.313 164.087 201.802 164.222 202.282 164.385C202.592 164.493 202.931 164.486 203.236 164.365C203.541 164.243 203.792 164.016 203.943 163.725C204.096 163.464 204.299 163.237 204.54 163.055C204.781 162.874 205.056 162.742 205.349 162.667C205.529 162.622 205.713 162.569 205.887 162.51C206.431 162.319 206.469 162.016 206.109 161.632Z" fill="#000638"/>
<path d="M161.894 48.1469C160.799 46.5587 159.601 45.0437 158.308 43.6115C157.104 42.3481 154.99 42.2596 153.767 40.9254C151.628 38.642 148.581 40.6062 146.142 38.3936C145.58 37.8883 144.947 37.4687 144.262 37.1485C138.784 34.6629 132.937 35.4579 127.467 34.1562C122.909 33.0765 118.335 32.0307 113.705 31.2299C112.525 31.0231 111.356 30.844 110.193 30.6996C109.611 30.628 109.032 30.5568 108.456 30.4859L107.506 30.388C107.013 30.3416 106.517 30.3214 106.022 30.3272C104.087 30.2884 102.208 30.9742 100.753 32.25C100.058 32.8962 99.4761 33.6536 99.0304 34.4911C98.803 34.9096 98.5991 35.3404 98.4195 35.7815L98.2 36.3424L98.0446 36.7733C96.5584 40.9951 95.0863 45.2067 93.2664 49.4989C92.8286 50.4068 92.2226 51.2234 91.4805 51.9056C89.6595 53.8163 90.8165 55.6692 89.6483 57.543C89.2528 58.1778 88.5444 58.6217 88.2514 59.2774C87.9756 59.8972 88.3368 60.7213 87.7525 61.371C85.8121 63.7608 84.3423 66.4967 83.4209 69.4339C83.2174 70.9242 82.9861 72.4132 82.7271 73.9008C81.5131 77.3558 80.9405 81.7292 79.5846 84.9498C78.5329 87.4484 76.3562 89.4308 75.2052 92.0084C73.8745 96.5187 72.8846 100.729 70.8681 105.11C69.6406 107.781 71.4785 109.984 70.2707 112.411C68.7088 115.55 66.9625 119.116 66.4665 122.547C65.9751 125.949 67.9993 125.122 68.6537 124.442C72.36 120.571 76.6318 112.189 76.2395 106.958C76.2155 106.641 76.7826 106.184 77.0822 105.795C78.9936 103.311 80.1058 98.5137 81.3534 95.5416C82.6942 92.3449 83.9464 88.7853 85.1574 85.5092C85.6426 84.1988 86.6278 83.4915 87.3952 82.5131C87.839 81.6097 87.936 80.5749 87.668 79.6047C87.3655 78.7665 90.4663 70.5271 90.8779 70.2396C96.9666 65.9864 96.488 52.7112 102.013 47.508C102.652 46.9068 103.356 44.9681 103.888 42.9808C104.153 41.9872 104.376 40.9813 104.526 40.1245C104.6 39.699 104.661 39.2922 104.682 39.0007L104.695 38.7915L104.666 38.6891C104.642 38.6168 104.622 38.5545 104.605 38.5035C104.682 38.1296 104.879 37.7915 105.167 37.5411C105.455 37.2907 105.817 37.1419 106.198 37.1178C106.341 37.106 106.484 37.1023 106.627 37.1069C106.77 37.1111 106.874 37.1163 107.187 37.1471C107.761 37.2136 108.305 37.2767 108.785 37.3324C109.753 37.4504 110.462 37.5473 110.638 37.5937C111.356 37.7843 111.963 38.4176 112.661 38.5121C113.599 38.6384 114.591 38.3398 115.551 38.4225C118.503 38.6441 121.15 41.5437 124.023 40.189C125.103 40.4322 125.472 41.3069 128.829 41.83C131.957 42.2942 138.656 45.7358 141.74 45.3955C143.56 45.1904 145.224 45.881 146.942 46.2988C148.145 46.6151 149.227 47.2821 150.05 48.215C151.493 49.6572 157.346 49.9217 159.317 51.0138C160.746 51.7873 160.803 51.7458 161.303 50.6049C161.564 50.2573 161.752 49.8599 161.853 49.4371C161.955 49.0144 161.969 48.5753 161.894 48.1469Z" fill="#006ADC"/>
<path d="M133.806 137.849C133.002 136.622 132.138 135.437 131.215 134.298C130.417 133.385 129.455 134.066 128.645 133.042C127.255 131.274 126.245 134.517 124.738 132.839C124.449 132.495 124.084 132.223 123.671 132.046C120.783 130.984 118.212 133.473 115.463 133.279C113.188 133.122 110.916 132.84 108.646 132.7C104.018 132.405 99.8453 133.507 95.2686 133.2C94.7056 133.065 94.2073 132.738 93.8594 132.275C92.6772 131.101 92.0118 133.141 90.953 132.661C90.5948 132.498 90.2758 131.916 89.9253 131.872C89.5944 131.83 89.2687 132.568 88.8748 132.203C88.2731 131.683 87.5695 131.293 86.8089 131.06C86.0482 130.827 85.2473 130.755 84.4574 130.849C83.7313 131.244 83.0005 131.608 82.2647 131.942C80.4689 132.056 78.324 133.215 76.6117 133.057C75.2833 132.938 74.0581 131.355 72.6874 131.147C70.3731 131.532 68.2354 132.126 65.8958 131.685C64.4733 131.405 63.6104 134.293 62.2989 133.936C60.604 133.482 58.6928 132.959 56.9646 133.769C56.6878 133.906 56.4448 134.102 56.2535 134.344C56.0622 134.586 55.9273 134.868 55.8586 135.169C55.7899 135.47 55.7892 135.782 55.8564 136.084C55.9237 136.385 56.0573 136.667 56.2475 136.91C58.5104 139.459 63.1153 140.821 65.617 138.301C65.7683 138.147 66.0564 138.584 66.2807 138.756C67.7154 139.845 70.1807 139.148 71.7734 139.297C73.5473 139.419 75.3265 139.442 77.103 139.369C77.7972 139.361 78.2728 140.147 78.8498 140.584C79.3799 140.676 79.856 140.378 80.278 139.689C80.6355 139.011 85.0024 138.985 85.2015 139.312C88.1735 144.173 94.3373 138.091 97.7071 141.852C98.4947 142.737 101.819 141.598 102.531 140.798C104.237 140.604 105.954 140.523 107.67 140.555C108.041 140.664 108.395 141.288 108.751 141.282C109.229 141.275 109.694 140.763 110.176 140.672C111.643 140.399 113.278 143.161 114.537 140.978C115.095 141.01 115.384 141.93 117.098 141.703C118.674 141.507 122.468 143.477 123.899 142.099C124.734 141.293 125.645 141.525 126.536 141.401C127.221 141.307 127.784 141.779 128.373 142.453C129.35 143.576 132.142 141.643 133.282 142.019C134.114 142.291 134.132 142.222 134.098 140.774C134.176 139.789 134.077 138.798 133.806 137.849Z" fill="#006ADC"/>
<path d="M155.694 93.9966C156.65 91.6546 157.705 88.9905 157.394 86.4301C157.086 83.893 155.027 84.5141 154.466 85.0211C151.294 87.9095 148.635 94.131 150.394 98.0433C150.5 98.2802 149.981 98.6179 149.744 98.9061C148.235 100.748 148.201 104.325 147.556 106.538C146.864 108.917 146.361 111.569 145.834 114.01C145.622 114.986 144.701 115.501 144.091 116.222C143.966 116.591 143.94 116.986 144.015 117.369C144.09 117.751 144.263 118.107 144.517 118.403C145.064 119.038 143.675 125.179 143.288 125.386C141.962 126.119 140.968 127.334 140.512 128.779C140.253 129.523 140.06 130.289 139.935 131.067C139.797 131.891 139.702 132.676 139.611 133.36C139.544 133.947 139.428 134.528 139.265 135.097C139.175 135.469 138.961 135.8 138.658 136.036C138.508 136.143 138.337 136.216 138.156 136.249C137.975 136.282 137.788 136.275 137.611 136.227C137.023 136.129 136.464 135.906 135.971 135.573C135.464 135.21 133.901 135.523 132.48 136.031C131.296 136.408 130.192 137 129.222 137.777C129.15 137.841 127.446 138.27 125.692 138.669C123.946 139.103 122.148 139.512 121.878 139.531C121.326 139.548 120.684 139.056 120.175 139.18C119.49 139.344 118.937 140.001 118.272 140.262C116.253 141.027 113.249 138.966 111.999 141.587C111.206 141.786 110.55 140.98 108.187 141.928C106.019 142.749 100.107 142.613 98.5269 144.668C97.6091 145.846 96.2735 146.077 95.084 146.664C94.1594 147.032 93.1274 147.025 92.2084 146.643C90.4801 146.109 87.2943 149.482 85.6355 149.826C84.4081 150.063 84.4069 150.139 84.9784 151.471C85.2327 152.436 85.7338 153.318 86.4325 154.03C88.0232 154.674 89.5844 155.405 91.1362 155.876C92.5132 156.304 93.5445 155.123 94.9721 155.678C97.387 156.613 97.6802 153.041 100.235 153.889C100.771 154.087 101.341 154.172 101.911 154.14C106.072 153.788 108.833 150.301 112.666 149.396C115.818 148.644 119.017 148.122 122.185 147.524C125.417 146.912 128.431 146.101 131.463 145.346C132.978 144.962 134.5 144.617 136.047 144.313C136.799 144.159 137.68 144.031 138.713 143.798C139.961 143.534 141.163 143.09 142.281 142.477C143.39 141.845 144.433 141.453 145.529 140.804C146.16 140.426 146.671 139.876 147.002 139.218C147.229 138.743 147.359 138.227 147.386 137.701C147.306 136.813 147.444 135.917 147.787 135.093C148.105 134.56 148.795 134.219 148.952 133.738C149.105 133.275 148.497 132.641 148.986 132.164C150.718 130.469 151.32 128.33 151.797 126.16C151.651 125.037 151.536 123.916 151.453 122.798C151.942 120.211 151.486 116.923 152.191 114.518C152.738 112.653 154.67 111.19 155.309 109.263C155.664 105.885 155.711 102.732 156.864 99.4602C157.565 97.4637 154.954 95.8061 155.694 93.9966Z" fill="#80829B"/>
<path d="M201.316 117.703C200.63 114.992 199.206 112.894 198.565 111.083C196.485 105.353 193.185 100.492 189.61 95.6778C188.814 94.8242 188.168 93.8422 187.7 92.7735C186.307 88.6392 183.728 84.9845 181.312 81.3285C179.51 78.717 178.015 75.9068 176.855 72.9534C175.35 68.8594 172.989 65.1337 169.929 62.0249C168.363 60.4377 166.917 58.5983 165.336 56.7233C164.074 55.1621 162.686 53.706 161.187 52.3695C161.755 49.824 161.559 47.924 159.837 47.0598C159.334 46.8106 159.622 45.913 160.322 45.4157C160.581 45.2737 160.822 45.0994 161.037 44.8971C161.245 44.6585 161.396 44.3759 161.479 44.0704C161.057 42.3306 158.247 41.9906 157.143 43.6426C156.135 45.1554 154.888 46.5754 154.433 48.6341L154.421 48.6915C152.992 48.3804 151.51 48.4043 150.092 48.7613C148.257 49.2473 146.582 49.6351 144.955 50.1547C143.35 50.6164 141.844 51.3716 140.514 52.3822C139.507 53.203 138.463 54.018 137.433 54.7458C136.456 55.4574 135.434 56.1042 134.372 56.6822C132.493 57.7041 131.309 59.3306 129.737 60.293C127.374 61.7165 126.373 63.6231 125.043 65.3904C123.92 66.8726 123.114 67.4563 121.653 67.5003C120.494 67.5347 120.112 69.0281 119.306 69.7195C118.093 70.7409 116.615 71.4649 115.493 72.5372C114.057 73.916 112.992 75.6005 111.606 77.0262C108.824 79.9077 106.047 82.8166 102.534 84.5674C101.69 84.9858 100.947 86.5716 101.257 87.1124C101.714 87.9053 102.288 88.6006 102.73 89.4058C102.798 89.5163 102.841 89.6409 102.854 89.7702C102.867 89.8994 102.851 90.03 102.806 90.1521C102.762 90.2741 102.69 90.3846 102.597 90.4751C102.504 90.5656 102.391 90.6338 102.268 90.6747C102.009 90.778 101.72 90.7786 101.46 90.6763C100.827 90.3671 100.282 89.9543 99.6386 89.6611C98.6576 89.2179 97.5246 89.6154 96.1234 90.7507C94.8319 91.647 93.7215 92.7794 92.8506 94.0882C91.4754 96.4304 89.6942 98.509 87.5904 100.227C85.8466 101.812 83.9974 103.278 82.0556 104.614C79.7947 106.095 78.5867 108.668 75.8513 109.707C74.4623 110.393 73.2035 111.315 72.1313 112.433C70.7203 113.76 69.5669 115.324 68.0469 116.495C66.4633 117.562 64.8211 118.539 63.128 119.422C62.5531 119.826 62.0989 120.379 61.8143 121.022C61.6067 121.546 61.8697 121.986 61.8624 122.489C61.8528 122.98 61.7569 123.503 61.6983 124.015C61.1788 123.915 60.4802 123.958 60.1747 123.683C59.9496 123.419 59.6347 123.248 59.2909 123.203C58.9471 123.159 58.599 123.243 58.3141 123.441C57.5353 123.981 56.8236 124.611 56.1942 125.32C55.1638 126.039 54.0293 126.597 52.8301 126.974C52.2132 127.235 51.603 127.515 51.0098 127.816L50.7882 127.93C50.7145 127.968 50.5848 128.065 50.4861 128.13L49.8525 128.574C49.4267 128.854 49.0237 129.167 48.6475 129.511C47.2694 130.656 46.3739 132.279 46.1401 134.055C46.0368 135.17 46.1893 136.294 46.5859 137.342C46.9957 138.357 47.6119 139.277 48.3955 140.041C50.0849 141.674 52.0274 143.023 54.1477 144.034C54.6584 144.317 55.2267 144.604 55.733 144.84C56.1765 145.047 56.6249 145.246 57.0765 145.43C57.9584 145.775 58.8641 146.056 59.7865 146.27C61.5874 146.687 63.4424 146.822 65.2847 146.668C68.8695 146.349 72.481 146.813 75.8686 148.028C77.7283 148.7 79.7568 148.743 81.6435 148.152C83.5359 147.598 85.5274 147.471 87.475 147.779C89.0497 147.998 90.5846 148.327 92.1668 148.506C94.1497 148.739 96.1579 148.944 98.169 148.983C99.8715 149.013 101.278 148.561 101.929 147.592C102.121 147.31 102.407 147.106 102.735 147.017C103.064 146.928 103.414 146.959 103.722 147.105C106.918 148.73 110.66 149.037 114.969 148.382C117.775 147.948 120.634 147.616 123.485 147.104C126.391 146.656 129.223 145.81 131.899 144.589C132.191 144.447 132.485 144.319 132.789 144.183L133.243 144C133.386 143.948 133.556 143.886 133.76 143.802C134.532 143.506 135.303 143.199 136.104 142.834C136.44 142.68 136.758 142.492 137.054 142.271L137.506 141.93C137.644 141.802 137.772 141.662 137.903 141.523C138.146 141.235 138.36 140.924 138.542 140.593C138.701 140.247 138.86 139.903 139.016 139.565C139.161 139.168 139.303 138.781 139.44 138.406C139.545 138.161 139.664 137.922 139.796 137.691C141.603 134.183 142.573 130.304 142.629 126.358C142.741 124.029 142.998 121.709 143.397 119.411C144.725 111.552 147.19 103.83 148.011 95.9288C148.212 95.1922 148.473 94.4732 148.791 93.7792C149.375 91.886 149.957 89.9888 150.488 88.0786C152.218 81.9397 153.638 75.6715 156.288 69.9002C157.092 68.1009 157.491 66.1469 157.457 64.1764C157.428 62.8648 157.725 61.5665 158.32 60.3973C158.498 60.5206 158.682 60.6397 158.876 60.7507C159.306 61.0248 159.671 61.391 159.943 61.823C160.215 62.2551 160.387 62.742 160.448 63.2489C160.755 64.4878 160.515 65.7519 161.923 66.9876C163.137 68.0613 163.014 69.806 164.311 70.9221C165.202 71.6411 165.911 72.5613 166.378 73.6071C167.165 76.6596 168.928 79.2944 170.521 82.0721C171.498 83.7698 172.203 85.6033 173.031 87.3767C175.557 89.645 177.114 93.3519 179.709 95.4875C180.342 95.9333 180.791 96.594 180.973 97.3464C181.178 98.2467 181.607 98.8445 182.204 98.9692C182.875 99.032 183.5 99.337 183.962 99.8272C184.424 100.317 184.692 100.959 184.715 101.632C184.963 104.86 187.297 108.092 188.131 111.299C188.587 111.669 189.107 111.953 189.665 112.136C189.992 112.23 190.278 112.431 190.476 112.708C190.675 112.984 190.774 113.32 190.758 113.659C190.749 114.704 190.88 115.746 191.148 116.756C191.387 117.32 191.906 117.646 192.813 118.248C193.42 118.649 193.946 119.161 194.363 119.757C194.751 120.31 194.986 120.956 195.045 121.629C195.053 122.161 194.953 122.689 194.75 123.181C194.547 123.673 194.245 124.119 193.864 124.491C192.945 125.423 191.846 126.157 190.633 126.648C188.161 127.744 186.02 129.645 183.882 131.438L173.81 140.021C172.386 141.281 170.686 142.19 168.847 142.673C167.808 142.967 166.794 143.343 165.815 143.797C163.73 144.743 162.076 146.436 161.18 148.543C160.971 149.337 160.882 150.158 160.914 150.978C160.885 151.716 160.512 152.251 159.86 152.267C158.667 152.3 157.582 152.227 156.43 153.897C155.57 155.094 154.671 156.345 153.811 157.542C153.407 158.207 152.77 158.698 152.025 158.92L147.087 160.156C146.005 160.439 145.067 161.111 144.45 162.043C142.698 164.191 140.71 166.135 138.522 167.837C136.571 169.642 134.186 170.911 131.599 171.521C130.48 171.759 130.01 172.278 129.585 173.596C129.376 174.244 129.292 174.833 128.635 175.234C127.658 175.84 126.638 176.373 125.583 176.829C123.026 177.736 120.848 179.475 119.398 181.767C118.488 183.287 117.249 184.799 116.139 186.313C115.331 187.415 114.333 187.717 113.844 187.021C113.298 186.252 112.693 186.341 111.84 187.359C110.852 188.536 109.864 189.714 108.876 190.891C108.386 191.483 107.897 192.074 107.41 192.663C106.944 193.242 106.48 193.819 106.018 194.395C105.167 195.526 104.102 196.249 103.453 195.911C103.112 195.773 102.845 195.531 102.601 195.452C102.469 195.408 102.342 195.352 102.222 195.284C102.163 195.243 102.106 195.22 102.041 195.171C101.954 195.121 101.856 195.046 101.759 194.982C101.283 194.625 100.832 194.234 100.41 193.814L97.074 190.484C95.0853 188.521 93.1844 186.005 90.8892 184.964C87.6773 183.506 86.9467 180.168 84.3466 178.454C83.0655 177.611 81.8035 176.592 80.522 175.868C79.1789 175.088 78.0713 173.96 77.316 172.603C76.5161 171.276 75.7379 171.359 74.8398 171.211C74.1263 171.14 73.4429 170.887 72.855 170.477C72.2672 170.066 71.7946 169.512 71.4826 168.866C71.0365 167.904 70.7053 166.952 70.3411 165.997C69.7495 164.453 67.9383 164.024 67.1617 162.807C65.3149 160.205 63.2115 157.796 60.8833 155.614C58.9036 153.66 56.8064 151.829 54.6032 150.131C51.6011 148.026 48.3435 146.311 44.9087 145.028C44.679 144.958 44.4309 144.982 44.2188 145.094C44.0067 145.207 43.8478 145.399 43.7772 145.629C43.6713 146.744 43.6988 147.868 43.8593 148.977C44.0487 150.047 44.5807 151.028 45.3752 151.77C47.0625 153.483 48.7637 155.181 50.4788 156.863L66.786 172.89C68.2838 175.186 70.1408 177.226 72.2858 178.933C74.7909 181.078 76.4406 183.677 78.7656 185.865L88.8103 195.385L93.8805 200.22C95.0411 201.347 96.3414 202.32 97.7495 203.116C99.6852 204.198 101.912 204.645 104.115 204.395C104.873 204.296 105.619 204.122 106.343 203.875C106.7 203.746 107.062 203.609 107.4 203.452C107.731 203.301 107.995 203.164 108.27 203.012C109.212 202.484 110.096 201.861 110.91 201.152C111.27 200.842 111.586 200.544 111.886 200.25C112.165 199.971 112.437 199.69 112.703 199.402C113.237 198.828 113.74 198.227 114.212 197.601C115.242 196.392 116.474 195.37 117.853 194.581C119.536 193.537 121.165 192.406 122.732 191.194C127.737 187.18 132.681 183.093 137.652 179.037C142.626 174.978 147.532 170.816 152.616 166.922C154.483 165.534 156.251 164.017 157.908 162.384C160.685 159.594 163.923 157.105 166.889 154.422C168.625 152.848 170.214 151.141 171.869 149.495C176.841 146.86 180.586 142.533 184.998 139.124C185.856 138.368 186.607 137.499 187.232 136.542C187.679 135.92 188.285 135.431 188.987 135.127C190.904 134.112 192.709 132.899 194.373 131.508C196.457 130.001 198.425 128.338 200.259 126.535C201.03 125.183 201.514 123.687 201.683 122.14C201.83 120.651 201.706 119.148 201.316 117.703ZM147.751 73.7979C147.161 77.7354 145.497 81.4379 144.572 85.3372C144.189 86.8662 143.631 88.3461 142.91 89.7476C141.433 92.5526 140.645 95.6687 140.609 98.8385C140.583 100.822 140.119 102.775 139.252 104.559C137.839 107.407 137.059 110.526 136.965 113.703C136.876 114.867 136.612 116.011 136.182 117.096C134.867 121.305 133.788 125.585 132.95 129.914C132.513 132.17 132.072 134.445 131.633 136.711C131.641 137.058 131.264 137.235 130.966 137.22C130.756 137.238 130.548 137.274 130.343 137.328C130.079 137.388 129.74 137.419 129.442 137.457C128.79 137.524 128.134 137.543 127.479 137.513C126.768 137.522 126.068 137.688 125.428 137.999C122.401 139.573 119.028 139.71 115.578 139.208C114.441 139.053 113.283 139.142 112.182 139.469C108.171 140.885 103.829 141.077 99.7076 140.02C99.3282 139.926 98.933 139.913 98.5483 139.983C95.4404 140.847 92.4193 139.85 89.3738 139.735C87.0084 139.643 84.5916 139.429 82.4781 140.065C79.8724 140.768 77.1185 140.698 74.5521 139.863C72.7862 139.253 70.9016 139.067 69.0505 139.319C67.937 139.354 66.8325 139.109 65.8377 138.608C63.8185 137.712 61.6308 137.259 59.4219 137.28C59.1159 137.271 58.8134 137.213 58.5263 137.107C58.3293 137.046 58.1544 136.93 58.0232 136.771C57.8606 136.512 57.7393 136.229 57.6636 135.933C57.7039 135.713 57.7952 135.506 57.9301 135.328C57.5584 135.601 57.1394 135.802 56.6943 135.922C56.0507 136.123 55.5513 136.044 56.007 135.796C56.3546 135.619 56.7169 135.471 57.0898 135.356C57.3118 135.277 57.3047 135.27 57.0596 135.115C57.0059 135.09 56.9607 135.05 56.9294 134.999C56.8981 134.949 56.882 134.891 56.8832 134.832C56.8844 134.772 56.9028 134.715 56.9361 134.666C56.9694 134.617 57.0162 134.579 57.0708 134.556L57.4437 134.339C57.6808 134.202 57.9205 134.071 58.1628 133.946C58.6462 133.697 59.1349 133.472 59.6137 133.274C60.8971 132.745 62.104 132.181 63.2571 131.57C63.889 131.233 64.5036 130.864 65.0986 130.465C65.729 130.056 66.3492 129.634 66.9592 129.198C68.1783 128.325 69.3641 127.41 70.5016 126.428C71.6197 125.42 72.7023 124.363 73.7492 123.257C74.6442 122.474 75.6402 121.815 76.7107 121.298C78.1278 120.538 79.3835 119.511 80.4079 118.272C81.323 116.984 82.5228 115.926 83.9139 115.178C85.8262 114.229 86.5446 112.159 88.1777 111.128C89.8535 110.084 91.3811 108.82 92.7197 107.369C94.9943 106.331 96.4266 104.489 97.7853 102.566C98.0623 102.294 98.39 102.078 98.7498 101.932C100.492 101.101 101.867 99.6576 102.614 97.8778C103.194 96.4574 104.613 95.5218 105.762 94.4371C108.978 93.1369 111.434 90.3726 114.019 87.9175C115.201 86.8509 116.328 85.7242 117.394 84.5419C118.891 82.7927 120.12 80.8903 121.64 79.1586C123.289 77.3041 125.551 76.7762 127.352 75.221C128.199 74.4363 128.989 73.5916 129.714 72.6932C130.472 71.8263 131.102 70.5451 131.916 70.1194C134.5 68.746 135.975 66.5881 137.886 64.742C139.667 62.9925 141.54 61.7855 143.557 61.8692C144.209 61.9289 144.864 61.8102 145.453 61.526C146.042 61.2418 146.543 60.8027 146.901 60.2558C147.507 59.3624 148.334 58.6411 149.301 58.162C150.205 57.6802 151.05 57.3728 151.828 56.9683C151.348 58.7057 151.352 60.5219 150.99 62.2847C150.179 66.2046 148.355 69.7864 147.751 73.7979Z" fill="#000638"/>
</svg>
