<svg width="300" height="300" viewBox="0 0 300 300" fill="none" xmlns="http://www.w3.org/2000/svg">
<path d="M269.58 141.163C269.381 138.893 268.786 136.676 267.824 134.61C267.318 133.592 266.683 132.643 265.935 131.787C265.184 130.964 264.301 130.272 263.322 129.741C262.52 129.322 261.805 128.754 261.216 128.068C260.347 127.227 259.42 126.446 258.444 125.733C257.196 124.764 255.723 124.126 254.162 123.879C252.602 123.633 251.004 123.785 249.518 124.322C247.783 124.881 246.228 125.439 244.624 126.035C239.304 128.048 234.372 130.376 230.624 134.067C230.3 134.384 229.684 134.433 229.245 134.686C228.102 135.315 226.982 135.988 225.894 136.713C222.387 139.055 219.297 141.914 215.55 143.972C214.39 144.638 213.503 145.691 213.045 146.947C212.871 147.434 212.598 147.88 212.245 148.258C211.892 148.636 211.465 148.938 210.991 149.145C209.849 149.809 208.846 150.687 208.039 151.733C206.387 153.506 205.745 155.214 207.386 156.892C207.771 157.288 207.382 157.746 206.701 157.759C206.468 157.735 206.232 157.742 206 157.78C205.812 157.833 205.479 158.048 205.485 158.132C205.574 159.476 207.988 160.92 209.172 160.365C210.253 159.841 211.528 159.531 212.241 158.449C212.931 157.162 213.919 156.058 215.122 155.23C216.469 154.469 216.836 152.909 217.751 151.769C219.307 149.823 221.622 148.765 223.204 146.816C224.771 144.883 227.12 143.852 229.056 142.341C229.847 141.758 230.745 141.336 231.699 141.099C233.624 140.674 235.338 139.583 236.538 138.018C237.28 137.035 238.379 136.383 239.598 136.205C241.429 135.988 243.153 135.224 244.543 134.012C245.06 133.623 245.687 133.408 246.334 133.398C247.515 133.253 248.632 133.113 249.724 133.023C250.768 132.928 251.818 132.916 252.864 132.987C254.152 133.034 255.421 133.315 256.608 133.819C257.15 134.032 257.628 134.378 258 134.826C258.371 135.275 258.623 135.809 258.731 136.381C258.757 136.522 258.82 136.654 258.913 136.763C259.007 136.872 259.128 136.954 259.264 137C260.86 137.527 261.162 139.198 260.444 140.671C260.339 140.909 260.285 141.167 260.287 141.428C260.289 141.688 260.347 141.946 260.456 142.182C260.716 142.683 260.881 143.228 260.943 143.79C260.987 144.349 260.933 144.912 260.782 145.452C260.631 146.014 260.392 146.549 260.074 147.036C259.747 147.562 259.353 148.045 258.904 148.472C258.741 148.626 258.638 148.833 258.612 149.056C258.668 151.041 256.95 152.2 256.012 153.723C255.649 154.324 255.231 154.912 254.908 155.536C254.542 156.179 254.311 156.892 254.231 157.628C254.142 158.505 253.87 159.354 253.435 160.121C252.999 160.887 252.409 161.555 251.701 162.08C250.669 162.772 249.947 163.839 249.69 165.054C249.42 165.747 248.911 166.321 248.256 166.673C246.967 167.483 246.033 168.751 245.641 170.222C245.293 171.234 244.606 171.052 243.937 171.189C242.445 171.491 242.154 171.973 242.503 173.72C242.628 174.335 242.6 174.778 242.094 174.782C241.105 174.793 240.403 174.912 240.03 176.163C239.528 177.614 238.55 178.852 237.254 179.676C234.151 181.84 231.671 184.782 230.065 188.208C229.641 188.823 229.08 189.331 228.427 189.692C227.563 190.221 226.888 191.008 226.494 191.941C226.359 192.423 226.125 192.873 225.809 193.261C225.492 193.649 225.099 193.968 224.654 194.197C223.396 194.79 223.45 196.446 222.397 197.104C221.348 197.769 220.441 198.636 219.728 199.653C218.138 200.198 217.44 201.512 216.784 202.902C216.703 203.08 216.373 203.187 216.142 203.276C215.547 203.471 215.019 203.83 214.619 204.313C214.219 204.795 213.964 205.38 213.882 206.001C213.703 207.075 212.747 207.619 212.035 208.322C209.68 208.85 208.217 210.685 206.596 212.287C205.831 212.959 205.124 213.695 204.485 214.488C203.604 215.692 202.963 217.059 202.064 218.252C201.093 219.537 199.352 219.579 198.218 220.614C197.695 221.153 197.229 221.747 196.83 222.384C196.393 222.997 196.13 223.963 195.581 224.218C193.824 225.033 193.067 226.615 191.986 227.969C191.584 228.603 191.006 229.107 190.324 229.42C189.641 229.732 188.882 229.84 188.14 229.73C187.902 229.659 187.653 229.636 187.407 229.661C187.16 229.686 186.921 229.76 186.704 229.878C186.486 229.996 186.293 230.156 186.137 230.348C185.981 230.541 185.865 230.762 185.794 230.999C185.27 232.745 183.551 233.731 182.823 235.367C182.276 236.569 180.828 236.591 179.967 237.386C179.126 238.161 178.072 238.569 177.533 239.539C177.378 239.806 177.128 240.006 176.833 240.099C176.537 240.192 176.218 240.17 175.938 240.039C175.589 239.914 175.248 239.769 174.916 239.604C174.853 239.562 174.781 239.533 174.707 239.519C174.632 239.505 174.555 239.506 174.481 239.522C174.407 239.538 174.336 239.568 174.274 239.612C174.212 239.655 174.158 239.711 174.118 239.775C173.889 240.073 173.64 239.925 173.431 239.81C173.348 239.736 173.248 239.684 173.139 239.661C173.048 239.625 172.954 239.641 172.824 239.76C172.659 239.893 172.462 239.98 172.253 240.013C172.066 240.001 171.879 239.961 171.838 239.797C171.736 239.31 171.558 238.842 171.309 238.411C170.996 237.937 170.727 237.434 170.505 236.911C170.255 236.025 170.156 235.104 170.212 234.185C168.837 232.816 169.166 230.502 167.912 228.57C167.745 228.384 167.634 228.155 167.592 227.91C167.55 227.664 167.579 227.411 167.675 227.181C167.919 226.611 167.822 226.16 167.355 225.934C166.451 225.496 165.645 224.828 166.43 223.746C167.82 221.844 167.31 219.387 168.25 217.381C168.303 217.268 167.7 216.732 167.358 216.459C166.857 216.061 166.832 215.747 167.197 215.293C168.75 213.384 168.763 213.323 167.588 211.696C166.8 210.462 166.133 209.154 165.597 207.791C165.191 207.009 164.981 206.14 164.984 205.259C164.986 204.378 165.201 203.511 165.61 202.731C166.254 201.088 166.578 199.337 166.565 197.573C166.714 194.793 166.973 192.022 167.231 189.244C167.351 187.994 167.923 186.83 168.84 185.97C169.345 185.447 169.793 184.871 170.177 184.253C170.57 183.626 170.781 182.903 170.786 182.164C170.791 181.424 170.59 180.698 170.205 180.067C169.778 179.532 169.283 179.056 168.734 178.649C168.252 178.235 168.155 177.805 168.609 177.567C169.432 177.127 170.263 176.8 169.997 175.483C169.799 174.518 169.681 173.523 169.486 172.546C169.412 172.304 169.41 172.045 169.478 171.8C169.547 171.556 169.684 171.336 169.873 171.167C170.794 170.383 171.78 169.656 172.718 168.903C173.008 168.689 173.231 168.396 173.361 168.058C173.49 167.721 173.52 167.354 173.447 167.001C173.173 165.227 173.802 163.537 174.222 161.827C174.406 160.978 174.764 160.176 175.273 159.471C175.782 158.767 176.431 158.175 177.18 157.733C177.883 157.306 177.925 156.87 177.455 155.931C177.224 155.469 176.935 155.073 177.191 154.657C177.582 154.023 178.053 153.442 178.591 152.927C179.274 152.396 179.808 151.696 180.139 150.896C180.471 150.097 180.589 149.225 180.482 148.366C180.397 147.141 180.395 145.912 180.476 144.687C180.493 143.784 181.096 143.387 181.855 143.77C182.705 144.194 183.095 144.012 183.224 143.18C183.507 141.251 183.814 139.279 184.04 137.331C184.059 136.861 184.184 136.4 184.407 135.985C184.629 135.57 184.943 135.21 185.324 134.934C185.735 134.712 186.101 134.415 186.403 134.058C187.449 132.574 188.596 131.164 189.835 129.837C190.094 129.552 190.38 129.294 190.69 129.065C190.99 128.827 191.282 128.571 191.572 128.364C192.146 127.954 192.6 127.397 192.885 126.752C193.055 126.356 193.353 126.028 193.731 125.821C194.082 125.695 194.45 125.629 194.822 125.623C195.164 125.672 195.509 125.699 195.854 125.704C196.173 125.761 196.501 125.7 196.777 125.532C197.083 125.412 197.42 125.292 197.773 125.191C198.147 125.144 198.515 125.06 198.873 124.943C199.249 124.852 199.645 124.896 199.992 125.066C200.339 125.235 200.617 125.521 200.777 125.873C201.146 126.575 201.658 126.253 202.324 126.11C203.51 125.894 204.293 126.427 204.331 127.327C204.352 127.997 204.283 128.666 204.127 129.317C203.892 130.313 205.119 130.685 205.052 131.549C204.996 132.396 204.989 133.247 205.03 134.095C205.055 134.936 205.098 135.816 205.045 136.705C205.156 138.259 204.82 139.918 204.976 141.53C205.154 143.971 205.636 146.379 206.411 148.701C206.525 148.889 206.688 149.042 206.883 149.144C207.078 149.245 207.297 149.292 207.516 149.278C208.435 149.097 209.33 148.809 210.182 148.419C210.533 148.259 210.843 148.022 211.09 147.726C211.337 147.43 211.515 147.083 211.61 146.709C212.085 145.085 212.465 143.436 212.75 141.769C213.276 138.873 213.364 135.915 213.01 132.993C212.587 129.786 211.409 126.724 209.573 124.059C209.11 122.859 208.411 121.763 207.518 120.837C206.625 119.911 205.556 119.173 204.373 118.667C202.963 117.949 201.49 117.361 199.972 116.912L198.852 116.604C198.472 116.521 198.077 116.483 197.683 116.436C197.289 116.393 196.89 116.361 196.49 116.344C196.09 116.357 195.691 116.391 195.294 116.445C194.163 116.591 193.051 116.853 191.973 117.226C190.973 117.595 190.004 118.047 189.078 118.577C188.207 119.071 187.371 119.625 186.575 120.234C185.838 120.817 185.13 121.438 184.456 122.093C181.997 124.536 179.893 127.313 178.206 130.342C177.625 131.329 177.115 132.357 176.68 133.416C176.287 134.406 176.041 135.447 175.947 136.508C175.77 137.548 175.322 138.522 174.649 139.334C173.889 140.402 173.226 141.535 172.667 142.72C172.24 143.687 171.801 144.65 171.399 145.627L170.245 148.581C169.869 149.568 169.472 150.548 169.115 151.543L168.074 154.538C167.732 155.538 167.371 156.533 167.058 157.544L166.138 160.581C165.517 162.603 164.897 164.623 164.278 166.64C163.758 168.087 163.431 169.596 163.305 171.129C163.189 172.437 162.994 173.737 162.722 175.022C162.486 176.322 162.266 177.631 162.106 178.936C161.957 180.47 161.902 182.011 161.941 183.551C161.165 185.226 160.717 187.034 160.622 188.877C160.486 190.711 160.445 192.554 160.169 194.359C160.148 195.127 160.279 195.892 160.555 196.609C160.632 196.85 160.659 197.105 160.634 197.357C160.609 197.609 160.532 197.853 160.408 198.074C160.111 198.724 159.892 199.406 159.756 200.107C159.628 200.808 159.565 201.526 159.497 202.244C159.439 203.683 159.16 205.104 158.671 206.458C158.946 207.731 159.155 209.018 159.297 210.312C159.455 211.609 159.411 212.922 159.166 214.204C158.614 216.103 158.379 218.081 158.471 220.056C158.581 222.016 158.852 223.964 159.282 225.879C159.581 226.593 159.692 227.372 159.605 228.142C159.433 228.85 159.327 229.573 159.29 230.301C159.27 230.662 159.264 231.024 159.27 231.385C159.284 231.761 159.318 232.157 159.357 232.541C159.566 234.156 159.935 235.745 160.46 237.285C160.838 238.471 161.28 239.659 161.756 240.884C162.267 242.221 162.868 243.521 163.554 244.776C164.715 246.854 166.592 248.44 168.834 249.238C171.037 250.024 173.453 249.965 175.615 249.074C177.324 248.311 178.985 247.443 180.588 246.477C181.99 245.669 183.4 244.856 184.82 244.038C186.282 243.219 187.805 242.668 188.729 241.281C189.727 239.809 191.737 239.593 192.952 238.136C193.949 236.946 195.179 235.973 196.566 235.279C197.809 234.666 198.343 233.421 199.391 232.85C200.96 232.002 201.31 230.511 202.025 229.25C202.628 228.192 203.15 227.824 204.302 228.018C205.214 228.171 205.215 226.972 205.737 226.536C206.516 225.888 207.565 225.533 208.261 224.827C209.153 223.918 209.707 222.699 210.559 221.747C212.285 219.832 214.006 217.901 216.544 217.022C216.856 216.831 217.087 216.532 217.192 216.181C217.297 215.831 217.269 215.454 217.113 215.123C216.59 214.39 215.99 213.72 215.476 212.98C215.138 212.493 215.227 212.086 215.611 212.007C215.838 211.972 216.071 212.018 216.269 212.136C216.844 212.494 217.368 212.923 217.95 213.267C218.371 213.514 218.861 213.612 219.344 213.546C219.826 213.479 220.273 213.253 220.611 212.902C221.492 212.348 222.191 211.547 222.622 210.599C223.233 208.898 224.253 207.373 225.59 206.158C226.661 205.038 227.819 204.004 229.052 203.067C230.521 202.019 230.783 199.95 232.732 199.27C233.631 198.759 234.38 198.021 234.903 197.129C235.655 196.086 236.059 194.794 236.88 193.836C237.795 192.959 238.757 192.132 239.762 191.36C240.076 190.978 240.234 190.493 240.206 190C240.175 189.563 239.803 189.212 239.62 188.802C239.443 188.401 239.32 187.972 239.172 187.555C239.624 187.549 240.074 187.624 240.499 187.776C242.024 188.717 242.312 187.635 242.81 186.336C243.026 185.77 243.935 185.356 244.571 184.949C245.955 184.198 246.985 182.928 247.434 181.419C247.949 179.399 249.207 177.648 250.956 176.514C252.951 175.263 254.403 173.307 255.024 171.035C255.598 168.768 257.027 166.811 259.013 165.575C259.554 165.226 260.003 164.751 260.32 164.191C260.638 163.631 260.816 163.002 260.838 162.358C260.942 161.049 261.484 159.814 262.378 158.852C263.062 158.042 263.842 157.309 264.489 156.442C265.342 155.361 266.087 154.199 266.714 152.972C266.987 152.522 267.109 151.996 267.062 151.472C267.015 150.947 266.803 150.451 266.455 150.056C266.03 149.618 265.975 149.044 266.437 148.748C268.705 147.267 269.902 144.559 269.58 141.163Z" fill="#80829B"/>
<path d="M260.614 138.434C260.099 137.281 259.336 136.255 258.381 135.43C257.425 134.605 256.299 134 255.083 133.659C252.569 132.912 249.875 133.05 247.451 134.05L246.986 134.214L246.692 134.327C246.495 134.4 246.302 134.484 246.108 134.566L244.949 135.058C244.178 135.384 243.424 135.753 242.662 136.092C240.774 136.844 238.823 137.428 236.831 137.835C234.766 138.282 232.876 139.32 231.39 140.823C231.011 141.275 230.735 141.804 230.582 142.374C230.199 143.67 229.26 143.943 228.293 144.206C227.359 144.499 226.397 144.784 226.255 146.114C226.086 147.624 224.604 148.114 224.467 149.547C224.389 151.195 224.48 152.846 224.74 154.476C225.24 155.333 225.934 156.062 226.766 156.605C227.865 157.551 227.928 157.584 228.39 156.653C228.708 156.008 229.82 155.387 230.862 154.785C231.893 154.164 232.877 153.577 232.944 152.769C232.928 152.34 233.016 151.913 233.199 151.525C233.382 151.136 233.656 150.797 233.997 150.536C234.935 149.943 235.722 149.076 237.041 149.147C238.166 149.218 239.385 148.22 240.654 147.17C241.685 146.16 242.86 145.308 244.141 144.643C246.174 143.981 246.163 143.026 246.809 142.727C247.218 143.02 247.722 143.146 248.221 143.082C248.719 143.017 249.175 142.765 249.495 142.378C249.581 141.938 250.071 141.098 250.522 141.231C250.818 141.312 250.885 141.877 251.082 141.931C251.226 141.967 251.777 141.408 252.084 141.415C252.354 141.515 252.592 141.686 252.771 141.91C252.951 142.134 253.065 142.404 253.103 142.689C253.144 143.224 253.029 143.759 252.771 144.229C252.509 144.348 252.257 144.488 252.018 144.648C251.95 144.689 251.885 144.735 251.823 144.783C251.74 144.898 251.653 145.016 251.565 145.137C251.399 145.379 251.221 145.634 251.061 145.891C250.415 146.919 249.866 148.005 250.062 148.626C250.929 151.327 248.86 153.86 246.876 156.223C244.88 158.607 242.988 160.873 243.771 163.907C243.913 164.342 240.322 168.978 239.471 168.867C239.109 168.828 238.742 168.887 238.411 169.039C238.079 169.191 237.795 169.43 237.588 169.73C237.416 170.592 237.581 171.599 236.967 172.292C236.196 173.152 235.349 174.007 234.539 174.889C233.699 175.744 232.89 176.622 232.137 177.484C230.723 179.093 227.885 180.767 227.113 182.841C226.995 183.169 226.974 183.765 226.725 183.776C224.531 184.031 222.51 185.089 221.05 186.746C219.44 188.358 218.212 190.31 217.456 192.458C217.351 192.786 217.343 193.138 217.434 193.47C217.525 193.802 217.71 194.101 217.968 194.329C218.225 194.558 218.544 194.706 218.885 194.756C219.225 194.807 219.573 194.757 219.886 194.613C222.31 193.975 224.218 191.948 225.812 190.129C227.037 188.73 229.691 190.287 231.095 188.754C233.362 186.248 235.966 184.637 238.595 182.563C239.175 181.725 239.612 180.798 239.889 179.818C240.134 178.859 240.546 177.95 241.107 177.134C241.981 176.127 242.97 175.228 244.055 174.454C245.161 173.635 246.188 172.715 247.124 171.706C248.021 171.078 248.965 170.482 249.898 169.873C251.225 168.128 252.408 166.251 252.45 163.852C252.453 163.173 253.319 163.192 253.543 162.767C253.779 162.317 253.535 161.612 253.672 161.094C254.037 159.549 256.283 159.796 256.132 157.714C255.993 156.963 256.058 156.187 256.32 155.469C257.037 153.964 257.777 152.481 258.477 150.953C258.828 150.19 259.169 149.416 259.487 148.623C259.649 148.229 259.802 147.827 259.951 147.423C260.019 147.26 260.118 146.932 260.21 146.642C260.301 146.345 260.401 146.059 260.484 145.751C260.646 145.133 260.834 144.511 260.937 143.885C261.075 143.27 261.161 142.643 261.191 142.013C261.268 140.792 261.071 139.569 260.614 138.434Z" fill="#006ADC"/>
<path d="M249.876 139.244C249.985 138.349 249.992 137.445 249.895 136.549C249.787 135.702 249.55 134.876 249.192 134.1C248.761 133.177 248.111 132.374 247.299 131.76C246.418 131.15 245.409 130.749 244.35 130.587C243.828 130.513 243.254 130.482 242.708 130.413C242.406 130.379 242.101 130.375 241.799 130.401C241.479 130.413 241.158 130.424 240.835 130.435C238.616 130.833 236.561 131.869 234.921 133.415C234.118 134.091 233.414 134.747 232.717 135.364C232.025 135.97 231.262 136.488 230.443 136.907L230.021 137.109L229.678 137.288L228.985 137.653C228.514 137.89 228.068 138.18 227.606 138.454C226.683 139.022 225.804 139.658 224.974 140.356C223.333 141.693 221.989 143.359 221.029 145.245C220.176 147.051 220.49 147.878 221.036 148.169C221.333 148.284 221.651 148.333 221.968 148.311C222.285 148.29 222.594 148.2 222.872 148.046C225.385 146.665 228.452 144.728 231.456 142.963C231.829 142.739 232.201 142.515 232.572 142.292L233.325 141.821C233.676 141.581 234.015 141.323 234.339 141.048C235.052 140.439 235.938 139.604 237.231 138.423C237.556 138.134 237.682 138.59 237.818 138.76C238.128 139.114 238.662 139.055 239.333 139.41C239.489 139.503 239.624 139.628 239.731 139.775C239.838 139.923 239.914 140.09 239.954 140.267C240.013 140.553 240.016 140.847 239.965 141.134L239.268 141.271L237.857 141.714C237.389 141.862 236.913 142.093 236.444 142.277C235.505 142.658 234.576 143.148 233.659 143.603C232.583 144.176 232.177 144.427 231.585 144.784C230.452 145.465 229.352 146.173 228.266 146.903C226.089 148.36 223.959 149.892 221.793 151.526C220.811 152.192 219.73 152.699 218.59 153.029C217.372 153.493 216.385 154.417 215.841 155.601C215.321 156.779 214.616 157.865 213.752 158.819C213.379 159.221 212.935 159.544 212.492 159.985C212.267 160.212 212.054 160.452 211.853 160.701C211.64 161.014 211.46 161.348 211.317 161.699C211.169 162.103 211.081 162.527 211.056 162.957C211.033 163.197 211.025 163.438 211.031 163.678C211.04 163.972 211.061 164.267 211.092 164.561C211.164 165.253 211.313 165.934 211.536 166.593C211.815 167.399 212.194 168.167 212.666 168.878C212.879 169.175 213.112 169.459 213.361 169.727C213.594 169.986 213.848 170.225 214.12 170.442C214.571 170.796 215.052 171.111 215.556 171.382C215.958 171.584 216.378 171.771 216.809 171.937C217.429 172.125 218.068 172.243 218.714 172.29C219.086 172.307 219.516 172.31 219.894 172.291C219.591 172.587 219.325 172.92 219.103 173.281C218.591 174.077 217.933 174.768 217.164 175.319C216.406 175.866 215.594 176.344 214.832 176.894C213.718 177.624 212.392 177.962 211.064 177.855C209.956 177.84 208.339 178.928 206.657 180.061C205.265 181.139 203.725 182.009 202.083 182.643C200.41 183.023 200.401 183.1 200.864 184.478C200.974 185.491 201.468 186.422 202.244 187.081C204.331 187.654 206.464 188.04 208.619 188.235C209.606 188.202 210.574 187.963 211.462 187.532C212.36 187.073 213.349 186.823 214.356 186.799C216.115 186.834 217.209 185.827 218.256 184.744C219.328 183.685 220.353 182.557 222.224 182.355C223.074 182.248 223.903 182.012 224.682 181.654C227.587 180.119 230.155 178.016 232.234 175.472C234.373 173.062 236.238 170.494 238.519 168.287C239.474 167.376 240.395 166.431 241.318 165.484C242.243 164.539 243.178 163.513 244.075 162.428C245.009 161.307 245.863 160.121 246.631 158.88L246.919 158.385C247.027 158.197 247.181 157.932 247.297 157.7L247.99 156.23C248.207 155.735 248.374 155.226 248.569 154.722C248.75 154.215 248.859 153.702 249.007 153.191C249.498 151.225 249.588 149.182 249.273 147.181C249.088 146.066 248.703 144.993 248.135 144.016C248.433 143.547 248.715 143.074 248.964 142.596C249.414 141.524 249.721 140.396 249.876 139.244ZM220.15 164.876C220.164 164.882 220.151 164.884 220.151 164.884C220.151 164.884 220.135 164.896 220.136 164.889L220.141 164.873L220.15 164.876ZM225.642 157.875C226.79 156.917 228.094 156.163 229.496 155.646C228.589 157.093 227.488 158.408 226.224 159.557C225.073 160.792 223.726 161.829 222.238 162.626C221.923 162.607 221.617 162.605 221.314 162.609C222.522 160.832 223.98 159.237 225.642 157.875ZM218.562 162.631L218.564 162.643L218.548 162.638C218.552 162.637 218.553 162.608 218.562 162.631ZM218.535 164.573L218.535 164.573C218.414 165.133 218.446 164.985 218.535 164.573ZM234.056 161.664C234.241 161.428 234.428 161.197 234.608 160.954C234.593 161.059 234.57 161.158 234.562 161.269C234.411 161.422 234.241 161.555 234.056 161.664V161.664ZM240.026 154.604C239.901 154.91 239.729 155.195 239.516 155.449C239.288 155.733 239.036 155.997 238.761 156.236C238.203 156.731 237.569 157.171 236.968 157.625C236.927 157.656 236.888 157.687 236.848 157.718C237.903 156.124 238.924 154.566 239.977 153.236C239.954 153.262 239.936 153.292 239.924 153.324C239.833 153.644 240.189 154.115 240.026 154.604V154.604ZM239.986 153.224C240.056 153.135 240.126 153.037 240.196 152.95C240.45 152.645 240.717 152.351 240.996 152.067C240.988 152.122 240.975 152.177 240.957 152.231C240.801 152.625 240.188 152.985 239.986 153.224V153.224Z" fill="#000638"/>
<path d="M226.184 73.5259C225.97 72.8239 225.798 72.1325 225.659 71.4435C225.539 70.7614 225.454 70.0737 225.404 69.3829C225.353 67.9257 225.405 66.4667 225.56 65.0169C225.643 64.1469 225.524 63.2696 225.214 62.4526C224.904 61.6357 224.41 60.901 223.77 60.3055C222.493 59.013 221.305 57.6346 220.216 56.1801C219.242 54.9132 218.014 53.8633 216.611 53.0973C214.821 52.1874 212.832 51.7378 210.825 51.7891C209.213 51.8368 208.044 52.5286 207.716 53.582C207.684 53.7223 207.624 53.8547 207.54 53.9713C207.455 54.088 207.349 54.1865 207.225 54.2611C207.102 54.3357 206.966 54.3849 206.823 54.4057C206.681 54.4265 206.536 54.4185 206.396 54.3822C203.51 53.4609 200.271 54.2877 197.451 56.4512C193.805 59.2522 190.224 62.2102 188.097 66.0155C187.653 66.8171 187.012 67.4931 186.236 67.9801C185.222 68.6179 184.319 69.5163 183.317 70.1241C180.754 71.8376 178.843 74.3652 177.893 77.2986C177.261 78.9691 176.521 80.5965 175.676 82.1702C172.849 87.5177 169.271 92.5849 167.537 98.4113C167.39 98.9129 166.845 99.3392 166.547 99.8422C165.764 101.127 165.046 102.452 164.354 103.79C162.149 108.116 160.463 112.679 157.798 116.774C156.991 118.064 156.589 119.567 156.646 121.088C156.713 122.281 156.33 123.456 155.573 124.381C154.767 125.661 154.165 127.058 153.789 128.523C152.922 131.168 152.901 133.219 155.084 134.16C155.596 134.381 155.391 135.053 154.747 135.4C154.512 135.492 154.291 135.615 154.088 135.765C153.929 135.912 153.688 136.298 153.724 136.383C154.285 137.74 157.081 138.094 158.016 136.91C158.88 135.822 159.937 134.825 160.254 133.322C160.438 131.602 160.965 129.936 161.805 128.424C162.779 126.893 162.57 125.088 162.973 123.406C163.684 120.551 165.474 118.161 166.147 115.264C166.533 113.858 167.08 112.5 167.779 111.22C168.474 109.931 169.198 108.654 169.778 107.311C170.27 106.262 170.926 105.297 171.72 104.453C173.36 102.799 174.458 100.686 174.871 98.3942C175.128 96.952 175.842 95.6307 176.907 94.6245C177.741 93.8185 178.477 92.9171 179.1 91.9388C179.705 90.9476 180.172 89.8782 180.487 88.7605C180.772 87.9541 181.223 87.2164 181.81 86.5947C183.797 84.0755 185.656 81.4576 187.379 78.751C189.578 75.45 191.676 71.8734 195.186 70.1031C195.65 69.8327 196.021 69.4282 196.25 68.9429C196.723 67.8547 197.45 66.8962 198.371 66.1484C199.292 65.4005 200.38 64.8853 201.542 64.6461C202.271 64.4539 202.926 64.0483 203.423 63.4813C204.224 62.3329 205.362 61.4626 206.681 60.9915C207.89 60.5214 209.218 60.4559 210.467 60.8047C210.657 60.8752 210.866 60.8699 211.051 60.7897C211.334 60.5893 211.667 60.4705 212.013 60.4464C212.358 60.4223 212.704 60.4937 213.012 60.6529C213.415 60.9235 213.786 61.2379 214.119 61.5903C214.39 61.8157 214.647 62.1122 214.978 62.4296C215.357 62.8312 215.796 63.1729 216.278 63.4432C216.96 63.9375 217.481 64.6228 217.774 65.4126C218.068 66.2023 218.121 67.0613 217.927 67.8812C217.887 68.208 217.837 68.5271 217.825 68.8288C217.733 69.8058 217.909 70.7893 218.332 71.6747C218.548 72.453 218.481 73.2829 218.141 74.0158C217.559 75.5585 217.468 77.2432 217.88 78.8397C218.093 79.9942 217.401 80.2175 216.869 80.717C215.699 81.8282 215.654 82.4136 216.775 83.932C217.16 84.466 217.328 84.9206 216.873 85.1918C216.4 85.3744 216.009 85.7206 215.769 86.1674C215.53 86.6142 215.458 87.1321 215.568 87.6271C215.677 89.3541 215.251 91.0728 214.348 92.5491C213.275 94.4216 212.403 96.4029 211.748 98.4597C211.075 100.527 210.632 102.662 210.426 104.826C210.219 105.663 209.846 106.45 209.329 107.14C208.667 108.102 208.276 109.224 208.199 110.389C208.221 111.548 207.838 112.678 207.116 113.585C206.08 114.779 206.682 116.494 205.826 117.647C204.985 118.813 204.364 120.122 203.991 121.511C202.601 122.793 202.272 124.456 202.032 126.197C202.001 126.417 201.711 126.676 201.512 126.871C200.979 127.345 200.568 127.939 200.313 128.605C200.058 129.27 199.966 129.987 200.046 130.695C200.165 131.892 199.373 132.877 198.85 133.911C196.618 135.443 195.71 137.998 194.441 140.309C193.845 141.323 193.325 142.38 192.885 143.472C192.309 145.09 191.945 146.752 191.33 148.365C190.672 150.109 188.885 150.805 187.957 152.313C187.54 153.072 187.197 153.87 186.933 154.694C186.631 155.507 186.546 156.608 186.038 157.079C184.397 158.567 183.962 160.517 183.085 162.309C182.274 164.006 181.177 165.244 179.444 165.484C178.885 165.515 178.355 165.742 177.947 166.126C177.54 166.509 177.281 167.025 177.217 167.581C177.043 168.578 176.679 169.533 176.143 170.392C175.587 171.243 175.146 172.164 174.832 173.131C174.452 174.528 172.889 175.13 172.036 176.365C171.219 177.566 170.082 178.596 169.703 180.018C169.576 180.427 169.352 180.799 169.049 181.101C168.746 181.403 168.374 181.627 167.965 181.752C167.014 182.203 165.835 182.244 165.416 183.632C165.209 184.163 164.83 184.609 164.34 184.899C163.861 185.169 163.491 185.599 163.296 186.113C163.095 186.815 162.552 187.802 162.009 187.995C159.973 188.706 158.597 189.951 157.189 190.497C156.473 190.76 155.683 190.739 154.981 190.439C154.75 190.653 154.464 190.799 154.156 190.862C153.847 190.924 153.527 190.901 153.231 190.794C152.472 190.55 151.7 190.344 150.92 190.179C150.443 190.085 150.084 189.902 149.989 189.362C149.882 188.801 149.594 188.488 149.077 188.554C148.097 188.667 147.024 188.412 147.186 187.029C147.268 185.839 147.127 184.644 146.769 183.505C146.408 182.295 146.191 181.046 146.123 179.785C146.124 179.644 145.329 179.276 144.891 179.103C144.762 179.078 144.64 179.025 144.534 178.947C144.428 178.869 144.341 178.769 144.278 178.653C144.215 178.537 144.179 178.409 144.172 178.278C144.164 178.147 144.186 178.015 144.236 177.894C144.831 175.273 144.917 175.159 143.099 173.823C141.819 172.762 140.645 171.578 139.594 170.29C138.894 169.554 138.348 168.686 137.989 167.737C137.63 166.787 137.464 165.775 137.501 164.761C137.475 162.703 137.067 160.668 136.296 158.76L134.922 154.08C134.44 152.524 134.021 150.952 133.632 149.371C133.246 147.988 133.307 146.52 133.804 145.174C134.083 144.393 134.286 143.587 134.411 142.767C134.536 141.926 134.455 141.067 134.174 140.265C133.894 139.462 133.422 138.74 132.8 138.16C132.218 137.744 131.581 137.411 130.907 137.171C130.305 136.903 130.057 136.469 130.393 136.03C131.005 135.225 131.651 134.541 130.869 133.204C130.293 132.227 129.85 131.175 129.305 130.18C129.146 129.935 129.051 129.655 129.026 129.364C129.002 129.073 129.049 128.781 129.165 128.513C129.738 127.289 130.314 126.108 130.943 124.905C131.138 124.538 131.24 124.129 131.24 123.714C131.24 123.298 131.137 122.889 130.941 122.523C130.526 121.594 130.238 120.613 130.083 119.607C129.935 118.595 129.875 117.558 129.772 116.534C129.492 114.544 129.95 112.519 131.061 110.844C131.569 110.087 131.455 109.591 130.685 108.754C130.307 108.342 129.897 108.026 129.99 107.466C130.12 106.618 130.353 105.788 130.683 104.996C131.141 104.107 131.396 103.128 131.428 102.129C131.461 101.13 131.27 100.136 130.871 99.2192C130.367 97.9067 129.943 96.5651 129.601 95.2018C129.306 94.21 129.735 93.5239 130.58 93.6239C131.514 93.729 131.843 93.3682 131.68 92.4053C131.281 90.153 130.882 87.8924 130.49 85.6728C130.222 84.5456 130.354 83.3606 130.863 82.3199C131.161 81.8336 131.379 81.3023 131.507 80.7465C131.753 78.7245 132.242 76.7396 132.965 74.8354C133.108 74.5159 133.288 74.2143 133.502 73.937C133.692 73.6501 133.956 73.4847 134.129 73.225C134.304 72.9679 134.557 72.8175 134.698 72.5378C134.893 72.2811 135.051 71.9988 135.168 71.6989C135.346 71.2898 135.676 70.9663 136.088 70.7972C136.496 70.6824 136.922 70.6463 137.343 70.691C138.17 70.891 139.027 70.9304 139.869 70.8069C140.088 70.7491 140.315 70.6988 140.547 70.65C140.78 70.6182 141.017 70.6102 141.256 70.5864C141.499 70.5621 141.741 70.538 141.979 70.5142C142.22 70.508 142.462 70.4894 142.701 70.4584C143.211 70.3797 143.733 70.4591 144.196 70.6858C144.644 70.8952 145.037 71.2061 145.344 71.5938C145.992 72.3541 146.51 72.0407 147.244 71.8538C147.791 71.7271 148.365 71.7761 148.883 71.9937C149.091 72.1085 149.274 72.2636 149.421 72.45C149.568 72.6365 149.676 72.8504 149.74 73.0793C149.838 73.4442 149.897 73.8187 149.915 74.1962C149.947 74.5574 149.961 74.92 149.956 75.2825C149.946 76.4584 151.308 76.8348 151.441 77.8499C151.709 79.9858 152.405 81.9184 152.781 84.1044C153.309 85.9377 153.426 87.9936 154.021 89.8087C154.833 92.4847 155.96 95.0545 157.38 97.4639C157.527 97.6341 157.725 97.7538 157.944 97.8062C158.163 97.8586 158.393 97.841 158.601 97.7559C159.448 97.2464 160.229 96.6353 160.927 95.9362C161.228 95.6248 161.463 95.2558 161.617 94.8512C161.772 94.4467 161.843 94.0151 161.826 93.5824C161.824 91.7066 161.756 89.7941 161.581 87.8475C161.322 84.6243 160.69 81.442 159.698 78.3641C159.162 76.7339 158.479 75.1552 157.66 73.647C156.794 72.0452 155.747 70.5479 154.539 69.1844C153.132 66.8051 150.926 65.0015 148.315 64.0936C146.814 63.4956 145.401 62.9094 143.926 62.3935C143.179 62.1645 142.418 61.9561 141.639 61.7876C140.832 61.6459 140.014 61.5766 139.194 61.5806C136.629 61.5982 134.101 62.1911 131.796 63.3157C129.336 64.5332 127.25 66.391 125.757 68.6937C124.513 70.73 123.659 72.9794 123.236 75.3276C122.893 77.1809 122.647 79.0509 122.499 80.9299C122.273 83.3901 121.962 85.815 122.559 88.2082C122.746 89.4146 122.657 90.6477 122.3 91.815C121.936 93.2913 121.698 94.7958 121.588 96.3123C121.521 97.5391 121.436 98.7658 121.4 99.9939L121.346 103.679C121.281 106.137 121.365 108.593 121.413 111.05C121.523 115.968 121.982 120.872 122.247 125.771C122.317 127.554 122.577 129.326 123.023 131.054C123.739 133.983 124.184 137.068 124.833 140.053C125.27 141.792 125.923 143.464 126.476 145.156C126.4 147.296 126.692 149.433 127.337 151.475C127.864 153.544 128.641 155.55 129.1 157.625C129.366 158.465 129.778 159.25 130.315 159.948C130.664 160.423 130.832 161.006 130.79 161.594C130.841 163.253 131.12 164.898 131.618 166.482C132.163 168.056 132.5 169.695 132.619 171.356C133.308 172.696 134.142 173.96 134.78 175.325C135.491 176.667 135.994 178.11 136.272 179.604C136.595 181.872 137.213 184.088 138.111 186.197C139.114 188.494 140.445 190.633 142.063 192.548C142.831 193.266 143.511 194.074 144.088 194.953C145.173 196.932 146.859 198.516 148.903 199.476C151.149 200.541 153.655 200.936 156.12 200.615C157.796 200.39 159.437 199.953 161.003 199.315C162.473 198.739 163.849 198.108 165.188 197.479C168.592 195.915 171.271 193.108 172.675 189.635C173.308 188.096 174.136 186.646 175.14 185.32C176.117 183.977 177.212 182.723 178.41 181.572C179.704 180.335 181.107 179.371 181.935 177.556C182.798 175.674 184.861 174.754 185.899 172.771C186.77 171.169 187.885 169.711 189.203 168.452C190.382 167.343 190.735 165.835 191.706 164.834C193.166 163.342 193.237 161.618 193.726 160.011C194.127 158.653 194.574 158.057 195.806 157.818C196.779 157.626 196.524 156.351 196.969 155.686C197.755 154.786 198.488 153.842 199.167 152.858C199.863 151.528 200.165 150.022 200.812 148.668C202.061 145.899 203.378 143.173 205.68 141.142C205.945 140.83 206.097 140.437 206.11 140.028C206.124 139.618 205.998 139.216 205.755 138.888C205.036 138.339 204.256 137.89 203.544 137.332C203.076 136.963 203.056 136.498 203.421 136.251C203.628 136.119 203.876 136.068 204.118 136.106C204.789 136.233 205.429 136.458 206.104 136.569C207.131 136.734 207.936 136.197 208.661 135.017C209.392 134.045 209.865 132.903 210.037 131.698C210.151 129.597 210.72 127.544 211.706 125.684C212.404 124.008 213.23 122.388 214.177 120.839C215.322 119.065 214.889 116.752 216.586 115.125C217.321 114.166 217.814 113.044 218.023 111.853C218.409 110.399 218.392 108.856 218.861 107.454C219.306 106.068 220.227 104.838 220.818 103.47C220.994 102.938 220.986 102.361 220.793 101.834C220.616 101.391 220.137 101.203 219.82 100.862C219.512 100.527 219.247 100.138 218.96 99.774C219.409 99.6251 219.899 99.3022 220.304 99.3542C222.083 99.5876 222.009 98.314 222.022 96.6944C222.244 95.8332 222.644 95.028 223.196 94.3302C224.232 92.7815 224.705 90.9244 224.537 89.0687C224.219 86.6119 224.589 84.115 225.607 81.8563C226.805 79.2419 227.011 76.2806 226.184 73.5259Z" fill="#000638"/>
<path d="M153.949 128.808C153.801 128.023 153.573 127.256 153.267 126.518C153.228 126.412 153.167 126.312 153.118 126.208L153.039 126.049L152.811 125.76C152.487 125.357 152.118 124.994 151.711 124.676C150.981 124.052 150.136 123.577 149.223 123.279C148.958 123.198 148.688 123.136 148.415 123.094C148.038 123.052 147.658 123.04 147.279 123.057C146.284 123.123 145.317 123.413 144.45 123.904C143.995 124.163 143.57 124.471 143.182 124.822C142.845 125.134 142.535 125.475 142.258 125.842C142.191 125.932 142.124 126.036 142.057 126.136C142.239 124.512 142.519 122.899 142.895 121.308C143.599 120.9 144.242 120.394 144.804 119.805C146.926 117.54 148.679 114.954 149.995 112.142C150.185 111.776 150.353 111.402 150.436 111.191L150.745 110.435C150.942 109.93 151.139 109.427 151.335 108.926C151.528 108.427 151.719 107.933 151.909 107.444C152.005 107.201 152.101 106.96 152.197 106.721L152.391 106.235C152.46 106.041 152.527 105.847 152.583 105.65C152.879 104.718 152.97 103.734 152.85 102.764C152.763 102.1 152.531 101.463 152.171 100.899C151.81 100.335 151.33 99.8571 150.765 99.4992C150.365 99.2495 149.932 99.0577 149.479 98.9294C148.623 98.7054 147.723 98.7036 146.866 98.9243C146.293 99.0722 145.737 99.282 145.209 99.5502C144.78 99.762 144.43 99.9587 144.11 100.135L143.655 100.384L143.323 100.511C142.731 100.814 142.217 101.248 141.819 101.78C141.735 101.885 141.651 102.003 141.567 102.117C141.87 99.4845 142.689 96.9375 143.978 94.6223C144.416 93.6371 144.481 92.5262 144.161 91.4965C143.991 90.9989 143.936 90.4695 143.998 89.9475C144.061 89.4254 144.24 88.9241 144.523 88.4808C146.341 86.1986 148.529 83.8775 149.673 81.1857C150.843 78.506 148.692 78.1422 147.85 78.4507C145.036 79.5477 142.588 81.4141 140.785 83.8367C138.799 86.4077 137.592 89.4873 137.912 91.9555C137.94 92.2486 137.324 92.58 137.016 92.905C135.934 94.1725 135.157 95.6711 134.745 97.2857C134.5 98.1532 134.258 99.0267 134.061 99.8654C133.875 100.708 133.686 101.501 133.471 102.193C133.27 102.944 133.081 103.717 132.901 104.501C132.856 104.669 132.808 104.953 132.763 105.231L132.627 106.05L132.364 107.691C132.078 109.734 131.947 111.796 131.971 113.86C131.965 114.258 131.921 114.654 131.84 115.044C131.775 115.437 131.731 115.79 131.653 116.184C131.485 116.972 131.358 117.768 131.273 118.569C131.403 119.696 132.027 120.101 132.755 120.085C132.932 120.052 133.231 120.476 133.771 121.061C134.023 121.342 134.304 121.595 134.61 121.817C134.634 122.023 134.643 122.23 134.638 122.438C134.606 123.155 134.45 123.861 134.176 124.525C133.951 125.225 133.671 125.936 133.448 126.65C133.053 128.072 132.931 129.543 134.145 130.693C134.093 131.252 133.992 131.806 133.844 132.348C133.681 133.466 133.782 134.607 134.139 135.679C134.39 137.045 134.789 138.378 135.329 139.657C135.727 140.53 136.268 141.329 136.93 142.022C137.576 142.69 138.346 143.226 139.197 143.598C140.171 144.009 141.225 144.196 142.281 144.147C143.337 144.097 144.369 143.811 145.3 143.311C145.641 143.108 145.974 142.919 146.301 142.708C146.961 142.196 147.59 141.648 148.187 141.064C149.215 140.097 150.151 139.036 150.983 137.894C152.272 136.211 153.234 134.3 153.818 132.261C154.126 131.135 154.171 129.954 153.949 128.808ZM146.716 132.491L146.716 132.492C146.253 133.075 146.568 132.679 146.716 132.491ZM146.45 132.344C146.547 132.369 146.637 132.416 146.712 132.482L146.716 132.49L146.627 132.602L146.624 132.598L146.535 132.484C146.481 132.413 146.389 132.299 146.45 132.344ZM138.836 108.227C138.865 108.093 138.912 107.964 138.975 107.842C138.912 108.128 138.877 108.419 138.873 108.711C138.868 108.737 138.861 108.763 138.851 108.787C138.806 108.604 138.801 108.413 138.836 108.227ZM150.011 131.061L150.019 131.061L150.033 131.067L150.039 131.07L150.011 131.061Z" fill="#80829B"/>
<path d="M151.922 68.6152C151.095 67.2862 149.871 66.2506 148.424 65.6546C147.688 65.3422 146.907 65.1518 146.11 65.0909C145.382 65.0299 144.649 65.0878 143.94 65.2623C142.742 65.5154 141.682 66.2085 140.97 67.2047C140.827 67.4162 140.267 67.1742 139.885 67.1566C138.528 67.2103 137.231 67.7277 136.211 68.6224C135.204 69.4714 134.241 70.3715 133.326 71.3191C131.545 73.0522 130.126 75.122 129.152 77.4083C128.943 77.8224 128.629 78.1746 128.241 78.4298C127.781 78.7036 127.374 79.0576 127.039 79.4751C126.83 79.8941 126.741 80.363 126.783 80.8294C126.825 81.2958 126.995 81.7415 127.275 82.1168C127.53 82.4246 127.366 84.3316 127.501 86.0839C127.596 87.8535 128.035 89.4798 127.961 89.7412C127.7 90.4819 127.606 91.2708 127.685 92.0519C127.764 92.8331 128.014 93.5872 128.417 94.2608C128.168 94.9289 127.912 95.6437 127.703 96.3749C127.163 98.2452 126.985 100.117 127.661 101.122C128.466 102.286 128.259 103.483 128.44 104.643C128.472 105.083 128.407 105.525 128.25 105.938C128.093 106.35 127.848 106.724 127.531 107.032C126.502 108.35 128.669 111.63 128.359 112.963C128.137 113.94 128.206 113.957 129.654 113.884C130.643 113.956 131.636 113.814 132.564 113.468C133.762 112.444 134.886 111.337 135.928 110.155C136.771 109.121 136.009 107.961 136.963 106.921C138.612 105.166 135.29 104.074 136.929 102.281C137.278 101.944 137.547 101.534 137.717 101.08C138.126 99.6354 138.147 98.1083 137.779 96.6526C137.57 95.6381 137.508 94.599 137.594 93.5669C137.77 93.4198 137.946 93.2737 138.12 93.1287C138.322 92.9425 138.521 92.7582 138.718 92.5758C139.068 92.1859 139.46 91.8362 139.887 91.5332C140.715 91.0012 141.62 90.6022 142.571 90.3508C143.463 90.1017 145.357 88.2931 146.23 86.2322C146.634 85.3083 146.823 84.3048 146.783 83.2973C146.76 82.9124 146.691 82.5318 146.576 82.1637C146.47 81.9638 146.346 81.4487 146.186 81.204C145.994 80.4282 145.669 79.6913 145.226 79.0256C145.038 78.7597 144.833 78.5061 144.612 78.2663C144.48 78.1276 144.34 77.9889 144.193 77.8524C144.009 77.6977 143.809 77.5452 143.602 77.4025C143.068 77.0511 142.47 76.809 141.842 76.69C141.49 76.6322 141.133 76.6105 140.776 76.6253C140.449 76.6501 140.126 76.705 139.809 76.7894C139.526 76.8737 139.25 76.9795 138.984 77.106C139.982 75.4106 141.353 73.7239 143.113 73.4696C143.653 73.4 143.846 72.6674 144.211 71.9501C144.542 71.2393 145.097 70.5614 145.674 70.7806C146.398 71.093 147.082 71.4907 147.712 71.9651C148.318 72.4094 148.949 72.8166 149.604 73.1847C149.893 73.3912 150.224 73.5298 150.574 73.5903C150.924 73.6508 151.283 73.6316 151.624 73.534C151.887 73.4434 152.124 73.2911 152.316 73.09C152.507 72.8889 152.648 72.6448 152.726 72.3782C152.94 71.0674 152.653 69.724 151.922 68.6152ZM137.519 78.1086C137.142 78.4619 136.793 78.8439 136.475 79.2511C135.967 79.9028 135.682 80.3454 135.584 80.4448C135.294 80.6765 134.974 80.8666 134.632 81.0097C134.642 80.9402 134.649 80.869 134.66 80.8002C134.744 80.351 134.906 79.9197 135.137 79.5258C135.585 78.9546 136.199 78.5362 136.894 78.3283C137.119 78.2407 137.341 78.1589 137.557 78.0766L137.519 78.1086Z" fill="#006ADC"/>
<path d="M126.427 218.375C126.811 216.51 125.866 215.218 125.312 213.832C124.845 212.663 124.876 212.016 125.731 211.2C126.41 210.55 125.453 209.807 125.419 209.118C125.516 208.098 125.562 207.074 125.555 206.049C125.354 204.788 124.734 203.609 124.474 202.354C123.965 199.819 123.456 197.277 124.284 194.717C124.318 194.352 124.216 193.987 123.998 193.693C123.78 193.398 123.462 193.194 123.103 193.119C122.203 193.096 121.306 193.173 120.406 193.139C119.812 193.116 119.541 192.799 119.705 192.445C119.812 192.241 119.989 192.082 120.203 191.996C120.835 191.751 121.493 191.59 122.119 191.332C122.57 191.144 122.944 190.811 123.183 190.386C123.422 189.96 123.512 189.467 123.438 188.985C123.527 187.946 123.307 186.905 122.806 185.991C121.816 184.478 121.218 182.743 121.068 180.941C120.813 179.412 120.693 177.865 120.707 176.316C120.779 174.513 119.291 173.046 119.931 171.09C120.087 170.069 119.967 169.024 119.583 168.065C119.226 166.834 118.448 165.724 118.187 164.49C118.075 163.23 118.025 161.964 118.04 160.699C117.935 160.217 117.652 159.793 117.248 159.51C116.886 159.264 116.378 159.338 115.942 159.226C115.516 159.116 115.102 158.946 114.681 158.804C115.009 158.496 115.292 158.042 115.674 157.903C117.36 157.295 116.709 156.397 116.008 155.199C115.702 154.678 115.949 153.711 116.029 152.963C116.297 151.42 115.964 149.833 115.097 148.529C113.849 146.843 113.282 144.749 113.508 142.664C113.779 140.266 113.114 137.856 111.653 135.936C110.172 134.033 109.371 131.687 109.378 129.275C109.367 128.595 109.191 127.928 108.864 127.332C108.537 126.736 108.069 126.23 107.501 125.856C106.388 125.077 105.533 123.982 105.049 122.712C104.645 121.71 104.307 120.671 103.808 119.688C103.476 119.071 103.19 118.469 102.79 117.836C102.365 117.145 101.865 116.502 101.299 115.919C100.755 115.346 100.065 114.93 99.3036 114.717C99.0133 114.631 98.7076 114.611 98.4085 114.658C98.1095 114.704 97.8246 114.817 97.5744 114.987C97.3415 115.173 97.0516 115.273 96.7537 115.27C96.4558 115.266 96.1681 115.161 95.9392 114.97C95.2727 114.398 94.4693 114.008 93.6073 113.838C92.7454 113.669 91.8542 113.725 91.0205 114.002C90.0889 114.278 89.2147 114.719 88.4404 115.306C87.748 115.839 87.1345 116.467 86.6185 117.172C85.9752 118.044 85.377 118.948 84.8263 119.881C84.5601 120.334 84.31 120.79 84.0696 121.249L83.4695 122.523C82.6194 124.184 82.0054 125.956 81.6451 127.788C81.5089 128.566 81.1266 129.28 80.5545 129.825C79.8237 130.564 79.2906 131.519 78.5436 132.229C78.0495 132.709 77.609 133.241 77.2298 133.816C76.8792 134.383 76.592 134.987 76.3733 135.616C75.9213 136.865 75.6739 138.179 75.6407 139.507C75.5871 141.079 75.4208 142.645 75.1431 144.192C74.2619 149.399 72.8153 154.659 73.4688 159.948C73.5272 160.401 73.1898 160.921 73.109 161.425C72.8966 162.722 72.7561 164.029 72.6881 165.341C72.55 166.911 72.5919 168.487 72.6004 170.063L70.8151 166.963C69.5947 164.858 68.3608 162.666 66.9395 160.452C66.429 158.537 65.3874 156.805 63.935 155.457C62.2385 153.731 61.1449 151.553 59.0305 149.991C58.2823 149.428 57.481 148.914 56.6686 148.418L55.4059 147.726C54.9713 147.5 54.4613 147.285 53.9896 147.072C52.1046 146.295 50.1157 145.798 48.0865 145.598C46.0842 145.396 44.063 145.495 42.0896 145.889C40.0141 146.288 38.0252 147.05 36.2139 148.139C35.5505 148.546 34.9218 149.008 34.3344 149.519C34.0393 149.781 33.7487 150.045 33.4706 150.319C33.2073 150.62 32.9535 150.926 32.7091 151.239C32.2264 151.862 31.8215 152.543 31.5035 153.265C31.212 153.974 31.0041 154.714 30.884 155.472C30.7047 156.875 30.2415 158.282 29.9478 159.689C29.5859 161.324 29.525 163.012 29.7679 164.669C30.1896 166.983 30.8467 169.247 31.7288 171.427C32.5447 173.425 33.3023 175.449 34.1757 177.42C35.1059 179.367 36.0006 181.335 36.9956 183.248C38.0425 185.132 39.0033 187.063 40.0147 188.961C40.7463 190.345 41.6201 191.648 42.6219 192.85C43.4546 193.875 44.3392 194.89 45.13 195.976C45.9492 197.041 46.7063 198.16 47.6022 199.154C48.6644 200.31 49.8668 201.324 50.9979 202.389C51.3395 203.265 51.8128 204.084 52.4014 204.817C52.9723 205.551 53.5864 206.251 54.2405 206.912C55.5089 208.279 56.9912 209.438 58.2347 210.812C58.8103 211.33 59.4828 211.728 60.2134 211.983C60.6859 212.185 61.0671 212.555 61.2836 213.021C62.6368 215.587 65.406 217.134 66.9658 219.578C68.1396 220.199 69.3231 220.77 70.4434 221.457C71.622 222.068 72.6829 222.883 73.5768 223.864C74.8117 225.452 76.3262 226.8 78.0457 227.844C79.7315 228.917 81.5315 229.8 83.4126 230.475C84.1809 230.638 84.8956 230.993 85.4901 231.507C86.5331 232.552 87.7475 233.41 89.0806 234.045C89.737 234.38 90.4111 234.685 91.0895 234.976C91.77 235.264 92.4818 235.482 93.1714 235.737C95.1933 236.437 97.1122 237.405 98.877 238.614C100.089 239.479 101.425 240.154 102.841 240.616C104.415 241.097 106.073 241.244 107.708 241.047C109.436 240.831 111.151 240.76 113.028 240.522C115.104 240.326 117.125 239.741 118.986 238.798C121.101 237.736 123.144 236.005 123.676 233.646C123.961 232.544 124.355 231.472 124.85 230.447C125.324 229.502 125.593 228.468 125.64 227.412C125.63 225.715 125.86 224.025 126.324 222.392C126.75 220.943 126.164 219.615 126.427 218.375ZM116.436 224.411C115.583 224.929 115.066 225.693 115.564 226.667C115.884 227.335 116.005 228.082 115.91 228.818C115.811 229.433 115.795 230.058 115.862 230.677C115.894 230.857 115.859 231.042 115.765 231.199C115.671 231.356 115.524 231.473 115.35 231.53C115.043 231.681 114.704 231.68 114.512 231.892C114.098 232.292 113.469 232.272 112.811 232.953C112.304 233.426 111.784 233.148 111.314 232.765C110.701 232.299 110.346 231.378 109.351 231.772C108.457 232.093 107.95 230.929 106.948 231.186C106.61 231.283 106.256 231.308 105.908 231.258C105.56 231.209 105.226 231.086 104.929 230.898C104.227 230.205 103.402 229.647 102.497 229.254C101.622 228.851 100.694 228.556 99.8151 228.113C98.7575 227.535 97.7407 226.885 96.7721 226.168C95.6703 226.169 94.582 225.926 93.5858 225.455C92.5753 225.003 91.4819 224.767 90.3751 224.762C90.1314 224.814 89.8774 224.79 89.6481 224.692C89.4188 224.594 89.2255 224.428 89.0947 224.215C88.7621 223.69 88.3438 223.518 87.9025 223.781C87.0476 224.292 86.062 224.566 85.5876 223.347C84.7322 221.251 82.5524 220.126 81.4221 218.293C81.3608 218.188 80.5739 218.389 80.1518 218.52C79.5325 218.716 79.2619 218.559 79.1178 217.986C78.5005 215.601 78.5012 215.521 76.4815 215.563C75.7502 215.569 75.02 215.503 74.3016 215.366C73.6022 215.2 72.8874 215.03 72.1861 214.864C71.3328 214.69 70.5242 214.343 69.8101 213.844C69.0866 213.335 68.5202 212.634 68.1752 211.819C67.437 210.175 66.031 209.075 64.7229 207.91C62.7694 205.96 60.6388 204.17 58.7976 202.097C57.9313 201.208 57.4127 200.038 57.3362 198.8C57.2842 198.074 57.1617 197.354 56.9705 196.652C56.7729 195.943 56.374 195.307 55.822 194.82C55.2701 194.333 54.5887 194.017 53.8607 193.909C53.187 193.867 52.5107 193.91 51.8478 194.037C51.2244 194.111 50.8497 193.887 50.9882 193.389C51.2381 192.474 51.5661 191.647 50.4002 190.97C49.546 190.474 48.7124 189.901 47.9106 189.347C47.6871 189.228 47.5024 189.047 47.3785 188.826C47.2546 188.605 47.1966 188.353 47.2114 188.1C47.2976 186.889 47.4327 185.701 47.5419 184.523C47.5857 184.171 47.5336 183.814 47.3911 183.489C47.2485 183.164 47.0208 182.884 46.7321 182.678C45.4495 181.499 44.4067 180.084 43.661 178.51C42.7996 177.01 42.5692 175.229 43.0203 173.559C43.2217 172.787 42.9819 172.441 42.0247 172.069C41.5544 171.886 41.081 171.788 41.0027 171.31C40.8788 170.588 40.8371 169.854 40.8782 169.122C40.9518 168.3 40.8877 167.472 40.6887 166.671C40.4784 165.909 40.0376 165.229 39.4267 164.727C38.6498 163.991 37.9836 163.146 37.4487 162.219C37.0349 161.558 37.4391 161.055 38.29 161.097C39.2303 161.11 39.5347 160.906 39.3159 160.42C38.8013 159.289 38.659 158.024 38.9096 156.808C38.9677 156.465 39.1345 156.149 39.3855 155.908C39.5069 155.791 39.6473 155.696 39.8007 155.626C39.9826 155.57 40.1719 155.54 40.3626 155.538C40.7228 155.575 41.0865 155.551 41.439 155.469C42.8434 154.954 44.3331 154.712 45.8283 154.755C46.5153 154.8 47.1965 154.91 47.8626 155.085C48.5103 155.257 49.1913 155.263 49.8417 155.1C50.2546 154.97 50.7015 155.004 51.0907 155.193C51.453 155.402 51.7769 155.672 52.0486 155.99C52.4968 156.69 53.1219 157.259 53.8606 157.639C54.6855 157.932 55.4506 158.456 56.2955 158.796C56.7289 158.979 57.1105 159.266 57.4065 159.632C57.7025 159.997 57.9037 160.43 57.9922 160.892C58.2272 161.843 58.8917 161.706 59.5822 161.782C60.8667 161.91 61.5309 162.533 61.5616 163.481C61.5679 164.203 61.5303 164.924 61.4492 165.642C61.3521 166.793 62.6893 167.165 62.8616 168.102C63.3717 170.1 64.1881 172.007 65.2818 173.755C66.1736 175.313 67.2107 176.783 68.3793 178.146C69.8059 179.554 71.4151 180.764 73.1638 181.744C73.1888 181.785 73.205 181.83 73.2309 181.87C73.5372 182.294 73.7504 182.778 73.8565 183.29C73.9626 183.802 73.9591 184.33 73.8464 184.841C73.7074 186.168 73.8516 187.509 74.2693 188.776C74.7402 191.179 75.8216 192.686 78.1409 192.282C78.6902 192.189 78.8442 192.77 78.4641 193.343C78.3109 193.523 78.1821 193.723 78.0811 193.937C78.0168 194.123 78.0024 194.523 78.075 194.566C79.2237 195.259 81.7774 194.065 82.0035 192.776C82.2077 191.584 82.6544 190.372 82.1555 189.185C81.528 187.879 81.1938 186.452 81.1765 185.004C81.3663 183.467 80.3262 182.269 79.8948 180.873C79.2777 178.473 79.7401 175.998 79.1429 173.574C78.9872 172.98 78.8884 172.373 78.8477 171.76C78.8312 171.149 78.8559 170.534 78.8921 169.919C78.9765 168.689 79.0484 167.462 79.0754 166.235C79.0978 165.257 79.3035 164.292 79.6817 163.389C80.0796 162.5 80.3409 161.557 80.4567 160.59C80.5309 159.618 80.446 158.641 80.2054 157.697C79.9158 156.496 80.0741 155.231 80.6506 154.138C81.1492 153.295 81.5117 152.38 81.7249 151.424C81.8255 150.955 81.8835 150.478 81.8982 149.998C81.9334 149.507 81.9278 149.013 81.8815 148.522C81.8678 147.804 82.0338 147.093 82.3644 146.455C83.415 143.971 84.1351 141.41 84.9886 138.851C85.9835 135.644 86.9036 132.217 89.4907 129.836C89.8248 129.488 90.0336 129.038 90.0839 128.559C90.134 127.466 90.4486 126.402 91.0006 125.459C91.4692 124.687 92.1631 124.077 92.9889 123.711C93.2131 123.625 93.4144 123.488 93.577 123.311C93.7397 123.134 93.8592 122.922 93.9264 122.691C93.9537 122.477 93.9996 122.265 94.0635 122.058C94.1182 121.866 94.064 121.803 94.1079 121.687C94.1263 121.599 94.17 121.519 94.2335 121.456C94.297 121.393 94.3775 121.35 94.4652 121.333C94.7939 121.284 95.1186 121.713 94.9307 122.229C94.8946 122.304 94.9072 122.375 94.9438 122.294C95.5657 122.283 96.0529 122.88 96.4475 123.679C96.6471 124.076 96.8234 124.484 97.0117 124.881C97.1739 125.29 97.3703 125.686 97.5988 126.063C97.9643 126.632 98.2644 127.264 98.6709 127.805C99.0418 128.389 99.537 128.883 100.121 129.253C100.818 129.717 101.392 130.343 101.794 131.078C102.196 131.812 102.414 132.633 102.429 133.47C102.424 134.659 102.871 135.805 103.681 136.675C104.076 137.28 104.225 138.014 104.097 138.726C103.955 140.207 104.377 141.687 105.279 142.869C105.845 143.762 105.273 144.181 104.955 144.78C104.23 146.126 104.427 146.639 106.009 147.472C106.567 147.763 106.896 148.062 106.579 148.458C105.96 149.236 105.613 149.851 106.341 150.946C107.14 152.27 107.489 153.817 107.334 155.356C107.085 159.166 107.852 162.973 109.558 166.389C109.789 167.104 109.851 167.864 109.736 168.607C109.625 169.621 109.831 170.645 110.327 171.536C110.621 171.945 110.831 172.407 110.945 172.898C111.059 173.388 111.075 173.896 110.992 174.392C110.707 175.757 112.044 176.733 111.926 177.975C111.81 179.22 111.95 180.476 112.339 181.665C111.819 183.267 112.432 184.629 113.141 185.999C113.231 186.172 113.12 186.501 113.053 186.74C112.853 187.336 112.824 187.976 112.97 188.588C113.115 189.2 113.43 189.759 113.877 190.201C114.624 190.994 114.476 192.091 114.61 193.087C113.628 195.293 114.221 197.574 114.516 199.842C114.602 200.86 114.771 201.87 115.022 202.86C115.468 204.29 116.154 205.63 116.579 207.068C117.035 208.618 116.026 210.034 116.156 211.536C116.262 212.264 116.444 212.98 116.7 213.67C116.916 214.371 117.511 215.157 117.361 215.728C116.891 217.542 117.581 219.057 117.857 220.697C118.115 222.233 117.81 223.592 116.436 224.411H116.436Z" fill="#006ADC"/>
<path d="M111.469 215.693C111.045 214.377 110.25 213.212 109.178 212.339C108.536 211.793 107.771 211.411 106.949 211.226C105.905 211.069 105.714 211.49 105.42 212.158C104.324 213.076 104.922 214.094 105.481 215.157C105.791 215.385 106.045 215.681 106.225 216.021C106.404 216.362 106.504 216.738 106.518 217.123C106.514 217.684 106.328 218.228 105.989 218.674C105.774 219.028 105.468 219.318 105.104 219.514C104.74 219.711 104.33 219.807 103.916 219.793C103.817 219.774 103.726 219.726 103.653 219.656C103.521 219.317 103.631 219.599 103.592 219.5L103.572 219.496C103.369 219.474 103.194 219.457 102.99 219.421C102.704 219.369 102.435 219.247 102.208 219.066C101.981 218.885 101.802 218.65 101.687 218.383C101.158 217.176 100.159 216.948 98.7449 216.411C97.4087 215.953 96.0333 215.427 95.286 213.811C95.2496 213.73 95.1968 213.654 95.1574 213.573C95.064 213.198 94.9429 212.831 94.7951 212.474C94.3789 211.472 93.7929 210.55 93.0629 209.748C92.6333 209.308 92.2013 208.866 91.767 208.422C88.2971 204.814 84.776 200.84 84.0438 196.652C83.8788 195.682 82.4593 193.847 80.8242 192.158C79.5447 190.755 78.0672 189.547 76.4385 188.571C76.3655 188.541 75.8599 188.005 75.0849 187.215C74.6752 186.822 74.2003 186.366 73.691 185.878C73.407 185.636 73.1133 185.386 72.8144 185.131C72.5043 184.854 72.175 184.599 71.8291 184.367C71.4576 184.114 71.117 183.862 70.7163 183.62C70.2533 183.379 69.7859 183.154 69.3281 182.948L69.1572 182.871C69.0709 182.839 68.9264 182.794 68.8129 182.761C68.5284 182.678 68.2364 182.624 67.9411 182.598C67.7458 182.582 67.5494 182.58 67.3538 182.593C67.1293 182.603 66.9063 182.635 66.6882 182.689C66.1055 182.823 65.562 183.091 65.1008 183.471C64.6396 183.852 64.2734 184.335 64.0311 184.881C62.1649 182.892 60.4843 180.737 59.0101 178.442C57.3207 175.735 54.0408 176.207 52.7072 173.588C51.8722 171.907 51.0588 170.117 50.3131 168.38C49.5639 166.638 48.8434 164.966 48.0622 163.381C47.807 162.788 47.4413 162.247 46.9844 161.79C46.855 161.663 46.6971 161.568 46.5238 161.514C46.3504 161.46 46.1667 161.448 45.9879 161.479C45.6794 161.593 45.4041 161.782 45.1867 162.028C44.9693 162.275 44.8166 162.571 44.7425 162.892C44.3503 164.695 44.3127 166.557 44.6317 168.375C44.9883 170.461 45.6509 172.484 46.5981 174.377C48.498 178.191 51.202 181.164 53.7904 182.523C54.1077 182.687 54.1791 183.505 54.3581 184.025C55.5112 187.351 59.4859 191.188 61.6713 194.037C64.0146 197.12 66.8415 200.25 69.4693 203.128C70.519 204.28 70.7018 205.637 71.2846 206.91C71.9732 207.813 72.9822 208.418 74.1037 208.6C74.6158 208.64 76.5637 210.475 78.6093 212.245C79.544 213.076 80.517 213.857 81.313 214.49C81.3698 214.553 81.4249 214.617 81.4822 214.68C82.0901 215.352 82.7152 216 83.34 216.602C83.7977 217.373 84.3757 218.066 85.0523 218.655C85.5407 219.073 86.0656 219.446 86.6206 219.771C86.9445 219.973 87.2845 220.147 87.6373 220.293C88.2775 220.559 88.9583 220.714 89.6505 220.752C89.7743 220.759 89.9162 220.749 90.0506 220.746C91.0231 221.371 91.9359 222.092 92.9203 222.714C93.5515 223.099 94.1131 223.589 94.581 224.162C95.0381 224.711 95.5256 225.372 96.0651 226.074C96.8486 226.9 97.8429 227.498 98.9408 227.802C99.8289 228.095 100.75 228.279 101.683 228.349C102.885 228.437 104.093 228.319 105.256 227.999C105.567 227.918 105.874 227.817 106.173 227.697L106.621 227.518C106.756 227.464 107.022 227.332 107.211 227.233C108.004 226.826 108.727 226.296 109.353 225.663C110.338 224.646 111.07 223.411 111.489 222.058C112.147 219.987 112.14 217.761 111.469 215.693ZM103.686 219.739L103.674 219.709L103.681 219.727L103.683 219.733L103.685 219.736L103.685 219.738L103.686 219.738V219.739Z" fill="#80829B"/>
<path d="M117.445 219.193C117.218 218.615 116.854 218.101 116.383 217.697C115.973 217.105 115.639 216.464 115.387 215.79C114.934 214.809 114.347 213.62 113.752 212.49C112.871 210.998 112.103 209.441 111.455 207.835C111.601 206.464 111.427 205.078 110.946 203.786C111.146 203.261 111.317 202.724 111.458 202.18C111.585 201.729 111.615 201.255 111.544 200.792C111.509 200.258 111.434 199.728 111.318 199.205C110.908 197.924 110.244 196.739 109.366 195.72C109.144 194.855 108.979 193.978 108.871 193.092C108.815 192.802 108.745 192.479 108.651 192.11C108.552 191.764 108.426 191.393 108.269 190.963C108.112 190.536 107.922 190.06 107.692 189.528C107.578 189.272 107.456 189.002 107.328 188.717C107.228 188.528 107.121 188.328 107.009 188.118C106.18 186.566 105.25 183.751 104.008 181.035C102.788 178.328 101.159 175.705 99.4916 174.716C99.0132 174.432 98.5603 174.107 98.138 173.745C97.6814 173.383 97.2561 172.995 96.84 172.593C96.3331 172.17 95.9041 171.756 95.3372 171.316C95.0193 171.088 94.6954 170.866 94.3665 170.653L94.1191 170.495L93.9777 170.409L93.6263 170.232C92.763 169.811 91.8004 169.635 90.844 169.725C90.1067 169.79 89.3937 170.021 88.7585 170.401C88.4341 170.591 88.1336 170.82 87.8633 171.081C87.6207 171.31 87.4024 171.564 87.2122 171.838C87.0572 172.062 86.9189 172.298 86.7983 172.542C86.712 172.72 86.6363 172.903 86.5715 173.091C86.5129 173.255 86.449 173.466 86.4184 173.596L86.3401 173.968C86.3018 174.175 86.2749 174.384 86.2593 174.594C86.2431 174.787 86.2373 174.951 86.2364 175.075C86.2314 175.376 86.2426 175.587 86.2481 175.766C86.2689 176.367 86.312 176.91 86.368 177.469C86.4749 178.603 86.6501 179.73 86.8929 180.843C87.2785 182.186 88.0981 183.364 89.2236 184.193C89.3868 184.317 89.5531 184.444 89.7225 184.573L90.0825 184.822C90.3123 184.978 90.554 185.131 90.8046 185.28C91.3034 185.582 91.8376 185.866 92.3805 186.139C92.5059 186.202 92.6332 186.26 92.7595 186.321C91.9181 186.373 91.09 186.556 90.3052 186.863C89.5407 187.195 88.8656 187.704 88.3355 188.347C87.9498 188.809 87.6281 189.32 87.379 189.868L87.2039 190.302L87.1224 190.528L87.0791 190.67C87.0203 190.859 86.9705 191.052 86.9297 191.25C86.6162 193.078 86.945 194.959 87.8603 196.572C88.7591 198.184 89.8518 199.68 91.1141 201.026C91.8174 201.821 92.631 202.509 93.5302 203.072C93.6034 203.115 94.3008 203.866 95.3276 204.843C96.4548 205.931 97.7044 206.884 99.0513 207.683C100.192 208.386 101.434 208.908 102.735 209.229L102.746 209.231C103.42 210.737 104.171 212.207 104.996 213.636C106.047 214.742 107.052 215.837 107.884 216.875C108.209 217.513 108.548 218.176 108.892 218.85C109.051 219.169 109.205 219.485 109.339 219.793C109.406 219.948 109.478 220.105 109.532 220.255C109.582 220.319 109.629 220.387 109.672 220.456C110.021 220.996 110.28 222.029 109.746 222.564C109.683 222.625 109.611 222.676 109.533 222.715C109.229 222.793 108.909 222.783 108.61 222.687C108.31 222.591 108.044 222.413 107.842 222.173C107.761 222.093 107.659 222.039 107.548 222.015L107.112 221.855L106.246 221.537C105.677 221.328 105.095 221.156 104.504 221.022C100.261 221.046 96.102 219.838 92.5314 217.546C91.431 216.92 90.1652 216.646 88.9043 216.761C87.6521 216.887 86.4 216.52 85.4141 215.738C82.7876 213.313 80.0125 210.369 76.8001 208.674C73.6141 206.99 73.514 209.403 73.9043 210.337C75.3719 213.551 77.4895 216.427 80.1237 218.782C82.9785 221.394 86.5301 223.303 89.4437 223.408C89.7898 223.428 90.1913 224.125 90.5774 224.512C92.1265 225.876 93.96 226.878 95.9447 227.444C97.9798 228.062 100.05 228.558 102.145 228.928C103.98 229.304 105.851 229.482 107.725 229.457C110.172 229.447 112.749 229.126 114.442 227.493C114.756 227.194 115.034 226.859 115.27 226.495C115.811 225.66 116.261 224.944 116.7 224.193C117.17 223.408 117.528 222.562 117.765 221.678C117.829 220.836 117.72 219.991 117.445 219.193Z" fill="#000638"/>
<path d="M203.099 117.978C203.729 118.349 204.666 118.669 204.542 119.984C204.515 120.291 204.632 120.358 204.941 120.278C205.807 120.052 206.239 120.363 206.006 121.26C205.781 122.017 206.175 122.097 206.902 121.918C207.341 121.812 207.012 122.414 207.014 122.705C208.031 122.31 208.397 122.665 208.724 123.058C209.743 124.264 210.634 125.573 211.382 126.963C212.148 128.428 212.714 129.99 213.065 131.606C213.206 132.225 213.249 132.847 213.362 133.44C213.434 133.797 213.025 134.149 212.754 134.495C212.101 135.312 212.167 135.591 213.069 136.346C213.251 136.498 213.33 136.593 213.055 136.777C212.781 136.922 212.573 137.167 212.475 137.461C212.393 138.002 212.491 138.53 212.398 139.053C212.329 139.445 212.789 139.773 213.341 140.104C213.92 140.452 214.022 140.831 213.337 141.147C212.406 141.58 212.676 141.951 213.423 142.36C213.767 142.548 213.7 142.768 213.274 142.975C212.308 143.444 212.192 143.926 213.205 144.404C214.082 144.816 213.936 145.229 213.108 145.626C212.802 145.772 212.892 145.875 213.001 146.026C213.252 146.378 213.053 146.449 212.273 146.453C211.263 146.458 210.203 146.508 209.256 146.439C207.778 146.331 206.435 146.112 206.182 145.615C206.04 145.333 206.056 145.05 205.506 144.789C204.497 144.311 204.87 143.851 205.667 143.362C206.541 142.826 206.439 142.316 205.495 141.712C205.051 141.429 204.779 141.184 205.386 140.914C205.7 140.773 205.806 140.65 205.583 140.525C205.357 140.399 204.952 140.272 204.946 140.144C204.898 138.944 204.902 137.817 204.836 136.748C205.348 136.441 205.921 136.088 205.106 135.858C206.258 135.293 205.886 134.81 205.785 134.345C205.681 133.889 205.94 133.311 204.832 133.16C204.559 133.132 205.187 132.749 205.07 132.628C204.949 132.501 204.33 132.559 204.174 132.465C204.009 132.373 203.929 132.227 204.191 131.992C204.881 131.366 204.885 130.934 204.688 130.595C204.052 129.507 203.294 128.494 202.429 127.577C201.979 127.081 201.481 126.566 200.989 126.076C200.553 125.637 200.093 125.221 199.611 124.833C199.164 124.484 198.745 124.441 198.868 123.141C198.872 123.061 198.725 123.227 198.64 123.333C198.133 123.953 198.149 123.678 198.132 122.895C197.822 123.322 197.747 123.57 197.6 122.807C197.486 122.324 197.281 122.404 197.078 122.246C196.826 121.637 196.665 120.995 196.599 120.339C196.606 119.088 196.807 117.581 197.725 117.633C198.111 117.71 198.509 117.705 198.893 117.618C199.277 117.531 199.638 117.364 199.953 117.128C200.121 117.016 200.312 116.944 200.511 116.918C200.711 116.891 200.914 116.911 201.105 116.976C201.814 117.214 202.485 117.551 203.099 117.978Z" fill="#80829B"/>
</svg>
