<svg width="300" height="300" viewBox="0 0 300 300" fill="none" xmlns="http://www.w3.org/2000/svg">
<path d="M125.814 220.599C125.999 218.248 126.263 215.814 125.737 213.656C125.598 213.078 125.499 212.506 125.408 211.936C125.365 211.651 125.328 211.367 125.297 211.083L125.255 210.656L125.227 209.991C125.174 208.139 125.208 206.348 124.48 204.871C124.362 204.666 124.264 204.451 124.128 204.253L123.681 203.679C123.339 203.337 122.954 203.041 122.536 202.799C122.124 202.552 121.686 202.353 121.23 202.204C120.759 202.074 120.282 201.97 119.8 201.894C119.299 201.84 118.795 201.811 118.291 201.808C117.775 201.842 117.262 201.835 116.744 201.901L115.189 202.117L114.095 202.336C113.217 202.548 112.413 202.994 111.768 203.626C110.641 204.625 109.583 203.863 108.499 204.162C108.213 204.245 107.921 204.319 107.638 204.418C105.657 205.102 103.722 205.847 101.812 206.626C100.175 207.296 98.5634 208.002 96.953 208.699C95.077 209.51 93.2309 210.395 91.3531 211.119C90.4457 211.487 89.5864 211.965 88.7942 212.541C88.017 213.089 87.3239 213.612 86.3873 214.212C85.0392 214.195 84.1713 215.079 83.2887 216.165C82.1942 217.485 80.8159 218.866 79.687 220.516C78.8919 221.671 78.9258 222.596 79.5959 223.153C79.7931 223.287 79.9808 223.435 80.1576 223.595C80.6081 224.085 80.5701 224.525 80.2615 225.245C79.6504 226.715 80.5261 228.479 80.4153 229.762C80.0528 233.179 81.0644 236.389 82.1214 239.646C82.549 240.959 83.5908 242.047 84.0083 243.369C84.6927 245.556 85.0845 247.851 85.621 250.103C85.7877 251.206 85.7615 252.329 85.5437 253.424C85.4087 254.88 85.5904 255.43 86.8895 255.983C88.2568 256.57 88.7105 257.752 88.9169 259.207C88.9699 260.042 88.9463 260.879 88.8464 261.71C89.9927 263.23 90.4307 265.294 91.5893 266.817C91.7448 267.013 91.9517 267.161 92.1867 267.246C92.6252 267.315 93.0745 267.242 93.4679 267.036C93.8613 266.83 94.1779 266.503 94.3707 266.103C94.7113 264.918 94.7182 263.557 95.6131 262.637C96.3698 261.858 96.2183 261.218 95.3151 259.792C94.6633 258.879 94.1693 257.864 93.8539 256.788C93.4488 255.115 93.0583 253.43 92.7036 251.739C92.4846 250.93 92.0821 250.182 91.5271 249.554C91.3655 249.337 91.1381 249.195 90.9916 248.969C90.7759 248.628 90.6561 248.235 90.6449 247.832C90.6337 247.428 90.7315 247.029 90.9279 246.677C91.2149 246.31 91.6617 246.088 91.8334 245.646C92.2028 244.702 91.3344 244.249 91.0067 243.58C90.2701 242.36 90.022 240.907 90.3122 239.511C90.4157 239.27 90.4648 239.009 90.4561 238.746C90.4474 238.484 90.3811 238.227 90.2618 237.993C89.5289 236.821 88.8038 235.621 88.0096 234.51C87.632 233.986 87.3262 233.536 87.4978 233.04C87.7991 232.084 87.8411 231.065 87.6196 230.088C87.4397 229.115 87.0671 228.007 86.862 227.157C86.5544 225.91 86.2724 224.705 86.6812 224.022C86.9623 223.545 87.1715 223.34 87.204 223.201C87.2507 223.059 87.0914 222.96 86.9321 222.509C86.7632 222.01 87.117 221.532 87.6901 221.184C88.3911 220.817 89.1209 220.509 89.8723 220.262C90.2092 220.134 90.6771 219.943 91.0826 219.758C91.4758 219.578 91.8573 219.374 92.2252 219.148C92.945 218.716 93.5621 218.132 94.0334 217.437C94.4091 217.087 94.8998 216.886 95.4134 216.871C95.927 216.856 96.4283 217.03 96.8234 217.358C97.3306 217.675 97.8154 217.732 98.0965 217.318C99.083 215.861 100.744 215.262 102.311 214.733C103.849 214.216 104.442 212.117 106.471 212.612C107.052 212.11 107.703 211.696 108.403 211.382C109.157 211.161 110.03 211.49 110.759 211.278C112.065 210.905 113.353 210.527 114.6 210.221C115.217 210.08 115.829 209.941 116.408 209.848L116.578 209.818L116.609 209.82L116.671 209.826C116.709 209.83 116.747 209.838 116.784 209.849C116.857 209.873 116.928 209.824 117.095 209.708C117.354 209.521 117.637 209.37 117.935 209.258C118.468 209.085 118.397 209.522 118.369 209.773L118.295 211.791L118.128 215.214C117.951 218.635 117.734 222.06 117.38 225.47C117.23 226.277 116.933 227.05 116.504 227.751C116.184 228.209 116.047 228.772 116.122 229.327C116.393 230.949 116.746 232.557 117.182 234.144C117.583 235.418 117.104 236.229 116.69 237.237C116.261 238.278 115.923 239.719 116.435 240.518C117.626 242.385 115.381 244.308 116.469 246.028C115.406 247.712 115.209 249.751 115.025 251.786L114.868 253.529C114.577 255.202 114.928 256.923 115.853 258.348C116.574 259.557 116.908 260.958 116.811 262.363C116.78 262.751 116.87 263.139 117.069 263.474C117.268 263.809 117.566 264.073 117.921 264.232C118.259 264.384 118.558 264.613 118.793 264.899C119.029 265.186 119.196 265.522 119.281 265.884C119.36 266.143 119.442 266.413 119.521 266.671C119.79 267.476 120.096 267.518 120.423 266.811C120.577 266.311 120.798 265.834 121.079 265.393C121.565 264.859 122.35 264.662 122.65 264.036C122.905 263.504 122.375 262.338 122.637 261.832C123.861 259.524 123.685 256.946 123.759 254.454C123.803 252.869 123.099 251.265 124.224 249.795C124.483 248.688 124.508 247.539 124.298 246.422C123.836 245.105 123.676 243.702 123.828 242.315C124.636 235.139 125.26 227.877 125.814 220.599Z" fill="#000638"/>
<path d="M229.584 153.125C229.56 152.925 229.513 152.728 229.444 152.539C229.332 152.182 229.194 151.834 229.031 151.498L228.409 150.492C228.113 150.047 227.629 149.578 227.26 149.13C226.818 148.682 226.215 148.25 225.721 147.82C224.609 147.087 223.554 146.34 222.408 145.636C221.323 144.948 220.243 144.263 219.169 143.582C217.898 142.739 216.666 141.864 215.468 140.926C213.368 139.28 211.131 137.815 208.784 136.546C207.624 135.919 206.447 135.343 205.253 134.82C204.079 134.3 202.841 133.82 201.57 133.395C196.501 131.578 191.653 129.194 187.12 126.287C184.655 124.766 182.567 123.078 179.534 122.084C176.38 121.063 174.025 118.655 170.698 117.399C167.996 116.369 165.425 115.023 163.04 113.388C160.968 111.961 158.692 111.421 156.914 110.172C155.747 109.337 154.461 108.683 153.099 108.233C151.866 107.784 150.644 107.468 149.42 107.031C147.385 106.263 146.417 105.568 145.768 104.1C145.269 102.921 143.548 102.86 142.505 102.156C140.952 101.113 139.68 99.6586 138.137 98.6884C137.054 98.0016 135.93 97.3822 134.771 96.8335C133.55 96.2499 132.259 95.6951 130.863 95.1362C129.359 94.5214 127.785 94.0944 126.176 93.8649C124.369 93.6119 122.53 93.6969 120.753 94.1155C119.008 94.5473 117.346 95.266 115.837 96.2423C114.416 97.1308 113.213 98.0768 112.082 98.9422C110.951 99.8035 110.18 101.924 110.576 102.408C111.127 103.157 111.812 103.742 112.353 104.502C112.431 104.628 112.483 104.769 112.505 104.916C112.527 105.062 112.52 105.212 112.483 105.356C112.446 105.5 112.38 105.634 112.289 105.752C112.199 105.87 112.086 105.968 111.956 106.041C111.704 106.225 111.391 106.308 111.08 106.274C110.374 106.114 109.755 105.813 109.04 105.669C107.95 105.456 106.76 106.203 105.304 107.824C103.949 109.167 102.805 110.706 101.91 112.39C100.482 115.383 98.6239 118.151 96.3949 120.606C94.5433 122.848 92.5765 124.992 90.5026 127.029C88.0792 129.334 86.9385 132.558 83.9717 134.547C82.4922 135.774 81.1912 137.201 80.1064 138.788C78.6489 140.705 77.5644 142.837 76.0373 144.668C74.5322 146.471 72.6393 147.959 71.0001 149.702C70.4381 150.354 70.0298 151.124 69.8054 151.956C69.6598 152.602 70.0196 152.969 70.0933 153.51C70.1629 154.04 70.1441 154.637 70.1665 155.205C69.5811 155.306 68.8207 155.633 68.438 155.464C66.7521 154.71 65.8764 156.463 64.6107 158.652C63.7379 159.744 62.7172 160.71 61.578 161.52C59.3108 163.321 57.4359 165.567 56.0683 168.12C54.3456 171.562 51.9591 174.63 49.0462 177.147C45.7112 179.989 43.0112 183.501 41.1214 187.454C40.2014 189.435 39.1098 191.331 37.8589 193.121C37.2395 194.012 36.5799 194.875 35.8905 195.738C35.544 196.171 35.2098 196.547 34.7397 197.174C34.2952 197.75 33.8544 198.261 33.3092 199.054C32.1284 200.608 31.2389 202.363 30.6839 204.234C30.2949 205.606 30.3709 207.068 30.9 208.392C31.0092 208.673 31.1394 208.944 31.2895 209.204C31.4382 209.492 31.6053 209.77 31.7899 210.037C32.2155 210.627 32.7791 211.104 33.4314 211.426C34.7489 211.918 36.1512 212.142 37.5563 212.086L38.4343 212.046C38.5799 212.039 38.7287 212.04 38.8719 212.027L39.2803 211.942L40.9268 211.609C42.0346 211.387 43.1703 211.158 44.3422 210.886C44.9424 210.744 45.5484 210.602 46.1508 210.459C46.2457 211.115 46.4105 211.758 46.6425 212.379C47.6866 215.13 48.73 217.88 49.7727 220.629L59.8622 246.728C60.1397 248.382 60.5684 250.007 61.143 251.582C61.7175 253.186 62.3405 254.696 63.1064 256.317C64.0354 258.474 65.0921 260.573 66.2709 262.604C67.7537 265.098 69.9304 267.106 72.5354 268.383C74.4187 269.226 76.4338 269.735 78.4913 269.889C80.1009 270.009 81.716 270.039 83.3289 269.978L91.7953 269.803L108.733 269.491C112.601 269.554 116.466 269.257 120.279 268.605C122.195 268.31 124.144 268.287 126.067 268.539C128.458 268.748 130.894 268.958 133.316 268.964C141.168 268.982 149.018 268.903 156.869 268.866C164.726 268.828 172.597 268.667 180.431 268.828C180.735 268.83 181.037 268.833 181.338 268.836C181.675 268.836 182.009 268.827 182.341 268.812C182.99 268.781 183.636 268.693 184.269 268.549C185.497 268.276 186.641 267.712 187.604 266.904C188.558 266.084 189.306 265.052 189.787 263.89C190.04 263.292 190.242 262.673 190.39 262.041C190.469 261.721 190.536 261.395 190.6 261.068L190.686 260.597L190.728 260.311C191.395 255.547 192.618 250.702 193.503 245.89C194.019 243.069 194.337 240.24 194.743 237.416C197.313 231.08 197.883 224.13 199.54 217.512C199.806 216.147 199.92 214.756 199.879 213.365C199.886 212.434 200.099 211.517 200.504 210.678C202.586 205.978 203.099 200.237 205.176 195.514C205.466 193.134 205.647 190.754 206.076 188.378C206.418 185.973 206.993 183.606 207.791 181.312C208.974 178.366 209.94 175.338 210.682 172.251C211.06 170.716 211.393 169.17 211.695 167.615L212.125 165.276L212.227 164.689L212.277 164.395C212.286 164.358 212.289 164.319 212.286 164.28L212.28 163.975L212.269 163.594C212.291 163.464 212.393 163.397 212.478 163.317C212.622 163.177 212.78 163.053 212.951 162.948L213.031 162.908C213.078 162.886 213.128 162.869 213.178 162.857C213.338 162.809 213.501 162.766 213.668 162.727C214.02 162.646 214.379 162.594 214.741 162.571L215.726 162.495L216.223 162.446L216.473 162.417C216.562 162.406 216.616 162.403 216.786 162.373C217.934 162.161 219.114 161.931 220.271 161.634C222.458 161.174 224.547 160.333 226.444 159.151C227.9 158.23 228.981 156.822 229.493 155.177C229.613 154.722 229.665 154.251 229.648 153.781C229.648 153.561 229.626 153.341 229.584 153.125ZM200.847 175.06C201.003 175.434 201.05 175.844 200.985 176.244C200.92 176.644 200.745 177.018 200.48 177.324C198.133 180.579 198.033 180.728 198.518 184.099C198.78 186.695 198.896 189.303 198.866 191.913C199.006 195.222 198.337 198.515 196.918 201.508C195.516 204.458 194.855 207.899 194.135 211.237L190.822 227.089C190.39 229.35 189.523 231.505 188.268 233.434C187.576 234.529 186.959 235.67 186.42 236.848C185.249 239.354 184.879 242.16 185.359 244.883C185.638 245.761 186.042 246.594 186.559 247.356C186.772 247.657 186.876 248.02 186.854 248.388C186.833 248.755 186.687 249.105 186.44 249.378C185.804 249.867 185.298 250.506 184.97 251.238C184.641 251.971 184.5 252.773 184.558 253.573C184.546 255.359 184.532 257.226 184.52 259.011C184.594 259.353 184.575 259.708 184.464 260.04C184.353 260.372 184.154 260.667 183.889 260.895C183.593 261.076 183.259 261.186 182.913 261.217C182.567 261.247 182.219 261.197 181.896 261.071C181.596 260.96 181.313 260.809 181.055 260.621C180.942 260.539 180.834 260.451 180.731 260.356L180.593 260.222C180.542 260.152 180.467 260.105 180.382 260.089C179.111 259.63 177.73 259.565 176.421 259.903C173.236 260.619 169.744 260.585 166.322 260.693C163.112 260.879 159.899 260.376 156.899 259.215C156.334 258.961 155.712 258.86 155.096 258.921C154.479 258.983 153.889 259.205 153.386 259.566C152.764 260.035 151.999 260.275 151.221 260.246C149.832 260.105 148.452 259.88 147.09 259.571C143.925 258.673 140.575 258.659 137.404 259.533C135.369 260.146 133.026 260.545 130.803 261.027C129.187 261.377 128.005 260.986 128.076 260.137C128.149 259.196 127.505 258.886 125.91 259.142C122.216 259.736 118.509 260.31 114.873 260.973C113.024 261.379 111.111 261.395 109.256 261.019C108.36 260.779 107.442 260.631 106.516 260.576C102.591 260.503 98.6615 260.476 94.7278 260.494C91.3078 260.512 87.4869 260.078 84.597 260.964C82.8521 261.506 80.9884 261.536 79.227 261.05C78.5588 260.86 77.9078 260.613 77.281 260.313C76.7175 260.055 76.2543 259.823 75.6702 259.6C74.3726 258.977 73.2189 258.092 72.2823 256.999C71.0897 255.702 70.3443 254.057 70.1555 252.306C70.087 251.716 69.8791 251.151 69.5491 250.657C69.2191 250.163 68.7764 249.755 68.2576 249.466C67.5685 248.952 66.9966 248.297 66.5799 247.545C66.1632 246.793 65.9112 245.961 65.8406 245.104C65.7509 243.836 65.7692 242.642 65.7559 241.428C65.7321 239.462 64.1309 237.993 63.8118 236.27C62.9451 232.47 61.7674 228.748 60.2907 225.141C59.0703 221.966 57.6917 218.855 56.1603 215.818C54.8458 213.485 53.4053 211.225 51.845 209.048L52.5312 208.859C54.4954 208.288 55.9873 207.379 56.478 206.223C56.6552 205.866 56.9375 205.572 57.287 205.38C57.6364 205.189 58.0361 205.109 58.4322 205.152C62.5974 205.687 66.959 204.818 71.8562 203.044C78.2255 200.707 84.9867 199.011 91.0996 196.25C92.4033 195.66 93.7999 195.303 95.2264 195.194C97.0496 195.046 99.0135 194.65 100.781 194.58C105.582 194.258 110.278 193.026 114.618 190.947C117.238 189.773 119.822 188.793 122.589 187.865C131.841 184.76 141.558 182.666 150.539 178.95C151.442 178.711 152.361 178.532 153.288 178.416C155.652 177.854 158.017 177.275 160.368 176.642C167.937 174.621 175.433 172.178 183.112 170.951C185.491 170.547 187.776 169.713 189.856 168.49C191.48 167.528 193.302 166.948 195.183 166.793C197.583 166.44 199.944 165.859 202.234 165.059C202.691 164.925 203.128 164.786 203.55 164.645C203.221 165.45 202.916 166.283 202.627 167.135C202.016 169.156 201.273 171.135 200.402 173.058C200.442 173.745 200.592 174.421 200.847 175.06ZM215.199 153.102C214.98 153.415 214.796 153.75 214.649 154.103L214.582 154.216C214.49 154.269 214.383 154.323 214.281 154.371C214.08 154.468 213.872 154.551 213.66 154.62C213.207 154.763 212.733 154.831 212.258 154.821C211.987 154.816 211.717 154.832 211.448 154.871C211.165 154.911 210.887 154.979 210.618 155.076C210.194 155.203 209.793 155.397 209.431 155.65C207.644 155.64 205.869 155.931 204.18 156.511C201.555 157.664 198.806 158.511 195.988 159.034C193.04 159.449 190.659 161.044 187.97 162.022C183.396 163.699 178.581 164.311 174.007 166.13C169.518 167.936 164.646 168.654 159.982 170.08C158.146 170.621 156.262 170.981 154.357 171.156C150.527 171.475 146.795 172.524 143.361 174.248C141.203 175.321 138.868 175.99 136.47 176.223C132.624 176.575 128.868 177.591 125.37 179.229C124.06 179.785 122.687 180.174 121.28 180.389C116.025 181.464 110.857 182.935 105.659 184.488C99.1494 186.428 92.645 188.862 85.8976 189.447C84.9424 189.566 84.0166 189.857 83.1643 190.304C79.3528 192.327 75.1631 193.537 70.86 193.858C69.4224 194.021 68.0245 194.434 66.7301 195.081C62.1123 197.66 57.0062 199.244 51.7397 199.732C51.2538 199.781 50.7796 199.912 50.3376 200.119C49.4857 200.595 48.5915 200.991 47.6665 201.302L47.0211 201.512L46.6246 201.626C46.36 201.696 46.0946 201.753 45.8332 201.802C44.8387 201.925 43.8521 202.105 42.8783 202.342L42.3963 202.488L42.3212 202.505C42.2501 202.526 42.1813 202.554 42.1161 202.589C41.7703 202.762 41.3975 202.875 41.0138 202.923C40.3487 203.029 40.2448 202.571 40.4279 202.106C40.5304 201.854 40.6767 201.622 40.86 201.421C40.915 201.355 40.9342 201.349 41.0216 201.241L41.2752 200.945C41.4634 200.727 41.5741 200.636 41.8781 200.279C43.4304 198.642 44.6753 196.738 45.553 194.66C46.1984 193.443 47.0778 192.365 48.1408 191.488C50.254 189.597 51.9873 187.32 53.248 184.78C54.1892 183.043 55.0374 183.045 56.0088 182.549C58.1832 181.454 58.8131 180.567 59.1632 177.977C59.2841 177.066 59.5336 176.366 60.2248 176.142C61.001 175.938 61.7196 175.558 62.3248 175.031C62.9299 174.504 63.4053 173.845 63.7139 173.104C65.1507 170.582 67.0089 168.324 69.208 166.429C74.5984 161.615 79.2872 156.07 83.1377 149.954C83.9886 148.811 84.9748 147.775 86.0747 146.869C87.5318 145.609 88.7749 144.121 89.7556 142.463C90.614 140.772 91.8141 139.276 93.2799 138.072C95.295 136.502 95.8745 134.014 97.6186 132.451C99.391 130.849 100.979 129.053 102.353 127.099C104.803 125.362 106.269 122.954 107.671 120.462C107.962 120.09 108.31 119.766 108.703 119.504C110.588 118.108 112 116.169 112.75 113.947C113.324 112.205 114.824 110.75 116.014 109.188C117.545 107.982 118.984 106.663 120.317 105.241C121.094 104.321 122.106 103.628 123.244 103.236C124.274 103.093 125.323 103.178 126.317 103.484C127.413 103.727 128.488 104.059 129.53 104.478C130.757 104.969 131.95 105.541 133.102 106.189C134.368 106.932 135.525 107.846 136.54 108.906C137.565 109.936 138.682 110.869 139.878 111.694C141.136 112.438 142.444 113.094 143.792 113.659C145.106 114.283 146.822 114.607 147.711 115.331C150.58 117.622 153.709 118.523 156.785 119.772C159.695 120.928 162.035 122.326 163.27 124.351C163.733 125.092 164.357 125.721 165.095 126.19C165.832 126.66 166.666 126.958 167.534 127.063C170.627 127.462 173.813 129.411 176.916 130.085C179.147 130.572 180.838 132.44 183.082 133.467C185.262 134.444 187.333 135.847 189.568 136.359C190.887 136.722 192.07 137.465 192.969 138.497C194.132 139.621 194.811 141.05 197.002 141.633C198.851 142.12 199.905 143.902 201.915 144.427C203.278 144.746 204.567 145.322 205.714 146.125C207.124 147.4 208.654 148.537 210.282 149.52C211.092 150.024 211.912 150.511 212.738 150.995L213.973 151.723L214.526 152.056L214.589 152.107C214.637 152.142 214.672 152.193 214.686 152.251C214.7 152.309 214.692 152.371 214.665 152.424C214.615 152.484 214.553 152.534 214.483 152.568C214.413 152.602 214.336 152.62 214.258 152.621C214.575 152.57 214.9 152.635 215.173 152.806C215.195 152.823 215.213 152.844 215.227 152.869C215.24 152.893 215.248 152.92 215.25 152.948C215.253 152.976 215.25 153.004 215.241 153.031C215.232 153.057 215.218 153.081 215.199 153.102V153.102Z" fill="#000638"/>
<path d="M183.265 216.621C183.289 216.538 183.322 216.464 183.345 216.38C183.839 214.393 183.927 212.326 183.603 210.303C183.471 209.359 183.283 208.467 183.081 207.617C182.837 206.441 182.396 205.315 181.776 204.287C180.69 202.647 179.408 201.146 177.958 199.817C175.736 197.77 173.084 196.656 170.539 195.257C170.03 194.937 169.461 194.703 168.927 194.419C168.39 194.13 167.838 193.869 167.274 193.638L165.577 192.925L163.809 192.348C163.512 192.257 163.22 192.15 162.918 192.072L161.999 191.872C161.385 191.749 160.776 191.59 160.153 191.503C158.897 191.328 157.629 191.263 156.362 191.307C155.696 191.345 155.06 191.305 154.451 191.335C153.844 191.385 153.255 191.414 152.669 191.433C151.512 191.451 150.359 191.562 149.22 191.765C146.166 192.356 144.967 193.135 143.992 195.042C143.432 196.097 142.728 197.07 141.9 197.933C141.031 198.876 140.03 199.872 139.024 201.064C137.789 202.382 136.761 203.879 135.974 205.504C135.864 207.247 135.493 209.134 135.281 211.095C135.035 212.947 135.103 214.828 135.482 216.657C135.085 217.34 134.803 218.083 134.646 218.857C134.488 219.789 134.52 220.744 134.741 221.663C134.928 222.448 135.227 223.203 135.628 223.904C136.292 225.04 137.119 226.073 138.082 226.97C138.922 227.765 139.814 228.502 140.752 229.178C142.497 230.403 144.418 231.356 146.449 232.004C148.381 232.624 150.362 233.083 152.369 233.377C153.422 233.904 154.581 234.184 155.759 234.193C156.058 234.192 156.364 234.189 156.655 234.167C156.935 234.131 157.216 234.095 157.5 234.059C158.075 233.984 158.645 233.875 159.208 233.732C159.267 233.719 159.327 233.707 159.386 233.694C161.193 234.082 163.048 234.204 164.891 234.057C167.571 233.861 170.168 233.042 172.475 231.665C174.698 230.321 176.739 228.697 178.549 226.834C179.439 225.906 180.262 224.917 181.014 223.875C181.198 223.608 181.392 223.349 181.567 223.074L182.162 222.128C182.633 221.363 182.994 220.536 183.234 219.671C183.495 218.697 183.513 217.674 183.285 216.692C183.279 216.668 183.27 216.644 183.265 216.621ZM172.632 214.818C173.416 215.522 174.159 216.168 174.786 216.857C174.908 216.977 175.024 217.098 175.139 217.22C174.859 217.861 174.517 218.472 174.116 219.046C173.505 219.913 172.786 220.7 171.978 221.387C171.157 222.074 170.227 222.62 169.227 223.001C168.106 223.405 167.09 223.762 166.105 224.144C167.924 222.198 169.019 219.685 169.207 217.027C169.311 215.563 169.099 214.094 168.585 212.719C168.542 212.606 168.485 212.502 168.439 212.392C169.969 212.947 171.388 213.768 172.632 214.818ZM158.698 219.41L158.697 219.411C158.598 219.391 158.507 219.342 158.438 219.269C158.099 218.955 157.863 218.545 157.761 218.095C157.607 217.655 157.36 217.253 157.035 216.918C156.879 216.761 156.759 216.573 156.681 216.365C156.604 216.158 156.572 215.937 156.587 215.716C156.717 215.701 156.845 215.676 156.97 215.641C157.22 215.633 157.467 215.692 157.685 215.813C158.024 215.995 158.343 216.212 158.637 216.461C158.916 216.701 159.121 217.017 159.227 217.37C159.327 217.741 159.326 218.132 159.223 218.502L159.118 218.776L158.962 219.03C158.883 219.149 158.793 219.26 158.693 219.361C158.683 219.348 158.69 219.379 158.698 219.41ZM142.013 210.256C142.152 209.806 142.256 209.346 142.326 208.88L142.461 207.965C142.482 207.797 142.504 207.622 142.527 207.441C142.553 207.235 142.549 207.202 142.558 207.064C142.65 205.526 143.323 204.08 144.44 203.019C146.454 201.074 148.884 199.612 151.545 198.743C152.261 198.509 152.884 198.242 153.464 197.999C154.044 197.781 154.59 197.515 155.168 197.245C155.525 197.073 155.894 196.925 156.271 196.801C156.599 196.72 156.933 196.668 157.27 196.645C157.628 196.642 157.984 196.683 158.332 196.768C158.921 196.835 159.474 197.085 159.914 197.483C160.318 197.94 160.395 198.453 160.924 198.831C162.014 199.723 163.178 199.31 164.349 199.664C166.631 200.205 168.645 201.545 170.025 203.442C170.42 204.156 170.965 204.777 171.622 205.26C170.049 204.694 168.377 204.455 166.708 204.556C166.068 204.601 165.424 204.58 164.788 204.492C164.24 204.431 163.698 204.33 163.166 204.19C162.642 204.077 162.133 203.967 161.611 203.855C161.062 203.768 160.506 203.731 159.949 203.743C159.318 203.781 158.679 203.839 158.047 203.914C153.756 204.528 149.62 205.947 145.855 208.095C144.454 208.903 143.104 209.795 141.811 210.766C141.89 210.601 141.958 210.43 142.013 210.256ZM142.118 220.517L142.103 220.508L142.103 220.505C142.12 220.517 142.122 220.52 142.118 220.517V220.517ZM144.927 223.713C144.123 223.373 143.438 222.804 142.956 222.076C142.815 221.84 142.727 221.575 142.698 221.301C142.669 221.027 142.7 220.75 142.789 220.49C142.832 220.36 142.865 220.227 142.886 220.092C142.92 220.001 142.941 219.905 142.951 219.809C142.936 219.723 142.976 219.695 142.945 219.665L142.94 219.661C143.827 218.841 144.766 218.08 145.752 217.382C145.855 217.309 145.944 217.227 146.042 217.151C145.947 218.624 146.047 220.104 146.341 221.55C146.528 222.029 146.742 222.496 146.983 222.95C147.145 223.469 147.336 223.979 147.555 224.478C146.693 224.177 145.816 223.922 144.927 223.713V223.713Z" fill="#000638"/>
<path d="M152.675 178.553C149.814 178.603 146.828 179.858 144.199 180.986C142.167 181.859 140.352 179.784 138.116 180.646C134.45 182.061 130.935 182.495 127.167 183.224C125.01 184.022 123.337 185.898 121.247 186.609C118.552 187.526 114.906 187.532 112.018 188.281C110.777 188.346 109.536 188.384 108.293 188.393C105.824 188.929 103.512 190.028 101.538 191.604C100.991 192.093 100.309 191.635 99.7902 191.827C99.2413 192.03 98.8646 192.666 98.3322 192.972C96.7602 193.876 95.2304 192.511 93.6209 194.048C93.0637 194.674 92.3728 195.166 91.5994 195.488C84.4171 197.958 77.5172 199.108 70.2658 201.677C68.4887 202.306 66.7222 202.965 64.9576 203.627L62.3108 204.622L60.986 205.116L60.3232 205.361L59.2529 205.731C57.5646 206.232 55.9815 207.036 54.581 208.104C53.9119 208.65 53.3576 209.323 52.95 210.084C52.5434 210.859 52.3118 211.714 52.2716 212.588C52.2353 213.467 52.3652 214.346 52.6547 215.178C53.014 216.11 53.4794 216.997 54.0418 217.822L54.7929 219.007C54.9358 219.229 55.0909 219.445 55.2457 219.662C55.5628 220.105 55.9056 220.528 56.2724 220.931C56.6773 221.354 57.1471 221.709 57.664 221.984C58.1273 222.268 58.5069 222.671 58.7641 223.15C59.0213 223.628 59.1468 224.167 59.128 224.71C59.247 225.735 59.334 226.698 60.4157 227.378C61.686 228.184 61.675 229.843 62.769 230.76C64.0114 231.807 65.4364 232.743 66.7502 233.837C67.5942 234.043 68.484 233.946 69.2633 233.562C70.4617 233.242 70.5194 233.184 69.9472 231.815C69.5433 230.348 69.2498 228.853 69.0692 227.343C68.7543 225.606 68.2631 223.941 67.4941 223.361C66.5545 222.737 65.8099 221.86 65.3458 220.832C64.7415 219.365 63.8132 218.073 63.6205 216.415C63.4609 215.541 63.1091 214.713 62.5905 213.991L62.4829 213.826C62.4829 213.826 62.4921 213.848 62.4866 213.841C62.4762 213.834 62.4652 213.828 62.4536 213.823L62.3598 213.787C62.2584 213.754 62.1589 213.716 62.0618 213.672C61.9274 213.62 61.8065 213.539 61.7082 213.433C61.6099 213.328 61.5367 213.202 61.4942 213.064C61.4662 212.966 61.4778 212.861 61.5264 212.771C61.5749 212.681 61.6567 212.614 61.7542 212.583C61.8856 212.563 62.0087 212.507 62.1098 212.42C62.2109 212.334 62.2859 212.221 62.3264 212.094L62.3648 212.009C62.4106 211.967 62.4587 211.928 62.509 211.891C62.6092 211.812 62.7022 211.739 62.7919 211.668C62.9624 211.53 63.1538 211.419 63.3591 211.34C65.9487 212.474 67.6987 209.426 70.0699 208.911C70.8463 208.742 71.7142 208.927 72.4617 208.698C73.0179 208.527 73.4002 207.845 73.9504 207.574C74.491 207.306 81.8376 205.202 82.045 205.249C83.3684 205.552 88.8377 204.877 89.8517 203.781C94.2398 199.042 105.283 201.19 108.886 195.78C109.13 195.415 116.02 193.428 116.714 193.83C117.087 194.019 117.497 194.126 117.915 194.143C118.333 194.161 118.75 194.089 119.138 193.931C119.96 193.306 120.559 192.433 121.655 192.125C124.394 191.356 127.37 190.583 130.044 189.678C132.53 188.836 136.535 188.356 138.622 186.803C138.949 186.56 139.335 186.064 139.598 186.127C143.948 187.173 150.969 184.06 154.229 180.929C154.802 180.376 155.511 178.503 152.675 178.553Z" fill="#80829B"/>
<path d="M118.829 224.49C118.562 223.645 118.128 222.863 117.553 222.189C117.585 221.975 117.619 221.761 117.645 221.546L117.611 221.312L117.599 220.93C117.594 220.678 117.582 220.426 117.561 220.174L117.414 218.707C117.355 218.233 117.343 217.753 117.249 217.314L116.945 216.037C116.812 214.005 115.902 212.103 114.402 210.726C113.698 210.076 112.855 209.594 111.938 209.316C111.097 209.079 110.219 209.005 109.35 209.097C108.742 209.15 108.165 209.2 107.547 209.271C106.926 209.376 106.253 209.588 105.548 209.734C104.773 209.905 104.025 210.184 103.326 210.561C102.51 210.927 101.736 211.38 101.016 211.911C98.3034 214.603 96.5058 217.314 93.9546 220.023C93.6431 220.422 93.4145 220.878 93.2825 221.366C93.1505 221.854 93.1177 222.364 93.1861 222.865C93.3343 223.798 93.1382 224.752 92.6344 225.551C91.0066 227.544 89.3605 230.09 89.1902 232.702C89.0502 235.269 90.9458 234.741 91.4873 234.333C93.2107 232.883 94.7306 231.207 96.0059 229.35C97.3453 227.634 98.2045 225.593 98.4956 223.436C98.5121 223.2 99.0651 223.097 99.37 222.942C100.428 222.304 101.366 221.486 102.143 220.525C102.958 219.573 103.846 218.685 104.799 217.87C105.41 217.402 106.048 216.914 106.688 216.424C107.24 215.902 107.916 215.529 108.652 215.342C109.29 215.304 109.19 216.534 109.036 217.217C109.139 217.547 109.471 217.464 110.148 217.254C110.307 217.189 110.493 217.364 110.607 217.715C110.723 218.171 110.773 218.642 110.755 219.112C110.746 219.379 110.732 219.65 110.711 219.906L110.659 220.278C110.65 220.332 110.642 220.38 110.634 220.432C110.241 220.579 109.859 220.756 109.493 220.962C108.839 221.347 108.232 221.807 107.686 222.334L107.326 222.687L107.045 222.995L106.483 223.605C105.737 224.416 105.009 225.219 104.202 225.957C101.479 228.423 99.1958 231.335 97.4506 234.567C97.2276 234.984 97.0213 235.406 96.8316 235.834C96.6636 236.216 96.4963 236.595 96.3295 236.973C95.9101 237.915 95.5804 238.895 95.3448 239.899C95.1731 240.666 95.1123 241.455 95.1645 242.239C95.1929 242.511 95.2336 242.784 95.2853 243.051C95.3607 243.365 95.4572 243.674 95.5742 243.975C95.858 244.664 96.2836 245.285 96.8234 245.798C97.0795 246.044 97.3626 246.261 97.6671 246.443C97.9282 246.613 98.2076 246.753 98.5002 246.86C98.7673 246.967 99.0401 247.059 99.3173 247.136C99.6277 247.198 99.9415 247.242 100.257 247.268C100.868 247.307 101.481 247.245 102.072 247.084C102.562 246.945 103.032 246.743 103.471 246.485C104.589 245.791 105.539 244.859 106.253 243.755C106.769 242.988 107.246 242.196 107.682 241.382C108.032 240.74 108.314 240.23 108.654 239.639C108.857 239.713 109.066 239.771 109.278 239.813C110.81 239.511 112.311 239.067 113.762 238.488C115.035 237.901 115.256 236.308 116.558 235.538C117.692 234.848 117.784 233.706 117.769 232.584C117.591 231.376 117.827 230.144 118.439 229.087C118.617 228.791 118.768 228.479 118.891 228.156C119.001 227.816 119.077 227.465 119.118 227.11C119.198 226.226 119.099 225.335 118.829 224.49Z" fill="#006ADC"/>
<path d="M120.287 238.504C120.028 237.828 119.693 237.182 119.289 236.581C118.868 235.948 118.309 235.417 117.654 235.03C117.447 234.913 117.231 234.812 117.009 234.728L117.019 234.501C117.068 232.57 116.808 230.644 116.246 228.797C115.945 227.79 115.534 226.819 115.019 225.903C114.654 225.238 114.207 224.621 113.69 224.066C113.141 223.506 112.48 223.068 111.751 222.781C111.396 222.64 111.03 222.53 110.657 222.452C110.271 222.396 109.864 222.366 109.451 222.329C109.02 222.365 108.576 222.401 108.118 222.485C107.64 222.609 107.169 222.761 106.709 222.942C105.167 223.751 103.742 224.764 102.47 225.953C102.145 226.243 101.845 226.519 101.527 226.849L101.17 227.231L100.894 227.553C100.524 227.979 100.182 228.413 99.8391 228.845C98.4974 230.581 97.3228 232.339 96.042 234.104C94.4787 236.312 96.1139 238.596 94.9003 240.568C94.0668 241.922 93.36 243.35 92.7891 244.834C92.5084 245.583 92.2868 246.353 92.1263 247.136C92.0544 247.525 91.9894 247.91 91.9551 248.295C91.9418 248.488 91.9287 248.68 91.9157 248.87C91.9079 248.984 91.9157 249.02 91.8983 249.196C91.8809 249.364 91.8789 249.533 91.8923 249.701C91.9286 250.224 92.1111 250.727 92.4192 251.151C92.5527 251.352 92.7283 251.522 92.934 251.649C93.1396 251.776 93.3704 251.857 93.6103 251.886C94.0525 251.896 94.2246 251.676 94.275 251.535C94.297 251.467 94.3051 251.396 94.2986 251.325C94.2922 251.254 94.2714 251.186 94.2375 251.123C94.1763 251.006 94.1225 250.885 94.0764 250.761C94.0702 250.734 94.0669 250.705 94.0667 250.677C94.1246 250.578 94.2063 250.495 94.3043 250.435C94.3846 250.378 94.4705 250.33 94.5607 250.29C94.6074 250.261 94.6174 250.26 94.6404 250.244C94.7438 250.137 94.8567 250.039 94.9777 249.953C95.0716 250.025 95.2835 249.683 95.4607 249.437C95.8228 248.92 96.1862 248.37 96.5447 247.798C97.2606 246.654 97.9559 245.424 98.5909 244.187C99.8483 241.706 100.868 239.192 100.941 236.978C100.949 236.708 101.528 236.477 101.85 236.249C102.937 235.338 103.918 234.308 104.775 233.178C105.02 232.895 105.261 232.608 105.51 232.337C105.705 232.124 105.897 231.913 106.085 231.708C106.368 231.399 106.689 231.129 107.042 230.903C107.736 230.465 108.483 230.117 109.265 229.867C109.48 229.822 109.704 229.842 109.908 229.926C110.111 230.01 110.284 230.153 110.405 230.337C110.643 230.691 110.809 231.088 110.894 231.506C111.05 232.195 110.379 233.069 109.997 233.529C109.916 233.904 110.161 234.125 110.692 234.61C110.764 234.719 110.801 234.848 110.798 234.978L110.25 235.163C108.815 235.688 107.456 236.402 106.21 237.286C105.537 237.749 104.892 238.251 104.279 238.791C103.913 239.09 103.756 239.245 103.546 239.439L102.939 240.01C101.451 241.507 100.107 243.139 98.9232 244.886C98.3597 245.696 97.8172 246.538 97.3384 247.269C96.8257 248.049 96.2782 248.885 95.7436 249.781C95.1469 250.762 94.6292 251.788 94.1954 252.85C94.0736 253.126 93.9638 253.508 93.8562 253.834C93.7461 254.226 93.6568 254.623 93.5889 255.024C93.5596 255.266 93.5422 255.531 93.5303 255.785C93.5101 256.068 93.52 256.352 93.56 256.632C93.5993 256.952 93.6569 257.269 93.7326 257.583C93.8547 257.943 94.0042 258.294 94.1799 258.631C94.3555 258.967 94.5779 259.276 94.8404 259.549C95.0732 259.825 95.3406 260.069 95.636 260.276C95.8981 260.454 96.1695 260.617 96.449 260.766C96.5625 260.831 96.6809 260.887 96.8033 260.933L97.0747 261.036C97.444 261.184 97.825 261.301 98.2137 261.385C99.2322 261.627 100.289 261.663 101.321 261.489C101.497 261.637 101.686 261.769 101.887 261.881C103.605 262.027 105.334 261.964 107.036 261.691C108.592 261.393 109.455 259.734 111.041 259.321C112.43 258.955 112.937 257.86 113.401 256.768C113.737 255.548 114.531 254.505 115.618 253.858C116.23 253.545 116.779 253.121 117.237 252.607C117.677 252.104 118.076 251.565 118.428 250.997C118.602 250.716 118.757 250.426 118.91 250.136C119.157 249.673 119.379 249.198 119.574 248.711C120.417 246.942 120.909 245.026 121.024 243.069C121.093 241.513 120.842 239.959 120.287 238.504ZM102.552 251.598C102.981 250.957 103.546 250.112 104.118 249.256C104.249 249.062 104.38 248.872 104.512 248.684C104.241 249.409 103.976 250.14 103.694 250.856C103.23 252.285 102.45 253.59 101.412 254.676C101.619 254.031 101.775 253.371 101.881 252.703C102.079 252.319 102.303 251.95 102.552 251.598Z" fill="#80829B"/>
<path d="M96.1826 172.942C96.1466 172.59 96.0847 172.242 95.9972 171.899C95.7272 170.969 95.2308 170.121 94.5525 169.43C94.1266 168.997 93.6308 168.639 93.0859 168.372C92.5024 168.084 91.8731 167.9 91.2264 167.828C90.696 167.775 90.161 167.789 89.6343 167.871C89.2572 167.939 88.8858 168.035 88.5233 168.16C87.5359 168.581 86.6453 169.2 85.9068 169.979C85.3972 170.5 84.9327 171.064 84.5183 171.664C84.1851 172.145 84.3874 172.639 85.0164 172.925C85.8083 173.304 86.5847 173.686 87.3395 174.134C87.7971 174.438 88.3226 174.626 88.8698 174.679C89.1597 174.698 89.4478 174.737 89.7322 174.797C89.8773 175.021 89.8558 175.205 89.5368 175.259C89.0232 175.342 88.8886 175.643 88.9518 176.124C89.0696 176.908 89.0925 177.703 89.02 178.492C89.0076 178.614 88.516 178.506 88.2065 178.378C87.6274 178.142 87.1477 177.997 87.0058 178.288C86.4533 179.817 85.3283 181.072 83.8683 181.787C83.5495 182.005 83.2527 182.252 82.9821 182.527C82.0629 183.351 81.3533 184.4 79.7873 184.547C79.5377 184.589 79.3074 184.708 79.1282 184.887C78.9489 185.066 78.8294 185.296 78.7862 185.546C78.6701 185.862 78.4822 186.147 78.2372 186.379C77.9922 186.61 77.6969 186.782 77.3744 186.88C77.274 186.933 77.1806 186.999 77.0966 187.076C77.2215 186.793 77.4163 186.547 77.6626 186.36C77.909 186.174 78.1988 186.053 78.5047 186.009C78.5949 185.991 78.637 185.825 78.5638 185.721C77.8035 184.647 78.4278 184.595 78.9007 184.352C79.261 184.167 79.3543 183.707 79.4839 183.312C79.6037 182.88 79.7908 182.469 80.0382 182.095C80.4231 181.657 80.8967 181.305 81.4276 181.064C81.9107 180.781 82.2868 180.346 82.4974 179.827C83.0591 178.682 83.3124 177.411 83.2321 176.138C83.1703 175.263 82.9276 174.409 82.5193 173.633C82.1219 172.868 81.5715 172.193 80.9023 171.651C80.2331 171.108 79.4594 170.708 78.6292 170.477C78.0134 170.306 77.3754 170.228 76.7364 170.245C75.7943 170.273 74.871 170.516 74.0365 170.954C73.7162 171.114 73.3871 171.256 73.051 171.38L72.8084 171.479L72.6349 171.563C72.5209 171.619 72.4116 171.685 72.308 171.758C72.0395 171.959 71.7423 172.117 71.4264 172.229C71.1108 172.36 70.7779 172.444 70.4381 172.48C70.151 172.509 69.8821 172.634 69.6741 172.834C69.466 173.034 69.3309 173.298 69.29 173.584C69.2268 173.858 69.084 174.194 68.8624 174.2C68.3542 174.195 67.8628 174.381 67.4846 174.721C67.1689 175.056 66.8814 175.416 66.6249 175.798C65.8572 176.949 65.1528 178.141 64.515 179.369C63.9886 180.32 63.3597 181.247 63.621 182.422C63.7208 182.845 63.3011 182.992 63.1216 183.329C62.7948 184.002 62.1727 184.927 62.3201 185.663C62.4295 186.214 62.4109 186.783 62.2656 187.326C62.1329 187.833 62.1496 188.369 62.3136 188.868L62.3191 188.882C62.1532 189.055 62.0299 189.263 61.9589 189.492C61.888 189.72 61.8713 189.962 61.9104 190.198C61.9227 190.392 61.6467 190.487 61.4004 190.396C60.5815 190.097 60.1471 190.145 59.9608 190.694C59.8654 191.21 59.5981 191.679 59.2022 192.025C58.8063 192.37 58.3052 192.572 57.7804 192.596C57.1991 192.59 57.3451 193.376 56.7953 193.353C56.2355 193.335 56.4534 194.214 56.127 194.493C55.8679 194.695 55.7154 195.059 55.455 195.261C55.1286 195.525 54.7514 195.687 54.6704 196.29C54.5761 196.891 53.7956 196.369 53.797 197.153C53.8009 197.201 53.7924 197.249 53.7721 197.293C53.7518 197.336 53.7205 197.374 53.6813 197.402C53.6421 197.43 53.5963 197.447 53.5484 197.452C53.5006 197.456 53.4523 197.449 53.4083 197.429C53.1519 197.318 52.8781 197.252 52.599 197.234C52.4291 197.247 52.2585 197.247 52.0886 197.233C51.9472 197.229 51.8121 197.325 51.6702 197.318C51.3696 197.296 51.0782 197.204 50.8183 197.051C50.7039 196.993 51.0152 196.349 51.0174 196.293C51.0133 196.238 50.415 196.733 50.2781 196.646C50.1891 196.608 50.1089 196.551 50.0423 196.481C49.9756 196.41 49.924 196.327 49.8904 196.235C49.8643 196.117 49.8796 195.994 49.9337 195.885C49.9879 195.777 50.0777 195.691 50.188 195.641C50.385 195.572 50.5934 195.542 50.8018 195.552C51.0142 195.548 51.1318 195.575 50.9108 195.481C50.811 195.413 50.7515 195.445 50.7963 195.338C50.8445 195.245 50.9092 195.161 50.9872 195.092C51.088 195.022 51.1576 194.915 51.1816 194.795C51.2056 194.674 51.182 194.549 51.1159 194.446C51.0307 194.281 51.3319 194.209 51.4985 194.113C51.9778 193.836 51.6643 193.26 51.1635 192.607C50.8787 192.235 50.6077 191.841 51.0742 191.737C51.8547 191.563 52.0282 191.016 52.5532 190.699C53.4431 190.158 54.4456 189.756 53.9132 188.422C53.9006 188.399 53.8939 188.373 53.8939 188.346C53.8938 188.32 53.9003 188.293 53.9128 188.27C53.9254 188.247 53.9435 188.227 53.9656 188.212C53.9878 188.197 54.0132 188.189 54.0396 188.186C54.9812 188.123 54.685 187.38 54.7885 186.817C54.8408 186.371 55.0446 185.956 55.3659 185.642C55.6871 185.328 56.1063 185.134 56.5536 185.091C57.4669 184.958 57.7433 184.393 57.4765 183.494C57.0558 182.068 58.1842 181.571 57.9997 180.238C57.8963 179.499 59.0228 179.695 59.487 179.38C60.809 178.475 61.2768 176.785 63.1322 176.411C63.2942 176.379 63.226 176.011 63.1097 175.732C62.7513 174.878 62.6803 174.332 63.9882 175.173C64.1314 175.264 64.3466 175.296 64.3823 175.23C64.7701 174.612 65.3393 174.129 66.0119 173.847C66.602 173.569 66.8693 172.928 67.2708 172.433C67.3266 172.364 67.3912 172.217 67.3211 172.122C66.9151 171.572 65.7876 170.854 66.494 170.597C66.8629 170.462 67.3449 170.472 67.6823 170.31C68.4468 169.955 68.1451 168.287 67.0886 166.694C66.2464 165.389 65.2309 164.203 64.0701 163.17C63.8229 162.931 63.5054 162.779 63.1646 162.734C62.7361 162.789 62.3324 162.966 62.0019 163.244C61.329 163.887 60.9111 164.81 60.1292 165.311C57.9233 166.74 56.3723 168.851 54.6319 170.745C53.4404 172.035 52.5793 173.579 50.7798 174.386C50.5672 175.091 50.1066 175.696 49.483 176.089C49.581 177.76 48.3899 178.579 47.8717 179.835C47.4144 180.993 46.4544 181.878 46.7501 183.425C46.8197 183.779 46.5666 184.016 46.4334 184.292L44.5465 188.126C43.9674 189.548 43.071 190.818 41.9258 191.841C41.828 191.926 41.7418 192.024 41.6694 192.132C41.5829 192.278 41.5061 192.43 41.4396 192.586C41.3102 192.902 41.2014 193.225 41.1141 193.555C40.6522 194.639 40.6119 195.856 41.0011 196.968C41.2067 197.496 41.2248 198.078 41.0523 198.617C40.885 199.176 40.9365 199.777 41.1965 200.299C41.4004 200.721 41.6622 201.112 41.9743 201.461C42.3191 201.768 42.5487 202.184 42.6252 202.64C42.7712 203.454 43.1496 204.209 43.7147 204.813C45.5136 206.294 47.5998 207.386 49.8418 208.021C50.5875 208.261 51.2559 207.607 51.58 206.676C51.7672 206.143 52.0071 206.142 52.4012 206.301C52.8056 206.46 53.249 206.493 53.6726 206.395C54.0962 206.297 54.4798 206.072 54.7724 205.75C54.9996 205.494 55.2641 205.273 55.557 205.095C55.7709 204.973 56.0241 204.939 56.2625 205.001C56.7483 205.071 57.2438 204.993 57.6852 204.779C58.2189 204.54 58.7273 204.249 59.2027 203.909C59.681 203.59 60.153 203.262 60.5897 202.903C60.8598 202.695 61.182 202.535 61.3125 202.188C61.6215 201.362 62.3658 201.087 62.6881 200.346C62.8067 199.995 63.0171 199.682 63.2974 199.44C63.5776 199.198 63.9176 199.035 64.282 198.969C64.5029 199.283 64.6957 199.616 64.8584 199.963C64.9477 200.172 65.0943 200.351 65.2813 200.48C65.4683 200.609 65.6879 200.683 65.9149 200.692C68.064 200.682 70.2054 200.434 72.3002 199.954C73.4341 199.636 74.5152 199.154 75.5091 198.522C76.8342 197.74 78.0245 196.749 79.0343 195.588C79.2566 195.316 79.5229 195.083 79.8222 194.9C80.0703 194.725 80.3474 194.595 80.6406 194.517C81.0654 194.469 81.4696 194.308 81.8106 194.05C82.2881 193.577 82.5948 192.853 83.5785 192.925C83.6545 191.872 84.6781 191.807 85.2933 191.305C85.8647 190.848 86.2801 190.224 86.4821 189.521C86.5801 189.235 86.7386 188.974 86.9466 188.755C87.1547 188.537 87.4075 188.365 87.6879 188.253C88.5926 187.817 89.3947 187.195 90.0415 186.427C90.6882 185.659 91.1649 184.762 91.4401 183.796C91.4989 183.645 91.5937 183.509 91.7164 183.402C91.8392 183.295 91.9862 183.219 92.1446 183.182C92.8881 182.892 93.5085 182.355 93.9011 181.66C94.3057 181.1 94.065 180.149 94.8409 179.769C95.6713 179.365 95.2803 178.265 95.4602 177.412C95.5074 177.189 95.5605 176.971 95.6195 176.757L95.8219 176.011C95.8901 175.789 95.9743 175.426 96.0443 175.095C96.1352 174.676 96.1897 174.251 96.2073 173.823L96.2201 173.457C96.2133 173.287 96.2009 173.115 96.1826 172.942ZM72.8426 191.556C72.8779 191.532 72.9136 191.509 72.9497 191.486C72.9223 191.581 72.8834 191.593 72.8426 191.556ZM90.5778 173.523L90.5631 173.531L90.5942 173.509L90.5778 173.523ZM90.5947 173.509C90.5887 173.513 90.5929 173.51 90.5947 173.509V173.509ZM91.1051 174.779L91.101 174.771C91.1051 174.775 91.1124 174.776 91.1133 174.783C91.1092 174.778 91.133 174.83 91.1051 174.779Z" fill="#006ADC"/>
<path d="M270.27 54.7416C268.906 54.0323 269.238 52.9445 269.141 51.6831C269.114 51.1942 268.988 50.7157 268.773 50.2762C268.573 49.822 268.348 49.3798 268.097 48.9521C267.03 47.04 265.801 45.4713 265.23 43.3468C265.021 42.6501 264.661 42.0082 264.175 41.4667C261.552 38.1094 258.002 35.5958 253.964 34.2375C253.082 33.9573 252.321 33.5092 251.508 33.2556C250.431 32.9734 249.404 32.5215 248.468 31.9168C248.09 31.6727 247.666 31.509 247.222 31.436C246.778 31.3629 246.323 31.3821 245.887 31.4923C245.487 31.6332 245.048 31.6156 244.661 31.4433C243.356 30.4096 241.762 30.4016 240.241 30.3584C237.828 30.2602 235.457 30.3643 233.126 30.4399C231.219 30.5035 229.298 30.4556 227.573 31.3146C226.96 31.6245 226.36 31.3396 225.761 31.3632C224.735 31.3941 223.567 31.1842 222.741 31.66C221.456 32.4156 219.969 32.1469 218.734 32.9491C217.965 33.468 217.098 33.8241 216.186 33.9954C215.274 34.1666 214.337 34.1495 213.432 33.945C212.404 33.8001 211.356 33.8933 210.37 34.2173C208.976 34.6245 207.586 35.0347 206.181 35.4073C204.78 35.8547 203.31 36.0498 201.841 35.9836C201.212 35.9023 200.577 36.0612 200.06 36.4285C197.503 38.3091 194.75 39.9087 191.85 41.1996C190.357 42.0178 188.828 42.7761 187.39 43.7193C186.572 44.2263 185.728 44.7061 184.941 45.2771C184.131 45.8038 183.381 46.417 182.703 47.1059C182.082 47.7093 181.345 48.1819 180.537 48.4957C179.745 48.8474 179.008 49.3123 178.349 49.8758C177.806 50.3654 177.331 50.9699 176.801 51.5142C176.271 52.082 175.621 52.524 174.898 52.8078C174.299 54.6441 172.619 55.5232 171.575 56.9766C170.587 58.221 169.854 59.6476 169.416 61.1752C169.03 62.4157 168.442 63.584 167.675 64.633C165.269 68.2212 164.067 72.4816 164.241 76.7983C164.249 77.4639 164.101 78.1221 163.808 78.72C163.514 79.4625 163.321 80.2408 163.232 81.0344C163.12 81.8309 163.086 82.6363 163.128 83.4395C163.16 84.8364 163.91 86.0861 163.659 87.5044C163.536 88.1992 163.639 88.9149 163.952 89.5473C164.303 90.138 164.624 90.7467 164.911 91.371C165.155 91.9654 165.299 92.5724 165.525 93.1739C165.744 93.7765 165.939 94.3915 166.124 95.0256C166.509 96.3775 166.969 97.7075 167.499 99.0095C168.508 100.956 169.717 102.792 171.107 104.488C171.712 105.249 172.309 105.311 172.718 104.722C173.24 103.979 173.749 103.232 174.321 102.543C174.536 102.305 174.701 102.026 174.806 101.722C174.91 101.418 174.952 101.097 174.929 100.776C174.97 99.9941 174.914 99.2098 174.76 98.4418C174.574 98.0165 174.416 97.579 174.288 97.1324C174.146 96.6951 174.052 96.2437 174.007 95.7861C173.915 94.858 173.766 93.9954 173.611 93.1229C173.544 92.4686 173.31 91.8426 172.931 91.3051C172.552 90.7675 172.041 90.3364 171.447 90.0533C170.891 89.7874 170.506 89.3866 170.737 88.697C170.87 88.3377 170.919 87.9527 170.881 87.5716C170.842 87.1904 170.716 86.8232 170.514 86.4981L170.02 85.5908C169.877 85.2818 169.754 84.9671 169.625 84.6483C169.371 84.0106 169.133 83.3544 168.919 82.6815C168.84 82.4659 169.344 82.0478 169.673 81.8809C170.298 81.565 170.791 81.224 170.759 80.5838C170.705 79.6354 170.722 78.6844 170.81 77.7386C170.838 77.3383 170.87 76.9675 170.909 76.6148C170.963 76.2651 171.042 75.9368 171.118 75.6136C171.273 74.9684 171.458 74.3509 171.691 73.6727C171.967 73.0058 172.32 72.2848 172.741 71.4185C173.049 70.7318 173.362 70.0346 173.674 69.3411C174.631 67.1132 175.658 64.8141 177.724 63.3387C178.469 62.7729 179.014 61.9838 179.279 61.0865C179.503 60.4911 179.846 59.9478 180.288 59.4901C180.71 59.0172 181.181 58.591 181.693 58.2186C182.694 57.4939 183.303 56.2889 184.476 55.6332C185.017 55.276 185.521 54.8642 185.979 54.4043C186.455 53.9515 186.959 53.5283 187.487 53.1372C188.246 52.5932 188.479 51.4732 189.491 51.2336C190.499 50.9908 190.992 50.2055 191.528 49.3627C192.178 48.3394 193.862 49.1105 194.421 47.7745C194.53 47.5314 195.068 47.4811 195.438 47.5015C195.824 47.5417 196.213 47.4723 196.561 47.3011C196.909 47.13 197.201 46.864 197.404 46.534C197.584 46.1925 197.862 45.9134 198.203 45.7336C198.544 45.5537 198.932 45.4816 199.315 45.5266C200.283 45.6168 201.249 45.3419 202.025 44.756C202.623 44.2886 203.146 43.7119 204.015 43.7801C205.368 43.7274 206.686 43.3429 207.855 42.6606C208.692 42.2491 209.561 41.9041 210.452 41.6288C211.352 41.3344 212.293 41.1852 213.24 41.1866C215.158 41.1866 217.058 40.6817 218.98 40.738C220.322 40.7967 221.666 40.7126 222.99 40.4872C224.517 40.3445 226.023 40.0309 227.48 39.5522C228.945 38.9287 230.485 39.8726 231.954 39.579C232.506 39.5139 233.062 39.4813 233.618 39.4812C236.316 39.2836 239.027 39.3615 241.71 39.7137C244.254 40.0491 246.733 40.7698 249.06 41.851C250.242 42.4308 251.329 43.149 252.862 43.0785C252.976 43.0712 253.148 43.3175 253.113 43.4335C252.825 44.4083 253.046 44.7624 253.449 44.946C253.89 45.0659 254.313 45.2448 254.705 45.4777C255.429 46.2121 256.267 46.8379 256.907 47.6253C257.066 47.8212 257.22 48.0212 257.362 48.2279C257.488 48.4433 257.599 48.6674 257.694 48.8985C257.894 49.3758 257.976 49.8948 257.931 50.4105C257.927 50.484 257.939 50.5574 257.965 50.6262C257.991 50.6949 258.031 50.7576 258.083 50.8101C258.35 51.0467 258.566 51.3352 258.718 51.658C258.87 51.9809 258.955 52.3313 258.967 52.6879L258.999 53.7188C258.974 54.0474 258.993 54.3778 259.055 54.7014C259.155 55.7816 259.159 56.8686 259.067 57.9497C259.058 59.2831 258.906 60.6118 258.615 61.9132C258.222 63.4396 257.283 64.845 256.899 66.4789C256.513 68.1006 254.829 68.743 254.185 70.1644C253.833 70.7743 253.449 71.3641 253.032 71.9311C252.874 72.1784 252.787 72.4644 252.781 72.7578C252.774 73.0511 252.848 73.3406 252.995 73.5947C253.233 74.0531 253.229 74.4578 252.9 74.6052C252.509 74.7778 252.133 74.9846 251.778 75.2234C251.43 75.4338 251.106 75.6813 250.811 75.9615C250.206 76.5615 249.785 77.3231 249.6 78.1553C249.524 78.3185 249.4 78.4555 249.246 78.5491C249.092 78.6428 248.914 78.689 248.733 78.682C248.277 78.5987 247.806 78.6585 247.384 78.8532C246.963 79.0479 246.612 79.368 246.38 79.7697C245.828 80.6211 245.149 81.3828 244.367 82.0283C243.982 82.353 243.568 82.6421 243.131 82.8921C242.667 83.1185 242.179 83.2935 241.677 83.4139C240.689 83.6375 240.422 84.711 239.472 84.8968C238.486 85.0699 238.231 86.2131 237.453 86.7215C236.848 87.141 236.291 87.6459 235.65 88.019C234.793 88.4028 234.035 88.9746 233.43 89.6919C232.839 90.4792 231.617 90.1064 231.111 91.1114C231.008 91.2703 230.865 91.4 230.697 91.4881C230.529 91.5762 230.342 91.6198 230.152 91.6147C227.933 91.427 226.153 92.4648 224.17 92.9605C223.587 93.1148 223.012 93.2963 222.424 93.4268L220.656 93.8008L218.896 94.1892L217.12 94.4908C216.206 94.4873 215.293 94.4343 214.385 94.3322C213.335 94.4345 212.361 95.2237 211.287 95.4329C209.828 95.6032 208.363 95.8724 206.887 95.931C206.149 95.95 205.411 95.9495 204.673 95.9175C204.305 95.8997 203.936 95.8808 203.569 95.8399C203.203 95.7813 202.838 95.7125 202.474 95.6336C201.933 95.4675 201.409 95.2472 200.912 94.976C200.413 94.707 199.829 94.6408 199.283 94.7914C198.034 95.1834 196.568 94.1846 194.779 94.9536C194.49 95.0465 194.187 95.0874 193.884 95.0743C193.479 95.0859 193.097 95.0951 192.732 95.1319C191.671 95.2488 190.688 95.7459 189.964 96.5313C189.507 97.0475 189.158 97.65 188.937 98.3033C188.749 99.2196 188.266 100.049 187.562 100.665C186.126 101.718 185.627 103.306 184.913 104.378C184.623 104.809 184.335 105.237 184.048 105.663C183.779 106.066 183.54 106.489 183.335 106.927C182.896 107.825 182.76 108.841 182.946 109.823C182.963 109.922 182.955 110.024 182.924 110.12C182.893 110.216 182.839 110.303 182.767 110.373C182.53 110.548 182.331 110.769 182.181 111.022C182.031 111.275 181.933 111.556 181.893 111.847C181.847 112.128 181.815 112.412 181.799 112.696C181.828 112.845 181.846 112.994 181.854 113.145C181.856 113.367 181.834 113.589 181.789 113.806C181.783 113.917 181.742 114.023 181.672 114.109C181.552 114.236 181.321 114.231 181.016 113.813C180.533 113.143 180.686 112.95 180.921 114.431C181.063 115.169 181.068 115.927 180.938 116.668C180.779 117.533 180.667 118.406 180.604 119.284C180.515 120.198 180.413 120.1 180.358 119.659C180.297 119.229 180.284 118.455 180.245 118.309C180.124 117.88 179.979 118.446 179.678 118.66C179.602 118.709 179.486 118.651 179.453 118.483C179.415 118.273 179.41 118.057 179.436 117.845C179.529 117.046 179.686 116.255 179.907 115.482C179.712 115.935 179.545 116.4 179.405 116.874C178.524 119.42 178.057 120.129 179.66 115.695C179.835 115.209 180.023 114.681 180.003 114.72C179.801 115.064 179.957 114.423 180.219 113.854C180.442 113.387 180.157 113.82 180.082 113.762C180.005 113.81 179.937 113.871 179.881 113.943C179.175 114.679 177.821 116.481 178.141 115.551C178.307 115.078 178.661 114.546 178.781 114.254C178.914 113.922 178.612 113.864 178.049 113.662C177.483 113.491 176.659 113.142 175.722 112.87C174.214 112.39 172.597 112.372 171.079 112.818C170.857 112.91 170.659 113.05 170.498 113.228C170.311 113.465 170.178 113.74 170.11 114.034C169.804 115.423 169.626 116.837 169.579 118.259C169.545 119.856 169.61 121.386 169.668 122.858C169.726 124.336 169.773 125.76 169.71 127.314C169.609 129.313 169.65 131.316 169.833 133.309C169.95 134.697 170.266 136.061 170.772 137.359C171.119 138.202 171.57 138.998 172.115 139.729C172.578 140.37 173.128 140.942 173.75 141.43C174.038 141.647 174.36 141.814 174.703 141.925C175.118 142.049 175.556 142.08 175.984 142.014C176.506 141.918 177.014 141.756 177.496 141.532C178.318 141.112 179.233 140.906 180.156 140.933C180.382 140.579 180.589 140.338 180.822 140.022C181.034 139.736 181.265 139.466 181.515 139.213C181.745 138.918 181.99 138.635 182.25 138.366C182.389 138.23 182.516 138.081 182.627 137.921L183.014 137.436C183.214 136.807 183.415 136.176 183.617 135.543C183.816 134.919 184.017 134.339 184.22 133.79C184.619 132.621 185.031 131.595 185.452 130.565C186.288 128.538 187.198 126.557 187.923 124.309C188.268 123.312 188.614 122.312 188.961 121.31L189.484 119.828L189.736 119.1L189.941 118.458C190.209 117.602 190.452 116.74 190.634 115.886C190.728 115.277 190.749 114.659 190.698 114.046C190.731 113.446 190.876 112.857 191.127 112.311L192.389 108.323C192.698 107.191 193.111 106.09 193.625 105.034C193.748 104.796 193.899 104.573 194.073 104.369C194.223 104.198 194.403 104.056 194.605 103.951C194.925 103.794 195.288 103.751 195.636 103.827C196.242 103.918 196.831 104.101 197.382 104.369C198.095 104.632 198.85 104.768 199.61 104.771C201.083 104.852 202.58 105.14 204.026 104.617C205.498 104.046 206.893 105.258 208.371 104.864C208.993 104.753 209.608 104.609 210.215 104.432C210.797 104.21 211.432 104.169 212.038 104.313C213.074 104.521 214.134 104.59 215.188 104.518C216.67 104.356 218.118 104.08 219.593 103.946C221.075 103.838 222.538 103.663 224.058 103.66C224.999 103.649 225.533 102.934 225.691 101.949C225.783 101.406 226.111 101.329 226.65 101.408C227.174 101.495 227.711 101.467 228.224 101.326C228.736 101.185 229.212 100.934 229.618 100.59C229.895 100.285 230.233 100.042 230.61 99.8755C230.987 99.7091 231.394 99.6235 231.806 99.6241C232.652 99.6049 233.487 99.4208 234.262 99.0822C235.249 98.6967 236.194 98.2007 237.147 97.735C238.101 97.2715 239.005 96.7061 239.922 96.1744C240.501 95.9071 241.034 95.5519 241.503 95.1214C242.449 93.96 243.829 93.389 244.815 92.3347C245.854 90.9958 247.315 90.0466 248.961 89.6408C249.58 89.5065 250.165 89.2453 250.678 88.8738C251.17 88.4744 251.679 88.0915 252.185 87.704C252.673 87.2961 253.146 86.8677 253.599 86.4239C254.56 85.564 255.297 84.4846 255.75 83.2779C256.055 82.3878 256.955 82.2149 257.687 81.7904C258.214 81.4512 258.619 80.9531 258.843 80.3683C259.199 79.5874 259.409 78.7668 260.263 78.3636C261.278 77.8987 261.822 76.9214 262.557 76.1402C264.192 74.397 265.14 72.105 267.311 70.6267C267.89 68.8684 268.619 67.1632 269.491 65.5299C269.872 64.6343 270.078 63.6737 270.096 62.7005C270.107 62.4584 270.095 62.2159 270.06 61.9761C269.819 59.7729 269.951 57.545 270.449 55.3854C270.469 55.2716 270.463 55.1548 270.432 55.0434C270.401 54.9321 270.346 54.829 270.27 54.7416Z" fill="#006ADC"/>
<path d="M260.786 67.8138C260.092 67.3002 259.375 66.8246 258.647 66.3391C258.21 65.9871 257.663 65.8013 257.102 65.8148C256.529 65.8752 255.731 65.845 255.432 66.1876C254.819 66.9138 253.928 67.4806 253.245 68.1509C253.264 67.861 253.285 67.5515 253.297 67.1844C253.327 66.5007 253.281 65.8158 253.159 65.1423C252.969 64.1028 252.519 63.128 251.853 62.3078C251.137 61.4449 250.189 60.8038 249.122 60.4596C248.364 60.2201 247.568 60.1238 246.774 60.1758C246.205 60.2102 245.641 60.311 245.094 60.4763C244.678 60.5989 244.272 60.751 243.878 60.9313C243.473 61.1145 243.082 61.326 242.707 61.5644C241.737 62.1924 240.886 62.9882 240.195 63.9144C240.029 64.1339 239.87 64.3623 239.714 64.5948C238.983 63.9707 238.08 63.5832 237.125 63.4838C236.207 63.4641 235.29 63.5198 234.381 63.6502C233.633 63.7345 232.878 63.7356 232.13 63.6534C231.555 63.5667 230.967 63.6613 230.448 63.924C229.692 64.3324 228.972 64.8054 228.297 65.3375C227.62 65.8883 227.166 66.6655 227.018 67.5254C226.908 68.1702 226.24 68.1539 225.711 68.3739C225.54 68.4697 225.392 68.6023 225.278 68.7622C225.165 68.9221 225.088 69.1052 225.054 69.2983C224.914 69.835 224.955 70.4194 224.325 70.6023C223.61 70.8311 223.365 71.4571 222.936 71.908C221.959 72.9181 221.68 74.3145 220.013 74.8782C219.902 75.3433 219.767 75.8025 219.61 76.254C219.531 76.4736 219.429 76.6843 219.306 76.883C219.176 77.084 218.926 77.5227 218.684 77.8558C218.291 78.5772 218.06 79.3761 218.009 80.1961C217.992 80.3849 217.999 80.5751 218.031 80.7621C218.218 82.408 217.99 84.0745 217.369 85.61C217.313 85.7556 217.389 86.0012 217.522 86.006C218.007 86.031 218.253 86.1593 218.374 86.3523C218.445 86.7355 218.438 87.0673 218.024 87.0199C217.675 86.9767 217.321 87.0361 217.006 87.1909L216.583 87.3901C216.459 87.4379 216.247 87.5519 216.195 87.4901C215.894 87.3846 215.641 87.2037 215.515 87.1868C215.425 87.1387 215.484 87.2399 215.55 87.8913C215.561 87.9991 215.537 88.035 215.504 87.9355C215.278 87.1197 215.362 87.8545 215.202 88.1664C215.034 88.6249 214.612 88.6333 214.953 87.4855C215.244 86.5869 215.335 86.7657 214.663 87.5107C214.138 88.0836 213.922 88.0636 213.767 88.0195C213.512 87.9128 213.23 87.8923 212.963 87.9614C212.675 87.9934 212.786 87.7892 212.996 87.5974C213.201 87.3992 213.515 87.2141 213.602 87.1131C213.765 86.9245 213.867 86.6908 213.894 86.443C213.914 86.377 213.933 86.3741 213.972 86.3013C214.043 86.1296 214.133 85.9659 214.238 85.8128C214.464 85.4757 214.768 85.1981 215.124 85.0038C215.266 84.9289 215.069 84.6204 214.864 84.3995C214.23 83.7273 214.014 83.2169 215.499 83.6486C215.663 83.6962 215.877 83.6738 215.89 83.6053C216.056 82.9439 216.467 82.37 217.039 81.9993C217.515 81.6363 217.63 81.0084 217.925 80.4942C217.953 80.4484 217.966 80.3956 217.965 80.342C217.963 80.2885 217.945 80.2367 217.915 80.1929C217.43 79.7102 216.212 79.1643 216.866 78.8121C217.211 78.6322 217.685 78.5928 217.999 78.4115C218.683 78.0044 218.271 76.4013 217.184 74.8254C216.319 73.5327 215.259 72.3811 214.042 71.4112C213.766 71.1805 213.414 71.0595 213.054 71.0711C212.55 71.2099 212.093 71.4805 211.729 71.8552C210.955 72.7142 210.524 73.8451 209.717 74.6316C207.416 76.8895 206.182 79.9318 205.11 82.9125C205.063 83.0393 205.016 83.1666 204.977 83.2966L204.827 83.7802C204.707 84.1731 204.609 84.5724 204.533 84.9761C204.44 85.3698 204.368 85.7679 204.316 86.169C204.259 86.5677 204.189 86.9667 204.167 87.3649C204.013 88.9646 203.962 90.543 203.905 92.2719C204.454 93.387 204.941 94.5312 205.364 95.6994C206.351 96.2753 207.136 96.9693 208.032 97.5976C208.887 98.287 209.903 98.7472 210.986 98.9349C211.956 99.1315 212.952 99.1664 213.934 99.0381C214.992 98.8776 215.958 98.3478 216.663 97.5428C217.033 97.2034 217.458 96.9272 217.918 96.7253C218.894 96.1068 219.812 95.4021 220.662 94.6195L221.302 94.072L221.613 93.8063L221.828 93.6097L222.131 93.3382C222.246 93.4257 222.37 93.5007 222.501 93.5619C223.757 94.2118 225.166 94.5082 226.577 94.4193C228.149 94.3218 229.657 93.76 230.909 92.805C231.527 92.3367 232.155 92.1877 232.725 91.8224C233.432 91.2805 234.256 90.9109 235.131 90.7429C235.484 90.6834 235.815 90.533 236.092 90.3065C236.287 90.1183 236.419 89.8755 236.472 89.6102C236.534 89.3557 236.672 89.041 236.891 89.0783C238.01 89.269 238.539 88.5571 239.158 87.998L240.573 86.6124C241.029 86.137 241.496 85.6765 241.981 85.2338C242.357 84.871 242.769 84.5332 243.115 84.1413C243.21 84.1981 243.306 84.2562 243.402 84.3109C246.202 86.1086 250.047 85.362 252.664 82.7932C253.051 82.4339 253.522 82.1781 254.033 82.0494C255.306 81.5872 256.397 80.7293 257.146 79.6015C257.885 78.5777 257.887 77.1669 258.783 76.3033C259.022 76.0838 259.204 75.81 259.314 75.5052C259.341 75.4342 259.364 75.3619 259.384 75.2886C259.392 75.2417 259.398 75.1944 259.401 75.1469C259.409 75.0497 259.407 74.952 259.397 74.8551C259.321 74.4798 259.274 74.0993 259.256 73.7169C259.409 72.5682 259.874 71.4836 260.601 70.5809C260.838 69.9657 261.126 69.3711 261.462 68.8034C261.588 68.6089 261.329 68.223 260.786 67.8138ZM247.336 65.8555V65.8553C247.327 65.8635 247.335 65.8562 247.336 65.8555V65.8555ZM233.233 68.8259L233.234 68.8273L233.23 68.8261L233.233 68.8259ZM253.189 72.0161C252.982 72.0801 252.806 72.2197 252.697 72.4072C252.639 72.5886 252.645 72.7842 252.713 72.9618C252.954 73.8195 253.01 74.7182 252.879 75.5992C252.86 75.7577 252.429 75.5688 252.161 75.3392C251.662 74.9316 251.301 74.6162 251.165 74.876C250.849 75.5987 250.334 76.2174 249.682 76.6605C249.416 76.8095 249.119 76.8953 248.815 76.9113C248.51 76.9273 248.206 76.8731 247.926 76.7528C247.743 76.6934 247.552 76.6616 247.359 76.6583C247.684 76.2755 248.108 75.9901 248.584 75.8338C249.161 75.5848 249.616 75.117 249.848 74.5331C250.249 73.7979 250.536 73.0051 250.983 72.2926C251.332 71.5265 251.889 70.8736 252.59 70.4082C252.733 70.6651 252.911 70.9006 253.12 71.1077C253.492 71.4935 253.665 71.84 253.189 72.016L253.189 72.0161Z" fill="#80829B"/>
<path d="M224.127 44.916C224.573 44.1531 224.075 43.8478 223.657 43.5844C223.393 43.4258 223.58 43.0003 223.669 42.5828C223.764 42.1697 223.769 41.767 223.288 41.7499C223.125 41.7407 223.177 41.3402 223.219 41.0593C223.309 40.4118 223.036 39.9932 222.434 40.0307C221.818 40.0557 221.462 39.9337 221.324 39.3961C221.299 39.2544 221.244 39.1199 221.161 39.0022C221.079 38.8845 220.971 38.7865 220.846 38.7153C220.721 38.6441 220.582 38.6015 220.439 38.5904C220.295 38.5793 220.151 38.6001 220.017 38.6513C219.498 38.7936 218.986 39.1079 218.716 38.7776C218.586 38.6467 218.422 38.5553 218.242 38.5142C218.062 38.4731 217.875 38.484 217.701 38.5455C217.266 38.641 216.84 38.7749 216.429 38.9456C215.847 39.1253 215.254 39.4734 214.686 39.6904C214.13 39.9122 213.534 40.0168 212.935 39.9978C212.28 40.0522 211.634 40.1888 211.012 40.4045C210.354 40.5858 209.652 40.8398 209.011 40.9737C208.453 41.0193 207.908 41.1616 207.399 41.3942C206.967 41.1359 206.51 40.9212 206.036 40.7533C205.333 40.5412 204.833 39.8142 204.097 39.7364C203.197 39.6339 202.228 40.3388 201.381 40.5787C200.19 40.922 199.042 41.4001 197.96 42.0035L196.311 42.9023L195.48 43.3518C195.365 43.4113 195.224 43.4882 195.126 43.5306L194.833 43.6452C194.256 43.862 193.178 43.4301 193.006 44.2012C192.841 44.9675 191.824 44.6784 191.735 45.4994C191.717 45.7097 191.379 45.6848 191.161 45.7319C190.528 45.8708 190.567 46.5639 190.774 47.3732C190.888 47.8321 191.011 48.3123 190.518 48.2725C189.69 48.2155 189.31 48.7275 188.685 48.9358C187.625 49.2857 186.434 49.5954 186.66 51.0914C186.666 51.1193 186.667 51.1483 186.66 51.1763C186.654 51.2043 186.642 51.2306 186.625 51.2532C186.607 51.2759 186.585 51.2944 186.559 51.3074C186.534 51.3204 186.506 51.3275 186.477 51.3283C185.488 51.2924 185.639 52.139 185.449 52.7295C185.326 53.2029 185.069 53.6311 184.71 53.963C184.351 54.2949 183.904 54.5166 183.422 54.6018C183.218 54.6222 183.021 54.692 182.85 54.805C182.679 54.9181 182.537 55.071 182.438 55.2508C182.339 55.4305 182.285 55.6317 182.281 55.8369C182.276 56.0422 182.322 56.2454 182.414 56.4291C182.86 57.8967 181.769 58.6184 182.132 59.9793C182.348 60.7127 181.203 60.7745 180.785 61.2386C179.64 62.6023 179.676 64.4663 178.075 65.7069C177.933 65.819 178.139 66.1589 178.357 66.3773C179.025 67.0509 179.316 67.5027 177.769 67.3793C177.598 67.3658 177.388 67.4521 177.385 67.5379C177.297 68.3607 177.022 69.1524 176.579 69.8515C176.308 70.5877 176.198 71.3738 176.257 72.1563C176.249 72.2794 176.286 72.5104 176.399 72.5461C177.064 72.745 178.387 72.4541 178.006 73.3481C177.723 73.8724 177.52 74.4361 177.403 75.0205C177.388 75.3879 177.486 75.751 177.683 76.0614C177.88 76.3717 178.167 76.6144 178.506 76.7568C179.339 77.1189 180.275 77.165 181.14 76.8866C182.6 76.4434 184.013 75.8578 185.358 75.1382C185.628 75.0105 185.891 74.8685 186.146 74.7129C186.326 74.5554 186.467 74.4563 186.441 74.392C186.411 74.2982 186.303 74.3217 186.228 74.1334C186.183 74.0273 186.162 73.9125 186.168 73.7974C186.173 73.6823 186.204 73.5698 186.258 73.4682C187.08 71.7466 187.3 69.6649 188.058 67.8345C188.504 66.7458 188.779 65.529 189.814 64.735C189.742 65.5185 189.783 66.3084 189.937 67.0799C190.236 68.5536 190.944 69.9136 191.979 71.0046C192.754 71.8129 193.708 72.4284 194.765 72.8017C195.763 73.151 196.826 73.2781 197.879 73.1744C198.793 73.0784 199.685 72.8286 200.515 72.4353C201.019 72.2003 201.501 71.9211 201.955 71.601C202.215 71.4227 202.457 71.2189 202.676 70.9927C202.88 70.7886 203.054 70.5571 203.193 70.3049C203.7 69.3005 205.112 69.4402 205.613 68.4812C205.819 68.0618 206.211 67.7938 206.416 67.3791C206.501 67.1617 206.521 66.9244 206.472 66.6961C206.424 66.4679 206.31 66.2588 206.144 66.0946C205.855 65.7018 205.764 65.4034 206.002 65.3535C207.189 65.1127 207.934 64.4059 207.632 63.096C207.586 62.8955 207.851 62.7163 208.122 62.7284C209.019 62.7694 209.463 62.5245 209.537 61.8504C209.523 61.2243 209.656 60.6036 209.925 60.0382C210.195 59.4729 210.593 58.9786 211.088 58.5952C211.658 58.1913 211.149 57.4799 211.665 57.0831C211.756 57.0003 211.82 56.8922 211.85 56.7726C211.88 56.6531 211.873 56.5274 211.831 56.4115C211.951 56.5085 212.077 56.5969 212.209 56.6759C212.396 56.7734 212.591 56.8541 212.792 56.9171C212.927 56.9703 213.064 57.0166 213.203 57.0559C213.659 57.143 214.13 57.12 214.575 56.9888C215.309 56.7777 216.008 56.4588 216.648 56.0426C217.383 55.604 218.18 55.2779 219.011 55.0751C219.353 54.9504 219.661 54.7455 219.908 54.4777C220.154 54.2099 220.333 53.8869 220.43 53.5357C220.794 52.6525 221.366 51.8707 222.098 51.2571C222.781 50.5254 222.848 49.6893 223.48 48.8708C224.106 48.0283 224.005 47.2275 224.283 46.4227C224.472 45.807 223.66 45.6425 224.127 44.916ZM214.031 47.7209C214.054 47.7093 214.077 47.701 214.099 47.6921C214.078 47.7041 214.055 47.7137 214.031 47.7209ZM213.904 49.5071C213.902 49.4813 213.901 49.4553 213.902 49.4293C213.912 49.4195 213.882 49.4254 213.924 49.4115L213.93 49.4099L213.931 49.4097L213.932 49.4095H213.932L213.912 49.5443C213.91 49.5332 213.905 49.5168 213.904 49.5071H213.904ZM193.101 57.6231C193.068 57.6947 193.028 57.7629 192.992 57.8334C193.023 57.5947 193.019 57.3528 192.979 57.1154C192.933 56.798 193.175 56.6442 193.321 56.4443C193.508 56.1795 193.717 55.9321 193.918 55.6785C193.91 55.7042 193.899 55.7288 193.885 55.752C193.566 56.35 193.304 56.9764 193.101 57.6231V57.6231ZM195.184 54.6453C195.062 54.608 194.954 54.5788 194.854 54.5558C195.011 54.3771 195.166 54.1956 195.331 54.0237C195.352 54.1901 195.392 54.3536 195.45 54.511C195.481 54.5904 195.295 54.6788 195.184 54.6453V54.6453ZM212.441 51.0079C212.133 50.9221 211.81 50.9085 211.496 50.9681C211.513 50.8793 211.532 50.7898 211.548 50.6992C211.617 50.5267 211.628 50.3365 211.579 50.1572C211.531 49.9779 211.425 49.8193 211.278 49.7054C211.22 49.6604 211.173 49.6017 211.143 49.5344C211.191 49.5038 211.232 49.4636 211.263 49.4164C211.295 49.3691 211.316 49.3159 211.326 49.26C211.477 48.5268 212.183 48.6257 212.365 47.9212C212.414 47.7064 212.5 47.5015 212.617 47.3151C212.652 47.2061 212.724 47.1128 212.821 47.0517C212.976 46.9796 213.22 47.1002 213.437 47.4705C213.496 47.5955 213.578 47.7081 213.678 47.8027C213.582 47.8158 213.489 47.8484 213.405 47.8986C213.322 47.9487 213.249 48.0154 213.192 48.0944C213.135 48.1735 213.095 48.2633 213.073 48.3585C213.052 48.4536 213.051 48.5521 213.069 48.6479C213.099 49.4817 213.198 50.283 213.251 51.0008C213.257 51.1116 212.77 51.0738 212.441 51.0079V51.0079Z" fill="#000638"/>
</svg>
