<svg xmlns="http://www.w3.org/2000/svg" viewBox="0 0 240 150"><defs><style>.a{fill:#fff;}.b{fill:#2c2659;}.c{fill:#f78f1b;}.d{fill:#6cb73b;}.e{fill:#2abdf1;}.f{fill:#1c2750;}</style></defs><title>LOGO-UNAI-Mars-2019</title><rect class="a" width="240" height="150"/><path class="b" d="M220.38,9.25l-2.95-5.51a194.07,194.07,0,0,1-48.57,18.11l1.59,6A200.22,200.22,0,0,0,220.38,9.25ZM75.05,22.12c-9-1.8-17.07-3.91-24.06-6-9-2.72-16.13-5.44-21-7.47-2.46-1-4.35-1.86-5.62-2.45s-1.89-.89-1.89-.89l-2.82,5.57c.18.08,21.57,10.85,54.26,17.42l1.17-6.14Z"/><path class="b" d="M76.75,95.91a25.34,25.34,0,0,1-25.36,25.48H48.9A25.44,25.44,0,0,1,23.42,95.91V38.43H32.9V97.1a16.09,16.09,0,0,0,16,16h2.49a16,16,0,0,0,15.88-16V38.43h9.48V95.91Z"/><path class="b" d="M100.45,121.39H91V62.13H96.9l3.55,5.34a18,18,0,0,1,13.4-5.34h4.86a16,16,0,0,1,16.12,16v43.26h-9.49V77.07a6.62,6.62,0,0,0-6.63-6.64h-4.86a13.46,13.46,0,0,0-13.4,13.39v37.57Z"/><path class="c" d="M151.41,70.43v-8.3h23.12a15.84,15.84,0,0,1,16,15.88v43.38H162.67a15.81,15.81,0,0,1-16-16.11c0-7.24,5.81-13.87,13-15.65l21.34-5.1V77a6.5,6.5,0,0,0-6.52-6.52Zm11.26,42.67h18.38V93l-19.32,4.74a7.62,7.62,0,0,0-5.58,7.59c0,4.14,2.73,7.82,6.52,7.82Z"/><polygon class="d" points="204.75 62.13 214.23 62.13 214.23 121.39 204.75 121.39 204.75 62.13 204.75 62.13"/><path class="c" d="M134.74,26.61c-4.19.23-8.33.34-12.38.34H120c-3.52,0-7-.15-10.39-.35l-.36,6.32c3.5.19,7.06.32,10.68.36h2.46c4.17,0,8.42-.11,12.74-.36l-.36-6.31Z"/><polygon class="d" points="204.75 38.43 214.23 38.43 214.23 50.28 204.75 50.28 204.75 38.43 204.75 38.43"/><path class="e" d="M85.63,30.41q-5.43-.84-10.51-1.85h0l1.23-6.2c3.3.65,6.72,1.26,10.24,1.8h0c4.72.73,9.62,1.35,14.69,1.82h0l-.58,6.29c-5.2-.48-10.23-1.11-15.07-1.86Z"/><polygon class="b" points="143.63 32.27 143.63 32.27 143.63 32.27 143.63 32.27 143.63 32.27 143.63 32.27 143.63 32.27"/><path class="d" d="M143,26c3.41-.33,6.84-.74,10.31-1.25h0c4.79-.7,9.63-1.58,14.52-2.67h0l1.37,6.18q-7.58,1.67-15,2.74h0s-7.11.94-10.61,1.28h0L143,26Z"/><path class="f" d="M6.64,134.57H8.11v7.05h4.42V143H6.64Z"/><path class="f" d="M14,134.57h6.22v1.32H15.43v2.18h4.21v1.32H15.43v2.25h4.81V143H14Z"/><path class="f" d="M21.32,141.74l.89-1.06a3.88,3.88,0,0,0,2.65,1.09c.91,0,1.49-.43,1.49-1.05v0c0-.6-.34-.93-1.89-1.29-1.79-.43-2.8-1-2.8-2.5v0c0-1.44,1.2-2.43,2.87-2.43a4.66,4.66,0,0,1,3,1.05l-.79,1.12a3.77,3.77,0,0,0-2.28-.87c-.86,0-1.36.45-1.36,1v0c0,.65.38.94,2,1.32s2.69,1.07,2.69,2.46v0c0,1.57-1.24,2.5-3,2.5A5.18,5.18,0,0,1,21.32,141.74Z"/><path class="f" d="M35.93,134.51h1.36L41,143H39.43l-.85-2h-4l-.87,2H32.23ZM38,139.63l-1.45-3.36-1.44,3.36Z"/><path class="f" d="M41.6,141.74l.89-1.06a3.88,3.88,0,0,0,2.65,1.09c.91,0,1.49-.43,1.49-1.05v0c0-.6-.34-.93-1.9-1.29-1.78-.43-2.79-1-2.79-2.5v0c0-1.44,1.2-2.43,2.87-2.43a4.66,4.66,0,0,1,3,1.05l-.79,1.12a3.77,3.77,0,0,0-2.28-.87c-.86,0-1.36.45-1.36,1v0c0,.65.38.94,2,1.32s2.68,1.07,2.68,2.46v0c0,1.57-1.23,2.5-3,2.5A5.18,5.18,0,0,1,41.6,141.74Z"/><path class="f" d="M49.06,141.74l.88-1.06a3.88,3.88,0,0,0,2.65,1.09c.92,0,1.49-.43,1.49-1.05v0c0-.6-.33-.93-1.89-1.29-1.79-.43-2.8-1-2.8-2.5v0c0-1.44,1.2-2.43,2.87-2.43a4.66,4.66,0,0,1,3,1.05l-.79,1.12a3.77,3.77,0,0,0-2.28-.87c-.86,0-1.36.45-1.36,1v0c0,.65.38.94,2,1.32,1.78.43,2.69,1.07,2.69,2.46v0c0,1.57-1.24,2.5-3,2.5A5.14,5.14,0,0,1,49.06,141.74Z"/><path class="f" d="M56.82,138.79v0a4.39,4.39,0,0,1,8.78,0v0a4.39,4.39,0,0,1-8.78,0Zm7.23,0v0a2.87,2.87,0,0,0-2.85-3,2.83,2.83,0,0,0-2.83,3v0a2.86,2.86,0,0,0,2.85,3A2.82,2.82,0,0,0,64.05,138.79Z"/><path class="f" d="M66.91,138.79v0a4.25,4.25,0,0,1,4.33-4.34,4.38,4.38,0,0,1,3.29,1.31l-1,1.09a3.35,3.35,0,0,0-2.35-1,2.82,2.82,0,0,0-2.77,3v0a2.83,2.83,0,0,0,2.77,3,3.29,3.29,0,0,0,2.41-1.08l1,1a4.36,4.36,0,0,1-3.41,1.49A4.23,4.23,0,0,1,66.91,138.79Z"/><path class="f" d="M76.12,134.57h1.47V143H76.12Z"/><path class="f" d="M82.7,134.51h1.37L87.76,143H86.2l-.85-2h-4l-.86,2H79Zm2.11,5.12-1.45-3.36-1.44,3.36Z"/><path class="f" d="M90.08,135.93H87.42v-1.36h6.81v1.36H91.57v7H90.08Z"/><path class="f" d="M95.76,134.57h1.47V143H95.76Z"/><path class="f" d="M99,138.79v0a4.39,4.39,0,0,1,8.78,0v0a4.39,4.39,0,0,1-8.78,0Zm7.23,0v0a2.87,2.87,0,0,0-2.85-3,2.83,2.83,0,0,0-2.83,3v0a2.86,2.86,0,0,0,2.85,3A2.82,2.82,0,0,0,106.23,138.79Z"/><path class="f" d="M109.46,134.57h1.37l4.5,5.8v-5.8h1.45V143h-1.24l-4.63-6v6h-1.45Z"/><path class="f" d="M118.26,141.74l.89-1.06a3.86,3.86,0,0,0,2.65,1.09c.91,0,1.48-.43,1.48-1.05v0c0-.6-.33-.93-1.89-1.29-1.79-.43-2.79-1-2.79-2.5v0c0-1.44,1.19-2.43,2.86-2.43a4.66,4.66,0,0,1,3.05,1.05l-.79,1.12a3.79,3.79,0,0,0-2.28-.87c-.87,0-1.37.45-1.37,1v0c0,.65.38.94,2,1.32,1.78.43,2.69,1.07,2.69,2.46v0c0,1.57-1.24,2.5-3,2.5A5.17,5.17,0,0,1,118.26,141.74Z"/><path class="f" d="M130,134.57h1.48V143H130Z"/><path class="f" d="M133.58,134.57H135l4.5,5.8v-5.8h1.45V143h-1.24L135,137v6h-1.45Z"/><path class="f" d="M145,135.93h-2.67v-1.36h6.82v1.36h-2.67v7H145Z"/><path class="f" d="M150.6,134.57h6.22v1.32h-4.75v2.18h4.21v1.32h-4.21v2.25h4.81V143H150.6Z"/><path class="f" d="M158.53,134.57h3.74a3.38,3.38,0,0,1,2.43.84,2.54,2.54,0,0,1,.69,1.81v0a2.52,2.52,0,0,1-2,2.54l2.27,3.18h-1.75L161.85,140H160V143h-1.48Zm3.63,4.16c1.06,0,1.73-.55,1.73-1.4v0c0-.9-.65-1.39-1.74-1.39H160v2.82Z"/><path class="f" d="M167.1,134.57h1.57l2.55,4,2.56-4h1.57V143h-1.48v-6l-2.65,4h0L168.55,137v6H167.1Z"/><path class="f" d="M177.4,134.57h6.22v1.32h-4.75v2.18h4.21v1.32h-4.21v2.25h4.81V143H177.4Zm3.88-2.44,1.32.58-1.54,1.16h-1.12Z"/><path class="f" d="M185.33,134.57h3.13a4.18,4.18,0,0,1,4.46,4.17v0a4.2,4.2,0,0,1-4.46,4.2h-3.13Zm1.47,1.34v5.71h1.66a2.74,2.74,0,0,0,2.91-2.83v0a2.75,2.75,0,0,0-2.91-2.85Z"/><path class="f" d="M194.67,134.57h1.48V143h-1.48Z"/><path class="f" d="M201.26,134.51h1.37l3.69,8.45h-1.56l-.85-2h-4l-.86,2h-1.51Zm2.11,5.12-1.45-3.36-1.44,3.36Z"/><path class="f" d="M207.73,134.57h1.48V143h-1.48Z"/><path class="f" d="M211.34,134.57h3.74a3.38,3.38,0,0,1,2.43.84,2.54,2.54,0,0,1,.69,1.81v0a2.51,2.51,0,0,1-2,2.54l2.27,3.18h-1.75L214.66,140h-1.84V143h-1.48Zm3.64,4.16c1.05,0,1.72-.55,1.72-1.4v0c0-.9-.64-1.39-1.74-1.39h-2.14v2.82Z"/><path class="f" d="M219.91,134.57h6.22v1.32h-4.74v2.18h4.2v1.32h-4.2v2.25h4.8V143h-6.28Z"/><path class="f" d="M227.28,141.74l.89-1.06a3.86,3.86,0,0,0,2.65,1.09c.91,0,1.48-.43,1.48-1.05v0c0-.6-.33-.93-1.89-1.29-1.79-.43-2.8-1-2.8-2.5v0c0-1.44,1.2-2.43,2.87-2.43a4.68,4.68,0,0,1,3.05,1.05l-.79,1.12a3.81,3.81,0,0,0-2.28-.87c-.87,0-1.37.45-1.37,1v0c0,.65.38.94,2,1.32,1.78.43,2.69,1.07,2.69,2.46v0c0,1.57-1.24,2.5-3,2.5A5.17,5.17,0,0,1,227.28,141.74Z"/></svg>